<?xml version="1.0" encoding="utf-8"?>
<!-- Generator: Adobe Illustrator 16.0.0, SVG Export Plug-In . SVG Version: 6.00 Build 0)  -->
<!DOCTYPE svg PUBLIC "-//W3C//DTD SVG 1.1//EN" "http://www.w3.org/Graphics/SVG/1.1/DTD/svg11.dtd">
<svg version="1.1" id="Layer_1" xmlns="http://www.w3.org/2000/svg" xmlns:xlink="http://www.w3.org/1999/xlink" x="0px" y="0px" width="2015px" height="110px" viewBox="0 0 2015 110" enable-background="new 0 0 2015 110" xml:space="preserve">
	<path d="M32.7,18.3c-2.2-3.9-4.4-7.9-6.7-11.8H9.1v29.7C17,32,24.9,27.7,32.7,23.2V18.3z"/>
	<path d="M32.7,6.5H26c2.2,4,4.5,7.9,6.7,11.8V6.5z"/>
	<path d="M30.1,78.5c0.8,0.8,1.6,1.6,2.4,2.5c0.1,0.1,0.1,0.1,0.2,0.2V77C31.8,77.5,31,78,30.1,78.5z"/>
	<path d="M30.1,78.5c-6.9,4.1-14,8-21.1,11.6v1.3h23.6V81.2c-0.1-0.1-0.1-0.1-0.2-0.2C31.7,80.2,30.9,79.4,30.1,78.5z"/>
	<path d="M50.5,65.2v26.2h8.6c1.5-2.8,2.9-5.7,4.4-8.5c1.3-2.4,2.6-4.7,3.9-7.1c-3.5-5.2-6.9-10.5-10.2-15.8
		C55,61.9,52.8,63.6,50.5,65.2z"/>
	<path d="M74.2,52.3c0-2.5-0.2-4.8-0.6-6.9c-5.1,5.2-10.6,10.1-16.4,14.7c3.3,5.3,6.7,10.6,10.2,15.8c2.3-4.3,4.6-8.6,6.8-12.9V52.3z
		"/>
	<path d="M67.4,75.9c2.2,3.3,4.5,6.5,6.8,9.8V62.9C72,67.3,69.8,71.6,67.4,75.9z"/>
	<path d="M63.5,83c-1.5,2.8-3,5.7-4.4,8.5h15.1v-5.9c-2.3-3.2-4.6-6.5-6.8-9.8C66.1,78.3,64.8,80.6,63.5,83z"/>
	<path d="M9.1,67.1v23.1c7.1-3.7,14.2-7.5,21.1-11.6c-5.5-5.7-11-11.4-16.4-17.1C12.2,63.3,10.6,65.2,9.1,67.1z"/>
	<path d="M57.2,60.1c-5.8-9.3-11.4-18.8-17-28.5c-1,0.6-2,1.2-3,2C29.4,42.8,21.6,52,13.7,61.4c5.4,5.7,10.9,11.4,16.4,17.1
		c0.9-0.5,1.7-1,2.6-1.5V61.9c0-5.6,0.9-9.5,2.7-11.7s4.1-3.2,7-3.2c2.6,0,4.6,0.8,6,2.4c1.4,1.6,2.1,4.3,2.1,8.2v7.6
		C52.8,63.6,55,61.9,57.2,60.1z"/>
	<path d="M68.7,34.4c-3.7-3.9-8.7-5.9-15.2-5.9c-4.3,0-8.1,0.7-11.3,2.1c-0.7,0.3-1.3,0.6-2,1c5.5,9.6,11.1,19.1,17,28.5
		c5.8-4.6,11.3-9.5,16.4-14.7C72.8,40.7,71.2,37,68.7,34.4z"/>
	<path d="M9.1,67.1c1.6-1.9,3.1-3.8,4.7-5.6c-1.6-1.7-3.1-3.3-4.7-5V67.1z"/>
	<path d="M32.7,37.8V23.2C24.9,27.7,17,32,9.1,36.2v20.3c1.6,1.7,3.1,3.3,4.7,5c7.8-9.4,15.7-18.7,23.5-27.8
		C35.7,34.8,34.2,36.2,32.7,37.8z"/>
	<path d="M89,44.8c-2.4,4.6-3.7,9.9-3.7,16c0,6.8,1.5,12.7,4.6,17.7c1.6,2.7,3.5,5,5.6,6.9c3.3-7,6.9-13.9,10.7-20.6
		C100.4,58.2,94.7,51.5,89,44.8z"/>
	<path d="M128.9,29c-1.2-0.1-2.4-0.3-3.6-0.3c0.7,0.9,1.4,1.7,2,2.6C127.9,30.5,128.4,29.8,128.9,29z"/>
	<path d="M125.3,28.7c-1.7-0.1-3.4-0.2-5.2-0.2c-10.9,0-19.4,3-25.6,8.9c-2.3,2.2-4.1,4.7-5.6,7.4c5.7,6.7,11.4,13.4,17.3,19.9
		c1.8-3.2,3.6-6.4,5.5-9.5h-2.4c0.4-3.7,1.3-6.4,2.7-8.3c2-2.6,4.5-4.1,7.6-4.4c2.5-3.8,5-7.5,7.6-11.3
		C126.7,30.4,126,29.5,125.3,28.7z"/>
	<path d="M109.5,91.9c3.3,0.6,7.1,1,11.4,1c4.1,0,7.8-0.3,11.1-0.8c-3.9-4-7.8-8-11.6-12.1C116.7,84,113.1,88,109.5,91.9z"/>
	<path d="M128,77.3c-2.1,1.2-4.3,1.7-6.6,1.7c-0.1,0-0.1,0-0.2,0c-0.3,0.3-0.6,0.7-0.9,1c3.8,4.1,7.7,8.1,11.6,12.1
		c4.2-0.7,7.7-1.7,10.5-3.2c5-2.7,9.3-7.1,12.9-13.3l-23.3-2.1C130.6,75.2,129.3,76.5,128,77.3z"/>
	<path d="M143.5,53.2c-5.1-7.5-10.6-14.8-16.2-22c-2.6,3.7-5.1,7.5-7.6,11.3c0.4,0,0.9-0.1,1.4-0.1c3.2,0,5.9,1,7.9,3
		c2,2,3.2,5.2,3.7,9.8h-20.9c-1.9,3.1-3.7,6.3-5.5,9.5c1.1,1.2,2.2,2.5,3.4,3.7c-0.1-0.6-0.2-1.2-0.3-1.9h22.9
		C136,62.1,139.8,57.7,143.5,53.2z"/>
	<path d="M152,42.9c-2.6-4.5-6.3-8-11-10.4c-3.3-1.7-7.3-2.9-12.1-3.5c-0.5,0.7-1,1.5-1.6,2.3c5.6,7.2,11,14.5,16.2,22
		C146.4,49.8,149.2,46.4,152,42.9z"/>
	<path d="M120.3,80c0.3-0.3,0.6-0.7,0.9-1c-0.7,0-1.4-0.1-2-0.2C119.5,79.2,119.9,79.6,120.3,80z"/>
	<path d="M112.4,75c-1.3-1.5-2.3-3.7-2.8-6.5c-1.1-1.2-2.2-2.5-3.4-3.7c-3.8,6.7-7.4,13.6-10.7,20.6c1.8,1.7,3.8,3,6,4.1
		c2.2,1.1,4.9,1.9,7.9,2.5c3.6-4,7.2-7.9,10.8-11.9c-0.4-0.4-0.8-0.8-1.1-1.2C116.5,78.4,114.2,77.1,112.4,75z"/>
	<path d="M156.7,66.5v-2.7c0-8.1-1.3-14.7-4-19.8c-0.2-0.4-0.4-0.8-0.7-1.2c-2.8,3.5-5.6,6.9-8.5,10.3c3,4.4,5.9,8.8,8.7,13.3H156.7z
		"/>
	<path d="M152.2,66.5c-2.8-4.5-5.7-8.9-8.7-13.3c-3.7,4.5-7.5,8.9-11.3,13.3H152.2z"/>
	<path d="M168.3,6.5v15.2c3.7-5,7.2-10.1,10.7-15.2H168.3z"/>
	<path d="M185.9,6.5H179c-3.5,5.1-7,10.2-10.7,15.2v32.2c1,1,2,1.9,3.1,2.9c6.8-9.9,13.7-19.7,20.6-29.6V13.6
		C190,11.2,188,8.8,185.9,6.5z"/>
	<path d="M168.3,53.9v7.3c1-1.5,2-3,3.1-4.4C170.4,55.8,169.4,54.8,168.3,53.9z"/>
	<path d="M192,6.5h-6.1c2,2.4,4.1,4.8,6.1,7.1V6.5z"/>
	<path d="M171.4,56.7c4.2,3.9,8.4,7.7,12.7,11.6c2.6-3.9,5.3-7.7,7.9-11.5V27.1C185.1,37,178.2,46.8,171.4,56.7z"/>
	<path d="M171.4,56.7c-1,1.5-2.1,3-3.1,4.4v30.2c5.3-7.8,10.5-15.4,15.7-23C179.8,64.5,175.6,60.6,171.4,56.7z"/>
	<path d="M192,56.8c-2.6,3.8-5.3,7.7-7.9,11.5c2.6,2.4,5.3,4.7,7.9,7.1V56.8z"/>
	<path d="M184.1,68.3c-5.2,7.6-10.4,15.2-15.7,23v0.2H192V75.4C189.4,73,186.7,70.7,184.1,68.3z"/>
	<path d="M231.6,91.5V65.1c-2.3-3.4-4.7-6.8-7.1-10.2c-4.8,8.1-10.2,15.9-16.6,23.2v11.2c0.8,0.7,1.6,1.4,2.4,2.1H231.6z"/>
	<path d="M210.4,91.5c-0.8-0.7-1.6-1.4-2.4-2.1v2.1H210.4z"/>
	<path d="M231.6,41.7c-2.2,4.5-4.6,8.9-7.1,13.2c2.4,3.4,4.8,6.7,7.1,10.2V41.7z"/>
	<path d="M227.4,6.5h-19.5V33c0.1,0.1,0.2,0.3,0.3,0.4C214.5,24.5,220.8,15.5,227.4,6.5z"/>
	<path d="M207.9,33v0.9c0.1-0.2,0.2-0.3,0.3-0.5C208.1,33.3,208,33.1,207.9,33z"/>
	<path d="M208.2,33.4c-0.1,0.2-0.2,0.3-0.3,0.5v44.3c6.4-7.3,11.8-15.1,16.6-23.2C219.2,47.7,213.8,40.5,208.2,33.4z"/>
	<path d="M231.6,41.7V6.5h-4.2c-6.5,9.1-12.9,18.1-19.1,27c5.6,7.1,11,14.2,16.2,21.5C227,50.6,229.4,46.2,231.6,41.7z"/>
	<path d="M268.9,48.9c-3.5-5.1-7-10.2-10.5-15.3c-1.9,1.1-3.6,2.5-5.1,4c-6.3,6.1-9.5,13.8-9.5,23.2c0,7.8,2.3,14.4,6.7,19.9
		C256.3,70,262.4,59.3,268.9,48.9z"/>
	<path d="M279,28.5c-8.1,0-15,1.7-20.5,5.2c3.5,5.1,7,10.2,10.5,15.3c4.3-6.9,8.7-13.7,13.4-20.3C281.2,28.5,280.1,28.5,279,28.5z"/>
	<path d="M294,84.5c-1,2.3-1.9,4.6-2.9,6.9c2.2-0.6,4.3-1.3,6.2-2.3c-0.3-0.4-0.6-0.8-0.8-1.2C295.7,86.8,294.8,85.7,294,84.5z"/>
	<path d="M314.5,60.5c0-5.9-1.2-11.1-3.7-15.6c-5.5,13.2-11.3,26.4-16.8,39.7c0.8,1.2,1.6,2.3,2.5,3.5c0.3,0.4,0.6,0.8,0.8,1.2
		c2.9-1.4,5.5-3.2,7.7-5.4C311.4,77.7,314.5,70,314.5,60.5z"/>
	<path d="M279.1,76.9c-1.9,0-3.5-0.4-5-1.2c-3.5,4.9-7.1,9.7-10.7,14.5c4.5,1.8,9.8,2.7,15.6,2.7c4.4,0,8.5-0.5,12.1-1.5
		c0.9-2.3,1.9-4.6,2.9-6.9c-2.5-3.5-5-7-7.5-10.5C284.5,76,282,76.9,279.1,76.9z"/>
	<path d="M306.9,39.2c-1.6-1.8-3.4-3.4-5.4-4.8c-3.8,6.3-7.7,12.4-11.7,18.6c0.7,2.1,1,4.6,1,7.6c0,5.7-1.1,9.9-3.3,12.5
		c-0.3,0.4-0.6,0.7-1,1c2.5,3.5,5,7,7.5,10.5c5.6-13.3,11.3-26.5,16.8-39.7C309.8,42.9,308.5,41,306.9,39.2z"/>
	<path d="M270.8,48.7c2.2-2.6,5.1-4,8.5-4c3.2,0,6,1.3,8.2,3.9c1,1.2,1.7,2.6,2.3,4.3c4-6.1,7.9-12.3,11.7-18.6
		c-5.1-3.5-11.5-5.4-19.2-5.9c-4.6,6.7-9.1,13.4-13.4,20.3c0.3,0.4,0.6,0.8,0.9,1.2C270.1,49.6,270.4,49.1,270.8,48.7z"/>
	<path d="M270.8,73c-2.2-2.6-3.3-6.7-3.3-12.2c0-4.5,0.8-8,2.3-10.6c-0.3-0.4-0.6-0.8-0.9-1.2c-6.5,10.4-12.6,21-18.4,31.9
		c1.3,1.6,2.8,3.1,4.5,4.5c2.5,2,5.3,3.7,8.4,4.9c3.6-4.8,7.2-9.6,10.7-14.5C272.9,75.1,271.8,74.2,270.8,73z"/>
	<path d="M323.9,80.1c0.2,0.4,0.3,0.7,0.5,1.1c1.7,3.3,3.8,6.3,6.1,8.9c1.5-2.6,2.9-5.3,4.4-8c-2.7-3.7-4.7-7.9-6-12.7
		C327.2,73,325.6,76.5,323.9,80.1z"/>
	<path d="M337.7,85.5c-1-1.1-2-2.2-2.9-3.4c-1.4,2.7-2.9,5.3-4.4,8c3,3.5,6.6,6.4,10.6,8.8c7.1,4.1,15.1,6.2,24.1,6.2
		c4.1,0,8.1-0.4,11.9-1.2c0.6-3.2,1.3-6.3,1.9-9.5c-4.5,1.4-9.1,2.2-14,2.2C353.8,96.4,344.8,92.8,337.7,85.5z"/>
	<path d="M406.8,49.1c0-0.8,0.1-1.7,0.1-2.5c0-12.2-3.8-22.2-11.5-30c-1-1-2-1.9-3-2.7c-0.5,3.5-0.9,7-1.4,10.5
		c4,4.8,6.3,10.9,6.9,18.2C400.8,44.7,403.8,46.9,406.8,49.1z"/>
	<path d="M382.6,74.7c-0.6,3.2-1.2,6.5-1.8,9.7c2.7-0.6,5.5-1.8,8.5-3.6c0.4-0.3,0.8-0.5,1.2-0.8c-2-2-4.1-4-6.1-6
		C383.8,74.3,383.2,74.5,382.6,74.7z"/>
	<path d="M402.4,66.5c2.6-5.3,4.1-11.1,4.4-17.4c-3-2.2-6-4.4-8.9-6.5c0.1,1.3,0.2,2.7,0.2,4.1c0,6.2-1.1,11.5-3.2,15.9
		c-2.1,4.4-4.9,7.7-8.2,10.1c-0.8,0.5-1.5,1-2.2,1.3c2,2,4.1,4,6.1,6C395.7,76.6,399.6,72.1,402.4,66.5z"/>
	<path d="M389.3,22.5c0.6,0.6,1.2,1.2,1.7,1.9c0.5-3.5,1-7,1.4-10.5C385.2,8,376.3,5,365.7,5c-0.1,0-0.2,0-0.2,0
		c-0.7,2.9-1.5,5.8-2.3,8.7c0.8,0,1.7-0.1,2.5-0.1C375.6,13.6,383.4,16.6,389.3,22.5z"/>
	<path d="M340.5,42c-1.7,4.3-3.4,8.6-5.2,12.9c-0.2,1.7-0.3,3.4-0.3,5.2c0,6.3,1.2,11.4,3.4,15.3c3.2-6.1,6.2-12.2,9.1-18.4
		c0.3-3,0.9-6.2,1.7-9.5c0.5-2,1-3.7,1.6-5.3c-2.5-2.3-5-4.6-7.5-6.9C342.3,37.5,341.4,39.7,340.5,42z"/>
	<path d="M357.1,33.6c1.2-3.5,2.4-7.1,3.4-10.6c-0.2,0-0.5,0-0.7,0c-5.4,0-10.1,2.3-14.2,6.8c-0.8,1.8-1.6,3.7-2.4,5.5
		c2.5,2.3,5,4.6,7.5,6.9c1.2-3,2.6-5.3,4.2-7C355.7,34.5,356.4,34,357.1,33.6z"/>
	<path d="M406.9,85.6h-10.8c1.8,1.9,3.7,3.7,5.5,5.6C403.3,89.5,405.1,87.7,406.9,85.6z"/>
	<path d="M396.1,85.6H395c-4.6,3.6-9.4,6.3-14.4,8.1c-0.6,0.2-1.1,0.4-1.7,0.6c-0.6,3.2-1.2,6.3-1.9,9.5c2.1-0.5,4.1-1,6.1-1.7
		c5.6-2,10.5-4.5,14.7-7.7c1.2-0.9,2.5-2,3.8-3.2C399.8,89.3,398,87.4,396.1,85.6z"/>
	<path d="M342.1,34.4c-3.9,6.2-6.1,13.1-6.9,20.5c1.8-4.3,3.6-8.6,5.2-12.9c0.9-2.3,1.8-4.5,2.8-6.8c-0.4-0.3-0.7-0.6-1.1-1
		C342.2,34.3,342.2,34.4,342.1,34.4z"/>
	<path d="M342.2,34.3c0.4,0.3,0.7,0.6,1.1,1c0.8-1.8,1.6-3.7,2.4-5.5C344.4,31,343.3,32.5,342.2,34.3z"/>
	<path d="M385.8,25h-11.3l-0.1,0.5c3.4,2.5,6.8,4.9,10.1,7.4L385.8,25z"/>
	<path d="M378.9,68.6c-3.5-3.4-7.1-6.8-10.6-10.2c-0.2,0.7-0.3,1.5-0.5,2.3c-1.5,6.3-3.3,10.5-5.3,12.6c-2,2.1-4.3,3.2-6.7,3.2
		c-2.3,0-4.2-0.9-5.6-2.8c-2-2.5-3-6.1-3-10.7c0-1.9,0.1-3.9,0.3-5.9c-2.9,6.2-5.9,12.4-9.1,18.4c0.6,1.1,1.3,2.2,2.1,3.1
		c3.7,4.3,8.1,6.4,13.3,6.4c2.5,0,4.8-0.5,6.9-1.5c2.1-1,4.5-2.8,7.1-5.3c0.7,2.4,1.8,4.1,3.2,5.2c1.5,1.1,3.4,1.6,5.7,1.6
		c1.3,0,2.7-0.2,4-0.5c0.6-3.2,1.2-6.5,1.8-9.7c-0.7,0.2-1.3,0.3-2,0.3c-0.8,0-1.3-0.2-1.7-0.6c-0.4-0.4-0.6-0.9-0.6-1.6
		c0-0.4,0.1-1.1,0.2-2L378.9,68.6z"/>
	<path d="M384.6,32.8c-3.4-2.5-6.8-4.9-10.1-7.4l-1,6.1c-2.1-3.2-4.2-5.4-6.4-6.7c-1.9-1.2-4.1-1.8-6.6-1.9
		c-1.1,3.6-2.2,7.1-3.4,10.6c1.4-0.9,3-1.3,4.7-1.3c2.2,0,4.2,1,5.8,2.9c1.6,1.9,2.4,4.8,2.4,8.6c0,4.4-0.6,9.3-1.7,14.7
		c3.6,3.4,7.1,6.8,10.6,10.2L384.6,32.8z"/>
	<path d="M324.6,29.5c-4.2,7.9-6.2,16.7-6.2,26.3c0,8.8,1.8,16.8,5.5,24.2c1.7-3.5,3.3-7.1,5-10.7c-1.1-4.1-1.6-8.6-1.6-13.5
		c0-8,1.6-15.3,4.8-21.9c1-2.1,2.2-4,3.5-5.8c-2.1-1.9-4.3-3.9-6.4-5.8C327.5,24.6,326,26.9,324.6,29.5z"/>
	<path d="M345.9,18.9c1.9-1.1,3.9-2,6-2.8c0.8-1.8,1.7-3.5,2.5-5.3c-1.5-1.1-3.1-2.3-4.7-3.4c-3,1-5.9,2.3-8.5,3.9
		c-4.7,2.8-8.7,6.6-12.1,11.1c2.1,1.9,4.3,3.9,6.4,5.8C338.3,24.4,341.8,21.2,345.9,18.9z"/>
	<path d="M356.9,5.7c-2.5,0.4-4.9,1-7.1,1.7c1.6,1.1,3.1,2.3,4.7,3.4C355.2,9.1,356,7.4,356.9,5.7z"/>
	<path d="M363.2,13.7c0.8-2.9,1.5-5.8,2.3-8.7c-3,0-5.9,0.3-8.6,0.7c-0.8,1.7-1.7,3.4-2.5,5.1c1.6,1.1,3.1,2.3,4.7,3.4
		C360.4,14,361.8,13.8,363.2,13.7z"/>
	<path d="M354.4,10.8c-0.8,1.8-1.7,3.5-2.5,5.3c2.3-0.9,4.7-1.5,7.2-1.9C357.5,13.1,355.9,11.9,354.4,10.8z"/>
	<path d="M493.4,28.7c-0.9,0.1-1.8,0.3-2.7,0.5c0.5,0.7,1,1.3,1.5,2C492.6,30.3,493,29.5,493.4,28.7z"/>
	<path d="M490.7,29.2c-1.7,0.4-3.2,0.8-4.6,1.5c-3,1.5-6.4,4.2-10.1,8.2c-1.8-3.4-4.2-6-7-7.8c-2.2-1.4-5.1-2.2-8.6-2.5
		c6.2,8.4,12.3,16.9,18.2,25.6c0.4-1.7,1.1-3.1,2-4.2c0.8-1,1.8-1.7,2.9-2.3c3-5.5,5.9-11,8.6-16.6C491.7,30.5,491.2,29.8,490.7,29.2
		z"/>
	<path d="M478.2,57.2c0.1-1.1,0.3-2.1,0.5-3c-5.9-8.6-12-17.1-18.2-25.6c-0.6-0.1-1.3-0.1-2-0.1c-4.8,6.5-9.9,12.9-15.2,19.1
		c1.1-0.5,2.3-0.8,3.7-0.8c1.7,0,3.1,0.5,4.4,1.4s2.1,2.2,2.6,3.7c0.3,1,0.5,2.8,0.5,5.5v26.3c1.5,1.1,3,2.2,4.5,3.3
		C465.8,77.5,472.2,67.5,478.2,57.2z"/>
	<path d="M454.4,83.9v7.6h1.3c1.1-1.4,2.1-2.9,3.2-4.3C457.4,86.1,455.9,85,454.4,83.9z"/>
	<path d="M478.1,79.6c-1.7,4-3.5,7.9-5.2,11.9h5.2V79.6z"/>
	<path d="M513,34.4c-3.2-3.4-7.4-5.3-12.7-5.8c-1.2,2.9-2.4,5.8-3.6,8.7c8.1,11.4,15.3,23.3,21.9,35.5v-20
		C518.5,44.4,516.7,38.3,513,34.4z"/>
	<path d="M494.9,91.5h7.8c-2.5-4.3-5.1-8.5-7.8-12.7V91.5z"/>
	<path d="M518.5,72.8c-6.6-12.3-13.8-24.1-21.9-35.5c-1.6,3.8-3.2,7.6-4.9,11.3c0.5,0.4,1,1,1.5,1.6c1.1,1.4,1.6,3.4,1.6,6.2v22.4
		c2.6,4.2,5.2,8.4,7.8,12.7h15.9V72.8z"/>
	<path d="M472.9,91.5c1.7-4,3.5-7.9,5.2-11.9V59.7c0-0.9,0-1.7,0.1-2.5c-6,10.3-12.4,20.3-19.3,29.9c2,1.4,4,2.9,6,4.3H472.9z"/>
	<path d="M464.9,91.5c-2-1.4-4-2.9-6-4.3c-1,1.5-2.1,2.9-3.2,4.3H464.9z"/>
	<path d="M500.3,28.6c-0.9-0.1-1.8-0.1-2.8-0.1c-1.4,0-2.8,0.1-4.1,0.2c-0.4,0.8-0.8,1.6-1.2,2.4c1.5,2,3,4.1,4.4,6.1
		C497.9,34.4,499.1,31.5,500.3,28.6z"/>
	<path d="M491.8,48.6c1.6-3.8,3.3-7.5,4.9-11.3c-1.4-2.1-2.9-4.1-4.4-6.1c-2.8,5.6-5.6,11.1-8.6,16.6c1.1-0.5,2.4-0.8,3.8-0.8
		C489,47,490.5,47.5,491.8,48.6z"/>
	<path d="M428.5,65c-4.9,5.9-9.8,11.8-14.5,17.8v8.7h23.7V71.7C434.6,69.4,431.5,67.2,428.5,65z"/>
	<path d="M437.7,60c0-2.8,0.3-5.2,1-7c-3.4,4-6.8,7.9-10.1,11.9c3.1,2.2,6.1,4.5,9.2,6.7V60z"/>
	<path d="M414,54.4v28.4c4.7-6,9.5-11.9,14.5-17.8C423.7,61.4,418.8,57.9,414,54.4z"/>
	<path d="M457.4,28.5c-4.6,0-8.5,0.8-11.7,2.4c-3.2,1.6-6.4,4.3-9.6,8v-9h-22v24.5c4.8,3.5,9.7,7.1,14.5,10.6c3.3-4,6.7-8,10.1-11.9
		c0.4-1.2,1-2.3,1.7-3.1c0.9-1,1.9-1.8,3-2.3c5.3-6.2,10.4-12.6,15.2-19.1C458.1,28.5,457.7,28.5,457.4,28.5z"/>
	<path d="M545.5,30.8c-1.3,0.4-2.4,0.9-3.4,1.4c-3,1.7-5.3,3.6-6.9,5.9c-1.6,2.3-2.8,5.4-3.7,9.3l22.6,2.4c0.9-2.7,2.1-4.5,3.7-5.5
		c0.5-0.3,1.1-0.6,1.8-0.9C554.9,39.3,550.2,35.1,545.5,30.8z"/>
	<path d="M566.8,42.5c1.7-4.6,3.1-9.2,4.3-13.9c-2.4-0.1-4.9-0.2-7.7-0.2c-4.4,0-8.5,0.3-12.3,1c-2.1,0.4-4,0.8-5.6,1.4
		c4.7,4.2,9.4,8.5,14.1,12.7c1.8-0.7,4.1-1,6.9-1C566.6,42.5,566.7,42.5,566.8,42.5z"/>
	<path d="M581.3,29.9c-0.3-0.1-0.5-0.1-0.8-0.2c-1-0.2-2.1-0.3-3.2-0.5c0.1,2.3,0.2,4.6,0.3,6.9C578.8,34,580,31.9,581.3,29.9z"/>
	<path d="M577.5,36.1c-0.1-2.3-0.2-4.6-0.3-6.9c-1.3-0.2-2.6-0.3-4.1-0.4c-1.6,4.6-3.2,9.2-4.8,13.8c2,0.2,3.4,0.7,4.4,1.6
		C574.3,41.5,575.9,38.8,577.5,36.1z"/>
	<path d="M573.2,28.8c-0.7,0-1.4-0.1-2.1-0.1c-1.2,4.7-2.7,9.3-4.3,13.9c0.6,0,1.1,0,1.6,0.1C569.9,38,571.6,33.4,573.2,28.8z"/>
	<path d="M555.3,80.6c0.3-0.7,0.6-1.3,0.8-2c0,0-0.1-0.1-0.1-0.1C555.7,79.2,555.5,79.9,555.3,80.6z"/>
	<path d="M564.5,53.6c-1.5,4.4-3,8.7-4.5,13.1c0.3-0.1,0.6-0.2,0.9-0.3c2.1-4.7,4.4-9.2,6.9-13.7c-0.5,0.1-1,0.3-1.5,0.4
		C565.8,53.3,565.2,53.5,564.5,53.6z"/>
	<path d="M541.6,91.3c2.5,0.9,5.3,1.4,8.5,1.5c1.7-4.1,3.5-8.1,5.1-12.3c0.2-0.7,0.5-1.4,0.7-2.1c-0.2-0.1-0.4-0.3-0.6-0.5
		c-1.3-1.2-1.9-2.7-1.9-4.6c0-1.6,0.7-3.1,2-4.3c0.8-0.8,2.4-1.6,4.6-2.4c1.5-4.4,3-8.7,4.5-13.1c-0.7,0.2-1.6,0.4-2.5,0.6
		C556.3,66.9,549.3,79.1,541.6,91.3z"/>
	<path d="M549,56.9c-7.4,1.5-12.5,3.7-15.2,6.7c-2.7,3-4.1,6.9-4.1,11.5c0,5,1.9,9.2,5.7,12.6c1.7,1.5,3.8,2.7,6.2,3.5
		c7.6-12.2,14.7-24.5,20.4-37.1C558.9,54.9,554.6,55.8,549,56.9z"/>
	<path d="M551.2,92.8c1.3-4.1,2.7-8.2,4.1-12.3c-1.7,4.1-3.5,8.1-5.1,12.3C550.5,92.8,550.8,92.8,551.2,92.8z"/>
	<path d="M578.2,60.2c-0.1-8-0.3-16-0.6-24.1c-1.6,2.7-3.2,5.4-4.8,8.1c0,0,0.1,0.1,0.1,0.1c1.2,1.2,1.8,3.2,1.8,6.1
		c-1.8,0.7-3.6,1.3-5.3,1.9C572.3,54.9,575.2,57.6,578.2,60.2C578.1,60.2,578.1,60.2,578.2,60.2z"/>
	<path d="M577.5,61c0.2-0.3,0.4-0.5,0.6-0.7c-2.9-2.7-5.8-5.4-8.8-8c-0.5,0.2-1.1,0.3-1.6,0.5c-2.5,4.5-4.8,9-6.9,13.7
		c1.1-0.4,2.3-0.7,3.6-1.1c3.5-0.9,6.9-1.9,10.2-3.1V66c0,2.9-0.5,5.3-1.4,7.2c-0.9,1.8-2.6,3.4-4.8,4.7c-2.3,1.3-4.7,1.9-7.3,1.9
		c-2.1,0-3.7-0.4-5-1.2c-0.3,0.7-0.5,1.3-0.8,2c-1.4,4.1-2.7,8.2-4.1,12.3c0.3,0,0.7,0,1,0c5.5,0,10.4-0.9,14.6-2.6
		c3.1-1.3,6.1-3.4,9.2-6.4c0.3,1.8,0.5,3.1,0.8,3.9c0.3,0.8,0.8,1.9,1.6,3.4c0-10.3,0-20.6-0.2-30.9c0,0-0.1,0-0.1-0.1
		C577.9,60.5,577.7,60.7,577.5,61z"/>
	<path d="M578.1,60.3C578.1,60.3,578.1,60.3,578.1,60.3C578.2,60.3,578.2,60.2,578.1,60.3C578.1,60.2,578.1,60.2,578.1,60.3z"/>
	<path d="M596,42.3c0-0.1-0.1-0.2-0.1-0.3c-1.2-3.2-2.7-5.7-4.8-7.4c-2.7-2.4-6-3.9-9.9-4.8c-1.2,2.1-2.5,4.2-3.7,6.2
		c0.3,8,0.5,16,0.6,24.1C583.5,53.4,589.5,47.5,596,42.3z"/>
	<path d="M597.7,79.4c0-0.3,0-0.7,0-1V51.2c0-2.8-0.6-5.8-1.6-8.9c-6.5,5.2-12.6,11-17.9,17.8c0,0.1,0,0.1,0,0.2
		C584.9,66.5,591.4,72.9,597.7,79.4z"/>
	<path d="M597.7,79.4c-6.3-6.5-12.8-12.9-19.5-19.1c0.2,10.3,0.2,20.6,0.2,30.9c0,0.1,0.1,0.2,0.1,0.2h22.2c-1.2-2.6-2-4.7-2.4-6.3
		C597.9,83.7,597.7,81.8,597.7,79.4z"/>
	<path d="M636.3,16V6.5h-18.7c4.7,4.1,9.3,8.3,13.8,12.5C633.1,18,634.7,17,636.3,16z"/>
	<path d="M617.6,6.5h-4.9v24.1c6.2-4,12.5-7.7,18.8-11.6C626.9,14.8,622.3,10.6,617.6,6.5z"/>
	<path d="M636.3,16c-1.6,1-3.3,2-4.9,3c1.6,1.5,3.3,3,4.9,4.5V16z"/>
	<path d="M631.4,19c-6.3,3.9-12.6,7.6-18.8,11.6v14c5.2,8.3,10.4,16.7,15.4,25.2c2.8-3.1,5.6-6.2,8.3-9.4V23.5
		C634.7,22,633.1,20.5,631.4,19z"/>
	<path d="M612.7,44.6v41.2c5.2-5.3,10.4-10.6,15.4-16C623,61.3,617.9,52.9,612.7,44.6z"/>
	<path d="M636.3,91.5v-7.1c-1.4,2.4-2.8,4.7-4.1,7.1H636.3z"/>
	<path d="M636.3,60.4c-2.7,3.2-5.5,6.3-8.3,9.4c2.8,4.7,5.6,9.5,8.3,14.3V60.4z"/>
	<path d="M628,69.8c-5,5.4-10.1,10.7-15.4,16v5.7h19.5c1.4-2.4,2.8-4.7,4.1-7.1V84C633.6,79.3,630.8,74.5,628,69.8z"/>
	<path d="M671.2,29.9c-0.8,0.2-1.6,0.4-2.3,0.6c0.4,0.3,0.8,0.6,1.2,0.9C670.5,31,670.8,30.4,671.2,29.9z"/>
	<path d="M660.1,46.2c-1.8-1.8-3.7-3.6-5.6-5.4c-1,1.4-2,2.8-2.7,4.3c-2.2,4.2-3.2,9.5-3.2,15.8c0,1.1,0,2.1,0.1,3.1
		C652.4,58,656.2,52.1,660.1,46.2z"/>
	<path d="M670.1,31.5c-0.4-0.3-0.8-0.6-1.2-0.9c-0.7,0.2-1.4,0.5-2.1,0.8c-2.9,1.2-5.7,3-8.5,5.5c-1.4,1.3-2.7,2.6-3.8,4
		c1.9,1.8,3.7,3.6,5.6,5.4C663.4,41.3,666.7,36.3,670.1,31.5z"/>
	<path d="M700.5,52.1c-2.2-1.3-4.3-2.7-6.4-4.1c1.1,1.2,1.9,2.7,2.4,4.6L700.5,52.1z"/>
	<path d="M689.1,44.8c0,0.1-0.1,0.2-0.1,0.3c0.3,0.1,0.7,0.2,1,0.3C689.7,45.2,689.4,45,689.1,44.8z"/>
	<path d="M692.6,46.7c0.5,0.4,1,0.8,1.4,1.3c2.1,1.4,4.3,2.7,6.4,4.1l14.4-1.9c0.7-1.6,1.3-3.3,2-4.9c-2.2-4.8-5.3-8.6-9.4-11.3
		c-2.9-2-6.6-3.4-11.1-4.3c-2.5,5.1-4.9,10.2-7.3,15.2c0.3,0.2,0.6,0.4,0.8,0.6C690.9,45.7,691.8,46.1,692.6,46.7z"/>
	<path d="M716.9,45.2c-0.7,1.6-1.3,3.3-2,4.9l3.7-0.5C718.1,48.1,717.5,46.6,716.9,45.2z"/>
	<path d="M690.6,75.9c-1.7,0.8-3.6,1.2-5.7,1.2c-3.7,0-6.7-1.3-9-3.8c-2.6,5.7-5.1,11.5-7.6,17.3c0.5,0.2,1.1,0.4,1.6,0.5
		c4.4,1.2,9.8,1.8,16.3,1.8c4.1,0,7.7-0.4,11-1c1-2.3,2-4.5,3-6.8C696.9,82,693.7,78.9,690.6,75.9z"/>
	<path d="M707.3,68.5l-9.9-1.1c-1,3.3-2.6,5.7-4.7,7.3c-0.6,0.5-1.3,0.9-2.1,1.2c3.2,3.1,6.3,6.1,9.5,9.2
		C702.5,79.5,704.9,74,707.3,68.5z"/>
	<path d="M713.7,82.1c2.8-3.4,4.9-7.5,6.1-12.2l-12.5-1.4c-2.4,5.5-4.7,11-7.2,16.6c1.5,1.4,3,2.8,4.4,4.2
		C708.2,87.4,711.2,85,713.7,82.1z"/>
	<path d="M700.1,85c-1,2.3-2,4.5-3,6.8c2.1-0.5,4-1,5.8-1.8c0.6-0.2,1.1-0.5,1.7-0.8C703.1,87.9,701.6,86.4,700.1,85z"/>
	<path d="M696.4,29.6c-3.5-0.7-7.5-1.1-11.9-1.1c-5.1,0-9.5,0.5-13.3,1.4c-0.4,0.5-0.7,1-1.1,1.6c6.2,4.7,12.5,9.1,19,13.3
		C691.5,39.7,694,34.7,696.4,29.6z"/>
	<path d="M675.7,48.9c2.4-2.8,5.6-4.2,9.5-4.2c1.4,0,2.6,0.1,3.8,0.4c0-0.1,0.1-0.2,0.1-0.3c-6.5-4.2-12.8-8.7-19-13.3
		c-3.4,4.9-6.7,9.8-10,14.7c4.1,3.9,8.1,7.9,12.1,11.8C672.7,54.1,673.8,51.1,675.7,48.9z"/>
	<path d="M675.7,73.1c-2.4-2.6-3.6-6.5-3.6-11.5c0-1.3,0.1-2.4,0.2-3.6c-4-3.9-8.1-7.9-12.1-11.8c-3.9,5.9-7.7,11.8-11.5,17.8
		c0.3,4.7,1.1,8.5,2.6,11.5c1.8,3.7,4.2,6.9,7.4,9.6c2.7,2.4,5.9,4.2,9.6,5.4c2.5-5.8,5-11.6,7.6-17.3
		C675.7,73.2,675.7,73.2,675.7,73.1z"/>
	<path d="M742.1,41.6c-1.3-1.6-2.5-3.2-3.8-4.9c-0.3,0.3-0.7,0.6-1,0.9c-6.3,6.1-9.5,13.8-9.5,23.2c0,0.7,0,1.4,0.1,2
		C732.4,55.7,737.2,48.6,742.1,41.6z"/>
	<path d="M749.9,30.3c-4.5,1.4-8.3,3.5-11.7,6.4c1.3,1.6,2.5,3.3,3.8,4.9C744.7,37.8,747.3,34,749.9,30.3z"/>
	<path d="M755.1,73.3c-0.1-0.1-0.2-0.2-0.3-0.3c-2.2-2.6-3.3-6.7-3.3-12.2c0-0.8,0-1.5,0.1-2.2c-2.9,2.5-5.9,5-9,7.4
		c-2.5,2.2-5,4.6-7.3,6.9c4.4,2.6,8.7,5.2,13,7.9C750.5,78.3,752.8,75.8,755.1,73.3z"/>
	<path d="M735.2,72.9c-1.2,1.2-2.4,2.5-3.6,3.7c1.8,3.2,4.3,6.1,7.3,8.7c1,0.8,2,1.5,3.1,2.2c2-2.2,4.1-4.5,6.1-6.7
		C743.9,78.2,739.6,75.5,735.2,72.9z"/>
	<path d="M790.9,39.2c-0.5-0.6-1.1-1.2-1.7-1.8c-1.7,1.8-3.5,3.6-5.4,5.4c4.8,4,9.6,8.1,14.3,12.1C797.2,48.9,794.8,43.7,790.9,39.2z
		"/>
	<path d="M798.1,54.9c-4.8-4.1-9.5-8.1-14.3-12.1c-0.4,0.4-0.8,0.8-1.3,1.2c-2.9,3-5.8,6.1-8.7,9.1c0.6,2.1,1,4.6,1,7.4
		c0,5.7-1.1,9.9-3.3,12.5c-0.2,0.2-0.3,0.4-0.5,0.5c4,3.8,8.2,7.4,12.5,10.9c4.5-4.5,9-8.9,13.5-13.5c1-3.2,1.5-6.7,1.5-10.5
		C798.5,58.6,798.4,56.7,798.1,54.9z"/>
	<path d="M783.5,84.5c-4.3-3.5-8.5-7.1-12.5-10.9c-2.1,2.2-4.7,3.3-7.9,3.3c-3.2,0-5.9-1.2-8.1-3.6c-2.3,2.5-4.6,5-6.8,7.5
		c6.3,3.9,12.5,7.8,18.6,11.9c3.7-0.3,7-0.9,10.1-1.9C779.2,88.8,781.3,86.6,783.5,84.5z"/>
	<path d="M742.1,87.6c5.6,3.5,12.6,5.3,20.9,5.3c1.3,0,2.6,0,3.9-0.1c-6.1-4.1-12.3-8.1-18.6-11.9C746.2,83.1,744.1,85.3,742.1,87.6z
		"/>
	<path d="M789.1,83.8c3.8-3.6,6.4-7.9,7.9-12.8c-4.5,4.5-9,9-13.5,13.5c0.8,0.7,1.6,1.3,2.5,1.9C787.1,85.6,788.1,84.7,789.1,83.8z"
		/>
	<path d="M786,86.4c-0.8-0.6-1.7-1.3-2.5-1.9c-2.2,2.1-4.3,4.3-6.5,6.4C780.3,89.8,783.3,88.3,786,86.4z"/>
	<path d="M789.2,37.4c-2.7-2.6-5.8-4.6-9.4-6c-1.4,1.5-2.8,3-4.3,4.5c2.8,2.3,5.5,4.6,8.3,6.9C785.6,41,787.5,39.3,789.2,37.4z"/>
	<path d="M775.5,35.9c-3,3.1-6,6.2-9.2,9.2c2,0.6,3.7,1.7,5.2,3.5c1,1.2,1.8,2.7,2.3,4.5c2.9-3,5.8-6.1,8.7-9.1
		c0.4-0.4,0.8-0.8,1.3-1.2C781,40.5,778.3,38.2,775.5,35.9z"/>
	<path d="M766.5,28.6c3,2.4,6,4.9,9,7.3c1.4-1.5,2.9-3,4.3-4.5C775.9,29.8,771.5,28.9,766.5,28.6z"/>
	<path d="M754.8,48.7c2.2-2.6,5.1-4,8.5-4c1.1,0,2.1,0.2,3,0.4c3.1-3,6.2-6.1,9.2-9.2c-3-2.5-6-4.9-9-7.3c-1.2-0.1-2.3-0.1-3.6-0.1
		c-4.8,0-9.1,0.6-13,1.8c-2.7,3.7-5.3,7.5-7.9,11.3c3.3,4.2,6.7,8.3,10.2,12.3C752.8,51.8,753.6,50.1,754.8,48.7z"/>
	<path d="M742.5,66c3.1-2.4,6-4.9,9-7.4c0.1-1.7,0.4-3.3,0.7-4.7c-3.5-4-6.9-8.1-10.2-12.3c-4.9,7-9.6,14.1-14.3,21.3
		c0.1,2.2,0.4,4.2,0.9,6.2c2.2,1.3,4.3,2.6,6.5,3.9C737.5,70.6,740,68.2,742.5,66z"/>
	<path d="M735.2,72.9c-2.2-1.3-4.3-2.6-6.5-3.9c0.7,2.7,1.6,5.2,3,7.6C732.8,75.4,734,74.2,735.2,72.9z"/>
	<path d="M810.7,29.4v27.8c5.6-5.7,11.2-11.5,16.8-17.2C821.9,36.4,816.3,32.9,810.7,29.4z"/>
	<path d="M834.4,33V10.1c-0.9-1.2-1.8-2.4-2.6-3.7H816c-1.5,1.5-3,3-4.5,4.5c-0.3,0.3-0.5,0.7-0.8,1v17.4c5.6,3.5,11.2,7,16.8,10.6
		C829.8,37.7,832.1,35.3,834.4,33z"/>
	<path d="M834.4,6.5h-2.6c0.9,1.2,1.7,2.5,2.6,3.7V6.5z"/>
	<path d="M817.2,71.6c-2.2-1.9-4.3-3.9-6.5-5.8v11.4C812.8,75.3,815,73.5,817.2,71.6z"/>
	<path d="M834.4,57.2V44.4c-2.3-1.5-4.6-2.9-6.9-4.4c0,0,0,0,0,0c-5.6,5.7-11.2,11.5-16.8,17.2v8.7c2.2,1.9,4.4,3.8,6.5,5.8
		C822.9,66.8,828.6,61.9,834.4,57.2z"/>
	<path d="M834.4,44.4V33c-2.3,2.3-4.6,4.7-6.9,7c0,0,0,0,0,0C829.8,41.5,832.1,43,834.4,44.4z"/>
	<path d="M834.4,57.2c-5.8,4.8-11.5,9.6-17.1,14.4c5.8,5.2,11.5,10.4,17.1,15.6V57.2z"/>
	<path d="M817.2,71.6c-2.2,1.9-4.4,3.7-6.5,5.6v14.2h23.7v-4.2C828.7,82,823,76.8,817.2,71.6z"/>
	<path d="M816,6.5h-5.3V12c0.3-0.3,0.5-0.7,0.8-1C813,9.4,814.5,7.9,816,6.5z"/>
	<path d="M851.4,29.9h-1.8v14.9c3.1-2.5,6.2-5.1,9.4-7.6C856.4,34.8,853.9,32.4,851.4,29.9z"/>
	<path d="M867.9,29.9h-16.5c2.5,2.5,5,4.9,7.6,7.3C862,34.7,865,32.3,867.9,29.9z"/>
	<path d="M849.6,91.5h0.2c6.7-8.3,13.2-16.7,19.6-25.3c-6.5-4.1-13.1-8.2-19.8-12.3V91.5z"/>
	<path d="M873.3,60c0-4,0.6-7,1.9-9.1c-5.5-4.4-10.9-9-16.2-13.8c-3.1,2.5-6.3,5.1-9.4,7.6v9.2c6.6,4.1,13.3,8.1,19.8,12.3
		c1.3-1.7,2.6-3.5,3.9-5.2V60z"/>
	<path d="M875.9,50c1.7-2,4-3.1,6.7-3.1c0.3,0,0.6,0,0.8,0.1c4.3-6.1,8.6-12.2,12.9-18.3c-1.1-0.1-2.2-0.2-3.3-0.2
		c-4.6,0-8.5,0.8-11.7,2.4c-3.2,1.6-6.4,4.3-9.6,8v-9h-3.7c-3,2.4-6,4.8-9,7.3c5.3,4.8,10.7,9.4,16.2,13.8
		C875.4,50.6,875.6,50.3,875.9,50z"/>
	<path d="M869.4,66.2c1.3,0.8,2.6,1.7,3.9,2.5V61C872,62.7,870.7,64.5,869.4,66.2z"/>
	<path d="M849.8,91.5h23.5V68.7c-1.3-0.8-2.6-1.7-3.9-2.5C863,74.8,856.5,83.2,849.8,91.5z"/>
	<path d="M890,62.5v17.7c0.1,0.1,0.2,0.1,0.2,0.2c2.8-3.8,5.7-7.5,8.5-11.2C895.9,67,893,64.7,890,62.5z"/>
	<path d="M890,80.7c0.1-0.1,0.2-0.2,0.2-0.3c-0.1-0.1-0.2-0.1-0.2-0.2V80.7z"/>
	<path d="M889.6,52c0.3,1,0.5,2.8,0.5,5.5v5c2.9,2.2,5.9,4.5,8.8,6.7c9-11.5,18.4-22.5,27.9-33.2c-1.5-1.8-3-3.6-4.5-5.4
		c-0.1,0.1-0.2,0.1-0.4,0.2c-3,1.5-6.4,4.2-10.1,8.2c-1.8-3.4-4.2-6-7-7.8c-2.2-1.3-5-2.1-8.3-2.5c-4.3,6.1-8.5,12.2-12.9,18.3
		c1.3,0.1,2.5,0.6,3.5,1.4C888.2,49.2,889.1,50.5,889.6,52z"/>
	<path d="M933.3,28.5c-0.1,0-0.1,0-0.2,0c-4.3,0-8,0.7-10.9,2c1.5,1.8,3,3.6,4.5,5.4C928.9,33.5,931.1,31,933.3,28.5z"/>
	<path d="M954.1,91.5v-13c-4,4.3-8,8.7-11.9,13H954.1z"/>
	<path d="M954.1,65.5V52.8c0-2.6-0.2-4.9-0.6-7.1c-3,3.4-5.9,6.8-8.9,10.2C947.8,59.1,950.9,62.3,954.1,65.5z"/>
	<path d="M944.7,55.9c-4.7,5.4-9.5,10.8-14.2,16.3v19.3h11.7c4-4.4,7.9-8.7,11.9-13v-13C950.9,62.3,947.8,59.1,944.7,55.9z"/>
	<path d="M890,80.7v10.8h14.3c-4.5-3.9-9.2-7.6-14.1-11.1C890.2,80.5,890.1,80.6,890,80.7z"/>
	<path d="M913.7,80.8c-4.9-4-9.9-7.8-14.9-11.6c-2.9,3.7-5.7,7.4-8.5,11.2c4.9,3.5,9.6,7.2,14.1,11.1h9.3V80.8z"/>
	<path d="M944.7,55.9c-6.2-6.4-12.2-13.1-18-19.9c-9.5,10.8-18.8,21.7-27.9,33.2c5,3.8,10,7.6,14.9,11.6V59.7c0-4.4,0.8-7.7,2.5-9.7
		s3.9-3,6.7-3c2.4,0,4.3,1.1,5.9,3.2c1.1,1.4,1.6,3.4,1.6,6.2v15.8C935.2,66.7,939.9,61.3,944.7,55.9z"/>
	<path d="M948.6,34.4c-3.7-3.9-8.8-5.8-15.3-5.9c-2.2,2.5-4.4,5-6.6,7.5c5.8,6.9,11.8,13.5,18,19.9c3-3.4,6-6.8,8.9-10.2
		C952.8,40.9,951.1,37.1,948.6,34.4z"/>
	<path d="M962,29.9V36c1.8-2,3.5-4.1,5.3-6.1H962z"/>
	<path d="M992.8,5c-1.9,0-3.6,0.1-5.2,0.2c-2.7,3.5-5.4,6.9-8.2,10.3c5.1,3.6,10.2,7.2,15.3,10.7c0-0.8,0.1-1.4,0.2-1.8
		c0.4-1.5,1-2.7,2-3.4c0.9-0.7,2.5-1.1,4.6-1.1c1.7,0,4,0.2,6.8,0.7l2.6-14.3C1002.9,5.5,996.9,5,992.8,5z"/>
	<path d="M1005.1,29.9h-5.4c1,0.7,2,1.4,3,2.1C1003.5,31.3,1004.3,30.6,1005.1,29.9z"/>
	<path d="M970.8,61c2.7-2.7,5.5-5.4,8.3-8.1c-5.7-4.7-11.4-9.5-17.1-14.4v8.6h8.8V61z"/>
	<path d="M999.7,29.9h-5.2c0-1.5,0-2.7,0.1-3.6c-5-3.6-10.1-7.2-15.3-10.7c-2.8,3.4-5.6,6.8-8.5,10.2c0,0.5,0,1,0,1.4v2.8h-3.6
		c-1.7,2-3.5,4.1-5.3,6.1v2.5c5.7,4.8,11.3,9.6,17.1,14.4c6.8-6.5,13.9-12.8,21.4-18.9c0.7-0.7,1.5-1.3,2.2-2
		C1001.7,31.3,1000.7,30.6,999.7,29.9z"/>
	<path d="M970.8,90v1.4h11.4c-2.3-2-4.5-4-6.7-6C973.9,87,972.4,88.5,970.8,90z"/>
	<path d="M994.5,71c-6.7,4.4-13.1,9.2-19,14.5c2.2,2,4.5,4,6.7,6h12.2V71z"/>
	<path d="M1005.8,29.9h-0.6c-0.8,0.7-1.6,1.4-2.4,2.1c1,0.7,2,1.4,3,2.2V29.9z"/>
	<path d="M1002.7,32c-0.7,0.7-1.5,1.3-2.2,2c-7.5,6.1-14.6,12.4-21.4,18.9c5.1,4.2,10.2,8.4,15.4,12.5V47.2h11.3v-13
		C1004.7,33.5,1003.7,32.7,1002.7,32z"/>
	<path d="M970.8,90c1.5-1.6,3.1-3.1,4.7-4.5c-1.6-1.4-3.1-2.8-4.7-4.2V90z"/>
	<path d="M994.5,65.4c-5.2-4.1-10.3-8.3-15.4-12.5c-2.8,2.7-5.5,5.4-8.3,8.1v20.3c1.6,1.4,3.1,2.8,4.7,4.2c5.9-5.3,12.2-10.1,19-14.5
		V65.4z"/>
	<path d="M987.6,5.2c-2.7,0.3-4.9,0.8-6.6,1.5c-2.7,1.2-4.8,2.7-6.3,4.6c-0.1,0.2-0.3,0.4-0.4,0.6c1.7,1.2,3.4,2.3,5,3.5
		C982.1,12.1,984.8,8.7,987.6,5.2z"/>
	<path d="M974.3,12c-1.3,1.8-2.2,4.1-2.6,6.8c-0.4,2.5-0.7,4.7-0.8,6.9c2.8-3.4,5.7-6.8,8.5-10.2C977.7,14.3,976,13.2,974.3,12z"/>
	<path d="M1076.8,44.1c-2.4-4.6-5.9-8.2-10.3-10.8c-0.3,0.3-0.7,0.5-1,0.7c-4.6,3.7-8.7,7.4-12.6,11.2c0.1,0.1,0.2,0.1,0.3,0.2
		c2,2,3.2,5.2,3.7,9.8h-14.2c-0.9,0.9-1.8,1.7-2.7,2.6c4.5,3,8.9,5.9,13.5,8.7h27.5v-2.7C1080.8,55.8,1079.5,49.2,1076.8,44.1z"/>
	<path d="M1075,75.1l-8.9-0.8c2,1.2,4.1,2.3,6.1,3.5C1073.1,76.9,1074.1,76,1075,75.1z"/>
	<path d="M1066.1,74.3l-9.9-0.9c-1.5,1.9-2.8,3.2-4.1,3.9c-2.1,1.2-4.3,1.7-6.6,1.7c-3.7,0-6.7-1.3-8.9-4c-1.6-1.9-2.6-4.7-3.1-8.5
		h19.8c-4.5-2.8-9-5.7-13.5-8.7c-4.5,4.2-9.1,8.3-14.3,12.2c-3.8,2.9-7.5,5.8-11.3,8.7c0.9,1.5,1.9,2.8,3,4.1c3.4,2.5,6.9,5,10.4,7.5
		c4.5,1.7,10.2,2.6,17.3,2.6c4.4,0,8.4-0.3,11.9-0.9c1.6-1.3,3.2-2.6,4.7-4c3.6-3.4,7.2-6.8,10.7-10.2
		C1070.2,76.6,1068.1,75.5,1066.1,74.3z"/>
	<path d="M1025.7,89.4c0.6,0.3,1.3,0.6,1.9,0.8c-3.5-2.5-7-5-10.4-7.5C1019.7,85.6,1022.5,87.9,1025.7,89.4z"/>
	<path d="M1079.5,75.5l-4.5-0.4c-0.9,0.9-1.8,1.8-2.8,2.7c1.4,0.8,2.8,1.6,4.2,2.3C1077.5,78.7,1078.5,77.2,1079.5,75.5z"/>
	<path d="M1072.2,77.8c-3.5,3.4-7.1,6.8-10.7,10.2c-1.5,1.4-3.1,2.7-4.7,4c3.9-0.7,7.1-1.7,9.8-3.1c3.7-2,7-4.9,9.8-8.7
		C1075,79.4,1073.6,78.6,1072.2,77.8z"/>
	<path d="M1035.7,47.8c-2,1.1-4,2.1-5.9,3.2c1.3,0.9,2.7,1.8,4,2.7C1034.1,51.3,1034.8,49.3,1035.7,47.8z"/>
	<path d="M1042.6,55.2h-6.6c1.3,0.9,2.6,1.7,3.9,2.6C1040.8,57,1041.7,56.1,1042.6,55.2z"/>
	<path d="M1014.2,78.7c3.7-2.9,7.5-5.8,11.3-8.7c5.3-3.9,9.9-8,14.3-12.2c-1.3-0.9-2.6-1.7-3.9-2.6h-2.4c0.1-0.5,0.1-1,0.2-1.5
		c-1.3-0.9-2.7-1.8-4-2.7c-6.8,3.6-13.6,7.2-20.2,10.9c0.2,6.3,1.7,11.8,4.6,16.5C1014.1,78.5,1014.2,78.6,1014.2,78.7z"/>
	<path d="M1044.3,28.5c-10.9,0-19.4,3-25.6,8.9c-1.2,1.1-2.3,2.4-3.2,3.7c4.7,3.3,9.5,6.7,14.2,9.9c2-1.1,4-2.1,5.9-3.2
		c0.2-0.3,0.4-0.6,0.6-0.9c2.2-3,5.2-4.5,9-4.5c0.1,0,0.1,0,0.2,0c2-1.1,4.1-2.3,6.1-3.5c3.7-2.2,6.8-5,9.4-8.3
		C1056.4,29.2,1050.9,28.5,1044.3,28.5z"/>
	<path d="M1029.7,51c-4.7-3.3-9.5-6.6-14.2-9.9c-4,5.4-6,11.9-6,19.7c0,0.4,0,0.8,0,1.1C1016.1,58.2,1022.9,54.6,1029.7,51z"/>
	<path d="M1065.2,32.5c-1.3-0.7-2.7-1.3-4.2-1.8c-2.6,3.3-5.7,6.1-9.4,8.3c-2,1.2-4,2.3-6.1,3.5c3,0,5.5,0.9,7.4,2.7
		c3.9-3.8,8.1-7.5,12.6-11.2c0.3-0.3,0.7-0.5,1-0.7C1066,33,1065.6,32.7,1065.2,32.5z"/>
	<path d="M1091.9,40.7v17.2c3.3-3.6,6.6-7.2,9.8-10.8C1098.4,45,1095.1,42.8,1091.9,40.7z"/>
	<path d="M1114,32.5v-2.6h-22.1v10.8c3.2,2.2,6.5,4.3,9.8,6.4C1105.9,42.3,1110,37.4,1114,32.5z"/>
	<path d="M1115.6,74.4c-4.9,5.4-9.2,11.1-13.3,17.1h13.3V74.4z"/>
	<path d="M1099.4,91.5c-2.5-1.1-5-2.3-7.5-3.4v3.4H1099.4z"/>
	<path d="M1102.3,91.5c4.1-6,8.4-11.7,13.3-17.1v-3.5c0-5.9,0.4-10.6,1.3-14.3c-0.2-0.1-0.3-0.2-0.5-0.3c-8,9.3-16.4,18.2-24.5,27.3
		V88c2.5,1.2,5,2.3,7.5,3.4H1102.3z"/>
	<path d="M1117.3,55.3c-0.3,0.3-0.6,0.6-0.8,0.9c0.2,0.1,0.3,0.2,0.5,0.3C1117,56.1,1117.1,55.7,1117.3,55.3z"/>
	<path d="M1101.7,47.1c-3.2,3.6-6.5,7.2-9.8,10.8v25.7c8.1-9.1,16.5-18,24.5-27.3C1111.5,53.2,1106.6,50.2,1101.7,47.1z"/>
	<path d="M1117.3,55.3c0.5-1.9,1.2-3.4,2-4.6c1.3-2,3.1-3.2,5.3-3.6c4-4.7,7.9-9.4,11.8-14.2c-1.9-1.4-3.8-2.8-5.7-4.2
		c-0.6-0.1-1.1-0.1-1.7-0.1c-3.3,0-6.1,0.8-8.4,2.5s-4.5,4.7-6.6,9v-7.5c-4,5-8.1,9.8-12.3,14.6c4.9,3.1,9.8,6.2,14.7,9.2
		C1116.7,55.9,1117,55.6,1117.3,55.3z"/>
	<path d="M1130.6,28.6c1.9,1.4,3.8,2.8,5.7,4.2c0.6-0.7,1.2-1.4,1.7-2.1C1135.4,29.5,1133,28.8,1130.6,28.6z"/>
	<path d="M1133.1,48.6l6-13.8c-0.9-0.7-1.8-1.4-2.7-2c-3.8,4.8-7.7,9.6-11.8,14.2c0.6-0.1,1.2-0.2,1.9-0.2
		C1128.1,46.8,1130.3,47.4,1133.1,48.6z"/>
	<path d="M1140.4,31.7c-0.8-0.4-1.6-0.8-2.3-1.1c-0.6,0.7-1.2,1.4-1.7,2.1c0.9,0.7,1.8,1.4,2.7,2L1140.4,31.7z"/>
	<path d="M1150.3,29.9V43c5.1-4.4,10.1-8.8,15.2-13.1H1150.3z"/>
	<path d="M1170.4,91.5h3.5V79.8c-2.1,1.7-4.3,3.5-6.4,5.2c-1.1,0.8-2.1,1.6-3.1,2.4c1.7,1.2,3.4,2.5,5.1,3.6
		C1169.8,91.2,1170.1,91.3,1170.4,91.5z"/>
	<path d="M1170.4,91.5c-0.3-0.2-0.6-0.3-0.9-0.5c-1.8-1.1-3.5-2.3-5.1-3.6c-1.7,1.3-3.3,2.7-4.9,4H1170.4z"/>
	<path d="M1215.4,52.3c0-3-0.3-5.7-0.8-8.1c-2.8,2.5-5.6,5.1-8.4,7.6c3,1.7,6.1,3.5,9.1,5.2V52.3z"/>
	<path d="M1215.4,61.9V57c-3-1.7-6.1-3.5-9.1-5.2c-4.8,4.3-9.7,8.7-14.6,13v10.1c3.8,2.7,7.6,5.4,11.4,8
		C1207.2,75.9,1211.3,68.8,1215.4,61.9z"/>
	<path d="M1191.7,74.9v16.6h6.5c1.6-2.9,3.3-5.7,4.9-8.6C1199.3,80.3,1195.5,77.6,1191.7,74.9z"/>
	<path d="M1215.4,61.9c-4.2,7-8.2,14-12.3,21.1c4,2.7,8.1,5.3,12.3,7.8V61.9z"/>
	<path d="M1203.2,82.9c-1.6,2.9-3.3,5.7-4.9,8.6h17.2v-0.8C1211.3,88.2,1207.2,85.6,1203.2,82.9z"/>
	<path d="M1150.3,78v13.5h9.2c1.6-1.4,3.2-2.7,4.9-4c-4.5-3.3-8.8-7-13.3-10.3C1150.8,77.4,1150.5,77.7,1150.3,78z"/>
	<path d="M1173.9,79.8V61.9c0-0.2,0-0.3,0-0.5c-1.7-1.3-3.3-2.6-5-3.8c-6.2,6.3-12.1,12.8-17.9,19.5c4.5,3.3,8.8,7,13.3,10.3
		c1-0.8,2.1-1.6,3.1-2.4C1169.7,83.3,1171.8,81.6,1173.9,79.8z"/>
	<path d="M1206.3,51.8c-6.5-3.7-13.1-7.4-19.6-11c-6.1,5.3-12,10.9-17.8,16.7c1.6,1.3,3.3,2.5,5,3.8c0.1-5.3,0.9-9,2.7-11.1
		c1.8-2.2,4.1-3.2,7-3.2c2.6,0,4.6,0.8,6,2.4c1.4,1.6,2.1,4.3,2.1,8.2v7.2C1196.7,60.5,1201.5,56.2,1206.3,51.8z"/>
	<path d="M1209.9,34.3c-2.4-2.5-5.3-4.2-8.8-5.1c-4.9,3.7-9.7,7.5-14.4,11.6c6.6,3.6,13.1,7.3,19.6,11c2.8-2.5,5.6-5.1,8.4-7.6
		C1213.8,40.1,1212.2,36.8,1209.9,34.3z"/>
	<path d="M1201.1,29.3c-2-0.5-4.2-0.8-6.5-0.8c-4.8,0-8.9,0.9-12.3,2.6c-1.9,1-3.8,2.4-5.6,4.1c3.4,1.9,6.7,3.7,10.1,5.6
		C1191.4,36.8,1196.2,32.9,1201.1,29.3z"/>
	<path d="M1172.3,29.9h-5.4c1.8,1,3.6,2,5.4,3V29.9z"/>
	<path d="M1150.3,78c0.2-0.3,0.5-0.6,0.7-0.8c-0.2-0.2-0.5-0.4-0.7-0.5V78z"/>
	<path d="M1150.3,43.3v33.3c0.2,0.2,0.5,0.4,0.7,0.5c5.8-6.7,11.7-13.2,17.9-19.5C1162.7,52.7,1156.5,48,1150.3,43.3z"/>
	<path d="M1186.7,40.8c-3.4-1.9-6.7-3.7-10.1-5.6c-1.5,1.3-2.9,2.9-4.3,4.7v-7.1c-1.8-1-3.6-2-5.4-3h-1.4
		c-5.1,4.3-10.1,8.7-15.2,13.1v0.3c6.2,4.7,12.4,9.5,18.7,14.3C1174.7,51.8,1180.6,46.1,1186.7,40.8z"/>
	<path d="M1257.2,28.6c-3.2,0.1-6.3,0.4-9.2,0.9c-3.8,0.7-6.8,1.6-8.9,2.8c-2.7,1.5-4.8,3.2-6.4,5.1c4.5,2.6,9,5.3,13.5,8
		C1249.9,39.8,1253.6,34.2,1257.2,28.6z"/>
	<path d="M1246.2,45.4c-4.5-2.8-8.9-5.4-13.5-8c-0.2,0.2-0.4,0.5-0.6,0.8c-1.6,2.3-2.8,5.4-3.7,9.3l15.4,1.6
		C1244.6,47.9,1245.4,46.6,1246.2,45.4z"/>
	<path d="M1251.5,48.7c-1.7-1.1-3.5-2.2-5.3-3.3c-0.8,1.2-1.6,2.4-2.4,3.7l7.2,0.8C1251.2,49.4,1251.3,49.1,1251.5,48.7z"/>
	<path d="M1263,28.5c-0.9,0-1.8,0-2.7,0c-1.1,0-2.1,0-3.1,0.1c-3.7,5.6-7.3,11.2-11,16.9c1.8,1.1,3.5,2.2,5.3,3.3
		c0.9-2.1,1.9-3.5,3.2-4.3c1.9-1.2,4.8-1.9,8.7-1.9c3,0,5.1,0.6,6.3,1.7c1.2,1.2,1.8,3.2,1.8,6.1c-2.9,1.2-5.7,2.1-8.4,2.8
		c-0.8,0.2-2,0.5-3.5,0.8c2.3,1.5,4.5,3,6.7,4.5c4.1-6.2,8.2-12.4,12.2-18.7C1273.5,36,1268.3,32.3,1263,28.5z"/>
	<path d="M1259.7,54c-3.1,0.7-7.7,1.7-13.8,2.9c-3.5,0.7-6.4,1.6-8.9,2.6c-1.6,2.4-3.1,4.9-4.7,7.4c6.7,3.9,13.4,8,20,12
		c0.1-0.2,0.2-0.3,0.3-0.5c-0.2-0.1-0.3-0.3-0.5-0.4c-1.3-1.2-1.9-2.7-1.9-4.6c0-1.6,0.7-3.1,2-4.3c1.3-1.2,4.3-2.5,9.1-3.8
		c0.2,0,0.4-0.1,0.5-0.2c1.5-2.2,3-4.4,4.5-6.7C1264.2,57,1262,55.5,1259.7,54z"/>
	<path d="M1232.4,87.8c2.6,2.4,6.1,3.9,10.5,4.6c3.2-4.5,6.4-9,9.6-13.5c-6.6-4-13.3-8.1-20-12c-1.9,3-3.8,6-5.7,8.9
		C1226.8,80.5,1228.7,84.5,1232.4,87.8z"/>
	<path d="M1283.7,31.7c-1.9-0.9-4-1.6-6.3-2c-3.7-0.7-8.5-1.1-14.3-1.2c5.2,3.8,10.4,7.5,15.6,11.3
		C1280.3,37.1,1282,34.4,1283.7,31.7z"/>
	<path d="M1292.9,42c-1.2-3.2-2.7-5.7-4.8-7.4c-1.3-1.2-2.8-2.1-4.4-2.9c-1.7,2.7-3.3,5.4-5,8.1c5,3.6,9.9,7.3,14.8,10.9
		c0.4-0.4,0.7-0.8,1.1-1.2C1294.4,47.2,1293.8,44.7,1292.9,42z"/>
	<path d="M1293.5,50.8c-4.9-3.7-9.9-7.3-14.8-10.9c-4,6.3-8,12.5-12.2,18.7c4.2,2.8,8.4,5.7,12.5,8.6
		C1283.7,61.6,1288.6,56.1,1293.5,50.8z"/>
	<path d="M1279,67.1c-4.2-2.9-8.3-5.7-12.5-8.6c-1.5,2.2-3,4.5-4.5,6.7c3.3-0.9,6.5-1.8,9.6-2.9V66c0,2.9-0.5,5.3-1.4,7.2
		c-0.9,1.8-2.6,3.4-4.8,4.7c-2.3,1.3-4.7,1.9-7.3,1.9c-2.2,0-3.9-0.5-5.2-1.4c-0.1,0.2-0.2,0.3-0.3,0.5c3.7,2.3,7.4,4.5,11.1,6.8
		C1268.5,79.4,1273.7,73.2,1279,67.1z"/>
	<path d="M1252.4,78.9c-3.2,4.5-6.4,9-9.6,13.5c1.9,0.3,4,0.5,6.3,0.5c3.5,0,6.8-0.3,9.8-1c1.5-2.1,3.1-4.1,4.7-6.1
		C1259.9,83.4,1256.1,81.1,1252.4,78.9z"/>
	<path d="M1294.6,76.4c-0.4,0.3-0.7,0.6-1.1,1c0.4,0.3,0.7,0.5,1.1,0.8V76.4z"/>
	<path d="M1295.2,85.2c-0.4-1.6-0.6-3.9-0.6-6.8v-0.3c-0.4-0.3-0.7-0.5-1.1-0.8c-5.3,4.6-10.6,9.3-15.6,14.2h19.7
		C1296.3,88.9,1295.5,86.8,1295.2,85.2z"/>
	<path d="M1293.5,50.8c-4.9,5.4-9.8,10.8-14.5,16.3c4.9,3.4,9.7,6.8,14.6,10.3c0.4-0.3,0.7-0.6,1.1-1V51.6
		C1294.2,51.3,1293.9,51.1,1293.5,50.8z"/>
	<path d="M1258.8,91.8c1.7-0.4,3.3-0.9,4.8-1.5c1.3-0.5,2.6-1.2,3.9-2.1c-1.3-0.8-2.7-1.7-4-2.5C1262,87.7,1260.4,89.8,1258.8,91.8z"
		/>
	<path d="M1273.7,87.9c0.3,0.8,0.9,2,1.7,3.6h2.5c5-4.9,10.3-9.6,15.6-14.2c-4.8-3.4-9.7-6.9-14.6-10.3c-5.3,6.1-10.4,12.3-15.4,18.6
		c1.3,0.8,2.7,1.7,4,2.5c1.8-1.1,3.5-2.6,5.3-4.3C1273.1,85.7,1273.4,87,1273.7,87.9z"/>
	<path d="M1294.6,51.2c0-0.5,0-1-0.1-1.6c-0.4,0.4-0.7,0.8-1.1,1.2c0.4,0.3,0.8,0.6,1.1,0.8V51.2z"/>
	<path d="M1232.4,66.9c-1-0.6-1.9-1.1-2.9-1.7c-1.9,2.8-2.9,6.1-2.9,10c0,0.2,0,0.4,0,0.6C1228.6,72.8,1230.5,69.8,1232.4,66.9z"/>
	<path d="M1237.1,59.5c-2.8,1.2-4.9,2.5-6.3,4.1c-0.4,0.5-0.8,1-1.2,1.5c1,0.6,1.9,1.1,2.9,1.7C1234,64.4,1235.5,62,1237.1,59.5z"/>
	<path d="M1324.4,74.1c2.7,2.1,5.3,4.1,8,6.2v-14C1329.7,68.9,1327,71.5,1324.4,74.1z"/>
	<path d="M1308.8,89.7v1.7h4.5c-1.2-0.9-2.4-1.7-3.7-2.6C1309.4,89.2,1309.1,89.4,1308.8,89.7z"/>
	<path d="M1332.4,80.3c-2.7-2.1-5.3-4.1-8-6.2c-5,4.9-9.9,9.8-14.7,14.7c1.2,0.9,2.4,1.7,3.7,2.6h19.1V80.3z"/>
	<path d="M1368.4,34.3c-0.1-0.1-0.3-0.3-0.4-0.4c-6.5,5.6-12.8,11.2-19,16.8c0.1,0.3,0.2,0.5,0.4,0.8c6.4,2.9,12.8,5.8,19.3,8.8
		c1.8-2.3,3.6-4.7,5.3-7v-1.1C1373.9,44.2,1372.1,38.2,1368.4,34.3z"/>
	<path d="M1350.2,84.5c6.2-8,12.3-16,18.4-24.1c-6.4-3-12.8-5.9-19.3-8.8c0.6,1.5,0.9,3.5,0.9,6V84.5z"/>
	<path d="M1368.6,60.4c-6.1,8-12.2,16.1-18.4,24.1v7h23.7V62.9C1372.1,62,1370.4,61.2,1368.6,60.4z"/>
	<path d="M1368.6,60.4c1.8,0.8,3.6,1.6,5.3,2.5v-9.5C1372.1,55.7,1370.4,58.1,1368.6,60.4z"/>
	<path d="M1333.9,44.7c-1.8,1.4-3.6,2.9-5.4,4.3c-6.1,4.8-12.2,9.6-18.2,14.4c4.7,3.6,9.4,7.1,14.1,10.7c2.7-2.6,5.3-5.2,8-7.8v-4.4
		c0-5.6,0.9-9.5,2.7-11.7c1.3-1.5,2.8-2.5,4.6-3C1337.7,46.4,1335.8,45.5,1333.9,44.7z"/>
	<path d="M1309.6,88.9c-0.3-0.2-0.6-0.4-0.9-0.6v1.5C1309.1,89.4,1309.4,89.2,1309.6,88.9z"/>
	<path d="M1324.4,74.1c-4.7-3.6-9.4-7.2-14.1-10.7c-0.5,0.4-1,0.8-1.5,1.2v23.6c0.3,0.2,0.6,0.4,0.9,0.6
		C1314.5,83.9,1319.4,79,1324.4,74.1z"/>
	<path d="M1342,47c2.6,0,4.6,0.8,6,2.4c0.3,0.4,0.6,0.8,0.9,1.4c6.2-5.7,12.5-11.3,19-16.8c-3.4-3.4-8-5.2-13.7-5.4
		c-6.8,5.3-13.6,10.6-20.4,16.1c1.9,0.9,3.9,1.7,5.8,2.6C1340.4,47.1,1341.2,47,1342,47z"/>
	<path d="M1308.8,62.2v2.4c0.5-0.4,1-0.8,1.5-1.2C1309.8,63,1309.3,62.6,1308.8,62.2z"/>
	<path d="M1328.5,49c1.8-1.5,3.6-2.9,5.4-4.3c-8.2-3.7-16.4-7.3-24.6-10.9c-0.2,0.2-0.3,0.3-0.5,0.5v28c0.5,0.4,1,0.8,1.5,1.2
		C1316.3,58.6,1322.4,53.8,1328.5,49z"/>
	<path d="M1353,28.5c-4.8,0-8.9,0.9-12.3,2.6c-3.4,1.8-6.7,4.7-10,8.8v-10h-17.9c-1.2,1.3-2.4,2.6-3.6,3.9
		c8.2,3.6,16.4,7.3,24.6,10.9c6.8-5.5,13.6-10.8,20.4-16.1C1353.8,28.5,1353.5,28.5,1353,28.5z"/>
	<path d="M1308.8,33.5v0.7c0.2-0.2,0.3-0.3,0.5-0.5C1309.1,33.7,1308.9,33.6,1308.8,33.5z"/>
	<path d="M1312.8,29.9h-4.1v3.6c0.2,0.1,0.3,0.1,0.5,0.2C1310.4,32.5,1311.6,31.2,1312.8,29.9z"/>
	<path d="M1429,6.5v11.3c2.8-3.8,5.6-7.5,8.4-11.3H1429z"/>
	<path d="M1387.8,75.9c1.1-1.6,2.2-3.3,3.3-4.9c-1.8-0.9-3.6-1.7-5.3-2.5C1386.2,71,1386.9,73.5,1387.8,75.9z"/>
	<path d="M1394.9,34.1c-0.9,0.7-1.7,1.6-2.6,2.5c-4.9,5.4-7.3,13.2-7.3,23.4c0,2.9,0.2,5.7,0.7,8.4c1.8,0.8,3.6,1.7,5.3,2.5
		c6.1-9,12.3-17.9,18.6-26.7C1404.8,40.9,1399.8,37.5,1394.9,34.1z"/>
	<path d="M1418.8,31.6c-2.8-1-5.5-2.1-8.3-3.1c-6.1,0.1-11.3,2-15.6,5.6c4.9,3.4,9.8,6.7,14.8,10.1
		C1412.7,40,1415.8,35.8,1418.8,31.6z"/>
	<path d="M1420,30c-2.7-1-5.7-1.5-9-1.5c-0.2,0-0.3,0-0.5,0c2.8,1.1,5.5,2.1,8.3,3.1C1419.2,31.1,1419.6,30.5,1420,30z"/>
	<path d="M1421,30.3c-0.3-0.1-0.7-0.3-1-0.4c-0.4,0.6-0.8,1.1-1.2,1.7c3.1,1.1,6.2,2.3,9.3,3.4C1426,33,1423.7,31.4,1421,30.3z"/>
	<path d="M1452.9,9.8V6.5h-6.7c0.8,0.5,1.6,1,2.4,1.5C1450,8.7,1451.4,9.3,1452.9,9.8z"/>
	<path d="M1452.9,21.9V9.8c-1.5-0.5-2.9-1.1-4.4-1.8c-0.8-0.5-1.6-1-2.4-1.5h-8.7c-2.8,3.8-5.6,7.5-8.4,11.3v17.6
		c3.8,1.4,7.7,2.7,11.5,4.1C1444.6,33.5,1448.7,27.7,1452.9,21.9z"/>
	<path d="M1387.8,75.9c1,2.7,2.3,5.1,3.9,7.4c3.3,4.7,7.7,7.7,13.2,8.9c2.4-3.7,4.9-7.3,7.3-11c-7-3.5-14.1-6.9-21.1-10.3
		C1390,72.6,1388.9,74.2,1387.8,75.9z"/>
	<path d="M1411.5,72.1c-1.9-2.3-2.9-6-2.9-11c0-5.4,0.9-9.2,2.8-11.5c0.8-1,1.7-1.8,2.7-2.3c-1.5-1-3-2-4.4-3
		c-6.3,8.8-12.5,17.7-18.6,26.7c7,3.4,14.1,6.8,21.1,10.3c1.3-2,2.6-4,4-6C1414.4,74.8,1412.9,73.7,1411.5,72.1z"/>
	<path d="M1418.3,46.1c3.1,0,5.7,1.2,7.8,3.6c1.4,1.6,2.3,3.9,2.8,6.7c3.9-5.7,7.8-11.4,11.7-17c-3.9-1.3-7.7-2.7-11.5-4.1v0.6
		c-0.3-0.3-0.6-0.6-0.9-0.9c-3.1-1.1-6.2-2.2-9.3-3.4c-3.1,4.2-6.1,8.4-9.1,12.6c1.5,1,3,2,4.4,3
		C1415.4,46.5,1416.8,46.1,1418.3,46.1z"/>
	<path d="M1430.8,91.5h1.7c-0.6-0.3-1.1-0.6-1.7-0.9V91.5z"/>
	<path d="M1415,92.6c2.6-0.4,5-1.2,7.3-2.4c1-0.6,2.1-1.3,3.2-2.3c-1.4-0.7-2.8-1.4-4.2-2.1C1419.2,88.1,1417.1,90.3,1415,92.6z"/>
	<path d="M1452.9,70.5c-3.2-1.7-6.4-3.4-9.6-5.1c-2.8,2.1-5.6,4.2-8.4,6.3c-4.6,4.6-9,9.3-13.5,14c1.4,0.7,2.8,1.4,4.2,2.1
		c1.6-1.4,3.4-3.3,5.2-5.5v8.2c0.6,0.3,1.1,0.6,1.7,0.9h20.4V70.5z"/>
	<path d="M1452.9,58.5c-3.2,2.3-6.5,4.6-9.6,6.9c3.2,1.7,6.4,3.4,9.6,5.1V58.5z"/>
	<path d="M1441.9,64.7c-2.4,2.3-4.7,4.7-7,7.1c2.8-2.1,5.6-4.2,8.4-6.3C1442.8,65.2,1442.3,65,1441.9,64.7z"/>
	<path d="M1452.9,58.5V54c-3.7,3.6-7.4,7.2-11,10.8c0.5,0.2,0.9,0.5,1.4,0.7C1446.4,63.1,1449.6,60.8,1452.9,58.5z"/>
	<path d="M1409.9,92.9c0.3,0,0.7,0,1,0c1.4,0,2.8-0.1,4.1-0.3c2.1-2.3,4.2-4.5,6.3-6.8c-0.8-0.4-1.5-0.8-2.3-1.1
		C1416,87.3,1412.9,90.1,1409.9,92.9z"/>
	<path d="M1419.1,84.7c0.8,0.4,1.5,0.8,2.3,1.1c4.4-4.7,8.9-9.4,13.5-14C1429.4,75.9,1424.2,80.2,1419.1,84.7z"/>
	<path d="M1404.9,92.2c1.6,0.4,3.3,0.5,5,0.6c3-2.8,6.1-5.5,9.2-8.2c-2.3-1.2-4.6-2.3-6.9-3.4C1409.8,84.9,1407.3,88.6,1404.9,92.2z"
		/>
	<path d="M1441.9,64.7c-0.5-0.2-0.9-0.5-1.4-0.7c-3.9-2.3-7.8-4.7-11.6-7.2c0.2,1.1,0.3,2.3,0.3,3.7c0,5.3-1,9.2-3,11.5
		c-2,2.4-4.5,3.5-7.5,3.5c-0.9,0-1.7-0.1-2.5-0.3c-1.3,2-2.7,4-4,6c2.3,1.1,4.6,2.3,6.9,3.4c5.1-4.4,10.4-8.7,15.7-12.9
		C1437.1,69.4,1439.5,67.1,1441.9,64.7z"/>
	<path d="M1440.5,64c0.5,0.2,0.9,0.5,1.4,0.7c3.6-3.6,7.3-7.2,11-10.8V43.6c-4.1-1.4-8.2-2.8-12.3-4.2c-3.9,5.7-7.8,11.3-11.7,17
		c0,0.1,0,0.3,0,0.4C1432.7,59.3,1436.6,61.7,1440.5,64z"/>
	<path d="M1452.9,21.9c-4.1,5.8-8.2,11.6-12.3,17.5c4.1,1.4,8.2,2.8,12.3,4.2V21.9z"/>
	<path d="M1521.4,88.8c5-2.7,9.3-7.1,12.9-13.3l-23.3-2.1c-0.1,0.1-0.1,0.1-0.2,0.2c-2.2,4.7-4.4,9.4-6.6,14.2
		c3.9,1,7.8,2.1,11.6,3.3C1518,90.4,1519.8,89.7,1521.4,88.8z"/>
	<path d="M1515.9,91c-3.8-1.2-7.7-2.2-11.6-3.3c-0.8,1.7-1.6,3.4-2.3,5.1C1507.4,92.7,1512.1,92.1,1515.9,91z"/>
	<path d="M1504.3,87.7c2.2-4.7,4.3-9.5,6.6-14.2c-1.4,1.8-2.7,3-4,3.7c-2.1,1.2-4.3,1.7-6.6,1.7c-3.7,0-6.7-1.3-8.9-4
		c-0.7-0.8-1.2-1.7-1.7-2.8c-2.5,3.5-4.9,7-7.3,10.6c3.3,0.9,6.7,1.7,10.2,2.2C1496.5,85.8,1500.4,86.7,1504.3,87.7z"/>
	<path d="M1492.5,85c-3.5-0.5-6.9-1.3-10.2-2.2c-1.3,1.8-2.6,3.7-3.8,5.5c0.7,0.4,1.3,0.8,2,1.1c4.7,2.3,11.1,3.5,19.3,3.5
		c0.7,0,1.5,0,2.2,0c0.8-1.7,1.6-3.4,2.3-5.1C1500.4,86.7,1496.5,85.8,1492.5,85z"/>
	<path d="M1515.5,64c-5.5-1.8-10.9-3.5-16.4-5.3c-1.8,2.6-3.7,5.2-5.5,7.9h20.7C1514.7,65.7,1515.1,64.8,1515.5,64z"/>
	<path d="M1528.2,39c-2.3-2.7-5-4.8-8.2-6.5c-0.6-0.3-1.2-0.6-1.8-0.8c-1.6,2.3-3.2,4.6-4.9,6.9c4.1,1.9,8.1,3.9,12.2,5.7
		C1526.4,42.5,1527.3,40.8,1528.2,39z"/>
	<path d="M1525.5,44.3c-4.1-1.9-8.1-3.8-12.2-5.7c-1.7,2.4-3.4,4.8-5.1,7.2c1.8,2,3,5.2,3.4,9.5h-10.1c-0.8,1.1-1.6,2.3-2.4,3.4
		c5.5,1.8,11,3.5,16.4,5.3C1518.8,57.4,1522.1,50.8,1525.5,44.3z"/>
	<path d="M1515.5,64c-0.4,0.9-0.9,1.7-1.3,2.6h9.1C1520.7,65.7,1518.1,64.8,1515.5,64z"/>
	<path d="M1531.6,44.1c-1-1.8-2.1-3.5-3.4-5.1c-0.9,1.7-1.8,3.5-2.7,5.2c2.6,1.2,5.2,2.4,7.7,3.5
		C1532.8,46.5,1532.2,45.2,1531.6,44.1z"/>
	<path d="M1535.6,66.5v-2.7c0-6.3-0.8-11.6-2.4-16.1c-2.6-1.2-5.2-2.3-7.7-3.5c-3.4,6.5-6.7,13.1-10,19.7c2.6,0.8,5.2,1.7,7.8,2.6
		H1535.6z"/>
	<path d="M1518.2,31.6c-4.9-2.1-11.2-3.1-18.9-3.2c-0.9,0.6-1.8,1.1-2.8,1.7c5.6,2.9,11.2,5.6,16.8,8.3
		C1514.9,36.2,1516.5,33.9,1518.2,31.6z"/>
	<path d="M1496.5,30.2c-9.8,6-19.4,12.1-28.9,18.3c6.9,2.3,13.8,4.5,20.7,6.7c0.4-3.7,1.3-6.4,2.7-8.3c2.2-3,5.2-4.5,9-4.5
		c3.2,0,5.9,1,7.9,3c0.1,0.1,0.2,0.2,0.3,0.3c1.7-2.4,3.4-4.8,5.1-7.2C1507.7,35.8,1502.1,33.1,1496.5,30.2z"/>
	<path d="M1499.1,58.7c-3.6-1.1-7.1-2.3-10.7-3.4h-0.1c0,0,0,0,0,0c-6.9-2.2-13.8-4.5-20.7-6.7c-0.6,0.4-1.1,0.7-1.7,1.1
		c-1.1,3.4-1.7,7.1-1.7,11.2c0,6.6,1.5,12.3,4.3,17.2c4.5,1.9,9,3.5,13.7,4.8c2.4-3.5,4.9-7,7.3-10.6c-0.7-1.6-1.1-3.4-1.4-5.7h5.3
		C1495.4,63.9,1497.3,61.3,1499.1,58.7z"/>
	<path d="M1468.9,78.5c2.6,4.3,5.8,7.5,9.6,9.8c1.3-1.8,2.6-3.7,3.8-5.5c-4.7-1.3-9.2-2.9-13.7-4.8
		C1468.7,78.1,1468.8,78.3,1468.9,78.5z"/>
	<path d="M1501.5,55.2h-13.1c3.6,1.1,7.1,2.3,10.7,3.4C1499.9,57.5,1500.7,56.4,1501.5,55.2z"/>
	<path d="M1466.5,48.1c-0.2,0.5-0.4,1-0.5,1.5c0.6-0.4,1.1-0.7,1.7-1.1C1467.2,48.4,1466.9,48.2,1466.5,48.1z"/>
	<path d="M1499.2,28.5c-0.1,0-0.1,0-0.2,0c-1.9,0-3.6,0.1-5.4,0.3c0.9,0.5,1.8,1,2.8,1.4C1497.4,29.6,1498.3,29.1,1499.2,28.5z"/>
	<path d="M1496.5,30.2c-0.9-0.5-1.8-0.9-2.8-1.4c-8.3,0.8-15.1,3.7-20.2,8.7c-3.2,3.1-5.5,6.6-7.1,10.7c0.4,0.1,0.8,0.3,1.2,0.4
		C1477.1,42.2,1486.7,36.2,1496.5,30.2z"/>
	<path d="M1570.5,28.6c-4.9,0.2-9,0.9-12.3,2.1c-1,0.3-1.9,0.7-2.8,1.2c3.2,1.7,6.4,3.3,9.6,5C1566.8,34.1,1568.6,31.3,1570.5,28.6z"
		/>
	<path d="M1552.6,56.4c4-6.6,8.2-13.1,12.4-19.6c-3.2-1.7-6.4-3.3-9.6-5c-2.8,1.4-5.2,3.2-7,5.4c-2.4,2.9-3.5,6.4-3.5,10.5
		c0,2,0.3,4,1,5.8C1548.1,54.5,1550.3,55.5,1552.6,56.4z"/>
	<path d="M1550.3,60.1c0.7-1.2,1.5-2.4,2.2-3.6c-2.2-1-4.4-2-6.6-2.9c0.5,1.5,1.3,2.8,2.3,4.1C1548.9,58.5,1549.6,59.3,1550.3,60.1z"
		/>
	<path d="M1603.9,41c-1.1,1.5-2.2,3-3.3,4.5l5.1-0.5C1605.2,43.5,1604.6,42.2,1603.9,41z"/>
	<path d="M1568.7,92.6c1.8-2.8,3.5-5.6,5.3-8.4c-5.7-2.2-11.5-4.3-17.3-6.3c-0.4,0.7-0.8,1.4-1.2,2.1c-1.6,2.5-3.1,5.1-4.6,7.6
		c0.2,0.1,0.4,0.3,0.6,0.4C1555.2,90.6,1561,92.1,1568.7,92.6z"/>
	<path d="M1576.8,79.9C1576.8,79.9,1576.8,79.9,1576.8,79.9c-3,0-5.3-0.6-7-1.8c-1.7-1.2-3.1-3.2-4.1-6l-5.9,0.6
		c-1,1.7-2.1,3.4-3.1,5.2c5.8,2.1,11.6,4.2,17.3,6.3C1575,82.8,1575.9,81.4,1576.8,79.9z"/>
	<path d="M1550.9,87.6c1.5-2.6,3-5.1,4.6-7.6c0.4-0.7,0.8-1.4,1.2-2.1c-3.7-1.3-7.3-2.6-11-3.9l-3.4,0.3
		C1543.6,80,1546.5,84.5,1550.9,87.6z"/>
	<path d="M1559.8,72.7l-14.1,1.3c3.7,1.3,7.4,2.6,11,3.9C1557.8,76.2,1558.8,74.4,1559.8,72.7z"/>
	<path d="M1594.2,54.4c-3.8-1.3-9-2.3-15.8-3.1c-2-0.2-3.7-0.5-5.1-0.7c-2.4,3.9-4.8,7.9-7.2,11.8c5.8,2.5,11.5,5.1,17.2,7.7
		C1586.9,64.8,1590.5,59.6,1594.2,54.4z"/>
	<path d="M1583.3,70.1C1583.3,70.1,1583.3,70.1,1583.3,70.1c-5.7-2.6-11.5-5.2-17.2-7.7c-0.7,1.2-1.4,2.3-2.2,3.5
		c2.6,0.6,5.8,1.2,9.4,1.8C1578.6,68.7,1581.9,69.5,1583.3,70.1z"/>
	<path d="M1573.7,41c1.8,0,3.5,0.3,5,0.9c2.6-4.2,5.1-8.4,7.7-12.7c-3.1-0.4-6.9-0.6-11.5-0.6c-1.5,0-3,0-4.4,0.1
		c-1.8,2.7-3.7,5.5-5.5,8.2c2.7,1.4,5.3,2.8,8,4.2C1573.2,41,1573.4,41,1573.7,41z"/>
	<path d="M1573.3,50.6c-2.4-0.4-4-0.9-5-1.3c-1.5-0.8-2.3-1.9-2.3-3.4c0-1.4,0.6-2.5,1.8-3.4c1.1-0.9,2.8-1.3,5.1-1.4
		c-2.6-1.4-5.3-2.8-8-4.2c-4.2,6.5-8.4,13-12.4,19.6c4.5,2,9,4,13.5,6C1568.5,58.5,1570.9,54.5,1573.3,50.6z"/>
	<path d="M1563.9,65.9c0.7-1.2,1.4-2.4,2.2-3.5c-4.5-2-9-4-13.5-6c-0.7,1.2-1.5,2.4-2.2,3.6c1.7,1.7,3.7,2.9,5.9,3.7
		C1558,64.5,1560.6,65.2,1563.9,65.9z"/>
	<path d="M1599.9,35.4c-2.3-2.4-5.3-4.1-8.8-5.2c-1.3-0.4-2.9-0.8-4.8-1c-2.6,4.3-5.1,8.5-7.7,12.7c0.6,0.3,1.2,0.6,1.8,0.9
		c1.1,0.8,2,1.9,2.6,3.4c0.5,0.3,1,0.5,1.5,0.8l16.1-1.6c1.1-1.5,2.2-3,3.3-4.5C1602.7,38.8,1601.4,36.9,1599.9,35.4z"/>
	<path d="M1584.5,47.1c-0.5-0.3-1-0.5-1.5-0.8c0.1,0.3,0.2,0.6,0.3,0.9L1584.5,47.1z"/>
	<path d="M1591.4,91c-5.7-2.3-11.5-4.6-17.3-6.7c-1.8,2.8-3.6,5.6-5.3,8.4c2.1,0.1,4.4,0.2,6.8,0.2
		C1581.9,92.9,1587.1,92.2,1591.4,91z"/>
	<path d="M1604.7,61.8c-2-2.9-5-5.2-8.8-6.8c-0.5-0.2-1.1-0.4-1.8-0.7c-3.7,5.2-7.3,10.5-10.9,15.7c7.4,3.4,14.8,6.8,22.1,10.4
		c1.6-2.9,2.4-5.9,2.4-9C1607.8,68,1606.8,64.8,1604.7,61.8z"/>
	<path d="M1583.3,70.1C1583.3,70.1,1583.3,70.1,1583.3,70.1c0,0,0.1,0.1,0.2,0.1c1.8,0.9,2.7,2.2,2.7,3.9c0,1.5-0.7,2.8-2,3.8
		c-1.7,1.3-4.2,2-7.3,2c-0.9,1.4-1.8,2.9-2.8,4.3c5.8,2.2,11.6,4.4,17.3,6.7c1.1-0.3,2.1-0.7,3.1-1.1c4.6-2,8-4.7,10.2-8
		c0.3-0.5,0.6-0.9,0.8-1.4C1598.1,76.9,1590.7,73.5,1583.3,70.1z"/>
	<path d="M1644.3,90.7c-0.3,0.3-0.5,0.6-0.8,0.8h0.8V90.7z"/>
	<path d="M1630.1,72.1c-2.5-1.4-5-2.9-7.5-4.3h-3.5v19.6c0.8,0.4,1.7,0.9,2.5,1.3C1624.4,83.2,1627.2,77.6,1630.1,72.1z"/>
	<path d="M1619.1,87.4v4.1h1.1c0.5-0.9,0.9-1.8,1.4-2.8C1620.8,88.3,1619.9,87.8,1619.1,87.4z"/>
	<path d="M1632.3,67.8h-9.7c2.5,1.4,5,2.9,7.5,4.3C1630.8,70.7,1631.6,69.2,1632.3,67.8z"/>
	<path d="M1630.1,72.1c-2.9,5.5-5.7,11.1-8.5,16.6c1.7,0.9,3.5,1.8,5.2,2.8h16.7c0.3-0.3,0.5-0.6,0.8-0.8V80.5
		C1639.6,77.6,1634.9,74.9,1630.1,72.1z"/>
	<path d="M1620.2,91.5h6.6c-1.7-0.9-3.4-1.9-5.2-2.8C1621.1,89.6,1620.7,90.6,1620.2,91.5z"/>
	<path d="M1632.3,67.8c-0.8,1.4-1.5,2.9-2.2,4.3c4.8,2.7,9.5,5.5,14.2,8.4V67.8H1632.3z"/>
	<path d="M1725.8,49.7c-0.5-1.6-1.1-3.1-1.8-4.6c-3.6-1.6-7.1-3.3-10.6-5c-3.4,3.9-6.8,7.7-10.1,11.7c0.1,0.3,0.2,0.6,0.3,0.8
		L1725.8,49.7z"/>
	<path d="M1717.1,35.8c-1.3,1.4-2.5,2.9-3.8,4.3c3.5,1.7,7.1,3.3,10.6,5C1722.3,41.4,1720,38.3,1717.1,35.8z"/>
	<path d="M1710.4,68c5.2,1.8,10.3,3.6,15.4,5.5c0.4-1.2,0.8-2.4,1.2-3.6L1710.4,68z"/>
	<path d="M1710.4,68l-5.9-0.7c-1,3.3-2.6,5.7-4.7,7.3c-2.1,1.6-4.7,2.4-7.8,2.4c-2.8,0-5.3-0.8-7.3-2.3c-3.9,4.9-7.7,9.9-11.6,14.9
		c1.3,0.5,2.6,1,3.9,1.4c4.4,1.2,9.8,1.8,16.3,1.8c6.8,0,12.3-0.9,16.7-2.8c4.4-1.9,8-4.6,10.8-8c2.1-2.5,3.7-5.4,4.9-8.5
		C1720.7,71.6,1715.6,69.8,1710.4,68z"/>
	<path d="M1717.1,35.8c-0.8-0.7-1.6-1.3-2.5-1.9c-4.3-2.9-10.1-4.6-17.5-5.2c-0.7,0.8-1.4,1.7-2.1,2.5c6.1,3,12.2,6,18.3,8.9
		C1714.6,38.7,1715.9,37.2,1717.1,35.8z"/>
	<path d="M1695.1,31.2c-7,8.4-14.1,16.8-21.1,25.3c1.8,0.6,3.6,1.2,5.4,1.7c0.4-4,1.5-7.2,3.5-9.4c2.4-2.8,5.6-4.2,9.5-4.2
		c3.1,0,5.6,0.7,7.4,2c1.6,1.2,2.8,2.9,3.5,5.1c3.3-3.9,6.7-7.8,10.1-11.7C1707.3,37.2,1701.2,34.2,1695.1,31.2z"/>
	<path d="M1665.8,85.1c2.1,1.9,4.6,3.4,7.3,4.5c3.8-5,7.7-10,11.6-14.9c-0.6-0.5-1.2-1-1.8-1.6c-2.4-2.6-3.6-6.5-3.6-11.5
		c0-1.2,0.1-2.3,0.2-3.3c-1.8-0.6-3.6-1.2-5.4-1.7c-1.5,1.8-3,3.7-4.5,5.5c-3.7,4.5-7.4,8.9-11.2,13.3c0,0.1,0.1,0.2,0.1,0.3
		C1660.2,79.2,1662.7,82.4,1665.8,85.1z"/>
	<path d="M1669.5,62c1.5-1.8,3-3.7,4.5-5.5c-5.7-1.9-11.4-3.9-17-6c-0.8,3.1-1.2,6.6-1.2,10.5c0,5.9,0.9,10.7,2.6,14.4
		C1662.1,70.9,1665.8,66.5,1669.5,62z"/>
	<path d="M1695.1,31.2c-1.8-0.9-3.7-1.8-5.5-2.7c-6.2,0.2-11.4,1.1-15.6,2.8c-2.9,1.2-5.7,3-8.5,5.5c-2.7,2.5-4.9,5.2-6.5,8.3
		c-0.8,1.6-1.5,3.4-2,5.4c5.6,2.1,11.3,4.1,17,6C1681,48,1688.1,39.6,1695.1,31.2z"/>
	<path d="M1697.2,28.7c-1.8-0.1-3.6-0.2-5.5-0.2c-0.7,0-1.4,0-2.1,0c1.8,0.9,3.7,1.8,5.5,2.7C1695.8,30.4,1696.5,29.5,1697.2,28.7z"
		/>
	<path d="M1762,48.7c2.2-2.6,5.1-4,8.5-4c2.9,0,5.3,1,7.4,3c3.9-5.1,7.8-10.1,11.8-15c-5.7-0.9-11.7-0.4-17.7-1.2
		c-6.3,8.3-12.6,16.6-19.1,24.8c1.9,0.6,3.9,1.2,5.9,1.8C1759,54.1,1760.1,50.9,1762,48.7z"/>
	<path d="M1789.7,32.7c-4.4-2.3-9.6-3.6-15.5-4c-0.8,1-1.5,2-2.3,3C1778,32.4,1784,31.8,1789.7,32.7
		C1789.7,32.7,1789.7,32.7,1789.7,32.7z"/>
	<path d="M1760.9,71.4c-1.5-2.6-2.3-6.1-2.3-10.6c0-0.9,0-1.8,0.1-2.6c-2-0.6-3.9-1.2-5.9-1.8c-4.8,6.2-9.8,12.4-14.9,18.5
		c0.7,1.4,1.5,2.8,2.4,4.1c4.1,1.6,8.1,3.2,12.2,4.9C1755.3,79.7,1758,75.5,1760.9,71.4z"/>
	<path d="M1740.4,79.1c1.6,2.3,3.5,4.4,5.8,6.3c1.2,1,2.4,1.8,3.7,2.6c0.9-1.4,1.7-2.7,2.6-4C1748.5,82.3,1744.4,80.7,1740.4,79.1z"
		/>
	<path d="M1789.7,32.7C1789.7,32.7,1789.7,32.7,1789.7,32.7c0,0.1,0.1,0.1,0.2,0.1C1789.8,32.7,1789.8,32.7,1789.7,32.7z"/>
	<path d="M1781.9,59.4c5.7-6.3,11.5-12.6,17.3-18.8c-0.4-0.5-0.7-0.9-1.2-1.4c-2.3-2.6-5.1-4.8-8.2-6.4c-0.1,0-0.2,0-0.2,0
		c-4,4.9-8,9.9-11.8,15c0.3,0.3,0.6,0.6,0.8,0.9C1780.7,51.1,1781.8,54.7,1781.9,59.4z"/>
	<path d="M1766.8,76.4c-1.8-0.6-3.5-1.7-4.9-3.4c-0.4-0.5-0.8-1-1.1-1.6c-2.8,4.1-5.6,8.3-8.3,12.5c1.9,0.8,3.8,1.5,5.7,2.3
		C1761,82.9,1763.9,79.7,1766.8,76.4z"/>
	<path d="M1752.5,83.9c-0.9,1.3-1.7,2.7-2.6,4c1.5,0.9,3.1,1.7,4.8,2.3c1.1-1.3,2.3-2.7,3.5-4C1756.3,85.5,1754.4,84.7,1752.5,83.9z"
		/>
	<path d="M1794.2,67.8c3.6-4,7.4-7.9,11.2-11.8c-0.7-5.8-2.7-11-6.2-15.4c-5.8,6.2-11.6,12.5-17.3,18.8c0,0.4,0,0.8,0,1.1
		c0,1.3-0.1,2.6-0.2,3.7C1786,65.4,1790.1,66.6,1794.2,67.8z"/>
	<path d="M1794.2,67.8c-4.1-1.2-8.3-2.3-12.4-3.5c-0.4,3.8-1.4,6.8-3.1,8.7c-2.2,2.6-5,3.9-8.4,3.9c-1.3,0-2.4-0.2-3.5-0.6
		c-2.9,3.3-5.7,6.6-8.6,9.9c5,2.1,10,4.2,15,6.3C1780,84.1,1786.9,75.8,1794.2,67.8z"/>
	<path d="M1758.2,86.3c-1.2,1.3-2.3,2.7-3.5,4c4.5,1.7,9.6,2.6,15.5,2.6c0.9,0,1.8,0,2.7-0.1c0.1-0.1,0.2-0.2,0.2-0.3
		C1768.2,90.4,1763.2,88.3,1758.2,86.3z"/>
	<path d="M1805.7,60.5c0-1.6-0.1-3-0.3-4.5c-3.8,3.8-7.5,7.8-11.2,11.8c3.4,1,6.7,1.9,10,2.9C1805.2,67.6,1805.7,64.2,1805.7,60.5z"
		/>
	<path d="M1796.3,83.8c3.9-3.7,6.5-8.1,8-13.1c-3.3-1-6.7-2-10-2.9c-7.3,8-14.3,16.3-21.1,24.7c0.2,0.1,0.4,0.2,0.6,0.2
		C1783.2,92.2,1790.7,89.2,1796.3,83.8z"/>
	<path d="M1773.7,92.8c-0.2-0.1-0.4-0.2-0.6-0.2c-0.1,0.1-0.2,0.2-0.2,0.3C1773.2,92.8,1773.5,92.8,1773.7,92.8z"/>
	<path d="M1752.8,56.4c-5.6-1.8-11-3.8-16.4-6c-1,3.2-1.5,6.7-1.5,10.4c0,5.2,1,9.9,3,14.1C1743,68.8,1748,62.6,1752.8,56.4z"/>
	<path d="M1771.9,31.6c-1.1-0.1-2.3-0.3-3.4-0.6c-2.3-0.6-4.6-1.2-6.9-1.8c-6.9,1.2-12.6,4-17.1,8.4c-3.8,3.7-6.5,7.9-8,12.8
		c5.4,2.2,10.8,4.2,16.4,6C1759.3,48.2,1765.6,39.9,1771.9,31.6z"/>
	<path d="M1771.9,31.6c0.8-1,1.5-2,2.3-3c-1.3-0.1-2.6-0.1-4-0.1c-3,0-5.9,0.2-8.6,0.7c2.3,0.6,4.6,1.2,6.9,1.8
		C1769.6,31.3,1770.8,31.4,1771.9,31.6z"/>
	<path d="M1840.3,67.8h-5.3c-2.5,3.4-4.9,6.7-7.4,10.1c4.3,1.3,8.5,2.7,12.7,4.1V67.8z"/>
	<path d="M1840.3,81.9c-4.2-1.4-8.5-2.7-12.7-4.1c-3.4,4.6-6.8,9.1-10.2,13.6h22.9V81.9z"/>
	<path d="M1827.6,77.9c-4.1-1.3-8.3-2.6-12.5-3.9v17.5h2.3C1820.8,87,1824.2,82.4,1827.6,77.9z"/>
	<path d="M1835,67.8h-19.9V74c4.2,1.3,8.3,2.6,12.5,3.9C1830.1,74.5,1832.5,71.2,1835,67.8z"/>
	<path d="M1919.5,29.9h-2.1c-0.2,0.5-0.5,1-0.7,1.4c0.9,0.5,1.9,1,2.8,1.5V29.9z"/>
	<path d="M1919.5,32.8c-0.9-0.5-1.9-1-2.8-1.5c-4.8,9.9-9.8,19.8-14.8,29.6c5.9,2.2,11.8,4.4,17.6,6.7V32.8z"/>
	<path d="M1919.5,67.7c-5.8-2.3-11.7-4.6-17.6-6.7c-3.2,6.4-6.5,12.7-9.9,19c1.6,0.7,3.3,1.4,4.9,2.1c0.2-0.2,0.3-0.4,0.5-0.6v0.8
		c3.1,1.3,6.2,2.6,9.3,3.9c4.2-6.2,8.4-12.3,12.7-18.4V67.7z"/>
	<path d="M1897.5,91.5h5.8c1.2-1.7,2.4-3.5,3.6-5.2c-3.1-1.3-6.2-2.6-9.3-3.9V91.5z"/>
	<path d="M1886.3,90.8c0.4-0.2,0.8-0.4,1.2-0.6c3.2-1.6,6.3-4.4,9.4-8.1c-1.6-0.7-3.3-1.4-4.9-2.1
		C1890.1,83.6,1888.2,87.2,1886.3,90.8z"/>
	<path d="M1903.2,91.5h16.3v-0.1c-4.3-1.6-8.5-3.3-12.7-5.1C1905.6,88,1904.4,89.7,1903.2,91.5z"/>
	<path d="M1906.8,86.3c4.2,1.7,8.4,3.4,12.7,5.1V67.9C1915.2,74,1911,80.1,1906.8,86.3z"/>
	<path d="M1862.2,89c3.1,2.3,6.9,3.6,11.5,3.8C1869.9,91.6,1866.1,90.3,1862.2,89z"/>
	<path d="M1866.9,68.5c-3.3,4.7-6.6,9.4-10,14.1c0.8,1.7,1.8,3.2,3,4.5c0.7,0.7,1.5,1.4,2.3,2c3.9,1.3,7.7,2.5,11.5,3.8
		c0.5,0,1,0.1,1.5,0.1c4.3,0,8-0.7,11.1-2c1.9-3.6,3.8-7.2,5.7-10.9C1883.6,76.3,1875.2,72.4,1866.9,68.5z"/>
	<path d="M1895.9,58.8v0.8c0,5.6-0.9,9.5-2.7,11.7c-1.8,2.2-4.1,3.2-6.9,3.2c-2.6,0-4.6-0.8-6-2.4c-1.4-1.6-2.1-4.4-2.1-8.2V52.5
		c0,0-0.1,0-0.1,0c-3.7,5.4-7.4,10.7-11.1,16.1c8.3,3.9,16.7,7.8,25.2,11.5c3.3-6.3,6.6-12.7,9.9-19
		C1899.9,60.2,1897.9,59.5,1895.9,58.8z"/>
	<path d="M1878.1,52.3c0,0.1-0.1,0.1-0.1,0.2c0,0,0.1,0,0.1,0V52.3z"/>
	<path d="M1916.7,31.3c-0.9-0.5-1.8-1-2.7-1.4h-18.1v28.9c2,0.7,4,1.4,6,2.2C1906.9,51.1,1911.8,41.2,1916.7,31.3z"/>
	<path d="M1917.4,29.9h-3.4c0.9,0.5,1.8,1,2.7,1.4C1916.9,30.8,1917.2,30.4,1917.4,29.9z"/>
	<path d="M1863.5,29.9c-3.1,3.9-6.1,7.8-9.2,11.8v2.8c7.9,2.6,15.8,5.2,23.6,7.9c0-0.1,0.1-0.1,0.1-0.2V29.9H1863.5z"/>
	<path d="M1866.9,68.5c-4.2-2-8.3-4-12.5-6v6.6c0,5.5,0.9,9.9,2.5,13.5C1860.2,77.9,1863.6,73.2,1866.9,68.5z"/>
	<path d="M1878,52.4c-7.8-2.7-15.7-5.3-23.6-7.9v18c4.2,2,8.3,4,12.5,6C1870.6,63.2,1874.3,57.8,1878,52.4z"/>
	<path d="M1854.4,29.9v11.8c3-4,6.1-7.9,9.2-11.8H1854.4z"/>
	<path d="M1948,27.8c-4.7-1.7-9.5-3.5-14.2-5.3V40c1.3,0.6,2.6,1.3,4,1.9C1941.2,37.2,1944.6,32.5,1948,27.8z"/>
	<path d="M1958,14.2V6.5h-24.1v16c4.7,1.8,9.4,3.6,14.2,5.3C1951.3,23.2,1954.6,18.7,1958,14.2z"/>
	<path d="M1933.8,40v7.5c1.3-1.8,2.6-3.7,4-5.5C1936.5,41.3,1935.2,40.6,1933.8,40z"/>
	<path d="M1975.6,29.9l-5,5.8c1.3,0.4,2.6,0.9,3.9,1.3c1.4,0.4,2.7,0.9,4,1.4c2.7-2.9,5.4-5.7,8.2-8.5H1975.6z"/>
	<path d="M1978.5,38.4c-1.3-0.5-2.7-1-4-1.4c-1.3-0.4-2.6-0.9-3.9-1.3l-1.5,1.7c-3.9,4.7-7.8,9.4-11.6,14.1c2.2,1.1,4.3,2.2,6.5,3.2
		C1968.6,49.2,1973.5,43.8,1978.5,38.4z"/>
	<path d="M1964,54.8c-2.2-1.1-4.3-2.2-6.5-3.2c-6.5,7.9-12.9,15.9-19.3,23.9c2.7,1.2,5.3,2.3,8,3.5
		C1951.6,70.5,1957.6,62.5,1964,54.8z"/>
	<path d="M1946.2,78.9c-2.7-1.2-5.3-2.4-8-3.5c-1.5,1.8-2.9,3.6-4.4,5.5v10.6h5C1941.1,87.2,1943.6,83,1946.2,78.9z"/>
	<path d="M2004.7,29.9h-18c-2.8,2.8-5.5,5.7-8.2,8.5c4.1,1.6,8,3.5,11.6,5.6L2004.7,29.9z"/>
	<path d="M1990.2,44c-3.6-2.1-7.5-4-11.6-5.6c-5,5.4-9.9,10.8-14.6,16.4c7.6,3.9,15.2,7.8,22.5,12.2c0.8-1.5,1.6-3,2.5-4.4l-6.5-11.1
		L1990.2,44z"/>
	<path d="M1964,54.8c-6.4,7.7-12.4,15.7-17.8,24.2c3.9,1.8,7.9,3.6,11.8,5.5v-9l8.9-8.7l9.9,19.6c3.3-6.4,6.6-12.8,9.7-19.4
		c0,0,0,0,0-0.1C1979.1,62.6,1971.6,58.6,1964,54.8z"/>
	<path d="M1958,84.4c-3.9-1.9-7.8-3.7-11.8-5.5c-2.6,4.1-5.1,8.2-7.4,12.5h19.1V84.4z"/>
	<path d="M1989,62.5c-0.9,1.4-1.7,2.9-2.5,4.4c2.6,1.5,5.2,3.1,7.8,4.8L1989,62.5z"/>
	<path d="M2005.9,91.5l-11.6-19.8c-2.6-1.6-5.2-3.2-7.8-4.8c0,0,0,0,0,0.1c-3.2,6.6-6.4,13.1-9.7,19.4l2.6,5.1H2005.9z"/>
	<path d="M1958,14.2c-3.3,4.5-6.7,9.1-10,13.6c3.3,1.2,6.6,2.4,10,3.6V14.2z"/>
	<path d="M1969.1,37.4L1958,50.3v-19c-3.3-1.2-6.7-2.4-10-3.6c-3.4,4.7-6.8,9.4-10.2,14.2c6.6,3.2,13.2,6.4,19.7,9.6
		C1961.3,46.8,1965.2,42.1,1969.1,37.4z"/>
	<path d="M1957.5,51.5c-6.5-3.2-13.1-6.4-19.7-9.6c-1.3,1.8-2.7,3.7-4,5.5v26.1c1.5,0.6,2.9,1.2,4.4,1.9
		C1944.6,67.4,1951,59.5,1957.5,51.5z"/>
	<path d="M1933.8,73.5v7.4c1.4-1.8,2.9-3.7,4.4-5.5C1936.8,74.8,1935.3,74.2,1933.8,73.5z"/>
</svg>
