<?xml version="1.0" encoding="utf-8"?>
<!-- Generator: Adobe Illustrator 16.0.0, SVG Export Plug-In . SVG Version: 6.00 Build 0)  -->
<!DOCTYPE svg PUBLIC "-//W3C//DTD SVG 1.1//EN" "http://www.w3.org/Graphics/SVG/1.1/DTD/svg11.dtd">
<svg version="1.1" id="Layer_1" xmlns="http://www.w3.org/2000/svg" xmlns:xlink="http://www.w3.org/1999/xlink" x="0px" y="0px" width="1305px" height="110px" viewBox="0 0 1305 110" enable-background="new 0 0 1305 110" xml:space="preserve">
	<path d="M32.099,44.445H24.39c0.671,1.026,1.317,2.067,1.96,3.11C28.268,46.519,30.18,45.479,32.099,44.445z"/>
	<path d="M7.577,57.816c6.226-3.458,12.494-6.866,18.773-10.261c-0.644-1.042-1.289-2.084-1.96-3.11H7.577V57.816z"/>
	<path d="M51.288,34.127c-4.641-5.163-9.525-10.158-14.44-15.078h-4.006v18.353c1.01,1.672,2.019,3.344,3.028,5.015
		C41.007,39.655,46.147,36.895,51.288,34.127z"/>
	<path d="M32.841,37.403v6.643c1.009-0.543,2.019-1.085,3.028-1.628C34.86,40.747,33.851,39.075,32.841,37.403z"/>
	<path d="M36.847,19.05c4.915,4.92,9.799,9.915,14.44,15.078c0.953-0.513,1.907-1.023,2.86-1.538V19.05H36.847z"/>
	<path d="M79.543,65.752V44.445h-4.876c-2.993,2.626-6,5.227-9.03,7.791c2.911,4.328,5.52,8.823,7.753,13.516H79.543z"/>
	<path d="M65.637,52.236c-5.255,4.452-10.584,8.783-16.051,12.899c1.517,2.509,3.042,5.018,4.562,7.527v-6.91H73.39
		C71.157,61.059,68.548,56.563,65.637,52.236z"/>
	<path d="M32.841,76.653v14.361h12.551c-1.902-6.166-4.039-12.29-6.464-18.304C36.921,74.057,34.898,75.381,32.841,76.653z"/>
	<path d="M54.147,72.662c-1.52-2.51-3.044-5.019-4.562-7.527c-3.488,2.626-7.04,5.151-10.657,7.576
		c2.425,6.014,4.562,12.138,6.464,18.304h8.755V72.662z"/>
	<path d="M54.147,32.59c-0.953,0.514-1.907,1.024-2.86,1.538c0.965,1.073,1.919,2.152,2.86,3.241V32.59z"/>
	<path d="M65.637,52.236c-1.786-2.656-3.687-5.247-5.669-7.791h-5.821v-7.077c-0.941-1.089-1.895-2.168-2.86-3.241
		c-5.14,2.767-10.281,5.528-15.418,8.291c4.57,7.572,9.14,15.145,13.717,22.717C55.053,61.019,60.382,56.688,65.637,52.236z"/>
	<path d="M38.929,72.711c-3.515-8.717-7.652-17.177-12.578-25.156c-6.279,3.395-12.547,6.803-18.773,10.261v7.936h25.264v10.901
		C34.898,75.381,36.921,74.057,38.929,72.711z"/>
	<path d="M49.586,65.135c-4.577-7.572-9.146-15.145-13.717-22.717c-1.009,0.542-2.019,1.085-3.028,1.628v0.399h-0.742
		c-1.919,1.033-3.832,2.074-5.749,3.11c4.926,7.979,9.063,16.439,12.578,25.156C42.546,70.286,46.098,67.761,49.586,65.135z"/>
	<path d="M74.667,44.445H59.968c1.982,2.544,3.883,5.135,5.669,7.791C68.667,49.672,71.674,47.072,74.667,44.445z"/>
	<path d="M140.097,5l-2.332,2.771c2.896,9.2,7.546,17.751,15.493,25.202c1.5,1.444,3.006,2.875,4.51,4.311
		c2.082-6.227,4.011-12.498,5.746-18.817V5H140.097z"/>
	<path d="M140.097,64.433h-3.677c2.527,2.643,5.078,5.273,7.647,7.893c5.145-11.47,9.73-23.165,13.702-35.041
		c-1.504-1.437-3.011-2.867-4.51-4.311c-7.947-7.451-12.598-16.002-15.493-25.202l-8.625,10.253
		c-0.843,10.61-1.667,21.226-2.519,31.833L140.097,34V64.433z"/>
	<path d="M144.067,72.325c-2.569-2.619-5.121-5.25-7.647-7.893h-10.999c-0.587,6.957-1.21,13.905-1.867,20.845h14.428
		C140.094,80.995,142.117,76.677,144.067,72.325z"/>
	<path d="M163.515,18.468c-1.735,6.319-3.664,12.59-5.746,18.817c1.911,1.825,3.827,3.646,5.746,5.457V18.468z"/>
	<path d="M163.515,64.433V42.742c-1.919-1.812-3.834-3.632-5.746-5.457c-3.971,11.876-8.557,23.571-13.702,35.041
		c4.368,4.454,8.775,8.884,13.175,13.316c4.714-6.912,9.211-13.984,13.481-21.209H163.515z"/>
	<path d="M140.097,103.35h4.251c4.497-5.749,8.776-11.67,12.894-17.708c-4.4-4.433-8.807-8.862-13.175-13.316
		c-1.95,4.352-3.974,8.67-6.085,12.952h2.115V103.35z"/>
	<path d="M163.515,85.277h12.137V64.433h-4.928c-4.271,7.225-8.767,14.297-13.481,21.209c2.096,2.114,4.188,4.23,6.272,6.348V85.277z
		"/>
	<path d="M157.242,85.642c-4.118,6.038-8.397,11.959-12.894,17.708h19.167v-11.36C161.43,89.872,159.338,87.756,157.242,85.642z"/>
	<path d="M126.621,49.857c0.853-10.607,1.676-21.223,2.519-31.833l-4.244,5.044c-1.79,7.354-3.863,14.601-6.297,21.663
		c2.045,2.424,4.126,4.829,6.25,7.211L126.621,49.857z"/>
	<path d="M113.591,85.277c-2.943-3.396-5.89-6.799-8.826-10.213c-2.086,3.504-4.317,6.919-6.736,10.213H113.591z"/>
	<path d="M123.554,85.277c0.657-6.939,1.279-13.888,1.867-20.845h-11.185l10.614-12.491c-2.124-2.382-4.206-4.787-6.25-7.211
		c-3.666,10.635-8.178,20.837-13.833,30.333c2.936,3.414,5.882,6.817,8.826,10.213H123.554z"/>
	<path d="M124.896,23.068l-12.173,14.471c1.911,2.422,3.873,4.818,5.876,7.192C121.034,37.669,123.106,30.422,124.896,23.068z"/>
	<path d="M118.599,44.731c-2.003-2.374-3.965-4.77-5.876-7.192L92.939,61.056c3.885,4.709,7.841,9.372,11.826,14.009
		C110.421,65.568,114.933,55.366,118.599,44.731z"/>
	<path d="M92.939,61.056l-1.787,2.123v22.099h6.877c2.418-3.294,4.649-6.709,6.736-10.213
		C100.781,70.428,96.824,65.765,92.939,61.056z"/>
	<path d="M253.621,24.521V5h-23.417l-5.653,6.72c-0.11,1.483-0.244,2.966-0.367,4.45c8.917,5.004,18.025,9.677,27.255,14.098
		C252.163,28.352,252.904,26.439,253.621,24.521z"/>
	<path d="M230.203,34v17.808c3.168,2.939,6.325,5.886,9.473,8.838c3.97-10.109,7.919-20.227,11.762-30.378
		c-9.23-4.421-18.338-9.093-27.255-14.098c-0.756,9.109-1.756,18.208-3.015,27.282c0.188,0.172,0.376,0.345,0.563,0.517L230.203,34z"
		/>
	<path d="M239.676,60.646c-3.148-2.952-6.305-5.899-9.473-8.838v12.625h-12.404c-1.272,6.97-2.68,13.922-4.251,20.845h16.455
		C233.212,77.066,236.451,68.859,239.676,60.646z"/>
	<path d="M221.168,43.452c-0.064,0.466-0.121,0.934-0.188,1.4l0.751-0.883C221.544,43.797,221.355,43.624,221.168,43.452z"/>
	<path d="M253.621,85.277h11.793c-2.364-2.318-4.746-4.626-7.132-6.933c-6.411,8.564-13.157,16.861-20.197,25.005h15.536V85.277z"/>
	<path d="M265.758,85.277V68.023c-2.429,3.494-4.933,6.925-7.477,10.321c2.386,2.307,4.769,4.614,7.132,6.933H265.758z"/>
	<path d="M253.621,24.521c-0.717,1.919-1.458,3.831-2.183,5.747c0.727,0.348,1.454,0.695,2.183,1.04V24.521z"/>
	<path d="M233.981,103.35c-1.264-0.967-2.521-1.94-3.778-2.915v2.915H233.981z"/>
	<path d="M238.084,103.35c7.04-8.144,13.786-16.44,20.197-25.005c-6.142-5.935-12.348-11.833-18.605-17.699
		c-3.226,8.214-6.464,16.421-9.674,24.632h0.201v15.157c1.257,0.975,2.515,1.948,3.778,2.915H238.084z"/>
	<path d="M265.758,68.023v-3.591h-12.137V31.307c-0.729-0.345-1.456-0.691-2.183-1.04c-3.843,10.151-7.792,20.269-11.762,30.378
		c6.257,5.866,12.463,11.765,18.605,17.699C260.825,74.948,263.329,71.518,265.758,68.023z"/>
	<path d="M224.55,11.72l-2.646,3.145c0.761,0.433,1.516,0.876,2.278,1.305C224.306,14.687,224.44,13.204,224.55,11.72z"/>
	<path d="M221.168,43.452c-4.375-4.031-8.762-8.056-13.153-12.078l-0.027,0.032c-4.78,13.074-8.861,26.474-13.172,39.826
		c5.447,4.756,10.941,9.44,16.492,14.045h2.24c1.572-6.923,2.979-13.875,4.251-20.845h-13.457l16.639-19.58
		C221.047,44.386,221.104,43.918,221.168,43.452z"/>
	<path d="M194.815,71.232c-1.515,4.692-3.058,9.381-4.67,14.045h21.162C205.757,80.673,200.262,75.988,194.815,71.232z"/>
	<path d="M224.183,16.17c-0.763-0.429-1.517-0.872-2.278-1.305l-13.889,16.509c4.391,4.022,8.777,8.047,13.153,12.078
		C222.427,34.378,223.427,25.279,224.183,16.17z"/>
	<path d="M194.815,71.232c-1.169-1.021-2.334-2.049-3.499-3.077c-2.291,5.786-4.724,11.502-7.336,17.122h6.165
		C191.758,80.613,193.301,75.925,194.815,71.232z"/>
	<path d="M207.988,31.406l-6.343,7.54c-3.15,9.873-6.543,19.64-10.329,29.209c1.165,1.028,2.33,2.056,3.499,3.077
		C199.127,57.88,203.208,44.48,207.988,31.406z"/>
	<path d="M201.645,38.946l-18.467,21.952c2.702,2.437,5.415,4.854,8.139,7.258C195.102,58.586,198.495,48.819,201.645,38.946z"/>
	<path d="M191.316,68.155c-2.724-2.403-5.437-4.821-8.139-7.258l-1.919,2.281v22.099h2.722
		C186.592,79.657,189.026,73.941,191.316,68.155z"/>
	<path d="M342.814,6.648h-14.53c3.249,4.287,6.487,8.577,9.671,12.896C339.644,15.281,341.276,10.987,342.814,6.648z"/>
	<path d="M328.284,6.648h-8.633V29.34h14.316c1.361-3.247,2.689-6.514,3.989-9.795C334.771,15.225,331.533,10.935,328.284,6.648z"/>
	<path d="M361.494,26.974c4.328-5.169,8.626-10.361,12.774-15.661c-0.641-1.552-1.279-3.107-1.921-4.664h-27.877
		c1.296,1.428,2.592,2.857,3.882,4.298C353.118,16.146,357.51,21.471,361.494,26.974z"/>
	<path d="M359.523,29.34c0.661-0.786,1.312-1.58,1.971-2.367c-3.984-5.503-8.376-10.828-13.141-16.027
		c-1.29-1.441-2.586-2.87-3.882-4.298h-1.657c-1.538,4.339-3.17,8.633-4.858,12.896c2.392,3.244,4.753,6.504,7.059,9.795H359.523z"/>
	<path d="M345.015,29.34c-2.306-3.291-4.667-6.551-7.059-9.795c-1.299,3.282-2.628,6.548-3.989,9.795H345.015z"/>
	<path d="M377.871,6.648h-5.523c0.642,1.557,1.28,3.112,1.921,4.664C375.479,9.765,376.688,8.216,377.871,6.648z"/>
	<path d="M367.87,73.865c0.142-0.472,0.299-0.933,0.445-1.4c-8.19,2.548-15.864,5.619-23.039,9.395
		c6.239,2.961,12.536,5.855,18.911,8.619C365.116,84.398,366.339,78.854,367.87,73.865z"/>
	<path d="M345.276,81.859c-2.083,1.097-4.131,2.243-6.129,3.465c-1.266,5.589-2.341,11.581-3.204,18.025h26.782
		c0.352-4.537,0.842-8.819,1.462-12.871C357.812,87.715,351.515,84.82,345.276,81.859z"/>
	<path d="M368.314,72.465c0.148-0.473,0.317-0.93,0.47-1.397c-2.665-6.42-5.721-12.611-9.089-18.623
		c-5.302,4.622-10.36,9.464-15.132,14.564c-1.484,3.883-2.811,8.096-4.002,12.593c1.57,0.755,3.138,1.509,4.714,2.258
		C352.451,78.084,360.125,75.013,368.314,72.465z"/>
	<path d="M345.276,81.859c-1.576-0.749-3.144-1.503-4.714-2.258c-0.493,1.862-0.97,3.759-1.415,5.723
		C341.145,84.103,343.192,82.956,345.276,81.859z"/>
	<path d="M376.276,53.013c-1.438-3.461-3.054-6.826-4.806-10.122c-4.085,3.042-7.984,6.25-11.774,9.554
		c3.368,6.012,6.424,12.203,9.089,18.623C370.859,64.689,373.349,58.665,376.276,53.013z"/>
	<path d="M383.387,34.675c-4.12,2.608-8.08,5.358-11.917,8.216c1.752,3.296,3.368,6.661,4.806,10.122
		c1.469-2.835,3.034-5.588,4.72-8.238c1.215-1.904,2.541-3.76,3.917-5.593C384.418,37.676,383.914,36.174,383.387,34.675z"/>
	<path d="M383.387,34.675c0.527,1.499,1.031,3.001,1.526,4.507c2.905-3.871,6.137-7.595,9.747-11.15
		C390.769,30.13,387.036,32.366,383.387,34.675z"/>
	<path d="M371.47,42.891c-1.934-3.639-4.044-7.188-6.331-10.656c-3.539,4.548-6.686,8.984-9.48,13.321
		c1.383,2.274,2.735,4.567,4.036,6.889C363.486,49.14,367.385,45.932,371.47,42.891z"/>
	<path d="M359.696,52.444c-1.301-2.322-2.653-4.615-4.036-6.889c-4.026,6.248-7.295,12.281-9.755,18.086
		c-0.462,1.091-0.903,2.225-1.34,3.367C349.335,61.908,354.394,57.066,359.696,52.444z"/>
	<path d="M361.494,26.974c-0.659,0.787-1.31,1.581-1.971,2.367h3.668C362.639,28.545,362.064,27.76,361.494,26.974z"/>
	<path d="M367.408,29.34c-0.783,0.972-1.52,1.932-2.269,2.894c2.286,3.468,4.396,7.017,6.331,10.656
		c3.837-2.858,7.797-5.607,11.917-8.216c-2.752-7.827-5.908-15.573-9.119-23.362c-4.148,5.3-8.447,10.492-12.774,15.661
		c0.57,0.787,1.145,1.572,1.697,2.367H367.408z"/>
	<path d="M377.871,6.648c-1.184,1.567-2.392,3.117-3.603,4.664c3.211,7.79,6.366,15.536,9.119,23.362
		c3.649-2.309,7.382-4.544,11.272-6.643c1.111-1.094,2.243-2.18,3.421-3.244V6.648H377.871z"/>
	<path d="M412.841,25.713c-0.363,1.627-0.579,3.312-0.579,5.078c0,4.925,1.32,9.279,3.958,13.061c0.07,0.101,0.153,0.198,0.227,0.298
		c1.037-1.498,2.1-2.983,3.158-4.47C417.591,34.898,415.366,30.227,412.841,25.713z"/>
	<path d="M435.65,17.189c-1.374-3.312-3.075-6.538-5.048-9.656c-2.538,0.897-4.856,2.023-6.927,3.403
		c-5.947,4.021-9.535,8.956-10.833,14.777c2.525,4.514,4.75,9.185,6.764,13.967C424.942,32.178,430.484,24.778,435.65,17.189z"/>
	<path d="M436.984,15.256c-1.52-2.77-3.014-5.554-4.477-8.353c-0.653,0.192-1.281,0.409-1.905,0.63
		c1.973,3.119,3.674,6.344,5.048,9.656C436.09,16.542,436.55,15.906,436.984,15.256z"/>
	<path d="M443.337,5.118c-3.961,0.232-7.57,0.827-10.83,1.785c1.463,2.799,2.957,5.583,4.477,8.353
		C439.207,11.928,441.343,8.559,443.337,5.118z"/>
	<path d="M465.526,7.301C460.452,5.785,454.376,5,447.224,5c-1.334,0-2.625,0.044-3.887,0.118c-1.994,3.441-4.13,6.81-6.353,10.138
		c1.523,2.772,3.072,5.531,4.64,8.28c1.88-1.445,4.183-2.177,6.919-2.177c3.208,0,5.848,1.045,7.915,3.134
		c0.725,0.733,1.316,1.548,1.787,2.436c3.264-3.986,6.452-8.015,9.591-12.073C467.004,12.362,466.241,9.841,465.526,7.301z"/>
	<path d="M416.447,44.15c1.665,2.268,4.104,4.358,7.32,6.27c-1.3-3.625-2.676-7.21-4.163-10.74
		C418.547,41.167,417.484,42.652,416.447,44.15z"/>
	<path d="M424.288,51.87c-4.901,2.117-8.59,4.99-11.036,8.639c-2.638,3.935-3.958,8.737-3.958,14.41c0,4.01,0.688,7.753,2.031,11.239
		c5.216-7.803,10.897-15.355,16.802-22.792C426.893,59.513,425.628,55.671,424.288,51.87z"/>
	<path d="M440.992,47.634c-0.514-2.645-0.916-5.339-1.159-8.103c-1.534-1.911-2.306-4.294-2.306-7.157c0-1.999,0.39-3.767,1.162-5.31
		c-0.672-3.354-1.702-6.653-3.039-9.875c-5.166,7.588-10.708,14.988-16.045,22.491c1.486,3.529,2.863,7.114,4.163,10.74
		c0.542,0.322,1.101,0.641,1.688,0.953c-0.402,0.158-0.78,0.331-1.167,0.497c1.34,3.802,2.605,7.643,3.84,11.497
		C432.329,58.078,436.64,52.846,440.992,47.634z"/>
	<path d="M440.594,24.426c0.326-0.326,0.673-0.616,1.03-0.891c-1.567-2.749-3.117-5.507-4.64-8.28
		c-0.434,0.65-0.894,1.287-1.334,1.934c1.337,3.221,2.366,6.52,3.039,9.875C439.172,26.095,439.806,25.214,440.594,24.426z"/>
	<path d="M444.917,42.943c-1.642-0.501-3.066-1.323-4.256-2.488c-0.3-0.293-0.572-0.604-0.828-0.924
		c0.243,2.764,0.645,5.458,1.159,8.103C442.298,46.069,443.606,44.506,444.917,42.943z"/>
	<path d="M471.751,9.765c-1.863-0.977-3.953-1.786-6.225-2.464c0.715,2.541,1.478,5.062,2.31,7.555
		C469.146,13.162,470.472,11.477,471.751,9.765z"/>
	<path d="M483.226,39.949c-0.333,0.659-0.664,1.318-1,1.975C482.596,41.274,482.926,40.615,483.226,39.949z"/>
	<path d="M456.921,86.402c-3.934,6.252-7.987,12.424-12.172,18.499c1.477,0.059,2.992,0.099,4.585,0.099
		c5.452,0,10.587-0.541,15.402-1.616c0.054-0.013,0.101-0.029,0.154-0.042c0.37-0.427,0.734-0.858,1.104-1.286
		C463.004,96.835,459.905,91.647,456.921,86.402z"/>
	<path d="M478.497,87.166c-3.383-6.396-6.932-12.721-10.57-19.006c-3.556,6.148-7.225,12.231-11.006,18.242
		c2.984,5.245,6.083,10.433,9.074,15.653C470.236,97.156,474.448,92.229,478.497,87.166z"/>
	<path d="M488.287,74.048c-0.162-4.619-1.428-8.861-3.827-12.716c-1.962-3.151-4.702-5.826-8.21-8.032
		c-2.693,4.996-5.481,9.943-8.324,14.86c3.638,6.285,7.187,12.609,10.57,19.006C481.901,82.908,485.197,78.561,488.287,74.048z"/>
	<path d="M464.891,103.342c0.554-0.126,1.061-0.287,1.594-0.429c-0.163-0.285-0.326-0.571-0.49-0.857
		C465.625,102.483,465.261,102.915,464.891,103.342z"/>
	<path d="M481.792,93.541c-1.079-2.135-2.176-4.26-3.295-6.375c-4.048,5.062-8.261,9.99-12.502,14.89
		c0.164,0.286,0.327,0.572,0.49,0.857c4.033-1.075,7.5-2.579,10.324-4.575C478.633,97.047,480.29,95.439,481.792,93.541z"/>
	<path d="M488.287,74.048c-3.09,4.513-6.386,8.86-9.791,13.118c1.119,2.115,2.216,4.24,3.295,6.375
		c1.159-1.468,2.229-3.104,3.197-4.933c2.219-4.2,3.331-8.718,3.331-13.558C488.319,74.713,488.299,74.383,488.287,74.048z"/>
	<path d="M475.885,12.388c-1.231-0.981-2.634-1.837-4.133-2.623c-1.28,1.711-2.606,3.396-3.916,5.09
		c3.398,10.186,7.765,19.965,12.943,29.3c0.239-0.32,0.468-0.641,0.68-0.963c0.272-0.418,0.525-0.843,0.768-1.269
		c0.335-0.657,0.666-1.316,1-1.975c1.277-2.838,1.927-5.824,1.927-8.959C485.153,23.513,482.063,17.313,475.885,12.388z"/>
	<path d="M467.836,14.855c-3.139,4.058-6.327,8.086-9.591,12.073c0.871,1.641,1.314,3.542,1.314,5.71c0,3.21-0.99,5.827-2.968,7.85
		c-1.059,1.082-2.28,1.864-3.652,2.368c5.026,8.431,10.086,16.835,14.988,25.304c2.842-4.917,5.63-9.864,8.324-14.86
		c-1.093-0.688-2.255-1.332-3.499-1.927c3.504-2.338,6.178-4.742,8.027-7.217C475.601,34.821,471.234,25.042,467.836,14.855z"/>
	<path d="M411.326,86.158c0.601,1.56,1.32,3.073,2.19,4.528c2.814,4.704,6.926,8.266,12.334,10.685
		c4.143,1.851,9.734,2.979,16.715,3.412c-5.853-13.226-9.95-27.415-14.438-41.417C422.224,70.803,416.542,78.355,411.326,86.158z"/>
	<path d="M456.921,86.402c-0.176-0.309-0.351-0.619-0.525-0.928c-2.267,2.016-4.772,3.033-7.522,3.033
		c-3.343,0-6.311-1.353-8.905-4.057c-2.595-2.704-3.892-6.189-3.892-10.454c0-4.486,1.242-8.047,3.728-10.687
		c1.396-1.482,2.932-2.533,4.599-3.182c-1.414-4.043-2.575-8.196-3.41-12.495c-4.352,5.212-8.663,10.444-12.863,15.732
		c4.488,14.002,8.585,28.191,14.438,41.417c0.718,0.045,1.436,0.089,2.183,0.118C448.934,98.826,452.987,92.654,456.921,86.402z"/>
	<path d="M452.938,42.856c-1.195,0.438-2.502,0.666-3.934,0.666c-1.493,0-2.85-0.201-4.088-0.579
		c-1.311,1.562-2.619,3.126-3.925,4.691c0.835,4.298,1.997,8.452,3.41,12.495c1.3-0.507,2.677-0.776,4.142-0.776
		c3.385,0,6.365,1.365,8.938,4.091c2.573,2.727,3.859,6.221,3.859,10.486c0,4.222-1.276,7.71-3.826,10.457
		c-0.366,0.394-0.739,0.751-1.119,1.088c0.175,0.309,0.35,0.619,0.525,0.928c3.781-6.011,7.45-12.094,11.006-18.242
		C463.024,59.691,457.965,51.287,452.938,42.856z"/>
	<path d="M513.845,87.892c1.537-2.838,3.086-5.67,4.644-8.497l-11.316,1.425C509.346,83.222,511.563,85.587,513.845,87.892z"/>
	<path d="M507.172,80.819l-6.584,0.829c1.583,5.145,3.848,9.434,6.794,12.863c0.589,0.687,1.231,1.315,1.88,1.935
		c1.513-2.859,3.041-5.711,4.582-8.555C511.563,85.587,509.346,83.222,507.172,80.819z"/>
	<path d="M531.238,86.483c-0.122-0.1-0.255-0.175-0.373-0.284c-1.672-1.539-2.859-4.176-3.562-7.915l-8.815,1.11
		c-1.557,2.827-3.106,5.659-4.644,8.497c3.598,3.635,7.336,7.137,11.178,10.521C527.011,94.392,529.062,90.405,531.238,86.483z"/>
	<path d="M513.845,87.892c-1.541,2.844-3.069,5.695-4.582,8.555c2.596,2.479,5.648,4.457,9.201,5.883
		c1.216,0.487,2.566,0.902,4.025,1.256c0.814-1.741,1.683-3.451,2.533-5.172C521.181,95.028,517.442,91.526,513.845,87.892z"/>
	<path d="M572.637,25.146c-3.37-6.708-7.785-11.677-13.248-14.902c-2.039,3.24-4.033,6.505-6.047,9.759
		c3.899,5.189,7.771,10.364,11.458,15.615C567.39,32.115,570.006,28.626,572.637,25.146z"/>
	<path d="M564.799,35.618c-3.687-5.251-7.558-10.426-11.458-15.615c-1.812,2.928-3.647,5.842-5.44,8.78
		c1.436,2.627,2.159,5.867,2.159,9.727c0,5.145-1.253,9.102-3.76,11.874c-0.275,0.303-0.56,0.583-0.851,0.854
		c1.448,1.839,2.874,3.69,4.278,5.552C554.596,49.646,559.637,42.598,564.799,35.618z"/>
	<path d="M541.156,68.853c0.299-0.135,0.593-0.316,0.89-0.465c2.489-3.906,5.068-7.763,7.682-11.599
		c-1.404-1.862-2.83-3.712-4.278-5.552c-2.356,2.196-5.215,3.3-8.583,3.3c-1.403,0-2.714-0.215-3.938-0.638
		c-3.229,5.548-6.422,11.115-9.566,16.71c1.938,0.361,3.953,0.551,6.051,0.551C533.855,71.161,537.769,70.393,541.156,68.853z"/>
	<path d="M577.634,43.47c-0.774-6.917-2.312-12.819-4.651-17.659c-0.11-0.229-0.232-0.439-0.346-0.665
		c-2.63,3.48-5.247,6.969-7.837,10.472c3.358,4.783,6.555,9.634,9.486,14.616C575.418,47.989,576.542,45.739,577.634,43.47z"/>
	<path d="M574.285,50.233c-2.931-4.982-6.128-9.833-9.486-14.616c-5.163,6.98-10.203,14.028-15.071,21.171
		c4.177,5.537,8.134,11.191,11.741,17.036C565.939,66.07,570.245,58.229,574.285,50.233z"/>
	<path d="M536.67,105c2.107,0,4.132-0.118,6.091-0.331c6.42-10.206,12.715-20.445,18.708-30.844
		c-3.607-5.845-7.564-11.499-11.741-17.036c-2.614,3.836-5.193,7.692-7.682,11.599c3.073-1.546,6.077-3.783,9.003-6.792
		c-0.88,10.379-2.199,17.174-3.958,20.382c-2.419,4.354-5.783,6.53-10.092,6.53c-2.249,0-4.16-0.693-5.762-2.024
		c-2.176,3.922-4.227,7.908-6.216,11.93c2.521,2.223,5.092,4.388,7.708,6.499C533.993,104.969,535.304,105,536.67,105z"/>
	<path d="M532.73,104.912c-2.616-2.111-5.186-4.276-7.708-6.499c-0.851,1.721-1.719,3.431-2.533,5.172
		C525.415,104.295,528.827,104.737,532.73,104.912z"/>
	<path d="M578.227,54.472c0-3.93-0.21-7.58-0.593-11.002c-1.091,2.27-2.215,4.52-3.349,6.764c1.363,2.317,2.672,4.662,3.904,7.045
		C578.211,56.355,578.227,55.423,578.227,54.472z"/>
	<path d="M578.189,57.278c-1.232-2.383-2.542-4.728-3.904-7.045c-4.04,7.996-8.346,15.837-12.815,23.592
		c3.103,5.027,5.939,10.202,8.431,15.567C575.098,81.787,577.863,71.084,578.189,57.278z"/>
	<path d="M567.211,92.828c0.962-1.062,1.854-2.213,2.689-3.436c-2.492-5.365-5.328-10.54-8.431-15.567
		c-5.993,10.398-12.288,20.638-18.708,30.844C552.901,103.567,561.056,99.63,567.211,92.828z"/>
	<path d="M559.389,10.244c-0.143-0.084-0.278-0.182-0.423-0.264c-4.408-2.501-9.923-4.043-16.507-4.656
		c3.564,4.957,7.235,9.825,10.883,14.679C555.356,16.749,557.35,13.484,559.389,10.244z"/>
	<path d="M527.6,25.778c2.353-2.682,5.311-4.024,8.873-4.024c3.782,0,6.992,1.484,9.63,4.453c0.692,0.779,1.289,1.641,1.799,2.576
		c1.792-2.938,3.627-5.853,5.44-8.78c-3.647-4.854-7.318-9.723-10.883-14.679c-1.942-0.181-3.966-0.291-6.097-0.309
		c-3.228,7.614-6.806,15.053-10.573,22.398c0.125,0.149,0.25,0.299,0.375,0.449C526.583,27.098,527.056,26.398,527.6,25.778z"/>
	<path d="M523.364,70.61c3.144-5.596,6.337-11.162,9.566-16.71c-1.961-0.675-3.695-1.888-5.198-3.649
		c-2.441-2.858-3.661-6.993-3.661-12.402c0-4.125,0.703-7.449,2.093-9.988c-0.125-0.15-0.25-0.3-0.375-0.449
		c-5.916,11.534-12.308,22.831-18.608,34.172c0.104,0.112,0.194,0.231,0.301,0.343C511.997,66.591,517.293,69.481,523.364,70.61z"/>
	<path d="M536.362,5.014C536.131,5.013,535.914,5,535.681,5c-8.048,0-14.732,1.352-20.053,4.056
		c-1.127,0.573-2.192,1.217-3.217,1.905c4.335,5.569,8.839,11.026,13.379,16.451C529.557,20.067,533.134,12.628,536.362,5.014z"/>
	<path d="M525.789,27.412c-4.54-5.424-9.043-10.882-13.379-16.451c-3.812,2.561-6.924,5.908-9.315,10.067
		c-3.035,5.277-4.552,11.126-4.552,17.546c0,9.242,2.89,16.906,8.638,23.009C513.481,50.243,519.873,38.946,525.789,27.412z"/>
	<path d="M629.033,20.753c-2.471-1.88-4.97-3.726-7.491-5.543c-1.595,1.835-3.346,3.534-5.254,5.093
		c-0.781,0.638-1.626,1.256-2.504,1.866c-0.886,1.352-1.764,2.708-2.645,4.062c2.817,3.766,5.672,7.505,8.575,11.207
		C622.899,31.929,626.03,26.384,629.033,20.753z"/>
	<path d="M615.974,43.892c1.269-2.137,2.496-4.301,3.74-6.454c-2.903-3.702-5.758-7.441-8.575-11.207
		c-2.151,3.305-4.277,6.623-6.385,9.951c2.366,3.358,4.73,6.721,7.092,10.088C613.208,45.538,614.582,44.756,615.974,43.892z"/>
	<path d="M604.753,36.182c-3.332,5.257-6.606,10.547-9.772,15.903v0.87c6.201-1.89,11.356-3.869,15.468-5.937
		c0.462-0.232,0.93-0.499,1.396-0.748C609.484,42.903,607.12,39.54,604.753,36.182z"/>
	<path d="M637.027,5h-8.866c-1.78,3.778-3.988,7.181-6.62,10.209c2.521,1.818,5.021,3.664,7.491,5.543
		C631.797,15.567,634.491,10.336,637.027,5z"/>
	<path d="M650.391,31.743V5h-13.364c-2.537,5.336-5.23,10.567-7.995,15.753c6.375,4.852,12.548,9.939,18.343,15.429
		C648.38,34.702,649.391,33.224,650.391,31.743z"/>
	<path d="M619.714,37.438c-1.244,2.152-2.471,4.316-3.74,6.454c1.889-1.171,3.812-2.494,5.757-3.914
		C621.06,39.131,620.381,38.289,619.714,37.438z"/>
	<path d="M623.214,38.905v2.939c3.641,4.56,7.336,9.076,11.083,13.546c4.36-6.413,8.733-12.81,13.079-19.209
		c-5.794-5.489-11.968-10.577-18.343-15.429c-3.002,5.631-6.134,11.176-9.319,16.686c0.667,0.85,1.346,1.692,2.018,2.54
		C622.226,39.616,622.715,39.284,623.214,38.905z"/>
	<path d="M626.356,67.175c-1.045-1.527-2.091-3.053-3.142-4.578v9.241C624.251,70.275,625.311,68.733,626.356,67.175z"/>
	<path d="M634.296,55.391c-3.747-4.471-7.442-8.986-11.083-13.546v20.752c1.051,1.525,2.097,3.051,3.142,4.578
		C628.995,63.24,631.635,59.306,634.296,55.391z"/>
	<path d="M650.391,78.966v-4.918c-5.44-6.14-10.814-12.354-16.095-18.657c-2.662,3.915-5.301,7.85-7.94,11.784
		c4.835,7.065,9.602,14.16,14.261,21.299C643.908,85.344,647.175,82.185,650.391,78.966z"/>
	<path d="M626.356,67.175c-1.045,1.559-2.105,3.101-3.142,4.663v31.512h1.199c5.48-4.854,10.882-9.816,16.204-14.876
		C635.958,81.335,631.191,74.24,626.356,67.175z"/>
	<path d="M650.391,39.104c-0.992-0.988-1.999-1.96-3.016-2.922c-4.346,6.399-8.719,12.796-13.079,19.209
		c5.281,6.303,10.655,12.518,16.095,18.657V39.104z"/>
	<path d="M650.391,31.743c-1,1.481-2.011,2.959-3.016,4.439c1.017,0.962,2.023,1.934,3.016,2.922V31.743z"/>
	<path d="M650.391,103.35V78.966c-3.216,3.219-6.483,6.378-9.774,9.508c3.223,4.937,6.393,9.895,9.494,14.876H650.391z"/>
	<path d="M650.11,103.35c-3.101-4.981-6.271-9.939-9.494-14.876c-5.322,5.06-10.723,10.022-16.204,14.876H650.11z"/>
	<path d="M613.784,22.169c-1.202,0.835-2.494,1.643-3.877,2.425c0.407,0.548,0.823,1.09,1.232,1.637
		C612.02,24.877,612.897,23.521,613.784,22.169z"/>
	<path d="M611.139,26.231c-0.409-0.547-0.825-1.089-1.232-1.637c-2.937,1.661-6.305,3.197-10.065,4.619
		c1.636,2.322,3.273,4.645,4.912,6.969C606.861,32.854,608.988,29.536,611.139,26.231z"/>
	<path d="M594.981,52.085c3.166-5.356,6.44-10.646,9.772-15.903c-1.639-2.325-3.276-4.647-4.912-6.969
		c-1.557,0.588-3.161,1.163-4.86,1.71V52.085z"/>
	<path d="M747.918,22.858c-1.348,0.882-2.812,1.731-4.368,2.552c2.782,3.063,5.486,6.191,8.13,9.369
		c0.716-1.572,1.418-3.149,2.097-4.735C751.793,27.674,749.836,25.282,747.918,22.858z"/>
	<path d="M730.141,30.923v22.032c6.201-1.89,11.356-3.869,15.468-5.937c0.042-0.021,0.083-0.046,0.125-0.067
		c2.091-4.012,4.076-8.069,5.946-12.172c-2.644-3.177-5.348-6.305-8.13-9.369C739.717,27.433,735.261,29.274,730.141,30.923z"/>
	<path d="M761.561,8.341c-2.654,4.619-6.018,8.614-10.113,11.962c-1.077,0.88-2.268,1.729-3.529,2.555
		c1.918,2.424,3.875,4.816,5.858,7.186C756.81,22.966,759.463,15.746,761.561,8.341z"/>
	<path d="M758.374,59.839c1.991-3.084,3.886-6.245,5.744-9.434c-1.897-2.468-3.813-4.925-5.744-7.371V59.839z"/>
	<path d="M753.776,30.044c-0.679,1.586-1.381,3.163-2.097,4.735c1.555,1.868,3.093,3.75,4.61,5.646
		c0.693-0.5,1.383-0.988,2.084-1.521v4.129c1.931,2.446,3.847,4.903,5.744,7.371c0.985-1.691,1.977-3.378,2.934-5.092
		C762.556,40.271,758.102,35.209,753.776,30.044z"/>
	<path d="M745.733,46.951c3.418-1.728,6.941-3.919,10.557-6.526c-1.518-1.897-3.056-3.778-4.61-5.646
		C749.81,38.882,747.824,42.939,745.733,46.951z"/>
	<path d="M778.321,24.039c-4.65-6.601-9.598-12.992-14.93-19.039h-0.07c-0.543,1.152-1.139,2.258-1.761,3.341
		c-2.098,7.405-4.751,14.625-7.784,21.703c4.325,5.165,8.779,10.228,13.275,15.27C770.956,38.334,774.65,31.193,778.321,24.039z"/>
	<path d="M785.551,10.048V5h-22.159c5.332,6.047,10.279,12.438,14.93,19.039C780.722,19.363,783.113,14.686,785.551,10.048z"/>
	<path d="M758.374,59.839v24.838c5.772-6.443,11.396-13.086,16.651-20.008c-3.637-4.738-7.252-9.51-10.907-14.264
		C762.26,53.594,760.365,56.755,758.374,59.839z"/>
	<path d="M767.052,45.313c-0.957,1.713-1.948,3.401-2.934,5.092c3.655,4.754,7.271,9.525,10.907,14.264
		c1.423-1.874,2.834-3.76,4.195-5.679C775.181,54.402,771.106,49.861,767.052,45.313z"/>
	<path d="M785.551,49.48V34.777c-2.344-3.619-4.742-7.209-7.229-10.738c-3.671,7.154-7.365,14.295-11.27,21.274
		c4.055,4.547,8.129,9.089,12.169,13.677C781.424,55.885,783.544,52.719,785.551,49.48z"/>
	<path d="M785.551,10.048c-2.438,4.638-4.829,9.315-7.229,13.991c2.487,3.529,4.886,7.119,7.229,10.738V10.048z"/>
	<path d="M758.374,84.677v15.076c8.347-8.348,16.19-17.134,23.292-26.544c-2.233-2.821-4.441-5.675-6.641-8.54
		C769.77,71.591,764.146,78.233,758.374,84.677z"/>
	<path d="M785.551,66.299c-2.093-2.456-4.202-4.892-6.33-7.309c-1.361,1.919-2.772,3.805-4.195,5.679
		c2.199,2.865,4.407,5.719,6.641,8.54c1.318-1.747,2.62-3.508,3.885-5.3V66.299z"/>
	<path d="M785.551,49.48c-2.007,3.239-4.127,6.405-6.33,9.51c2.128,2.417,4.237,4.853,6.33,7.309V49.48z"/>
	<path d="M781.666,73.209c1.283,1.621,2.582,3.225,3.885,4.822V67.909C784.286,69.701,782.984,71.462,781.666,73.209z"/>
	<path d="M758.374,99.753v3.597h27.177V78.031c-1.303-1.598-2.602-3.201-3.885-4.822C774.564,82.619,766.721,91.405,758.374,99.753z"
		/>
	<path d="M846.087,6.004c-4.206,0.852-8.042,2.237-11.479,4.19c-0.398,1.866-0.812,3.73-1.214,5.595
		c3.379,3.811,6.731,7.644,10.052,11.503C844.551,20.224,845.451,13.127,846.087,6.004z"/>
	<path d="M843.446,27.293c-3.32-3.859-6.673-7.692-10.052-11.503c-3.229,14.963-6.573,29.903-9.856,44.867
		c3.105,4.603,6.429,9.093,9.889,13.51C837.471,58.676,840.986,43.053,843.446,27.293z"/>
	<path d="M823.538,60.656c-1.532,6.979-3.055,13.962-4.54,20.957c0.361,0.909,0.742,1.795,1.15,2.642
		c2.087,4.317,4.601,7.917,7.524,10.832c2.002-6.945,3.926-13.921,5.754-20.921C829.967,69.749,826.644,65.259,823.538,60.656z"/>
	<path d="M865.828,31.715l11.513-1.421c-5.358-4.206-10.666-8.458-15.907-12.78c-0.053,1.831-0.107,3.663-0.161,5.493
		c0.354,0.243,0.703,0.49,1.027,0.792C863.947,25.339,865.124,27.978,865.828,31.715z"/>
	<path d="M888.149,28.958c0.417-2.729,0.833-5.458,1.246-8.191c-1.053-1.936-2.234-3.712-3.581-5.28
		c-2.947-3.43-6.651-6.035-11.115-7.817c-3.376-1.347-7.679-2.183-12.903-2.511c-0.129,4.12-0.244,8.236-0.362,12.354
		c5.241,4.321,10.549,8.574,15.907,12.78L888.149,28.958z"/>
	<path d="M889.396,20.768c-0.413,2.733-0.829,5.462-1.246,8.191l4.395-0.542C891.708,25.6,890.646,23.066,889.396,20.768z"/>
	<path d="M846.038,28.087c2.418-4.397,5.805-6.596,10.159-6.596c1.943,0,3.628,0.521,5.075,1.517c0.054-1.83,0.108-3.663,0.161-5.493
		c-4.706-3.88-9.382-7.791-14.013-11.745c-0.445,0.078-0.896,0.146-1.334,0.234c-0.636,7.124-1.536,14.22-2.641,21.289
		c0.642,0.746,1.282,1.492,1.922,2.24C845.585,28.992,845.806,28.504,846.038,28.087z"/>
	<path d="M860.754,38.977c-2.289,0.199-4.415,0.638-6.39,1.3c2.028,2.468,4.039,4.952,6.03,7.451
		C860.527,44.812,860.646,41.895,860.754,38.977z"/>
	<path d="M857.187,88.223c-0.155,0.007-0.304,0.023-0.461,0.023c-3.825,0-7.059-1.484-9.698-4.452
		c-2.637-2.969-3.958-7.071-3.958-12.305c0-5.144,1.265-9.102,3.794-11.872c2.527-2.771,5.662-4.156,9.4-4.156
		c1.314,0,2.552,0.193,3.713,0.564c0.155-2.764,0.292-5.53,0.418-8.298c-1.991-2.499-4.002-4.982-6.03-7.451
		c-0.798,0.267-1.576,0.561-2.321,0.904c-3.389,1.562-6.688,3.97-9.896,7.224c0.726-9.012,1.801-15.297,3.221-18.871
		c-0.64-0.748-1.28-1.494-1.922-2.24c-2.46,15.76-5.976,31.383-10.02,46.873c6.97,8.902,14.5,17.513,22.025,26.142
		C856.094,96.286,856.688,92.26,857.187,88.223z"/>
	<path d="M833.427,74.166c-1.828,7-3.752,13.976-5.754,20.921c1.978,1.97,4.135,3.637,6.493,4.966
		c5.28,2.978,12.137,4.599,20.538,4.887c0.271-1.541,0.501-3.088,0.748-4.632C847.927,91.679,840.396,83.068,833.427,74.166z"/>
	<path d="M861.796,5.16C860.113,5.054,858.338,5,856.462,5c-3.193,0-6.194,0.275-9.041,0.77c4.631,3.954,9.307,7.864,14.013,11.745
		C861.552,13.396,861.667,9.28,861.796,5.16z"/>
	<path d="M885.375,47.814c-5.911-5.973-13.104-8.975-21.591-8.975c-1.04,0-2.047,0.051-3.03,0.138
		c-0.107,2.918-0.227,5.835-0.359,8.75c7.597,9.53,14.901,19.305,21.795,29.419C882.895,67.286,884.03,57.529,885.375,47.814z"/>
	<path d="M877.535,100.943c1.299-0.656,2.523-1.392,3.685-2.201c0.311-4.561,0.495-9.161,0.495-13.849
		c0.118-2.592,0.29-5.17,0.475-7.747c-6.894-10.114-14.198-19.89-21.795-29.419c-0.126,2.768-0.263,5.535-0.418,8.298
		c2.061,0.66,3.882,1.897,5.455,3.724c2.463,2.859,3.695,7.015,3.695,12.466c0,5.322-1.188,9.323-3.563,12.006
		c-2.268,2.562-5.065,3.889-8.377,4.002c-0.499,4.037-1.093,8.063-1.734,12.085c1.349,1.547,2.696,3.098,4.042,4.647
		C866.633,104.741,872.656,103.414,877.535,100.943z"/>
	<path d="M855.452,100.308c-0.247,1.544-0.478,3.091-0.748,4.632c0.901,0.031,1.808,0.061,2.747,0.061
		c0.695,0,1.367-0.023,2.043-0.045C858.148,103.405,856.801,101.854,855.452,100.308z"/>
	<path d="M890.07,88.972c0.008-0.013,0.014-0.026,0.021-0.04c-0.031,0.032-0.062,0.064-0.093,0.095
		c0.007,0.01,0.013,0.019,0.018,0.028C890.033,89.025,890.053,89.001,890.07,88.972z"/>
	<path d="M890.092,88.932c2.996-5.269,4.495-11.081,4.495-17.442c0-5.226-0.943-9.927-2.764-14.145
		c-0.223,0.268-0.445,0.535-0.668,0.802c0.223-0.267,0.445-0.534,0.668-0.802c-1.474-3.414-3.508-6.517-6.174-9.271
		c-0.089-0.092-0.186-0.169-0.274-0.26c-1.345,9.715-2.48,19.472-3.186,29.333c2.664,3.909,5.276,7.862,7.81,11.88
		C890.03,88.996,890.061,88.964,890.092,88.932z"/>
	<path d="M890.017,89.055c-0.005-0.01-0.011-0.019-0.018-0.028c-1.188,1.246-2.38,2.491-3.564,3.734
		c1.185-1.243,2.376-2.488,3.564-3.734c-2.533-4.018-5.146-7.971-7.81-11.88c-0.185,2.577-0.356,5.155-0.475,7.747
		c0,4.688-0.185,9.288-0.495,13.849C884.811,96.24,887.742,93.009,890.017,89.055z"/>
	<path d="M834.608,10.194c-1.358,0.772-2.645,1.649-3.883,2.591c0.892,1,1.781,2.002,2.669,3.004
		C833.797,13.924,834.21,12.061,834.608,10.194z"/>
	<path d="M833.395,15.79c-0.888-1.002-1.777-2.005-2.669-3.004c-1.713,1.303-3.325,2.75-4.806,4.385
		c-6.093,6.73-9.649,16.688-10.688,29.849c2.53,4.672,5.317,9.208,8.306,13.637C826.821,45.692,830.165,30.752,833.395,15.79z"/>
	<path d="M815.232,47.019c-0.214,2.703-0.329,5.533-0.329,8.508c0,10.524,1.369,19.215,4.095,26.086
		c1.485-6.995,3.008-13.979,4.54-20.957C820.55,56.227,817.763,51.691,815.232,47.019z"/>
	<path d="M926.632,6.648c1.18,1.553,2.391,3.077,3.631,4.569c1.269-1.523,2.538-3.046,3.808-4.569H926.632z"/>
	<path d="M930.263,11.217c-1.24-1.492-2.451-3.016-3.631-4.569h-10.869l-3.096,18.913c1.102,0.941,2.18,1.895,3.275,2.838
		C920.717,22.672,925.49,16.945,930.263,11.217z"/>
	<path d="M915.942,28.4c-1.096-0.944-2.174-1.897-3.275-2.838l-1.38,8.426C912.839,32.125,914.391,30.262,915.942,28.4z"/>
	<path d="M969.659,6.648h-3.518c-6.076,7.249-12.307,14.387-18.647,21.438h9.904C961.529,20.985,965.613,13.837,969.659,6.648z"/>
	<path d="M979.548,6.648h-9.889c-4.046,7.188-8.13,14.337-12.261,21.438h22.149V6.648z"/>
	<path d="M934.35,42.459c-0.104,0.048-0.209,0.089-0.315,0.139l2.308-14.512h10.29c-5.829-5.26-11.337-10.824-16.369-16.87
		c-4.772,5.728-9.546,11.455-14.32,17.183c5.848,5.031,11.62,10.1,17.336,15.196C933.634,43.215,933.994,42.841,934.35,42.459z"/>
	<path d="M933.278,43.596C927.562,38.5,921.79,33.431,915.942,28.4c-1.552,1.862-3.104,3.726-4.655,5.587l-3.242,19.803
		c1.439,1.858,2.878,3.723,4.325,5.575l5.316,0.767C922.907,54.654,928.111,49.143,933.278,43.596z"/>
	<path d="M907.254,58.628l5.116,0.737c-1.447-1.853-2.886-3.717-4.325-5.575L907.254,58.628z"/>
	<path d="M946.632,28.087h0.862c6.341-7.051,12.571-14.189,18.647-21.438H934.07c-1.27,1.522-2.539,3.046-3.808,4.569
		C935.295,17.263,940.803,22.827,946.632,28.087z"/>
	<path d="M903.757,78.284c1.318,4.529,2.969,8.312,4.947,11.345c1.813,2.781,4.158,5.281,6.985,7.522
		c4.148-6.685,8.281-13.389,12.398-20.104c-0.456-0.418-0.906-0.845-1.354-1.273L903.757,78.284z"/>
	<path d="M926.733,75.773c0.448,0.429,0.898,0.855,1.354,1.273c0.314-0.51,0.629-1.016,0.94-1.524L926.733,75.773z"/>
	<path d="M951.375,38.383c-2.793,0.017-5.615,0.363-8.469,1.049c-2.822,0.679-5.675,1.693-8.557,3.027
		c-0.355,0.382-0.716,0.755-1.071,1.136c3.272,2.919,6.532,5.846,9.769,8.782C945.834,47.725,948.614,43.063,951.375,38.383z"/>
	<path d="M936.078,56.913c1.724-0.909,3.494-1.479,5.307-1.74c0.558-0.928,1.106-1.866,1.662-2.795
		c-3.236-2.937-6.496-5.863-9.769-8.782c-5.167,5.547-10.371,11.059-15.592,16.536l12.454,1.795
		C932.295,59.508,934.274,57.837,936.078,56.913z"/>
	<path d="M946.262,88.468c-0.316,0.049-0.638,0.087-0.962,0.118c0.207,0.115,0.415,0.231,0.622,0.347
		C946.034,88.777,946.149,88.623,946.262,88.468z"/>
	<path d="M930.934,75.315l-1.905,0.207c-0.312,0.509-0.626,1.015-0.94,1.524c1.403,1.276,2.85,2.49,4.341,3.643
		C931.744,79.119,931.239,77.334,930.934,75.315z"/>
	<path d="M945.3,88.586c-0.362,0.032-0.729,0.054-1.106,0.054c-3.343,0-6.224-1.131-8.643-3.396c-1.297-1.214-2.332-2.74-3.122-4.555
		c-1.491-1.152-2.938-2.366-4.341-3.643c-4.117,6.716-8.25,13.42-12.398,20.104c0.26,0.206,0.497,0.423,0.765,0.624
		c3.188,2.399,7.059,4.2,11.609,5.411c1.978,0.525,4.161,0.914,6.484,1.211c3.833-5.141,7.636-10.288,11.374-15.465
		C945.715,88.817,945.507,88.701,945.3,88.586z"/>
	<path d="M984.111,71.007c0.027-0.585,0.055-1.171,0.055-1.761c0-5.14-1.041-9.753-3.059-13.878
		c-2.953-2.206-5.903-4.402-8.838-6.604c-3.781,6.597-7.798,13.062-11.989,19.438c5.258,4.888,10.495,9.784,15.703,14.696
		C978.758,78.982,981.488,75.035,984.111,71.007z"/>
	<path d="M945.922,88.933c-3.738,5.177-7.541,10.324-11.374,15.465c3.021,0.387,6.303,0.603,9.908,0.603
		c6.45,0,12.049-0.812,16.818-2.412c0.779-0.994,1.532-2.009,2.304-3.009C957.86,95.887,951.986,92.321,945.922,88.933z"/>
	<path d="M975.983,82.897c-5.208-4.912-10.445-9.809-15.703-14.696c-1.057,1.609-2.117,3.215-3.196,4.811
		c-0.181,4.968-1.379,8.768-3.624,11.375c-1.975,2.294-4.379,3.642-7.198,4.081c-0.112,0.155-0.228,0.31-0.34,0.465
		c6.064,3.389,11.938,6.954,17.656,10.646C967.816,94.096,971.975,88.552,975.983,82.897z"/>
	<path d="M975.129,47.15c-0.412-0.399-0.853-0.751-1.281-1.123c-0.515,0.918-1.055,1.823-1.578,2.736
		c2.935,2.203,5.885,4.399,8.838,6.604C979.639,52.365,977.667,49.615,975.129,47.15z"/>
	<path d="M984.111,71.007c-2.623,4.028-5.354,7.976-8.128,11.891c1.296,1.224,2.587,2.448,3.881,3.673
		C982.44,81.562,983.859,76.377,984.111,71.007z"/>
	<path d="M966.322,100.449c5.696-3.036,10.094-7.434,13.194-13.192c0.123-0.228,0.229-0.458,0.348-0.687
		c-1.294-1.225-2.585-2.449-3.881-3.673c-4.009,5.654-8.167,11.198-12.405,16.682c0.646,0.418,1.303,0.828,1.944,1.249
		C965.785,100.697,966.065,100.586,966.322,100.449z"/>
	<path d="M965.522,100.828c-0.642-0.421-1.298-0.831-1.944-1.249c-0.771,1-1.524,2.015-2.304,3.009
		C962.777,102.084,964.183,101.487,965.522,100.828z"/>
	<path d="M946.154,55.204c-1.034-0.942-2.068-1.884-3.107-2.826c-0.556,0.929-1.104,1.867-1.662,2.795
		c0.731-0.105,1.469-0.173,2.214-0.173C944.492,55,945.34,55.076,946.154,55.204z"/>
	<path d="M957.084,73.012c1.079-1.596,2.14-3.201,3.196-4.811c-1.335-1.239-2.675-2.479-4.013-3.717
		c0.563,2.052,0.854,4.447,0.854,7.205C957.121,72.144,957.1,72.576,957.084,73.012z"/>
	<path d="M953.428,59.024c1.283,1.397,2.225,3.225,2.84,5.46c1.338,1.238,2.678,2.478,4.013,3.717
		c4.191-6.375,8.208-12.841,11.989-19.438c-4.19-3.146-8.342-6.312-12.41-9.542c-2.597-0.544-5.344-0.845-8.278-0.845
		c-0.069,0-0.139,0.006-0.206,0.006c-2.761,4.68-5.541,9.342-8.328,13.995c1.039,0.941,2.073,1.883,3.107,2.826
		C949.073,55.663,951.501,56.927,953.428,59.024z"/>
	<path d="M973.848,46.027c-3.943-3.424-8.612-5.681-13.988-6.805c4.068,3.229,8.22,6.395,12.41,9.542
		C972.793,47.85,973.333,46.946,973.848,46.027z"/>
	<path d="M1080.335,5.438c-0.044-0.146-0.091-0.292-0.135-0.438c-13.54,0.001-23.619,3.674-30.233,11.015
		c-0.737,0.819-1.432,1.708-2.088,2.664c2.562,5.054,5.141,10.116,7.758,15.167C1064.301,24.655,1072.708,15.32,1080.335,5.438z"/>
	<path d="M1047.879,18.68c-4.727,6.896-7.311,17.365-7.761,31.392c5.19-5.413,10.398-10.794,15.519-16.225
		C1053.02,28.796,1050.441,23.734,1047.879,18.68z"/>
	<path d="M1080.676,5.007C1080.52,5.006,1080.369,5,1080.211,5c-0.004,0-0.007,0-0.011,0c0.044,0.146,0.091,0.292,0.135,0.438
		C1080.447,5.294,1080.564,5.153,1080.676,5.007z"/>
	<path d="M1118.391,42.805c-5.254,7.474-10.872,14.655-16.728,21.641c2.653,6.43,5.393,12.847,8.193,19.255
		c2.25-2.086,4.525-4.156,6.863-6.183c1.559-6.518,2.342-14.26,2.342-23.244C1119.062,50.375,1118.837,46.552,1118.391,42.805z"/>
	<path d="M1064.815,103.108c1.82,0.55,3.811,0.96,5.918,1.272c-1.163-1.2-2.327-2.401-3.489-3.604
		C1066.43,101.551,1065.634,102.339,1064.815,103.108z"/>
	<path d="M1086.986,104.591c2.692-2.223,5.274-4.519,7.824-6.836c-3.295-4.219-6.447-8.556-9.489-12.982
		c-1.066,0.767-2.219,1.301-3.464,1.598c-4.758,4.898-9.648,9.683-14.613,14.406c1.162,1.203,2.326,2.404,3.489,3.604
		c2.688,0.396,5.585,0.619,8.752,0.619C1082.13,105,1084.626,104.861,1086.986,104.591z"/>
	<path d="M1101.663,64.446c-3.757,4.481-7.592,8.899-11.558,13.209c-0.905,2.663-2.104,4.709-3.596,6.139
		c-0.382,0.363-0.78,0.685-1.188,0.979c3.042,4.427,6.194,8.764,9.489,12.982c5.095-4.632,10.008-9.384,15.046-14.054
		C1107.056,77.293,1104.316,70.876,1101.663,64.446z"/>
	<path d="M1116.72,77.519c-2.338,2.026-4.613,4.097-6.863,6.183c0.822,1.881,1.646,3.762,2.479,5.641
		C1114.173,85.997,1115.637,82.059,1116.72,77.519z"/>
	<path d="M1094.811,97.755c-2.55,2.317-5.132,4.613-7.824,6.836c4.165-0.476,7.87-1.391,11.148-2.707
		C1097.017,100.517,1095.898,99.148,1094.811,97.755z"/>
	<path d="M1109.856,83.701c-5.038,4.67-9.951,9.422-15.046,14.054c1.088,1.394,2.206,2.762,3.324,4.129
		c5.057-2.034,9.076-5.052,12.021-9.087c0.779-1.067,1.503-2.225,2.179-3.455C1111.502,87.463,1110.679,85.582,1109.856,83.701z"/>
	<path d="M1118.391,42.805c-0.452-3.774-1.128-7.471-2.033-11.09c-0.568-2.332-1.266-4.463-2.061-6.436
		c-6.745,6.396-13.893,12.27-20.975,18.128c2.668,7.036,5.455,14.045,8.341,21.04C1107.519,57.46,1113.137,50.279,1118.391,42.805z"
		/>
	<path d="M1093.322,43.407c-0.438,0.362-0.875,0.725-1.312,1.086c0.22,3.219,0.335,6.836,0.335,10.902
		c0,8.751-0.474,15.194-1.417,19.328c-0.239,1.049-0.516,2.026-0.823,2.933c3.966-4.31,7.801-8.728,11.558-13.209
		C1098.777,57.452,1095.99,50.442,1093.322,43.407z"/>
	<path d="M1093.322,43.407c7.082-5.858,14.229-11.732,20.975-18.128c-0.494-1.226-1.019-2.405-1.6-3.492
		c-0.771-1.442-1.691-2.849-2.753-4.223c-6.415,5.28-12.968,10.462-19.546,15.636c0.38,1.437,0.704,3.097,0.972,4.971
		C1092.016,39.918,1092.662,41.664,1093.322,43.407z"/>
	<path d="M1093.322,43.407c-0.66-1.743-1.307-3.489-1.952-5.235c0.271,1.89,0.483,3.999,0.641,6.322
		C1092.447,44.131,1092.885,43.769,1093.322,43.407z"/>
	<path d="M1066.703,52.063c-0.31,0.254-0.612,0.513-0.923,0.766c0.304,0.548,0.603,1.101,0.908,1.648
		C1066.689,53.655,1066.694,52.851,1066.703,52.063z"/>
	<path d="M1067.244,100.776c4.965-4.724,9.855-9.508,14.613-14.406c-0.78,0.186-1.59,0.29-2.439,0.29
		c-4.133,0-7.289-2.252-9.465-6.76c-1.332-2.755-2.254-6.976-2.771-12.646c-5.181,5.688-9.854,11.856-13.739,18.806
		C1057.92,91.061,1062.567,95.938,1067.244,100.776z"/>
	<path d="M1067.183,67.254c-0.33-3.608-0.496-7.797-0.496-12.584c0-0.066,0.002-0.127,0.002-0.192
		c-0.306-0.547-0.604-1.1-0.908-1.648c-7.975,6.556-15.754,13.279-23.124,20.341c3.416,4.421,7.039,8.701,10.787,12.89
		C1057.328,79.11,1062.002,72.941,1067.183,67.254z"/>
	<path d="M1053.443,86.06c-1.204,2.157-2.338,4.384-3.381,6.701C1051.105,90.443,1052.239,88.217,1053.443,86.06
		c-3.748-4.188-7.371-8.469-10.787-12.89c-0.287,0.275-0.584,0.543-0.869,0.819c0.07,0.359,0.121,0.739,0.196,1.096
		c1.297,6.18,3.109,11.05,5.442,14.611c3.211,5.013,7.322,8.816,12.334,11.41c1.534,0.794,3.23,1.45,5.056,2.002
		c0.818-0.77,1.614-1.558,2.429-2.332C1062.567,95.938,1057.92,91.061,1053.443,86.06z"/>
	<path d="M1089.082,29.505c0.496,1.009,0.935,2.248,1.316,3.695c6.578-5.174,13.131-10.356,19.546-15.636
		c-1.026-1.328-2.185-2.625-3.481-3.89c-2.637-2.573-6.048-4.661-10.224-6.267c-4.078-1.565-9.271-2.362-15.563-2.4
		c-0.111,0.146-0.229,0.287-0.341,0.431c2.136,7.069,4.421,14.104,6.853,21.105C1087.89,27.387,1088.522,28.37,1089.082,29.505z"/>
	<path d="M1065.78,52.829c-3.476-6.272-6.844-12.614-10.144-18.983c-5.12,5.431-10.328,10.812-15.519,16.225
		c-0.048,1.476-0.08,2.977-0.08,4.532c0,6.074,0.47,11.678,1.329,16.889c0.426,0.562,0.859,1.12,1.289,1.678
		C1050.026,66.108,1057.806,59.385,1065.78,52.829z"/>
	<path d="M1042.656,73.17c-0.43-0.558-0.863-1.115-1.289-1.678c0.139,0.835,0.262,1.685,0.42,2.497
		C1042.072,73.713,1042.369,73.445,1042.656,73.17z"/>
	<path d="M1066.703,52.063c0.136-10.768,1.117-18.249,2.952-22.426c1.979-4.507,5.19-6.761,9.63-6.761
		c3.236,0,5.868,1.226,7.902,3.667c-2.432-7.001-4.717-14.036-6.853-21.105c-7.627,9.882-16.034,19.216-24.698,28.408
		c3.3,6.369,6.668,12.711,10.144,18.983C1066.091,52.576,1066.394,52.317,1066.703,52.063z"/>
	<path d="M1162.07,6.648h-6.861c0.422,1.545,0.846,3.09,1.271,4.638C1158.329,9.723,1160.189,8.172,1162.07,6.648z"/>
	<path d="M1156.479,11.286c-0.425-1.547-0.849-3.093-1.271-4.638h-14.182l-2.365,14.449c0.544,1.672,1.086,3.344,1.618,5.019
		C1145.487,20.917,1150.904,15.996,1156.479,11.286z"/>
	<path d="M1140.28,26.116c-0.532-1.675-1.074-3.347-1.618-5.019l-1.303,7.96C1138.319,28.06,1139.303,27.092,1140.28,26.116z"/>
	<path d="M1204.814,14.866c-0.628-0.936-1.252-1.875-1.871-2.818c-3.168,5.4-6.381,10.754-9.68,16.039h11.551V14.866z"/>
	<path d="M1204.814,8.878c-0.617,1.063-1.25,2.111-1.871,3.17c0.619,0.942,1.243,1.882,1.871,2.818V8.878z"/>
	<path d="M1199.449,6.648h-18.529c-0.399,0.83-0.819,1.644-1.242,2.455c3.512,6.343,7.059,12.667,10.623,18.984h2.963
		c3.299-5.284,6.512-10.639,9.68-16.039C1201.765,10.258,1200.599,8.46,1199.449,6.648z"/>
	<path d="M1179.678,9.103c-3.607,6.905-8.04,13.131-12.913,18.984h23.536C1186.736,21.77,1183.189,15.446,1179.678,9.103z"/>
	<path d="M1204.814,8.878v-2.23h-5.365c1.149,1.812,2.315,3.61,3.494,5.4C1203.564,10.99,1204.197,9.942,1204.814,8.878z"/>
	<path d="M1180.92,6.648h-2.591c0.45,0.817,0.897,1.638,1.349,2.455C1180.101,8.292,1180.521,7.478,1180.92,6.648z"/>
	<path d="M1178.329,6.648h-16.259c-1.881,1.523-3.741,3.074-5.591,4.638c1.622,5.912,3.27,11.832,4.979,17.743l0.15-0.942h5.155
		c4.873-5.853,9.306-12.079,12.913-18.984C1179.227,8.286,1178.779,7.466,1178.329,6.648z"/>
	<path d="M1160.471,35.236l0.988-6.207c-1.71-5.912-3.357-11.832-4.979-17.743c-5.575,4.71-10.992,9.631-16.199,14.83
		c2.412,7.6,4.7,15.228,6.898,22.878C1151.641,44.454,1156.145,39.926,1160.471,35.236z"/>
	<path d="M1140.28,26.116c-0.978,0.976-1.961,1.943-2.921,2.941l-4.842,29.571l4.788,0.689c3.194-3.503,6.523-6.916,9.873-10.323
		C1144.98,41.344,1142.692,33.716,1140.28,26.116z"/>
	<path d="M1157.429,80.052c-0.55-1.411-0.965-2.985-1.23-4.736l-1.706,0.186c0.554,2.071,1.102,4.146,1.65,6.219
		C1156.566,81.163,1157.006,80.61,1157.429,80.052z"/>
	<path d="M1154.492,75.501l-25.471,2.783c1.32,4.529,2.968,8.312,4.947,11.345c1.979,3.036,4.562,5.753,7.753,8.146
		c0.375,0.282,0.792,0.528,1.186,0.796c4.531-5.604,8.937-11.218,13.235-16.852C1155.594,79.646,1155.046,77.572,1154.492,75.501z"/>
	<path d="M1176.845,38.377c-2.857,0-5.749,0.353-8.672,1.056c-1.102,0.265-2.209,0.596-3.321,0.961
		c1.512,4.902,3.094,9.785,4.766,14.642c1.892,0.083,3.607,0.458,5.135,1.143c3.85-5.543,7.604-11.13,11.276-16.767
		C1183.171,38.741,1180.121,38.377,1176.845,38.377z"/>
	<path d="M1137.306,59.317l13.318,1.919c-1.128-4.085-2.274-8.167-3.445-12.242C1143.829,52.401,1140.5,55.814,1137.306,59.317z"/>
	<path d="M1161.345,56.913c2.419-1.275,4.923-1.913,7.52-1.913c0.259,0,0.501,0.024,0.753,0.036
		c-1.672-4.857-3.254-9.74-4.766-14.642c-1.84,0.604-3.689,1.329-5.553,2.205l1.172-7.363c-4.326,4.69-8.83,9.218-13.292,13.758
		c1.171,4.075,2.317,8.157,3.445,12.242l4.784,0.69C1157.562,59.508,1159.541,57.837,1161.345,56.913z"/>
	<path d="M1180.266,82.104c-0.446,0.839-0.956,1.604-1.54,2.283c-2.44,2.836-5.531,4.253-9.268,4.253
		c-3.344,0-6.223-1.131-8.642-3.396c-1.445-1.354-2.57-3.09-3.388-5.192c-0.423,0.559-0.862,1.111-1.286,1.668
		c2.018,7.634,4.012,15.279,6.014,22.932c2.371,0.216,4.869,0.349,7.565,0.349c0.479,0,0.936-0.021,1.404-0.031
		c3.575-6.121,7.429-12.105,11.351-18.055C1181.716,85.319,1180.988,83.712,1180.266,82.104z"/>
	<path d="M1142.907,98.571c2.953,1.993,6.409,3.548,10.424,4.615c2.626,0.698,5.593,1.17,8.825,1.465
		c-2.002-7.652-3.996-15.298-6.014-22.932C1151.844,87.354,1147.438,92.968,1142.907,98.571z"/>
	<path d="M1202.156,49.059c-0.562-0.648-1.129-1.294-1.761-1.908c-3.985-3.868-8.785-6.429-14.367-7.738
		c-3.672,5.636-7.427,11.223-11.276,16.767c1.484,0.667,2.803,1.605,3.939,2.846c2.465,2.683,3.694,6.903,3.694,12.665
		c0,4.28-0.71,7.748-2.12,10.414c0.723,1.608,1.45,3.216,2.211,4.811c7.442-11.288,15.145-22.448,21.774-34.145
		C1203.554,51.532,1202.855,50.295,1202.156,49.059z"/>
	<path d="M1204.581,52.204c-0.721-1.091-1.546-2.132-2.425-3.145c0.699,1.237,1.397,2.473,2.095,3.71
		C1204.358,52.58,1204.474,52.394,1204.581,52.204z"/>
	<path d="M1186.31,102.653c1.267-0.413,2.458-0.898,3.612-1.42c-0.252-0.443-0.518-0.882-0.766-1.327
		C1188.221,100.834,1187.273,101.752,1186.31,102.653z"/>
	<path d="M1189.156,99.906c0.248,0.445,0.514,0.884,0.766,1.327c0.562-0.255,1.136-0.5,1.667-0.784
		c5.694-3.036,10.092-7.434,13.192-13.192c1.475-2.741,2.589-5.537,3.361-8.388C1201.898,86.027,1195.855,93.265,1189.156,99.906z"/>
	<path d="M1204.581,52.204c-0.107,0.19-0.223,0.376-0.33,0.565c1.246,2.211,2.49,4.426,3.735,6.642
		C1207.181,56.843,1206.057,54.436,1204.581,52.204z"/>
	<path d="M1171.126,104.969c5.759-0.108,10.813-0.887,15.184-2.315c0.964-0.901,1.911-1.819,2.847-2.747
		c-2.38-4.274-4.594-8.61-6.68-12.992C1178.555,92.863,1174.701,98.848,1171.126,104.969z"/>
	<path d="M1208.143,78.869c0.853-3.143,1.291-6.347,1.291-9.623c0-3.521-0.496-6.793-1.447-9.835
		c-1.245-2.216-2.489-4.431-3.735-6.642c-6.63,11.697-14.332,22.857-21.774,34.145c2.086,4.382,4.3,8.718,6.68,12.992
		C1195.855,93.265,1201.898,86.027,1208.143,78.869z"/>
	<path d="M1220.711,6.648V29.34h13.428c5.967-7.023,11.591-14.21,15.882-22.692H1220.711z"/>
	<path d="M1274.696,38.762c1.644,3.353,3.307,6.701,4.964,10.057c0.784-1.361,1.562-2.728,2.398-4.044
		c4.573-7.167,10.267-13.829,17.083-19.986V12.331C1290.899,21.09,1282.846,29.975,1274.696,38.762z"/>
	<path d="M1279.66,48.819c-1.657-3.355-3.32-6.704-4.964-10.057c-8.774,9.457-17.685,18.776-27.058,27.703
		c3.559,3.421,7.213,6.745,10.966,9.971c3.946-2.278,7.868-4.596,11.743-6.98C1272.855,62.071,1275.979,55.209,1279.66,48.819z"/>
	<path d="M1244.84,69.149c-1.905,5.316-3.548,11.186-4.943,17.579c6.308-3.29,12.544-6.733,18.708-10.293
		c-3.753-3.226-7.407-6.55-10.966-9.971C1246.702,67.358,1245.786,68.266,1244.84,69.149z"/>
	<path d="M1270.348,69.455c-3.875,2.385-7.797,4.702-11.743,6.98c2.617,2.246,5.278,4.448,7.991,6.593
		c0.681-3.231,1.455-6.293,2.336-9.163C1269.379,72.374,1269.854,70.907,1270.348,69.455z"/>
	<path d="M1239.896,86.729c-1.131,5.188-2.104,10.713-2.893,16.621h26.78c0.578-7.429,1.52-14.194,2.812-20.321
		c-2.713-2.145-5.374-4.347-7.991-6.593C1252.44,79.995,1246.204,83.438,1239.896,86.729z"/>
	<path d="M1272.126,6.648c-2.728,2.872-5.544,5.676-8.347,8.49c3.359,7.999,7.09,15.825,10.917,23.624
		c8.149-8.787,16.203-17.672,24.445-26.431V6.648H1272.126z"/>
	<path d="M1244.84,69.149c0.946-0.884,1.862-1.791,2.799-2.685c-0.436-0.418-0.869-0.839-1.303-1.26
		C1245.824,66.491,1245.323,67.802,1244.84,69.149z"/>
	<path d="M1274.696,38.762c-3.827-7.798-7.558-15.625-10.917-23.624c-4.572,4.592-9.106,9.212-13.148,14.202h17.84
		c-9.809,12.181-16.979,23.615-21.505,34.301c-0.215,0.508-0.421,1.04-0.63,1.563c0.434,0.421,0.867,0.842,1.303,1.26
		C1257.012,57.538,1265.922,48.219,1274.696,38.762z"/>
	<path d="M1263.779,15.139c-1.178-2.806-2.312-5.634-3.385-8.49h-10.374c-4.291,8.482-9.915,15.669-15.882,22.692h16.492
		C1254.673,24.351,1259.207,19.73,1263.779,15.139z"/>
	<path d="M1272.126,6.648h-11.731c1.072,2.856,2.207,5.684,3.385,8.49C1266.582,12.324,1269.398,9.52,1272.126,6.648z"/>
</svg>
