<?xml version="1.0" encoding="utf-8"?>
<!-- Generator: Adobe Illustrator 16.0.0, SVG Export Plug-In . SVG Version: 6.00 Build 0)  -->
<!DOCTYPE svg PUBLIC "-//W3C//DTD SVG 1.1//EN" "http://www.w3.org/Graphics/SVG/1.1/DTD/svg11.dtd">
<svg version="1.1" id="Capa_1" xmlns="http://www.w3.org/2000/svg" xmlns:xlink="http://www.w3.org/1999/xlink" x="0px" y="0px" width="181px" height="161px" viewBox="139.6 149.6 181 161" enable-background="new 139.6 149.6 181 161" xml:space="preserve">
	<path d="M259.4,286.9c9.6,1.2,19,2.9,28.5,4.6c0.2-0.4,0.3-0.7,0.4-1.1c-10.4-6.8-20.7-13.7-31.4-20.6
		C257.9,275.4,258.8,281.1,259.4,286.9z"/>
	<path d="M253.9,267.8c-2.7,6-5.4,11.9-8.3,17.8c0.4,0,0.7,0,1.1,0.1c4.3,0.3,8.5,0.7,12.7,1.2c-0.6-5.7-1.4-11.4-2.5-17.1
		C255.9,269.1,254.9,268.4,253.9,267.8z"/>
	<path d="M197.6,239.8c2.1-1.3,4.3-2.7,6.4-4c-2.4-0.4-4.8-0.8-7.1-1.2c0.1,1.3,0.3,2.6,0.5,3.9C197.4,238.9,197.5,239.4,197.6,239.8
		z"/>
	<path d="M208.9,237.1c-0.4-0.3-0.9-0.5-1.4-0.8c-1.2-0.2-2.3-0.4-3.5-0.6c-2.1,1.4-4.3,2.7-6.4,4c1,5.5,2.3,10.8,3.7,16.1
		C204.2,249.8,206.7,243.5,208.9,237.1z"/>
	<path d="M209,236.6c-0.5-0.1-1-0.2-1.5-0.2c0.5,0.2,0.9,0.5,1.4,0.8C208.9,236.9,209,236.8,209,236.6z"/>
	<path d="M204,235.8c0.4-0.2,0.7-0.5,1.1-0.7c-1.7-0.8-3.4-1.6-5.3-2.3c-1.1-0.4-2.2-0.7-3.3-1.1c0.1,0.9,0.2,1.9,0.3,2.8
		C199.2,235,201.6,235.4,204,235.8z"/>
	<path d="M227.6,235.2c-0.9,1.2-1.8,2.5-2.7,3.7c3.3,0.5,6.7,0.9,10,1.3c5.6,0.7,11.1,1.7,16.6,2.9c-1.8-8.2-3.5-16.5-5-24.8
		C241,224.8,234.8,230.6,227.6,235.2z"/>
	<path d="M271.5,225.5l-18.6-15.3c-2,2.8-4.1,5.6-6.4,8.2c1.5,8.3,3.2,16.5,5,24.8c3.9,0.9,7.8,1.8,11.7,2.8
		C266,239.1,268.7,232.3,271.5,225.5z"/>
	<path d="M226.6,220.4c-5.3,3.8-10.6,7.5-16,11.1c-0.5,1.7-1,3.4-1.6,5.1c5.3,0.8,10.6,1.6,15.9,2.4c0.9-1.2,1.8-2.5,2.7-3.7
		c0,0-0.1,0.1-0.1,0.1C227.2,230.3,226.9,225.4,226.6,220.4z"/>
	<path d="M196.5,231.7c-4-1.2-8.2-1.8-12.4-2.4l-2.9,2.4c5.2,1,10.4,1.9,15.7,2.8C196.7,233.6,196.6,232.7,196.5,231.7z"/>
	<path d="M205.1,235.1c-0.4,0.2-0.7,0.5-1.1,0.7c1.2,0.2,2.3,0.4,3.5,0.6C206.7,235.9,205.9,235.5,205.1,235.1z"/>
	<path d="M217.2,295.1v-11c-5.8-0.2-11.7-0.4-17.5-0.5c-1.4,3.8-2.6,7.6-3.6,11.6H217.2z"/>
	<path d="M171.8,288.7c0,1.8,0.6,3.3,1.9,4.6c1.3,1.3,2.8,1.9,4.6,1.9h17.8c1-3.9,2.2-7.8,3.6-11.6c-9.3-0.2-18.6-0.3-27.9-0.3V288.7
		z"/>
	<path d="M255.8,263.5c-1.3-6.8-2.8-13.6-4.3-20.4c-5.4-1.2-10.9-2.2-16.6-2.9c-3.4-0.4-6.7-0.9-10-1.3c-1.5,2-2.9,4.1-4.3,6.1
		c4.9,3.7,9.8,7.6,14.9,11.2h7.5v4.8c1.9,1.2,3.8,2.3,5.6,3.5c2.2-0.1,4.4-0.2,6.7-0.2C255.5,264,255.6,263.8,255.8,263.5z"/>
	<path d="M255.4,264.3c-2.2,0.1-4.4,0.2-6.7,0.2c1.7,1.1,3.4,2.2,5.1,3.2C254.4,266.6,254.9,265.4,255.4,264.3z"/>
	<path d="M263.2,245.9c-3.9-1-7.8-2-11.7-2.8c1.5,6.8,2.9,13.6,4.3,20.4C258.3,257.7,260.8,251.8,263.2,245.9z"/>
	<path d="M208.9,237.1c4.1,2.4,8,5.1,11.8,8c1.4-2,2.8-4.1,4.3-6.1c-5.3-0.7-10.6-1.5-15.9-2.4C209,236.8,208.9,236.9,208.9,237.1z"
		/>
	<path d="M209,236.6c0.6-1.7,1.1-3.4,1.6-5.1c-1.8,1.2-3.7,2.4-5.5,3.6c0.8,0.4,1.6,0.8,2.4,1.3C208,236.4,208.5,236.5,209,236.6z"/>
	<path d="M269,247c0,0.2-0.1,0.3-0.1,0.5c2.3,0.6,4.6,1.3,6.9,1.9c4.2-3.4,8.4-6.7,12.6-10l-16.5-13.6
		C271.1,232.8,270.3,239.8,269,247z"/>
	<path d="M230.1,191.4l-5.1,4.2c0.5,8.3,1.1,16.5,1.6,24.8c6.1-4.4,12.2-9,18.1-13.8c-0.1-1.2-0.3-2.4-0.4-3.5L230.1,191.4z"/>
	<path d="M244.3,203.1c0.1,1.2,0.2,2.4,0.4,3.5c0.7-0.5,1.3-1,2-1.6L244.3,203.1z"/>
	<path d="M240.3,218.3c-4.2,5.6-8.5,11.3-12.6,16.9c7.1-4.6,13.4-10.4,18.9-16.8c-0.5-2.6-0.9-5.2-1.3-7.9
		C243.8,213.1,242.2,215.7,240.3,218.3z"/>
	<path d="M247.7,205.9c-0.9,1.6-1.7,3.1-2.5,4.6c0.4,2.6,0.8,5.3,1.3,7.9c2.2-2.6,4.4-5.4,6.4-8.2L247.7,205.9z"/>
	<path d="M244.7,206.6c-5.9,4.8-11.9,9.4-18.1,13.8c0.3,5,0.6,9.9,0.9,14.9c0,0,0.1-0.1,0.1-0.1c4.1-5.7,8.4-11.3,12.6-16.9
		c2-2.6,3.5-5.1,5-7.8c-0.1-0.8-0.2-1.7-0.4-2.5C244.8,207.5,244.8,207.1,244.7,206.6z"/>
	<path d="M246.7,205c-0.7,0.5-1.3,1.1-2,1.6c0.1,0.5,0.1,0.9,0.2,1.4c0.1,0.8,0.2,1.7,0.4,2.5c0.8-1.5,1.7-3,2.5-4.6L246.7,205z"/>
	<path d="M225,195.6l-8.2,6.7c-1.4,9.9-3.4,19.6-6.2,29.1c5.4-3.6,10.7-7.3,16-11.1C226.1,212.1,225.5,203.9,225,195.6z"/>
	<path d="M197.3,238.5c-0.2-1.3-0.3-2.6-0.5-3.9c-5.2-0.9-10.5-1.8-15.7-2.8l-3.6,3c-0.8,2.9-1.7,5.8-2.6,8.7c-0.7,2.5-0.4,5-1.1,7.5
		c-0.7-2.1-1.4-4.2-2.1-6.3v10.1c8.7-4.7,17.3-9.6,25.8-14.9C197.5,239.4,197.4,238.9,197.3,238.5z"/>
	<path d="M265.8,257.7c3.3-2.8,6.6-5.6,10-8.3c-2.3-0.6-4.6-1.3-6.9-1.9C268.1,250.8,265.8,253.9,265.8,257.7z"/>
	<path d="M175,243.5c0.9-2.9,1.7-5.8,2.6-8.7l-5.6,4.7c0,0.1,0,0.2-0.1,0.3c0,0.1-0.1,0.2-0.1,0.3v4.6c0.7,2.1,1.4,4.2,2.1,6.3
		C174.6,248.4,174.3,245.9,175,243.5z"/>
	<path d="M195.2,220.2l-11.1,9.2c4.2,0.5,8.4,1.2,12.4,2.4C196.1,227.9,195.7,224.1,195.2,220.2z"/>
	<path d="M199.8,232.8c1.8,0.7,3.6,1.4,5.3,2.3c1.9-1.2,3.7-2.4,5.5-3.6c2.8-9.5,4.8-19.3,6.2-29.1l-21.7,17.8
		c0.6,3.9,0.9,7.7,1.3,11.5C197.6,232.1,198.7,232.4,199.8,232.8z"/>
	<path d="M288.4,239.4c-4.2,3.3-8.4,6.6-12.6,10c4.2,1.2,8.4,2.3,12.7,3.5V240C288.5,239.8,288.5,239.6,288.4,239.4L288.4,239.4z"/>
	<path d="M246.7,285.7c-0.4,0-0.7,0-1.1-0.1c-0.8,1.6-1.6,3.3-2.4,4.9v4.6H260c-0.2-2.8-0.4-5.5-0.7-8.3
		C255.1,286.4,250.9,285.9,246.7,285.7z"/>
	<path d="M259.4,286.9c0.3,2.8,0.5,5.5,0.7,8.3h22c1.8,0,3.3-0.6,4.6-1.9c0.5-0.5,1-1.1,1.3-1.8C278.4,289.7,268.9,288,259.4,286.9z"
		/>
	<path d="M255.4,264.3c-0.5,1.2-1,2.3-1.5,3.5c1,0.7,2,1.3,3,2c-0.3-1.8-0.7-3.6-1-5.5C255.7,264.3,255.6,264.3,255.4,264.3z"/>
	<path d="M255.8,263.5c-0.1,0.3-0.2,0.5-0.3,0.8c0.2,0,0.3,0,0.5,0C255.8,264,255.8,263.7,255.8,263.5z"/>
	<path d="M255.9,264.3c0.4,1.8,0.7,3.6,1,5.5c10.6,6.9,21,13.8,31.4,20.6c0.1-0.5,0.2-1.1,0.2-1.7v-25.4
		C277.6,263.5,266.8,263.9,255.9,264.3z"/>
	<path d="M288.5,252.8c-4.3-1.1-8.5-2.3-12.7-3.5c-3.4,2.7-6.7,5.5-10,8.3c0-3.7,2.3-6.8,3.1-10.2c-1.9-0.5-3.8-1-5.7-1.5
		c-2.4,5.9-4.9,11.7-7.4,17.5c0,0.3,0.1,0.5,0.1,0.8c10.9-0.4,21.7-0.7,32.6-1V252.8z"/>
	<path d="M243.1,290.5c0.8-1.6,1.6-3.3,2.4-4.9c-0.8-0.1-1.6-0.1-2.4-0.2V290.5z"/>
	<path d="M243.1,261v3.7c1.9-0.1,3.8-0.1,5.6-0.2C246.9,263.4,245,262.2,243.1,261z"/>
	<path d="M243.1,264.7v20.7c0.8,0.1,1.6,0.1,2.4,0.2c2.9-5.9,5.7-11.9,8.3-17.8c-1.7-1.1-3.4-2.2-5.1-3.2
		C246.9,264.6,245,264.7,243.1,264.7z"/>
	<path d="M217.2,256.2h18.4c-5.2-3.5-10-7.5-14.9-11.2c-4.8,7-9.2,14-13.1,21.3c3.2-0.2,6.4-0.3,9.7-0.5V256.2z"/>
	<path d="M207.5,266.4c-3,5.6-5.6,11.3-7.8,17.2c5.8,0.1,11.7,0.3,17.5,0.5v-18.2C214,266.1,210.7,266.2,207.5,266.4z"/>
	<path d="M220.6,245.1c-3.8-2.9-7.7-5.6-11.8-8c-2.1,6.4-4.6,12.7-7.6,18.8c-1.3-5.3-2.6-10.5-3.7-16.1c-8.4,5.2-17,10.2-25.8,14.9
		v13.9c11.9-0.8,23.8-1.6,35.7-2.2C211.4,259.1,215.9,252,220.6,245.1z"/>
	<path d="M171.8,268.6v14.7c9.3,0,18.6,0.1,27.9,0.3c2.2-5.9,4.8-11.6,7.8-17.2C195.6,267,183.7,267.8,171.8,268.6z"/>
	<path d="M263.2,245.9c1.9,0.5,3.8,1,5.7,1.5c0-0.2,0.1-0.3,0.1-0.5c1.3-7.2,2.1-14.2,2.9-21.2l-0.4-0.4
		C268.7,232.3,266,239.1,263.2,245.9z"/>
	<path d="M165.2,226.7c0.3,0.7,0.6,1.5,0.9,2.2c2.3,0.4,4.5,0.9,6.8,1.3l2.3-1.9c-3.1-0.4-6.3-0.9-9.5-1.5
		C165.6,226.7,165.4,226.7,165.2,226.7z"/>
	<path d="M288.5,210v-24.2c-5.1,11-9.8,22.1-14.4,33.3l19.5,16.2c4.4-3.4,8.8-6.8,13.1-10.2L288.5,210z"/>
	<path d="M311.8,230.7c-0.1-0.9-0.4-1.6-1.1-2.2l-4-3.3c-4.4,3.4-8.7,6.8-13.1,10.2l6.7,5.6c0.5,0.5,1.2,0.7,2.1,0.7h0.3
		c0.9-0.1,1.6-0.5,2.1-1.1l6.3-7.5C311.6,232.4,311.9,231.6,311.8,230.7z"/>
	<path d="M223.3,167.2c-0.3,0.2-0.6,0.4-0.8,0.6l-2.5,2.1c-0.4,7.6-1,15.1-1.8,22.6l6.3-5.3C224,180.5,223.6,173.9,223.3,167.2z"/>
	<path d="M274.6,167.5c0.5-0.7,1-1.4,1.5-2.1h-0.9C275,166.1,274.8,166.8,274.6,167.5z"/>
	<path d="M271.5,176c-1.9,4.2-3.8,8.5-5.9,12.7c6.4-5.9,12.7-12,18.9-18.4c0.5-1.6,0.9-3.2,1.3-4.8c-0.2,0-0.3,0-0.5,0h-9.2
		c-0.5,0.7-1,1.4-1.5,2.1C273.7,170.4,272.7,173.2,271.5,176z"/>
	<path d="M265.6,188.7c-2.7,5.4-5.7,10.8-8.9,15.9l16.2,13.5c0.9-7.7,2.1-15.4,4-23.2c2-8.6,5.2-16.3,7.6-24.5
		C278.3,176.7,272,182.8,265.6,188.7z"/>
	<path d="M284.4,170.3c-2.5,8.3-5.6,15.9-7.6,24.5c-1.9,7.9-3,15.6-4,23.2l1.2,1c4.6-11.2,9.3-22.4,14.4-33.3v-17.1
		c0-0.8-0.2-1.5-0.6-2C286.7,167.9,285.6,169.1,284.4,170.3z"/>
	<path d="M285.8,165.5c-0.4,1.6-0.8,3.2-1.3,4.8c1.1-1.2,2.3-2.4,3.4-3.6c-0.1-0.1-0.2-0.2-0.3-0.3
		C287.1,165.9,286.5,165.6,285.8,165.5z"/>
	<path d="M166.1,228.9c0.7,1.8,1.4,3.5,2,5.3l4.8-4C170.6,229.8,168.4,229.3,166.1,228.9z"/>
	<path d="M237.9,167.8c-2.2-1.8-4.7-2.6-7.7-2.6c-2.6,0-4.9,0.7-6.9,2c0.3,6.7,0.8,13.4,1.2,20.1l5.7-4.7l13.4,11.2
		c-0.4-7.2-0.5-14.4-0.6-21.6L237.9,167.8z"/>
	<path d="M260.6,186.8L243,172.1c0.2,7.2,0.3,14.4,0.6,21.6l7.7,6.5C254.4,195.5,257.5,191.1,260.6,186.8z"/>
	<path d="M265.8,165.5c-0.9,0-1.7,0.3-2.3,0.9c-0.6,0.6-0.9,1.4-0.9,2.3V184c4-5.5,8-10.9,12-16.4c0.2-0.7,0.4-1.4,0.6-2.1H265.8z"/>
	<path d="M262.6,184v4.5l-2-1.7c-3.1,4.3-6.2,8.8-9.2,13.4l0.6,0.5c4.6-3.9,9.2-7.9,13.6-11.9c2.1-4.2,4.1-8.4,5.9-12.7
		c1.2-2.8,2.2-5.6,3.1-8.5C270.6,173,266.5,178.4,262.6,184z"/>
	<path d="M161.8,218.3l-6.8,5.6c3.3,1.1,6.7,2,10.2,2.7C164.1,223.9,163,221.1,161.8,218.3z"/>
	<path d="M165.2,226.7c-3.5-0.7-6.9-1.7-10.2-2.7l-2.7,2.2c4.6,0.9,9.1,1.8,13.7,2.7C165.8,228.1,165.5,227.4,165.2,226.7z"/>
	<path d="M152.4,226.2l-2.8,2.3c-0.7,0.5-1,1.3-1.1,2.2c-0.1,0.9,0.2,1.7,0.7,2.4l6.3,7.5c0.5,0.6,1.2,1,2.1,1.1
		c0.8,0.1,1.6-0.2,2.4-0.7l8.1-6.7c-0.7-1.8-1.3-3.6-2-5.3C161.5,228,157,227.1,152.4,226.2z"/>
	<path d="M218.1,192.5c0.8-7.5,1.4-15.1,1.8-22.6l-29.5,24.6c1.1,6,2.2,12.1,3.4,18.3L218.1,192.5z"/>
	<path d="M265.6,188.7c-4.5,4.1-9,8.1-13.6,11.9l4.7,3.9C259.9,199.5,262.9,194.1,265.6,188.7z"/>
	<path d="M165.7,226.8c3.2,0.7,6.3,1.1,9.5,1.5l5.2-4.4c2.1-8.4,3.8-16.7,4.9-25.2l-23.4,19.5c1.2,2.8,2.3,5.6,3.4,8.4
		C165.4,226.7,165.6,226.7,165.7,226.8z"/>
	<path d="M190.5,194.4l-5.2,4.3c-1.1,8.4-2.8,16.8-4.9,25.2l13.5-11.2C192.7,206.5,191.5,200.5,190.5,194.4z"/>
</svg>
