<?xml version="1.0" encoding="iso-8859-1"?>
<!-- Generator: Adobe Illustrator 16.0.0, SVG Export Plug-In . SVG Version: 6.00 Build 0)  -->
<!DOCTYPE svg PUBLIC "-//W3C//DTD SVG 1.1//EN" "http://www.w3.org/Graphics/SVG/1.1/DTD/svg11.dtd">
<svg version="1.1" id="Layer_1" xmlns="http://www.w3.org/2000/svg" xmlns:xlink="http://www.w3.org/1999/xlink" x="0px" y="0px"
	 width="233.6px" height="28.3px" viewBox="0 0 233.6 28.3" style="enable-background:new 0 0 233.6 28.3;" xml:space="preserve">
<path d="M22.2,12.6v-0.2c-0.2,0-0.3,0-0.5,0C21.8,12.4,22,12.5,22.2,12.6z"/>
<path d="M26.1,11.7V9.8h-6.6v1.5c0.7,0.4,1.5,0.7,2.2,1c0.2,0,0.3,0,0.5,0v-0.7H26.1z"/>
<path d="M19.5,15.2c0.9,0,1.8,0,2.7,0v-0.2h3.3v-1c-0.6-0.2-1.3-0.5-1.9-0.8h-1.4v-0.6c-0.2-0.1-0.3-0.2-0.5-0.2c-0.7,0-1.5,0-2.2,0
	V15.2z"/>
<path d="M19.5,12.3c0.7,0,1.5,0,2.2,0c-0.7-0.3-1.5-0.7-2.2-1V12.3z"/>
<path d="M19.5,15.2v3.3h2.7v-3.3C21.3,15.2,20.4,15.2,19.5,15.2z"/>
<path d="M25.5,14v-0.8h-1.9C24.2,13.5,24.8,13.7,25.5,14z"/>
<path d="M27.5,14.7v0.5c0.5,0,1.1,0,1.6,0C28.6,15,28,14.8,27.5,14.7z"/>
<path d="M27.5,15.2v3.3h2.7v-3c-0.4-0.1-0.7-0.2-1.1-0.3C28.6,15.2,28,15.2,27.5,15.2z"/>
<path d="M31.6,15.9l1.4,2.6h3l-0.9-1.7C33.9,16.5,32.7,16.2,31.6,15.9z"/>
<path d="M30.2,15.5v-0.3c-0.4,0-0.7,0-1.1,0C29.5,15.3,29.8,15.4,30.2,15.5z"/>
<path d="M33.1,15.2c-0.7,0-1.3,0-2,0c0.1,0.1,0.3,0.3,0.5,0.7l0,0.1c1.2,0.3,2.3,0.6,3.5,0.9L34.7,16C34.1,15.8,33.6,15.5,33.1,15.2
	z"/>
<path d="M27.5,14.7c0.5,0.2,1.1,0.3,1.6,0.5c0.4,0,0.7,0,1.1,0V15h0.2c0.2,0,0.5,0.1,0.7,0.2c0,0,0,0,0,0c0.7,0,1.3,0,2,0
	c-0.9-0.5-1.8-1.1-2.6-1.8h-0.3v-0.2c-0.2-0.2-0.4-0.4-0.6-0.6c-0.7,0-1.4,0-2.1,0V14.7z"/>
<path d="M27.5,12.5c0.7,0,1.4,0,2.1,0c-0.7-0.7-1.4-1.6-2.1-2.5V12.5z"/>
<path d="M34.7,16c-0.1-0.1-0.2-0.3-0.4-0.5c-0.1-0.1-0.2-0.2-0.2-0.3c-0.3,0-0.7,0-1,0C33.6,15.5,34.1,15.8,34.7,16L34.7,16z"/>
<path d="M32.4,12.9c-0.1,0.1-0.3,0.2-0.4,0.3c-0.3,0.1-0.6,0.1-0.7,0.1h-0.9c0.8,0.7,1.7,1.3,2.6,1.8c0.3,0,0.7,0,1,0
	C34,15.1,33.9,15,33.9,15c-0.1-0.1-0.4-0.2-0.7-0.3c0.4-0.1,0.7-0.2,0.9-0.3c0.4-0.2,0.6-0.5,0.8-0.8c0.2-0.3,0.2-0.6,0.3-1
	c-0.9,0-1.8,0-2.6,0C32.6,12.7,32.5,12.8,32.4,12.9z"/>
<path d="M30.2,13.1v-0.6c-0.2,0-0.4,0-0.6,0C29.8,12.7,30,12.9,30.2,13.1z"/>
<path d="M34.9,10.8c-0.3-0.4-0.6-0.6-1-0.8s-1.1-0.2-1.9-0.2h-4.4V10c0.6,0.9,1.3,1.7,2.1,2.5c0.2,0,0.4,0,0.6,0v-0.9h1.2
	c0.5,0,0.8,0.1,1,0.2s0.3,0.4,0.3,0.6c0,0,0,0,0,0.1c0.9,0,1.8,0,2.6,0c0-0.1,0-0.2,0-0.3C35.3,11.7,35.1,11.2,34.9,10.8z"/>
<path d="M42.8,18.2C42.8,18.2,42.8,18.2,42.8,18.2c-0.9-0.2-1.8-0.3-2.8-0.5C41,17.9,41.9,18.1,42.8,18.2z"/>
<path d="M37.3,17.2c0.3,0.4,0.7,0.7,1.2,0.9c0.6,0.3,1.4,0.5,2.4,0.5c0.8,0,1.4-0.1,2-0.4c-0.9-0.1-1.9-0.3-2.8-0.5
	C39.1,17.6,38.2,17.4,37.3,17.2z"/>
<path d="M37.3,17.2c0.9,0.2,1.9,0.4,2.8,0.5c-1-0.2-2-0.5-3-0.8C37.1,17,37.2,17.1,37.3,17.2z"/>
<path d="M42.5,14c0,0.3,0,0.6-0.1,0.8c0.2,0.1,0.4,0.2,0.6,0.3c0.7,0,1.4,0,2,0c0.1-0.3,0.1-0.7,0.1-1.1c0-0.6-0.1-1.1-0.2-1.6
	c-0.9,0-1.8,0-2.8,0C42.4,12.9,42.5,13.4,42.5,14z"/>
<path d="M40.7,9.7c-1.4,0-2.5,0.4-3.3,1.2c0,0,0,0,0,0c0.5,0.6,1,1.1,1.5,1.6c0.1,0,0.2,0,0.4,0c0-0.1,0.1-0.2,0.1-0.2
	c0.3-0.4,0.8-0.6,1.3-0.6c0.6,0,1,0.2,1.3,0.6c0.1,0.1,0.1,0.2,0.2,0.2c0.9,0,1.8,0,2.8,0c-0.2-0.7-0.5-1.2-0.9-1.7
	C43.2,10.1,42.1,9.7,40.7,9.7z"/>
<path d="M39.2,12.7c0-0.1,0.1-0.1,0.1-0.2c-0.1,0-0.2,0-0.4,0C39,12.6,39.1,12.7,39.2,12.7z"/>
<path d="M45.1,15.2c-0.7,0-1.4,0-2,0c0.6,0.3,1.2,0.5,1.9,0.8C45,15.7,45.1,15.4,45.1,15.2z"/>
<path d="M37.4,10.9c-0.4,0.4-0.7,1-0.9,1.6c0.8,0,1.6,0,2.4,0C38.4,12,37.9,11.5,37.4,10.9z"/>
<path d="M36.5,12.5c-0.1,0.5-0.2,1-0.2,1.6c0,0.4,0,0.7,0.1,1c0.9,0,1.8,0,2.7,0c-0.1-0.3-0.1-0.6-0.1-1c0-0.6,0.1-1.1,0.2-1.4
	c-0.1-0.1-0.2-0.1-0.2-0.2C38.1,12.5,37.3,12.5,36.5,12.5z"/>
<path d="M42.4,15.2c-0.1,0.4-0.2,0.7-0.4,0.9c-0.3,0.4-0.8,0.6-1.3,0.6c-0.6,0-1-0.2-1.3-0.6c-0.2-0.2-0.3-0.5-0.4-0.9
	c-0.9,0-1.8,0-2.7,0c0.1,0.6,0.3,1.1,0.5,1.5c0.1,0.1,0.1,0.2,0.2,0.3c1,0.3,2,0.6,3,0.8c0.9,0.2,1.8,0.3,2.8,0.5
	c0.1-0.1,0.3-0.1,0.4-0.2c0.6-0.4,1.1-0.9,1.5-1.5c0.1-0.2,0.2-0.4,0.2-0.6c-0.6-0.2-1.3-0.5-1.9-0.8C42.8,15.2,42.6,15.2,42.4,15.2
	z"/>
<path d="M42.5,14.9c0,0.1,0,0.2-0.1,0.3c0.2,0,0.4,0,0.7,0C42.9,15.1,42.7,15,42.5,14.9z"/>
<path d="M46.6,18.4h2.5v-1.1c-0.8-0.2-1.7-0.5-2.5-0.8V18.4z"/>
<path d="M49.1,9.8h-2c0.8,0.9,1.6,1.8,2.4,2.6c0.5,0,0.9,0,1.4,0L49.1,9.8z"/>
<path d="M52.3,14.6l-1.5-2.1c-0.5,0-0.9,0-1.4,0c0.9,0.9,1.7,1.8,2.6,2.7c0.9,0,1.8,0,2.7,0v-2.7c-0.8,0-1.7,0-2.5,0V14.6z"/>
<path d="M52.3,9.8v2.6c0.8,0,1.7,0,2.5,0V9.8H52.3z"/>
<path d="M54.8,15.1c-0.9,0-1.8,0-2.7,0c0.9,0.9,1.8,1.7,2.7,2.5V15.1z"/>
<path d="M46.6,15.1c0.8,0,1.7,0,2.5,0v-1.4l1,1.4c0.7,0,1.4,0,2,0c-0.9-0.9-1.8-1.8-2.6-2.7c-1,0-1.9,0-2.9,0V15.1z"/>
<path d="M46.6,9.8v2.6c1,0,1.9,0,2.9,0c-0.8-0.9-1.6-1.7-2.4-2.6H46.6z"/>
<path d="M46.6,16.5c0.8,0.3,1.7,0.5,2.5,0.8v-2.2c-0.8,0-1.7,0-2.5,0V16.5z"/>
<path d="M50.1,15.1l2.1,3.1c0.3,0.1,0.5,0.2,0.8,0.2h1.9v-0.8c-0.9-0.8-1.8-1.6-2.7-2.5C51.5,15.1,50.8,15.1,50.1,15.1z"/>
<path d="M52.3,18.4H53c-0.3-0.1-0.5-0.2-0.8-0.2L52.3,18.4z"/>
<path d="M64.1,12V9.8h-7.1c0.5,0.7,0.9,1.4,1.4,2.1h0.4v0.4c0.9,0,1.8,0,2.7,0V12H64.1z"/>
<path d="M58.7,12.6c0.6,0.9,1.2,1.7,1.8,2.6c0.3,0,0.6,0,0.8,0v-2.8c-0.9,0-1.8,0-2.7,0V12.6z"/>
<path d="M61.4,15.1c-0.3,0-0.6,0-0.8,0c0.3,0.4,0.6,0.8,0.8,1.1V15.1z"/>
<path d="M58.7,12.6v2.6c0.6,0,1.2,0,1.8,0C59.9,14.3,59.3,13.4,58.7,12.6z"/>
<path d="M58.7,15.1v3.1c0.4,0,0.9-0.1,1.3-0.1c-0.4,0-0.9,0.1-1.3,0.1v0.2h2.7v-2.2c-0.3-0.4-0.6-0.7-0.8-1.1
	C59.9,15.1,59.3,15.1,58.7,15.1z"/>
<path d="M56.9,9.8H56V12h2.3C57.8,11.3,57.4,10.6,56.9,9.8z"/>
<path d="M67.3,14.4h-3.5v0.8c1.2,0,2.3,0,3.5,0V14.4z"/>
<path d="M63.8,15.1v1.1h3.5v-1.1C66.2,15.1,65,15.1,63.8,15.1z"/>
<path d="M71.1,11.7h4.5V9.8H69C69.7,10.5,70.4,11.1,71.1,11.7L71.1,11.7z"/>
<path d="M71.1,11.8c-0.7-0.6-1.4-1.3-2.1-1.9h-0.5v2.3c0.9,0,1.8,0,2.7-0.1V11.8z"/>
<path d="M68.4,12.2v2.9c0.9,0,1.8,0,2.7,0v-0.3h3.2c-0.6-0.6-1.2-1.2-1.8-1.8h-1.4v-0.9C70.2,12.2,69.3,12.2,68.4,12.2z"/>
<path d="M71.1,15.1c-0.9,0-1.8,0-2.7,0v3.3h7.2v-1.9h-4.6V15.1z"/>
<path d="M75.2,14.8V13h-2.7c0.6,0.6,1.2,1.2,1.8,1.8H75.2z"/>
<path d="M77.1,18.4h0.2c-0.1-0.1-0.1-0.2-0.2-0.3V18.4z"/>
<path d="M79.6,9.8h-0.4c0.4,0.4,0.8,0.7,1.2,1.1L79.6,9.8z"/>
<path d="M77.1,18.1c0.1,0.1,0.1,0.2,0.2,0.3h2.3v-3.3c-0.8,0-1.7,0-2.5,0V18.1z"/>
<path d="M80.6,15.1l2.3,3.3h2.5v-1.8c-0.3-0.5-0.7-1-1.1-1.5C83,15.1,81.8,15.1,80.6,15.1z"/>
<path d="M77.1,15.1c0.8,0,1.7,0,2.5,0v-1.4l0.9,1.4c1.2,0,2.4,0,3.7,0c-0.4-0.6-0.9-1.1-1.4-1.7v1.2L81,11.9c-1.3,0-2.6,0.1-3.9,0.1
	V15.1z"/>
<path d="M79.2,9.8h-2V12c1.3,0,2.6-0.1,3.9-0.1l-0.7-1C80,10.6,79.6,10.2,79.2,9.8z"/>
<path d="M85.3,15.1c-0.4,0-0.7,0-1.1,0c0.4,0.5,0.8,1,1.1,1.5V15.1z"/>
<path d="M82.8,13.4c0.5,0.5,1,1.1,1.4,1.7c0.4,0,0.7,0,1.1,0v-3.3c-0.8,0-1.7,0-2.5,0.1V13.4z"/>
<path d="M82.8,9.8v2c0.8,0,1.7,0,2.5-0.1V9.8H82.8z"/>
<path d="M87.1,15.1c0.9,0,1.8,0,2.7,0v-2.7c-0.1-0.2-0.3-0.5-0.5-0.7c-0.7,0-1.5,0-2.2,0.1V15.1z"/>
<path d="M87.1,9.8v1.9c0.7,0,1.5,0,2.2-0.1c-0.4-0.6-0.8-1.2-1.2-1.8H87.1z"/>
<path d="M91.6,16.3c-0.2,0.1-0.6,0.2-1.2,0.2h-0.7v-1.4c-0.9,0-1.8,0-2.7,0v3.3h3.9c0.4,0,0.8-0.1,1.3-0.2
	C92.2,17.6,91.9,16.9,91.6,16.3C91.7,16.3,91.7,16.3,91.6,16.3z"/>
<path d="M89.8,12.4v-0.6h0.7c0.7,0,1.2,0.2,1.5,0.5s0.4,1,0.4,1.9c0,0.4,0,0.7-0.1,0.9c0.9,0,1.8,0,2.7,0c0-0.3,0.1-0.6,0.1-1
	c0-0.6-0.1-1.1-0.2-1.7c-0.1-0.3-0.2-0.6-0.4-0.9c-1.7,0-3.4,0.1-5.1,0.1C89.5,11.9,89.7,12.2,89.8,12.4z"/>
<path d="M93,10.2c-0.5-0.2-1.1-0.3-1.9-0.3h-2.9c0.4,0.6,0.8,1.2,1.2,1.8c1.7,0,3.4-0.1,5.1-0.1c-0.1-0.2-0.2-0.3-0.3-0.5
	C93.8,10.7,93.5,10.4,93,10.2z"/>
<path d="M92.3,15.1c0,0.2-0.1,0.4-0.1,0.6c-0.1,0.3-0.3,0.5-0.5,0.6c0.3,0.7,0.5,1.3,0.7,2c0.1,0,0.2,0,0.3-0.1
	c0.4-0.1,0.8-0.3,1.2-0.7s0.7-0.8,0.9-1.3c0.1-0.3,0.2-0.7,0.3-1.2C94.1,15.1,93.2,15.1,92.3,15.1z"/>
<path d="M102.5,11.8l-0.1-0.5c-0.1,0-0.1,0-0.2,0C102.3,11.5,102.4,11.7,102.5,11.8z"/>
<path d="M101.3,9.8c0.3,0.5,0.6,1,0.8,1.5c0.1,0,0.1,0,0.2,0l-0.3-1.5H101.3z"/>
<path d="M100.7,15.1l0.8,3.4h2.6l0.8-2.8c-0.1-0.2-0.2-0.4-0.4-0.6C103.2,15.1,102,15.1,100.7,15.1z"/>
<path d="M100.7,15.1c1.3,0,2.5,0,3.8,0c-0.4-0.6-0.8-1.1-1.1-1.7l-0.4,1.3l-0.5-2.8c-0.1-0.2-0.2-0.3-0.3-0.5c-0.8,0-1.5,0-2.3,0.1
	L100.7,15.1z"/>
<path d="M99.6,9.8l0.3,1.6c0.8,0,1.5,0,2.3-0.1c-0.3-0.5-0.6-1-0.8-1.5H99.6z"/>
<path d="M104.9,15.6l0.2-0.6c-0.2,0-0.4,0-0.5,0C104.6,15.2,104.7,15.4,104.9,15.6z"/>
<path d="M106.1,15l0.9,3.4h2.6l0.8-3.4C109,15,107.6,15,106.1,15z"/>
<path d="M108.2,14.7l-1-3.4c-1.1,0-2.2,0.1-3.3,0.1l-0.6,2c0.4,0.6,0.7,1.2,1.1,1.7c0.2,0,0.4,0,0.5,0l0.6-2l0.6,2
	c1.4,0,2.9,0,4.3,0l0.9-3.9c-0.8,0-1.7,0-2.5,0.1L108.2,14.7z"/>
<path d="M106.8,9.8h-2.5l-0.4,1.5c1.1,0,2.2-0.1,3.3-0.1L106.8,9.8z"/>
<path d="M109.1,9.8l-0.2,1.3c0.8,0,1.7,0,2.5-0.1l0.3-1.3H109.1z"/>
<path d="M115.2,9.8c0.4,0.4,0.8,0.7,1.1,1.1c1.1,0,2.2-0.1,3.3-0.1v-1H115.2z"/>
<path d="M117,11.7h2.5v-0.8c-1.1,0-2.2,0.1-3.3,0.1C116.5,11.2,116.8,11.4,117,11.7z"/>
<path d="M119.2,13h-1c0.4,0.5,0.7,1,1,1.5V13z"/>
<path d="M112.4,15c0.5,0,1,0,1.5,0c-0.5-1.1-1-2.2-1.5-3.2V15z"/>
<path d="M112.4,15v3.4h3.2c-0.6-1.1-1.2-2.3-1.7-3.4C113.4,15,112.9,15,112.4,15z"/>
<path d="M112.4,11.8c0.5,1.1,0.9,2.2,1.5,3.2c0.4,0,0.8,0,1.2,0v-0.2h4.1v-0.3c-0.3-0.5-0.7-1-1-1.5h-3.1v-1.4h1.9
	c-0.2-0.2-0.5-0.5-0.7-0.7c-1.3,0-2.6,0.1-3.9,0.1V11.8z"/>
<path d="M112.4,9.8v1.2c1.3,0,2.6-0.1,3.9-0.1c-0.4-0.4-0.7-0.8-1.1-1.1H112.4z"/>
<path d="M115.1,15c-0.4,0-0.8,0-1.2,0c0.5,1.1,1.1,2.3,1.7,3.4h4.1v-1.9h-4.6V15z"/>
<path d="M121.1,15c0.8,0,1.6,0,2.4,0c-0.3-1.4-0.6-2.7-0.9-4.2c-0.5,0-1,0-1.5,0V15z"/>
<path d="M121.1,9.8v1c0.5,0,1,0,1.5,0c-0.1-0.3-0.1-0.6-0.2-1H121.1z"/>
<path d="M123.8,16.6v-0.3c-0.1-0.4-0.2-0.9-0.3-1.3c-0.8,0-1.6,0-2.4,0v3.4h3.2C124.2,17.8,124,17.2,123.8,16.6L123.8,16.6z"/>
<path d="M125.2,16.6h-1.3c0.1,0.6,0.3,1.2,0.4,1.8h1.4c0.1,0,0.1,0,0.2,0c-0.1-0.6-0.1-1.3-0.2-1.9
	C125.6,16.6,125.4,16.6,125.2,16.6z"/>
<path d="M123.8,15c-0.1,0-0.2,0-0.3,0c0.1,0.4,0.2,0.9,0.3,1.3V15z"/>
<path d="M123.5,15c0.1,0,0.2,0,0.3,0v-0.1h1.3c0.2,0,0.3,0,0.5,0c0-0.6-0.1-1.2-0.1-1.8c-0.2,0.1-0.4,0.1-0.6,0.1h-1.2v-1.6h1.2
	c0.2,0,0.4,0,0.5,0.1c0-0.3,0-0.6,0-0.9c-1,0-1.9,0-2.9,0.1C122.9,12.2,123.2,13.6,123.5,15z"/>
<path d="M122.4,9.8c0.1,0.3,0.1,0.6,0.2,1c1,0,1.9,0,2.9-0.1c0-0.3,0-0.6,0-0.9H122.4z"/>
<path d="M125.5,11.7c0.1,0,0.2,0.1,0.3,0.1c0.2,0.1,0.2,0.3,0.2,0.6c0,0.3-0.1,0.5-0.2,0.6c-0.1,0.1-0.2,0.1-0.3,0.1
	c0,0.6,0,1.2,0.1,1.8c0.1,0,0.2,0,0.3,0.1c1,0,1.9,0,2.9,0c-0.1-0.1-0.1-0.2-0.2-0.3c-0.3-0.4-0.7-0.6-1.4-0.8
	c0.4-0.1,0.7-0.3,0.9-0.6c0.3-0.4,0.5-0.8,0.5-1.3c0-0.5-0.2-0.9-0.5-1.3c-0.9,0-1.8,0-2.7,0.1C125.5,11.1,125.5,11.4,125.5,11.7z"
	/>
<path d="M126.1,9.8h-0.7c0,0.3,0,0.6,0,0.9c0.9,0,1.8,0,2.7-0.1c-0.1-0.1-0.1-0.2-0.2-0.2C127.6,10.1,126.9,9.8,126.1,9.8z"/>
<path d="M125.9,15c0.1,0,0.2,0.1,0.2,0.1c0.2,0.2,0.3,0.4,0.3,0.6c0,0.3-0.1,0.5-0.3,0.7c-0.1,0.1-0.2,0.1-0.4,0.2
	c0,0.6,0.1,1.3,0.2,1.9c0.2,0,0.5-0.1,1-0.1c0.4-0.1,0.8-0.2,1-0.3c0.4-0.2,0.6-0.5,0.8-0.8s0.3-0.8,0.3-1.2c0-0.4-0.1-0.7-0.3-1
	C127.8,15,126.9,15,125.9,15z"/>
<path d="M134.5,14.9c0.8,0,1.5,0,2.3,0c0-1.5,0.1-2.9,0.2-4.4c-0.8,0-1.7,0-2.5,0V14.9z"/>
<path d="M134.5,9.8v0.7c0.8,0,1.7,0,2.5,0c0-0.2,0-0.5,0.1-0.7H134.5z"/>
<path d="M136.8,14.9c-0.8,0-1.5,0-2.3,0v3.5h2.3C136.8,17.3,136.8,16.1,136.8,14.9z"/>
<path d="M139.7,14.9c0,0.3-0.1,0.6-0.2,0.8c-0.1,0.3-0.3,0.5-0.6,0.6s-0.6,0.2-1.2,0.2h-0.7v-1.6c-0.1,0-0.3,0-0.4,0
	c0,1.2,0,2.3,0.1,3.5h1.6c0.5,0,1-0.1,1.6-0.2c0.3-0.1,0.7-0.3,1-0.5c0-0.9,0-1.9,0-2.8C140.6,14.9,140.1,14.9,139.7,14.9z"/>
<path d="M136.8,14.9c0.1,0,0.3,0,0.4,0v-3.1h0.7c0.7,0,1.2,0.2,1.5,0.5s0.4,1,0.4,1.9c0,0.3,0,0.5,0,0.7c0.4,0,0.9,0,1.3,0
	c0-1.4,0-2.9,0-4.3c-0.1,0-0.1-0.1-0.2-0.1c-1.3,0-2.5,0-3.8,0.1C136.8,12,136.8,13.5,136.8,14.9z"/>
<path d="M138.4,9.8h-1.4c0,0.2,0,0.5-0.1,0.7c1.3,0,2.5,0,3.8-0.1c-0.2-0.1-0.3-0.2-0.5-0.3C139.8,10,139.2,9.8,138.4,9.8z"/>
<path d="M141,14.9c0,0.9,0,1.9,0,2.8c0.1-0.1,0.1-0.1,0.2-0.2c0.4-0.3,0.7-0.8,0.9-1.3c0.1-0.4,0.2-0.8,0.3-1.4
	C141.9,14.9,141.5,14.9,141,14.9z"/>
<path d="M141.5,11.1c-0.1-0.2-0.3-0.3-0.5-0.5c0,1.4,0,2.9,0,4.3c0.5,0,0.9,0,1.4,0c0-0.2,0-0.5,0-0.8c0-0.6-0.1-1.1-0.2-1.7
	S141.8,11.5,141.5,11.1z"/>
<path d="M143.8,14.9c0.6,0,1.1,0,1.7,0c0.2-1.5,0.4-3,0.6-4.5c-0.8,0-1.5,0-2.3,0V14.9z"/>
<path d="M143.8,9.8v0.6c0.8,0,1.5,0,2.3,0c0-0.2,0-0.4,0.1-0.6H143.8z"/>
<path d="M143.8,14.9v3.6h1.3c0.1-1.2,0.2-2.4,0.4-3.6C144.9,14.9,144.3,14.9,143.8,14.9z"/>
<path d="M148.9,9.8c0,0.2,0,0.4,0,0.5c0.7,0,1.3,0,2,0V9.8H148.9z"/>
<path d="M148.8,11.7h2.1v-1.3c-0.7,0-1.3,0-2,0C148.9,10.8,148.8,11.2,148.8,11.7z"/>
<path d="M146.1,9.8c0,0.2,0,0.4-0.1,0.6c0.9,0,1.9,0,2.8,0c0-0.2,0-0.3,0-0.5H146.1z"/>
<path d="M145.5,14.9c0.3,0,0.6,0,0.9,0v-0.1h2.3c0-0.6,0-1.2,0-1.8h-2.3v-1.4h2.4c0-0.4,0.1-0.9,0.1-1.3c-0.9,0-1.9,0-2.8,0
	C145.9,11.9,145.7,13.4,145.5,14.9z"/>
<path d="M146.4,16.5v-1.6c-0.3,0-0.6,0-0.9,0c-0.2,1.2-0.3,2.4-0.4,3.6h3.8c0-0.7,0-1.3-0.1-1.9H146.4z"/>
<path d="M151,16.5h-2.2c0,0.6,0,1.3,0.1,1.9h2.2V16.5z"/>
<path d="M150.6,13h-1.8c0,0.6,0,1.2,0,1.8h1.8V13z"/>
<path d="M153.5,14.8c0.5,0,1,0,1.6,0c0.1-0.6,0.2-1.1,0.4-1.7l-0.9-2.7c-0.9,0-1.8,0-2.7,0L153.5,14.8z"/>
<path d="M151.6,9.8l0.2,0.5c0.9,0,1.8,0,2.7,0l-0.2-0.5H151.6z"/>
<path d="M155,14.8c-0.5,0-1,0-1.6,0l1,2.6C154.7,16.5,154.8,15.6,155,14.8z"/>
<path d="M159.1,14.8c-0.2,0-0.4,0-0.6,0c0.1,0.3,0.2,0.5,0.3,0.8L159.1,14.8z"/>
<path d="M160.7,10.3l0.2-0.5h-2.7l-0.1,0.5C159,10.3,159.9,10.3,160.7,10.3z"/>
<path d="M158.1,10.3l-0.5,1.7c0.3,0.9,0.6,1.8,1,2.7c0.2,0,0.4,0,0.6,0l1.6-4.4C159.9,10.3,159,10.3,158.1,10.3z"/>
<path d="M156.7,14.8c0.6,0,1.2,0,1.8,0c-0.3-0.9-0.7-1.8-1-2.7L156.7,14.8z"/>
<path d="M155.4,13.1c-0.1,0.6-0.2,1.1-0.4,1.7c0.3,0,0.6,0,0.9,0L155.4,13.1z"/>
<path d="M156.7,14.8l-0.4,1.2l-0.4-1.2c-0.3,0-0.6,0-0.9,0c-0.2,0.9-0.4,1.7-0.6,2.6l0.4,1.1h2.9l1.1-2.9c-0.1-0.3-0.2-0.5-0.3-0.8
	C157.9,14.8,157.3,14.8,156.7,14.8z"/>
<path d="M164.3,9.8h-2.5v0.5c0.8,0,1.7,0,2.5,0C164.3,10.2,164.3,10,164.3,9.8z"/>
<path d="M161.8,10.3v4.4c0.8,0,1.7,0,2.5,0c0.1-1.5,0.1-2.9,0.1-4.4C163.5,10.3,162.6,10.3,161.8,10.3z"/>
<path d="M161.8,14.7v3.7h2.2c0.1-1.2,0.2-2.5,0.3-3.7C163.4,14.7,162.6,14.7,161.8,14.7z"/>
<path d="M164.4,16.5v-1.7h2.7c0,0,0-0.1,0-0.1c-1,0-1.9,0-2.9,0c-0.1,1.2-0.2,2.5-0.3,3.7h3.2c0-0.6,0.1-1.3,0-1.9H164.4z"/>
<path d="M166.4,9.8h-2.1c0,0.2,0,0.3,0,0.5c0.7,0,1.5,0,2.2,0C166.5,10.2,166.5,10,166.4,9.8z"/>
<path d="M164.4,13v-1.4h2.3c-0.1-0.4-0.1-0.9-0.2-1.3c-0.7,0-1.5,0-2.2,0c0.1,1.5,0,2.9-0.1,4.4c1,0,1.9,0,2.9,0
	c-0.1-0.6-0.1-1.1-0.2-1.7H164.4z"/>
<path d="M168.9,9.8h-2.5c0,0.2,0.1,0.3,0.1,0.5c0.8,0,1.6,0,2.4,0V9.8z"/>
<path d="M166.5,10.3c0.1,0.4,0.1,0.9,0.2,1.3h2.2v-1.3C168.1,10.4,167.3,10.3,166.5,10.3z"/>
<path d="M168.6,13h-1.6c0.1,0.6,0.1,1.1,0.2,1.7c0.5,0,1,0,1.4,0V13z"/>
<path d="M167.1,14.7c0,0,0,0.1,0,0.1h1.4v-0.1C168.1,14.7,167.6,14.7,167.1,14.7z"/>
<path d="M169,16.5h-1.8c0,0.6,0,1.3,0,1.9h1.8V16.5z"/>
<path d="M173.1,9.8h-2.7v0.5c0.9,0,1.8,0,2.7,0V9.8z"/>
<path d="M170.5,10.4v4.3c0.4,0,0.7,0,1.1,0c0.5-1.1,1.1-2.2,1.6-3.4v-0.9C172.2,10.4,171.3,10.4,170.5,10.4z"/>
<path d="M171.5,14.7c-0.4,0-0.7,0-1.1,0v2.6C170.7,16.4,171.1,15.5,171.5,14.7z"/>
<path d="M173.1,14.6v-3.3c-0.5,1.2-1.1,2.2-1.6,3.4C172,14.7,172.6,14.6,173.1,14.6z"/>
<path d="M173.1,14.6c-0.5,0-1.1,0-1.6,0c-0.4,0.8-0.8,1.7-1.1,2.6v1.2h3.2c0.1-0.7,0.2-1.4,0.3-2.1h-0.9V14.6z"/>
<path d="M177.2,16.3H174c-0.1,0.7-0.2,1.4-0.3,2.1h3.6V16.3z"/>
<path d="M180,10.2c-0.2,0.1-0.4,0.2-0.5,0.3c0.2,0,0.4,0,0.5,0C180.1,10.4,180,10.3,180,10.2z"/>
<path d="M179.5,10.5c-0.2,0.1-0.3,0.2-0.4,0.4c-0.8,0.8-1.2,1.9-1.2,3.3c0,0.2,0,0.3,0,0.4c0.8,0,1.5,0,2.3,0
	c-0.1-1.4-0.2-2.7-0.2-4.1C179.9,10.5,179.7,10.5,179.5,10.5z"/>
<path d="M177.9,14.6c0.1,0.8,0.2,1.5,0.6,2.1c0.4,0.7,0.9,1.2,1.5,1.5c0.2,0.1,0.4,0.2,0.5,0.2c-0.2-1.3-0.3-2.5-0.4-3.8
	C179.5,14.6,178.7,14.6,177.9,14.6z"/>
<path d="M183.6,9.8c-0.4-0.1-0.8-0.1-1.2-0.1c-0.9,0-1.7,0.2-2.3,0.5c0,0.1,0,0.2,0,0.3c1.2,0,2.4,0,3.6,0.1
	C183.6,10.3,183.6,10.1,183.6,9.8z"/>
<path d="M180.1,10.5c0,1.4,0.1,2.7,0.2,4.1c0.1,0,0.2,0,0.3,0c0-0.1,0-0.3,0-0.4c0-0.9,0.2-1.5,0.5-1.9s0.8-0.6,1.3-0.6
	c0.6,0,1,0.2,1.3,0.6c0.1,0.1,0.1,0.2,0.2,0.2c0-0.6-0.1-1.3-0.2-1.9C182.5,10.6,181.3,10.5,180.1,10.5z"/>
<path d="M183.7,16c-0.3,0.4-0.8,0.6-1.3,0.6c-0.6,0-1-0.2-1.3-0.6c-0.3-0.3-0.4-0.8-0.5-1.5c-0.1,0-0.2,0-0.3,0
	c0.1,1.2,0.2,2.5,0.4,3.8c0.5,0.2,1.1,0.3,1.9,0.3c0.6,0,1.1-0.1,1.5-0.2c0-1,0-1.9,0-2.9C183.9,15.7,183.8,15.9,183.7,16z"/>
<path d="M185.4,10.7c-0.6,0-1.2,0-1.8,0c0.1,0.6,0.1,1.3,0.2,1.9c0.2,0.4,0.3,0.9,0.3,1.5c0,0.2,0,0.3,0,0.5c0.9,0,1.8,0,2.7,0
	c0-0.1,0-0.3,0-0.4c0-1.4-0.4-2.5-1.2-3.2C185.6,10.8,185.5,10.7,185.4,10.7z"/>
<path d="M183.6,9.8c0,0.3,0,0.5,0.1,0.8c0.6,0,1.2,0,1.8,0C184.9,10.2,184.3,10,183.6,9.8z"/>
<path d="M184.1,14.5c0,0.4-0.1,0.7-0.2,1c0,0.9,0,1.9,0,2.9c0.3-0.1,0.6-0.2,0.8-0.3c0.6-0.4,1.1-0.9,1.5-1.5c0.3-0.5,0.4-1.2,0.5-2
	C185.9,14.5,185,14.5,184.1,14.5z"/>
<path d="M194.8,10.5c-0.5-0.5-1.2-0.7-2.2-0.7h-2.5c0,0.3-0.1,0.6-0.1,0.9c1.7,0.1,3.4,0.1,5.1,0.2
	C195.1,10.8,194.9,10.7,194.8,10.5z"/>
<path d="M190,10.8c-0.1,1.2-0.3,2.5-0.3,3.7c1.7,0,3.4,0,5.1-0.1c0.5-0.5,0.7-1.1,0.7-1.9c0-0.6-0.1-1.1-0.4-1.5
	C193.4,10.9,191.7,10.8,190,10.8z M192.6,13.2c-0.2,0.2-0.6,0.3-1.1,0.3h-0.7v-1.9h0.8c0.5,0,0.8,0.1,1,0.3s0.3,0.4,0.3,0.7
	C192.9,12.8,192.8,13.1,192.6,13.2z"/>
<path d="M189.7,14.5c-0.1,1.3-0.1,2.6,0.1,4h1.1v-3.2h1.5c1.1,0,1.9-0.2,2.4-0.7c0,0,0.1-0.1,0.1-0.1
	C193.1,14.4,191.4,14.5,189.7,14.5z"/>
<path d="M189.7,14.5c-0.5,0-1,0-1.5,0v3.9h1.6C189.6,17.1,189.6,15.8,189.7,14.5z"/>
<path d="M190.1,9.8h-1.9v0.9c0.6,0,1.2,0,1.8,0.1C190.1,10.5,190.1,10.2,190.1,9.8z"/>
<path d="M188.2,10.7v3.8c0.5,0,1,0,1.5,0c0.1-1.2,0.2-2.5,0.3-3.7C189.4,10.8,188.8,10.8,188.2,10.7z"/>
<path d="M200.2,9.8h-3.3v1.2c1.1,0,2.1,0.1,3.2,0.2C200.1,10.8,200.1,10.3,200.2,9.8z"/>
<path d="M200,11.7c0-0.2,0-0.3,0-0.5c-1.1-0.1-2.1-0.1-3.2-0.2v3.3c1,0,2.1,0,3.1,0c0-0.4,0-0.9,0-1.3h-0.4v-1.4H200z"/>
<path d="M200,14.8c0-0.2,0-0.3,0-0.5c-1,0-2.1,0-3.1,0v4.1h3c0-0.7,0.1-1.3,0.1-1.9h-0.4v-1.7H200z"/>
<path d="M202,13h-2c0,0.4,0,0.9,0,1.3c0.7,0,1.3,0,2,0C202,13.9,202,13.5,202,13z"/>
<path d="M200,14.3c0,0.2,0,0.3,0,0.5h2c0-0.2,0-0.3,0-0.5C201.3,14.3,200.7,14.3,200,14.3z"/>
<path d="M203.7,13H202c0,0.4,0,0.9,0,1.3c0.6,0,1.1,0,1.7,0V13z"/>
<path d="M202,14.3c0,0.2,0,0.3,0,0.5h1.7v-0.5C203.1,14.3,202.6,14.3,202,14.3z"/>
<path d="M200.1,11.2c0,0.2,0,0.3,0,0.5h2c0-0.1,0-0.3,0-0.4C201.4,11.3,200.7,11.2,200.1,11.2z"/>
<path d="M202,9.8h-1.8c-0.1,0.5-0.1,0.9-0.1,1.4c0.6,0,1.3,0.1,1.9,0.1C202,10.8,202,10.3,202,9.8z"/>
<path d="M204,9.8h-2c0,0.5,0,1,0,1.4c0.7,0,1.3,0.1,2,0.1V9.8z"/>
<path d="M202,11.3c0,0.1,0,0.3,0,0.4h2v-0.3C203.3,11.4,202.7,11.3,202,11.3z"/>
<path d="M200,16.5c0,0.6,0,1.3-0.1,1.9h2.1c0-0.6,0-1.3,0-1.9H200z"/>
<path d="M204.1,16.5H202c0,0.6,0,1.3,0,1.9h2.1V16.5z"/>
<path d="M208.3,18.4v-0.3c-0.2,0.1-0.4,0.2-0.6,0.3H208.3z"/>
<path d="M210.3,17.1l0.7,1.4h3l-1.3-2.5C212,16.3,211.2,16.7,210.3,17.1z"/>
<path d="M208.3,11.6C208.3,11.6,208.3,11.6,208.3,11.6C208.3,11.6,208.3,11.6,208.3,11.6L208.3,11.6z"/>
<path d="M210.4,11.8C210.4,11.8,210.4,11.8,210.4,11.8c0.2,0.2,0.3,0.4,0.3,0.7c0,0.2-0.1,0.4-0.2,0.5s-0.3,0.2-0.4,0.3
	c-0.3,0.1-0.6,0.1-0.7,0.1h-1.1v-1.7c0,0,0,0,0,0c-0.9,0.9-1.8,1.7-2.6,2.6c2.2,0,4.5-0.1,6.7-0.1c0.3-0.2,0.5-0.4,0.7-0.7
	c0.2-0.3,0.3-0.8,0.3-1.2c0-0.1,0-0.2,0-0.3C212.3,11.9,211.4,11.8,210.4,11.8z"/>
<path d="M213,10.8c-0.3-0.4-0.6-0.6-1-0.8s-1.1-0.2-1.9-0.2H210c-0.5,0.6-1.1,1.2-1.7,1.7h1.1c0.4,0,0.8,0.1,0.9,0.2
	c1,0.1,2,0.1,2.9,0.2C213.3,11.5,213.2,11.2,213,10.8z"/>
<path d="M212.4,15.4c-0.2-0.2-0.3-0.4-0.4-0.5c-0.1-0.1-0.4-0.2-0.7-0.3c0.4-0.1,0.7-0.2,0.9-0.3c0.1,0,0.1-0.1,0.2-0.1
	c-2.2,0-4.5,0.1-6.7,0.1c0,0,0,0-0.1,0.1v4.1h2.1c0.2-0.1,0.4-0.2,0.6-0.3V15h0.2c0.2,0,0.5,0.1,0.7,0.2c0.1,0.1,0.3,0.3,0.5,0.7
	l0.7,1.3c0.8-0.4,1.6-0.7,2.5-1.1l0,0C212.7,15.8,212.6,15.6,212.4,15.4z"/>
<path d="M208.3,11.6L208.3,11.6L208.3,11.6c0.6-0.6,1.2-1.2,1.7-1.8h-4.4v1.6C206.5,11.5,207.4,11.6,208.3,11.6
	C208.3,11.6,208.3,11.6,208.3,11.6z"/>
<path d="M205.6,11.5v2.8c0,0,0,0,0.1,0c0.8-0.9,1.7-1.8,2.6-2.6C207.4,11.6,206.5,11.5,205.6,11.5z"/>
<path d="M205.7,14.3C205.7,14.3,205.6,14.3,205.7,14.3L205.7,14.3C205.6,14.3,205.7,14.3,205.7,14.3z"/>
</svg>
