<?xml version="1.0" encoding="iso-8859-1"?>
<!-- Generator: Adobe Illustrator 16.0.0, SVG Export Plug-In . SVG Version: 6.00 Build 0)  -->
<!DOCTYPE svg PUBLIC "-//W3C//DTD SVG 1.1//EN" "http://www.w3.org/Graphics/SVG/1.1/DTD/svg11.dtd">
<svg version="1.1" id="Layer_1" xmlns="http://www.w3.org/2000/svg" xmlns:xlink="http://www.w3.org/1999/xlink" x="0px" y="0px"
	 width="779.6px" height="82.9px" viewBox="0 0 779.6 82.9" style="enable-background:new 0 0 779.6 82.9;" xml:space="preserve">
<path d="M33.2,18.7h-9.4c-1.2,3.2-2,6.6-2.3,10.1c4.4-1.4,8.8-2.7,13.3-3.8L33.2,18.7z"/>
<path d="M15.8,18.7v11.9c1.9-0.6,3.7-1.3,5.6-1.9c0.3-3.5,1-6.8,2.3-10.1H15.8z"/>
<path d="M21.9,37.2c1.6-0.6,3.1-1.2,4.7-1.8v-6.7l1.5,6c2.8-1.1,5.5-2.4,8.2-3.6l-1.6-6.3c-4.5,1.1-8.9,2.4-13.3,3.8
	C21.3,31.5,21.4,34.3,21.9,37.2z"/>
<path d="M21.9,37.2c-2,0.7-4,1.4-6.1,2v4c3.6-0.3,7.2-0.7,10.8-1v-2.1c-1.4-0.3-2.9-0.6-4.3-0.9C22.2,38.6,22.1,37.9,21.9,37.2z"/>
<path d="M36.4,31.2c-2.7,1.2-5.5,2.5-8.2,3.6l1.5,6c1.1,0.3,2.1,0.5,3.2,0.8c2-0.2,4-0.3,6.1-0.4L36.4,31.2z"/>
<path d="M30,41.9c1-0.1,2-0.2,2.9-0.2c-1.1-0.3-2.1-0.6-3.2-0.8L30,41.9z"/>
<path d="M21.5,28.7c-1.9,0.6-3.8,1.2-5.6,1.9v8.6c2-0.6,4.1-1.3,6.1-2C21.4,34.3,21.3,31.5,21.5,28.7z"/>
<path d="M21.9,37.2c0.1,0.7,0.2,1.3,0.4,2c1.4,0.3,2.9,0.6,4.3,0.9v-4.6C25.1,36.1,23.5,36.7,21.9,37.2z"/>
<path d="M18.3,56.2c2.7-1,5.5-1.8,8.3-2.5V42.2c-3.6,0.3-7.2,0.7-10.8,1v16.3C16.3,57.8,17.1,56.5,18.3,56.2z"/>
<path d="M26.6,61.3v-7.6c-2.8,0.6-5.6,1.4-8.3,2.5c-1.3,0.3-2,1.6-2.5,3.3v1.8H26.6z"/>
<path d="M48.5,46.3c-2.8-0.9-5.6-1.8-8.4-2.6l-0.2,0.9l-0.3-1.1c-2.2-0.7-4.4-1.3-6.7-1.9c-1,0.1-2,0.1-2.9,0.2l2.7,10.8
	c4.7-0.7,9.5-0.9,14.4-1L48.5,46.3z"/>
<path d="M32.7,52.6l1.8,7.1c4.2-2.6,8.4-5.1,12.6-7.9l0-0.2C42.3,51.7,37.4,52,32.7,52.6z"/>
<path d="M34.9,61.3h9.8l2.4-9.5c-4.1,2.8-8.4,5.3-12.6,7.9L34.9,61.3z"/>
<path d="M39,41.2c-2,0.1-4,0.2-6.1,0.4c2.2,0.6,4.4,1.2,6.7,1.9L39,41.2z"/>
<path d="M40.7,41.2l-0.6,2.5c2.8,0.9,5.6,1.7,8.4,2.6l1.3-5.2C46.8,41,43.8,41,40.7,41.2z"/>
<path d="M62.6,20c-6.2,2.1-12.3,4.8-18.4,7.6l-3.5,13.6c3-0.1,6.1-0.2,9.1-0.1L53,28.8v12.4c0.4,0,0.9,0,1.3,0.1
	c1.9,0.2,3.9,0.3,5.8,0.5c0.5-0.4,0.9-0.9,1.4-1.3C61.8,33.6,62.3,26.8,62.6,20z"/>
<path d="M60.1,41.7c0.4,0,0.9,0.1,1.3,0.1c0-0.5,0-1,0.1-1.5C61.1,40.8,60.6,41.3,60.1,41.7z"/>
<path d="M63.1,19.8c-0.2,0-0.4,0-0.5,0.1c0,0,0,0.1,0,0.1C62.8,19.9,63,19.9,63.1,19.8z"/>
<path d="M44.2,27.6c6.1-2.8,12.2-5.5,18.4-7.6c0,0,0-0.1,0-0.1c-5.7,0.7-11.4,1.5-17.1,2.7L44.2,27.6z"/>
<path d="M61.5,40.4c0,0.5,0,1-0.1,1.5c0.8,0.1,1.6,0.1,2.3,0.2v-4C63.1,38.8,62.3,39.6,61.5,40.4z"/>
<path d="M61.5,40.4c0.8-0.8,1.5-1.5,2.3-2.4V19.7c-0.2,0-0.4,0.1-0.7,0.1c-0.2,0.1-0.4,0.1-0.6,0.2C62.3,26.8,61.8,33.6,61.5,40.4z"
	/>
<path d="M53,47.7L53,47.7C53,47.7,53,47.7,53,47.7C53,47.7,53,47.7,53,47.7z"/>
<path d="M53,61.3h10.8v-9.1c-3.6-0.2-7.2-0.4-10.8-0.5V61.3z"/>
<path d="M60.1,41.7c-1.9-0.2-3.9-0.3-5.8-0.5c-0.4,0-0.9,0-1.3-0.1v6.5c0,0,0,0,0,0C55.5,45.8,57.8,43.9,60.1,41.7z"/>
<path d="M61.5,41.8c-0.1,2.1-0.1,4.3-0.1,6.4c0.8-1.6,1.6-3.1,2.5-4.7V42C63,41.9,62.2,41.9,61.5,41.8z"/>
<path d="M53,47.7C53,47.7,53,47.7,53,47.7l0,4.1c3.6,0.1,7.2,0.3,10.8,0.5v-1.6C60.2,49.7,56.6,48.7,53,47.7z"/>
<path d="M61.5,41.8c-0.4,0-0.9-0.1-1.3-0.1c-2.3,2.2-4.7,4.1-7.1,6c3.6,1.1,7.2,2.1,10.8,2.9v-7c-0.8,1.5-1.7,3.1-2.5,4.7
	C61.3,46.1,61.4,44,61.5,41.8z"/>
<path d="M45.5,22.5c5.7-1.1,11.4-2,17.1-2.7c0-0.4,0-0.8,0-1.2H46.5L45.5,22.5z"/>
<path d="M63.8,19.7v-0.1c-0.2,0.1-0.4,0.2-0.7,0.2C63.4,19.8,63.6,19.8,63.8,19.7z"/>
<path d="M63.1,19.8c0.2-0.1,0.4-0.2,0.7-0.2v-0.9h-1.2c0,0.4,0,0.8,0,1.2C62.8,19.9,63,19.8,63.1,19.8z"/>
<path d="M97.9,18.8c0,0-0.1-0.1-0.1-0.1h-2.3C96.2,18.7,97.1,18.8,97.9,18.8z"/>
<path d="M98.4,18.8l-0.1-0.1h-0.6c0,0,0.1,0.1,0.1,0.1C98,18.8,98.2,18.8,98.4,18.8z"/>
<path d="M107.7,46.5c0.6,0.8,1.2,1.5,1.9,2.2l-1-2.8C108.3,46.1,108,46.3,107.7,46.5z"/>
<path d="M107.7,46.5c0.3-0.2,0.6-0.4,0.9-0.6l-0.4-1c-0.3,0.4-0.6,0.7-0.9,1.1C107.5,46.2,107.6,46.4,107.7,46.5z"/>
<path d="M95.7,45.1h-6.1c-0.8,3-1.8,6.1-2.4,9.2h9.3c3.3-2.2,6.5-4.5,9.8-6.7c0.4-0.5,0.7-1,1.1-1.5c-0.4-0.5-0.8-1-1.2-1.5
	c-3.6-0.2-7.2-0.3-10.8-0.5L95.7,45.1z"/>
<path d="M78,53c-2.3-0.1-4.5-0.2-6.8-0.3l-3.3,8.7h13.4l1.5-5.1c-0.2-1-0.3-2-0.4-3C81,53.2,79.5,53.1,78,53z"/>
<path d="M87.2,54.3c0.7-3.1,1.6-6.2,2.4-9.2h-3.3l0.4-1.5c-1.6-0.1-3.3-0.2-4.9-0.3c0.1,3.3,0.3,6.6,0.6,9.9c1.6,0,3.3,0.1,4.9,0.1
	c-1.6,0.1-3.3,0.1-4.9,0c0.1,1,0.2,2,0.4,3l0.6-2H87.2z"/>
<path d="M106.2,47.6c0.5-0.3,1-0.7,1.5-1c-0.1-0.1-0.2-0.3-0.4-0.4C107,46.6,106.6,47.1,106.2,47.6z"/>
<path d="M108.2,45l-0.1-0.3c-0.6,0-1.3-0.1-1.9-0.1c0.4,0.5,0.8,1,1.2,1.5C107.6,45.7,107.9,45.4,108.2,45z"/>
<path d="M82.5,53.2c0,0,0-0.1,0-0.1c-1.5,0-3-0.1-4.5-0.2C79.5,53.1,81,53.2,82.5,53.2z"/>
<path d="M87.3,53.2c-1.6,0-3.2,0-4.9-0.1c0,0,0,0.1,0,0.1C84.1,53.3,85.7,53.3,87.3,53.2z"/>
<path d="M71.4,52.1l-0.2,0.5c2.3,0.1,4.5,0.3,6.8,0.3C75.8,52.8,73.6,52.5,71.4,52.1z"/>
<path d="M71.4,52.1c2.2,0.4,4.4,0.6,6.6,0.8c1.5,0.1,3,0.1,4.5,0.2c-0.4-3.3-0.5-6.6-0.6-9.9c-2.3-0.1-4.6-0.3-7-0.4L71.4,52.1z"/>
<path d="M96.5,54.3h1.9l0.7,2.4c2.4-3,4.7-6.1,7.1-9.1C103,49.8,99.7,52,96.5,54.3z"/>
<path d="M106.2,47.6c-2.3,3.1-4.7,6.1-7.1,9.1l1.4,4.6h13.8l-4.7-12.6c-0.7-0.7-1.3-1.4-1.9-2.2C107.2,46.9,106.7,47.2,106.2,47.6z"
	/>
<path d="M74.9,42.8c2.3,0.2,4.6,0.3,7,0.4c-0.2-5.6-0.2-11.2-0.8-16.7L74.9,42.8z"/>
<path d="M84,18.7l-2.7,7.3c4-0.3,7.8,0.6,9.1,3.3c0.2,0.4,0.3,0.7,0.5,1.1l0.2-0.6l4.4,14.3c3.6,0.2,7.2,0.3,10.8,0.5
	c-1-1.4-2-2.8-2.8-4.3c-3.4-6.8-1.7-17.2-5.5-21.4c-0.8,0-1.6-0.1-2.4-0.1H84z"/>
<path d="M106.2,44.6c0.6,0,1.3,0.1,1.9,0.1l-9.7-25.8c-0.2,0-0.3,0-0.5,0c3.7,4.2,2.1,14.6,5.5,21.4
	C104.2,41.7,105.2,43.2,106.2,44.6z"/>
<path d="M81.2,25.9L81,26.6c0.6,5.5,0.7,11.1,0.8,16.7c1.6,0.1,3.3,0.2,4.9,0.3l4-13.3c-0.1-0.4-0.3-0.7-0.5-1.1
	C89,26.5,85.2,25.6,81.2,25.9z"/>
<path d="M133,50.8h-1.3v-5.4c-3.4-0.1-6.8-0.2-10.2-0.3c-0.9,2.1-1.9,4.2-3,6.2v4.9c3.3,2.1,6.8,3.8,10.4,5h1.3
	C131,57.8,132,54.3,133,50.8z"/>
<path d="M118.5,61.3H129c-3.6-1.2-7.2-2.9-10.4-5V61.3z"/>
<path d="M137.6,61.3h6.7c-0.6-2.7-0.8-5.9-1.9-8.1C141.3,56.1,139.5,58.7,137.6,61.3z"/>
<path d="M118.5,51.3c1.1-2,2.1-4.1,3-6.2c-1,0-2-0.1-3-0.1V51.3z"/>
<path d="M137.6,61.3c1.9-2.6,3.7-5.2,4.8-8.1c1.1,2.2,1.3,5.4,1.9,8.1h8V50.8H133c-1.1,3.5-2,7-2.8,10.5H137.6z"/>
<path d="M130.5,22.5c-3.4-0.4-6.8-0.8-10.2-1.3c-0.6-0.1-1.2-0.2-1.8-0.3V39c2.5-1.8,5-3.5,7.5-5.3
	C127.5,29.9,128.9,26.2,130.5,22.5z"/>
<path d="M121.5,45.1c3.4,0.1,6.8,0.2,10.2,0.3V29.7c-1.9,1.4-3.8,2.7-5.7,4C124.6,37.5,123.1,41.4,121.5,45.1z"/>
<path d="M121.5,45.1c1.6-3.7,3.1-7.6,4.5-11.4c-2.5,1.8-5,3.5-7.5,5.3v6C119.5,45.1,120.5,45.1,121.5,45.1z"/>
<path d="M131.7,29.7v-7c-0.4,0-0.8-0.1-1.2-0.1c-1.6,3.7-3.1,7.4-4.5,11.2C127.9,32.4,129.8,31,131.7,29.7z"/>
<path d="M131.7,18.7h-13.2v2.3c0.6,0.1,1.2,0.2,1.8,0.3c3.4,0.5,6.8,0.9,10.2,1.3c0.4-0.9,0.8-1.7,1.2-2.5V18.7z"/>
<path d="M131.7,20c-0.4,0.8-0.8,1.7-1.2,2.5c0.4,0,0.8,0.1,1.2,0.1V20z"/>
<path d="M185.1,33.8l1.1-0.3c2.3-1.9,4.7-3.7,7.2-5.1c-1.6-0.1-3.2-0.2-4.8-0.3c-1.2,1.8-2.5,3.6-3.7,5.3
	C185,33.5,185.1,33.7,185.1,33.8z"/>
<path d="M155.7,39.9c0,2.1,0.2,4.1,0.5,5.9c4.4,0,8.8,0.1,13.2,0.1c-0.4-1.6-0.6-3.7-0.6-6.1c0-3.8,0.6-6.6,1.8-8.4
	c1.1-1.6,2.5-2.7,4.2-3.2c-0.1-0.4-0.3-0.8-0.4-1.2c-5-0.4-9.9-0.8-14.9-1.3C157,29.3,155.7,34,155.7,39.9z"/>
<path d="M196.8,31.2c-0.3-0.9-0.7-1.8-1-2.7c-0.8,0-1.5-0.1-2.3-0.2c-2.5,1.4-4.9,3.2-7.2,5.1L196.8,31.2z"/>
<path d="M177.6,27.8c1.3,0,2.5,0.3,3.6,0.8c1.1,0.5,2,1.3,2.7,2.3c0.4,0.5,0.8,1.4,1.1,2.4c1.2-1.8,2.5-3.5,3.7-5.3
	c-4.7-0.3-9.5-0.7-14.2-1.1c0.1,0.4,0.3,0.8,0.4,1.2C175.7,27.9,176.6,27.8,177.6,27.8z"/>
<path d="M185.1,45.9c2.3,0,4.7,0,7,0l-6.5-2C185.5,44.6,185.3,45.2,185.1,45.9z"/>
<path d="M156.2,45.8c0.5,2.7,1.4,5.1,2.7,7.1c0.9,1.4,1.9,2.6,2.9,3.7c0.2-0.1,0.4-0.3,0.6-0.4c2.9-2.2,5.6-4.7,8.3-7.3
	c-0.5-0.8-0.9-1.8-1.1-3C165,45.9,160.6,45.8,156.2,45.8z"/>
<path d="M192.1,45.8c-2.3,0-4.7,0-7,0c-0.6,1.7-1.3,3.1-2.3,4.2c-1.3,1.4-3.2,2.1-5.7,2.1c-2.6,0-4.6-0.9-6-2.6
	c-0.2-0.2-0.3-0.4-0.4-0.6c-2.7,2.6-5.4,5.1-8.3,7.3c-0.2,0.1-0.4,0.3-0.6,0.4c1.4,1.5,3,2.6,4.7,3.4c2.4,1.1,5.4,1.8,9,1.9
	c5.6-3.9,11.1-8.2,15.9-10.8c2-1,3.8-2.1,5.6-3.2c0.1-0.2,0.1-0.4,0.2-0.6L192.1,45.8z"/>
<path d="M175.5,62c0.8,0,1.6,0.1,2.4,0.1c3.8,0,7-0.6,9.4-1.7c2.5-1.1,4.5-2.7,6.2-4.9c1.6-2,2.7-4.5,3.5-7.5
	c-1.8,1.2-3.7,2.2-5.6,3.2C186.6,53.8,181.1,58.1,175.5,62z"/>
<path d="M159.6,25.7c5,0.5,9.9,0.9,14.9,1.3c-1-2.9-2-5.7-3.1-8.5c-4.1,0.8-7.5,2.5-10.1,5.1C160.7,24.3,160.1,25,159.6,25.7z"/>
<path d="M195.7,28.6c-0.2-0.4-0.3-0.7-0.5-1.1c-0.6,0.3-1.2,0.6-1.7,0.9C194.2,28.5,195,28.5,195.7,28.6z"/>
<path d="M188.7,28.1c1.1-1.7,2.3-3.3,3.4-5c-0.7-0.7-1.4-1.3-2.2-1.9c-3.1-2.2-7.3-3.3-12.7-3.3c-2.1,0-4,0.2-5.9,0.6
	c1.1,2.8,2.1,5.6,3.1,8.5C179.2,27.4,184,27.7,188.7,28.1z"/>
<path d="M193.5,28.4c0.6-0.3,1.1-0.6,1.7-0.9c-0.9-1.7-1.9-3.2-3.1-4.4c-1.1,1.7-2.2,3.4-3.4,5C190.3,28.2,191.9,28.3,193.5,28.4z"
	/>
<path d="M223.9,27.9c2.6,0,4.6,0.8,6.2,2.4c4.9,0.2,9.7,0.4,14.6,0.5c-1-2.8-2.4-5.2-4.4-7.2c-3.5-3.5-8.5-5.4-14.8-5.7
	c-2.1,3.6-4.1,7.2-5.8,10.9C220.9,28.3,222.3,27.9,223.9,27.9z"/>
<path d="M214.4,25c0,1.5-0.1,3.1-0.1,4.6c1.3,0.1,2.6,0.1,3.8,0.2c-1-1.5-1.9-3-2.8-4.6C215,25.1,214.7,25.1,214.4,25z"/>
<path d="M207.2,24.3c-1.3,1.4-2.4,3-3.2,4.8c3.4,0.2,6.8,0.4,10.2,0.5c0-1.5,0.1-3.1,0.1-4.6C211.9,24.5,209.5,24.2,207.2,24.3z"/>
<path d="M207.2,24.3c2.3-0.1,4.6,0.2,7.1,0.7c0-1.8,0-3.7,0-5.5c-2.6,1-4.8,2.4-6.6,4.2C207.6,23.9,207.4,24.1,207.2,24.3z"/>
<path d="M214.4,25c0.3,0.1,0.6,0.1,1,0.2c0.9,1.6,1.8,3.1,2.8,4.6c0.1,0,0.2,0,0.3,0c0.4-0.3,0.8-0.6,1.3-0.9
	c1.7-3.7,3.7-7.3,5.8-10.9c-0.5,0-1.1-0.1-1.6-0.1c-3.6,0-6.8,0.5-9.6,1.6C214.4,21.4,214.4,23.2,214.4,25z"/>
<path d="M214.2,35.5c0.5-0.4,1-0.7,1.5-1.1c0.4-1.5,1-2.7,1.8-3.7c0.2-0.3,0.5-0.5,0.7-0.8c0-0.1-0.1-0.1-0.1-0.2
	c-1.3-0.1-2.6-0.1-3.8-0.2C214.2,31.6,214.2,33.5,214.2,35.5z"/>
<path d="M218.4,29.8c-0.1,0-0.2,0-0.3,0c0,0.1,0.1,0.1,0.1,0.2C218.3,29.9,218.4,29.9,218.4,29.8z"/>
<path d="M214.3,29.6c-3.4-0.2-6.8-0.3-10.2-0.5c-1.4,3.1-2.2,6.7-2.2,11c0,1.6,0.1,3,0.3,4.4c4-2.9,7.9-6,12-8.9
	C214.2,33.5,214.2,31.6,214.3,29.6z"/>
<path d="M215.7,34.4c-0.5,0.4-1,0.7-1.5,1.1c0,2.9,0,5.8,0.2,8.7c0.2-1,0.5-2,0.8-3c0-0.4,0-0.7,0-1.1
	C215.1,37.9,215.3,36,215.7,34.4z"/>
<path d="M214.2,35.5c-4.1,2.9-7.9,6-12,8.9c0.1,0.4,0.1,0.9,0.2,1.3c4.4,0,8.8-0.1,13.3-0.1c-0.3-1.3-0.5-2.8-0.6-4.4
	c-0.3,1-0.5,2-0.8,3C214.2,41.3,214.1,38.4,214.2,35.5z"/>
<path d="M221.3,61.9c1,0.1,2.1,0.1,3.2,0.1c4.7,0,8.7-0.9,11.9-2.7c3.1-1.8,5.5-4.2,7.2-7.4c-2.7-1.3-5.3-2.8-7.8-4.5
	C230.9,52.3,226.2,57.2,221.3,61.9z"/>
<path d="M245.7,45.2c-2.6,0-5.2,0.1-7.8,0.1c-0.7,0.7-1.5,1.5-2.2,2.2c2.5,1.7,5.1,3.2,7.8,4.5c0,0,0-0.1,0.1-0.1
	C244.6,50,245.3,47.8,245.7,45.2z"/>
<path d="M235.7,47.5c-1-0.7-2-1.4-3-2.1c-0.1,0-0.2,0-0.3,0c-0.4,1.7-1,3.1-1.8,4c-1.6,1.8-3.7,2.8-6.6,2.8c-2.8,0-4.9-0.9-6.5-2.8
	c-0.3-0.3-0.5-0.7-0.7-1c-1.6,3.7-3.2,7.4-4.6,11.2c0.1,0.1,0.3,0.1,0.4,0.2c2.4,1.2,5.4,1.9,8.8,2.2
	C226.2,57.2,230.9,52.3,235.7,47.5z"/>
<path d="M235.7,47.5c0.7-0.7,1.5-1.5,2.2-2.2c-1.7,0-3.5,0.1-5.2,0.1C233.7,46.1,234.7,46.8,235.7,47.5z"/>
<path d="M215.7,45.6c-4.4,0.1-8.8,0.1-13.3,0.1c0.5,2.5,1.3,4.8,2.4,6.7c1.9,3.2,4.3,5.5,7.3,7.1c1.5-3.8,3.1-7.5,4.6-11.2
	C216.3,47.5,215.9,46.7,215.7,45.6z"/>
<path d="M230.1,30.3c0.1,0.1,0.3,0.2,0.4,0.4c1.6,1.9,2.4,4.8,2.4,8.8c0,2.2-0.2,4.1-0.5,5.7c0.1,0.1,0.2,0.1,0.3,0.2
	c1.7,0,3.5,0,5.2-0.1c2.7-2.7,5.4-5.3,8.1-7.9c-0.2-2.4-0.6-4.6-1.3-6.6C239.9,30.7,235,30.5,230.1,30.3z"/>
<path d="M245.7,45.2c0.3-1.7,0.4-3.5,0.4-5.5c0-0.8,0-1.5-0.1-2.2c-2.8,2.6-5.5,5.2-8.1,7.9C240.5,45.3,243.1,45.2,245.7,45.2z"/>
<path d="M232.4,45.4c0.1,0,0.2,0,0.3,0c-0.1-0.1-0.2-0.1-0.3-0.2C232.4,45.2,232.4,45.3,232.4,45.4z"/>
<path d="M284.9,61.3h0.4c0-0.1,0-0.2,0-0.3C285.1,61.1,285,61.2,284.9,61.3z"/>
<path d="M258.5,57.5c-0.7,0.6-1.4,1.2-2.2,1.7c-0.3-0.8-0.5-1.7-0.8-2.6c-0.8-0.2-1.6-0.5-2.4-0.7v5.4h17.6c0-0.6,0-1.1,0-1.7
	C266.6,59.2,262.5,58.5,258.5,57.5z"/>
<path d="M253.2,48.5v7.4c0.8,0.3,1.6,0.5,2.4,0.7C254.7,53.9,253.9,51.2,253.2,48.5z"/>
<path d="M285.2,60.1c-4.8,0.2-9.7,0-14.4-0.5c0,0.6,0,1.1,0,1.7h14.1c0.1-0.1,0.3-0.2,0.4-0.3C285.2,60.7,285.2,60.4,285.2,60.1z"/>
<path d="M270.8,59.6c4.7,0.5,9.6,0.7,14.4,0.5c-0.1-3.2,0.2-6.2,0.6-9.3h-14.6C271,53.7,270.8,56.7,270.8,59.6z"/>
<path d="M285.3,61c0,0.1,0,0.2,0,0.3h0.3c0.1-0.2,0.1-0.5,0.2-0.7C285.6,60.7,285.4,60.9,285.3,61z"/>
<path d="M286.3,60.1c0.2,0,0.4,0,0.6,0v-0.5C286.7,59.7,286.5,59.9,286.3,60.1z"/>
<path d="M285.7,60.6c-0.1,0.2-0.1,0.5-0.2,0.7h1.4v-1.3c-0.2,0-0.4,0-0.6,0C286.1,60.3,285.9,60.4,285.7,60.6z"/>
<path d="M266.3,50.8v-1.3c-2.4,2.8-4.9,5.5-7.8,7.9c4,1,8.1,1.7,12.3,2.1c0-3,0.2-5.9,0.4-8.8H266.3z"/>
<path d="M285.2,60.1c0.2,0,0.4,0,0.6,0c0.4-1.7,0.7-3.3,1.1-5v-4.3h-1.1C285.5,53.9,285.1,57,285.2,60.1z"/>
<path d="M256.3,59.2c0.8-0.6,1.5-1.1,2.2-1.7c-1-0.3-2-0.5-3-0.8C255.8,57.5,256.1,58.4,256.3,59.2z"/>
<path d="M266.3,49.6v-4.7c-4.4,0.1-8.8,0.1-13.2,0.2v3.4c0.7,2.7,1.5,5.5,2.4,8.2c1,0.3,2,0.6,3,0.8
	C261.4,55.1,263.9,52.4,266.3,49.6z"/>
<path d="M285.2,60.1c0,0.3,0,0.6,0,0.9c0.2-0.1,0.3-0.3,0.5-0.4c0-0.2,0.1-0.3,0.1-0.5C285.6,60.1,285.4,60.1,285.2,60.1z"/>
<path d="M285.7,60.6c0.2-0.2,0.4-0.3,0.6-0.5c-0.2,0-0.3,0-0.5,0C285.8,60.3,285.7,60.4,285.7,60.6z"/>
<path d="M286.3,60.1c0.2-0.2,0.4-0.3,0.6-0.5v-4.5c-0.3,1.7-0.7,3.3-1.1,5C286,60.1,286.1,60.1,286.3,60.1z"/>
<path d="M253.2,31v0.1c0,0,0.1-0.1,0.1-0.1C253.3,31,253.2,31,253.2,31z"/>
<path d="M266.3,44.9V31.3c-4.4-0.1-8.7-0.2-13.1-0.3c0,0-0.1,0.1-0.1,0.1v13.9C257.6,45,262,45,266.3,44.9z"/>
<path d="M266.3,21.6c-4.6,2.8-8.9,6-13.1,9.4c4.4,0.1,8.7,0.2,13.1,0.3V21.6z"/>
<path d="M266.3,18.7h-13.2V31c0,0,0.1,0,0.1,0c4.1-3.4,8.5-6.6,13.1-9.4V18.7z"/>
<path d="M292.8,61.3h10.8v-3.4c-3.6,0.7-7.2,1.3-10.8,1.7V61.3z"/>
<path d="M292.8,54.5v5.1c3.6-0.4,7.2-0.9,10.8-1.7V45C300,48.2,296.4,51.4,292.8,54.5z"/>
<path d="M292.8,44.6v9.9c3.6-3.2,7.2-6.3,10.8-9.5v-0.5C299.9,44.5,296.3,44.5,292.8,44.6z"/>
<path d="M292.8,31.5v13c3.6,0,7.2-0.1,10.8-0.1v-13C299.9,31.6,296.3,31.5,292.8,31.5z"/>
<path d="M329.9,61.3h10.8V44.5c-3.6,0-7.2-0.1-10.8-0.1V61.3z"/>
<path d="M329.9,37.1c1.4-2.3,3.1-4.4,5.4-5.9c-1.8,0-3.6,0.1-5.4,0.1V37.1z"/>
<path d="M329.9,37.1v7.3c3.6,0,7.2,0,10.8,0.1V31.2c-1.8,0-3.6,0.1-5.4,0.1C333,32.8,331.4,34.8,329.9,37.1z"/>
<path d="M321.1,31.4c0.9-1.3,1.8-2.5,2.7-3.8c-1.1,0.9-2.3,1.8-3.4,2.8l-0.3,1C320.5,31.4,320.8,31.4,321.1,31.4z"/>
<path d="M335.4,18.7h-5.1c-2.2,3-4.4,5.9-6.5,9C327.6,24.6,331.5,21.6,335.4,18.7z"/>
<path d="M335.4,18.7c-4,2.9-7.9,5.9-11.7,9c-0.9,1.3-1.8,2.5-2.7,3.8c2.7,0,5.4-0.1,8.2-0.1l0.7-2.6v2.5c1.8,0,3.6-0.1,5.4-0.1
	c0,0,0,0,0.1-0.1c1.8-1.3,3.6-2.5,5.4-3.4v-9.1H335.4z"/>
<path d="M335.3,31.3c1.8,0,3.6,0,5.4-0.1v-3.4C338.9,28.7,337.1,29.9,335.3,31.3C335.3,31.2,335.3,31.2,335.3,31.3z"/>
<path d="M330.3,18.7h-6.9l-3,11.7c1.1-0.9,2.2-1.8,3.4-2.8C325.9,24.6,328.1,21.6,330.3,18.7z"/>
<path d="M303.5,31.5v-2.7l0.7,2.7c0.4,0,0.7,0,1.1,0c-1.5-4.3-3-8.6-4.2-12.9h-5c-1.3,3.3-2.4,6.7-3.3,10.2v2.7
	C296.3,31.5,299.9,31.6,303.5,31.5z"/>
<path d="M313.4,31.5l-3.3-12.8h-9c1.2,4.3,2.7,8.6,4.2,12.9C308,31.5,310.7,31.5,313.4,31.5z"/>
<path d="M292.8,18.7v10.2c1-3.4,2-6.8,3.3-10.2H292.8z"/>
<path d="M314.4,35.5l-1-4c-2.7,0-5.4,0-8.1,0c1.1,3,2.2,6.1,3.2,9.1C310.4,38.9,312.4,37.2,314.4,35.5z"/>
<path d="M309.6,44.5c0.9,0,1.7,0,2.6,0c1.1-1.6,2.2-3.2,3.3-4.9l-1.1-4.1c-2,1.7-4,3.4-6,5.2C308.9,41.9,309.2,43.2,309.6,44.5z"/>
<path d="M316.7,44.4l-1.2-4.8c-1.1,1.6-2.2,3.2-3.3,4.9C313.7,44.5,315.2,44.4,316.7,44.4z"/>
<path d="M306.9,42c0.5-0.5,1-0.9,1.5-1.3c-1-3-2.1-6.1-3.2-9.1c-0.4,0-0.7,0-1.1,0L306.9,42z"/>
<path d="M306.9,42l0.6,2.5c0.7,0,1.4,0,2.1,0c-0.4-1.3-0.7-2.5-1.2-3.8C307.9,41.1,307.4,41.6,306.9,42z"/>
<path d="M314.3,55.2c-1.3,0.4-2.5,0.7-3.8,1.1l1.3,5h9.8l4.3-16.9c0,0,0,0,0,0C323.3,49.3,320.3,53.7,314.3,55.2z"/>
<path d="M316.8,44.6l0-0.2c-1.5,0-3,0-4.5,0c-0.6,0.9-1.2,1.8-1.8,2.8c-0.2-0.9-0.5-1.8-0.7-2.7c-0.7,0-1.4,0-2.1,0l3,11.8
	c1.3-0.3,2.5-0.7,3.8-1.1c6-1.5,9-5.9,11.6-10.8c-3,0-6.1,0-9.1,0L316.8,44.6z"/>
<path d="M310.3,47.2c0.6-0.9,1.2-1.8,1.8-2.8c-0.9,0-1.7,0-2.6,0C309.9,45.4,310.1,46.3,310.3,47.2z"/>
<path d="M325.9,44.4L325.9,44.4C325.9,44.4,325.9,44.4,325.9,44.4C325.9,44.4,325.9,44.4,325.9,44.4z"/>
<path d="M321.1,31.4c-0.5,0.7-1,1.5-1.5,2.2l-2.8,10.8c3,0,6.1,0,9.1,0c0,0,0,0,0,0l3.3-13.1C326.5,31.4,323.8,31.4,321.1,31.4z"/>
<path d="M319.6,33.6c0.5-0.7,1-1.5,1.5-2.2c-0.3,0-0.7,0-1,0L319.6,33.6z"/>
<path d="M382.3,30.3v-2.5h8.4c0.6-0.4,1.2-0.7,1.8-1.1c1.8-2.8,3.8-5.5,5.9-8.1H369v6.1c3.8,1.3,7.5,3.2,11,5.6
	C380.8,30.4,381.5,30.3,382.3,30.3z"/>
<path d="M392.5,26.8c-0.6,0.4-1.2,0.7-1.8,1.1h1.1C392,27.5,392.3,27.1,392.5,26.8z"/>
<path d="M380,30.4c-3.5-2.4-7.2-4.3-11-5.6v5.9C372.7,30.5,376.4,30.5,380,30.4z"/>
<path d="M401.6,27.8v-0.1c-0.6,0-1.1,0.1-1.7,0.1H401.6z"/>
<path d="M401.6,22v-3.3h-3.2c-2.1,2.6-4.1,5.3-5.9,8.1C395.5,25.1,398.5,23.5,401.6,22z"/>
<path d="M399.9,27.8c0.6,0,1.1-0.1,1.7-0.1V22c-3.1,1.4-6.1,3-9.1,4.8c-0.2,0.4-0.5,0.7-0.7,1.1H399.9z"/>
<path d="M382.3,61.3V45.4c-0.1,0-0.2,0-0.3,0c-2.6,5.2-5,10.6-7.3,15.9H382.3z"/>
<path d="M369,56.4c0.1,1.7,0.2,3.3,0.3,5h5.3c2.3-5.3,4.7-10.6,7.3-15.9c-4.3-0.2-8.6-0.3-12.9-0.4V56.4z"/>
<path d="M369,61.3h0.3c-0.1-1.7-0.2-3.3-0.3-5V61.3z"/>
<path d="M369,43c4.4-3.3,8.7-6.5,13.2-9.7V32c-0.7-0.6-1.5-1.1-2.2-1.6c-3.7,0.1-7.3,0.2-11,0.3V43z"/>
<path d="M386.9,35.9c0.1-0.2,0.2-0.4,0.3-0.6h-1C386.5,35.5,386.7,35.7,386.9,35.9z"/>
<path d="M382.3,45.4v-0.7c-0.1,0.2-0.2,0.4-0.3,0.7C382,45.4,382.1,45.4,382.3,45.4z"/>
<path d="M386.3,35.3h-4v-1.9c-4.5,3.1-8.9,6.4-13.2,9.7v2c4.3,0.1,8.6,0.2,12.9,0.4c0.1-0.2,0.2-0.4,0.3-0.7v-0.9h0.4
	c1.4-2.7,2.8-5.4,4.2-8C386.7,35.7,386.5,35.5,386.3,35.3z"/>
<path d="M382.3,30.3c-0.7,0-1.5,0-2.2,0.1c0.7,0.5,1.5,1,2.2,1.6V30.3z"/>
<path d="M398.8,35.3h-11.5c-0.1,0.2-0.2,0.4-0.3,0.6c2.7,2.4,5.2,5.1,7.6,8h4.3V35.3z"/>
<path d="M386.9,35.9c-1.5,2.6-2.9,5.3-4.2,8h11.8C392.1,41,389.6,38.3,386.9,35.9z"/>
<path d="M417.3,47.2c-2.9-0.2-5.8-0.4-8.7-0.5v11.4c4.5-3.3,8.6-7,12.8-10.6C420.1,47.4,418.7,47.3,417.3,47.2z"/>
<path d="M421.9,51.7v-4.2c-0.1,0-0.2,0-0.4,0c-4.2,3.6-8.4,7.3-12.8,10.6v3.3h34.7c0.4-2.3,0.8-4.6,1.3-6.8v-2.8H421.9z"/>
<path d="M444.6,61.3v-6.8c-0.5,2.3-0.9,4.5-1.3,6.8H444.6z"/>
<path d="M421.9,47.5v-0.3c-0.1,0.1-0.2,0.2-0.4,0.3C421.6,47.5,421.7,47.5,421.9,47.5z"/>
<path d="M442.4,43.2v-8.7h-1.1c-5.4,2-10.1,5.2-14.6,8.7H442.4z"/>
<path d="M415,29.4c-2.1,0.1-4.2,0.1-6.3,0.2v0.2c2,0.1,4.1,0.2,6.1,0.3C414.8,29.9,414.9,29.7,415,29.4z"/>
<path d="M414.7,30.1c-2-0.1-4.1-0.2-6.1-0.3v5c0.6,2.5,1.1,5,1.7,7.4C411.9,38.2,413.4,34.2,414.7,30.1z"/>
<path d="M421.9,30.6c-2.4-0.2-4.7-0.3-7.1-0.4c-1.4,4.1-2.8,8.1-4.4,12.1c-0.5-2.4-1.1-4.9-1.7-7.4v11.9c2.9,0.2,5.8,0.3,8.7,0.5
	c1.4,0.1,2.8,0.2,4.2,0.3c0.1-0.1,0.2-0.2,0.4-0.3v-3.9h4.8c4.5-3.5,9.2-6.6,14.6-8.7h-19.4V30.6z"/>
<path d="M421.9,30.6v-1.3c-2.3,0.1-4.6,0.1-6.9,0.2c-0.1,0.2-0.2,0.5-0.2,0.7C417.1,30.3,419.5,30.4,421.9,30.6z"/>
<path d="M415,29.4c0.2-0.7,0.5-1.4,0.7-2.1c-2.3,0-4.7,0-7,0.1v2.2C410.8,29.6,412.9,29.5,415,29.4z"/>
<path d="M415.7,27.4c1-2.9,1.9-5.8,2.8-8.7h-9.8v8.8C411,27.4,413.3,27.4,415.7,27.4z"/>
<path d="M444,27.8v-9.1h-2.6c0.7,3,1.3,6.1,1.9,9.1H444z"/>
<path d="M427.1,27.8h16.2c-0.6-3-1.2-6.1-1.9-9.1h-22.9c-0.9,2.9-1.9,5.8-2.8,8.7C419.5,27.4,423.3,27.5,427.1,27.8z"/>
<path d="M421.9,27.8h5.2c-3.8-0.2-7.6-0.4-11.4-0.4c-0.2,0.7-0.5,1.4-0.7,2.1c2.3-0.1,4.6-0.1,6.9-0.2V27.8z"/>
<path d="M470.9,27.3c1.7,0,3,0.2,3.9,0.5c5.1-0.1,10.1-0.2,15.2-0.3c-0.3-1.5-0.9-2.8-1.7-3.9c-1.3-1.9-3.1-3.2-5.2-3.9
	c-2.2-0.7-5.3-1-9.3-1h-5.4c0.6,2.9,1.2,5.7,1.7,8.6H470.9z"/>
<path d="M465.1,27.3h5c-0.5-2.9-1-5.8-1.7-8.6h-10.6c-1.8,3.1-3.4,6.4-4.9,9.7c4-0.1,8.1-0.2,12.1-0.3V27.3z"/>
<path d="M451.9,18.7v9.7c0.4,0,0.8,0,1.1,0c1.4-3.3,3.1-6.6,4.9-9.7H451.9z"/>
<path d="M474.9,52.4c0.7-0.9,1.3-1.8,2-2.7c-0.6,0-1.2,0-1.8,0C475.1,50.6,475,51.5,474.9,52.4z"/>
<path d="M475.1,49.7c-0.5,0-1,0-1.5,0c0.2,1,0.4,2,0.5,2.9l0.2,0.4c0.2-0.2,0.3-0.4,0.5-0.6C475,51.5,475.1,50.6,475.1,49.7z"/>
<path d="M472.6,49.7l1.6,2.9c-0.2-1-0.4-1.9-0.5-2.9C473.3,49.7,473,49.7,472.6,49.7z"/>
<path d="M474.5,53l0.4,0.7c0-0.4,0.1-0.9,0.1-1.3C474.8,52.6,474.6,52.8,474.5,53z"/>
<path d="M476.2,56.2l2.7,5.1h14.9l-5.9-11.4c-1.4,0-2.7-0.1-4.1-0.1C481.5,52.2,478.9,54.3,476.2,56.2z"/>
<path d="M474.9,52.4c0,0.4-0.1,0.9-0.1,1.3l1.4,2.5c2.7-1.9,5.3-4,7.6-6.4c-2.3,0-4.6-0.1-6.9-0.1C476.3,50.6,475.6,51.5,474.9,52.4
	z"/>
<path d="M451.9,49v12.3h7.2c2-1.7,4-3.4,6.1-5.1v-6.7C460.7,49.3,456.3,49.2,451.9,49z"/>
<path d="M465.1,61.3v-5.1c-2,1.7-4,3.4-6.1,5.1H465.1z"/>
<path d="M487.9,49.9l-0.5-1c-0.2-0.4-0.6-1-1.1-1.7c-0.8,0.9-1.6,1.8-2.5,2.6C485.2,49.9,486.6,49.9,487.9,49.9z"/>
<path d="M474.2,35.4c-0.3,0.1-0.5,0.1-0.7,0.2c4.2,1.1,8.3,2.4,12.4,3.7c1.1-1.1,2.2-2.2,3.3-3.2c0.4-0.7,0.7-1.5,0.9-2.4
	c-4.5,0.1-9,0.1-13.4,0c-0.1,0.2-0.2,0.3-0.3,0.4C475.7,34.7,475,35.2,474.2,35.4z"/>
<path d="M452,30.7c-0.1,0-0.1,0-0.2,0v0.4C451.9,31,452,30.9,452,30.7z"/>
<path d="M464.1,33.2c0.3,0,0.7,0,1,0v-5.2c-4,0.1-8.1,0.2-12.1,0.3c-0.3,0.8-0.7,1.6-1,2.4C456.1,31.5,460.1,32.3,464.1,33.2z"/>
<path d="M453,28.4c-0.4,0-0.8,0-1.1,0v2.3c0.1,0,0.1,0,0.2,0C452.4,30,452.7,29.2,453,28.4z"/>
<path d="M472.6,49.7L472.6,49.7c0.4,0,0.7,0,1.1,0c-0.1-0.3-0.1-0.6-0.2-0.9C473.2,49.1,472.9,49.4,472.6,49.7z"/>
<path d="M475.3,47.2c-0.6,0.5-1.2,1.1-1.8,1.6c0.1,0.3,0.1,0.6,0.2,0.9c0.5,0,1,0,1.5,0C475.2,48.9,475.3,48.1,475.3,47.2z"/>
<path d="M480.1,42.5c1.6-0.4,3-0.8,4-1.4c0.6-0.7,1.2-1.3,1.8-1.9c-4.1-1.3-8.3-2.6-12.4-3.7c-0.8,0.2-1.5,0.3-2,0.4
	c0.7,4.4,1.3,8.7,2.1,13c0.6-0.5,1.2-1.1,1.8-1.6c-0.1,0.8-0.1,1.7-0.2,2.5c0.6,0,1.2,0,1.8,0c1.7-2.2,3.4-4.4,5.2-6.4
	C481.5,43,480.9,42.8,480.1,42.5z"/>
<path d="M471.5,35.9c-0.3,0-0.6,0.1-0.8,0.1h-5.6v-2.5c-0.3-0.1-0.7-0.2-1-0.2c-4.1-0.2-8.1-0.4-12.2-0.6V49
	c4.4,0.2,8.8,0.3,13.2,0.4V44h1.2c1.2,0,2.3,0.3,3.2,1c0.7,0.5,1.5,1.6,2.4,3.3l0.7,1.4c0.3-0.3,0.6-0.5,0.9-0.8
	C472.8,44.6,472.1,40.2,471.5,35.9z"/>
<path d="M483.5,44.1c-0.3-0.3-0.8-0.5-1.4-0.8c-1.8,2.1-3.5,4.2-5.2,6.4c2.3,0,4.6,0.1,6.9,0.1c0.9-0.9,1.7-1.7,2.5-2.6
	c-0.2-0.3-0.4-0.6-0.7-0.9C484.7,45.2,484,44.4,483.5,44.1z"/>
<path d="M488.8,36.6c0.1-0.2,0.2-0.4,0.3-0.6c-1.1,1-2.2,2.1-3.3,3.2c0.2,0.1,0.4,0.1,0.7,0.2C487.4,38.6,488.2,37.7,488.8,36.6z"/>
<path d="M452,30.7c-0.1,0.1-0.1,0.3-0.2,0.4v1.4c4.1,0.2,8.1,0.5,12.2,0.6C460.1,32.3,456.1,31.5,452,30.7z"/>
<path d="M490,33.6c0.2-1,0.3-2,0.3-3.1c0-1.1-0.1-2.1-0.3-3c-5.1,0.1-10.1,0.2-15.2,0.3c0.4,0.2,0.7,0.3,1,0.6
	c0.9,0.7,1.3,1.8,1.3,3.2c0,0.7-0.2,1.4-0.5,2C481.1,33.7,485.5,33.7,490,33.6z"/>
<path d="M465.1,33.2c-0.3,0-0.7,0-1,0c0.3,0.1,0.7,0.2,1,0.2V33.2z"/>
<path d="M484.7,40.8c0.7-0.4,1.3-0.9,1.8-1.4c-0.2-0.1-0.4-0.1-0.7-0.2c-0.6,0.6-1.2,1.3-1.8,1.9C484.3,41,484.5,40.9,484.7,40.8z"
	/>
<path d="M512.3,21.4l-1.9-2.8h-12.3v5.2C503.2,21.9,507.9,21.2,512.3,21.4z"/>
<path d="M500.5,27.3c0.7,0,1.4,0,2.1,0c-0.1-0.4-0.2-0.7-0.3-1.1C501.7,26.6,501.1,26.9,500.5,27.3z"/>
<path d="M500.5,27.3c0.6-0.4,1.2-0.7,1.8-1.1c0.1,0.4,0.2,0.7,0.3,1.1c4.5-0.1,9-0.1,13.5-0.2l-3.8-5.6c-4.4-0.3-9.1,0.5-14.2,2.5
	v3.4C498.9,27.3,499.7,27.3,500.5,27.3z"/>
<path d="M510.5,61.3V50.1c-0.2,0-0.4,0-0.5,0c-0.8,3.7-1.5,7.5-2.1,11.2H510.5z"/>
<path d="M509.7,50.1c-1.4,0-2.8,0-4.2,0c0.1,1.5,0.1,3.1,0.1,4.6C507,53.1,508.4,51.6,509.7,50.1z"/>
<path d="M505.6,50.1c-2.5,0-5,0-7.5,0v11.3h1.9c1.9-2.2,3.8-4.5,5.7-6.7C505.7,53.1,505.6,51.6,505.6,50.1z"/>
<path d="M505.7,54.6c-1.9,2.2-3.8,4.4-5.7,6.7h5.7C505.7,59.1,505.7,56.9,505.7,54.6z"/>
<path d="M505.7,54.6c0,2.2,0,4.4,0,6.7h2.2c0.6-3.8,1.2-7.5,2.1-11.2c-0.1,0-0.1,0-0.2,0C508.4,51.6,507,53.1,505.7,54.6z"/>
<path d="M536.2,49.9c-5.8,0.1-11.6,0.2-17.4,0.2l2,3c5.4,2.2,10.8,4.2,16.3,5.9C536.5,55.9,536.3,52.9,536.2,49.9z"/>
<path d="M538.9,59.5v-9.7c-0.9,0-1.8,0-2.7,0c0.1,3,0.3,6,0.9,9.1C537.7,59.1,538.3,59.3,538.9,59.5z"/>
<path d="M538.9,59.5c-0.6-0.2-1.2-0.4-1.8-0.6c0.1,0.8,0.3,1.6,0.5,2.4h1.3V59.5z"/>
<path d="M520.8,53l5.7,8.3h11.1c-0.2-0.8-0.4-1.6-0.5-2.4C531.6,57.2,526.2,55.2,520.8,53z"/>
<path d="M503.8,33c-1.9,0.1-3.8,0.2-5.7,0.3v10.2c2.4,0.9,4.9,1.9,7.3,2.9C505.1,41.9,504.6,37.4,503.8,33z"/>
<path d="M498.1,43.5V50c2.5,0,5,0,7.5,0c0-1.2-0.1-2.5-0.2-3.7C503,45.4,500.6,44.4,498.1,43.5z"/>
<path d="M502.6,27.3c-0.7,0-1.4,0-2.1,0c-0.8,0.5-1.6,1-2.4,1.6v4.5c1.9-0.1,3.8-0.2,5.7-0.3C503.5,31.1,503.1,29.2,502.6,27.3z"/>
<path d="M505.6,50.1c1.4,0,2.8,0,4.2,0c0.1-0.1,0.2-0.2,0.3-0.3c0.1-0.4,0.2-0.9,0.3-1.3c-1.6-0.7-3.3-1.4-4.9-2.1
	C505.5,47.6,505.5,48.8,505.6,50.1z"/>
<path d="M503.8,33c0.8,4.4,1.3,8.9,1.6,13.3c1.7,0.7,3.3,1.4,4.9,2.1c0.1-0.2,0.1-0.5,0.2-0.7v-9.8l1.9,2.8c0.9-3,1.9-5.9,3.1-8.7
	C511.6,32.4,507.7,32.8,503.8,33z"/>
<path d="M536.6,33.8c0.8,0.7,1.5,1.5,2.3,2.2v-1.1C538.1,34.5,537.4,34.2,536.6,33.8z"/>
<path d="M536.5,33.8c-0.1,5.4-0.5,10.7-0.3,16.1c0.9,0,1.8,0,2.7,0V36C538.1,35.3,537.4,34.5,536.5,33.8
	C536.6,33.8,536.6,33.8,536.5,33.8z"/>
<path d="M536.5,33.8c-0.4-0.2-0.8-0.4-1.2-0.6c-1-0.6-1.8-1.5-2.4-2.6c-0.4-0.4-0.9-0.7-1.3-1c0,0,0,0-0.1,0c-1.7,1.3-3.4,2.6-5.1,4
	v8.7l-3.7-5.4c-2.7,2.4-5.3,5-7.8,7.6l3.8,5.6c5.8,0,11.6-0.1,17.4-0.2C536.1,44.5,536.5,39.2,536.5,33.8z"/>
<path d="M522.8,36.8l-3.6-5.3c-1.2,0.2-2.5,0.3-3.7,0.4c-1.2,2.8-2.2,5.7-3.1,8.7l2.6,3.8C517.5,41.8,520.1,39.3,522.8,36.8z"/>
<path d="M515.5,32c0.5-1.2,1-2.4,1.6-3.6l-0.9-1.3c-4.5,0.1-9,0.1-13.5,0.2c0.5,1.9,0.9,3.8,1.2,5.7C507.7,32.8,511.6,32.4,515.5,32
	z"/>
<path d="M531.6,29.5c0.4,0.3,0.9,0.7,1.3,1c-0.2-0.4-0.4-0.8-0.5-1.2C532.2,29.4,531.9,29.5,531.6,29.5z"/>
<path d="M532.3,29c-0.2,0.2-0.4,0.3-0.7,0.5c0,0,0,0,0,0c0.3,0,0.5-0.1,0.8-0.1C532.4,29.3,532.3,29.2,532.3,29z"/>
<path d="M532.9,30.6c0.6,1.1,1.4,2,2.4,2.6c0.4,0.2,0.8,0.4,1.2,0.6c0,0,0,0,0,0C535.4,32.6,534.2,31.6,532.9,30.6z"/>
<path d="M536.5,33.8C536.6,33.8,536.6,33.8,536.5,33.8C536.6,33.8,536.6,33.8,536.5,33.8C536.5,33.8,536.5,33.8,536.5,33.8z"/>
<path d="M498.1,27.3v1.5c0.8-0.5,1.6-1,2.4-1.6C499.7,27.3,498.9,27.3,498.1,27.3z"/>
<path d="M536.5,33.8C536.6,33.8,536.6,33.8,536.5,33.8c0.8,0.4,1.6,0.8,2.3,1.1v-8c-0.8,0-1.7,0-2.5,0
	C536.5,29.2,536.6,31.5,536.5,33.8z"/>
<path d="M510.5,48.5v-0.8c-0.1,0.2-0.1,0.5-0.2,0.7C510.4,48.5,510.4,48.5,510.5,48.5z"/>
<path d="M531.6,29.5C531.6,29.5,531.6,29.5,531.6,29.5C531.6,29.5,531.6,29.5,531.6,29.5C531.6,29.5,531.6,29.5,531.6,29.5z"/>
<path d="M533.3,29.2c0.5,0,1.1-0.9,1.4-1.9c-0.8,0.6-1.7,1.2-2.5,1.8c0,0.1,0.1,0.2,0.1,0.4C532.7,29.3,533,29.3,533.3,29.2z"/>
<path d="M532.3,29c-0.2-0.7-0.4-1.4-0.5-2.1c-1.3,0-2.5,0-3.8,0c1.2,0.8,2.4,1.6,3.6,2.6C531.8,29.3,532.1,29.2,532.3,29z"/>
<path d="M534.8,27.3c0-0.1,0.1-0.2,0.1-0.4c-1,0-2.1,0-3.1,0c0.1,0.7,0.3,1.4,0.5,2.1C533.1,28.4,533.9,27.8,534.8,27.3z"/>
<path d="M531.6,29.5c-1.2-0.9-2.4-1.8-3.6-2.6c-0.5,0-1,0-1.6,0v3.5C528.2,30.2,529.9,29.9,531.6,29.5
	C531.6,29.5,531.6,29.5,531.6,29.5z"/>
<path d="M519.2,31.5l-2.1-3.1c-0.5,1.2-1.1,2.4-1.6,3.6C516.7,31.8,517.9,31.7,519.2,31.5z"/>
<path d="M531.6,29.5c-1.7,0.3-3.4,0.6-5.1,0.9v3.1C528.1,32.2,529.8,30.8,531.6,29.5z"/>
<path d="M510.3,48.4c-0.1,0.4-0.2,0.9-0.3,1.3c0.2-0.2,0.3-0.3,0.5-0.5v-0.7C510.4,48.5,510.4,48.5,510.3,48.4z"/>
<path d="M509.7,50.1c0.1,0,0.1,0,0.2,0c0-0.1,0-0.2,0.1-0.3C509.9,49.8,509.8,50,509.7,50.1z"/>
<path d="M533.3,29.2c-0.3,0.1-0.6,0.1-0.9,0.2c0.2,0.4,0.3,0.8,0.5,1.2c1.2,1,2.4,2.1,3.6,3.2c0-2.3,0-4.5-0.2-6.9
	c-0.4,0-0.7,0-1.1,0c-0.2,0.1-0.4,0.2-0.5,0.4C534.4,28.4,533.9,29.2,533.3,29.2z"/>
<path d="M535.3,26.9c-0.1,0-0.3,0-0.4,0c0,0.1-0.1,0.2-0.1,0.4C535,27.1,535.1,27,535.3,26.9z"/>
<path d="M510,50.1c0.2,0,0.4,0,0.5,0v-0.8c-0.2,0.2-0.3,0.3-0.5,0.5C510,49.8,510,50,510,50.1z"/>
<path d="M533,20.5c0.9,1.2,1.7,2.5,2.4,3.7c0,0.8-0.2,1.8-0.4,2.7c0.1,0,0.3,0,0.4,0c0.3-0.2,0.7-0.5,1-0.7c0,0.2,0,0.5,0,0.7
	c0.8,0,1.7,0,2.5,0v-8.2h-3.9C534.1,19.1,533.5,19.7,533,20.5z"/>
<path d="M535.3,24.2c-0.6-1.2-1.4-2.5-2.4-3.7c-1.1,1.7-1.5,4.1-1.2,6.4c1,0,2.1,0,3.1,0C535.2,26,535.3,25,535.3,24.2z"/>
<path d="M526.5,27c0.5,0,1,0,1.6,0c-0.5-0.3-1-0.7-1.6-1V27z"/>
<path d="M534.9,18.7h-3.4c0.5,0.6,1,1.2,1.5,1.8C533.5,19.7,534.1,19.1,534.9,18.7z"/>
<path d="M526.5,26c0.5,0.3,1,0.6,1.6,1c1.3,0,2.5,0,3.8,0c-0.3-2.3,0.1-4.7,1.2-6.4c-0.5-0.6-1-1.2-1.5-1.8h-5V26z"/>
<path d="M536.3,26.2c-0.3,0.2-0.7,0.5-1,0.7c0.4,0,0.7,0,1.1,0C536.4,26.7,536.4,26.4,536.3,26.2z"/>
<path d="M565.8,29.7l3.3,10.6c3.1-2.4,6.3-4.7,9.7-6.9l-2.4-6.4c-6.9-0.1-13.7-0.2-20.6-0.2L551,39.3c3.7,1.1,7.3,1.9,11.1,2.6
	L565.8,29.7z"/>
<path d="M570.5,45.1H563c-1.8,1.4-3.6,2.9-5.5,4.4c9-0.2,18-0.5,26.9-0.8l-1.8-4.7c-4.3-0.1-8.5-0.4-12.7-0.9L570.5,45.1z"/>
<path d="M563,45.1h-1.8l0.9-3.1c-3.7-0.7-7.4-1.5-11.1-2.6l-2.6,7c1.1,1.2,2.3,2.2,3.6,3.2c1.9,0,3.7-0.1,5.6-0.1
	C559.3,48,561.2,46.5,563,45.1z"/>
<path d="M569.9,43.1c4.2,0.5,8.5,0.8,12.7,0.9l-3.9-10.5c-3.3,2.2-6.5,4.5-9.7,6.9L569.9,43.1z"/>
<path d="M548.4,46.4l-1.2,3.3c1.6,0,3.2-0.1,4.8-0.1C550.7,48.6,549.5,47.5,548.4,46.4z"/>
<path d="M547.2,49.7L543,60.8c0,0,0,0,0.1,0c4-3,7.9-6.1,11.8-9.2c-1-0.6-2-1.3-2.9-2C550.4,49.6,548.8,49.6,547.2,49.7z"/>
<path d="M543,60.9l-0.2,0.5h2.1C544.3,61.1,543.7,61,543,60.9C543,60.8,543,60.8,543,60.9z"/>
<path d="M586.7,54.6c-0.2,0.1-0.4,0.2-0.6,0.2c-0.1,2.1-0.1,4.3-0.1,6.4h3.1L586.7,54.6z"/>
<path d="M586.1,54.9c0.2-0.1,0.4-0.2,0.6-0.2l-0.5-1.3C586.2,53.8,586.2,54.4,586.1,54.9z"/>
<path d="M543,60.8L543,60.8C543,60.8,543,60.8,543,60.8C543,60.8,543,60.8,543,60.8z"/>
<path d="M558.3,54.3h1.8c-1.8-0.8-3.6-1.7-5.3-2.7c-3.9,3.1-7.8,6.2-11.8,9.2c0.6,0.2,1.2,0.4,1.8,0.5h11.4L558.3,54.3z"/>
<path d="M586.1,54.9c-3.8,1.5-7.9,2.2-12,2.2l1.3,4.2h10.7C586,59.2,586.1,57,586.1,54.9z"/>
<path d="M586.2,53.3l-1.7-4.7c-9,0.3-18,0.5-26.9,0.8c-0.9,0.7-1.8,1.4-2.7,2.1c1.7,1,3.4,1.9,5.3,2.7h13.1l0.9,2.8
	c4.1,0,8.2-0.7,12-2.2C586.2,54.4,586.2,53.8,586.2,53.3z"/>
<path d="M552,49.6c0.9,0.7,1.9,1.4,2.9,2c0.9-0.7,1.8-1.4,2.7-2.1C555.7,49.5,553.8,49.5,552,49.6z"/>
<path d="M573.2,18.7h-14.4l-3.1,8.2c6.9,0,13.7,0.1,20.6,0.2L573.2,18.7z"/>
<path d="M621.8,26.3c0.5,0.3,1,0.6,1.5,0.9c2.3-0.1,4.5-0.1,6.8-0.2c1.4-0.4,2.7-0.7,4.1-1v-6.1c-0.3-0.2-0.6-0.4-0.9-0.6
	c-0.5-0.2-0.9-0.4-1.4-0.5h-10.1V26.3z"/>
<path d="M634.2,19.8v-1.2h-2.3c0.5,0.2,1,0.3,1.4,0.5C633.6,19.4,633.9,19.6,634.2,19.8z"/>
<path d="M634.2,26c-1.4,0.3-2.7,0.7-4.1,1c1.4,0,2.7-0.1,4.1-0.1V26z"/>
<path d="M621.8,27.2c0.5,0,1,0,1.5,0c-0.5-0.3-1-0.6-1.5-0.9V27.2z"/>
<path d="M593.5,27.4c3.8,0.1,7.7,0.1,11.5,0.1c0.7-2.3,1.7-4.2,3.3-5.2l-0.6-0.9c-4.6-1-9.3-1.9-13.9-2.7h-0.2V27.4z"/>
<path d="M605.8,18.7h-12.1c4.6,0.7,9.3,1.6,13.9,2.7L605.8,18.7z"/>
<path d="M608.2,22.3c-1.5,1-2.5,2.9-3.3,5.2c2.2,0,4.5,0,6.8,0L608.2,22.3z"/>
<path d="M604.9,61.3h1v-5.1c-0.2,0-0.5,0-0.7,0C605.1,58,605,59.6,604.9,61.3z"/>
<path d="M604.8,47.9c0.4,2.8,0.5,5.6,0.4,8.4c0.2,0,0.5,0,0.7,0v-8.4C605.5,47.9,605.1,47.9,604.8,47.9z"/>
<path d="M596.3,56.2c0.1-0.7,0.2-1.4,0.4-2c-1.1,1.3-2.2,2.6-3.3,3.9v3.2h11.4c0.1-1.7,0.2-3.4,0.3-5
	C602.2,56.4,599.3,56.3,596.3,56.2z"/>
<path d="M601.9,48c-1,0-2.1,0.1-3.1,0.1c-0.9,1.9-1.6,3.9-2.1,6C598.5,52.1,600.2,50.1,601.9,48z"/>
<path d="M598.8,48.1c-0.9,0-1.8,0.1-2.7,0.1c-0.8,0.9-1.7,1.6-2.6,2.4v7.5c1.1-1.3,2.2-2.6,3.3-3.9C597.2,52,597.9,50,598.8,48.1z"
	/>
<path d="M596.3,56.2c3,0.1,5.9,0.1,8.8,0.1c0.1-2.8,0-5.6-0.4-8.4c-1,0-1.9,0.1-2.9,0.1c-1.7,2-3.5,4.1-5.2,6.1
	C596.6,54.8,596.4,55.5,596.3,56.2z"/>
<path d="M593.5,50.6c0.9-0.7,1.8-1.5,2.6-2.4c-0.9,0-1.7,0.1-2.6,0.1V50.6z"/>
<path d="M609.3,42.9c4-0.4,8.1-0.8,12.1-1.3l-6.1-9c-3.3,1.7-6.3,3.7-9,5.9L609.3,42.9z"/>
<path d="M601.6,43.5c1.2-1.7,2.7-3.2,4.3-4.6v-1l0.4,0.6c2.6-2.3,5.6-4.2,9-5.9l-3.5-5.1c-2.3,0-4.5,0-6.8,0
	c-1.5,4.8-2.2,11.4-5.3,16.2C600.3,43.6,601,43.5,601.6,43.5z"/>
<path d="M596.1,48.3c1.2-1.2,2.3-2.6,3.3-4c0.1-0.2,0.2-0.4,0.4-0.6c-2.1,0.1-4.2,0.2-6.2,0.3v4.4C594.3,48.3,595.2,48.3,596.1,48.3
	z"/>
<path d="M634.2,40v-3.9c-2.9-2.7-5.9-5.3-9-7.6c-1.1,0.4-2.3,0.8-3.4,1.2v11.9C626,41.1,630.1,40.5,634.2,40z"/>
<path d="M605,27.5c-3.8,0-7.7,0-11.5-0.1v16.5c2.1-0.1,4.2-0.2,6.2-0.3C602.8,38.9,603.4,32.2,605,27.5z"/>
<path d="M598.8,48.1c1,0,2.1-0.1,3.1-0.1c0.8-0.9,1.6-1.9,2.4-2.8c0.2,0.9,0.3,1.8,0.4,2.7c0.4,0,0.7,0,1.1,0v-4.7
	c-1.4,0.1-2.8,0.2-4.3,0.3C600.5,45,599.6,46.5,598.8,48.1z"/>
<path d="M623.3,27.2c-0.5,0-1,0-1.5,0v2.4c1.1-0.4,2.2-0.8,3.4-1.2C624.6,28,624,27.6,623.3,27.2z"/>
<path d="M601.6,43.5c1.4-0.1,2.8-0.2,4.3-0.3v-4.3C604.3,40.3,602.8,41.8,601.6,43.5z"/>
<path d="M599.7,43.6c-0.1,0.2-0.2,0.4-0.4,0.6c-1,1.5-2.1,2.8-3.3,4c0.9,0,1.8-0.1,2.7-0.1c0.8-1.7,1.7-3.2,2.8-4.6
	C601,43.5,600.3,43.6,599.7,43.6z"/>
<path d="M601.9,48c1,0,1.9-0.1,2.9-0.1c-0.1-0.9-0.3-1.8-0.4-2.7C603.5,46.2,602.7,47.1,601.9,48z"/>
<path d="M630.1,27c-2.3,0.1-4.5,0.1-6.8,0.2c0.6,0.4,1.3,0.8,1.9,1.3C626.8,27.9,628.5,27.4,630.1,27z"/>
<path d="M621.8,42.3l-0.5-0.7c-4,0.5-8.1,0.9-12.1,1.3l3.2,4.7c7.3-0.3,14.5-0.6,21.8-0.9V40c-4.1,0.5-8.3,1.1-12.4,1.6V42.3z"/>
<path d="M634.2,36.1v-9.2c-1.4,0-2.7,0.1-4.1,0.1c-1.7,0.4-3.3,0.9-4.9,1.5C628.4,30.7,631.4,33.4,634.2,36.1z"/>
<path d="M621.8,61.3h12.4v-8.6c-5.5,1.1-11,2-16.5,2.7L621.8,61.3z"/>
<path d="M612.5,47.6l5.3,7.7c5.5-0.6,11-1.6,16.5-2.7v-6C627,47,619.7,47.3,612.5,47.6z"/>
<path d="M658.3,53.2c-3.1-0.9-6-2.2-8.6-4c-2.2,0.5-4.4,1-6.5,1.5v4.1c0.4,2,1.1,3.8,2,5.5c3.2-1.7,6.6-3.2,10.1-4.2
	c-0.2,1.7-0.3,3.4-0.3,5.1h3.4c2-2.4,4-4.7,6-7C662.3,54,660.2,53.6,658.3,53.2z"/>
<path d="M643.6,61.3h2.1c-0.2-0.3-0.4-0.6-0.5-0.9C644.7,60.7,644.1,61,643.6,61.3z"/>
<path d="M655.3,56.2c-3.6,1.1-6.9,2.5-10.1,4.2c0.2,0.3,0.3,0.6,0.5,0.9h9.3C655,59.6,655.1,57.9,655.3,56.2z"/>
<path d="M643.2,54.9v6.4h0.4c0.5-0.3,1.1-0.6,1.6-0.9C644.2,58.8,643.6,56.9,643.2,54.9z"/>
<path d="M682.2,44.5c-3.2,0.1-6.5,0.3-9.7,0.4c-2.5,3.1-5.2,6.2-8,9.3c4.2,0.6,8.9,0.9,13.6,0.8c1.1-1.4,2-2.9,2.8-4.6
	C681.5,48.9,681.9,46.9,682.2,44.5z"/>
<path d="M664.5,54.3c-2,2.3-4,4.6-6,7h4.3c2.3,0,5-0.4,7.8-1.2c2.1-0.6,4.1-1.7,5.9-3.4c0.6-0.5,1.1-1.1,1.6-1.7
	C673.3,55.2,668.7,54.9,664.5,54.3z"/>
<path d="M656.3,47.7v-2c-3.6,0.2-7.3,0.3-10.9,0.5c1.4,1.1,2.8,2.1,4.3,3.1C651.9,48.7,654.1,48.2,656.3,47.7z"/>
<path d="M658.3,53.2c1.9,0.4,4,0.8,6.1,1.1c2.8-3.1,5.5-6.2,8-9.3c-1,0-2.1,0.1-3.1,0.1c0,0.4,0,0.7,0,1.1c0-0.4,0-0.7,0-1.1
	c-0.2,0-0.4,0-0.5,0c-0.2,0.9-0.4,1.7-0.6,2.4c-0.7,1.5-1.6,2.6-2.7,3.2c-1.2,0.6-3.1,0.9-5.9,0.9h-3.2v-4c-2.2,0.5-4.4,1.1-6.6,1.6
	C652.4,51,655.2,52.3,658.3,53.2z"/>
<path d="M643.2,50.8c2.2-0.5,4.4-1,6.5-1.5c-1.5-0.9-2.9-2-4.3-3.1c-0.8,0-1.5,0.1-2.3,0.1V50.8z"/>
<path d="M643.2,38.8c4.4-0.6,8.8-1.1,13.2-1.5v-9h3.3c3.4,0,5.9,0.8,7.3,2.5c1.1,1.3,1.8,3.5,2.1,6.5c0.3,0,0.7,0.1,1,0.1
	c0.5-4.1,0.9-8.1,0.3-12.2c0,0,0-0.1-0.1-0.1c-9,0.5-18,1-27.1,1.4V38.8z"/>
<path d="M682.4,39.9C682.4,39.9,682.4,39.9,682.4,39.9c0-2.9-0.3-5.7-1-8.3c0,0,0-0.1,0-0.1c-1.2,2.5-2.5,4.8-4,7
	C679.1,38.8,680.8,39.3,682.4,39.9z"/>
<path d="M670,37.4c2.4,0.2,4.9,0.6,7.3,1.1c1.5-2.2,2.8-4.5,4-7c-0.7-2.5-1.8-4.8-3.3-6.7c0,0-0.1-0.1-0.1-0.1
	c-2.5,0.2-5.1,0.3-7.6,0.4c0,0,0,0.1,0.1,0.1C670.9,29.3,670.5,33.3,670,37.4z"/>
<path d="M672.5,45c3.2-0.1,6.5-0.3,9.7-0.4c0.1-0.9,0.1-1.8,0.2-2.7c-2.9,0.6-5.9,1.2-8.8,1.8C673.2,44.1,672.9,44.5,672.5,45z"/>
<path d="M669.4,44.5c0,0.2,0,0.4,0,0.6c1,0,2.1-0.1,3.1-0.1c0.4-0.5,0.7-0.9,1.1-1.4C672.2,43.9,670.8,44.2,669.4,44.5z"/>
<path d="M668.9,44.7c0,0.2,0,0.3-0.1,0.5c0.2,0,0.4,0,0.5,0c0-0.2,0-0.4,0-0.6C669.2,44.6,669.1,44.6,668.9,44.7z"/>
<path d="M645.4,46.2c3.6-0.2,7.3-0.3,10.9-0.5v-8.4c-4.3,0.4-8.7,1-13.2,1.5v5.5C643.9,45,644.7,45.6,645.4,46.2z"/>
<path d="M643.2,46.3c0.8,0,1.5-0.1,2.3-0.1c-0.8-0.6-1.5-1.2-2.3-1.9V46.3z"/>
<path d="M668.9,44.7c0.2,0,0.3-0.1,0.5-0.1c0.1-2.4,0.4-4.8,0.7-7.2c-0.3,0-0.7-0.1-1-0.1c0.1,0.9,0.1,1.8,0.1,2.8
	C669.2,41.9,669.1,43.4,668.9,44.7z"/>
<path d="M682.4,41.8c0-0.6,0-1.3,0-1.9c-1.6-0.6-3.3-1-5.1-1.4c-1.2,1.8-2.4,3.5-3.7,5.1C676.5,43,679.4,42.3,682.4,41.8z"/>
<path d="M673.6,43.6c1.3-1.7,2.5-3.4,3.7-5.1c-2.4-0.5-4.8-0.9-7.3-1.1c-0.3,2.4-0.6,4.8-0.7,7.2C670.8,44.2,672.2,43.9,673.6,43.6z
	"/>
<path d="M670.3,25.1c-1-1.9-3-2.9-4.9-2.9c-6.5,0.3-14.3,0.8-22.2,2.1v2.2C652.2,26.1,661.3,25.6,670.3,25.1z"/>
<path d="M670.3,25.1c2.5-0.1,5.1-0.3,7.6-0.4c-1.5-1.9-3.5-3.4-5.8-4.4c-2.4-1-5.5-1.6-9.3-1.6h-19.6v5.6c7.9-1.2,15.7-1.8,22.2-2.1
	C667.3,22.2,669.3,23.2,670.3,25.1z"/>
<path d="M717.9,23.8c1.6,0,3.2,0.1,4.9,0.1c0.2-0.2,0.4-0.5,0.6-0.7c0.1,0.2,0.1,0.5,0.2,0.7c0.4,0,0.7,0,1.1,0v-5.3h-4.2
	c-1,0.8-2,1.5-3,1.5C717.6,21.4,717.8,22.6,717.9,23.8z"/>
<path d="M722.7,23.9c0.3,0,0.5,0,0.8,0c-0.1-0.2-0.1-0.5-0.2-0.7C723.1,23.4,722.9,23.7,722.7,23.9z"/>
<path d="M689.3,18.7v3.1c2.4-1.5,5.2-2.5,8-3.1H689.3z"/>
<path d="M717.8,23.8c-2.9-2.7-6.6-4.3-10.5-5.1h-9.9c-2.9,0.6-5.6,1.6-8,3.1V24C698.9,23.6,708.3,23.6,717.8,23.8z"/>
<path d="M717.9,23.8c-0.1-1.2-0.3-2.3-0.5-3.6c1,0,2-0.8,3-1.5h-13.1C711.2,19.4,714.9,21.1,717.9,23.8
	C717.8,23.8,717.9,23.8,717.9,23.8z"/>
<path d="M723,43.2v-0.5c-3.6,0.1-7.1,0.3-10.7,0.4c0,0,0,0,0,0H723z"/>
<path d="M711.9,43.2h0.4c0,0,0,0,0,0C712.2,43.2,712,43.2,711.9,43.2C711.9,43.2,711.9,43.2,711.9,43.2z"/>
<path d="M711.9,43.2C711.9,43.2,711.9,43.2,711.9,43.2c-0.1,0-0.2,0-0.3,0H711.9z"/>
<path d="M696.6,43.9c-1.8,0.1-3.7,0.2-5.5,0.2c-0.2,0.2-0.4,0.4-0.6,0.5c2.1,2.2,3.1,5.1,2.5,8.7c1.2-0.3,2.4-0.6,3.5-0.9
	C696.6,49.6,696.7,46.8,696.6,43.9z"/>
<path d="M690.4,44.7c-0.4,0.3-0.7,0.6-1.1,0.9v8.5c1.2-0.2,2.4-0.4,3.6-0.7C693.5,49.8,692.5,46.9,690.4,44.7z"/>
<path d="M696.6,43.9c0.1,2.9,0,5.7-0.1,8.5c2.1-0.6,4.1-1.4,6-2.2v-6.6C700.5,43.7,698.5,43.8,696.6,43.9z"/>
<path d="M692.9,53.4c-0.2,1.5-0.8,3.1-1.6,4.9c-0.5,1.1-1,2.1-1.6,3.1h6.1c0.2-3,0.5-5.9,0.6-8.9C695.3,52.8,694.1,53.1,692.9,53.4z
	"/>
<path d="M702.5,51.7v-1.5c-1.9,0.9-3.9,1.6-6,2.2c-0.2,3-0.4,5.9-0.6,8.9h4.2c1-3.2,1.8-6.4,2.6-9.7H702.5z"/>
<path d="M707.3,51.7h-4.7c-0.8,3.2-1.6,6.5-2.6,9.7h25.2v-9.7h-16c-0.7,2.5-1.3,5-1.9,7.6C707,56.8,707.1,54.2,707.3,51.7z"/>
<path d="M707.3,59.2c0.6-2.5,1.2-5.1,1.9-7.6h-1.9C707.1,54.2,707,56.8,707.3,59.2z"/>
<path d="M691,44.1c-0.4,0-0.7,0-1.1,0c0.2,0.2,0.3,0.3,0.5,0.5C690.6,44.5,690.8,44.3,691,44.1z"/>
<path d="M689.3,45.6c0.4-0.3,0.7-0.6,1.1-0.9c-0.2-0.2-0.3-0.3-0.5-0.5c-0.2,0-0.4,0-0.6,0V45.6z"/>
<path d="M692.9,53.4c-1.2,0.3-2.4,0.5-3.6,0.7v7.2h0.4c0.6-1,1.1-2,1.6-3.1C692.2,56.5,692.7,54.8,692.9,53.4z"/>
<path d="M713.7,38.8c-0.6,1.5-1.2,3-1.8,4.5c0.1,0,0.3,0,0.4,0c1.2-1.3,2.2-2.8,3.1-4.4C714.8,38.8,714.2,38.8,713.7,38.8z"/>
<path d="M717.1,34.6c-0.4,1.5-1,3-1.7,4.3c2,0.1,4,0.2,6,0.4c0.5,0.1,1.1,0.2,1.7,0.3v-5H717.1z"/>
<path d="M715.4,38.8c-0.9,1.6-1.9,3.1-3.1,4.4c3.6-0.1,7.1-0.3,10.7-0.4v-3.2c-0.6-0.1-1.1-0.2-1.7-0.3
	C719.4,39,717.4,38.9,715.4,38.8z"/>
<path d="M708.4,34.6h-0.2c-0.7,1.4-1.3,2.8-1.9,4.3c0.7,0,1.5-0.1,2.2-0.1C708.6,37.4,708.5,35.9,708.4,34.6z"/>
<path d="M720.4,26.8c0.7-1,1.5-1.9,2.3-2.9c-1.6,0-3.2-0.1-4.9-0.1c0,0,0,0.1,0,0.1C718.8,24.8,719.7,25.7,720.4,26.8z"/>
<path d="M708.5,38.8c0,1.5-0.2,3-0.3,4.5h3.3c0.1,0,0.2,0,0.3,0c0.5-1.5,1.1-3,1.8-4.5C711.9,38.7,710.2,38.7,708.5,38.8z"/>
<path d="M708.4,34.6c0.2,1.4,0.2,2.8,0.2,4.2c1.7,0,3.4-0.1,5.1,0c0.6-1.4,1.3-2.8,2-4.2H708.4z"/>
<path d="M713.7,38.8c0.6,0,1.2,0,1.7,0.1c0.7-1.3,1.3-2.8,1.7-4.3h-1.5C714.9,35.9,714.3,37.3,713.7,38.8z"/>
<path d="M719.7,27.8h1.3c-0.2-0.3-0.4-0.7-0.6-1C720.2,27.1,720,27.4,719.7,27.8z"/>
<path d="M689.9,44.2c-0.2-0.2-0.4-0.4-0.6-0.6v0.6C689.5,44.2,689.7,44.2,689.9,44.2z"/>
<path d="M717.9,23.9c0.1,1.3,0.2,2.6,0.2,3.9h1.6c0.2-0.3,0.5-0.7,0.7-1C719.7,25.7,718.8,24.8,717.9,23.9z"/>
<path d="M724.6,24c-0.4,0-0.7,0-1.1,0c0.3,1.3,0.7,2.6,1,3.8h0.1V24z"/>
<path d="M691,44.1c1.8-0.1,3.7-0.2,5.5-0.2c0-1.2-0.1-2.4-0.2-3.7C694.5,41.4,692.7,42.8,691,44.1z"/>
<path d="M689.3,24v16.6c5.7-0.9,11.3-1.5,17-1.7c0.5-1.5,1.2-2.9,1.9-4.3h-5.7v-6.8h15.6c0-1.2,0-2.5-0.2-3.9c0,0-0.1-0.1-0.1-0.1
	C708.3,23.6,698.9,23.6,689.3,24z"/>
<path d="M689.3,40.6v3c0.2,0.2,0.4,0.4,0.6,0.6c0.4,0,0.7,0,1.1,0c1.7-1.4,3.5-2.7,5.3-3.9c0.1,1.2,0.2,2.5,0.2,3.7
	c2-0.1,3.9-0.2,5.9-0.3v-0.4h2.4c0.4-1.5,0.9-2.9,1.5-4.4C700.6,39.1,695,39.7,689.3,40.6z"/>
<path d="M717.9,23.8C717.9,23.8,717.8,23.8,717.9,23.8c-0.1,0,0,0.1,0,0.1C717.9,23.9,717.9,23.8,717.9,23.8z"/>
<path d="M722.7,23.9c-0.8,0.9-1.6,1.9-2.3,2.9c0.2,0.3,0.4,0.7,0.6,1h3.4c-0.3-1.3-0.6-2.5-1-3.8C723.3,23.9,723,23.9,722.7,23.9z"
	/>
<path d="M706.3,38.9c-0.5,1.4-1,2.9-1.5,4.4h3.4c0.2-1.5,0.3-3,0.3-4.5C707.8,38.8,707.1,38.8,706.3,38.9z"/>
<path d="M760.8,24.8c1.1-0.7,2.1-1.5,3.2-2.2c-0.5-0.6-1.1-1.1-1.7-1.5c-2.9-2-7-3-12.5-3c-2.5,0-4.7,0.2-6.6,0.5
	c4.2,1.5,8.7,3.7,12.9,6.3C757.6,24.8,759.2,24.8,760.8,24.8z"/>
<path d="M733.5,24.2C733.5,24.2,733.5,24.2,733.5,24.2c7.5,0.3,15,0.5,22.5,0.5c-4.2-2.6-8.7-4.7-12.9-6.3c-1.5,0.3-2.7,0.6-3.8,1.1
	C736.7,20.7,734.8,22.3,733.5,24.2z"/>
<path d="M765.5,24.7c-0.5-0.8-1-1.6-1.6-2.2c-1,0.8-2.1,1.5-3.2,2.2C762.3,24.8,763.9,24.8,765.5,24.7z"/>
<path d="M754.1,28.8c0.4,0.7,0.6,1.6,0.8,2.5l9.3-0.5c-1.8-1.6-3.7-3.1-5.8-4.6C757,27.2,755.6,28,754.1,28.8z"/>
<path d="M741.7,42.1c8.5-0.3,17-0.6,25.4-0.8c0-0.1-0.1-0.1-0.1-0.2c-1.1-1.9-2.9-3.5-5.4-4.7c-2.5-1.3-6.6-2.5-12.4-3.8
	c-0.5-0.1-0.9-0.2-1.3-0.3c-4,2.2-7.9,4.4-11.6,7C737.7,40.4,739.5,41.3,741.7,42.1z"/>
<path d="M731.6,30.4c0,3.3,1.2,6.1,3.7,8.2c0.3,0.2,0.6,0.5,0.9,0.7c3.7-2.6,7.6-4.9,11.6-7c-1.6-0.4-2.6-0.8-3.1-1.3
	c-0.6-0.5-1-1.2-1-1.8c0-0.9,0.4-1.7,1.2-2.4c0.8-0.7,1.9-1,3.5-1c1.9,0,3.3,0.4,4.4,1.3c0.5,0.4,0.9,1,1.3,1.7
	c1.5-0.8,2.9-1.7,4.3-2.6c-0.8-0.5-1.6-1-2.4-1.5c-7.5-0.1-15-0.3-22.5-0.5C732.3,26.2,731.6,28.2,731.6,30.4z"/>
<path d="M764.2,30.8l3.1-0.2c-0.3-2.3-0.9-4.3-1.8-5.9c-1.6,0-3.2,0-4.8,0c-0.8,0.5-1.6,1-2.3,1.5C760.5,27.7,762.5,29.2,764.2,30.8
	z"/>
<path d="M760.8,24.8c-1.6,0-3.1,0-4.7,0c0.8,0.5,1.6,1,2.4,1.5C759.2,25.8,760,25.3,760.8,24.8z"/>
<path d="M763.3,58.4c1.2-0.9,2.3-2.1,3.2-3.4c1.5-2.3,2.3-4.8,2.3-7.6c0-1.9-0.4-3.7-1.2-5.3c-1.3,5.3-2.8,10.7-4.2,16
	C763.3,58.3,763.3,58.3,763.3,58.4z"/>
<path d="M741.7,42.1c1.8,0.6,3.8,1.2,6.1,1.7c3.5,0.8,5.8,1.6,6.7,2.5c1,0.9,1.5,1.9,1.5,3c0,1.2-0.5,2.2-1.5,3.1
	c-1,0.9-2.5,1.3-4.3,1.3c-2.5,0-4.5-0.9-5.8-2.6c-0.8-1.1-1.4-2.6-1.7-4.7l-6.2,0.4c3.7,3.4,6.9,7.7,8.8,12.5
	c5.3,1.6,10.8,1.9,15.4,0.6c1-0.5,1.9-1,2.7-1.6c0-0.1,0.1-0.1,0.1-0.1c1.4-5.3,2.8-10.7,4.2-16c-0.1-0.3-0.3-0.6-0.4-0.9
	C758.6,41.5,750.1,41.8,741.7,42.1z"/>
<path d="M745.2,59.4c-2-4.9-5.1-9.2-8.8-12.5l-6.4,0.4c0.1,0.9,0.2,1.8,0.4,2.6c0.3,0.5,0.6,0.9,0.9,1.4
	C735.1,55,740.1,57.8,745.2,59.4z"/>
<path d="M731.3,51.2c-0.3-0.4-0.6-0.9-0.9-1.4c0.7,3.1,2.1,5.8,4.3,8c2.3,2.3,6.1,3.6,11.3,4c-0.3-0.9-0.6-1.7-0.9-2.5
	C740.1,57.8,735.1,55,731.3,51.2z"/>
<path d="M760.1,60.2c0.2-0.1,0.3-0.2,0.5-0.3c-4.6,1.3-10.1,1-15.4-0.6c0.3,0.8,0.6,1.7,0.9,2.5c1.2,0.1,2.4,0.2,3.7,0.2
	C754,62,757.4,61.4,760.1,60.2z"/>
</svg>
