<?xml version="1.0" encoding="iso-8859-1"?>
<!-- Generator: Adobe Illustrator 16.0.0, SVG Export Plug-In . SVG Version: 6.00 Build 0)  -->
<!DOCTYPE svg PUBLIC "-//W3C//DTD SVG 1.1//EN" "http://www.w3.org/Graphics/SVG/1.1/DTD/svg11.dtd">
<svg version="1.1" id="Layer_1" xmlns="http://www.w3.org/2000/svg" xmlns:xlink="http://www.w3.org/1999/xlink" x="0px" y="0px"
	 width="936.646px" height="181.366px" viewBox="0 0 936.646 181.366" style="enable-background:new 0 0 936.646 181.366;"
	 xml:space="preserve">
<polygon style="fill:none;" points="832.682,73.256 832.272,72.966 832.411,73.553 "/>
<polygon points="72.111,122.127 72.111,61.326 88.482,121.638 119.793,120.627 142.344,70.316 145.111,61.326 145.111,65.259 
	150.618,52.292 123.288,51.369 110.131,104.69 94.835,50.469 43.111,48.78 43.111,66.284 66.119,122.317 "/>
<polygon points="173.111,150.466 174.111,150.466 174.111,147.422 173.111,148.557 "/>
<polygon points="43.111,123.069 43.111,151.466 72.111,151.466 72.111,136.402 66.119,122.317 "/>
<polygon points="166.661,119.115 172.801,148.547 174.111,147.422 174.111,118.882 "/>
<polygon points="107.543,151.466 122.869,151.466 130.281,120.815 120.58,121.392 "/>
<polygon points="43.111,32.466 43.111,48.78 94.814,49.909 92.477,32.466 "/>
<polygon points="43.111,66.284 43.111,123.069 65.848,122.317 "/>
<polygon points="90.051,122.147 97.123,151.466 107.543,151.466 120.58,121.392 "/>
<polygon points="66.399,122.317 72.111,136.402 72.111,122.127 "/>
<polygon points="120.58,120.627 130.281,120.306 142.573,70.316 "/>
<polygon points="131.822,32.466 127.581,32.466 123.208,50.809 150.454,52.012 151.893,48.302 "/>
<polygon points="170.306,150.466 172.524,150.466 172.141,148.567 "/>
<polygon points="158.632,32.466 149.009,32.466 152.041,47.54 "/>
<polygon points="174.111,65.39 174.111,53.062 157.322,52.494 "/>
<polygon points="152.15,49.2 156.878,52.494 174.111,53.062 174.111,32.466 158.632,32.466 152.041,48.1 "/>
<polygon points="156.878,52.494 153.011,52.371 166.769,119.115 174.111,118.882 174.111,65.39 "/>
<polygon points="151.893,49.002 152.15,49.2 152.041,48.66 "/>
<polygon points="152.15,49.2 152.79,52.371 156.44,52.494 "/>
<polygon points="152.041,48.1 149.009,32.466 131.822,32.466 151.893,48.162 "/>
<polygon points="152.15,49.2 151.893,49.002 150.454,52.292 152.79,52.371 "/>
<polygon points="152.79,52.371 150.618,52.292 145.111,65.259 145.111,119.825 166.382,119.115 "/>
<polygon points="166.382,119.115 145.111,119.825 145.111,151.466 170.306,151.466 172.222,149.056 "/>
<polygon points="203.564,116.042 202.681,117.907 239.995,116.671 218.739,100.346 "/>
<polygon points="261.556,56.056 249.007,69.036 263.419,115.896 293.631,114.896 272.5,56.427 "/>
<polygon points="201.732,117.939 202.681,117.907 203.564,116.042 "/>
<polygon points="247.01,70.893 257.282,105.466 232.598,105.466 240.924,77.188 218.739,100.24 239.995,116.618 263.419,115.869 
	249.007,68.918 "/>
<polygon points="213.062,95.984 205.815,90.419 195.796,118.136 201.732,117.939 203.564,116.042 "/>
<polygon points="201.732,117.939 192.363,128.14 184.116,151.466 187.277,151.466 202.681,118.417 "/>
<polygon points="192.363,127.628 201.732,117.939 195.796,118.136 "/>
<polygon points="239.875,39.34 232.429,55.069 244.843,55.49 "/>
<polygon points="232.429,55.069 213.062,95.984 218.739,100.346 240.924,77.398 244.875,63.876 247.01,71.103 249.007,69.036 
	244.843,55.49 "/>
<polygon points="213.062,95.984 232.429,55.069 218.76,54.605 205.815,90.419 "/>
<polygon points="203.564,116.042 218.739,100.346 213.062,95.984 "/>
<polygon points="249.007,69.036 261.556,56.056 244.843,55.49 "/>
<polygon points="244.843,55.49 261.556,56.056 269.424,47.358 264.243,32.466 242.6,32.466 239.875,38.781 "/>
<polygon points="239.875,38.781 238.108,32.466 226.361,32.466 218.76,54.046 232.429,54.509 "/>
<polygon points="306.478,151.466 303.977,144.547 300.06,151.466 "/>
<polygon points="266.112,137.241 270.108,151.466 274.046,151.466 270.977,141.233 "/>
<polygon points="263.419,115.896 270.977,140.978 283.966,151.466 300.06,151.466 303.977,144.038 293.631,115.15 "/>
<polygon points="202.681,118.417 187.277,151.466 219.577,151.466 225.056,131.466 258.851,131.466 239.995,117.082 "/>
<polygon points="270.977,141.488 274.046,151.466 283.966,151.466 "/>
<polygon points="263.419,115.896 239.995,116.826 258.851,131.466 264.486,131.466 266.112,136.886 270.977,140.546 "/>
<polygon points="242.6,32.466 238.108,32.466 239.875,38.221 "/>
<polygon points="272.5,56.427 269.424,47.918 261.556,56.056 "/>
<polygon points="320.696,113.999 339.279,113.383 333.189,91.935 "/>
<polygon points="343.117,76.93 333.904,91.935 341.066,113.383 355.111,112.954 355.111,104.509 "/>
<polygon points="358.823,121.466 355.111,121.466 355.111,112.954 340.708,113.893 349.799,151.466 369.845,151.466 "/>
<polygon points="351.774,59.113 334.638,58.532 341.685,76.93 "/>
<polygon points="333.189,91.935 341.685,76.93 334.638,58.532 323.6,58.158 "/>
<polygon points="319.111,57.953 325.192,58.158 319.111,36.734 "/>
<polygon points="324.397,58.158 335.035,58.532 326.658,35.101 319.111,34.559 319.111,36.734 "/>
<polygon points="319.111,114.104 319.111,119.612 322.288,113.999 "/>
<polygon points="321.493,113.999 319.111,119.612 319.111,151.466 349.799,151.466 339.675,113.893 "/>
<polygon points="355.111,104.509 355.111,59.128 353.203,59.113 343.83,76.93 "/>
<polygon points="355.111,36.871 355.111,32.466 325.08,32.466 327.093,34.541 "/>
<polygon points="334.638,58.532 353.203,59.113 355.111,58.271 355.111,36.871 327.093,35.101 "/>
<polygon points="324.397,58.158 319.111,57.953 319.111,114.104 321.493,113.999 333.984,91.935 "/>
<polygon points="319.111,34.559 326.458,34.541 325.08,32.466 319.111,32.466 "/>
<polygon points="352.25,58.271 351.774,59.113 352.25,59.128 "/>
<polygon points="405.111,151.466 405.111,121.466 358.823,121.466 369.845,151.466 "/>
<path d="M492.912,108.295c-1.485,4.659-3.45,8.408-5.915,11.222c-3.401,3.88-8.423,5.819-15.065,5.819
	c-3.213,0-6.067-0.548-8.602-1.602l-15.466,24.77c7.11,2.611,15.782,3.935,26.057,3.935c10.069,0,18.36-1.515,24.878-4.544
	c4.16-1.934,7.886-4.47,11.18-7.595l-15.477-32.057L492.912,108.295z"/>
<path d="M515.169,134.423c4.399-5.951,7.619-13.364,9.659-22.24l-14.234-4.473l-16.093,0.533l15.477,32.057
	C511.847,138.53,513.582,136.575,515.169,134.423z"/>
<path d="M455.982,118.131c-1.625-2.063-2.879-4.923-3.806-8.486l-1.553,0.052l-14.598,32.107c2.516,2.06,5.167,3.768,7.957,5.099
	c1.23,0.587,2.538,1.109,3.881,1.602l15.466-24.77C460.451,122.538,457.992,120.685,455.982,118.131z"/>
<path d="M417.46,110.794c1.402,6.243,3.548,11.798,6.474,16.632c3.594,5.942,7.629,10.725,12.091,14.377l14.598-32.107
	L417.46,110.794z"/>
<path d="M470.596,58.753l-6.987-14.469l-27.896-1.858c-1.895,1.451-3.714,2.994-5.376,4.74c-3.876,4.069-6.967,8.849-9.324,14.293
	l39.169,1.327C463.125,60.497,466.596,59.147,470.596,58.753z"/>
<path d="M479.871,45.366l5.784-12.716c-4.11-0.687-8.538-1.058-13.343-1.058c-5.076,0-9.789,0.453-14.219,1.269l5.516,11.422
	L479.871,45.366z"/>
<path d="M513.092,47.578c-0.422-0.507-0.843-1.014-1.278-1.496l-0.843,1.354L513.092,47.578z"/>
<path d="M510.971,47.436l0.843-1.354c-1.891-2.081-3.915-3.948-6.114-5.561c-5.347-3.931-12.048-6.536-20.045-7.87l-5.784,12.716
	L510.971,47.436z"/>
<path d="M493.521,106.215l0.98,2.028l16.093-0.533l-16.202-5.093C494.131,103.874,493.832,105.061,493.521,106.215z"/>
<path d="M522.69,64.903c-2.497-6.853-5.691-12.628-9.598-17.326l-2.121-0.142l-10.442,16.717L522.69,64.903z"/>
<path d="M473.154,58.616c0.232,0,0.454,0.031,0.676,0.036l6.041-13.286l-16.261-1.082l6.987,14.469
	C471.429,58.671,472.276,58.616,473.154,58.616z"/>
<path d="M493.841,74.862l29.918-6.92c-0.335-1.046-0.711-2.038-1.069-3.039l-22.161-0.751L493.841,74.862z"/>
<path d="M463.609,44.284l-5.516-11.422c-8.71,1.606-16.164,4.801-22.379,9.564L463.609,44.284z"/>
<path d="M482.586,60.847c1.454,0.771,2.786,1.72,4.01,2.833l13.933,0.472l10.442-16.717l-31.101-2.069l-6.041,13.286
	C477.035,58.746,479.961,59.458,482.586,60.847z"/>
<path d="M486.596,63.68c1.142,1.037,2.181,2.212,3.119,3.544c1.178,1.647,2.305,4.252,3.375,7.812l0.751-0.175l6.688-10.71
	L486.596,63.68z"/>
<path d="M450.623,109.696l1.553-0.052c-0.185-0.714-0.369-1.431-0.525-2.205L450.623,109.696z"/>
<path d="M450.308,91.497c0-10.455,1.583-18.124,4.754-23.008c1.474-2.316,3.191-4.202,5.121-5.703l-39.169-1.327
	c-3.655,8.447-5.514,18.522-5.514,30.277c0,6.958,0.668,13.299,1.961,19.058l33.163-1.098l1.028-2.257
	C450.762,103.076,450.308,97.774,450.308,91.497z"/>
<path d="M492.912,108.295l1.59-0.052l-0.98-2.028C493.326,106.926,493.122,107.624,492.912,108.295z"/>
<path d="M612.765,54.212l-10.388-22.356c-2.271-0.173-4.605-0.263-7.013-0.263c-18.245,0-32.479,5.315-42.705,15.943
	c-0.424,0.437-0.817,0.893-1.223,1.345l0.477,1.28L612.765,54.212z"/>
<path d="M613.432,54.256l8.346-18.13c-5.757-2.29-12.215-3.722-19.4-4.27l10.388,22.356L613.432,54.256z"/>
<path d="M551.914,50.161l-0.477-1.28c-0.345,0.39-0.696,0.781-1.022,1.181L551.914,50.161z"/>
<path d="M557.829,66.094l-5.915-15.934l-1.499-0.099c-3.763,4.49-6.703,9.652-8.846,15.481L557.829,66.094z"/>
<path d="M645.546,56.393c-1.97-3.333-4.273-6.384-6.942-9.137c-4.683-4.834-10.295-8.535-16.826-11.13l-8.346,18.13L645.546,56.393z
	"/>
<path d="M613.711,67.988c3.551,5.104,5.347,12.643,5.347,22.673c0,5.118-0.327,9.6-0.953,13.488l17.597-0.582l-16.45-35.392
	L613.711,67.988z"/>
<path d="M572.058,92.254c0-11.816,2.091-20.299,6.276-25.465l-20.506-0.695l14.686,39.565l0.744-0.025
	C572.471,101.78,572.058,97.346,572.058,92.254z"/>
<path d="M578.379,117.684c-2.394-2.93-4.085-6.972-5.121-12.05l-0.744,0.025l7.707,20.755l2.257-4.902
	C580.99,120.446,579.616,119.188,578.379,117.684z"/>
<path d="M541.569,65.543c-2.816,7.69-4.243,16.533-4.243,26.552c0,5.235,0.39,10.128,1.146,14.692l34.043-1.128l-14.686-39.565
	L541.569,65.543z"/>
<path d="M572.514,105.659l-34.043,1.128c1.225,7.342,3.417,13.821,6.597,19.426c5.166,9.087,11.896,15.73,20.205,19.928
	c1.547,0.784,3.197,1.469,4.9,2.106l10.048-21.833L572.514,105.659z"/>
<path d="M609.266,63.304c1.222,0.934,2.351,2.011,3.384,3.243c0.38,0.448,0.714,0.947,1.062,1.441l5.54,0.187l-6.141-13.216
	L609.266,63.304z"/>
<path d="M578.334,66.789c0.029-0.038,0.054-0.085,0.085-0.123c4.246-5.154,9.862-7.732,16.868-7.732
	c5.532,0,10.192,1.461,13.979,4.37l3.845-8.345l-0.346-0.747l-60.852-4.051l5.915,15.934L578.334,66.789z"/>
<path d="M570.173,148.247c5.688,2.13,12.225,3.443,19.621,3.939l-9.573-25.772L570.173,148.247z"/>
<path d="M650.984,69.25l-31.732-1.076l16.45,35.392l17.434-0.578c0.416-3.728,0.649-7.659,0.649-11.85
	C653.785,83.071,652.847,75.779,650.984,69.25z"/>
<path d="M627.991,145.145c7.831-4.558,13.91-10.843,18.287-18.812l-10.576-22.766l-17.597,0.582
	c-0.975,6.043-2.693,10.623-5.181,13.694c-4.091,5.049-9.866,7.573-17.328,7.573c-5.14,0-9.503-1.32-13.118-3.904l-2.257,4.902
	l9.573,25.772c2.248,0.151,4.545,0.252,6.95,0.252C609.214,152.438,619.633,150.007,627.991,145.145z"/>
<path d="M646.278,126.333c0.292-0.531,0.6-1.047,0.877-1.595c3.062-6.06,5.041-13.328,5.98-21.75l-17.434,0.578L646.278,126.333z"/>
<path d="M619.251,68.175l31.732,1.076c-1.331-4.683-3.148-8.966-5.438-12.857l-32.114-2.137l-0.321,0.702L619.251,68.175z"/>
<polygon points="613.432,54.256 612.765,54.212 613.111,54.958 "/>
<polygon points="686.013,70.41 674.111,69.979 674.111,102.348 705.674,101.29 "/>
<polygon points="718.782,151.466 735.123,151.466 717.17,121.466 714.099,121.466 "/>
<polygon points="708.111,105.718 705.715,101.29 674.111,102.348 674.111,151.466 674.751,151.466 708.111,117.858 "/>
<polygon points="708.111,121.466 708.111,117.858 674.751,151.466 718.782,151.466 714.099,121.466 "/>
<polygon points="704.904,101.29 708.111,101.197 708.111,79.483 706.302,71.109 685.65,70.41 "/>
<polygon points="704.097,59.731 699.749,32.466 674.111,32.466 674.111,50.032 678.609,58.261 "/>
<polygon points="762.111,151.466 762.111,121.466 717.17,121.466 735.123,151.466 "/>
<polygon points="679.42,58.54 674.111,50.032 674.111,58.188 "/>
<polygon points="708.111,60.5 708.111,32.466 699.749,32.466 704.537,59.731 "/>
<polygon points="706.302,71.109 708.111,71.156 708.111,60.5 704.769,60.291 "/>
<polygon points="708.111,105.718 708.111,101.197 705.337,101.29 "/>
<polygon points="705.862,71.109 704.097,60.291 677.796,58.54 685.199,70.41 "/>
<polygon points="686.013,70.41 679.014,58.54 674.111,58.188 674.111,69.979 "/>
<polygon points="708.111,71.156 706.756,71.109 708.111,79.483 "/>
<polygon points="842.087,96.731 840.128,104.69 838.185,96.86 829.049,97.164 854.433,144.229 866.114,96.728 865.036,95.972 "/>
<polygon points="822.302,84.649 813.404,94.417 814.197,97.655 829.049,97.164 "/>
<polygon points="814.197,98.166 827.158,151.466 852.904,151.466 854.433,144.741 829.049,97.674 "/>
<polygon points="877.111,95.647 877.111,102.841 899.111,122.811 899.111,94.705 "/>
<polygon points="776.111,98.892 776.111,134.557 805.111,103.334 805.111,97.95 "/>
<polygon points="805.111,67.027 805.111,61.326 806.623,67.121 813.036,67.546 806.075,54.59 784.641,39.791 776.111,47.996 
	776.111,65.133 "/>
<polygon points="825.747,68.388 831.227,68.193 822.51,32.466 794.767,32.466 806.097,54.03 "/>
<polygon points="776.111,151.466 805.111,151.466 805.111,103.334 776.111,134.557 "/>
<polygon points="877.111,151.466 899.111,151.466 899.111,122.811 877.111,102.841 "/>
<polygon points="873.474,71.489 877.111,61.326 877.111,71.655 899.111,73.548 899.111,32.466 868.826,32.466 853.472,49.877 
	849.257,69.635 "/>
<polygon points="832.272,72.966 831.227,68.752 825.747,68.388 "/>
<polygon points="776.111,34.05 776.111,47.996 784.29,39.791 "/>
<polygon points="791.2,32.466 776.111,32.466 776.111,34.05 784.652,39.23 "/>
<polygon points="806.097,54.03 794.767,32.466 791.2,32.466 785.016,38.951 "/>
<polygon points="865.036,95.972 866.114,96.728 866.311,95.929 "/>
<polygon points="857.615,32.466 853.472,49.318 868.826,32.466 "/>
<polygon points="899.111,77.798 899.111,73.548 877.111,71.655 877.111,76.834 "/>
<polygon points="847.21,75.899 845.627,82.343 865.036,95.972 866.311,95.929 871.037,76.706 "/>
<polygon points="776.111,65.133 776.111,73.515 805.111,74.479 805.111,67.027 "/>
<polygon points="808.54,74.588 813.404,94.417 822.302,84.649 817.039,74.877 "/>
<polygon points="877.111,76.834 877.111,95.647 899.111,94.705 899.111,77.798 "/>
<polygon points="776.111,98.892 805.111,97.95 805.111,74.479 776.111,73.515 "/>
<polygon points="872.323,71.489 848.686,69.915 847.21,75.899 871.037,76.706 "/>
<polygon points="806.097,54.59 813.078,67.546 825.747,68.388 "/>
<polygon points="830.782,75.343 832.411,73.553 832.272,72.966 825.747,68.388 813.078,67.546 817.039,74.877 "/>
<polygon points="813.078,67.546 806.707,67.121 808.54,74.588 817.039,74.877 "/>
<polygon points="817.039,74.877 822.302,84.649 830.782,75.343 "/>
<polygon points="830.782,75.343 832.876,75.414 832.411,73.553 "/>
<polygon points="830.782,75.343 822.302,84.649 829.049,97.164 838.185,96.86 832.876,75.414 "/>
<polygon points="842.087,96.731 865.036,95.972 845.627,82.343 "/>
</svg>
