<?xml version="1.0" encoding="iso-8859-1"?>
<!-- Generator: Adobe Illustrator 16.0.0, SVG Export Plug-In . SVG Version: 6.00 Build 0)  -->
<!DOCTYPE svg PUBLIC "-//W3C//DTD SVG 1.1//EN" "http://www.w3.org/Graphics/SVG/1.1/DTD/svg11.dtd">
<svg version="1.1" id="Layer_1" xmlns="http://www.w3.org/2000/svg" xmlns:xlink="http://www.w3.org/1999/xlink" x="0px" y="0px" width="891px" height="110px" viewBox="0 0 891 110" style="enable-background:new 0 0 891 110;" xml:space="preserve">
	<path d="M9.8,6.6h80.1v20.6H39.7v15.4h46.5v19.7H39.7v19.1h51.6v21.9H9.8V6.6z"/>
	<path d="M107.8,6.6h44.4c8.8,0,15.8,1.2,21.2,3.6c5.4,2.4,9.8,5.8,13.4,10.2c3.5,4.4,6.1,9.6,7.7,15.5c1.6,5.9,2.4,12.1,2.4,18.7
		c0,10.3-1.2,18.3-3.5,24c-2.4,5.7-5.6,10.5-9.8,14.3s-8.7,6.4-13.5,7.7c-6.6,1.8-12.5,2.6-17.8,2.6h-44.4V6.6z M137.7,28.5v52.8h7.3
		c6.2,0,10.7-0.7,13.3-2.1c2.6-1.4,4.7-3.8,6.2-7.3c1.5-3.5,2.2-9,2.2-16.8c0-10.2-1.7-17.3-5-21c-3.3-3.8-8.9-5.7-16.6-5.7H137.7z"
		/>
	<path d="M275.4,6.6h29.8v57.6c0,5.7-0.9,11.1-2.7,16.2c-1.8,5.1-4.6,9.5-8.4,13.3c-3.8,3.8-7.8,6.5-12,8c-5.8,2.2-12.8,3.2-20.9,3.2
		c-4.7,0-9.8-0.3-15.4-1c-5.6-0.7-10.2-2-14-3.9c-3.7-2-7.2-4.7-10.3-8.3c-3.1-3.6-5.2-7.3-6.4-11.1c-1.8-6.2-2.8-11.6-2.8-16.3V6.6
		h29.8v59c0,5.3,1.5,9.4,4.4,12.4c2.9,3,7,4.4,12.2,4.4c5.1,0,9.2-1.5,12.1-4.4c2.9-2.9,4.4-7.1,4.4-12.4V6.6z"/>
	<path d="M389.4,63.8l26.2,7.9c-1.8,7.3-4.5,13.5-8.3,18.4c-3.8,4.9-8.5,8.6-14.1,11.1c-5.6,2.5-12.7,3.8-21.4,3.8
		c-10.5,0-19.1-1.5-25.8-4.6c-6.7-3.1-12.4-8.4-17.2-16.1c-4.8-7.7-7.3-17.5-7.3-29.5c0-16,4.3-28.3,12.8-36.9
		C342.8,9.3,354.8,5,370.4,5c12.2,0,21.8,2.5,28.7,7.4c7,4.9,12.1,12.5,15.5,22.7l-26.4,5.9c-0.9-2.9-1.9-5.1-2.9-6.5
		c-1.7-2.3-3.7-4-6.1-5.3c-2.4-1.2-5.1-1.8-8.1-1.8c-6.8,0-12,2.7-15.6,8.2c-2.7,4-4.1,10.4-4.1,19c0,10.7,1.6,18.1,4.9,22
		c3.3,4,7.8,6,13.7,6c5.7,0,10-1.6,13-4.8C386,74.5,388.1,69.9,389.4,63.8z"/>
	<path d="M489.5,87.4h-33.9l-4.7,16h-30.5l36.3-96.7h32.6l36.3,96.7h-31.3L489.5,87.4z M483.4,66.5l-10.7-34.8l-10.6,34.8H483.4z"/>
	<path d="M519.1,6.6h90.8v23.9h-30.5v72.8h-29.9V30.5h-30.5V6.6z"/>
	<path d="M624.6,6.6h29.9v96.7h-29.9V6.6z"/>
	<path d="M672.2,55.1c0-15.8,4.4-28.1,13.2-36.9c8.8-8.8,21-13.2,36.7-13.2c16.1,0,28.5,4.3,37.2,13c8.7,8.6,13.1,20.7,13.1,36.3
		c0,11.3-1.9,20.6-5.7,27.8c-3.8,7.2-9.3,12.9-16.5,16.9c-7.2,4-16.2,6-26.9,6c-10.9,0-19.9-1.7-27.1-5.2c-7.1-3.5-12.9-9-17.4-16.5
		C674.5,75.8,672.2,66.4,672.2,55.1z M702.1,55.2c0,9.8,1.8,16.8,5.4,21s8.6,6.4,14.8,6.4c6.4,0,11.4-2.1,14.9-6.3
		c3.5-4.2,5.3-11.7,5.3-22.5c0-9.1-1.8-15.8-5.5-20c-3.7-4.2-8.7-6.3-14.9-6.3c-6,0-10.9,2.1-14.5,6.4
		C704,38.3,702.1,45.3,702.1,55.2z"/>
	<path d="M788.7,6.6h27.9l36.4,53.5V6.6h28.2v96.7h-28.2l-36.2-53.1v53.1h-28.1V6.6z"/>
</svg>
