<?xml version="1.0" encoding="iso-8859-1"?>
<!-- Generator: Adobe Illustrator 16.0.0, SVG Export Plug-In . SVG Version: 6.00 Build 0)  -->
<!DOCTYPE svg PUBLIC "-//W3C//DTD SVG 1.1//EN" "http://www.w3.org/Graphics/SVG/1.1/DTD/svg11.dtd">
<svg version="1.1" id="Layer_1" xmlns="http://www.w3.org/2000/svg" xmlns:xlink="http://www.w3.org/1999/xlink" x="0px" y="0px" width="960px" height="110px" viewBox="0 0 960 110" style="enable-background:new 0 0 960 110;" xml:space="preserve">
	<path d="M3.9,6.6H84v20.6H33.9v15.4h46.5v19.7H33.9v19.1h51.6v21.9H3.9V6.6z"/>
	<path d="M95,6.6h32.9L145,36.4l16.7-29.7h32.6l-30.1,46.8l32.9,49.9h-33.6l-19.1-31.1l-19.1,31.1H91.9L125.3,53L95,6.6z"/>
	<path d="M206.5,6.6h49.7c10.8,0,18.9,2.6,24.3,7.7s8.1,12.5,8.1,22c0,9.8-2.9,17.4-8.8,22.9c-5.9,5.5-14.8,8.2-26.9,8.2h-16.4v35.9
		h-30V6.6z M236.5,47.9h7.3c5.8,0,9.8-1,12.1-3c2.3-2,3.5-4.6,3.5-7.7c0-3-1-5.6-3-7.7s-5.8-3.2-11.4-3.2h-8.5V47.9z"/>
	<path d="M304.1,6.6h80.1v20.6h-50.1v15.4h46.5v19.7h-46.5v19.1h51.6v21.9h-81.5V6.6z"/>
	<path d="M402.2,103.4V6.6H452c9.2,0,16.3,0.8,21.2,2.4s8.8,4.5,11.8,8.8c3,4.3,4.5,9.5,4.5,15.7c0,5.4-1.1,10-3.4,13.9
		c-2.3,3.9-5.4,7-9.4,9.5c-2.6,1.5-6.1,2.8-10.5,3.8c3.6,1.2,6.2,2.4,7.8,3.6c1.1,0.8,2.7,2.5,4.8,5.1c2.1,2.6,3.5,4.6,4.2,6l14.5,28
		h-33.8l-16-29.6c-2-3.8-3.8-6.3-5.4-7.5c-2.2-1.5-4.6-2.2-7.3-2.2h-2.6v39.2H402.2z M432.2,45.8h12.6c1.4,0,4-0.4,7.9-1.3
		c2-0.4,3.6-1.4,4.8-3s1.9-3.5,1.9-5.6c0-3.1-1-5.5-3-7.2s-5.7-2.5-11.1-2.5h-13.1V45.8z"/>
	<path d="M508,6.6H538v96.7H508V6.6z"/>
	<path d="M559.4,6.6h80.1v20.6h-50.1v15.4h46.5v19.7h-46.5v19.1h51.6v21.9h-81.5V6.6z"/>
	<path d="M657.2,6.6h27.9l36.4,53.5V6.6h28.2v96.7h-28.2l-36.2-53.1v53.1h-28.1V6.6z"/>
	<path d="M833.9,63.8l26.2,7.9c-1.8,7.3-4.5,13.5-8.3,18.4c-3.8,4.9-8.5,8.6-14.1,11.1c-5.6,2.5-12.7,3.8-21.4,3.8
		c-10.5,0-19.1-1.5-25.8-4.6c-6.7-3.1-12.4-8.4-17.2-16.1S766,66.8,766,54.8c0-16,4.3-28.3,12.8-36.9C787.3,9.3,799.3,5,814.9,5
		c12.2,0,21.8,2.5,28.7,7.4c7,4.9,12.1,12.5,15.5,22.7l-26.4,5.9c-0.9-2.9-1.9-5.1-2.9-6.5c-1.7-2.3-3.7-4-6.1-5.3
		c-2.4-1.2-5.1-1.8-8.1-1.8c-6.8,0-12,2.7-15.6,8.2c-2.7,4-4.1,10.4-4.1,19c0,10.7,1.6,18.1,4.9,22c3.3,4,7.8,6,13.7,6
		c5.7,0,10-1.6,13-4.8C830.5,74.5,832.6,69.9,833.9,63.8z"/>
	<path d="M874.5,6.6h80.1v20.6h-50.1v15.4H951v19.7h-46.5v19.1h51.6v21.9h-81.5V6.6z"/>
</svg>
