<?xml version="1.0" encoding="iso-8859-1"?>
<!-- Generator: Adobe Illustrator 16.0.0, SVG Export Plug-In . SVG Version: 6.00 Build 0)  -->
<!DOCTYPE svg PUBLIC "-//W3C//DTD SVG 1.1//EN" "http://www.w3.org/Graphics/SVG/1.1/DTD/svg11.dtd">
<svg version="1.1" id="Layer_1" xmlns="http://www.w3.org/2000/svg" xmlns:xlink="http://www.w3.org/1999/xlink" x="0px" y="0px" width="540px" height="110px" viewBox="0 0 540 110" style="enable-background:new 0 0 540 110;" xml:space="preserve">
	<path d="M4.7,71.4l28.4-1.8c0.6,4.6,1.9,8.1,3.8,10.6C40,84,44.4,86,50.1,86c4.3,0,7.6-1,9.9-3c2.3-2,3.5-4.3,3.5-7
		c0-2.5-1.1-4.7-3.3-6.7c-2.2-2-7.3-3.8-15.3-5.6c-13.1-2.9-22.4-6.9-28-11.7c-5.6-4.9-8.4-11.1-8.4-18.7c0-5,1.4-9.7,4.3-14.1
		c2.9-4.4,7.2-7.9,13-10.4C31.4,6.3,39.3,5,49.4,5c12.4,0,21.8,2.3,28.3,6.9S88,23.8,89.3,33.8l-28.2,1.6c-0.7-4.4-2.3-7.5-4.7-9.5
		c-2.4-2-5.7-3-9.9-3c-3.5,0-6.1,0.7-7.8,2.2S36,28.5,36,30.6c0,1.5,0.7,2.9,2.2,4.2c1.4,1.3,4.7,2.5,10,3.6
		c13.1,2.8,22.4,5.7,28.1,8.5c5.7,2.9,9.8,6.5,12.3,10.7c2.6,4.3,3.9,9,3.9,14.3c0,6.2-1.7,11.9-5.1,17.2c-3.4,5.2-8.2,9.2-14.4,11.9
		c-6.2,2.7-13.9,4.1-23.3,4.1c-16.4,0-27.8-3.2-34.2-9.5C9.1,89.2,5.5,81.1,4.7,71.4z"/>
	<path d="M107.6,6.6h29.9v36.5l31.3-36.5h39.7l-35.3,36.5l36.9,60.2h-36.8l-20.4-39.8l-15.4,16.2v23.6h-29.9V6.6z"/>
	<path d="M221.2,6.6h29.9v96.7h-29.9V6.6z"/>
	<path d="M272.6,6.6h29.9v72.9h46.6v23.8h-76.5V6.6z"/>
	<path d="M362.7,6.6h29.9v72.9h46.6v23.8h-76.5V6.6z"/>
	<path d="M447.6,71.4l28.4-1.8c0.6,4.6,1.9,8.1,3.8,10.6c3.1,3.9,7.5,5.9,13.2,5.9c4.3,0,7.6-1,9.9-3s3.5-4.3,3.5-7
		c0-2.5-1.1-4.7-3.3-6.7c-2.2-2-7.3-3.8-15.3-5.6c-13.1-2.9-22.4-6.9-28-11.7c-5.6-4.9-8.4-11.1-8.4-18.7c0-5,1.4-9.7,4.3-14.1
		c2.9-4.4,7.2-7.9,13-10.4c5.8-2.5,13.7-3.8,23.8-3.8c12.4,0,21.8,2.3,28.3,6.9s10.3,11.9,11.6,21.9L504,35.5
		c-0.7-4.4-2.3-7.5-4.7-9.5c-2.4-2-5.7-3-9.9-3c-3.5,0-6.1,0.7-7.8,2.2s-2.6,3.3-2.6,5.4c0,1.5,0.7,2.9,2.2,4.2
		c1.4,1.3,4.8,2.5,10,3.6c13.1,2.8,22.4,5.7,28.1,8.5c5.7,2.9,9.8,6.5,12.3,10.7c2.6,4.3,3.9,9,3.9,14.3c0,6.2-1.7,11.9-5.1,17.2
		s-8.2,9.2-14.4,11.9c-6.2,2.7-13.9,4.1-23.3,4.1c-16.4,0-27.8-3.2-34.2-9.5C452,89.2,448.4,81.1,447.6,71.4z"/>
</svg>
