<?xml version="1.0" encoding="iso-8859-1"?>
<!-- Generator: Adobe Illustrator 16.0.0, SVG Export Plug-In . SVG Version: 6.00 Build 0)  -->
<!DOCTYPE svg PUBLIC "-//W3C//DTD SVG 1.1//EN" "http://www.w3.org/Graphics/SVG/1.1/DTD/svg11.dtd">
<svg version="1.1" id="Layer_1" xmlns="http://www.w3.org/2000/svg" xmlns:xlink="http://www.w3.org/1999/xlink" x="0px" y="0px" width="1491px" height="110px" viewBox="0 0 1491 110" style="enable-background:new 0 0 1491 110;" xml:space="preserve">
	<path d="M7.6,6.6H52c8.7,0,15.8,1.2,21.2,3.6c5.4,2.4,9.8,5.8,13.4,10.2c3.5,4.4,6.1,9.6,7.7,15.5c1.6,5.9,2.4,12.1,2.4,18.7
		c0,10.3-1.2,18.3-3.5,24c-2.4,5.7-5.6,10.5-9.8,14.3c-4.2,3.8-8.7,6.4-13.5,7.7c-6.6,1.8-12.5,2.6-17.8,2.6H7.6V6.6z M37.5,28.5
		v52.8h7.3c6.2,0,10.7-0.7,13.3-2.1c2.6-1.4,4.7-3.8,6.2-7.3c1.5-3.5,2.2-9,2.2-16.8c0-10.2-1.7-17.3-5-21
		c-3.3-3.8-8.9-5.7-16.6-5.7H37.5z"/>
	<path d="M112.2,6.6h80.1v20.6h-50.1v15.4h46.5v19.7h-46.5v19.1h51.6v21.9h-81.5V6.6z"/>
	<path d="M200.3,6.6h31.2l21.8,69.6l21.5-69.6h30.3l-35.9,96.7h-32.4L200.3,6.6z"/>
	<path d="M314.8,6.6h80.1v20.6h-50.1v15.4h46.5v19.7h-46.5v19.1h51.6v21.9h-81.5V6.6z"/>
	<path d="M412.5,6.6h29.9v72.9H489v23.8h-76.5V6.6z"/>
	<path d="M496.5,55.1c0-15.8,4.4-28.1,13.2-36.9c8.8-8.8,21-13.2,36.7-13.2c16.1,0,28.5,4.3,37.2,13c8.7,8.6,13.1,20.7,13.1,36.3
		c0,11.3-1.9,20.6-5.7,27.8c-3.8,7.2-9.3,12.9-16.5,16.9c-7.2,4-16.1,6-26.9,6c-10.9,0-19.9-1.7-27.1-5.2c-7.1-3.5-12.9-9-17.4-16.5
		C498.7,75.8,496.5,66.4,496.5,55.1z M526.4,55.2c0,9.8,1.8,16.8,5.4,21c3.6,4.3,8.6,6.4,14.8,6.4c6.4,0,11.4-2.1,14.9-6.3
		c3.5-4.2,5.3-11.7,5.3-22.5c0-9.1-1.8-15.8-5.5-20c-3.7-4.2-8.6-6.3-14.9-6.3c-6,0-10.9,2.1-14.5,6.4
		C528.2,38.3,526.4,45.3,526.4,55.2z"/>
	<path d="M612.7,6.6h49.7c10.8,0,18.9,2.6,24.3,7.7c5.4,5.1,8.1,12.5,8.1,22c0,9.8-2.9,17.4-8.8,22.9c-5.9,5.5-14.8,8.2-26.9,8.2
		h-16.4v35.9h-30V6.6z M642.7,47.9h7.3c5.8,0,9.8-1,12.1-3c2.3-2,3.5-4.6,3.5-7.7c0-3-1-5.6-3-7.7c-2-2.1-5.8-3.2-11.4-3.2h-8.5
		V47.9z"/>
	<path d="M710.3,6.6h80.1v20.6h-50.1v15.4h46.5v19.7h-46.5v19.1h51.6v21.9h-81.5V6.6z"/>
	<path d="M808.3,103.4V6.6h49.8c9.2,0,16.3,0.8,21.2,2.4c4.9,1.6,8.8,4.5,11.8,8.8c3,4.3,4.5,9.5,4.5,15.7c0,5.4-1.1,10-3.4,13.9
		c-2.3,3.9-5.4,7-9.4,9.5c-2.6,1.5-6.1,2.8-10.5,3.8c3.6,1.2,6.2,2.4,7.8,3.6c1.1,0.8,2.7,2.5,4.8,5.1c2.1,2.6,3.5,4.6,4.2,6
		l14.5,28h-33.8l-16-29.6c-2-3.8-3.8-6.3-5.4-7.5c-2.2-1.5-4.6-2.2-7.3-2.2h-2.6v39.2H808.3z M838.3,45.8h12.6c1.4,0,4-0.4,7.9-1.3
		c2-0.4,3.6-1.4,4.8-3c1.3-1.6,1.9-3.5,1.9-5.6c0-3.1-1-5.5-3-7.2c-2-1.7-5.7-2.5-11.1-2.5h-13.1V45.8z"/>
	<path d="M952.8,71.4l28.4-1.8c0.6,4.6,1.9,8.1,3.8,10.6c3.1,3.9,7.5,5.9,13.2,5.9c4.3,0,7.6-1,9.9-3c2.3-2,3.5-4.3,3.5-7
		c0-2.5-1.1-4.8-3.3-6.7c-2.2-2-7.3-3.8-15.3-5.6c-13.1-2.9-22.4-6.9-28-11.7c-5.6-4.9-8.4-11.1-8.4-18.7c0-5,1.4-9.7,4.3-14.1
		c2.9-4.4,7.2-7.9,13-10.4c5.8-2.5,13.7-3.8,23.8-3.8c12.4,0,21.8,2.3,28.3,6.9c6.5,4.6,10.3,11.9,11.6,21.9l-28.2,1.6
		c-0.8-4.4-2.3-7.5-4.7-9.5c-2.4-2-5.7-3-9.9-3c-3.5,0-6.1,0.7-7.8,2.2c-1.8,1.5-2.6,3.3-2.6,5.4c0,1.5,0.7,2.9,2.2,4.2
		c1.4,1.3,4.7,2.5,10,3.6c13.1,2.8,22.4,5.7,28.1,8.5c5.7,2.9,9.8,6.5,12.3,10.7c2.6,4.3,3.9,9,3.9,14.3c0,6.2-1.7,11.9-5.1,17.1
		c-3.4,5.2-8.2,9.2-14.4,11.9c-6.2,2.7-13.9,4.1-23.3,4.1c-16.4,0-27.8-3.2-34.2-9.5C957.2,89.2,953.7,81.1,952.8,71.4z"/>
	<path d="M1055.7,6.6h29.9v36.5l31.3-36.5h39.7l-35.3,36.5l36.9,60.2h-36.8L1101,63.6l-15.4,16.2v23.6h-29.9V6.6z"/>
	<path d="M1169.3,6.6h29.9v96.7h-29.9V6.6z"/>
	<path d="M1220.7,6.6h29.9v72.9h46.6v23.8h-76.5V6.6z"/>
	<path d="M1310.8,6.6h29.9v72.9h46.6v23.8h-76.5V6.6z"/>
	<path d="M1395.7,71.4l28.4-1.8c0.6,4.6,1.9,8.1,3.8,10.6c3.1,3.9,7.5,5.9,13.2,5.9c4.3,0,7.6-1,9.9-3c2.3-2,3.5-4.3,3.5-7
		c0-2.5-1.1-4.8-3.3-6.7c-2.2-2-7.3-3.8-15.3-5.6c-13.1-2.9-22.4-6.9-28-11.7c-5.6-4.9-8.4-11.1-8.4-18.7c0-5,1.4-9.7,4.3-14.1
		c2.9-4.4,7.2-7.9,13-10.4c5.8-2.5,13.7-3.8,23.8-3.8c12.4,0,21.8,2.3,28.3,6.9c6.5,4.6,10.3,11.9,11.6,21.9l-28.2,1.6
		c-0.7-4.4-2.3-7.5-4.7-9.5c-2.4-2-5.7-3-9.9-3c-3.5,0-6.1,0.7-7.8,2.2c-1.8,1.5-2.6,3.3-2.6,5.4c0,1.5,0.7,2.9,2.2,4.2
		c1.4,1.3,4.8,2.5,10,3.6c13.1,2.8,22.4,5.7,28.1,8.5c5.7,2.9,9.8,6.5,12.3,10.7c2.6,4.3,3.9,9,3.9,14.3c0,6.2-1.7,11.9-5.1,17.1
		c-3.4,5.2-8.2,9.2-14.4,11.9c-6.2,2.7-13.9,4.1-23.3,4.1c-16.4,0-27.8-3.2-34.2-9.5C1400.1,89.2,1396.5,81.1,1395.7,71.4z"/>
</svg>
