<?xml version="1.0" encoding="iso-8859-1"?>
<!-- Generator: Adobe Illustrator 16.0.0, SVG Export Plug-In . SVG Version: 6.00 Build 0)  -->
<!DOCTYPE svg PUBLIC "-//W3C//DTD SVG 1.1//EN" "http://www.w3.org/Graphics/SVG/1.1/DTD/svg11.dtd">
<svg version="1.1" id="Layer_1" xmlns="http://www.w3.org/2000/svg" xmlns:xlink="http://www.w3.org/1999/xlink" x="0px" y="0px" width="811.5px" height="110px" viewBox="0 0 811.5 110" style="enable-background:new 0 0 811.5 110;" xml:space="preserve">
	<path d="M62.6,6.6h-3.9c0.8,0.6,1.5,1.2,2.3,1.7C61.5,7.8,62,7.2,62.6,6.6z"/>
	<path d="M55.6,14.1c-2.8-2.5-5.6-5-8.5-7.5h-3.3l-9.7,25.8c0.9,0.4,1.7,0.8,2.6,1.2C43.1,27.3,49.4,20.7,55.6,14.1z"/>
	<path d="M31.9,38.5l-0.1,0.2C31.9,38.6,31.9,38.5,31.9,38.5C31.9,38.5,31.9,38.5,31.9,38.5z"/>
	<path d="M36.7,33.7c-0.9-0.4-1.7-0.8-2.6-1.2l-2.2,6c0,0,0,0,0.1,0C33.5,36.9,35.1,35.3,36.7,33.7z"/>
	<path d="M61,8.4c-0.8-0.6-1.6-1.2-2.3-1.7H47.2c2.8,2.5,5.6,5,8.5,7.5C57.4,12.2,59.2,10.3,61,8.4z"/>
	<path d="M76.4,6.6H62.6C62,7.2,61.5,7.8,61,8.4c3.4,2.5,6.9,5,10.4,7.4c1.9-2.6,3.7-5.2,5.6-7.8L76.4,6.6z"/>
	<path d="M71.3,15.8c0.4,0.3,0.8,0.5,1.1,0.8c2.1-1.3,4.1-2.6,6.2-4L76.9,8C75.1,10.6,73.2,13.2,71.3,15.8z"/>
	<path d="M64.3,22c-2.9-2.6-5.8-5.3-8.7-7.8c-6.2,6.6-12.5,13.1-18.9,19.6c2.2,1,4.4,2.1,6.5,3.1C50.1,31.7,57.1,26.8,64.3,22z"/>
	<path d="M31.9,38.5c0,0-0.1,0.1-0.1,0.1l-3.7,9.8c3.2-2.6,6.5-5.1,9.8-7.6C36,40,34,39.2,31.9,38.5z"/>
	<path d="M43.3,36.8c-2.2-1-4.4-2.1-6.5-3.1c-1.6,1.6-3.2,3.2-4.8,4.8c2,0.7,4,1.5,6,2.3C39.7,39.5,41.5,38.2,43.3,36.8z"/>
	<path d="M61,8.4c-1.8,1.9-3.6,3.8-5.4,5.7c2.9,2.6,5.8,5.2,8.7,7.8c1.7-1.1,3.3-2.2,5-3.3c0.7-1,1.4-1.9,2.1-2.9
		C67.8,13.4,64.4,10.9,61,8.4z"/>
	<path d="M71.3,15.8c-0.7,1-1.4,1.9-2.1,2.9c1.1-0.7,2.1-1.4,3.2-2.1C72.1,16.3,71.7,16,71.3,15.8z"/>
	<path d="M72.5,16.6c3.3,2.3,6.7,4.5,10.2,6.6l-4-10.5C76.6,13.9,74.5,15.2,72.5,16.6z"/>
	<path d="M64.3,22c0.5,0.5,1.1,1,1.6,1.5c1.1-1.6,2.2-3.2,3.4-4.8C67.6,19.8,65.9,20.9,64.3,22z"/>
	<path d="M72.5,16.6c-1.1,0.7-2.1,1.4-3.2,2.1c-1.1,1.6-2.2,3.2-3.4,4.8c2.9,2.7,5.9,5.4,8.8,8.1c2.8-2.4,5.6-4.7,8.4-7l-0.5-1.5
		C79.2,21,75.8,18.8,72.5,16.6z"/>
	<path d="M50.5,46.3c-1.2,1.9-2.5,3.8-3.7,5.6c2.4-1.4,4.7-2.7,7-4.1C52.7,47.3,51.6,46.8,50.5,46.3z"/>
	<path d="M38,40.8c-3.3,2.5-6.6,5-9.8,7.6l-3,8c2.4,1.5,4.8,3.1,7.2,4.7c0.9-0.7,1.9-1.4,2.8-2.1c3.9-2.6,7.9-4.9,11.7-7.1
		c1.2-1.9,2.4-3.8,3.7-5.6C46.3,44.4,42.2,42.5,38,40.8z"/>
	<path d="M50.5,46.3c1.1,0.5,2.2,1,3.3,1.6c0.4-0.3,0.9-0.5,1.3-0.8l1.3-4.1c-0.9-0.4-1.9-0.9-2.8-1.3C52.5,43.2,51.5,44.7,50.5,46.3
		z"/>
	<path d="M43.3,36.8c-1.8,1.3-3.5,2.6-5.3,4c4.2,1.7,8.4,3.5,12.5,5.5c1-1.5,2-3.1,3.1-4.6C50.1,40,46.7,38.5,43.3,36.8z"/>
	<path d="M21.4,66.4l-1.6,4.3c1.4-1.1,2.9-2.2,4.3-3.2C23.2,67.1,22.3,66.8,21.4,66.4z"/>
	<path d="M32.3,61.1c-2.4-1.6-4.8-3.1-7.2-4.7l-3.7,9.9c0.9,0.3,1.8,0.7,2.7,1C26.8,65.4,29.5,63.3,32.3,61.1z"/>
	<path d="M56.4,42.9l3-9.9c-2,2.9-3.9,5.8-5.8,8.6C54.5,42.1,55.4,42.5,56.4,42.9z"/>
	<path d="M59.9,32.2l2.9,9.4c4-3.3,8-6.7,12-9.9c-2.9-2.7-5.9-5.4-8.8-8.1C63.9,26.4,61.9,29.3,59.9,32.2z"/>
	<path d="M64.3,22c-7.2,4.8-14.2,9.8-21,14.9c3.4,1.6,6.9,3.2,10.3,4.8c1.9-2.9,3.9-5.8,5.8-8.6l0.4-1.3l0.1,0.5c2-2.9,4-5.8,6-8.7
		C65.4,23,64.8,22.5,64.3,22z"/>
	<path d="M38,103.4l1.5-4.9c-1.6,1.7-3.2,3.3-4.8,4.9H38z"/>
	<path d="M32.3,61.1c-2.8,2.1-5.5,4.2-8.2,6.3c3.5,1.3,7,2.6,10.6,3.9c1.2-2,2.5-4,3.7-6C36.3,63.9,34.3,62.5,32.3,61.1z"/>
	<path d="M38.3,65.3c-1.2,2-2.5,4-3.7,6c7.3,2.7,14.7,5.2,22.3,7.7C50.8,74.2,44.6,69.7,38.3,65.3z"/>
	<path d="M16.2,80.3l-8.7,23h8.5c3.2-5.8,6.5-11.5,9.8-17.2C22.5,84.3,19.3,82.3,16.2,80.3z"/>
	<path d="M15.9,103.4h18.7c1.6-1.6,3.2-3.3,4.8-4.9l1.2-4.2c-5.1-2.6-10-5.3-14.9-8.1C22.4,91.8,19.1,97.6,15.9,103.4z"/>
	<path d="M34.6,71.3c-3,4.9-6,9.9-8.9,14.8c4.9,2.8,9.9,5.5,14.9,8.1l2-6.9h7.1c2.5-2.7,4.9-5.5,7.4-8.2C57.1,79.1,57,79,56.9,79
		C49.4,76.5,41.9,74,34.6,71.3z"/>
	<path d="M24,67.4c-1.4,1.1-2.9,2.2-4.3,3.2l-3.6,9.6c3.1,2,6.3,4,9.6,5.8c2.9-5,5.9-9.9,8.9-14.8C31.1,70,27.6,68.7,24,67.4z"/>
	<path d="M54.7,48.3l0.4-1.2c-0.4,0.3-0.8,0.5-1.3,0.8C54.1,48,54.4,48.1,54.7,48.3z"/>
	<path d="M35.1,59c-0.9,0.7-1.9,1.4-2.8,2.1c2,1.4,4.1,2.7,6.1,4.1c2.8-4.5,5.6-8.9,8.5-13.4C43,54.1,39,56.4,35.1,59z"/>
	<path d="M54.7,48.3c-0.3-0.1-0.6-0.3-0.9-0.4c-2.3,1.4-4.6,2.7-7,4.1c-2.9,4.4-5.7,8.9-8.5,13.4c6.3,4.4,12.4,9,18.5,13.7
		c0.1,0,0.2,0.1,0.4,0.1c3.7-4.2,7.4-8.4,11.2-12.6H49.2L54.7,48.3z"/>
	<path d="M57.2,79.2C57.2,79.1,57.2,79.1,57.2,79.2c0-0.1-0.2-0.2-0.3-0.2C57,79,57.1,79.1,57.2,79.2z"/>
	<path d="M62.8,41.6l1.5,5c5.2,2.4,10.4,4.7,15.6,7.1c2-2.2,4.1-4.5,6.2-6.7c0.8-0.8,1.6-1.6,2.5-2.5c-4.6-4.3-9.2-8.7-13.8-12.9
		C70.8,34.9,66.8,38.2,62.8,41.6z"/>
	<path d="M69.9,64.8c1.9-2.1,3.8-4.2,5.6-6.3c-3-1.5-6-3-8.9-4.4L69.9,64.8z"/>
	<path d="M66.6,54.1c3,1.5,5.9,3,8.9,4.4c1.4-1.6,2.9-3.2,4.3-4.8c-5.2-2.4-10.4-4.7-15.6-7.1L66.6,54.1z"/>
	<path d="M74.7,31.6c4.6,4.3,9.2,8.6,13.8,12.9c0.5-0.5,1-1,1.6-1.6l-6.9-18.4C80.4,26.9,77.6,29.3,74.7,31.6z"/>
	<path d="M80.2,99.1c0.3-0.3,0.6-0.5,0.8-0.8c-0.5-0.4-0.9-0.8-1.4-1.2L80.2,99.1z"/>
	<path d="M100.3,70.1c-0.4-0.2-0.9-0.4-1.3-0.6c-6.4,5.9-12.4,12.1-18,18.7c2.4,1.1,4.7,2.2,7,3.3c5-4.8,9.9-9.7,14.9-14.5
		L100.3,70.1z"/>
	<path d="M78,91.8l1.6,5.3c0.5,0.4,0.9,0.8,1.4,1.2c2.3-2.3,4.6-4.5,7-6.8c-2.3-1.1-4.7-2.2-7-3.3C80,89.4,79,90.6,78,91.8z"/>
	<path d="M99.8,68.8c-0.3,0.3-0.5,0.5-0.8,0.8c0.4,0.2,0.9,0.4,1.3,0.6L99.8,68.8z"/>
	<path d="M90,58.4c2.4,1.1,4.8,2.2,7.2,3.4L94,53.4C92.6,55.1,91.3,56.7,90,58.4z"/>
	<path d="M66.3,87.4h1.3c-0.3-0.2-0.5-0.4-0.8-0.6C66.6,87,66.4,87.2,66.3,87.4z"/>
	<path d="M90,58.4c-1.4,1.7-2.8,3.4-4.2,5.1c4.4,2.1,8.8,4.1,13.2,6c0.3-0.3,0.5-0.5,0.8-0.8l-2.6-7C94.7,60.6,92.3,59.5,90,58.4z"/>
	<path d="M66.8,86.8c0.3,0.2,0.5,0.4,0.8,0.6h9.1l1.3,4.4c1-1.2,2-2.4,3-3.6c-3.8-1.7-7.6-3.3-11.5-4.8
		C68.6,84.5,67.7,85.6,66.8,86.8z"/>
	<path d="M69.5,83.4c3.9,1.5,7.7,3.1,11.5,4.8c5.6-6.6,11.6-12.8,18-18.7c-4.5-1.9-8.9-3.9-13.2-6C80.3,70.1,74.9,76.8,69.5,83.4z"/>
	<path d="M80.2,99.1l1.3,4.2h5.7c-2.1-1.7-4.1-3.4-6.2-5C80.7,98.6,80.5,98.9,80.2,99.1z"/>
	<path d="M88,91.5c-2.3,2.3-4.6,4.5-7,6.8c2,1.7,4.1,3.4,6.2,5h15.7c0.8-0.9,1.5-1.8,2.3-2.7C99.5,97.4,93.8,94.4,88,91.5z"/>
	<path d="M102.9,77c-5,4.8-9.9,9.7-14.9,14.5c5.8,2.8,11.5,5.9,17.2,9.2c1.5-1.8,3.1-3.6,4.6-5.4L102.9,77z"/>
	<path d="M105.2,100.7c-0.8,0.9-1.5,1.8-2.3,2.7h6.9C108.2,102.4,106.7,101.5,105.2,100.7z"/>
	<path d="M109.7,95.3c-1.5,1.8-3.1,3.6-4.6,5.4c1.5,0.9,3.1,1.8,4.6,2.7h3L109.7,95.3z"/>
	<path d="M88.5,44.5c0.5,0.5,1,1,1.5,1.5c0.5,0.4,1,0.7,1.5,1l-1.5-4C89.6,43.5,89.1,44,88.5,44.5z"/>
	<path d="M90.1,46c-0.5-0.5-1-1-1.5-1.5c-0.8,0.8-1.6,1.6-2.5,2.5c-2.1,2.2-4.1,4.5-6.2,6.7c3.4,1.5,6.7,3.1,10.1,4.7
		c1.4-1.6,2.7-3.3,4.1-4.9L91.6,47C91.1,46.7,90.6,46.4,90.1,46z"/>
	<path d="M49.8,87.4h16.5c0.2-0.2,0.3-0.4,0.5-0.6c-3.2-2.6-6.4-5.1-9.6-7.6C54.7,81.9,52.3,84.7,49.8,87.4z"/>
	<path d="M57.2,79.1C57.2,79.1,57.2,79.1,57.2,79.1c3.1,2.6,6.3,5.1,9.5,7.7c0.9-1.1,1.8-2.2,2.7-3.3c-3.1-1.2-6.2-2.4-9.4-3.4
		C59.1,79.7,58.2,79.4,57.2,79.1z"/>
	<path d="M69.9,64.8l0.5,1.7h-2c-3.7,4.2-7.4,8.4-11.2,12.6c0.9,0.3,1.9,0.6,2.8,0.9c3.2,1.1,6.3,2.2,9.4,3.4
		c5.4-6.6,10.8-13.3,16.2-19.9c-3.4-1.6-6.8-3.3-10.2-5C73.7,60.6,71.8,62.7,69.9,64.8z"/>
	<path d="M75.6,58.5c3.4,1.7,6.8,3.3,10.2,5c1.4-1.7,2.8-3.4,4.2-5.1c-3.4-1.6-6.7-3.1-10.1-4.7C78.4,55.3,77,56.9,75.6,58.5z"/>
	<path d="M122.3,6.6v0.6c0.1-0.2,0.3-0.4,0.4-0.6H122.3z"/>
	<path d="M124.8,6.6h-2c-0.1,0.2-0.3,0.4-0.4,0.6v12.5c2.1-2.4,4.2-4.9,6.3-7.3C127.4,10.5,126.1,8.6,124.8,6.6z"/>
	<path d="M133.7,6.6h-8.9c1.3,1.9,2.6,3.8,3.9,5.7C130.3,10.5,132,8.6,133.7,6.6z"/>
	<path d="M122.3,54v4c0.5-0.5,1.1-1,1.6-1.6C123.4,55.7,122.9,54.8,122.3,54z"/>
	<path d="M131.4,49.3c-0.9-1.1-1.9-2.1-2.8-3.2c-2.1,1.4-4.2,2.9-6.3,4.4V54c0.5,0.8,1.1,1.6,1.6,2.4
		C126.4,54.1,128.9,51.7,131.4,49.3z"/>
	<path d="M145.4,35.8c-0.1-0.1-0.1-0.1-0.2-0.2c-5.6,3.3-11.2,6.8-16.6,10.5c0.9,1.1,1.9,2.2,2.8,3.2
		C136.1,44.8,140.7,40.3,145.4,35.8z"/>
	<path d="M146.3,34.9c-0.3,0.2-0.7,0.4-1,0.6c0.1,0.1,0.1,0.1,0.2,0.2C145.7,35.5,146,35.2,146.3,34.9z"/>
	<path d="M122.3,38.7v11.7c2.1-1.5,4.2-3,6.3-4.4C126.5,43.6,124.4,41.2,122.3,38.7z"/>
	<path d="M145.2,35.5c-5.6-7.6-11.1-15.3-16.6-23.2c-2.1,2.4-4.2,4.9-6.3,7.3v19c2.1,2.5,4.2,4.9,6.3,7.4
		C134,42.4,139.6,38.9,145.2,35.5z"/>
	<path d="M146.3,34.9c1.6-1.5,3.1-3,4.7-4.5c-5.6-8-11.2-15.9-16.8-23.8h-0.5c-1.7,1.9-3.3,3.8-5,5.7c5.4,7.9,11,15.5,16.6,23.2
		C145.6,35.3,145.9,35.1,146.3,34.9z"/>
	<path d="M152.5,29v-2.7h2.9c2.2-2.1,4.5-4.2,6.7-6.3c-4.7-3.8-9.4-7.8-14-11.9c-0.5-0.4-1-0.9-1.5-1.4h-12.5
		c5.6,7.9,11.2,15.8,16.8,23.8C151.4,30,152,29.5,152.5,29z"/>
	<path d="M162,19.9c4.7-4.4,9.3-8.9,14.1-13.3h-29.5c0.5,0.5,1,0.9,1.5,1.4C152.6,12.1,157.3,16.1,162,19.9z"/>
	<path d="M169.4,82.5c-0.6,0-1.1,0-1.7,0h-4.4c1.1,1.1,2.3,2.1,3.4,3.2C167.6,84.7,168.5,83.6,169.4,82.5z"/>
	<path d="M163.3,82.6h-4.2c-0.9,4.9-1.5,10-2.2,15c3.2-3.9,6.5-7.9,9.8-11.8C165.6,84.7,164.4,83.7,163.3,82.6z"/>
	<path d="M155.7,99.1c-2.8-3.4-5.6-6.8-8.3-10.2c-0.8,1.1-1.5,2.2-2.3,3.2c2.8,3.6,5.1,7.3,7.2,11
		C153.5,101.8,154.6,100.4,155.7,99.1z"/>
	<path d="M152.4,103.1c-2.2-3.7-4.5-7.5-7.2-11c-2.6,3.7-5.3,7.5-7.9,11.2h14.9C152.3,103.3,152.3,103.2,152.4,103.1z"/>
	<path d="M156.9,97.6c0.7-5,1.3-10,2.2-15h-6.6v-0.8c-1.7,2.3-3.4,4.7-5,7c2.7,3.4,5.5,6.8,8.3,10.2
		C156.1,98.6,156.5,98.1,156.9,97.6z"/>
	<path d="M197.6,99.4c-1.5-2.4-3-4.7-4.5-7c-1.5,1.6-3.1,3.3-4.6,4.9c0.8,1.4,1.7,2.7,2.5,4.1C193.6,100.9,195.8,100.3,197.6,99.4z"
		/>
	<path d="M188.4,97.3c-1.3,1.4-2.6,2.8-3.9,4.2c0.3,0.2,0.6,0.5,0.9,0.7c0.6-0.1,1.3-0.2,2-0.3c1.3-0.2,2.5-0.4,3.6-0.6
		C190.1,100.1,189.2,98.7,188.4,97.3z"/>
	<path d="M184.4,101.6c-0.3,0.3-0.6,0.6-0.9,0.9c0.6-0.1,1.1-0.1,1.8-0.2C185,102,184.7,101.8,184.4,101.6z"/>
	<path d="M211.5,72.6c-6.2,6.6-12.4,13.2-18.5,19.8c1.5,2.3,3,4.7,4.5,7c0.4-0.2,0.8-0.4,1.1-0.6c4-2.3,7.2-5.5,9.6-9.5
		c2.3-4,3.5-8.5,3.5-13.5C211.7,74.7,211.6,73.6,211.5,72.6z"/>
	<path d="M152.4,103.1c-0.1,0.1-0.1,0.2-0.2,0.2h0.3C152.5,103.3,152.4,103.2,152.4,103.1z"/>
	<path d="M156,103.4c0.2-1.1,0.4-2.2,0.5-3.3c-0.3-0.3-0.6-0.7-0.9-1c-1.1,1.4-2.2,2.7-3.3,4.1c0,0.1,0.1,0.2,0.1,0.2H156z"/>
	<path d="M156.9,97.6c-0.4,0.5-0.8,1-1.2,1.5c0.3,0.3,0.6,0.7,0.9,1C156.7,99.3,156.8,98.4,156.9,97.6z"/>
	<path d="M181.5,75c-0.4,1.9-1.4,3.6-2.9,4.9c-0.3,0.3-0.6,0.5-1,0.7c2.5,3.7,5,7.5,7.5,11.4c1.1,1.8,2.2,3.6,3.3,5.3
		c1.5-1.6,3.1-3.3,4.6-4.9C189.2,86.5,185.4,80.7,181.5,75z"/>
	<path d="M185.1,92c-2.5-3.9-5-7.7-7.5-11.4c-1.9,1.2-4.6,1.8-8.2,2c-0.9,1.1-1.8,2.2-2.7,3.2c5.8,5.4,11.7,10.7,17.7,15.8
		c1.3-1.4,2.6-2.8,3.9-4.2C187.3,95.6,186.2,93.8,185.1,92z"/>
	<path d="M166.7,85.8c-3.3,3.9-6.5,7.8-9.8,11.8c-0.1,0.8-0.2,1.7-0.4,2.5c0.9,1.1,1.8,2.2,2.8,3.3h14.6c1.8,0,5-0.3,9.6-0.8
		c0.3-0.3,0.6-0.6,0.9-0.9C178.4,96.4,172.5,91.2,166.7,85.8z"/>
	<path d="M156.6,100.1c-0.2,1.1-0.3,2.2-0.5,3.3h3.3C158.4,102.3,157.5,101.2,156.6,100.1z"/>
	<path d="M206.8,60.5c-2.7-3.3-6.6-5.8-11.7-7.5c-4.7,5.3-9.4,10.6-14,15.9c0.4,1.1,0.7,2.3,0.7,3.6c0,0.9-0.1,1.7-0.3,2.5
		c3.9,5.8,7.7,11.6,11.5,17.4c6.2-6.6,12.3-13.2,18.5-19.8C211,67.9,209.5,63.8,206.8,60.5z"/>
	<path d="M207.2,32.2c-2.5,1.4-5.1,2.8-7.7,4.2c1.5,2.1,2.9,4.2,4.4,6.3C205.8,39.6,206.9,36.1,207.2,32.2z"/>
	<path d="M201.9,45.4c0.7-0.9,1.4-1.8,2-2.7c-1.5-2.1-3-4.2-4.4-6.3c-2.8,1.5-5.7,3.1-8.5,4.7c3.1,2,6.1,4,9.2,5.9
		C200.8,46.6,201.4,46,201.9,45.4z"/>
	<path d="M173.8,63.5c-1.2-1.8-2.5-3.6-3.7-5.4c-1.2,1.6-2.5,3.2-3.7,4.8h1.2C170,63,172.1,63.2,173.8,63.5z"/>
	<path d="M200.2,47.1c-3.1-1.9-6.2-3.9-9.2-5.9c-6.3,3.7-12.4,7.6-17.4,12.4c-1.2,1.5-2.3,3.1-3.5,4.6c1.2,1.8,2.5,3.6,3.7,5.4
		c2.1,0.4,3.7,1.1,4.8,2.1c1.1,0.9,1.9,2,2.5,3.3c4.6-5.3,9.3-10.7,14-15.9c-1.2-0.4-2.4-0.8-3.7-1.1C195.1,50.7,198,49,200.2,47.1z"
		/>
	<path d="M207.2,30.5c-2.8-3.1-5.5-6.2-8.2-9.4c-1.8,2.2-3.6,4.5-5.3,6.7c1.9,2.9,3.8,5.8,5.7,8.6c2.6-1.4,5.2-2.8,7.7-4.2
		c0-0.5,0.1-1,0.1-1.5C207.2,30.6,207.2,30.6,207.2,30.5z"/>
	<path d="M193.7,27.8c-2.6,3.3-5.2,6.6-7.8,9.9c1.7,1.2,3.4,2.3,5.1,3.4c2.8-1.6,5.6-3.2,8.5-4.7C197.5,33.6,195.6,30.7,193.7,27.8z"
		/>
	<path d="M202.6,16.7c-1.2,1.5-2.4,3-3.5,4.4c2.7,3.2,5.4,6.3,8.2,9.4C207.2,25.2,205.6,20.6,202.6,16.7z"/>
	<path d="M185.9,37.7c-4.1,5.2-8.2,10.5-12.3,15.8c5-4.8,11.1-8.7,17.4-12.4C189.3,40,187.6,38.9,185.9,37.7z"/>
	<path d="M152.5,31.4V29c-0.5,0.5-1,1-1.5,1.5c0.3,0.4,0.6,0.9,0.9,1.3C152.1,31.7,152.3,31.5,152.5,31.4z"/>
	<path d="M150.9,30.5c-1.6,1.5-3.1,3-4.7,4.5c1.9-1.1,3.7-2.1,5.6-3.2C151.5,31.3,151.2,30.9,150.9,30.5z"/>
	<path d="M152.5,31.4c-0.2,0.1-0.4,0.2-0.6,0.4c0.2,0.3,0.4,0.6,0.6,0.9V31.4z"/>
	<path d="M140.6,59.5c-3.1-3.4-6.2-6.8-9.2-10.2c-2.5,2.4-5,4.8-7.4,7.2c2.8,4.2,5.7,8.3,8.6,12.4C135.2,65.8,137.9,62.6,140.6,59.5z
		"/>
	<path d="M122.3,78.1v2.6c0.6-0.7,1.2-1.3,1.7-2C123.5,78.5,122.9,78.3,122.3,78.1z"/>
	<path d="M132.5,68.9c-2.9-4.1-5.8-8.3-8.6-12.4c-0.5,0.5-1.1,1-1.6,1.6v20.1c0.6,0.2,1.2,0.4,1.7,0.6
		C126.9,75.4,129.7,72.2,132.5,68.9z"/>
	<path d="M152.6,45.6c-2.4-3.3-4.8-6.5-7.2-9.8c-4.7,4.5-9.3,9-14,13.5c3,3.5,6.1,6.9,9.2,10.2C144.6,54.9,148.7,50.2,152.6,45.6z"/>
	<path d="M153.5,44.6h-1V32.7c-0.2-0.3-0.4-0.6-0.6-0.9c-1.9,1-3.7,2.1-5.6,3.2c-0.3,0.3-0.6,0.6-0.9,0.8c2.4,3.3,4.8,6.5,7.2,9.8
		C152.9,45.2,153.2,44.9,153.5,44.6z"/>
	<path d="M170.1,58.1c-0.1-0.2-0.2-0.3-0.4-0.5c-1.4,1.7-2.8,3.5-3.9,5.4h0.6C167.6,61.4,168.9,59.7,170.1,58.1z"/>
	<path d="M173.6,53.5c-1.4,1.3-2.6,2.7-3.9,4.1c0.1,0.2,0.2,0.3,0.4,0.5C171.3,56.6,172.4,55.1,173.6,53.5z"/>
	<path d="M169.4,25.8c-0.2,0.2-0.3,0.4-0.5,0.6c0.6,0.1,1.1,0.2,1.7,0.3C170.2,26.4,169.8,26.1,169.4,25.8z"/>
	<path d="M152.5,63h12.9c-4.2-5.9-8.5-11.7-12.7-17.4c-4,4.7-8,9.3-12,14c3.9,4.2,7.8,8.3,11.8,12.4V63z"/>
	<path d="M152.5,81.8v-9.9c-4-4.1-8-8.2-11.8-12.4c-2.7,3.1-5.4,6.2-8.1,9.4c4.8,6.8,9.8,13.4,14.9,20
		C149.1,86.5,150.8,84.1,152.5,81.8z"/>
	<path d="M145.1,92c0,0,0.1,0.1,0.1,0.1c0.8-1.1,1.5-2.2,2.3-3.2c-5.1-6.5-10.1-13.2-14.9-20c-2.8,3.3-5.6,6.5-8.5,9.8
		C132.3,81.6,139.5,85.5,145.1,92z"/>
	<path d="M145.1,92.1c0,0-0.1-0.1-0.1-0.1c-5.6-6.5-12.8-10.4-21-13.3c-0.6,0.7-1.2,1.3-1.7,2v22.6h14.9
		C139.9,99.6,142.5,95.8,145.1,92.1z"/>
	<path d="M165.8,63c1.2-1.9,2.5-3.7,3.9-5.4c-3-4.4-6-8.7-9-13h-7.3c-0.3,0.3-0.6,0.7-0.9,1c4.2,5.8,8.5,11.5,12.7,17.4H165.8z"/>
	<path d="M173.6,53.5c4.1-5.3,8.2-10.6,12.3-15.8c-2.9-2-5.7-4-8.6-6c0.4,1,0.6,2.2,0.6,3.5c0,3-0.9,5.4-2.7,7
		c-1.8,1.6-5.1,2.4-9.7,2.4h-4.7c3,4.3,6,8.7,9,13C171,56.2,172.2,54.8,173.6,53.5z"/>
	<path d="M202.6,16.7c-0.8-1.1-1.8-2.1-2.8-3.1c-2-1.9-4.4-3.3-7.2-4.5c-0.8,0.5-1.5,0.9-2.3,1.3c2.9,3.6,5.8,7.2,8.8,10.7
		C200.2,19.6,201.4,18.2,202.6,16.7z"/>
	<path d="M190.3,10.5c-1.8,1-3.6,2.1-5.4,3.1c2.8,4.8,5.8,9.6,8.8,14.3c1.8-2.2,3.6-4.5,5.3-6.7C196.1,17.6,193.2,14,190.3,10.5z"/>
	<path d="M175.2,28.6c1,0.8,1.7,1.9,2.1,3.1c2.8,2.1,5.7,4.1,8.6,6c2.6-3.3,5.2-6.6,7.8-9.9c-3-4.7-6-9.4-8.8-14.3
		c-3.3,1.9-6.6,3.8-9.9,5.6c-1.8,2.2-3.7,4.4-5.5,6.6c0.4,0.3,0.8,0.6,1.1,0.9C172.6,27,174.1,27.7,175.2,28.6z"/>
	<path d="M175,19.2c-2.7,1.5-5.5,3-8.2,4.5c0.9,0.7,1.8,1.4,2.7,2.1C171.3,23.6,173.1,21.4,175,19.2z"/>
	<path d="M168.9,26.4c0.2-0.2,0.3-0.4,0.5-0.6c-0.9-0.7-1.8-1.4-2.7-2.1c-1.6,0.8-3.1,1.7-4.7,2.6h3.6
		C166.8,26.2,167.9,26.3,168.9,26.4z"/>
	<path d="M184.9,7.1c-1.3-0.2-2.6-0.3-3.9-0.4c0.6,1,1.1,2,1.7,3.1C183.5,8.9,184.2,8,184.9,7.1z"/>
	<path d="M175,19.2c2.6-3.1,5.2-6.3,7.8-9.4c-0.6-1-1.2-2-1.7-3.1c-0.9,0-1.8-0.1-2.7-0.1h-2.2c-4.7,4.4-9.4,8.8-14.1,13.3
		c1.6,1.3,3.1,2.5,4.7,3.8C169.5,22.2,172.2,20.7,175,19.2z"/>
	<path d="M166.7,23.7c-1.6-1.2-3.2-2.5-4.7-3.8c-2.2,2.1-4.5,4.2-6.7,6.3h6.8C163.7,25.4,165.2,24.5,166.7,23.7z"/>
	<path d="M190.3,10.5c-0.7-0.9-1.5-1.8-2.2-2.7c-1-0.2-2.1-0.4-3.1-0.6c-0.7,0.9-1.5,1.8-2.2,2.7c0.7,1.3,1.4,2.5,2.2,3.8
		C186.7,12.5,188.5,11.5,190.3,10.5z"/>
	<path d="M182.7,9.8c-2.6,3.1-5.2,6.3-7.8,9.4c3.3-1.8,6.6-3.7,9.9-5.6C184.2,12.3,183.4,11,182.7,9.8z"/>
	<path d="M192.6,9.1c-1.4-0.6-2.9-1-4.5-1.4c0.7,0.9,1.5,1.8,2.2,2.7C191,10,191.8,9.6,192.6,9.1z"/>
	<path d="M246.2,47.9c-2.2-1.7-4.3-3.4-6.4-5.1c-3.5,3.7-7,7.4-10.5,11.1c2.1,2.1,4.2,4.3,6.4,6.4C239.1,56.1,242.6,52,246.2,47.9z"
		/>
	<path d="M231.6,64.9c1.3-1.6,2.6-3.1,4-4.7c-2.1-2.1-4.3-4.2-6.4-6.4c-1.8,1.9-3.7,3.8-5.5,5.8c0,0.4,0.1,0.8,0.1,1.1
		C226.4,62.2,229,63.6,231.6,64.9z"/>
	<path d="M263.6,28.2c-1.6-1.8-3.2-3.6-4.7-5.4c-6.4,6.6-12.8,13.3-19.2,20c2.1,1.7,4.2,3.4,6.4,5.1
		C251.9,41.2,257.7,34.7,263.6,28.2z"/>
	<path d="M231.6,64.9c-2.6-1.4-5.2-2.7-7.8-4.1c0.3,3.7,0.8,7.2,1.6,10.4c0.2,0.2,0.3,0.4,0.5,0.6C227.8,69.5,229.7,67.2,231.6,64.9z
		"/>
	<path d="M225.9,71.8c-0.2-0.2-0.3-0.4-0.5-0.6c0.1,0.3,0.1,0.6,0.2,0.9C225.7,72,225.8,71.9,225.9,71.8z"/>
	<path d="M276.2,14.8c-1.7-1.5-3.4-3-5.1-4.5c-4.1,4.2-8.1,8.3-12.2,12.5c1.6,1.8,3.1,3.6,4.7,5.4C267.8,23.7,271.9,19.2,276.2,14.8z
		"/>
	<path d="M284.9,5.8c-2.8-0.4-5.7-0.7-8.7-0.8c0,0,0,0,0,0c1.5,1.7,3,3.3,4.5,5C282.1,8.7,283.5,7.2,284.9,5.8z"/>
	<path d="M280.7,10.1c-1.5-1.7-3-3.3-4.5-5c-1.7,1.7-3.4,3.5-5.1,5.2c1.7,1.5,3.4,3,5.1,4.5C277.7,13.2,279.2,11.7,280.7,10.1z"/>
	<path d="M229.2,53.9c-1.8-1.8-3.6-3.6-5.3-5.4c-0.2,2.1-0.3,4.3-0.3,6.6c0,1.6,0,3.1,0.1,4.6C225.5,57.7,227.4,55.8,229.2,53.9z"/>
	<path d="M239.7,42.8c-4.2-3.4-8.2-7-12.1-10.7c-2,4.9-3.3,10.3-3.8,16.4c1.8,1.8,3.5,3.6,5.3,5.4C232.7,50.2,236.2,46.5,239.7,42.8z
		"/>
	<path d="M258.9,22.8c-3.6-4.2-7.3-8.4-10.9-12.6c-4.2,2-7.9,4.7-11.2,8c-3.9,3.9-7,8.5-9.1,13.9c3.9,3.7,7.9,7.3,12.1,10.7
		C246.1,36.1,252.5,29.4,258.9,22.8z"/>
	<path d="M271,10.3c-1.9-1.6-3.7-3.3-5.5-4.9c-6.5,0.7-12.4,2.3-17.5,4.8c3.6,4.2,7.3,8.4,10.9,12.6C262.9,18.6,267,14.5,271,10.3z"
		/>
	<path d="M276.1,5.1C276.1,5.1,276.1,5.1,276.1,5.1C275.2,5,274.4,5,273.5,5c-2.8,0-5.4,0.1-8,0.4c1.8,1.6,3.7,3.3,5.5,4.9
		C272.7,8.6,274.4,6.8,276.1,5.1z"/>
	<path d="M276.2,5C276.2,5,276.1,5,276.2,5C276.1,5.1,276.1,5.1,276.2,5C276.2,5.1,276.2,5.1,276.2,5z"/>
	<path d="M258.9,76.2c-0.3-0.3-0.6-0.7-0.8-1.1c-0.3,0.7-0.7,1.3-1.1,2c2.1,0.9,4.2,1.9,6.3,2.8C261.7,79,260.2,77.8,258.9,76.2z"/>
	<path d="M276.2,82.5c-0.8,0.1-1.6,0.1-2.4,0.1c-2.2,0-4.3-0.3-6.2-0.8c2.5,1.1,4.9,2.1,7.4,3.1C275.4,84.1,275.8,83.3,276.2,82.5z"
		/>
	<path d="M274.9,84.9c-2.5-1-4.9-2.1-7.4-3.1c-1.5-0.4-2.9-1-4.2-1.8c-2.1-0.9-4.2-1.9-6.3-2.8c-0.4,0.7-0.8,1.5-1.2,2.2
		c5,4.5,10,9,15.1,13.4C272.3,90.2,273.6,87.6,274.9,84.9z"/>
	<path d="M264.9,104.5c2-3.9,4.1-7.8,6.1-11.7c-5.1-4.4-10.1-8.9-15.1-13.4c-3.1,5.9-6.2,11.7-9.4,17.6c1,1.2,2.1,2.5,3.1,3.7
		C254,102.5,259.1,103.8,264.9,104.5z"/>
	<path d="M246.5,96.9c-0.3,0.6-0.6,1.2-0.9,1.7c0.7,0.4,1.4,0.8,2.1,1.1c0.6,0.3,1.3,0.6,2,0.9C248.6,99.4,247.5,98.2,246.5,96.9z"/>
	<path d="M316.4,47.5c-2.7-2.1-5.4-4.2-8.1-6.2c2.3,2.7,4.7,5.4,7,8.1C315.7,48.8,316.1,48.2,316.4,47.5z"/>
	<path d="M303,70.9c-3.2-3.2-6.3-6.5-9.4-9.8c-0.6,6.2-2,10.9-4.1,14c2.7,1.7,5.4,3.4,8.1,5.1C299.4,77.2,301.2,74.1,303,70.9z"/>
	<path d="M289.5,75.2c-0.3,0.4-0.6,0.8-0.9,1.1c-3.1,3.6-7.2,5.7-12.5,6.2c-0.4,0.8-0.8,1.6-1.2,2.4c5.4,2.2,10.8,4.4,16.2,6.4
		c2.1-3.7,4.3-7.3,6.4-11C294.9,78.6,292.2,76.9,289.5,75.2z"/>
	<path d="M291.1,91.3c-5.4-2.1-10.8-4.2-16.2-6.4c-1.3,2.6-2.7,5.3-4,7.9c4.3,3.7,8.6,7.4,13,11.1C286.3,99.7,288.7,95.5,291.1,91.3z
		"/>
	<path d="M283.6,104.5c0.1-0.2,0.2-0.4,0.3-0.6c-4.3-3.7-8.7-7.4-13-11.1c-2,3.9-4,7.8-6.1,11.7c3.1,0.4,6.4,0.5,9.8,0.5
		C277.8,105,280.8,104.8,283.6,104.5z"/>
	<path d="M293.6,61.2c3.1,3.3,6.3,6.5,9.4,9.8c4.2-7.2,8.3-14.4,12.4-21.6c-2.3-2.7-4.7-5.4-7-8.1c-3.1-2.4-6.2-4.9-9.3-7.4
		c-1.9,4.2-3.8,8.4-5.7,12.6c0.3,2.2,0.5,4.7,0.5,7.3C293.9,56.5,293.8,58.9,293.6,61.2z"/>
	<path d="M300,31.8c-0.3,0.7-0.6,1.4-0.9,2.1c3.1,2.5,6.2,4.9,9.3,7.4C305.6,38.1,302.8,35,300,31.8z"/>
	<path d="M316.4,47.5c1.8-3.2,3.6-6.5,5.4-9.8c-0.4-1.6-0.9-3.1-1.4-4.5c-4.8-5-9.7-9.9-14.5-14.9c-1.9,4.5-3.9,9-5.9,13.5
		c2.8,3.2,5.6,6.3,8.3,9.5C311,43.4,313.7,45.5,316.4,47.5z"/>
	<path d="M310.7,18c-1.1-1.1-2.2-2-3.4-3c-0.5,1.1-0.9,2.2-1.4,3.3c4.8,5,9.6,10,14.5,14.9C318.2,27.3,315,22.2,310.7,18z"/>
	<path d="M304.8,94.6c-0.3,0.5-0.7,0.9-1,1.4c0.1,0,0.2,0.1,0.2,0.1C304.3,95.6,304.5,95.1,304.8,94.6z"/>
	<path d="M304,96.1c-0.1,0-0.2-0.1-0.2-0.1c-0.7,0.9-1.4,1.9-2,2.8c0.4-0.2,0.8-0.5,1.3-0.8C303.4,97.4,303.7,96.8,304,96.1z"/>
	<path d="M323.8,54.3C323.8,54.3,323.8,54.3,323.8,54.3c0-0.5,0-0.9,0-1.3c-2.5-1.8-4.9-3.7-7.3-5.5c-0.3,0.6-0.7,1.2-1,1.9
		c2.3,2.7,4.6,5.4,6.9,8.1C322.8,56.4,323.3,55.4,323.8,54.3z"/>
	<path d="M322.3,57.5c-2.3-2.7-4.6-5.4-6.9-8.1c-4,7.2-8.2,14.4-12.4,21.6c3,3,6,6,9,9C315.6,72.4,318.9,65,322.3,57.5z"/>
	<path d="M312,79.9c-3-3-6-6-9-9c-1.8,3.1-3.7,6.3-5.5,9.4c3.6,2.3,7.3,4.7,10.9,7C309.6,84.9,310.8,82.4,312,79.9z"/>
	<path d="M304.8,94.6c1.2-2.4,2.5-4.9,3.6-7.3c-3.6-2.3-7.3-4.6-10.9-7c-2.1,3.7-4.3,7.3-6.4,11c4.2,1.6,8.4,3.2,12.6,4.7
		C304.1,95.6,304.5,95.1,304.8,94.6z"/>
	<path d="M291.1,91.3c-2.4,4.2-4.8,8.4-7.3,12.6c0.2,0.1,0.4,0.3,0.5,0.4c6.5-0.9,12.3-2.7,17.2-5.4c0.1,0,0.1-0.1,0.2-0.1
		c0.7-0.9,1.4-1.9,2-2.8C299.6,94.5,295.4,92.9,291.1,91.3z"/>
	<path d="M283.9,103.9c-0.1,0.2-0.2,0.4-0.3,0.6c0.3,0,0.6-0.1,0.9-0.1C284.2,104.2,284.1,104.1,283.9,103.9z"/>
	<path d="M321.8,37.8c-1.8,3.3-3.6,6.5-5.4,9.8c2.4,1.9,4.9,3.7,7.3,5.5C323.7,47.5,323,42.4,321.8,37.8z"/>
	<path d="M323.8,54.3c-0.5,1.1-1,2.1-1.4,3.2c0.4,0.5,0.9,1,1.3,1.5C323.7,57.5,323.8,55.9,323.8,54.3z"/>
	<path d="M322.3,70.1c0.7-3.4,1.2-7.1,1.4-11.1c-0.4-0.5-0.9-1-1.3-1.5c-3.4,7.5-6.8,14.9-10.3,22.4c0.6,0.6,1.3,1.3,1.9,1.9
		C316.7,77.9,319.5,74,322.3,70.1z"/>
	<path d="M313.9,81.8c-0.6-0.6-1.3-1.3-1.9-1.9c-1.2,2.5-2.4,5-3.6,7.4c0.4,0.2,0.7,0.5,1.1,0.7C311,85.9,312.5,83.9,313.9,81.8z"/>
	<path d="M308.4,87.3c-1.2,2.4-2.4,4.9-3.6,7.3c1.6-2.2,3.1-4.4,4.7-6.6C309.1,87.8,308.8,87.6,308.4,87.3z"/>
	<path d="M318.1,82.1c1.8-3.5,3.2-7.5,4.2-11.9c-2.8,3.9-5.5,7.8-8.3,11.7c0.9,0.9,1.8,1.8,2.8,2.7C317.2,83.7,317.6,82.9,318.1,82.1
		z"/>
	<path d="M316.7,84.5c-0.9-0.9-1.9-1.8-2.8-2.7c-1.5,2.1-3,4.2-4.4,6.2c1,0.7,2.1,1.3,3.1,2C314.1,88.3,315.5,86.5,316.7,84.5z"/>
	<path d="M312.6,90c-1-0.7-2.1-1.3-3.1-2c-1.6,2.2-3.1,4.4-4.7,6.6c-0.2,0.5-0.5,1-0.8,1.5c0.4,0.2,0.9,0.3,1.3,0.5
		C308.1,94.7,310.5,92.5,312.6,90z"/>
	<path d="M304,96.1c-0.3,0.7-0.7,1.3-1,2c0.8-0.5,1.6-1,2.3-1.5C304.9,96.4,304.5,96.3,304,96.1z"/>
	<path d="M284,21.4c-1.1,2.4-2.2,4.9-3.3,7.3c3,1,5.6,2.7,7.7,5.2c2.6,3,4.3,7.2,5,12.6c1.9-4.2,3.8-8.4,5.7-12.6
		C294,29.8,288.9,25.6,284,21.4z"/>
	<path d="M286.3,16.3c-0.8,1.7-1.5,3.4-2.3,5.1c5,4.2,10,8.4,15.1,12.5c0.3-0.7,0.6-1.4,0.9-2.1C295.5,26.6,290.9,21.5,286.3,16.3z"
		/>
	<path d="M305.9,18.3c-2.9-3.1-5.9-6.1-8.8-9.2c-2.1-0.9-4.4-1.6-6.7-2.2c-1.4,3.1-2.8,6.3-4.2,9.4c4.6,5.2,9.2,10.3,13.8,15.5
		C302,27.3,304,22.8,305.9,18.3z"/>
	<path d="M307.3,15c-3-2.4-6.4-4.3-10.2-5.9c2.9,3.1,5.8,6.1,8.8,9.2C306.4,17.2,306.9,16.1,307.3,15z"/>
	<path d="M284.9,5.8c-1.4,1.4-2.8,2.9-4.2,4.3c1.9,2.1,3.7,4.1,5.6,6.2c1.4-3.1,2.8-6.3,4.2-9.4C288.6,6.5,286.8,6.1,284.9,5.8z"/>
	<path d="M286.3,16.3c-1.9-2.1-3.7-4.1-5.6-6.2c-1.5,1.6-3,3.1-4.5,4.7c2.6,2.2,5.2,4.4,7.8,6.7C284.7,19.7,285.5,18,286.3,16.3z"/>
	<path d="M257,77.2c0.4-0.7,0.7-1.3,1.1-2c-3.1-4.3-4.6-11-4.6-20c0-0.7,0-1.4,0-2c-2.5-1.7-4.9-3.5-7.3-5.3
		c-3.6,4.1-7.1,8.2-10.6,12.4c4.7,4.6,9.5,9.2,14.4,13.7C252.3,75,254.7,76.1,257,77.2z"/>
	<path d="M235.6,60.2c-1.3,1.6-2.6,3.1-4,4.7c6.1,3.1,12.2,6.1,18.3,9C245.1,69.4,240.3,64.9,235.6,60.2z"/>
	<path d="M258.9,34c1.7-2,3.6-3.5,5.8-4.5c-0.4-0.4-0.8-0.9-1.1-1.3c-5.9,6.5-11.7,13-17.5,19.6c2.4,1.8,4.8,3.6,7.3,5.3
		C253.7,44.4,255.5,38,258.9,34z"/>
	<path d="M257,77.2c-2.4-1.1-4.7-2.2-7.1-3.2c2,1.8,3.9,3.6,5.9,5.4C256.3,78.7,256.6,77.9,257,77.2z"/>
	<path d="M255.9,79.4c-2-1.8-3.9-3.6-5.9-5.4c-6.2-2.9-12.3-5.9-18.3-9c-1.9,2.3-3.8,4.6-5.7,6.9c6.8,8.5,13.7,16.8,20.6,25.1
		C249.7,91.1,252.8,85.3,255.9,79.4z"/>
	<path d="M225.9,71.8c-0.1,0.1-0.2,0.2-0.2,0.3c1.1,4.1,2.6,7.9,4.6,11.2c4,6.8,9.1,11.9,15.3,15.4c0.3-0.6,0.6-1.2,0.9-1.7
		C239.6,88.6,232.7,80.3,225.9,71.8z"/>
	<path d="M273.5,27.6c2.6,0,5,0.4,7.2,1.1c1.1-2.4,2.2-4.9,3.3-7.3c-2.6-2.2-5.2-4.4-7.8-6.7c-4.2,4.4-8.4,8.9-12.6,13.4
		c0.4,0.4,0.8,0.9,1.1,1.3C267.3,28.3,270.2,27.6,273.5,27.6z"/>
	<path d="M339.9,6.6v4.1c1.2,0.9,2.5,1.8,3.7,2.7c1.2-2.3,2.5-4.5,3.8-6.8H339.9z"/>
	<path d="M339.9,10.8v9.7c1.2-2.4,2.5-4.7,3.7-7.1C342.4,12.5,341.2,11.7,339.9,10.8z"/>
	<path d="M366.2,6.6h-18.7c-1.3,2.3-2.6,4.5-3.8,6.8c4,2.9,8.1,5.7,12.1,8.5C359.3,16.8,362.8,11.8,366.2,6.6z"/>
	<path d="M343.7,13.4c-1.3,2.4-2.5,4.7-3.7,7.1v17.9c0.9,0.9,1.8,1.8,2.7,2.7c4.4-6.4,8.8-12.8,13.2-19.2
		C351.8,19.1,347.7,16.3,343.7,13.4z"/>
	<path d="M339.9,38.4v6.5c0.9-1.3,1.8-2.6,2.7-3.8C341.7,40.2,340.8,39.3,339.9,38.4z"/>
	<path d="M369.8,22.4V6.6h-3.6c-3.5,5.1-6.9,10.2-10.4,15.3c3.4,2.4,6.8,4.7,10.3,7.1C367.3,26.8,368.5,24.6,369.8,22.4z"/>
	<path d="M366.1,29c-3.4-2.3-6.8-4.7-10.3-7.1c-4.4,6.4-8.8,12.8-13.2,19.2c3.5,3.5,7,6.9,10.5,10.3C357.5,44,361.8,36.5,366.1,29z"
		/>
	<path d="M343.1,67c-1-0.7-2.1-1.5-3.1-2.2c0,2.2,0.2,4.5,0.7,7c1-1.5,1.9-3,2.8-4.5C343.3,67.2,343.2,67.1,343.1,67z"/>
	<path d="M339.9,53.1v11.2c0,0.2,0,0.4,0,0.5c1,0.7,2.1,1.5,3.1,2.2c0.1,0.1,0.2,0.2,0.4,0.3c1.4-2.2,2.7-4.4,4.1-6.6
		C345,58.2,342.5,55.6,339.9,53.1z"/>
	<path d="M342.6,41.1c-0.9,1.3-1.8,2.6-2.7,3.8v8.2c2.5,2.5,5,5.1,7.6,7.6c1.9-3.1,3.8-6.2,5.6-9.3C349.6,48,346.1,44.6,342.6,41.1z"
		/>
	<path d="M369.8,22.4c-1.2,2.2-2.5,4.4-3.7,6.6c1.2,0.8,2.5,1.7,3.7,2.5V22.4z"/>
	<path d="M369.8,56.4V31.5c-1.2-0.8-2.5-1.7-3.7-2.5c-4.2,7.5-8.5,15-12.9,22.4c4.2,4,8.4,8,12.7,11.9
		C367.2,61,368.5,58.7,369.8,56.4z"/>
	<path d="M365.9,63.3c-4.3-3.9-8.5-7.9-12.7-11.9c-1.9,3.1-3.7,6.2-5.6,9.3c4.2,4.2,8.4,8.4,12.6,12.6C362,70,364,66.7,365.9,63.3z"
		/>
	<path d="M357.1,78.4c-4.3-3.8-8.8-7.5-13.6-11.1c-0.9,1.5-1.9,3-2.8,4.5c0.5,2.7,1.2,5.7,2.1,8.8c0.2,0.8,0.5,1.6,0.9,2.4
		c2,2.5,4,5,6.1,7.5C352.2,86.5,354.6,82.4,357.1,78.4z"/>
	<path d="M349.6,90.5c-2-2.5-4-5-6.1-7.5c1.2,2.9,3,5.8,5.4,8.6C349.2,91.3,349.4,90.9,349.6,90.5z"/>
	<path d="M360.1,73.3c-4.2-4.2-8.4-8.4-12.6-12.6c-1.3,2.2-2.7,4.4-4.1,6.6c4.8,3.5,9.3,7.3,13.6,11.1
		C358.1,76.7,359.1,75,360.1,73.3z"/>
	<path d="M369.8,65.6v-9.2c-1.3,2.3-2.6,4.6-3.9,6.9c1.3,1.2,2.6,2.4,3.9,3.6C369.8,66.5,369.8,66.1,369.8,65.6z"/>
	<path d="M370.4,71c-0.3-1.3-0.5-2.6-0.6-4.1c-1.3-1.2-2.6-2.4-3.9-3.6c-1.9,3.3-3.8,6.6-5.8,9.9c1.8,1.8,3.5,3.5,5.3,5.3
		C367.1,76,368.7,73.5,370.4,71z"/>
	<path d="M362.3,83.2c-1.7-1.6-3.5-3.2-5.3-4.8c-2.4,4.1-4.9,8.2-7.4,12.2c1.4,1.8,2.9,3.6,4.3,5.4C356.7,91.7,359.5,87.4,362.3,83.2
		z"/>
	<path d="M349.6,90.5c-0.2,0.4-0.4,0.7-0.7,1.1c0,0,0.1,0.1,0.1,0.1c1.5,1.7,3,3.2,4.6,4.5c0.1-0.1,0.2-0.2,0.2-0.4
		C352.5,94.1,351.1,92.3,349.6,90.5z"/>
	<path d="M365.4,78.5c-1.8-1.8-3.5-3.5-5.3-5.3c-1,1.7-2,3.4-3,5.1c1.8,1.6,3.6,3.2,5.3,4.8C363.4,81.6,364.4,80.1,365.4,78.5z"/>
	<path d="M402.8,6.6v16.4c3.8-5.5,7.6-11,11.5-16.4H402.8z"/>
	<path d="M387.4,82.4c1.1,0.9,2.1,1.8,3.2,2.7c0.6-1.2,1.1-2.3,1.7-3.5C390.8,82.1,389.2,82.3,387.4,82.4z"/>
	<path d="M390.6,85.1c-1.1-0.9-2.1-1.8-3.2-2.7c-0.4,0-0.7,0-1.1,0c-5.2,0-9.2-1.5-12.2-4.4c-1.8-1.9-3.1-4.2-3.8-7
		c-1.7,2.5-3.3,5-5,7.5c6.4,6.3,12.8,12.7,19.2,19C386.6,93.4,388.6,89.2,390.6,85.1z"/>
	<path d="M359.3,100.1c3.7,1.9,8.4,3.3,14,3.9c2.7,0.3,5.4,0.6,7.9,0.7c0.3-0.5,0.5-1,0.8-1.6c-6.3-6.8-12.7-13.5-19.6-20
		c-2.8,4.2-5.6,8.5-8.4,12.8c0.4,0.5,0.8,1,1.2,1.5C356.5,98.4,357.9,99.3,359.3,100.1z"/>
	<path d="M355.1,97.4c-0.4-0.5-0.8-1-1.2-1.5c-0.1,0.1-0.2,0.2-0.2,0.4C354.2,96.7,354.6,97.1,355.1,97.4z"/>
	<path d="M381.9,103.2c0.9-1.9,1.8-3.8,2.7-5.6c-6.4-6.3-12.8-12.7-19.2-19c-1,1.5-2,3.1-3.1,4.6C369.2,89.6,375.7,96.4,381.9,103.2z
		"/>
	<path d="M426.6,16.3c-4.6,7.9-8.9,15.7-13.1,23.6c3.3,3.1,6.6,6.2,9.9,9.3c3.1-7.1,6.1-14.2,9.2-21.3v-3.3
		C430.6,21.7,428.6,19,426.6,16.3z"/>
	<path d="M423.4,49.1c-3.3-3.1-6.6-6.2-9.9-9.3c-2.8,5.2-5.5,10.3-8.1,15.5c4,2.6,8,5.3,12,7.9C419.4,58.5,421.4,53.8,423.4,49.1z"/>
	<path d="M390.6,85.1c-2,4.1-4,8.3-6,12.4c2.5,2.5,5,4.9,7.5,7.4c2.7-0.1,5.2-0.3,7.7-0.7c1.2-2.8,2.4-5.6,3.6-8.5
		C399.1,92.2,394.9,88.7,390.6,85.1z"/>
	<path d="M381.9,103.2c-0.3,0.5-0.5,1.1-0.8,1.6c0.8,0.1,1.5,0.1,2.3,0.1C383,104.3,382.4,103.7,381.9,103.2z"/>
	<path d="M388.7,105c1.2,0,2.3,0,3.5-0.1c-2.5-2.5-5-4.9-7.5-7.4c-0.9,1.9-1.8,3.8-2.7,5.6c0.5,0.6,1,1.1,1.6,1.7
		C385.3,104.9,387,105,388.7,105z"/>
	<path d="M417.3,63.2c-4-2.6-8-5.3-12-7.9c-0.9,1.7-1.7,3.4-2.6,5.1v5.2c0,5.4-1.5,9.5-4.4,12.4c-1.7,1.7-3.7,2.8-6.1,3.6
		c-0.6,1.2-1.1,2.3-1.7,3.5c4.2,3.6,8.5,7.1,12.8,10.7C408.1,84.9,412.7,74.1,417.3,63.2z"/>
	<path d="M432.1,6.6c-1,1.8-2,3.6-3.1,5.4c-0.8,1.4-1.7,2.8-2.5,4.3c2,2.7,4,5.4,6,8.2V6.6H432.1z"/>
	<path d="M417.3,63.2c-4.6,10.8-9.3,21.7-13.9,32.5c2.3,1.9,4.7,3.8,7,5.7c3.9-1.6,7.6-4.1,11.1-7.7c3.8-3.8,6.6-8.2,8.4-13.3
		c0.9-2.5,1.5-5,2-7.6C427.1,69.6,422.2,66.4,417.3,63.2z"/>
	<path d="M410.4,101.4c-2.3-1.9-4.7-3.8-7-5.7c-1.2,2.8-2.4,5.6-3.6,8.5c3.6-0.5,6.8-1.4,9.8-2.4
		C409.9,101.7,410.2,101.5,410.4,101.4z"/>
	<path d="M423.4,49.1c-2,4.7-4,9.4-6.1,14.1c4.9,3.2,9.7,6.4,14.6,9.6c0.5-2.8,0.7-5.6,0.7-8.6v-6.6
		C429.6,54.8,426.5,51.9,423.4,49.1z"/>
	<path d="M423.4,49.1c3.1,2.9,6.1,5.7,9.2,8.6V27.7C429.5,34.8,426.5,42,423.4,49.1z"/>
	<path d="M426.6,16.3c-2.4-3.2-4.8-6.4-7.2-9.6h-5c-3.9,5.5-7.7,10.9-11.5,16.4v6.7c3.6,3.3,7.1,6.7,10.7,10
		C417.7,32,422,24.1,426.6,16.3z"/>
	<path d="M413.5,39.8c-3.6-3.3-7.1-6.7-10.7-10v23.8c0.9,0.6,1.7,1.1,2.6,1.7C408,50.2,410.7,45,413.5,39.8z"/>
	<path d="M402.8,53.6v6.8c0.9-1.7,1.7-3.4,2.6-5.1C404.5,54.7,403.7,54.2,402.8,53.6z"/>
	<path d="M419.3,6.6c2.4,3.2,4.8,6.4,7.2,9.6c0.8-1.4,1.6-2.8,2.5-4.3c1.1-1.8,2.1-3.6,3.1-5.4H419.3z"/>
	<path d="M501.2,6.6h-19.4c-1,1.3-1.9,2.6-2.8,3.9c4.8,4.1,9.7,8.1,14.6,12.1C496.2,17.3,498.8,12,501.2,6.6z"/>
	<path d="M476.1,36.5v20.9c2.5-4.7,4.9-9.3,7.3-14C481,41.1,478.5,38.8,476.1,36.5z"/>
	<path d="M466.8,28c-0.6,0.8-1.2,1.7-1.8,2.5h4.5C468.7,29.7,467.7,28.8,466.8,28z"/>
	<path d="M476.1,30.5v6c2.4,2.3,4.9,4.5,7.3,6.8c3.5-6.9,6.9-13.8,10.3-20.7c-4.9-4-9.8-8-14.6-12.1c-4.2,5.8-8.2,11.6-12.2,17.4
		c0.9,0.8,1.8,1.7,2.8,2.5H476.1z"/>
	<path d="M484.1,103.4c1.4-1.9,2.8-3.7,4.1-5.6c-0.7-0.9-1.5-1.8-2.2-2.7c-1.8-2.1-3.7-4-5.7-5.8c-1.4,2.6-2.9,5.2-4.3,7.8v0.5
		c2.2,1.9,4.3,3.9,6.5,5.8H484.1z"/>
	<path d="M476.1,97.5v5.3c0.2,0.2,0.4,0.3,0.7,0.5h5.8C480.4,101.4,478.2,99.5,476.1,97.5z"/>
	<path d="M476.1,103.4h0.7c-0.2-0.2-0.4-0.3-0.7-0.5V103.4z"/>
	<path d="M486.1,95c0.7,1,1.4,1.9,2.2,2.7c6.3-8.7,12.2-17.5,17.7-26.4V65c-2.6-2.6-5.3-5.2-8-7.8c-5.9,10.6-11.8,21.3-17.6,31.9
		C482.3,91,484.3,92.9,486.1,95z"/>
	<path d="M506,42.9c-2.7,4.8-5.3,9.6-8,14.4c2.7,2.6,5.3,5.2,8,7.8V42.9z"/>
	<path d="M506,103.4V71.3c-5.6,8.9-11.5,17.7-17.7,26.4c1.7,2,3.5,3.8,5.2,5.6H506z"/>
	<path d="M488.2,97.7c-1.4,1.9-2.7,3.8-4.1,5.6h9.3C491.7,101.5,489.9,99.7,488.2,97.7z"/>
	<path d="M506,30.5h6.8c2.8-5.1,5.6-10.2,8.3-15.3c-4.8-2.9-9.5-5.7-14.3-8.6h-5.5c-2.5,5.4-5,10.7-7.6,16c4.1,3.3,8.2,6.5,12.3,9.8
		V30.5z"/>
	<path d="M476.1,85.3V97c1.4-2.6,2.9-5.2,4.3-7.8C478.9,87.9,477.5,86.6,476.1,85.3z"/>
	<path d="M498,57.3c-4.8-4.7-9.7-9.3-14.6-13.9c-2.4,4.7-4.8,9.4-7.3,14v27.9c1.4,1.3,2.8,2.6,4.3,3.9
		C486.2,78.6,492.1,67.9,498,57.3z"/>
	<path d="M506,42.9V32.4c-4.1-3.2-8.2-6.5-12.3-9.8c-3.3,6.9-6.8,13.8-10.3,20.7c4.9,4.6,9.8,9.2,14.6,13.9
		C500.7,52.5,503.3,47.7,506,42.9z"/>
	<path d="M506.8,6.6c4.8,2.9,9.6,5.7,14.3,8.6c1.5-2.8,3.1-5.7,4.6-8.6H506.8z"/>
	<path d="M521.1,15.2c-2.8,5.1-5.5,10.2-8.3,15.3h16.8c1.4-2.6,2.8-5.2,4.1-7.8C529.5,20.3,525.3,17.7,521.1,15.2z"/>
	<path d="M536.4,17.6V6.6h-10.8c-1.5,2.9-3.1,5.7-4.6,8.6c4.2,2.5,8.4,5.1,12.6,7.6C534.6,21,535.5,19.3,536.4,17.6z"/>
	<path d="M536.4,24.4c-0.9-0.6-1.8-1.1-2.8-1.7c-1.4,2.6-2.7,5.2-4.1,7.8h6.9V24.4z"/>
	<path d="M536.4,17.6c-0.9,1.7-1.8,3.5-2.8,5.2c0.9,0.6,1.8,1.1,2.8,1.7V17.6z"/>
	<path d="M460.4,22.1c-4.9-4.5-9.8-8.9-14.8-13.3v21.7h11.2C458,27.7,459.2,24.9,460.4,22.1z"/>
	<path d="M445.6,6.6v2.2c4.9,4.4,9.9,8.8,14.8,13.3c2.2-5.2,4.4-10.3,6.6-15.5H445.6z"/>
	<path d="M479.1,10.6c-1.5-1.3-3.1-2.6-4.6-3.9H467c-2.2,5.1-4.4,10.3-6.6,15.5c2.1,2,4.3,3.9,6.4,5.9
		C470.8,22.2,474.9,16.4,479.1,10.6z"/>
	<path d="M460.4,22.1c-1.2,2.8-2.4,5.6-3.6,8.4h8.2c0.6-0.8,1.2-1.7,1.8-2.5C464.7,26,462.5,24.1,460.4,22.1z"/>
	<path d="M481.9,6.6h-7.4c1.5,1.3,3.1,2.6,4.6,3.9C480,9.3,480.9,8,481.9,6.6z"/>
	<path d="M594.7,30.4v14.7c2.1-3.8,4.2-7.7,6.2-11.5C598.9,32.6,596.8,31.5,594.7,30.4z"/>
	<path d="M615.5,7c-0.3-0.1-0.6-0.2-0.9-0.4h-19.9v23.8c2.1,1.1,4.2,2.2,6.2,3.2C605.8,24.7,610.5,15.8,615.5,7z"/>
	<path d="M615.7,6.6h-1.1c0.3,0.1,0.6,0.2,0.9,0.4C615.6,6.9,615.6,6.8,615.7,6.6z"/>
	<path d="M619.2,37.2c-0.8,1.4-1.7,2.9-2.5,4.3c0.8,0.4,1.7,0.8,2.5,1.2V37.2z"/>
	<path d="M594.7,103.4h6.4c0.8-1.2,1.5-2.5,2.2-3.8c-2.9-1.8-5.8-3.6-8.7-5.5V103.4z"/>
	<path d="M603,64.8c-2.8,4.7-5.5,9.3-8.3,14v15.4c2.9,1.8,5.8,3.7,8.7,5.5c5.1-8.5,9.8-17.2,14.3-26.1
		C612.8,70.6,607.9,67.7,603,64.8z"/>
	<path d="M619.2,70.6V42.7c-0.8-0.4-1.7-0.8-2.5-1.2c-4.5,7.8-9.1,15.5-13.7,23.3c4.9,2.9,9.8,5.8,14.7,8.8
		C618.2,72.5,618.7,71.6,619.2,70.6z"/>
	<path d="M619.2,70.6c-0.5,1-1,2-1.5,3c0.5,0.3,1,0.6,1.5,0.9V70.6z"/>
	<path d="M601.1,103.4h8.3c-2-1.2-4-2.5-6-3.8C602.6,100.8,601.9,102.1,601.1,103.4z"/>
	<path d="M619.2,74.4c-0.5-0.3-1-0.6-1.5-0.9c-4.5,8.9-9.2,17.6-14.3,26.1c2,1.3,4,2.5,6,3.8h9.7V74.4z"/>
	<path d="M619.2,37.2v-7.6l1.3,5.3c4-6.9,7.9-13.9,11.7-20.9c-5.6-2.4-11.1-4.7-16.7-7c-5,8.8-9.8,17.7-14.6,26.6
		c5.2,2.7,10.5,5.3,15.7,7.8C617.5,40,618.3,38.6,619.2,37.2z"/>
	<path d="M594.7,59.8v19c2.8-4.7,5.5-9.3,8.3-14C600.2,63.1,597.5,61.4,594.7,59.8z"/>
	<path d="M616.7,41.5c-5.3-2.5-10.5-5.1-15.7-7.8c-2.1,3.8-4.1,7.6-6.2,11.5v14.6c2.8,1.7,5.5,3.3,8.3,5
		C607.6,57,612.2,49.3,616.7,41.5z"/>
	<path d="M634.7,9.5l-0.3-1.3c-1.4-0.5-2.8-1-4.3-1.5h-14.4c-0.1,0.1-0.1,0.2-0.2,0.4c5.6,2.3,11.2,4.6,16.7,7
		C633,12.5,633.9,11,634.7,9.5z"/>
	<path d="M634,6.6h-3.9c1.4,0.5,2.8,1,4.3,1.5L634,6.6z"/>
	<path d="M639,26.2c-3,7.2-6,14.4-9.2,21.6c5.6,2.6,11.1,5.1,16.7,7.7L639,26.2z"/>
	<path d="M634,83.2c-0.5-0.3-0.9-0.5-1.4-0.8l0.6,2.5C633.5,84.3,633.8,83.7,634,83.2z"/>
	<path d="M634,83.2c4.3-9.1,8.5-18.2,12.6-27.4l-0.1-0.4c-5.6-2.5-11.1-5.1-16.7-7.7c-1.3,2.9-2.5,5.7-3.9,8.6l6.7,26.1
		C633.1,82.6,633.6,82.9,634,83.2z"/>
	<path d="M667.8,29.7c-2.7-1.3-5.5-2.5-8.2-3.8c-0.3,0.7-0.5,1.3-0.8,2l-7.6,29.6c1.8,0.8,3.5,1.6,5.3,2.4
		C660.5,49.9,664.4,39.9,667.8,29.7z"/>
	<path d="M634,83.2c-0.3,0.5-0.5,1.1-0.8,1.6l4.7,18.3c2.1-4.7,4.1-9.4,6.2-14C640.7,87.1,637.4,85.1,634,83.2z"/>
	<path d="M651.2,57.5l-2,8l-2.5-9.7c-4.1,9.2-8.3,18.3-12.6,27.4c3.3,2,6.7,3.9,10.1,5.9c4.2-9.7,8.4-19.4,12.4-29.2
		C654.7,59.1,653,58.3,651.2,57.5z"/>
	<path d="M670.9,20.2c-2.6-0.9-5.1-1.9-7.7-2.8c-1.2,2.8-2.4,5.7-3.5,8.5c2.7,1.2,5.5,2.5,8.2,3.8C668.8,26.6,669.9,23.4,670.9,20.2z
		"/>
	<path d="M674.7,6.6h-7.2c-1.4,3.6-2.9,7.2-4.4,10.8c2.6,0.9,5.2,1.8,7.7,2.8C672.2,15.7,673.5,11.2,674.7,6.6z"/>
	<path d="M671.5,58.9c-1,2.1-2.1,4.2-3.1,6.3c0.4,0.2,0.9,0.4,1.3,0.6L671.5,58.9z"/>
	<path d="M668.4,65.2c-4.9,9.8-10,19.5-15.2,29.1c2.7,1.5,5.4,3,8,4.6l8.5-33.1C669.3,65.6,668.9,65.4,668.4,65.2z"/>
	<path d="M648.3,103.4h11.8l1.1-4.5c-2.7-1.5-5.4-3-8-4.6C651.6,97.3,650,100.3,648.3,103.4z"/>
	<path d="M703.5,74.7V47.6c-0.4,0-0.7-0.1-1.1-0.1c-5.3,8.6-10.7,17.1-16.2,25.6c4.8,2.2,9.6,4.3,14.4,6.5
		C701.6,78,702.5,76.4,703.5,74.7z"/>
	<path d="M700.6,79.6c-4.8-2.2-9.6-4.4-14.4-6.5c-2.4,3.7-4.8,7.4-7.2,11v19.2h7.5C691.3,95.4,696,87.5,700.6,79.6z"/>
	<path d="M703.5,47.1c-0.2-0.1-0.4-0.2-0.6-0.3c-0.2,0.3-0.3,0.5-0.5,0.8c0.4,0,0.7,0.1,1.1,0.1V47.1z"/>
	<path d="M703.5,45.8c-0.2,0.3-0.4,0.7-0.6,1c0.2,0.1,0.4,0.2,0.6,0.3V45.8z"/>
	<path d="M703.5,29.4c-0.6,1.1-1.2,2.2-1.9,3.3c0.6,0.3,1.2,0.6,1.9,0.8V29.4z"/>
	<path d="M702.8,46.8c-2.4-1.2-4.8-2.4-7.1-3.6c-0.7,1.3-1.4,2.5-2.2,3.8c2.9,0.1,5.9,0.3,8.8,0.6C702.5,47.3,702.7,47,702.8,46.8z"
		/>
	<path d="M703.5,45.8V33.6c-0.6-0.3-1.2-0.6-1.9-0.8c-1.9,3.5-3.9,6.9-5.9,10.4c2.4,1.2,4.8,2.4,7.1,3.6
		C703.1,46.4,703.3,46.1,703.5,45.8z"/>
	<path d="M702.4,47.5c-2.9-0.3-5.9-0.5-8.8-0.6c-4.5,7.8-9,15.6-13.6,23.4c2.1,0.9,4.2,1.9,6.2,2.8C691.7,64.6,697.1,56.1,702.4,47.5
		z"/>
	<path d="M680,70.3c-0.3,0.6-0.6,1.1-1,1.7v12.2c2.4-3.7,4.8-7.3,7.2-11C684.1,72.2,682,71.2,680,70.3z"/>
	<path d="M703.5,84.7v-3.8c-1-0.4-1.9-0.9-2.9-1.3c-4.6,7.9-9.3,15.8-14.1,23.7h5.3C695.7,97.1,699.6,90.9,703.5,84.7z"/>
	<path d="M703.5,74.7c-0.9,1.6-1.9,3.2-2.9,4.9c1,0.4,1.9,0.9,2.9,1.3V74.7z"/>
	<path d="M703.5,84.7c-3.9,6.2-7.8,12.4-11.7,18.7h11.7V84.7z"/>
	<path d="M693.6,46.9c0.7-1.3,1.4-2.5,2.2-3.8c-4.6-2.3-9.3-4.6-13.9-6.8c-0.9,2.2-1.8,4.3-2.8,6.5v4.1
		C683.9,46.7,688.7,46.7,693.6,46.9z"/>
	<path d="M701.6,32.8c-5.1-2.3-10.3-4.5-15.6-6.7c-1.3,3.4-2.8,6.8-4.2,10.2c4.6,2.2,9.3,4.5,13.9,6.8
		C697.7,39.7,699.7,36.2,701.6,32.8z"/>
	<path d="M703.5,29.4V17.7c-4-2.2-7.9-4.5-11.9-6.9c-1.8,5.1-3.6,10.2-5.6,15.2c5.3,2.1,10.5,4.4,15.6,6.7
		C702.2,31.6,702.9,30.5,703.5,29.4z"/>
	<path d="M703.5,6.6H693c-0.5,1.4-0.9,2.8-1.4,4.2c4,2.3,7.9,4.6,11.9,6.9V6.6z"/>
	<path d="M693.6,46.9c-4.8-0.2-9.7-0.2-14.6-0.1v23c0.3,0.1,0.6,0.3,1,0.4C684.5,62.5,689.1,54.8,693.6,46.9z"/>
	<path d="M679,69.9V72c0.3-0.6,0.6-1.1,1-1.7C679.6,70.2,679.3,70,679,69.9z"/>
	<path d="M679,35v7.8c1-2.2,1.9-4.3,2.8-6.5C680.9,35.9,679.9,35.4,679,35z"/>
	<path d="M679,29.6V35c0.9,0.4,1.9,0.9,2.8,1.3c1.4-3.4,2.9-6.8,4.2-10.2c-5-2-10-4-15.1-5.9c-1,3.2-2,6.3-3.1,9.5
		c3.3,1.5,6.7,3.1,10,4.7L679,29.6z"/>
	<path d="M671.5,58.9l3-11.8c-3.5,0.2-7,0.5-10.5,0.9c3.5-0.4,7-0.7,10.5-0.9l3.2-12.7c-3.3-1.6-6.7-3.1-10-4.7
		c-3.4,10.2-7.3,20.2-11.3,30.1c4,1.8,8,3.6,11.9,5.3C669.5,63.1,670.5,61,671.5,58.9z"/>
	<path d="M637.9,103.1l0.1,0.3h10.4c1.6-3,3.3-6,4.9-9.1c-3.1-1.8-6.1-3.5-9.2-5.3C642,93.7,640,98.4,637.9,103.1z"/>
	<path d="M656.5,59.8c-4,9.8-8.2,19.5-12.4,29.2c3,1.8,6.1,3.5,9.2,5.3c5.2-9.6,10.3-19.3,15.2-29.1
		C664.4,63.4,660.5,61.6,656.5,59.8z"/>
	<path d="M691.6,10.9c-2.4-1.4-4.7-2.8-7.1-4.2h-9.8c-1.2,4.6-2.5,9.1-3.9,13.6c5.1,1.9,10.2,3.8,15.1,5.9
		C688,21.1,689.8,16,691.6,10.9z"/>
	<path d="M693,6.6h-8.5c2.4,1.4,4.7,2.8,7.1,4.2C692.1,9.5,692.6,8.1,693,6.6z"/>
	<path d="M659.3,25.8l-0.5,2.1c0.3-0.7,0.5-1.3,0.8-2C659.5,25.9,659.4,25.9,659.3,25.8z"/>
	<path d="M663.1,17.4c-0.5-0.2-1-0.4-1.5-0.5l-2.3,8.9c0.1,0,0.2,0.1,0.3,0.1C660.8,23.1,661.9,20.3,663.1,17.4z"/>
	<path d="M667.5,6.6h-3.3l-2.6,10.3c0.5,0.2,1,0.4,1.5,0.5C664.6,13.9,666.1,10.3,667.5,6.6z"/>
	<path d="M629.8,47.7c3.2-7.1,6.2-14.3,9.2-21.6l-2.7-10.4c-1.4-0.6-2.7-1.2-4.1-1.8c-3.8,7-7.7,13.9-11.7,20.9l2.5,9.6
		C625.2,45.6,627.5,46.6,629.8,47.7z"/>
	<path d="M629.8,47.7c-2.3-1.1-4.6-2.1-6.9-3.2l3,11.8C627.3,53.4,628.6,50.6,629.8,47.7z"/>
	<path d="M634.7,9.5c-0.8,1.5-1.7,3-2.5,4.5c1.4,0.6,2.7,1.2,4.1,1.8L634.7,9.5z"/>
	<path d="M728.4,45.7c-2-1-3.9-2-5.9-3v7.7c0.9,0.2,1.7,0.3,2.6,0.5C726.1,49.1,727.3,47.4,728.4,45.7z"/>
	<path d="M735.6,34.5c-2.6-1.2-5.2-2.5-7.7-3.8c-1.8,3.4-3.6,6.8-5.4,10.2v1.7c2,1,4,2,5.9,3C730.8,41.9,733.2,38.2,735.6,34.5z"/>
	<path d="M745.3,19.5c-3.1-1.7-6.2-3.3-9.3-4.9c-2.6,5.4-5.4,10.7-8.1,16.1c2.6,1.3,5.1,2.5,7.7,3.8
		C738.8,29.5,742.1,24.5,745.3,19.5z"/>
	<path d="M722.5,50.4v4.5c0.8-1.3,1.7-2.6,2.6-4C724.2,50.7,723.3,50.5,722.5,50.4z"/>
	<path d="M753.7,6.6h-13.8c-1.3,2.7-2.6,5.4-3.9,8c3.1,1.6,6.2,3.2,9.3,4.9C748.1,15.2,750.9,10.9,753.7,6.6z"/>
	<path d="M781.5,14c-2,4.5-4.2,8.9-6.4,13.3h8.7c1.2-2.5,2.3-5.1,3.5-7.7C785.3,17.8,783.4,15.9,781.5,14z"/>
	<path d="M784.7,6.6c-1,2.5-2.1,4.9-3.2,7.4c1.9,1.9,3.8,3.7,5.7,5.6c1.9-4.3,3.8-8.6,5.7-13H784.7z"/>
	<path d="M756.6,25.9c-0.3,0.5-0.6,0.9-0.9,1.4h3.3C758.2,26.8,757.4,26.3,756.6,25.9z"/>
	<path d="M775,27.3c2.3-4.4,4.4-8.8,6.4-13.3c-2.5-2.5-5.1-4.9-7.7-7.4h-5.3c-3.9,6.4-7.9,12.8-11.9,19.2c0.8,0.5,1.6,0.9,2.4,1.4
		H775z"/>
	<path d="M784.7,6.6h-10.9c2.6,2.4,5.2,4.9,7.7,7.4C782.6,11.6,783.7,9.1,784.7,6.6z"/>
	<path d="M802.5,22.3c-1.5,1.6-3,3.3-4.5,5h4.5V22.3z"/>
	<path d="M798.1,27.3c1.5-1.7,3-3.3,4.5-5V6.6h-9.7c-1.8,4.4-3.7,8.7-5.7,13c2.6,2.5,5.1,5.1,7.7,7.7H798.1z"/>
	<path d="M787.2,19.6c-1.1,2.6-2.3,5.1-3.5,7.7h11.1C792.3,24.7,789.8,22.2,787.2,19.6z"/>
	<path d="M740,51.8c-3.9-2.1-7.7-4.1-11.7-6.1c-1.1,1.7-2.3,3.5-3.4,5.2c4.6,0.9,9.1,2,13.6,3.2C739.1,53.3,739.6,52.6,740,51.8z"/>
	<path d="M747.6,40.1c-4-1.8-8-3.6-11.9-5.5c-2.4,3.7-4.8,7.4-7.2,11.1c3.9,2,7.8,4.1,11.7,6.1C742.6,47.9,745.1,44,747.6,40.1z"/>
	<path d="M752.4,32.5v-5.2h3.3c0.3-0.5,0.6-0.9,0.9-1.4c-3.7-2.2-7.5-4.3-11.3-6.3c-3.2,5-6.5,10-9.7,15c3.9,1.9,7.9,3.7,11.9,5.5
		C749.2,37.5,750.8,35,752.4,32.5z"/>
	<path d="M738.6,54.1c-4.5-1.2-9-2.3-13.6-3.2c-0.9,1.3-1.7,2.6-2.6,4v2.3c3.5,1.9,7,3.8,10.4,5.8C734.8,60,736.7,57,738.6,54.1z"/>
	<path d="M722.5,57.1v22.3c3.5-5.5,6.9-11,10.4-16.5C729.4,61,725.9,59,722.5,57.1z"/>
	<path d="M768.5,6.6h-14.8c-2.8,4.3-5.6,8.6-8.4,12.9c3.8,2,7.5,4.2,11.3,6.3C760.6,19.5,764.6,13.1,768.5,6.6z"/>
	<path d="M798.9,50.6v-8H786c-0.5,0.6-0.9,1.3-1.3,2c4.1,3.1,8,6.3,11.9,9.7C797.3,53.1,798.1,51.9,798.9,50.6z"/>
	<path d="M779.3,53.1c-1.9,3.1-3.6,6.2-5.3,9.3h17.5c0.6-1,1.2-1.9,1.8-2.9C788.7,57.2,784,55,779.3,53.1z"/>
	<path d="M784.7,44.6c-1.9,2.8-3.7,5.6-5.4,8.5c4.7,2,9.4,4.1,14,6.4c1.1-1.7,2.2-3.4,3.3-5.2C792.7,51,788.8,47.7,784.7,44.6z"/>
	<path d="M779.3,53.1c-1.7-0.7-3.5-1.4-5.2-2.1c-0.5-0.2-1-0.4-1.6-0.6c-2,4-4.1,8-6.2,12h7.7C775.6,59.2,777.4,56.1,779.3,53.1z"/>
	<path d="M779.3,53.1c1.7-2.9,3.5-5.7,5.4-8.5c-0.9-0.7-1.7-1.3-2.6-2h-5.7c-1.3,2.6-2.6,5.2-3.9,7.7c0.5,0.2,1,0.4,1.6,0.6
		C775.8,51.7,777.5,52.4,779.3,53.1z"/>
	<path d="M782.1,42.7c0.9,0.6,1.7,1.3,2.6,2c0.4-0.7,0.9-1.3,1.3-2H782.1z"/>
	<path d="M798.9,50.6c-0.8,1.2-1.6,2.5-2.3,3.7c0.8,0.7,1.6,1.4,2.3,2.1V50.6z"/>
	<path d="M793.3,59.5c-0.6,1-1.2,1.9-1.8,2.9h7.4C797,61.4,795.1,60.4,793.3,59.5z"/>
	<path d="M798.9,62.4v-5.9c-0.8-0.7-1.6-1.4-2.3-2.1c-1.1,1.7-2.2,3.4-3.3,5.2C795.1,60.4,797,61.4,798.9,62.4L798.9,62.4z"/>
	<path d="M774.6,88.4c-3.1-2.2-6.2-4.3-9.5-6.4c-2.9,7.2-5.5,14.4-8.5,21.3h8C767.9,98.4,771.2,93.4,774.6,88.4z"/>
	<path d="M779.2,81.5h-13.9c-0.1,0.2-0.1,0.4-0.2,0.6c3.2,2.1,6.4,4.2,9.5,6.4C776.1,86.1,777.6,83.8,779.2,81.5z"/>
	<path d="M756.5,103.4c3-6.9,5.7-14.1,8.5-21.3c-0.3-0.2-0.6-0.4-0.9-0.6h-8.4c-3.7,6.5-7.5,12.9-11.4,19.4c1.6,0.8,3.2,1.7,4.8,2.5
		H756.5z"/>
	<path d="M749.2,103.4c-1.6-0.9-3.2-1.7-4.8-2.5c-0.5,0.8-1,1.7-1.5,2.5H749.2z"/>
	<path d="M765.3,81.5h-1.1c0.3,0.2,0.6,0.4,0.9,0.6C765.1,81.8,765.2,81.6,765.3,81.5z"/>
	<path d="M790.3,81.5h-11.1c-1.5,2.3-3.1,4.6-4.6,7c4.1,3,8.1,6.2,11.8,9.6c3.2-4.3,6.3-8.7,9.4-13.1
		C793.9,83.7,792.1,82.6,790.3,81.5z"/>
	<path d="M786.3,98c-3.7-3.4-7.7-6.6-11.8-9.6c-3.3,5-6.7,10-10,14.9h17.7C783.6,101.6,785,99.8,786.3,98z"/>
	<path d="M798,81.5h-7.7c1.8,1.1,3.6,2.3,5.4,3.4C796.5,83.7,797.3,82.6,798,81.5z"/>
	<path d="M791.8,103.4H804V90.2c-2.8-1.8-5.5-3.6-8.3-5.3c-3,4.4-6.1,8.8-9.4,13.1C788.2,99.7,790.1,101.5,791.8,103.4z"/>
	<path d="M786.3,98c-1.4,1.8-2.7,3.6-4.1,5.4h9.6C790.1,101.5,788.2,99.7,786.3,98z"/>
	<path d="M804,81.5h-6c-0.8,1.1-1.6,2.3-2.3,3.4c2.8,1.8,5.5,3.5,8.3,5.3V81.5z"/>
	<path d="M755.8,81.5h-3.4v-7.1c-1.5-0.9-3.1-1.9-4.7-2.8c-5.4,7.6-11,15.1-16.8,22.4c4.5,2.2,9,4.5,13.4,6.8
		C748.3,94.4,752.1,87.9,755.8,81.5z"/>
	<path d="M730.9,94c-2.5,3.1-5,6.3-7.5,9.4h19.4c0.5-0.8,1-1.7,1.5-2.5C739.9,98.5,735.4,96.2,730.9,94z"/>
	<path d="M752.4,64.9c-1.5,2.2-3.1,4.5-4.7,6.7c1.6,0.9,3.1,1.9,4.7,2.8V64.9z"/>
	<path d="M740,51.8c-0.5,0.8-1,1.5-1.5,2.3c4,1.1,8,2.2,11.9,3.5C747,55.6,743.5,53.7,740,51.8z"/>
	<path d="M752.4,32.5c-1.6,2.5-3.2,5.1-4.9,7.6c1.6,0.7,3.2,1.4,4.9,2.1V32.5z"/>
	<path d="M766.5,42.7h-13c3.4,1.5,6.9,2.9,10.4,4.4C764.8,45.6,765.7,44.1,766.5,42.7z"/>
	<path d="M756.1,59.4c2.7-4.1,5.3-8.2,7.9-12.4c-3.5-1.4-7-2.9-10.4-4.4h-1.1v-0.5c-1.6-0.7-3.2-1.4-4.9-2.1c-2.5,3.9-5,7.8-7.5,11.7
		c3.5,1.9,7,3.8,10.5,5.8C752.4,58.2,754.2,58.8,756.1,59.4z"/>
	<path d="M747.8,71.6c-4.9-2.9-9.9-5.8-14.8-8.6c-3.5,5.5-7,11-10.4,16.5v10.4c2.8,1.4,5.7,2.7,8.5,4.1
		C736.7,86.6,742.4,79.2,747.8,71.6z"/>
	<path d="M722.5,89.8v13.5h0.9c2.5-3.1,5-6.2,7.5-9.4C728.1,92.6,725.3,91.2,722.5,89.8z"/>
	<path d="M752.4,64.9v-2.5h1.7c0.4-0.7,0.9-1.3,1.3-2c-1.6-0.9-3.3-1.9-4.9-2.8c-3.9-1.3-7.9-2.4-11.9-3.5c-1.9,3-3.8,5.9-5.7,8.9
		c5,2.8,9.9,5.7,14.8,8.6C749.3,69.4,750.9,67.2,752.4,64.9z"/>
	<path d="M756.1,59.4c-1.9-0.6-3.7-1.2-5.6-1.8c1.6,0.9,3.3,1.9,4.9,2.8C755.6,60.1,755.9,59.7,756.1,59.4z"/>
	<path d="M776.4,42.7h-9.9c-0.9,1.5-1.7,2.9-2.6,4.4c2.8,1.1,5.7,2.3,8.6,3.4C773.8,47.8,775.1,45.2,776.4,42.7z"/>
	<path d="M766.3,62.4c2.1-4,4.2-8,6.2-12c-2.9-1.1-5.7-2.2-8.6-3.4c-2.5,4.2-5.2,8.3-7.9,12.4c2.8,0.9,5.5,1.9,8.2,3H766.3z"/>
	<path d="M755.4,60.4c-0.4,0.7-0.9,1.3-1.3,2h4.8C757.8,61.7,756.6,61.1,755.4,60.4z"/>
	<path d="M764.3,62.4c-2.7-1-5.5-2-8.2-3c-0.2,0.3-0.4,0.6-0.6,1c1.2,0.7,2.3,1.3,3.5,2H764.3z"/>
	<path d="M726.1,6.6h-3.7V8c0.8,0.4,1.5,0.7,2.3,1.1C725.2,8.3,725.7,7.5,726.1,6.6z"/>
	<path d="M722.5,8v5.3c0.8-1.4,1.5-2.8,2.3-4.2C724,8.8,723.2,8.4,722.5,8z"/>
	<path d="M739.9,6.6h-13.7c-0.5,0.8-0.9,1.7-1.4,2.5c3.8,1.8,7.5,3.7,11.2,5.5C737.3,12,738.6,9.3,739.9,6.6z"/>
	<path d="M722.5,28v13c1.8-3.4,3.6-6.8,5.4-10.2C726.1,29.8,724.3,28.9,722.5,28z"/>
	<path d="M736,14.7c-3.7-1.9-7.5-3.7-11.2-5.5c-0.8,1.4-1.5,2.8-2.3,4.2V28c1.8,0.9,3.6,1.8,5.4,2.8C730.7,25.4,733.4,20.1,736,14.7z"/>
</svg>
