<?xml version="1.0" encoding="iso-8859-1"?>
<!-- Generator: Adobe Illustrator 16.0.0, SVG Export Plug-In . SVG Version: 6.00 Build 0)  -->
<!DOCTYPE svg PUBLIC "-//W3C//DTD SVG 1.1//EN" "http://www.w3.org/Graphics/SVG/1.1/DTD/svg11.dtd">
<svg version="1.1" id="Layer_1" xmlns="http://www.w3.org/2000/svg" xmlns:xlink="http://www.w3.org/1999/xlink" x="0px" y="0px" width="724.9px" height="110px" viewBox="0 0 724.9 110" style="enable-background:new 0 0 724.9 110;" xml:space="preserve">
	<path d="M37.9,12.8c-1.7-1.4-3.3-2.9-5-4.3c-5.7,2.1-10.5,5.2-14.6,9.3c-1.9,2-3.7,4.1-5.1,6.5c3.2,2.4,6.3,4.8,9.5,7.2
		C28,25.5,33.1,19.3,37.9,12.8z"/>
	<path d="M7.2,39.1c-0.7,3-1.2,6.2-1.4,9.6c2.1-2,4.2-4,6.2-6C10.4,41.5,8.8,40.3,7.2,39.1z"/>
	<path d="M22.6,31.5c-3.1-2.4-6.3-4.8-9.5-7.2c-2.7,4.3-4.7,9.2-6,14.8c1.6,1.2,3.2,2.4,4.8,3.6C15.6,39.1,19.2,35.4,22.6,31.5z"/>
	<path d="M43.1,5.9c-3.6,0.6-7,1.5-10.2,2.7c1.7,1.4,3.3,2.9,5,4.3C39.7,10.5,41.4,8.2,43.1,5.9z"/>
	<path d="M66,30c-0.5-0.7-1-1.4-1.6-2.1c-0.3,0.5-0.5,1.1-0.8,1.6c1.1,0.6,2.1,1.3,3,2.1C66.5,31.1,66.3,30.5,66,30z"/>
	<path d="M64.8,27.2c-0.1,0.2-0.2,0.5-0.3,0.7c0.5,0.7,1,1.4,1.6,2.1C65.6,29,65.2,28.1,64.8,27.2z"/>
	<path d="M68.2,33C68.2,33,68.2,33,68.2,33c-0.7-1.1-1.4-2-2.2-3c0.2,0.5,0.5,1.1,0.7,1.6C67.2,32,67.7,32.5,68.2,33z"/>
	<path d="M68.2,32.9c1.5-7.2,2.9-14.4,4.2-21.6c-0.5,0.9-0.9,1.8-1.4,2.7c-2.1,4.4-4.2,8.8-6.2,13.2c0.4,0.9,0.8,1.9,1.2,2.8
		C66.8,31,67.5,32,68.2,32.9z"/>
	<path d="M74,40.6c-1.5-2-3-4-4.5-5.9c1,1.4,1.9,3.5,2.8,6.3L74,40.6z"/>
	<path d="M69.4,34.5c0,0,0.1,0.1,0.1,0.1c1.5,2,3,4,4.5,5.9l7.7-1.7c1.4-8.1,2.8-16.1,4.4-24.1c-1-0.8-1.9-1.6-3-2.4
		c-2.6-1.9-5.7-3.4-9.1-4.5c-0.6,1.1-1.1,2.3-1.7,3.4c-1.3,7.2-2.7,14.4-4.2,21.6c0.4,0.5,0.7,0.9,1.1,1.4
		C69.3,34.4,69.4,34.4,69.4,34.5z"/>
	<path d="M68.2,32.9C68.2,33,68.2,33,68.2,32.9c0.4,0.5,0.7,0.9,1.1,1.4C68.9,33.9,68.6,33.4,68.2,32.9z"/>
	<path d="M86.2,14.8C86.2,14.8,86.1,14.8,86.2,14.8c-1.7,8-3.1,16-4.5,24.1l3.2-0.7C85.3,30.4,85.7,22.6,86.2,14.8z"/>
	<path d="M86.2,14.8c-0.5,7.8-0.9,15.6-1.2,23.3l13.8-3.1C95.8,26.4,91.6,19.7,86.2,14.8z"/>
	<path d="M50.8,24c-0.8,1.5-1.6,3-2.5,4.5c1.9-0.7,4-1,6.3-1.1C53.3,26.3,52,25.1,50.8,24z"/>
	<path d="M55.2,27.4c3,0,5.7,0.6,8.1,1.8c0.2,0.1,0.3,0.2,0.4,0.3c0.2-0.5,0.5-1.1,0.8-1.6c-3.1-4.2-6.1-8.4-9-12.7
		c-1.5,3-3.1,5.9-4.7,8.8c1.3,1.1,2.5,2.2,3.8,3.4C54.8,27.4,54.9,27.4,55.2,27.4z"/>
	<path d="M64.8,27.2c-2.4-5.5-4.7-11-7.1-16.5c-0.7,1.5-1.5,3-2.3,4.5c3,4.3,6,8.5,9,12.7C64.6,27.6,64.7,27.4,64.8,27.2z"/>
	<path d="M71,14c0.5-0.9,0.9-1.8,1.4-2.7c0.2-1.2,0.4-2.5,0.6-3.7c-3.8-1.2-8-2-12.7-2.3c-0.9,1.8-1.7,3.7-2.6,5.5
		c2.3,5.5,4.7,11,7.1,16.5C66.9,22.8,68.9,18.4,71,14z"/>
	<path d="M73,7.6c-0.2,1.2-0.4,2.5-0.6,3.7c0.6-1.1,1.1-2.3,1.7-3.4C73.8,7.8,73.4,7.7,73,7.6z"/>
	<path d="M41.7,78.1c-0.5-0.5-0.9-0.9-1.3-1.5c-2.3-2.8-3.8-7.4-4.5-13.6c-1.7-1.5-3.5-3.1-5.2-4.6c-2.5,4.1-5,8.2-7.4,12.3
		c5.7,3.5,11.4,7,17.2,10.5C40.8,80.2,41.3,79.1,41.7,78.1z"/>
	<path d="M23.2,70.7c-3.1,5.2-6.1,10.4-9.1,15.7c4.5,6.6,9.8,11.3,15.9,14.1c0.8,0.4,1.6,0.7,2.4,1c2.5-6.8,5.2-13.5,8-20.2
		C34.7,77.7,29,74.2,23.2,70.7z"/>
	<path d="M35.5,54.6c0-1.6,0.1-3,0.2-4.5c-1.7,2.8-3.3,5.5-5,8.3c1.8,1.5,3.5,3.1,5.2,4.6C35.6,60.5,35.5,57.7,35.5,54.6z"/>
	<path d="M40.4,81.2c-2.8,6.7-5.4,13.4-8,20.2c5.5,2.1,12.1,3.3,19.8,3.5c1-4.8,2-9.7,3-14.5C50.4,87.4,45.4,84.3,40.4,81.2z"/>
	<path d="M57.1,82.4c-1,0.1-1.9,0.2-3,0.2c-5.1,0-9.2-1.5-12.4-4.5c-0.4,1.1-0.9,2.1-1.3,3.2c5,3.1,9.9,6.1,14.9,9.2
		C55.9,87.8,56.5,85.1,57.1,82.4z"/>
	<path d="M77.5,65l-4.1-1.2c-0.5,2.5-1.2,4.7-2,6.7c1.5,1.3,3.1,2.6,4.6,3.9C76.5,71.3,77,68.1,77.5,65z"/>
	<path d="M73.1,92.1c-5.1-3.1-9.9-6.5-14.5-10c-0.5,0.1-1,0.2-1.5,0.2c-0.6,2.7-1.2,5.4-1.8,8.1c5.4,3.4,10.9,6.8,16.3,10.2
		C72.1,97.8,72.6,95,73.1,92.1z"/>
	<path d="M55.3,90.5c-1,4.8-2.1,9.6-3,14.5c1.1,0,2.3,0.1,3.5,0.1c5.8,0,10.9-0.6,15.3-1.7c0.2-0.9,0.3-1.7,0.5-2.6
		C66.2,97.3,60.8,93.8,55.3,90.5z"/>
	<path d="M76,74.4c-1.5-1.3-3.1-2.6-4.6-3.9c-1.2,2.9-2.6,5.4-4.4,7.3c-2.1,2.3-4.9,3.8-8.4,4.4c4.6,3.5,9.4,6.9,14.5,10
		C74.1,86.2,75.1,80.3,76,74.4z"/>
	<path d="M83.5,68.6c-0.3-0.7-0.6-1.4-1-2l-5-1.5c-0.5,3.1-1,6.2-1.5,9.4c2.3,2,4.6,3.9,6.9,5.9C83.1,76.4,83.3,72.5,83.5,68.6z"/>
	<path d="M81.8,97.2c0.4-5.6,0.8-11.3,1.1-16.9c-2.3-2-4.6-4-6.9-5.9c-0.9,5.9-1.9,11.8-2.9,17.8c1.6,1,3.2,1.9,4.9,2.9
		C79.3,95.7,80.5,96.5,81.8,97.2z"/>
	<path d="M74.3,102.4c-0.9-0.6-1.8-1.1-2.7-1.7c-0.2,0.9-0.3,1.7-0.5,2.6C72.2,103,73.3,102.7,74.3,102.4z"/>
	<path d="M77.2,101.2c1.6-0.7,3-1.5,4.5-2.4c0-0.5,0.1-1.1,0.1-1.6c-1.3-0.7-2.5-1.5-3.8-2.2c-1.7-0.9-3.3-1.9-4.9-2.9
		c-0.5,2.8-1,5.7-1.5,8.5c0.9,0.6,1.8,1.1,2.7,1.7C75.3,102,76.3,101.7,77.2,101.2z"/>
	<path d="M83.6,66.8l-1.1-0.3c0.3,0.7,0.6,1.4,1,2C83.5,68,83.6,67.4,83.6,66.8z"/>
	<path d="M92.9,87.8c-3.2-6.4-6.4-12.8-9.4-19.2c-0.2,3.9-0.4,7.8-0.6,11.7c3.2,2.8,6.3,5.6,9.4,8.4C92.5,88.4,92.7,88.1,92.9,87.8z"
		/>
	<path d="M91.3,90.1c0.3-0.5,0.7-0.9,1-1.4c-3.1-2.8-6.3-5.6-9.4-8.4c-0.3,5.6-0.7,11.3-1.1,16.9c0.4,0.2,0.9,0.5,1.3,0.7
		C86.2,95.8,88.9,93.2,91.3,90.1z"/>
	<path d="M81.8,97.2c0,0.5-0.1,1.1-0.1,1.6c0.5-0.3,0.9-0.6,1.4-0.9C82.7,97.7,82.2,97.5,81.8,97.2z"/>
	<path d="M99.6,71.7l-1-0.3c0.3,0.3,0.6,0.7,0.8,1C99.5,72.2,99.6,71.9,99.6,71.7z"/>
	<path d="M99.4,72.4c-0.3-0.3-0.6-0.7-0.8-1l-0.9-0.3c0.5,0.6,1.1,1.3,1.6,1.9C99.3,72.8,99.4,72.6,99.4,72.4z"/>
	<path d="M99.3,73c-0.5-0.6-1-1.3-1.6-1.9l-14.1-4.3c0,0.6-0.1,1.2-0.1,1.7c3,6.4,6.2,12.8,9.4,19.2C95.7,83.6,97.8,78.7,99.3,73z"/>
	<path d="M39.6,35.5c2.3-3.4,5.2-5.8,8.7-7.1c0.8-1.5,1.6-3,2.5-4.5c-3.2-2.8-6.4-5.6-9.6-8.4C37,22.5,32.8,29.2,28.5,36
		c2.7,2.1,5.5,4.2,8.2,6.4C37.4,39.6,38.4,37.3,39.6,35.5z"/>
	<path d="M35.6,50.1c0.2-2.9,0.6-5.5,1.1-7.7c-2.7-2.1-5.5-4.2-8.2-6.4c-2.8,4.4-5.6,8.9-8.4,13.3c3.6,3,7.1,6,10.5,9
		C32.3,55.6,34,52.9,35.6,50.1z"/>
	<path d="M30.7,58.4c-3.4-3-6.9-6-10.5-9c-2.9,4.7-5.9,9.4-8.8,14.1c3.9,2.4,7.9,4.8,11.8,7.2C25.7,66.6,28.2,62.5,30.7,58.4z"/>
	<path d="M11.4,63.5C10,65.8,8.6,68,7.2,70.4c1.2,5.2,3.1,9.9,5.6,13.9c0.4,0.7,0.9,1.4,1.4,2c2.9-5.3,6-10.5,9.1-15.7
		C19.3,68.3,15.4,65.9,11.4,63.5z"/>
	<path d="M55.4,15.2c-2.3-3.3-4.5-6.6-6.7-10c-0.4,0-0.9,0.1-1.3,0.1c-2,3.5-4.1,6.9-6.2,10.3c3.2,2.8,6.4,5.5,9.6,8.4
		C52.3,21.1,53.9,18.2,55.4,15.2z"/>
	<path d="M57.7,10.7c-0.8-1.9-1.6-3.8-2.4-5.7c-0.3,0-0.6,0-0.9,0c-2,0-3.8,0.1-5.7,0.2c2.2,3.4,4.4,6.7,6.7,10
		C56.2,13.7,57,12.2,57.7,10.7z"/>
	<path d="M60.3,5.2C58.7,5.1,57,5,55.3,5c0.8,1.9,1.6,3.8,2.4,5.7C58.6,8.9,59.5,7,60.3,5.2z"/>
	<path d="M47.4,5.3c-1.5,0.1-2.9,0.3-4.3,0.5c-1.7,2.4-3.4,4.7-5.2,7c1.1,0.9,2.2,1.9,3.3,2.8C43.3,12.2,45.4,8.8,47.4,5.3z"/>
	<path d="M41.2,15.7c-1.1-0.9-2.2-1.9-3.3-2.8c-4.9,6.4-10,12.7-15.3,18.7c2,1.5,3.9,3,5.9,4.5C32.8,29.2,37,22.5,41.2,15.7z"/>
	<path d="M20.2,49.3c-2.7-2.2-5.4-4.4-8.2-6.6c-2,2-4.1,4.1-6.2,6c-0.1,1.9-0.2,3.9-0.2,6c0,1.8,0.1,3.5,0.2,5.2
		c1.9,1.2,3.8,2.3,5.7,3.5C14.3,58.7,17.2,54,20.2,49.3z"/>
	<path d="M11.4,63.5c-1.9-1.2-3.8-2.3-5.7-3.5c0.2,3.7,0.7,7.1,1.5,10.4C8.6,68,10,65.8,11.4,63.5z"/>
	<path d="M28.5,36c-2-1.5-3.9-3-5.9-4.5c-3.4,3.9-7,7.6-10.6,11.2c2.8,2.2,5.5,4.4,8.2,6.6C23,44.9,25.8,40.5,28.5,36z"/>
	<path d="M116,28.6c-1,1.9-1.8,3.9-2.5,6c0.4,0.6,0.8,1.2,1.1,1.8C115,33.8,115.5,31.2,116,28.6z"/>
	<path d="M114.6,36.5c-0.4-0.6-0.8-1.2-1.1-1.8c-2.1,6-3.1,12.8-3.1,20.4c0,2.1,0.1,4.1,0.3,6C111.9,52.9,113.2,44.7,114.6,36.5z"/>
	<path d="M153.3,6.8c-0.4-0.5-0.9-0.9-1.3-1.3c-0.4,0.1-0.9,0.1-1.3,0.1c-3.6,6.8-7.2,13.6-11,20.2c1,1.7,1.9,3.3,2.9,5
		C146.2,22.9,149.8,14.9,153.3,6.8z"/>
	<path d="M154,5.3c-0.7,0.1-1.4,0.1-2,0.2c0.4,0.4,0.9,0.9,1.3,1.3C153.6,6.3,153.8,5.8,154,5.3z"/>
	<path d="M142.5,30.9c-1-1.7-1.9-3.3-2.9-5c-2,3.5-4,7-6.1,10.4c1.3,1.8,2.6,3.7,3.9,5.5C139.1,38.2,140.8,34.5,142.5,30.9z"/>
	<path d="M131.8,39.2c-2.5,4.1-5.1,8.2-7.8,12.3c1.6,2.6,3.2,5.3,4.8,7.9c2.3-4.5,4.5-9,6.7-13.5C134.2,43.6,133,41.4,131.8,39.2z"/>
	<path d="M124,51.5c-3.9,6-8,11.9-12.2,17.6c1,5,2.6,9.5,4.9,13.5c4.2-7.7,8.2-15.4,12.2-23.2C127.2,56.7,125.6,54.1,124,51.5z"/>
	<path d="M137.4,41.8c-1.3-1.8-2.6-3.7-3.9-5.5c-0.6,1-1.2,1.9-1.8,2.9c1.2,2.2,2.5,4.4,3.7,6.6C136.1,44.5,136.7,43.2,137.4,41.8z"
		/>
	<path d="M131.6,11.9c-3,1.8-5.7,3.8-8.1,6.3c-0.5,0.5-1,1.1-1.5,1.7c3.8,5.5,7.7,11,11.5,16.4c2.1-3.4,4.1-6.9,6.1-10.4
		C136.9,21.2,134.3,16.6,131.6,11.9z"/>
	<path d="M121.2,20.8c-2,2.4-3.8,5-5.2,7.8c-0.5,2.6-0.9,5.2-1.4,7.8c3.1,5,6.3,10,9.4,15c2.7-4,5.3-8.1,7.8-12.3
		C128.3,33,124.8,26.8,121.2,20.8z"/>
	<path d="M124,51.5c-3.1-5-6.2-10-9.4-15c-1.4,8.2-2.7,16.4-4,24.7c0.2,2.8,0.6,5.4,1.1,7.9C116,63.3,120,57.4,124,51.5z"/>
	<path d="M122,19.9c-0.3,0.3-0.5,0.6-0.8,0.9c3.6,6.1,7.1,12.2,10.5,18.4c0.6-1,1.2-1.9,1.8-2.9C129.7,30.8,125.9,25.3,122,19.9z"/>
	<path d="M150.6,5.6c-7.2,1-13.6,3.1-19,6.3c2.6,4.7,5.3,9.3,8,14C143.4,19.2,147.1,12.5,150.6,5.6z"/>
	<path d="M160.5,5c-0.1,0-0.1,0-0.2,0c-2.2,0-4.2,0.1-6.3,0.3c-0.2,0.5-0.5,1-0.7,1.6c3.1,3.1,6.1,6.2,8.7,10.2
		c1.2,1.8,2.4,3.6,3.6,5.4c1.2-2.5,2.4-5.1,3.7-7.6C166.3,11.5,163.3,8.3,160.5,5z"/>
	<path d="M162,17c-2.6-3.9-5.6-7.1-8.7-10.2c-3.5,8-7.1,16.1-10.8,24c0.8,1.4,1.6,2.8,2.4,4.1c0.2-0.3,0.5-0.7,0.8-1
		c3.6-4.3,8.5-6.4,14.5-6.4c1,0,1.9,0.1,2.8,0.2c0.9-1.8,1.7-3.6,2.6-5.4C164.4,20.6,163.2,18.8,162,17z"/>
	<path d="M145,35c-0.8-1.4-1.6-2.7-2.4-4.1c-1.7,3.7-3.4,7.3-5.1,11c1.1,1.6,2.3,3.3,3.4,4.9C141.5,41.8,142.9,37.9,145,35z"/>
	<path d="M142.6,70.8c-1.5-4-2.3-9.2-2.3-15.6c0-0.2,0-0.5,0-0.7c-1.6-2.9-3.2-5.8-4.8-8.7c-2.2,4.5-4.4,9-6.7,13.5
		c3.6,6.1,7.2,12.2,10.4,18.5C140.3,75.5,141.5,73.1,142.6,70.8z"/>
	<path d="M128.8,59.4c-3.9,7.8-7.9,15.5-12.2,23.2c0.1,0.2,0.3,0.5,0.4,0.8c3.5,5.9,7.7,10.5,12.8,13.9c3.1-6.4,6.3-12.9,9.3-19.3
		C135.9,71.6,132.4,65.5,128.8,59.4z"/>
	<path d="M140.8,46.7c-1.1-1.6-2.3-3.3-3.4-4.9c-0.6,1.3-1.3,2.7-1.9,4c1.6,2.9,3.2,5.8,4.8,8.7C140.3,51.7,140.5,49.1,140.8,46.7z"
		/>
	<path d="M173.5,6.1c-4-0.7-8.4-1.1-13-1.1c2.9,3.3,5.8,6.5,8.8,9.8C170.7,11.9,172.1,9,173.5,6.1z"/>
	<path d="M173.9,32.6c1-3.3,2-6.5,3-9.8c-2.6-2.7-5.1-5.4-7.6-8.1c-1.2,2.5-2.4,5.1-3.7,7.6c1.9,2.8,3.8,5.5,5.7,8.2
		C172.2,31.2,173.1,31.9,173.9,32.6z"/>
	<path d="M165.6,22.4c-0.9,1.8-1.7,3.6-2.6,5.4c3.1,0.3,5.9,1.3,8.3,2.8C169.4,27.9,167.5,25.2,165.6,22.4z"/>
	<path d="M181.4,8.2c-2.5-0.9-5.1-1.6-7.9-2.1c-1.4,2.9-2.8,5.8-4.2,8.6c2.5,2.7,5,5.4,7.6,8.1C178.4,18,179.9,13.1,181.4,8.2z"/>
	<path d="M178,24c-0.4-0.4-0.7-0.8-1.1-1.2c-1,3.3-2,6.5-3,9.8c0.4,0.4,0.9,0.8,1.3,1.3c1.6,1.9,2.9,4.2,3.8,7.1
		c0.5,0.6,0.9,1.2,1.4,1.9c1.3-4.1,2.7-8.2,4.1-12.3C182.3,28.4,180.1,26.2,178,24z"/>
	<path d="M180.4,42.9c-0.5-0.6-1-1.2-1.4-1.9c0.3,1.1,0.6,2.2,0.9,3.5C180,43.9,180.2,43.4,180.4,42.9z"/>
	<path d="M181.4,8.2c-1.5,4.9-3,9.8-4.5,14.6c0.4,0.4,0.7,0.8,1.1,1.2c2.1,2.2,4.3,4.4,6.5,6.5c2-6,4.1-12,6.3-17.9
		C187.9,10.8,184.8,9.3,181.4,8.2z"/>
	<path d="M147.7,103.9c0.6-1.3,1.2-2.6,1.9-3.9c-3.1-7.6-6.6-14.9-10.4-22.1c-3.1,6.5-6.2,12.9-9.3,19.3c1.4,1,3,1.8,4.5,2.6
		C138.3,101.7,142.7,103,147.7,103.9z"/>
	<path d="M156.8,83.2c-0.2-0.3-0.4-0.7-0.6-1c-4.2-0.8-7.8-2.8-10.5-6c-1.3-1.5-2.3-3.3-3.1-5.4c-1.1,2.3-2.2,4.7-3.4,7
		c3.8,7.2,7.3,14.6,10.4,22.1C152.2,94.4,154.6,88.9,156.8,83.2z"/>
	<path d="M157.1,82.4c-0.3,0-0.6-0.1-0.9-0.2c0.2,0.3,0.4,0.7,0.6,1C156.9,82.9,157,82.7,157.1,82.4z"/>
	<path d="M165.8,82c-1.7,0.4-3.4,0.6-5.3,0.6c-1.2,0-2.3-0.1-3.4-0.2c-0.1,0.3-0.2,0.5-0.3,0.8c1.4,2.3,2.8,4.5,4.2,6.8
		c1.1,1.8,2.1,3.6,3,5.5c1.2-3.7,2.3-7.4,3.4-11.2C166.9,83.6,166.4,82.8,165.8,82z"/>
	<path d="M149.6,100c-0.6,1.3-1.2,2.6-1.9,3.9c1.2,0.2,2.4,0.4,3.6,0.5C150.8,102.9,150.2,101.4,149.6,100z"/>
	<path d="M161,90c-1.4-2.3-2.8-4.5-4.2-6.8c-2.2,5.6-4.6,11.2-7.2,16.8c0.6,1.5,1.2,2.9,1.7,4.4c3.1,0.4,6.3,0.6,9.7,0.6
		c1-3.2,2-6.3,3-9.5C163.2,93.6,162.2,91.8,161,90z"/>
	<path d="M168.4,81.3c-0.8,0.3-1.7,0.5-2.6,0.8c0.5,0.8,1.1,1.5,1.7,2.3C167.8,83.3,168.1,82.3,168.4,81.3z"/>
	<path d="M199,44.4c-4.9-4.6-9.7-9.2-14.5-13.9c-1.4,4.1-2.7,8.2-4.1,12.3c4.3,5.6,8.7,11,13.1,16.3C195.4,54.3,197.3,49.4,199,44.4z
		"/>
	<path d="M180.4,42.9c-0.2,0.5-0.4,1.1-0.5,1.6c0.5,2.8,0.8,5.9,0.8,9.4c0,10.8-1.8,18.3-5.3,22.5c-0.7,0.9-1.5,1.7-2.4,2.3
		c2.4,3.5,4.9,6.9,7.5,10.3c4.6-9.9,9-19.8,13-29.9C189.1,53.9,184.7,48.4,180.4,42.9z"/>
	<path d="M180.5,89c-2.5-3.4-5-6.9-7.5-10.3c-1.4,1.1-2.9,1.9-4.6,2.6c-0.3,1-0.6,2-0.9,3c3.1,4.2,6.1,8.4,9.2,12.6
		C178,94.3,179.2,91.7,180.5,89z"/>
	<path d="M164,95.5c-1,3.2-2,6.3-3,9.5c0.1,0,0.3,0,0.4,0c2.1,0,4.2-0.1,6.1-0.2C166.6,101.6,165.5,98.5,164,95.5z"/>
	<path d="M173.3,104.1c1.2-2.4,2.3-4.8,3.5-7.2c-3.1-4.2-6.2-8.4-9.2-12.6c-1.1,3.7-2.3,7.4-3.4,11.2c1.4,3,2.6,6.1,3.6,9.3
		C169.6,104.6,171.5,104.4,173.3,104.1z"/>
	<path d="M204.4,27.1c-1.9-3.4-4.2-6.4-6.9-9.1c-2-2-4.3-3.8-6.7-5.3c-2.2,5.9-4.3,11.9-6.3,17.9c4.8,4.7,9.7,9.4,14.5,13.9
		C201,38.7,202.8,32.9,204.4,27.1z"/>
	<path d="M180.5,89c-1.2,2.6-2.5,5.2-3.7,7.8c1.3,1.8,2.7,3.6,4,5.4c2.7-0.9,5.1-1.9,7.4-3.2C185.6,95.8,183,92.4,180.5,89z"/>
	<path d="M176.7,96.9c-1.1,2.4-2.3,4.8-3.5,7.2c2.6-0.4,5.1-1.1,7.5-1.8C179.4,100.5,178.1,98.7,176.7,96.9z"/>
	<path d="M206.1,51.1c-2.4-2.2-4.7-4.4-7.1-6.7c-1.7,4.9-3.6,9.8-5.5,14.7c2.3,2.8,4.7,5.6,7.1,8.3C202.4,62,204.3,56.6,206.1,51.1z"
		/>
	<path d="M188.4,99c0.7-0.4,1.3-0.8,2-1.2c3.4-10.1,6.8-20.2,10.2-30.3c-2.4-2.8-4.7-5.5-7.1-8.3c-4,10.1-8.4,20-13,29.9
		c2.5,3.4,5.1,6.7,7.7,10C188.2,99,188.3,99,188.4,99z"/>
	<path d="M209.4,41.4c-1-5.3-2.7-10.1-5-14.3c-1.6,5.8-3.4,11.6-5.4,17.4c2.4,2.2,4.8,4.5,7.1,6.7C207.2,47.9,208.3,44.6,209.4,41.4z
		"/>
	<path d="M210.5,55.3c-1.5-1.4-2.9-2.8-4.4-4.2c-1.8,5.5-3.7,10.9-5.5,16.4c2.3,2.7,4.7,5.4,7,8C209.5,69.7,210.5,63,210.5,55.3z"/>
	<path d="M204.9,82.1c1.1-2,2-4.2,2.7-6.6c-2.3-2.7-4.7-5.3-7-8c-3.4,10.1-6.8,20.2-10.2,30.3C196.6,93.9,201.4,88.6,204.9,82.1z"/>
	<path d="M209.4,41.4c-1.1,3.2-2.2,6.5-3.3,9.7c1.5,1.4,3,2.8,4.4,4.2c0-0.3,0-0.7,0-1C210.6,49.7,210.2,45.4,209.4,41.4z"/>
	<path d="M226.9,6.6v11.8c2.3-3.8,4.3-7.8,6.2-11.8H226.9z"/>
	<path d="M249.5,6.6h-10.3c1.9,2.2,3.8,4.4,5.7,6.6C246.4,11.1,248,8.9,249.5,6.6z"/>
	<path d="M244.9,13.3c-1.9-2.2-3.8-4.4-5.7-6.6h-6.1c-1.9,4-3.9,8-6.2,11.8v10.6c1.3,1.5,2.5,3,3.8,4.5
		C235.2,26.7,240.1,20,244.9,13.3z"/>
	<path d="M226.9,29.1v10.4c1.2-2,2.5-3.9,3.8-5.9C229.4,32.1,228.1,30.6,226.9,29.1z"/>
	<path d="M254.8,6.6h-4.1c1.3,1.5,2.6,3,3.8,4.6c0.5-1,1-1.9,1.5-2.9L254.8,6.6z"/>
	<path d="M250.2,19.3c-1.8-2-3.6-4-5.3-6c-4.8,6.8-9.7,13.5-14.2,20.4c2.3,2.8,4.7,5.6,7,8.5C241.9,34.5,246.1,26.9,250.2,19.3z"/>
	<path d="M230.6,33.6c-1.3,1.9-2.6,3.9-3.8,5.9v22.1c3.5-6.5,7.2-13,10.8-19.5C235.3,39.2,233,36.4,230.6,33.6z"/>
	<path d="M254.5,11.2c-1.3-1.5-2.5-3.1-3.8-4.6h-1.1c-1.5,2.2-3.1,4.4-4.6,6.6c1.8,2,3.6,4,5.3,6C251.7,16.6,253.1,13.9,254.5,11.2z"
		/>
	<path d="M258.6,28.6c-2.8-3.1-5.6-6.2-8.4-9.3c-4.1,7.6-8.3,15.2-12.6,22.8c2.9,3.5,5.9,7.1,8.8,10.6
		C250.9,44.9,255,36.9,258.6,28.6z"/>
	<path d="M226.9,71.5V82c1.5-1.9,2.9-3.9,4.4-5.8C229.8,74.6,228.3,73,226.9,71.5z"/>
	<path d="M246.4,52.7c-2.9-3.6-5.8-7.1-8.8-10.6c-3.6,6.5-7.3,13-10.8,19.5v9.9c1.5,1.5,2.9,3.1,4.4,4.7
		C236.7,68.6,241.8,60.8,246.4,52.7z"/>
	<path d="M254.5,11.2c-1.4,2.7-2.8,5.4-4.2,8.1c2.8,3.1,5.6,6.2,8.4,9.3c1.2-2.7,2.3-5.5,3.4-8.3C259.5,17.3,257,14.2,254.5,11.2z"/>
	<path d="M262.8,18.5l-6.9-10.1c-0.5,1-1,1.9-1.5,2.9c2.5,3,5.1,6.1,7.6,9.2C262.3,19.7,262.6,19.1,262.8,18.5z"/>
	<path d="M251.5,58.9c-4.8,8.1-9.5,16.2-14.2,24.3c3.4,4.1,6.7,8.3,9.8,12.8c2.4-7.4,5-14.8,7.8-22.2V63.1
		C253.8,61.7,252.7,60.3,251.5,58.9z"/>
	<path d="M244.8,103.4c0.8-2.4,1.5-4.9,2.3-7.3c-3.1-4.5-6.4-8.7-9.8-12.8c-3,5.2-5.9,10.5-8.8,15.7c1.3,1.5,2.6,2.9,3.9,4.4H244.8z"
		/>
	<path d="M226.9,103.4h5.7c-1.3-1.5-2.6-2.9-3.9-4.4c-0.6,1.1-1.2,2.1-1.7,3.2V103.4z"/>
	<path d="M251.5,58.9c1.1,1.4,2.3,2.8,3.4,4.2v-10C253.8,55.1,252.7,57,251.5,58.9z"/>
	<path d="M247.2,96c-0.8,2.4-1.6,4.9-2.3,7.3h7.1C250.4,100.8,248.8,98.4,247.2,96z"/>
	<path d="M247.2,96c1.7,2.4,3.3,4.8,4.8,7.3h3V73.9C252.2,81.2,249.6,88.6,247.2,96z"/>
	<path d="M258.6,28.6c-3.6,8.2-7.7,16.3-12.2,24.1c1.7,2.1,3.4,4.1,5.1,6.2c1.1-1.9,2.3-3.8,3.4-5.7v-2.9l0.9,1.4
		c3.1-5.2,6.3-10.4,9.5-15.5C263.1,33.6,260.9,31.1,258.6,28.6z"/>
	<path d="M237.4,83.2c-2-2.4-4.1-4.8-6.1-7.1c-1.4,2-2.9,3.9-4.4,5.8v15c0.6,0.6,1.2,1.3,1.7,1.9C231.5,93.7,234.4,88.5,237.4,83.2z"
		/>
	<path d="M228.6,99c-0.6-0.6-1.2-1.3-1.7-1.9v5.1C227.4,101.1,228,100,228.6,99z"/>
	<path d="M251.5,58.9c-1.7-2.1-3.4-4.1-5.1-6.2c-4.7,8.1-9.8,15.9-15.2,23.5c2.1,2.3,4.1,4.7,6.1,7.1C242,75.1,246.7,67,251.5,58.9z"
		/>
	<path d="M269.4,29.5c-1.5-1.8-2.9-3.6-4.4-5.5c-1-1.2-2-2.4-3-3.6c-1.1,2.8-2.2,5.5-3.4,8.3c2.2,2.5,4.5,5,6.7,7.4
		C266.7,33.9,268,31.7,269.4,29.5z"/>
	<path d="M269.4,29.5c0.1-0.2,0.3-0.5,0.4-0.7l-7-10.3c-0.2,0.6-0.5,1.3-0.8,1.9c1,1.2,2,2.4,3,3.6C266.5,25.9,267.9,27.7,269.4,29.5
		z"/>
	<path d="M268.7,39.8c-1.1-1.2-2.2-2.5-3.3-3.7c-3.2,5.2-6.3,10.4-9.5,15.5l4.9,7.2C263.3,52.4,266,46.1,268.7,39.8z"/>
	<path d="M271.8,32.4c-0.8-1-1.6-2-2.4-2.9c-1.4,2.2-2.7,4.4-4.1,6.6c1.1,1.2,2.2,2.5,3.3,3.7C269.7,37.3,270.8,34.9,271.8,32.4z"/>
	<path d="M272,32l-2.2-3.2c-0.1,0.2-0.3,0.5-0.4,0.7c0.8,1,1.6,2,2.4,2.9C271.9,32.3,271.9,32.1,272,32z"/>
	<path d="M288.1,61.9c-3.2-3.8-6.5-7.5-9.7-11.2c-2.4,7.5-5,15-8,22.3l6.5,9.6C280.8,75.7,284.5,68.8,288.1,61.9z"/>
	<path d="M290,58.4l-9.6-14.1c-0.6,2.1-1.3,4.3-1.9,6.4c3.2,3.7,6.5,7.4,9.7,11.2C288.8,60.7,289.4,59.6,290,58.4z"/>
	<path d="M292.2,6.6h-1v20.8c2.5-4.6,4.9-9.2,7.2-13.8C296.3,11.3,294.2,9,292.2,6.6z"/>
	<path d="M292.2,6.6c2.1,2.3,4.2,4.7,6.2,7c1.2-2.3,2.3-4.7,3.5-7H292.2z"/>
	<path d="M291.2,53.9v2.3c0.3-0.5,0.5-1,0.8-1.5C291.7,54.4,291.4,54.1,291.2,53.9z"/>
	<path d="M297.5,44c-2.1-2-4.2-4.1-6.3-6.1v16c0.3,0.3,0.5,0.5,0.8,0.8C293.8,51.1,295.6,47.6,297.5,44z"/>
	<path d="M298.4,13.7c-2.3,4.6-4.7,9.2-7.2,13.8v10.4c2.1,2,4.2,4.1,6.3,6.1c3.4-6.6,6.7-13.2,10-19.9
		C304.5,20.6,301.4,17.2,298.4,13.7z"/>
	<path d="M315.9,6.6h-14c-1.1,2.4-2.3,4.7-3.5,7c3,3.5,6.1,6.9,9.1,10.5C310.3,18.4,313.2,12.5,315.9,6.6z"/>
	<path d="M291.4,65.7c-1.1-1.3-2.1-2.5-3.2-3.8c-3.7,6.9-7.4,13.8-11.2,20.7l2.8,4.1C283.5,79.6,287.3,72.6,291.4,65.7z"/>
	<path d="M295.6,58.5c-1.2-1.3-2.5-2.6-3.7-3.9c-0.3,0.5-0.5,1-0.8,1.5v4l-1.2-1.7c-0.6,1.2-1.2,2.3-1.8,3.4c1.1,1.3,2.1,2.5,3.2,3.8
		C292.8,63.3,294.2,60.9,295.6,58.5z"/>
	<path d="M297.5,44c-1.8,3.6-3.7,7.1-5.5,10.7c1.2,1.3,2.5,2.6,3.7,3.9c2.1-3.4,4.2-6.8,6.4-10.2C300.5,46.9,299,45.5,297.5,44z"/>
	<path d="M313.4,31.2c-2-2.4-3.9-4.7-5.9-7.1c-3.3,6.6-6.6,13.3-10,19.9c1.5,1.5,3,2.9,4.5,4.3C305.7,42.6,309.5,36.9,313.4,31.2z"/>
	<path d="M315.9,6.6c-2.8,5.9-5.6,11.7-8.5,17.5c2,2.3,4,4.7,5.9,7.1c2-2.9,3.9-5.7,6-8.5V6.6H315.9z"/>
	<path d="M319.3,38.1V22.7c-2,2.8-4,5.7-6,8.5c0.2,0.3,0.4,0.5,0.6,0.8C315.8,34.1,317.5,36.1,319.3,38.1z"/>
	<path d="M295.6,58.5c-1.4,2.4-2.9,4.7-4.3,7.1c2.6,3,5.1,6.1,7.7,9.3c0.7,0.9,1.4,1.9,2.2,2.8c1.9-2.5,3.8-5,5.7-7.6
		C303.1,66.3,299.4,62.4,295.6,58.5z"/>
	<path d="M301.2,77.8c-0.7-0.9-1.4-1.8-2.2-2.8c-2.6-3.2-5.1-6.3-7.7-9.3c-4,6.9-7.9,13.9-11.5,21l6.8,10
		C291.5,90.4,296.4,84.1,301.2,77.8z"/>
	<path d="M314.4,60.1c-4.2-3.9-8.3-7.8-12.4-11.7c-2.2,3.4-4.3,6.7-6.4,10.2c3.8,3.9,7.5,7.8,11.3,11.7
		C309.4,66.9,311.9,63.5,314.4,60.1z"/>
	<path d="M314,32c-0.2-0.3-0.4-0.5-0.6-0.8c-3.9,5.7-7.7,11.4-11.4,17.1c4.1,3.9,8.2,7.8,12.4,11.7c1.7-2.3,3.3-4.5,5-6.8V38.1
		C317.5,36.1,315.8,34.1,314,32z"/>
	<path d="M313.7,77.4c-2.3-2.4-4.6-4.8-6.8-7.2c-1.9,2.5-3.8,5-5.7,7.6c2.2,2.8,4.4,5.5,6.6,8.1C309.8,83.1,311.8,80.2,313.7,77.4z"
		/>
	<path d="M301.2,77.8c-4.8,6.3-9.7,12.7-14.5,18.9l4.5,6.6h3.6c4.2-5.2,8.3-10.6,12.3-16.4c0.3-0.4,0.5-0.7,0.8-1.1
		C305.5,83.3,303.3,80.6,301.2,77.8z"/>
	<path d="M314.4,60.1c-2.5,3.4-5,6.8-7.5,10.1c2.3,2.4,4.6,4.8,6.8,7.2c1.9-2.7,3.8-5.4,5.6-8.1v-4.6C317.7,63.2,316,61.6,314.4,60.1
		z"/>
	<path d="M319.3,53.3c-1.6,2.3-3.3,4.5-5,6.8c1.6,1.5,3.3,3.1,5,4.6V53.3z"/>
	<path d="M313.7,77.4c-2,2.8-3.9,5.7-6,8.5c2.4,2.8,4.7,5.6,7.1,8.3c1.5-2,3-4,4.4-6v-4.8C317.5,81.4,315.6,79.4,313.7,77.4z"/>
	<path d="M311,99.4c1.3-1.7,2.6-3.5,3.9-5.2c-2.4-2.7-4.8-5.5-7.1-8.3c-0.3,0.4-0.5,0.7-0.8,1.1c-4,5.8-8.1,11.2-12.3,16.4h12
		C308.1,102,309.6,100.7,311,99.4z"/>
	<path d="M319.3,69.3c-1.8,2.7-3.7,5.4-5.6,8.1c1.9,2,3.8,4,5.6,6V69.3z"/>
	<path d="M311,99.4c-1.4,1.3-2.9,2.6-4.3,3.9h1.4C309.1,102,310,100.7,311,99.4z"/>
	<path d="M319.3,91.6c-1.2,1.2-2.4,2.3-3.7,3.4c1.2,1.4,2.4,2.7,3.7,4.1V91.6z"/>
	<path d="M315.7,95c-1.6,1.5-3.1,2.9-4.7,4.4c-1,1.3-1.9,2.6-2.9,3.9h11.2v-4.2C318.1,97.8,316.9,96.4,315.7,95z"/>
	<path d="M319.3,91.6v-3.4c-1.5,2-3,4-4.4,6c0.3,0.3,0.5,0.6,0.8,0.9C316.9,93.9,318.1,92.8,319.3,91.6z"/>
	<path d="M314.9,94.2c-1.3,1.7-2.6,3.5-3.9,5.2c1.6-1.4,3.1-2.9,4.7-4.4C315.4,94.8,315.2,94.5,314.9,94.2z"/>
	<path d="M278.4,50.7c-3.3-3.7-6.5-7.3-9.8-10.9c-2.7,6.3-5.3,12.7-7.9,19l9.7,14.2C273.4,65.7,276.1,58.2,278.4,50.7z"/>
	<path d="M280.4,44.3l-6.2-9.2c-0.8-0.9-1.5-1.8-2.3-2.7c-1.1,2.4-2.1,4.9-3.2,7.4c3.3,3.6,6.5,7.2,9.8,10.9
		C279.1,48.5,279.7,46.4,280.4,44.3z"/>
	<path d="M272,32c-0.1,0.1-0.1,0.3-0.2,0.4c0.8,0.9,1.5,1.8,2.3,2.7L272,32z"/>
	<path d="M346.7,12.7c-1.7-2-3.4-4.1-5.1-6.1h-9.2V12c2.7,3.4,5.5,6.9,8.2,10.4C342.7,19.2,344.7,16,346.7,12.7z"/>
	<path d="M340.6,22.3c-2.7-3.5-5.4-6.9-8.2-10.4v18.5h2.8C337,27.8,338.8,25.1,340.6,22.3z"/>
	<path d="M350.5,6.6h-8.9c1.7,2,3.4,4.1,5.1,6.1C348,10.7,349.3,8.7,350.5,6.6z"/>
	<path d="M374.5,9.7c-1-1-2.1-2-3.1-3h-9.1c3.1,2.5,6.1,5,9.3,7.5C372.5,12.6,373.5,11.2,374.5,9.7z"/>
	<path d="M362.3,6.6h-1c-2.9,4.3-5.8,8.6-8.7,13c2.8,3.4,5.7,6.7,8.5,10c3.5-5.2,7-10.3,10.5-15.6C368.4,11.7,365.3,9.2,362.3,6.6z"
		/>
	<path d="M346.1,29.4c-0.3,0.4-0.5,0.8-0.8,1.2h1.7C346.7,30.1,346.4,29.8,346.1,29.4z"/>
	<path d="M352.5,19.6c-2.2,3.2-4.3,6.5-6.5,9.7c0.3,0.4,0.6,0.8,0.9,1.2h13.5c0.2-0.3,0.4-0.6,0.6-0.9
		C358.2,26.3,355.4,23,352.5,19.6z"/>
	<path d="M376.5,6.6h-5.1c1,1,2.1,2,3.1,3C375.2,8.7,375.9,7.7,376.5,6.6z"/>
	<path d="M346.1,29.4c-1.8-2.3-3.6-4.7-5.5-7c-1.8,2.7-3.6,5.5-5.4,8.2h10.1C345.5,30.1,345.8,29.8,346.1,29.4z"/>
	<path d="M352.5,19.6c-1.9-2.3-3.9-4.6-5.8-6.9c-2,3.2-4.1,6.4-6.2,9.6c1.8,2.3,3.7,4.7,5.5,7C348.2,26.1,350.4,22.9,352.5,19.6z"/>
	<path d="M350.5,6.6c-1.2,2-2.5,4.1-3.8,6.1c1.9,2.3,3.9,4.6,5.8,6.9c2.9-4.3,5.8-8.7,8.7-13H350.5z"/>
	<path d="M381.6,16.5c-2.4-2.3-4.8-4.6-7.1-6.9c-1,1.5-2,3-3,4.4c2.6,2.1,5.2,4.1,7.9,6.1C380.2,19,380.9,17.8,381.6,16.5z"/>
	<path d="M362.9,31.8v12.3c1.7-2.2,3.3-4.4,4.9-6.6C366.1,35.7,364.5,33.7,362.9,31.8z"/>
	<path d="M362.9,30.5v1.3c1.6,1.9,3.3,3.8,4.9,5.7c4.1-5.6,8-11.4,11.6-17.3c-2.6-2-5.3-4.1-7.9-6.1c-3.5,5.2-7,10.4-10.5,15.6
		c0.2,0.3,0.5,0.6,0.7,0.9H362.9z"/>
	<path d="M361,29.7c-0.2,0.3-0.4,0.6-0.6,0.9h1.3C361.5,30.2,361.3,30,361,29.7z"/>
	<path d="M387.1,6.6h-10.6c-0.7,1-1.3,2-2,3c2.4,2.3,4.7,4.6,7.1,6.9C383.5,13.3,385.4,10,387.1,6.6z"/>
	<path d="M413,18c1.2-2.4,2.6-4.7,4-7c-1.5-1.5-2.9-2.9-4.4-4.4h-3.4c-4.1,7.9-8,15.8-11.8,23.9h8.7C408.4,26.4,410.7,22.2,413,18z"
		/>
	<path d="M412.6,6.6c1.5,1.5,2.9,2.9,4.4,4.4c1-1.5,2-2.9,3-4.4H412.6z"/>
	<path d="M417.1,11c-1.5,2.3-2.9,4.6-4,7c-2.3,4.2-4.6,8.4-6.9,12.5H418c1.7-2.3,3.5-4.5,5.2-6.8v-6.5
		C421.2,15.2,419.1,13.1,417.1,11z"/>
	<path d="M423.2,6.6h-3.1c-1.1,1.4-2.1,2.9-3,4.4c2.1,2.1,4.1,4.1,6.2,6.2V6.6z"/>
	<path d="M423.2,23.7c-1.7,2.3-3.5,4.5-5.2,6.8h5.2V23.7z"/>
	<path d="M397.4,30.5c3.8-8,7.7-16,11.8-23.9h-10.1c-3.1,5.9-6.3,11.7-9.4,17.6c2.2,2.1,4.4,4.2,6.7,6.3H397.4z"/>
	<path d="M396.3,30.5c-2.2-2.1-4.4-4.2-6.7-6.3c-0.5,0.9-1,1.8-1.5,2.7c1.6,1.2,3.3,2.4,4.9,3.6H396.3z"/>
	<path d="M387,53c1.9-4.2,3.8-8.3,5.7-12.5v-10h0.4c-1.7-1.2-3.3-2.4-4.9-3.6c-3.8,7-7.7,14-11.7,20.9c2.8,3.3,5.6,6.5,8.4,9.8
		C385.6,56,386.3,54.5,387,53z"/>
	<path d="M362.9,77.6v14.9c2.4-3.1,4.6-6.3,6.8-9.5C367.4,81.2,365.1,79.4,362.9,77.6z"/>
	<path d="M377.8,70.5c-2.8-3.6-5.6-7.3-8.4-10.9c-2.1,3.4-4.3,6.8-6.5,10.2v7.7c2.3,1.8,4.5,3.6,6.8,5.4
		C372.5,78.9,375.3,74.8,377.8,70.5z"/>
	<path d="M384.9,57.5c-2.8-3.3-5.6-6.5-8.4-9.8c-2.3,4-4.7,8-7.1,11.9c2.8,3.6,5.6,7.3,8.4,10.9C380.3,66.3,382.7,61.9,384.9,57.5z"
		/>
	<path d="M392.8,53.8c-1.5,2.5-3,5-4.6,7.5c1.5,1.8,3,3.5,4.6,5.3V53.8z"/>
	<path d="M362.9,103.4h6.3c-2.1-1.4-4.2-2.8-6.3-4.2V103.4z"/>
	<path d="M381.4,92.3c-3.1-2.5-6.1-4.9-9.2-7.3c-3,4-6.1,8-9.3,12v2.2c2.1,1.4,4.2,2.8,6.3,4.2h8.4C378.7,99.6,380,95.9,381.4,92.3z"
		/>
	<path d="M386.1,81.1c-2-2.5-3.9-5-5.9-7.5c-2.6,3.8-5.2,7.6-8,11.4c3,2.4,6.1,4.8,9.2,7.3C382.8,88.5,384.4,84.7,386.1,81.1z"/>
	<path d="M392.8,68.1v-1.5c-1.5-1.8-3.1-3.5-4.6-5.3c-2.6,4.1-5.2,8.2-8,12.3c2,2.5,3.9,5,5.9,7.5C388.2,76.6,390.4,72.3,392.8,68.1z
		"/>
	<path d="M392.8,101.9c-2.2-2-4.4-4-6.7-5.9c-1.6-1.3-3.1-2.5-4.7-3.7c-1.4,3.6-2.6,7.3-3.8,11.1h15.2V101.9z"/>
	<path d="M392.8,101.9V89.4c-2.2-2.8-4.5-5.5-6.7-8.3c-1.7,3.6-3.3,7.4-4.7,11.2c1.5,1.2,3.1,2.5,4.7,3.7
		C388.3,97.9,390.6,99.9,392.8,101.9z"/>
	<path d="M392.8,82.4c-0.2,0.2-0.5,0.4-0.7,0.6C392.3,82.8,392.5,82.6,392.8,82.4V68.1c-2.4,4.2-4.6,8.5-6.7,13
		c2.2,2.8,4.4,5.6,6.7,8.3V82.4z"/>
	<path d="M388.2,61.3c-1.1-1.3-2.2-2.5-3.3-3.8c-2.2,4.4-4.6,8.8-7.1,13c0.8,1,1.6,2.1,2.4,3.1C382.9,69.5,385.6,65.4,388.2,61.3z"/>
	<path d="M369.7,83c-2.2,3.2-4.5,6.4-6.8,9.5v4.5c3.2-3.9,6.3-7.9,9.3-12C371.4,84.3,370.5,83.7,369.7,83z"/>
	<path d="M380.2,73.6c-0.8-1-1.6-2.1-2.4-3.1c-2.5,4.2-5.2,8.4-8.1,12.5c0.8,0.7,1.6,1.3,2.5,2C374.9,81.2,377.6,77.4,380.2,73.6z"/>
	<path d="M392.8,53.8V40.5c-1.9,4.2-3.8,8.3-5.7,12.5c-0.7,1.5-1.4,3-2.1,4.5c1.1,1.3,2.2,2.5,3.3,3.8
		C389.7,58.8,391.2,56.3,392.8,53.8z"/>
	<path d="M399.1,6.6h-12c-1.8,3.3-3.6,6.6-5.5,9.9c2.7,2.6,5.4,5.1,8.1,7.7C392.9,18.4,396,12.5,399.1,6.6z"/>
	<path d="M389.7,24.2c-2.7-2.6-5.4-5.1-8.1-7.7c-0.7,1.2-1.5,2.5-2.2,3.7c2.9,2.2,5.9,4.5,8.8,6.7C388.7,26,389.2,25.1,389.7,24.2z"
		/>
	<path d="M362.9,51.2v18.6c2.2-3.4,4.4-6.8,6.5-10.2C367.2,56.8,365,54,362.9,51.2z"/>
	<path d="M376.5,47.7c-2.9-3.4-5.8-6.8-8.7-10.2c-1.6,2.2-3.2,4.4-4.9,6.6v7.1c2.2,2.8,4.3,5.6,6.5,8.4
		C371.8,55.7,374.1,51.7,376.5,47.7z"/>
	<path d="M388.2,26.9c-3-2.2-5.9-4.4-8.8-6.7c-3.6,5.9-7.5,11.7-11.6,17.3c2.9,3.4,5.8,6.8,8.7,10.2
		C380.5,40.9,384.4,33.9,388.2,26.9z"/>
	<path d="M464,32.6c5.6-3.5,11.3-7.1,16.9-10.9c-4-3.2-8-6.4-12-9.6c-5,4.5-10,9-14.9,13.6c0.7,0.5,1.3,0.9,2,1.4
		C458.7,28.8,461.3,30.7,464,32.6z"/>
	<path d="M443.3,35.7l-4.9,13c3.8-2.4,7.6-4.9,11.5-7.3C447.7,39.6,445.5,37.7,443.3,35.7z"/>
	<path d="M453.5,26.1c-3.4,3.1-6.8,6.3-10.2,9.5l0,0.1c2.2,1.9,4.4,3.8,6.6,5.7c4-2.5,8-5,12-7.6C459.1,31.3,456.3,28.7,453.5,26.1z"
		/>
	<path d="M464,32.6c-2.6-1.9-5.3-3.7-8-5.6c-0.7-0.5-1.3-0.9-2-1.4c-0.2,0.2-0.3,0.3-0.5,0.5c2.8,2.6,5.6,5.2,8.4,7.7
		C462.6,33.4,463.3,33,464,32.6z"/>
	<path d="M487.1,7.5c-0.3-0.3-0.7-0.6-1-0.8H475c-2,1.8-4,3.6-6,5.4c4,3.2,7.9,6.4,12,9.6c1.4-0.9,2.7-1.8,4.1-2.7
		c1.7-1.2,3.4-2.4,5.1-3.6L487.1,7.5z"/>
	<path d="M486.8,6.6h-0.7c0.3,0.3,0.7,0.6,1,0.8L486.8,6.6z"/>
	<path d="M497.4,34.7c-2.7-2.1-5.5-4.3-8.2-6.4c-5.8,3.1-11.5,6.1-17.3,9.1l0.3,1.1c3.1,2.2,6.1,4.5,9.1,6.7c6.3-1.1,12.6-2,19-2.6
		L497.4,34.7z"/>
	<path d="M475.3,46.4c-0.3-0.3-0.6-0.5-0.8-0.8l0.3,0.9C474.9,46.4,475.1,46.4,475.3,46.4z"/>
	<path d="M475.3,46.4c2-0.4,4.1-0.8,6.1-1.2c-3-2.2-6.1-4.5-9.1-6.7l2.2,7.1C474.7,45.8,475,46.1,475.3,46.4z"/>
	<path d="M494,25.7c-1.6,0.9-3.2,1.7-4.8,2.6c2.7,2.1,5.4,4.3,8.2,6.4L494,25.7z"/>
	<path d="M455.2,46c-6.5,3.3-12.9,6.6-19.5,9.8l-0.1,0.2c8-2.1,16-4.2,24-6.2C458.2,48.6,456.7,47.3,455.2,46z"/>
	<path d="M465,48.6l2.7-9c-4.2,2.2-8.4,4.3-12.6,6.5c1.5,1.3,3,2.6,4.5,3.8C461.5,49.4,463.3,49,465,48.6z"/>
	<path d="M459.7,49.8c-8,1.9-16,4.1-24,6.2l-1.3,3.6c1.8,1.2,3.6,2.5,5.4,3.7c7.7-2,15.3-4.3,22.9-6.7l1-3.4
		C462.3,52.1,461,51,459.7,49.8z"/>
	<path d="M465,48.6c-1.8,0.4-3.6,0.8-5.3,1.3c1.3,1.1,2.6,2.2,3.9,3.3L465,48.6z"/>
	<path d="M439.7,63.3c-1.8-1.2-3.6-2.5-5.4-3.7l-1.8,4.8c0.2,0.2,0.4,0.4,0.6,0.6C435.4,64.4,437.6,63.9,439.7,63.3z"/>
	<path d="M432.5,64.3l-0.3,0.8c0.3-0.1,0.6-0.2,1-0.2C433,64.7,432.8,64.5,432.5,64.3z"/>
	<path d="M439.5,70.8c-3.8,1.6-7.5,3.2-11.2,5l-6.2,16.4c9.5-3.1,18.6-7.2,27.5-11.9C446.2,77.1,442.8,73.9,439.5,70.8z"/>
	<path d="M473.6,66.5h-14l1.2-4.1c-4.8,1.8-9.6,3.7-14.4,5.6c3.8,2.6,7.5,5.2,11.3,7.8C463,72.8,468.3,69.6,473.6,66.5z"/>
	<path d="M446.5,67.9c-2.3,0.9-4.7,1.9-7,2.9c3.4,3.1,6.8,6.3,10.2,9.4c2.7-1.4,5.4-2.9,8.1-4.5C454,73.1,450.2,70.5,446.5,67.9z"/>
	<path d="M433.2,64.9c-0.3,0.1-0.6,0.2-1,0.2l-4,10.5c3.7-1.7,7.4-3.4,11.2-5C437.4,68.8,435.3,66.9,433.2,64.9z"/>
	<path d="M439.7,63.3c2.2,1.5,4.5,3.1,6.7,4.6c4.8-1.9,9.6-3.7,14.4-5.6l1.8-5.8C455,59,447.4,61.3,439.7,63.3z"/>
	<path d="M446.5,67.9c-2.2-1.5-4.5-3.1-6.7-4.6c-2.2,0.6-4.4,1.1-6.5,1.7c2.1,1.9,4.2,3.9,6.3,5.8C441.8,69.8,444.1,68.9,446.5,67.9z
		"/>
	<path d="M444.3,103.4h4.1l1.2-4C447.8,100.7,446,102,444.3,103.4z"/>
	<path d="M505.8,57.3c-1.4,1.1-2.8,2.1-4.3,3.2c2.6,2,5.1,3.9,7.7,5.9L505.8,57.3z"/>
	<path d="M486,72.1c-5.4,4-10.8,8.1-16.2,12.1c1.5,1,2.9,2.1,4.4,3.1H487l3,10c3.4-4.2,6.7-8.5,10-12.8
		C495.4,80.4,490.7,76.2,486,72.1z"/>
	<path d="M495.2,65.3c-3.1,2.3-6.1,4.6-9.2,6.9c4.7,4.1,9.4,8.2,14.1,12.5c2.2-2.8,4.3-5.6,6.5-8.4C502.7,72.5,498.9,68.9,495.2,65.3
		z"/>
	<path d="M469.8,84.2c-1.4,1-2.8,2.1-4.2,3.1h8.6C472.7,86.3,471.3,85.3,469.8,84.2z"/>
	<path d="M510.8,70.6l-1.6-4.2c-2.6-2-5.1-3.9-7.7-5.9c-2.1,1.6-4.3,3.2-6.4,4.8c3.8,3.6,7.6,7.3,11.4,10.9
		C508,74.3,509.4,72.5,510.8,70.6z"/>
	<path d="M515.6,99.4c-0.8,1.3-1.7,2.6-2.5,3.9h6.5C518.3,102,517,100.7,515.6,99.4z"/>
	<path d="M519.4,93.5c-1.2,2-2.5,4-3.8,5.9c1.3,1.3,2.6,2.6,3.9,3.9h3.6L519.4,93.5z"/>
	<path d="M501.8,103.4h11.3c0.9-1.3,1.7-2.6,2.5-3.9c-1-1-2-2-3-3C509.1,98.8,505.4,101.1,501.8,103.4z"/>
	<path d="M518.9,92.1c-2.1,1.5-4.2,2.9-6.3,4.3c1,1,2,2,3,3c1.3-2,2.6-3.9,3.8-5.9L518.9,92.1z"/>
	<path d="M490.1,97.4l0.6,2.1c1.7,1.3,3.4,2.6,5.1,3.9h6c3.7-2.2,7.3-4.6,10.8-6.9c-4.1-4-8.3-8-12.5-11.8
		C496.8,88.9,493.4,93.2,490.1,97.4z"/>
	<path d="M516.5,85.7c-3.3-3.2-6.7-6.3-10-9.5c-2.1,2.8-4.3,5.6-6.5,8.4c4.2,3.8,8.4,7.8,12.5,11.8c2.1-1.4,4.2-2.8,6.3-4.3
		L516.5,85.7z"/>
	<path d="M491.9,103.4h4c-1.7-1.3-3.4-2.6-5.1-3.9L491.9,103.4z"/>
	<path d="M510.8,70.6c-1.4,1.9-2.9,3.7-4.3,5.6c3.3,3.2,6.6,6.3,10,9.5L510.8,70.6z"/>
	<path d="M501.6,60.5c-2.6-2-5.2-3.9-7.8-5.9c-0.3,0.2-0.5,0.3-0.8,0.4c-1.8,1-3.6,2.1-5.4,3.1c2.5,2.4,5,4.8,7.5,7.2
		C497.3,63.7,499.4,62.1,501.6,60.5z"/>
	<path d="M420,97.8l-2.1,5.5h6.9C423.2,101.5,421.5,99.7,420,97.8z"/>
	<path d="M449.6,80.2c-8.9,4.7-18,8.8-27.5,11.9l-2.1,5.7c1.6,1.8,3.2,3.7,4.8,5.5h19.5c1.8-1.3,3.5-2.7,5.3-4l3.5-12h4.2
		C454.7,85,452.2,82.6,449.6,80.2z"/>
	<path d="M487.6,58.1c-2.7,1.6-5.3,3.1-7.9,4.7l1.1,3.7h-1.5c2.2,1.9,4.4,3.8,6.6,5.7c3.1-2.3,6.1-4.6,9.2-6.9
		C492.6,62.9,490.1,60.5,487.6,58.1z"/>
	<path d="M486,72.1c-2.2-1.9-4.4-3.8-6.6-5.7h-5.8c-5.3,3.2-10.5,6.3-15.8,9.3c4,2.8,8.1,5.6,12.1,8.5
		C475.2,80.2,480.6,76.2,486,72.1z"/>
	<path d="M465.6,87.4c1.4-1,2.8-2.1,4.2-3.1c-4-2.8-8-5.7-12.1-8.5c-2.7,1.5-5.4,3-8.1,4.5c2.6,2.4,5.1,4.8,7.7,7.2H465.6z"/>
	<path d="M505.8,57.3l-2.7-7.2c-3.1,1.2-6.2,2.8-9.3,4.5c2.6,2,5.2,3.9,7.8,5.9C503,59.4,504.4,58.3,505.8,57.3z"/>
	<path d="M503.1,50l-1.5-4.1c-4,1.9-8.1,3.6-12.1,5.3c1.4,1.1,2.9,2.2,4.3,3.3C496.9,52.8,500,51.3,503.1,50z"/>
	<path d="M487.6,58.1c-1.5-1.4-3-2.8-4.5-4.3c-1.8,0.7-3.7,1.5-5.5,2.2l2.1,6.8C482.3,61.2,485,59.7,487.6,58.1z"/>
	<path d="M493,55c0.3-0.2,0.5-0.3,0.8-0.4c-1.4-1.1-2.9-2.2-4.3-3.3c-2.1,0.9-4.2,1.7-6.3,2.6c1.5,1.4,3,2.8,4.5,4.3
		C489.4,57.1,491.2,56,493,55z"/>
	<path d="M501.6,46l-0.5-1.2c-4.9,1.3-9.8,2.8-14.6,4.3c1,0.7,2,1.5,3,2.2C493.5,49.6,497.6,47.8,501.6,46z"/>
	<path d="M483.2,53.8c-1-0.9-2-1.9-3-2.8c-1.2,0.4-2.5,0.8-3.7,1.2l1.2,3.8C479.5,55.3,481.3,54.6,483.2,53.8z"/>
	<path d="M489.5,51.3c-1-0.7-2-1.5-3-2.2c-2.1,0.6-4.2,1.3-6.3,2c1,0.9,2,1.9,3,2.8C485.3,53,487.4,52.2,489.5,51.3z"/>
	<path d="M501.1,44.8l-0.8-2.2c-6.4,0.6-12.7,1.5-19,2.6c1.7,1.3,3.4,2.6,5.1,3.8C491.4,47.5,496.2,46.1,501.1,44.8z"/>
	<path d="M486.5,49c-1.7-1.3-3.4-2.6-5.1-3.8c-2,0.4-4.1,0.8-6.1,1.2c1.6,1.5,3.3,3.1,4.9,4.7C482.3,50.4,484.4,49.7,486.5,49z"/>
	<path d="M480.2,51c-1.6-1.6-3.3-3.1-4.9-4.7c-0.2,0-0.4,0.1-0.6,0.1l1.8,5.7C477.7,51.8,478.9,51.4,480.2,51z"/>
	<path d="M449.9,41.4c-3.9,2.4-7.7,4.9-11.5,7.3l-2.7,7.1c6.5-3.2,13-6.5,19.5-9.8C453.4,44.5,451.6,43,449.9,41.4z"/>
	<path d="M467.8,39.5l0-0.2c-2-1.8-3.9-3.7-5.9-5.5c-4,2.5-8.1,5.1-12,7.6c1.8,1.5,3.6,3.1,5.3,4.6C459.4,43.9,463.6,41.7,467.8,39.5
		z"/>
	<path d="M468.8,36c-1.6-1.2-3.2-2.3-4.9-3.5c-0.7,0.4-1.4,0.9-2.1,1.3c2,1.8,3.9,3.7,5.9,5.5L468.8,36z"/>
	<path d="M470.2,31.7l1.7,5.7c5.8-3,11.5-6.1,17.3-9.1c-2.8-2.2-5.5-4.4-8.3-6.6c-5.7,3.7-11.3,7.3-16.9,10.9
		c1.6,1.2,3.3,2.3,4.9,3.5L470.2,31.7z"/>
	<path d="M494,25.7l-3.9-10.3c-1.7,1.2-3.4,2.4-5.1,3.6c-1.4,0.9-2.7,1.8-4.1,2.7c2.7,2.2,5.5,4.4,8.3,6.6
		C490.8,27.4,492.4,26.5,494,25.7z"/>
	<path d="M449.4,22.4c-0.3-0.2-0.6-0.4-0.9-0.6l-5.2,13.8c3.4-3.2,6.8-6.4,10.2-9.5C452.2,24.9,450.8,23.6,449.4,22.4z"/>
	<path d="M454,25.6c-1.6-1.1-3.1-2.2-4.6-3.2c1.4,1.2,2.7,2.5,4.1,3.7C453.7,26,453.9,25.8,454,25.6z"/>
	<path d="M448.6,21.6l-0.1,0.1c0.3,0.2,0.6,0.4,0.9,0.6C449.2,22.1,448.9,21.9,448.6,21.6z"/>
	<path d="M454,25.6c4.9-4.6,9.9-9.1,14.9-13.6c-2-1.6-4-3.3-6-4.9c-4.5,4.5-9.1,8.9-13.9,13.2l-0.5,1.2c0.3,0.3,0.6,0.5,0.8,0.8
		C451,23.5,452.5,24.6,454,25.6z"/>
	<path d="M475,6.6h-11.5c-0.2,0.2-0.3,0.3-0.5,0.5c2,1.6,4,3.3,6,4.9C471,10.3,473,8.5,475,6.6z"/>
	<path d="M462.3,6.6h-8.1l-5.2,13.8c4.8-4.3,9.4-8.7,13.9-13.2C462.8,7,462.6,6.8,462.3,6.6z"/>
	<path d="M463.5,6.6h-1.1c0.2,0.2,0.4,0.3,0.6,0.5C463.1,7,463.3,6.8,463.5,6.6z"/>
	<path d="M549.2,18.1c-1.5-1.5-3-3.1-4.5-4.6c-1.9,1.3-3.6,2.8-5.2,4.4c-3.9,3.9-6.8,8.5-8.9,13.9c0.2,0,0.3,0.1,0.5,0.2
		c-0.1-0.1-0.3-0.1-0.5-0.2c-1,2.6-1.8,5.4-2.4,8.3c4-3.1,8-6.3,12-9.5C543.1,26.5,546.2,22.3,549.2,18.1z"/>
	<path d="M556.7,7.6c-4.5,1.4-8.4,3.4-12,5.9c1.5,1.5,3,3.1,4.5,4.6C551.7,14.6,554.2,11.1,556.7,7.6z"/>
	<path d="M528,40.7c-0.5,2.6-0.9,5.3-1.1,8.2c1.4-2,2.8-3.9,4.3-5.9C530.2,42.2,529.1,41.4,528,40.7z"/>
	<path d="M540.1,30.7c-4,3.2-8,6.3-12,9.5c0,0.2-0.1,0.3-0.1,0.5c1.1,0.8,2.1,1.6,3.2,2.3C534.2,38.9,537.2,34.8,540.1,30.7z"/>
	<path d="M619.3,33.6c-1.1-3.1-2.4-5.9-3.9-8.5c-2.5-2.3-5-4.6-7.6-6.9c-2.5,7.2-5.2,14.3-8,21.3l19-4.2
		C619,34.7,619.2,34.2,619.3,33.6z"/>
	<path d="M608.7,16.1c-0.2,0.7-0.5,1.4-0.8,2.1c2.5,2.3,5,4.6,7.6,6.9C613.5,21.6,611.3,18.6,608.7,16.1z"/>
	<path d="M619.3,33.6c-0.2,0.5-0.3,1.1-0.5,1.6l1-0.2C619.7,34.6,619.5,34.1,619.3,33.6z"/>
	<path d="M590.6,34.5c1,1.4,2,3.5,2.9,6.5l6.4-1.4c2.8-7.1,5.5-14.2,8-21.3c-2.2-2-4.3-4-6.5-6c-4.7,6.4-9.5,12.6-14.6,18.6
		C588.2,31.7,589.5,33,590.6,34.5z"/>
	<path d="M608.7,16.1c-1.4-1.3-2.8-2.6-4.4-3.7c-0.7-0.5-1.4-0.9-2.1-1.4c-0.3,0.4-0.5,0.7-0.8,1.1c2.2,2,4.3,4,6.5,6
		C608.2,17.5,608.4,16.8,608.7,16.1z"/>
	<path d="M570.7,104.8c1.7-3.5,3.4-7,5.1-10.6c-4.6-3.4-9.2-6.9-13.7-10.3c-1.7,6.1-3.6,12.1-5.7,18.1c0.3,0.2,0.5,0.4,0.8,0.5
		C561.2,103.7,565.7,104.5,570.7,104.8z"/>
	<path d="M557.2,102.6c-0.3-0.2-0.5-0.4-0.8-0.5c0,0.1-0.1,0.2-0.1,0.3C556.6,102.4,556.9,102.5,557.2,102.6z"/>
	<path d="M581.7,81.7c-1.9,0.6-4,0.9-6.4,0.9c-4.8,0-8.7-1.3-11.7-3.9c-0.5,1.8-1,3.5-1.5,5.3c4.6,3.4,9.1,6.9,13.7,10.3
		C577.8,90.1,579.8,85.9,581.7,81.7z"/>
	<path d="M605.2,90.7c-0.6,2.6-1.2,5.2-1.8,7.8c2.2-1.4,4.2-3.1,6.1-5C608.1,92.5,606.7,91.6,605.2,90.7z"/>
	<path d="M612.5,90.1c1.3-1.7,2.5-3.6,3.6-5.7c-2.6-2.4-5.2-4.8-7.8-7.3c-1,4.5-2.1,9-3.1,13.5c1.4,0.9,2.9,1.8,4.3,2.7
		C610.6,92.4,611.6,91.3,612.5,90.1z"/>
	<path d="M620.8,71.7l-10.5-3.2c-0.7,2.9-1.3,5.8-2,8.6c2.6,2.4,5.2,4.9,7.8,7.3C618.1,80.7,619.6,76.4,620.8,71.7z"/>
	<path d="M610.3,68.5l-15.7-4.8c0,0.1,0,0.1,0,0.2c4.6,4.4,9.1,8.8,13.8,13.2C609,74.3,609.6,71.4,610.3,68.5z"/>
	<path d="M588.9,104.1c-4.4-3.3-8.7-6.6-13-9.8c-1.7,3.5-3.4,7-5.1,10.6c2,0.1,4.1,0.2,6.3,0.2C581.3,105,585.3,104.7,588.9,104.1z"
		/>
	<path d="M598.4,101.2c1.8-0.8,3.5-1.7,5.1-2.8c0.6-2.6,1.2-5.2,1.8-7.8c-6.2-3.9-12.3-7.7-18.5-11.5c-1.4,1.1-3.1,2-5,2.6
		c-1.9,4.2-3.9,8.4-5.9,12.5c4.3,3.3,8.7,6.5,13,9.8C592.4,103.4,595.6,102.5,598.4,101.2z"/>
	<path d="M608.3,77.2c-4.6-4.4-9.2-8.8-13.8-13.2c-1.3,6-3.4,10.6-6.3,13.8c-0.5,0.5-1,1-1.5,1.4c6.2,3.8,12.3,7.6,18.5,11.5
		C606.3,86.2,607.3,81.7,608.3,77.2z"/>
	<path d="M561.5,76.6c-2.5-3-4-8-4.6-14.9c-3.7,3.4-7.4,6.7-11.2,9.9c5.4,4.1,10.9,8.2,16.4,12.3c0.5-1.8,1-3.5,1.5-5.3
		C562.8,78,562.2,77.4,561.5,76.6z"/>
	<path d="M545.7,71.6c-4.2,3.6-8.6,7.1-13,10.5c0.4,0.8,0.8,1.5,1.3,2.2c0.5,0.7,0.9,1.4,1.4,2.1c7,5.3,14,10.5,21,15.6
		c2.1-6,3.9-12,5.7-18.1C556.6,79.8,551.2,75.7,545.7,71.6z"/>
	<path d="M535.4,86.4c4.5,6.5,9.8,11.2,15.8,14c1.6,0.7,3.3,1.4,5.1,1.9c0-0.1,0.1-0.2,0.1-0.3C549.4,96.9,542.4,91.7,535.4,86.4z"/>
	<path d="M549.2,18.1c-3,4.2-6,8.4-9,12.6c4-3.2,8-6.4,11.9-9.6C551.1,20.1,550.1,19.1,549.2,18.1z"/>
	<path d="M556.7,7.6c-2.5,3.5-5,7-7.5,10.5c1,1,1.9,2,2.9,3c1.7-1.4,3.3-2.7,5-4.1c-1.6,1.4-3.3,2.7-5,4.1c1.8,1.8,3.5,3.6,5.3,5.5
		c3.7-7,7.4-14.1,11-21.2C564.2,5.7,560.3,6.5,556.7,7.6z"/>
	<path d="M536.6,64.7c-3.3-2.5-6.5-5-9.8-7.4c0.2,7,1.3,13.3,3.3,18.7C532.2,72.3,534.4,68.5,536.6,64.7z"/>
	<path d="M536.6,64.7c2.4-4.3,4.8-8.6,7.2-12.9c-4.2-2.9-8.4-5.8-12.6-8.8c-1.4,2-2.8,3.9-4.3,5.9c-0.1,1.9-0.2,3.9-0.2,5.9
		c0,0.9,0,1.7,0,2.5C530,59.8,533.3,62.3,536.6,64.7z"/>
	<path d="M557.4,26.5c-1.8-1.8-3.5-3.6-5.3-5.5c-4,3.2-7.9,6.4-11.9,9.6c-3,4.1-5.9,8.2-8.9,12.3c4.2,3,8.4,6,12.6,8.8
		C548.4,43.5,552.9,35,557.4,26.5z"/>
	<path d="M574.3,27.5c1.2-7.4,2.4-14.9,3.5-22.4c-0.7,0-1.4-0.1-2.2-0.1c-2.5,0-4.9,0.1-7.2,0.3c-3.7,7.1-7.3,14.2-11,21.2
		c1.9,2,3.9,4,5.8,6C566.1,29.5,569.8,27.8,574.3,27.5z"/>
	<path d="M545.7,71.6c-3.1-2.3-6.1-4.6-9.1-6.9c-2.2,3.8-4.3,7.6-6.5,11.3c0.8,2.1,1.7,4.1,2.7,6C537.1,78.7,541.5,75.2,545.7,71.6z"
		/>
	<path d="M557,61.7c0-0.4-0.1-0.8-0.1-1.3c-4.4-2.8-8.7-5.7-13.1-8.6c-2.4,4.3-4.8,8.6-7.2,12.9c3,2.3,6.1,4.6,9.1,6.9
		C549.5,68.4,553.3,65.1,557,61.7z"/>
	<path d="M563.2,32.5c-1.9-2-3.9-4-5.8-6c-4.5,8.5-9,16.9-13.6,25.3c4.3,2.9,8.7,5.8,13.1,8.6c-0.1-1.8-0.2-3.8-0.2-5.9
		c0-8.7,1.4-15,4.1-19C561.5,34.4,562.3,33.4,563.2,32.5z"/>
	<path d="M584.4,29.2c0.8,0.4,1.6,0.9,2.4,1.5c5.1-6,10-12.2,14.6-18.6c-1.1-1.1-2.3-2.1-3.4-3.2c-5.6-2.4-12.3-3.7-20.2-3.9
		c-1.1,7.5-2.2,15-3.5,22.4c0.7-0.1,1.3-0.1,2-0.1C579.3,27.4,582,28,584.4,29.2z"/>
	<path d="M602.2,11c-1.3-0.8-2.8-1.5-4.2-2.1c1.1,1.1,2.3,2.1,3.4,3.2C601.7,11.8,602,11.4,602.2,11z"/>
	<path d="M633.1,6.6h-4.6v23.9h4.4C632.9,22.6,633,14.6,633.1,6.6z"/>
	<path d="M633.1,6.6c-0.1,8-0.2,15.9-0.3,23.9h10.8c2.4-8.1,5.2-16.1,8.4-23.9H633.1z"/>
	<path d="M671,6.6h-18.9c-3.2,7.8-6,15.8-8.4,23.9H654C659.6,22.5,665.3,14.6,671,6.6z"/>
	<path d="M659,55.1c8.7-15.5,18.5-30.3,28.5-44.8c-1.5-1.2-3-2.4-4.6-3.6H671c-5.7,7.9-11.4,15.9-17,23.9h5V55.1z"/>
	<path d="M690,6.6h-7.1c1.5,1.2,3.1,2.4,4.6,3.6C688.3,9.1,689.1,7.9,690,6.6z"/>
	<path d="M659,61.3L659,61.3C659,61.4,659,61.3,659,61.3C659,61.3,659,61.3,659,61.3z"/>
	<path d="M695.7,17c-2.7-2.3-5.5-4.5-8.3-6.7c-10,14.6-19.7,29.3-28.5,44.8v6.2c0,0,0,0,0,0C672.6,47.8,684.8,32.9,695.7,17z"/>
	<path d="M690,6.6c-0.8,1.2-1.7,2.4-2.5,3.6c2.8,2.2,5.5,4.5,8.3,6.7c2.4-3.4,4.7-6.9,6.9-10.4H690z"/>
	<path d="M686.6,79.8c-3.8-2.2-7.4-4.6-11.1-6.9c-5.5,7.3-11,14.5-16.6,21.7v8.8h15C678.5,95.7,682.6,87.8,686.6,79.8z"/>
	<path d="M675.5,72.9c3.6,2.4,7.3,4.7,11.1,6.9c0.8-1.5,1.5-3,2.2-4.5V54.9C684.5,60.9,680,66.9,675.5,72.9z"/>
	<path d="M686.6,79.8c0.7,0.4,1.5,0.9,2.2,1.3v-5.9C688.1,76.8,687.4,78.3,686.6,79.8z"/>
	<path d="M686.6,79.8c-4,8-8.1,15.9-12.6,23.5h14.9V81.1C688.1,80.7,687.4,80.3,686.6,79.8z"/>
	<path d="M695.7,17c-10.9,15.9-23.1,30.8-36.7,44.3c5.4,4,10.9,7.9,16.5,11.5c4.5-6,8.9-12,13.3-18V30.5h17.5c0.7-0.9,1.3-1.9,2-2.9
		C704.2,24.1,700,20.5,695.7,17z"/>
	<path d="M659,61.3C659,61.3,659,61.4,659,61.3l0,33.2c5.6-7.2,11.1-14.4,16.6-21.7C669.9,69.2,664.4,65.3,659,61.3z"/>
	<path d="M719.3,11.8V6.6h-16.7c-2.2,3.5-4.6,6.9-6.9,10.4c4.2,3.5,8.4,7.1,12.6,10.7C712,22.4,715.7,17.1,719.3,11.8z"/>
	<path d="M710.9,30c-0.9-0.8-1.7-1.5-2.6-2.3c-0.7,0.9-1.3,1.9-2,2.9h4.3C710.7,30.3,710.8,30.2,710.9,30z"/>
	<path d="M710.9,30c-0.1,0.2-0.2,0.4-0.3,0.6h0.9C711.3,30.3,711.1,30.2,710.9,30z"/>
	<path d="M717,19c-2.1,3.6-4.1,7.3-6.1,11c0.2,0.2,0.4,0.4,0.6,0.6h7.8V11.8c-3.6,5.3-7.3,10.6-11,15.9c0.9,0.8,1.8,1.5,2.6,2.3
		C712.9,26.3,714.9,22.6,717,19z"/>
</svg>
