<?xml version="1.0" encoding="iso-8859-1"?>
<!-- Generator: Adobe Illustrator 16.0.0, SVG Export Plug-In . SVG Version: 6.00 Build 0)  -->
<!DOCTYPE svg PUBLIC "-//W3C//DTD SVG 1.1//EN" "http://www.w3.org/Graphics/SVG/1.1/DTD/svg11.dtd">
<svg version="1.1" id="Layer_1" xmlns="http://www.w3.org/2000/svg" xmlns:xlink="http://www.w3.org/1999/xlink" x="0px" y="0px" width="217.2px" height="110px" viewBox="0 0 217.2 110" style="enable-background:new 0 0 217.2 110;" xml:space="preserve">
	<path d="M69.5,32c-0.5-0.1-1-0.2-1.4-0.2c0.3,0.3,0.6,0.6,1,0.9C69.2,32.5,69.4,32.3,69.5,32z"/>
	<path d="M83.1,11.6C80,9.6,76.5,8.1,72.4,7c-2.1,3.5-4.2,6.8-6.5,10.1c4.1,0.6,8.1,1.2,12.2,1.9C79.8,16.5,81.4,14.1,83.1,11.6z"/>
	<path d="M68.1,31.8c0.5,0.1,1,0.1,1.4,0.2c2.8-4.4,5.7-8.7,8.6-13c-4.1-0.6-8.1-1.2-12.2-1.9c-2.4,3.5-5,7-7.6,10.4
		c2.2,0.2,4.2,0.8,6.1,1.7C65.7,29.9,67,30.8,68.1,31.8z"/>
	<path d="M88.2,15.6c-1.2-1.2-2.5-2.2-3.9-3.2c-0.4-0.3-0.8-0.5-1.2-0.8c-1.7,2.5-3.3,4.9-5,7.4c2.6,0.4,5.2,0.8,7.8,1.2
		C86.7,18.6,87.4,17.1,88.2,15.6z"/>
	<path d="M86,20.2c-2.6-0.4-5.2-0.8-7.8-1.2c-2.9,4.3-5.8,8.7-8.6,13c3.3,0.5,6.6,1,9.9,1.6C81.6,29.2,83.8,24.7,86,20.2z"/>
	<path d="M70.6,34.6c2.6,0.3,5.3,0.5,7.9,0.8c0.3-0.6,0.6-1.2,0.9-1.7c-3.3-0.6-6.6-1.1-9.9-1.6c-0.2,0.2-0.3,0.5-0.5,0.7
		c0.5,0.5,1,1.1,1.5,1.8C70.5,34.5,70.6,34.6,70.6,34.6z"/>
	<path d="M76.1,40.4c0.8-1.7,1.6-3.3,2.5-5c-2.6-0.3-5.3-0.5-7.9-0.8c1,1.4,1.9,3.5,2.8,6.4L76.1,40.4z"/>
	<path d="M94.1,36.3c-4.9-1-9.8-1.9-14.8-2.7c-0.3,0.6-0.6,1.2-0.9,1.7c4.5,0.5,9.1,0.9,13.6,1.4L94.1,36.3z"/>
	<path d="M78.5,35.4c-0.8,1.7-1.6,3.3-2.5,5l16.1-3.6C87.6,36.3,83.1,35.8,78.5,35.4z"/>
	<path d="M88.2,15.6c-0.7,1.5-1.5,3.1-2.2,4.6c2.3,0.4,4.7,0.7,7,1.1C91.5,19.1,89.9,17.3,88.2,15.6z"/>
	<path d="M96.5,35.8c0.7-1.4,1.4-2.7,2.1-4.1c-1.6-4-3.4-7.4-5.6-10.5c-2.3-0.4-4.7-0.7-7-1.1c-2.2,4.5-4.3,9-6.6,13.5
		c4.9,0.9,9.8,1.8,14.8,2.7L96.5,35.8z"/>
	<path d="M98.6,31.7c-0.7,1.4-1.4,2.7-2.1,4.1l3.3-0.7C99.4,33.9,99,32.8,98.6,31.7z"/>
	<path d="M21.2,65c-3.1-0.2-6.3-0.3-9.4-0.5c2.4,0.7,4.9,1.5,7.3,2.2C19.8,66.1,20.5,65.6,21.2,65z"/>
	<path d="M17.4,68.1c0.6-0.5,1.1-0.9,1.7-1.4c-2.4-0.8-4.9-1.5-7.3-2.2c-1.5-0.1-3-0.2-4.5-0.2c0,0.2,0,0.3,0.1,0.5
		C10.7,65.8,14,66.9,17.4,68.1z"/>
	<path d="M17.4,68.1c-3.4-1.2-6.7-2.3-10.1-3.4c0.5,3.5,1.2,6.8,2.1,9.8C12.1,72.4,14.8,70.3,17.4,68.1z"/>
	<path d="M56.3,27.4c0.7,0,1.4,0,2,0.1c2.7-3.4,5.2-6.8,7.6-10.4c-8.1-1.2-16.2-2.5-24.2-3.7c-0.6,1.6-1.3,3.1-2.1,4.5
		c3.9,3.3,7.8,6.7,11.8,10C52.9,27.6,54.5,27.4,56.3,27.4z"/>
	<path d="M47.8,29.1c1.1-0.5,2.3-0.9,3.5-1.2c-3.9-3.3-7.8-6.6-11.8-10c-1.7,3.4-3.7,6.6-6,9.6c4.6,0.5,9.2,1,13.8,1.5
		C47.5,29.1,47.7,29.1,47.8,29.1z"/>
	<path d="M72.4,7c-1.5-0.4-3-0.7-4.6-1c-5.1-0.1-10.3-0.1-15.4,0.1C57.5,5.9,62.7,5.9,67.8,6C64.1,5.3,60,5,55.5,5
		c-4,0-7.8,0.3-11.3,0.9c-0.7,2.6-1.5,5.1-2.5,7.5c8.1,1.2,16.2,2.5,24.2,3.7C68.2,13.8,70.4,10.5,72.4,7z"/>
	<path d="M47.8,29.1c-0.2,0-0.3,0-0.5-0.1c-4.6-0.5-9.2-1-13.8-1.5c-0.9,1.3-1.9,2.5-3,3.7c4.3,0.3,8.6,0.6,12.8,0.9
		C44.8,30.9,46.2,29.9,47.8,29.1z"/>
	<path d="M40.7,35.5c0.8-1.3,1.8-2.4,2.8-3.3c-4.3-0.3-8.6-0.6-12.8-0.9c-2.1,2.4-4.3,4.7-6.6,6.9c4.2,3.7,8.5,7.3,12.8,10.9
		C37.3,43.2,38.6,38.7,40.7,35.5z"/>
	<path d="M15.7,45.3c-1.4,1.1-2.8,2.2-4.3,3.3c2.3,0,4.7,0.1,7,0.1C17.5,47.6,16.6,46.4,15.7,45.3z"/>
	<path d="M36.8,49.2c0,0,0-0.1,0-0.1c-4.3-3.6-8.6-7.2-12.8-10.9c-2.6,2.5-5.5,4.9-8.4,7.2c0.9,1.1,1.8,2.2,2.7,3.4
		C24.5,48.8,30.7,48.9,36.8,49.2z"/>
	<path d="M11.8,64.5c3.1,0.2,6.3,0.3,9.4,0.5c1.7-1.4,3.3-2.8,5-4.3c-2.3-4.3-4.9-8.2-7.8-12c-2.3,0-4.7-0.1-7-0.1
		c-1.5,1.1-3.1,2.2-4.6,3.3c0,1,0,1.9,0,2.9c0,2.9,0.2,5.7,0.4,8.3C8.7,63.6,10.2,64,11.8,64.5z"/>
	<path d="M11.8,64.5c-1.6-0.5-3.1-0.9-4.7-1.4c0,0.4,0.1,0.8,0.1,1.1C8.8,64.3,10.3,64.4,11.8,64.5z"/>
	<path d="M36.7,51.1c0-0.7,0.1-1.3,0.1-1.9c-6.1-0.2-12.3-0.4-18.4-0.5c2.9,3.8,5.5,7.7,7.8,12C29.8,57.6,33.3,54.4,36.7,51.1z"/>
	<path d="M39.8,73.9c-1-2.1-1.8-4.7-2.3-7.8c-3-0.2-6-0.4-8.9-0.6c0.7,1.7,1.4,3.4,2.1,5.1C33.7,71.6,36.7,72.7,39.8,73.9z"/>
	<path d="M40.7,76.4c0.1-0.1,0.2-0.3,0.3-0.4c-0.4-0.6-0.8-1.3-1.2-2.1c-3.1-1.2-6.1-2.3-9.2-3.3c0.3,0.8,0.6,1.6,0.9,2.5
		C34.5,74.1,37.6,75.2,40.7,76.4z"/>
	<path d="M38.7,79c0.7-0.9,1.3-1.7,2-2.6c-3.1-1.1-6.2-2.2-9.3-3.3c0.3,1,0.7,2,1,3.1C34.5,77,36.6,78,38.7,79z"/>
	<path d="M28.5,65.4c-2.4-0.2-4.9-0.3-7.3-0.5c-0.7,0.6-1.4,1.2-2.1,1.7c3.9,1.2,7.7,2.5,11.5,3.8C29.9,68.8,29.3,67.1,28.5,65.4z"/>
	<path d="M30.6,70.6c-3.8-1.3-7.7-2.6-11.5-3.8c-0.6,0.5-1.1,0.9-1.7,1.4c4.7,1.6,9.4,3.2,14,4.9C31.2,72.2,30.9,71.4,30.6,70.6z"/>
	<path d="M38.7,79c-2.1-1-4.2-1.9-6.3-2.9c-0.3-1-0.6-2.1-1-3.1c-4.7-1.7-9.4-3.3-14-4.9c-2.6,2.2-5.3,4.3-8,6.4c0,0.1,0,0.1,0.1,0.2
		c7.2,4.7,14.2,9.5,21.3,14.3C33.5,85.7,36.1,82.4,38.7,79z"/>
	<path d="M9.5,74.6c1.1,3.5,2.6,6.7,4.4,9.7c3.1,5,6.6,8.9,10.5,12c2.2-2.4,4.3-4.8,6.4-7.3C23.7,84.2,16.7,79.3,9.5,74.6z"/>
	<path d="M26.2,60.7c-1.6,1.4-3.3,2.9-5,4.3c2.4,0.1,4.9,0.3,7.3,0.5C27.8,63.8,27,62.2,26.2,60.7z"/>
	<path d="M37.4,66.1c-0.6-3.3-0.8-7.1-0.8-11.5c0-1.2,0-2.3,0.1-3.5c-3.4,3.3-6.9,6.5-10.5,9.6c0.8,1.5,1.6,3.1,2.3,4.7
		C31.5,65.6,34.5,65.9,37.4,66.1z"/>
	<path d="M100.6,72c-2-0.2-4-0.4-6-0.7c-1.5,4-2.9,7.9-4.5,11.8c2.1,0.1,4.2,0.3,6.3,0.4C98.2,80.2,99.6,76.3,100.6,72z"/>
	<path d="M100.7,71.7L95.1,70c-0.2,0.5-0.3,0.9-0.5,1.4c2,0.2,4,0.4,6,0.7C100.7,71.9,100.7,71.8,100.7,71.7z"/>
	<path d="M92.4,90.1c1.5-2,2.8-4.1,4-6.5c-2.1-0.2-4.2-0.3-6.3-0.4c-1.4,3.6-2.8,7.2-4.2,10.7c0.7,0.3,1.4,0.6,2.1,0.9
		C89.6,93.4,91.1,91.8,92.4,90.1z"/>
	<path d="M88.1,94.8c-0.7-0.3-1.4-0.6-2.1-0.9c-0.5,1.3-1,2.6-1.6,3.9C85.7,96.9,86.9,95.9,88.1,94.8z"/>
	<path d="M85.9,94c1.4-3.6,2.9-7.2,4.2-10.7c-0.6,0-1.2-0.1-1.8-0.1c0.6,0,1.2,0.1,1.8,0.1c1.5-3.9,3-7.9,4.5-11.8
		c-3.2-0.4-6.4-0.7-9.6-1c-3.5,6.3-7,12.5-10.3,18.8c0.6,0.3,1.2,0.6,1.8,0.9C79.6,91.4,82.8,92.7,85.9,94z"/>
	<path d="M74.7,89.2c0,0.1-0.1,0.1-0.1,0.2c0.6,0.3,1.3,0.5,1.9,0.8C75.9,89.8,75.3,89.5,74.7,89.2z"/>
	<path d="M76.5,90.1c0.6,0.3,1.3,0.6,1.9,1C77.8,90.8,77.1,90.4,76.5,90.1c-0.6-0.3-1.3-0.5-1.9-0.8c-1.2,2.2-2.3,4.5-3.4,6.8
		c2.6,1.6,5.2,3.2,7.8,4.8c1.9-0.9,3.7-1.9,5.4-3.1c0.5-1.3,1-2.6,1.6-3.9C82.8,92.7,79.6,91.4,76.5,90.1z"/>
	<path d="M71.2,96.1c-1.3,2.7-2.5,5.4-3.7,8.2c4.1-0.6,7.7-1.6,10.8-3c0.2-0.1,0.4-0.2,0.6-0.3C76.4,99.3,73.8,97.7,71.2,96.1z"/>
	<path d="M95.1,70l-8.5-2.6c-0.5,1-1.1,2-1.6,2.9c3.2,0.3,6.4,0.7,9.6,1C94.8,70.9,95,70.5,95.1,70z"/>
	<path d="M74.5,63.8c-0.4,1.9-0.9,3.7-1.5,5.4c1.4,0.1,2.7,0.3,4.1,0.4c0.9-1.4,1.8-2.8,2.6-4.2L74.5,63.8z"/>
	<path d="M77.1,69.5c-1.4-0.1-2.7-0.3-4.1-0.4c-1.2,3.5-2.9,6.4-4.9,8.6c-2.1,2.3-4.9,3.7-8.3,4.4c2.3,1,4.6,2.1,6.8,3.1
		C70.2,80.1,73.7,74.8,77.1,69.5z"/>
	<path d="M66.7,85.3c-2.3-1.1-4.5-2.1-6.8-3.1c-0.9,0.2-1.8,0.3-2.8,0.4c3,1.2,6,2.3,9.1,3.5C66.3,85.8,66.5,85.5,66.7,85.3z"/>
	<path d="M66.2,86c-3-1.2-6-2.4-9.1-3.5c-0.6,0-1.2,0.1-1.9,0.1c-0.8,0-1.6,0-2.4-0.1c-0.5,0.9-1.1,1.7-1.6,2.6c3.8,2,7.6,4,11.4,6.1
		C63.8,89.4,65,87.7,66.2,86z"/>
	<path d="M62.6,91.1c-3.8-2.1-7.6-4.1-11.4-6.1c-2.6,4.1-5.2,8.1-7.9,12.1c3.4,2.2,6.9,4.3,10.4,6.4C56.7,99.4,59.7,95.3,62.6,91.1z"
		/>
	<path d="M43.3,97.2c-1.3,2-2.7,4-4.1,5.9c4,1,8.6,1.6,13.6,1.8c0.3-0.5,0.7-0.9,1-1.4C50.2,101.5,46.8,99.4,43.3,97.2z"/>
	<path d="M74.6,89.3c-2.8-1.1-5.6-2.2-8.4-3.3c-1.2,1.7-2.4,3.4-3.5,5.1c2.9,1.6,5.7,3.3,8.6,5C72.3,93.8,73.4,91.6,74.6,89.3z"/>
	<path d="M66.7,85.3c-0.2,0.2-0.3,0.5-0.5,0.7c2.8,1.1,5.6,2.2,8.4,3.3c0-0.1,0.1-0.1,0.1-0.2C72,87.8,69.4,86.5,66.7,85.3z"/>
	<path d="M77.1,69.5c-3.4,5.3-6.9,10.5-10.4,15.7c2.7,1.3,5.3,2.6,8,3.9C78,82.9,81.5,76.6,85,70.3C82.3,70.1,79.7,69.8,77.1,69.5z"
		/>
	<path d="M56.9,105c3.8,0,7.3-0.3,10.6-0.7c1.1-2.7,2.4-5.5,3.7-8.2c-2.8-1.7-5.7-3.4-8.6-5c-2.9,4.2-5.9,8.3-8.9,12.4
		c0.8,0.5,1.7,1,2.5,1.4C56.5,105,56.7,105,56.9,105z"/>
	<path d="M56.3,105c-0.8-0.5-1.7-1-2.5-1.4c-0.3,0.5-0.7,0.9-1,1.4C53.9,105,55.1,105,56.3,105z"/>
	<path d="M86.6,67.4l-6.9-2.1c-0.9,1.4-1.8,2.8-2.6,4.2c2.6,0.3,5.3,0.5,7.9,0.8C85.5,69.4,86.1,68.4,86.6,67.4z"/>
	<path d="M52.9,82.5c-4.7-0.5-8.5-2.4-11.3-5.8c-0.3-0.1-0.6-0.2-0.8-0.3c-0.7,0.9-1.3,1.8-2,2.6c4.2,2,8.4,4,12.5,6.1
		C51.8,84.2,52.3,83.3,52.9,82.5z"/>
	<path d="M41.5,76.6c-0.2-0.2-0.3-0.4-0.5-0.6c-0.1,0.1-0.2,0.3-0.3,0.4C41,76.5,41.3,76.6,41.5,76.6C41.5,76.6,41.5,76.6,41.5,76.6z
		"/>
	<path d="M51.2,85.1C47.1,83,42.9,81,38.7,79c-2.6,3.4-5.2,6.8-7.9,10c4.1,2.8,8.3,5.5,12.5,8.2C46,93.2,48.7,89.2,51.2,85.1z"/>
	<path d="M30.8,89c-2.1,2.5-4.2,4.9-6.4,7.3c2.1,1.7,4.4,3.1,6.7,4.1c2.4,1.1,5.1,2,8,2.7c1.4-2,2.8-4,4.1-5.9
		C39.1,94.5,34.9,91.8,30.8,89z"/>
	<path d="M41.7,13.4c1-2.4,1.8-4.9,2.5-7.5c-5.1,0.8-9.7,2.3-13.9,4.3c0.8,0.6,1.5,1.3,2.3,1.9C35.6,12.5,38.7,12.9,41.7,13.4z"/>
	<path d="M30.3,10.2c-0.8,0.4-1.6,0.8-2.3,1.2c1.5,0.2,3.1,0.5,4.6,0.7C31.9,11.4,31.1,10.8,30.3,10.2z"/>
	<path d="M41.7,13.4c-3-0.5-6.1-0.9-9.1-1.4c2.3,2,4.7,3.9,7,5.9C40.4,16.5,41.1,15,41.7,13.4z"/>
	<path d="M39.6,17.9c-2.3-2-4.6-3.9-7-5.9c-1.5-0.2-3.1-0.5-4.6-0.7c-3.2,1.8-6.1,4-8.6,6.5c-2.2,2.2-4.1,4.7-5.8,7.5
		c6.7,0.7,13.3,1.4,20,2.2C35.9,24.5,37.9,21.3,39.6,17.9z"/>
	<path d="M30.6,31.3c-5.2-0.4-10.3-0.7-15.5-0.9c3,2.6,5.9,5.3,8.9,7.9C26.4,36,28.6,33.7,30.6,31.3z"/>
	<path d="M15.7,45.3c-2.2-2.6-4.6-5.1-7.1-7.5c-0.8,3.3-1.4,6.9-1.7,10.7c1.5,0,3,0,4.5,0C12.8,47.5,14.3,46.4,15.7,45.3z"/>
	<path d="M24,38.2c-3-2.6-5.9-5.2-8.9-7.9c-1.3-0.1-2.6-0.1-3.9-0.2c-1.1,2.4-1.9,5-2.6,7.7c2.5,2.4,4.8,4.9,7.1,7.5
		C18.6,43.1,21.4,40.7,24,38.2z"/>
	<path d="M30.6,31.3c1-1.2,2-2.4,3-3.7c-6.7-0.8-13.3-1.5-20-2.2c-0.5,0.8-0.9,1.6-1.3,2.4c0.9,0.8,1.9,1.7,2.8,2.5
		C20.3,30.6,25.5,30.9,30.6,31.3z"/>
	<path d="M12.3,27.8c-0.4,0.8-0.7,1.5-1.1,2.3c1.3,0.1,2.6,0.1,3.9,0.2C14.2,29.5,13.3,28.6,12.3,27.8z"/>
	<path d="M6.9,48.6c-0.1,1.1-0.1,2.2-0.2,3.3c1.6-1.1,3.1-2.1,4.6-3.3C9.9,48.6,8.4,48.6,6.9,48.6z"/>
	<path d="M109.5,7.3c0.1-0.2,0.1-0.4,0.2-0.6h-4l0.8,2.2c0.7,0.1,1.5,0.2,2.2,0.3C109,8.5,109.3,7.9,109.5,7.3z"/>
	<path d="M108.8,9.1c-0.7-0.1-1.5-0.2-2.2-0.3l1.1,2.9C108.1,10.9,108.4,10,108.8,9.1z"/>
	<path d="M109.5,7.3c-0.2,0.6-0.5,1.2-0.7,1.8c0.1,0,0.2,0,0.2,0C109.2,8.5,109.4,7.9,109.5,7.3z"/>
	<path d="M108.8,9.1c-0.4,0.9-0.7,1.8-1.1,2.7l0.4,0.9c0.3-1.2,0.7-2.4,1-3.6C108.9,9.2,108.9,9.1,108.8,9.1z"/>
	<path d="M109.7,6.6c-0.1,0.2-0.1,0.4-0.2,0.6C109.6,7.1,109.7,6.9,109.7,6.6L109.7,6.6z"/>
	<path d="M118.8,6.6h-9c-0.1,0.2-0.2,0.4-0.3,0.6c-0.2,0.6-0.3,1.2-0.5,1.9c2.8,0.3,5.6,0.7,8.4,1.1C117.9,9,118.3,7.8,118.8,6.6z"/>
	<path d="M109,9.2c-0.3,1.2-0.6,2.4-1,3.6l4.1,10.9c1.7-4.5,3.4-8.9,5.2-13.4C114.6,9.9,111.8,9.5,109,9.2z"/>
	<path d="M127.3,6.6h-8.5c-0.5,1.2-1,2.4-1.4,3.6c2.4,0.3,4.8,0.7,7.2,1C125.4,9.7,126.4,8.2,127.3,6.6z"/>
	<path d="M117.4,10.2c-1.8,4.4-3.5,8.9-5.2,13.4l0.2,0.4c1.5,0.2,3,0.4,4.6,0.6c2.5-4.5,5-9,7.7-13.5
		C122.2,10.9,119.8,10.6,117.4,10.2z"/>
	<path d="M114.4,29.5c0.8-1.6,1.7-3.2,2.5-4.8c-1.5-0.2-3-0.4-4.6-0.6L114.4,29.5z"/>
	<path d="M138,10L137,6.6h-9.7c-0.9,1.5-1.8,3.1-2.7,4.6c4.1,0.6,8.1,1.2,12.2,1.8C137.1,12,137.6,11,138,10z"/>
	<path d="M124.5,11.2c-2.6,4.4-5.2,8.9-7.7,13.5c4.3,0.6,8.6,1.2,12.9,1.8c2.5-4.4,4.8-8.9,6.9-13.4
		C132.6,12.4,128.6,11.8,124.5,11.2z"/>
	<path d="M121.4,40c2.9-4.4,5.8-8.9,8.4-13.5c-4.3-0.6-8.6-1.2-12.9-1.8c-0.9,1.6-1.7,3.2-2.5,4.8l3.8,10.2
		C119.3,39.8,120.3,39.9,121.4,40z"/>
	<path d="M120.2,41.7c0.4-0.6,0.8-1.2,1.2-1.8c-1.1-0.1-2.1-0.2-3.2-0.4l0.7,1.8C119.3,41.6,119.8,41.6,120.2,41.7z"/>
	<path d="M120.2,41.7c-0.4-0.1-0.9-0.2-1.3-0.3l0.6,1.5C119.7,42.5,120,42.1,120.2,41.7z"/>
	<path d="M136,27.3c1.3,0.2,2.6,0.3,3.9,0.5c0.8-1.3,1.6-2.6,2.4-4l-1.5-4.9C139.2,21.7,137.6,24.5,136,27.3z"/>
	<path d="M139.9,27.8c-1.3-0.2-2.6-0.3-3.9-0.5c-2.4,4.5-4.7,9-6.9,13.6c0.6,0.1,1.2,0.1,1.7,0.2C134,36.7,137.1,32.3,139.9,27.8z"/>
	<path d="M130.8,41.1c-0.6-0.1-1.2-0.1-1.7-0.2c-0.4,0.9-0.8,1.7-1.2,2.6c0.4,0.1,0.7,0.2,1.1,0.2C129.6,42.8,130.2,41.9,130.8,41.1z
		"/>
	<path d="M127.9,43.4c-0.8,1.7-1.6,3.4-2.3,5.1c1.1-1.6,2.3-3.2,3.4-4.8C128.6,43.6,128.2,43.5,127.9,43.4z"/>
	<path d="M139.9,27.8c1.3,0.2,2.5,0.3,3.8,0.5l-1.4-4.5C141.6,25.1,140.7,26.5,139.9,27.8z"/>
	<path d="M143.7,28.2c-1.3-0.2-2.5-0.3-3.8-0.5c-2.9,4.6-6,8.9-9.1,13.3c4.5,0.5,9,1,13.5,1.5c0.8-1.6,1.6-3.2,2.4-4.8L143.7,28.2z"
		/>
	<path d="M130.8,41.1c-0.6,0.9-1.2,1.7-1.9,2.6c4.4,1,8.8,2,13.2,2.9c0.7-1.3,1.4-2.7,2.1-4C139.8,42.1,135.3,41.6,130.8,41.1z"/>
	<path d="M129,43.7c-1.2,1.6-2.3,3.2-3.4,4.8c-0.7,1.6-1.4,3.2-2.1,4.8l1.6,4.1c3.3,0.5,6.6,1.1,10,1.6c2.6-4.1,5-8.2,7.3-12.5
		C137.8,45.6,133.4,44.6,129,43.7z"/>
	<path d="M134.9,59.1c-3.3-0.6-6.6-1.1-10-1.6l4,10.6C131,65.1,133,62.1,134.9,59.1z"/>
	<path d="M131.9,75.7c0,0,0,0.1-0.1,0.1l2.9,7.8c1.5-2.3,3-4.7,4.5-7C136.8,76.3,134.4,76,131.9,75.7z"/>
	<path d="M131.9,75.7C131.9,75.7,131.8,75.7,131.9,75.7l-0.1,0.1C131.9,75.8,131.9,75.7,131.9,75.7z"/>
	<path d="M131.9,75.7c2.4-5.3,4.8-10.6,7.1-15.9c-1.4-0.2-2.8-0.5-4.2-0.7c-1.9,3-3.9,6-5.9,9L131.9,75.7
		C131.8,75.7,131.9,75.7,131.9,75.7z"/>
	<path d="M146.7,37.8c-0.8,1.6-1.6,3.2-2.4,4.8c1.3,0.1,2.7,0.3,4,0.4L146.7,37.8z"/>
	<path d="M144.3,42.6c-0.7,1.4-1.4,2.7-2.1,4c2.6,0.6,5.2,1.2,7.8,1.7l-1.7-5.3C147,42.9,145.7,42.7,144.3,42.6z"/>
	<path d="M142.2,46.6c-2.3,4.2-4.7,8.4-7.3,12.5c1.4,0.2,2.8,0.5,4.2,0.7c1.8-4.2,3.6-8.4,5.3-12.7c-1.7,4.3-3.5,8.5-5.3,12.7
		c3.3,0.6,6.5,1.2,9.7,1.8c1.2-1.9,2.4-3.7,3.6-5.6l-2.4-7.6C147.4,47.8,144.8,47.2,142.2,46.6z"/>
	<path d="M139.1,59.8c-2.3,5.3-4.7,10.6-7.1,15.9c2.5,0.3,4.9,0.6,7.4,0.9c3.2-5,6.3-10,9.5-15C145.6,61,142.3,60.4,139.1,59.8z"/>
	<path d="M140.2,88.8c-1.2-0.2-2.4-0.4-3.7-0.6l1.7,4.6C138.9,91.5,139.6,90.1,140.2,88.8z"/>
	<path d="M134.8,83.6l1.7,4.6c1.2,0.2,2.4,0.4,3.7,0.6c1.8-3.8,3.7-7.6,5.7-11.4c-2.2-0.3-4.4-0.6-6.6-0.8
		C137.8,78.9,136.3,81.3,134.8,83.6z"/>
	<path d="M148.8,61.6c1.8,0.3,3.6,0.7,5.3,1c0.1-0.1,0.1-0.3,0.2-0.4l-2-6.2C151.2,57.8,150,59.7,148.8,61.6z"/>
	<path d="M148.8,61.6c-3.2,5-6.4,10-9.5,15c2.2,0.3,4.4,0.5,6.6,0.8c2.6-5,5.4-10,8.2-14.8C152.4,62.2,150.6,61.9,148.8,61.6z"/>
	<path d="M140.2,88.8c-0.6,1.3-1.3,2.7-1.9,4l4,10.5h8.5c0.4-4.2,1-8.3,1.7-12.4C148.4,90.2,144.3,89.5,140.2,88.8z"/>
	<path d="M154.4,62.2c-0.1,0.1-0.1,0.2-0.2,0.4c0.1,0,0.2,0,0.4,0.1L154.4,62.2z"/>
	<path d="M154.1,62.6c-2.9,4.8-5.6,9.8-8.2,14.8c1.8,0.2,3.7,0.5,5.5,0.7c1.2,0.2,2.4,0.3,3.6,0.5c0.6-2.8,1.3-5.5,1.9-8.2l-2.4-7.7
		C154.4,62.6,154.3,62.6,154.1,62.6z"/>
	<path d="M151.4,78.1c-1.8-0.2-3.7-0.5-5.5-0.7c-2,3.8-3.9,7.6-5.7,11.4c4.1,0.7,8.2,1.4,12.3,2.1c0.7-4.2,1.6-8.3,2.5-12.4
		C153.8,78.4,152.6,78.3,151.4,78.1z"/>
	<path d="M162.4,64.3l-3.7,11.9l-1.9-5.9c-0.7,2.7-1.3,5.5-1.9,8.2c2.6,0.3,5.3,0.7,8,0.9c1-4.8,2.1-9.6,3.2-14.4
		C164.9,64.8,163.7,64.6,162.4,64.3z"/>
	<path d="M182.6,6.6h-2.3l-3.9,12.5c0.6,0.1,1.3,0.2,1.9,0.3C179.6,15.1,181,10.9,182.6,6.6z"/>
	<path d="M176.4,19.1l-3.8,12.4c0.7,0.1,1.3,0.1,2,0.2c1.2-4.1,2.4-8.2,3.7-12.3C177.6,19.3,177,19.2,176.4,19.1z"/>
	<path d="M172.6,31.5l-4.2,13.7c0.8,0.1,1.7,0.2,2.5,0.3c1.2-4.6,2.4-9.2,3.7-13.8C173.9,31.6,173.2,31.6,172.6,31.5z"/>
	<path d="M168.3,45.2l-2.1,6.7c0.9,0.2,1.9,0.4,2.8,0.6c0.6-2.3,1.2-4.7,1.7-7C170,45.4,169.2,45.3,168.3,45.2z"/>
	<path d="M166.3,51.8l-3.8,12.5c1.2,0.3,2.5,0.5,3.7,0.8c1-4.2,2-8.5,3-12.7C168.2,52.2,167.2,52,166.3,51.8z"/>
	<path d="M155,78.6c-0.9,4.1-1.8,8.2-2.5,12.4c2.6,0.5,5.1,1,7.7,1.5c0.9-4.3,1.8-8.6,2.8-12.9C160.3,79.2,157.6,78.9,155,78.6z"/>
	<path d="M152.5,90.9c-0.7,4.1-1.3,8.2-1.7,12.4h7.1c0.8-3.6,1.6-7.3,2.3-11C157.6,91.9,155.1,91.4,152.5,90.9z"/>
	<path d="M173.8,66.8c-0.3-0.1-0.6-0.1-0.9-0.2c-0.3,2.2-0.5,4.5-0.8,6.7C172.6,71.1,173.2,69,173.8,66.8z"/>
	<path d="M195.2,6.6h-11.7c-1.1,4.4-2.1,8.7-3,13.1c2.8,0.4,5.7,0.8,8.5,1.1C191,16.1,193.1,11.3,195.2,6.6z"/>
	<path d="M180.5,19.7c-0.9,4.1-1.7,8.2-2.5,12.3c2.1,0.2,4.3,0.4,6.4,0.6c1.5-4,3-7.9,4.6-11.8C186.2,20.5,183.4,20.1,180.5,19.7z"/>
	<path d="M178.1,32c-0.9,4.6-1.6,9.3-2.4,13.9c1.3,0.1,2.7,0.3,4,0.4c1.5-4.6,3.1-9.2,4.7-13.8C182.3,32.4,180.2,32.2,178.1,32z"/>
	<path d="M175.7,46c-0.4,2.5-0.8,5.1-1.1,7.6c0.9,0.2,1.8,0.4,2.7,0.5c0.8-2.6,1.6-5.2,2.4-7.7C178.4,46.2,177,46.1,175.7,46z"/>
	<path d="M174.6,53.6c-0.6,4.3-1.2,8.7-1.7,13c0.3,0.1,0.6,0.1,0.9,0.2c1.1-4.3,2.3-8.5,3.5-12.7C176.4,53.9,175.5,53.7,174.6,53.6z"
		/>
	<path d="M170.9,80.2c-0.1,0-0.2,0-0.4,0c-0.2,1-0.4,1.9-0.6,2.9C170.3,82.1,170.6,81.1,170.9,80.2z"/>
	<path d="M170.9,80.2c0.2-0.7,0.4-1.3,0.7-2c0.2-1.6,0.3-3.3,0.5-4.9c-0.5,2.3-1,4.6-1.5,6.9C170.7,80.2,170.8,80.2,170.9,80.2z"/>
	<path d="M171.6,78.2c1.3-3.7,2.5-7.3,3.8-11c-0.5-0.1-1.1-0.3-1.6-0.4c-0.6,2.2-1.1,4.3-1.6,6.5C171.9,74.9,171.8,76.6,171.6,78.2z"
		/>
	<path d="M177.3,54.1c-1.3,4.2-2.4,8.4-3.5,12.7c0.6,0.1,1.1,0.3,1.6,0.4c1.5-4.2,3-8.4,4.5-12.6C179,54.5,178.2,54.3,177.3,54.1z"/>
	<path d="M198.7,6.6h-3.5c-2.2,4.7-4.2,9.4-6.2,14.2c1.2,0.2,2.4,0.3,3.6,0.4C194.6,16.4,196.6,11.5,198.7,6.6z"/>
	<path d="M189,20.8c-1.6,3.9-3.1,7.8-4.6,11.8c1.2,0.1,2.4,0.2,3.5,0.3c1.5-3.9,3-7.8,4.6-11.6C191.4,21.2,190.2,21,189,20.8z"/>
	<path d="M184.5,32.6c-1.7,4.6-3.3,9.1-4.7,13.8c1,0.1,2,0.2,3.1,0.3c1.7-4.6,3.4-9.2,5.2-13.8C186.8,32.8,185.6,32.7,184.5,32.6z"/>
	<path d="M177.3,54.1c0.9,0.2,1.7,0.3,2.6,0.5c1-2.7,1.9-5.3,2.9-7.9c-1-0.1-2-0.2-3.1-0.3C178.9,48.9,178.1,51.5,177.3,54.1z"/>
	<path d="M170.1,94.5c1.5,0.3,3,0.7,4.5,1c1.3-5,2.7-9.9,4.1-14.8c-2.4-0.1-4.8-0.3-7.2-0.5C170.9,85,170.5,89.7,170.1,94.5z"/>
	<path d="M175.4,67.2c-1.3,3.7-2.5,7.3-3.8,11c-0.1,0.7-0.1,1.3-0.2,2c2.4,0.2,4.8,0.3,7.2,0.5c1.2-4,2.4-7.9,3.7-11.8
		C180,68.3,177.7,67.7,175.4,67.2z"/>
	<path d="M179.9,54.6c2.3,0.4,4.5,0.9,6.8,1.3c1-2.9,2.1-5.7,3.1-8.6c-2.3-0.2-4.7-0.5-7-0.7C181.8,49.3,180.8,52,179.9,54.6z"/>
	<path d="M207.1,6.6h-8.4c-2.1,4.9-4.1,9.7-6.1,14.6c2.5,0.3,5,0.6,7.4,0.9C202.3,17,204.7,11.8,207.1,6.6z"/>
	<path d="M192.6,21.3c-1.6,3.9-3.1,7.7-4.6,11.6c2.4,0.2,4.8,0.4,7.2,0.6c1.5-3.8,3.2-7.6,4.8-11.3C197.5,21.9,195.1,21.6,192.6,21.3
		z"/>
	<path d="M188,32.9c-1.8,4.6-3.5,9.2-5.2,13.8c2.3,0.2,4.7,0.5,7,0.7c1.7-4.7,3.5-9.3,5.4-13.9C192.8,33.3,190.4,33.1,188,32.9z"/>
	<path d="M179.9,54.6c-1.5,4.2-3,8.4-4.5,12.6c2.3,0.5,4.6,1.1,6.9,1.6c1.4-4.3,2.9-8.6,4.4-12.9C184.4,55.5,182.1,55.1,179.9,54.6z"
		/>
	<path d="M171.6,78.2c-0.2,0.7-0.4,1.3-0.7,2c0.2,0,0.3,0,0.5,0C171.5,79.6,171.5,78.9,171.6,78.2z"/>
	<path d="M170.9,80.2c-0.3,1-0.6,1.9-1,2.9c-0.8,3.6-1.5,7.3-2.1,10.9c0.7,0.2,1.5,0.3,2.2,0.5c0.4-4.8,0.9-9.5,1.3-14.2
		C171.3,80.2,171.1,80.2,170.9,80.2z"/>
	<path d="M174.6,95.5c0.9,0.2,1.9,0.4,2.8,0.6l5.7-15.2c-1.4-0.1-2.9-0.1-4.3-0.2C177.2,85.6,175.8,90.5,174.6,95.5z"/>
	<path d="M178.7,80.7c1.5,0.1,2.9,0.1,4.3,0.2l4-10.9c-1.6-0.4-3.1-0.8-4.7-1.2C181,72.8,179.8,76.7,178.7,80.7z"/>
	<path d="M186.7,55.9c1.7,0.3,3.5,0.6,5.2,1l3.3-9c-1.8-0.2-3.6-0.3-5.5-0.5C188.7,50.2,187.7,53.1,186.7,55.9z"/>
	<path d="M210.6,6.6h-3.4c-2.5,5.1-4.8,10.3-7.1,15.5c1.5,0.2,3.1,0.3,4.6,0.5L210.6,6.6z"/>
	<path d="M200,22.2c-1.6,3.8-3.3,7.5-4.8,11.3c1.7,0.1,3.5,0.3,5.2,0.4l4.2-11.2C203.1,22.5,201.6,22.3,200,22.2z"/>
	<path d="M195.2,33.5c-1.9,4.6-3.7,9.2-5.4,13.9c1.8,0.2,3.6,0.3,5.5,0.5l5.2-14C198.7,33.7,197,33.6,195.2,33.5z"/>
	<path d="M186.7,55.9c-1.5,4.3-3,8.6-4.4,12.9c1.6,0.4,3.1,0.8,4.7,1.2l4.9-13.1C190.2,56.6,188.4,56.3,186.7,55.9z"/>
	<path d="M174.4,96.1c0.1-0.2,0.1-0.4,0.2-0.6c-1.5-0.3-3-0.7-4.5-1c-0.2,2.5-0.5,5.1-0.7,7.6c0.2-2.5,0.4-5.1,0.7-7.6
		c-0.7-0.2-1.5-0.3-2.2-0.5c-0.6,3.1-1.1,6.2-1.5,9.4h8.2c0.4-2.5,0.3-5,0.8-7.3c-0.6,2.2-0.5,4.8-0.8,7.3h0.1l2.7-7.2
		c-0.9-0.2-1.9-0.4-2.8-0.6C174.5,95.7,174.4,95.9,174.4,96.1z"/>
	<path d="M170,83.1c-1.2,3.5-2.4,7.1-3.5,10.6c0.5,0.1,1,0.2,1.4,0.3C168.5,90.3,169.2,86.7,170,83.1z"/>
	<path d="M166.4,93.7c-1.1,3.2-2.2,6.4-3.2,9.7h3.1c0.5-3.1,1-6.2,1.5-9.4C167.4,93.9,166.9,93.8,166.4,93.7z"/>
	<path d="M162.9,79.5c-0.9,4.3-1.8,8.6-2.8,12.9c2.1,0.4,4.2,0.8,6.2,1.3c1.2-3.5,2.3-7.1,3.5-10.6c0.2-1,0.4-1.9,0.6-2.9
		C168,80,165.5,79.7,162.9,79.5z"/>
	<path d="M169.1,52.4c-1,4.2-2,8.4-3,12.7c2.3,0.5,4.5,1,6.8,1.5c0.5-4.4,1.1-8.7,1.7-13C172.8,53.2,170.9,52.8,169.1,52.4z"/>
	<path d="M183.6,6.6h-1c-1.5,4.2-2.9,8.5-4.3,12.7c0.8,0.1,1.5,0.2,2.3,0.3C181.5,15.4,182.5,11,183.6,6.6z"/>
	<path d="M178.3,19.4c-1.3,4.1-2.5,8.2-3.7,12.3c1.2,0.1,2.3,0.2,3.5,0.3c0.8-4.1,1.6-8.2,2.5-12.3C179.8,19.6,179,19.5,178.3,19.4z"
		/>
	<path d="M174.6,31.7c-1.3,4.6-2.5,9.2-3.7,13.8c1.6,0.2,3.2,0.3,4.9,0.5c0.7-4.7,1.5-9.3,2.4-13.9C176.9,31.9,175.7,31.8,174.6,31.7
		z"/>
	<path d="M170.9,45.5c-0.6,2.3-1.2,4.6-1.7,7c1.8,0.4,3.7,0.8,5.5,1.1c0.4-2.5,0.7-5.1,1.1-7.6C174.1,45.8,172.5,45.6,170.9,45.5z"/>
	<path d="M166.1,65.1c-1.1,4.8-2.1,9.6-3.2,14.4c2.5,0.3,5.1,0.5,7.6,0.7c0.5-2.3,1-4.6,1.5-6.9c0.2-2.2,0.5-4.5,0.8-6.7
		C170.6,66.1,168.4,65.6,166.1,65.1z"/>
	<path d="M160.2,92.4c-0.8,3.7-1.5,7.3-2.3,11h5.3c1.1-3.2,2.1-6.4,3.2-9.7C164.4,93.2,162.3,92.8,160.2,92.4z"/>
	<path d="M138,10c-0.4,1-0.9,2-1.3,3c0.8,0.1,1.6,0.2,2.4,0.4L138,10z"/>
	<path d="M136.7,13c-2.1,4.6-4.4,9-6.9,13.4c2.1,0.3,4.2,0.6,6.3,0.8c1.5-2.8,3.1-5.6,4.8-8.4l-1.7-5.5
		C138.3,13.3,137.5,13.2,136.7,13z"/>
	<path d="M136,27.3c-2.1-0.3-4.2-0.5-6.3-0.8c-2.6,4.6-5.5,9.1-8.4,13.5c2.6,0.3,5.1,0.6,7.7,0.9C131.3,36.3,133.6,31.7,136,27.3z"/>
	<path d="M129.1,40.9c-2.6-0.3-5.1-0.6-7.7-0.9c-0.4,0.6-0.8,1.2-1.2,1.8c2.5,0.6,5.1,1.1,7.6,1.7C128.3,42.6,128.7,41.7,129.1,40.9z
		"/>
	<path d="M125.5,48.5c0.8-1.7,1.6-3.4,2.3-5.1c-2.5-0.6-5.1-1.1-7.6-1.7c-0.3,0.4-0.5,0.8-0.8,1.2l3.5,9.3
		C123.8,51,124.6,49.7,125.5,48.5z"/>
	<path d="M125.5,48.5c-0.9,1.2-1.7,2.5-2.6,3.7l0.4,1.1C124.1,51.7,124.8,50.1,125.5,48.5z"/>
</svg>
