<?xml version="1.0" encoding="iso-8859-1"?>
<!-- Generator: Adobe Illustrator 16.0.0, SVG Export Plug-In . SVG Version: 6.00 Build 0)  -->
<!DOCTYPE svg PUBLIC "-//W3C//DTD SVG 1.1//EN" "http://www.w3.org/Graphics/SVG/1.1/DTD/svg11.dtd">
<svg version="1.1" id="name" xmlns="http://www.w3.org/2000/svg" xmlns:xlink="http://www.w3.org/1999/xlink" x="0px" y="0px"
	 width="1734px" height="110px" viewBox="0 0 1734 110" style="enable-background:new 0 0 1734 110;" xml:space="preserve">
<path d="M33.9,6.6c3,3.5,5.9,7,8.9,10.5c3.9-0.6,7.9-1.2,11.9-1.7l-2.3-8.8H33.9z"/>
<path d="M48.5,23.7c2.5-1.1,5-2.2,7.5-3.4l-1.3-4.9c-4,0.5-7.9,1.1-11.9,1.7C44.7,19.4,46.6,21.6,48.5,23.7z"/>
<path d="M13.1,37.9c1.5-0.5,3-1.1,4.5-1.7c-1.5-1.5-3-3-4.5-4.4V37.9z"/>
<path d="M13.1,6.6v15.5c9.9-1.8,19.8-3.5,29.7-5c-3-3.5-5.9-7-8.9-10.5H13.1z"/>
<path d="M13.1,31.8c1.5,1.5,3,3,4.5,4.4c10.4-3.8,20.7-8,30.8-12.5c-1.9-2.2-3.7-4.4-5.6-6.6c-9.9,1.5-19.9,3.1-29.7,5V31.8z"/>
<path d="M82.6,6.6l-0.2,0.8c0.5-0.3,1-0.5,1.6-0.8H82.6z"/>
<path d="M37.6,101.1c-0.9,0.8-1.8,1.5-2.8,2.3h2.8V101.1z"/>
<path d="M13.1,103.4h20.7C26.9,96.4,20,89.8,13.1,83.2V103.4z"/>
<path d="M13.1,83.2c6.9,6.6,13.8,13.2,20.7,20.2h1c0.9-0.8,1.8-1.5,2.8-2.3V84.5c-3.2-2.9-6.4-5.8-9.6-8.7
	c-4.9-0.1-9.9-0.1-14.8-0.2V83.2z"/>
<path d="M13.1,72.3v3.3c4.9,0.1,9.9,0.2,14.8,0.2c-2.7-2.3-5.3-4.6-8-6.8C17.7,70.1,15.4,71.2,13.1,72.3z"/>
<path d="M19.9,69c2.7,2.2,5.4,4.5,8,6.8c3.2,0,6.4,0.1,9.6,0.1V60.3C31.7,63.2,25.8,66.1,19.9,69z"/>
<path d="M37.6,84.5v-8.5c-3.2,0-6.4-0.1-9.6-0.1C31.2,78.6,34.4,81.5,37.6,84.5z"/>
<path d="M101.4,40.8c1.7,1.4,3.4,2.8,5.2,4.3c3.6-5.7,7-11.4,10.3-17.1c-0.6-0.5-1.1-1-1.7-1.5C110.6,31.2,106,36,101.4,40.8z"/>
<path d="M97.4,60.8c2.3-4.3,4.8-8.7,7.4-13c-2.5,0-4.9,0-7.4,0V60.8z"/>
<path d="M97.4,44.8v3.1c2.5,0,4.9,0,7.4,0c0.1-0.1,0.1-0.2,0.2-0.3c0.5-0.8,1-1.7,1.5-2.5c-1.7-1.4-3.4-2.8-5.2-4.3
	C100.1,42.1,98.8,43.5,97.4,44.8z"/>
<path d="M116.8,27.9c1.6-2.8,3.2-5.6,4.8-8.4c-2.2,2.3-4.3,4.6-6.5,6.9C115.7,26.9,116.3,27.4,116.8,27.9z"/>
<path d="M106.5,45c1.1,0.9,2.3,1.8,3.4,2.8c4,0,8-0.1,12-0.1V32.3c-1.7-1.5-3.4-3-5.1-4.5C113.5,33.6,110.1,39.3,106.5,45z"/>
<path d="M121.9,57.5v-9.8c-4,0-8,0.1-12,0.1C113.9,51,117.9,54.3,121.9,57.5z"/>
<path d="M97.4,81.8v21.6h16.8C108.7,96,103.1,88.8,97.4,81.8z"/>
<path d="M105,47.5c-0.1,0.1-0.1,0.2-0.2,0.3c1.7,0,3.4,0,5.1,0c-1.1-0.9-2.3-1.8-3.4-2.8C106,45.8,105.5,46.7,105,47.5z"/>
<path d="M97.4,81.8c5.7,7.1,11.3,14.3,16.8,21.6h7.7V76.5c-8.2,0-16.3-0.1-24.5-0.1V81.8z"/>
<path d="M109.9,47.8c-1.7,0-3.4,0-5.1,0c-2.6,4.3-5,8.6-7.4,13v15.5c8.2,0,16.3,0.1,24.5,0.1v-19C117.9,54.3,113.9,51,109.9,47.8z"
	/>
<path d="M116.8,27.9c1.7,1.5,3.4,3,5.1,4.5V19.2c-0.1,0.1-0.2,0.2-0.2,0.3C120.1,22.3,118.5,25.1,116.8,27.9z"/>
<path d="M115.2,26.4c2.2-2.3,4.4-4.6,6.5-6.9c0.1-0.1,0.2-0.3,0.2-0.4v-0.4c-3.4,1.6-6.7,3.3-10.1,4.9
	C113,24.6,114.1,25.5,115.2,26.4z"/>
<path d="M97.4,30.7v6.8c1.3,1.1,2.6,2.2,3.9,3.3c4.6-4.8,9.2-9.5,13.8-14.3c-1.1-0.9-2.2-1.9-3.3-2.8C107.1,26,102.2,28.3,97.4,30.7
	z"/>
<path d="M97.4,44.8c1.3-1.3,2.6-2.7,3.9-4c-1.3-1.1-2.6-2.2-3.9-3.3V44.8z"/>
<path d="M121.9,19.2v-0.2c-0.1,0.1-0.2,0.3-0.2,0.4C121.8,19.4,121.8,19.3,121.9,19.2z"/>
<path d="M78.7,21.9c4.5,3.8,9,7.6,13.6,11.4c1.6-0.8,3.2-1.6,4.8-2.4l0.3-1.3v1.1c4.8-2.4,9.6-4.7,14.4-7.1
	c-5.3-4.4-10.8-8.7-16.5-12.9c-4.7,0.5-9.5,1-14.2,1.5L78.7,21.9z"/>
<path d="M84,6.6c-0.5,0.3-1,0.5-1.6,0.8l-1.2,4.8c4.7-0.5,9.5-1,14.2-1.5c-1.9-1.4-3.8-2.8-5.8-4.1H84z"/>
<path d="M73.5,42.5c6.3-3.1,12.6-6.2,18.9-9.3c-4.5-3.8-9-7.6-13.6-11.4L73.5,42.5z"/>
<path d="M111.9,23.6c3.4-1.6,6.7-3.3,10.1-4.9V8.5c-8.9,0.7-17.7,1.4-26.5,2.2C101.1,14.9,106.5,19.2,111.9,23.6z"/>
<path d="M89.6,6.6c1.9,1.4,3.9,2.7,5.8,4.1c8.8-0.8,17.7-1.6,26.5-2.2V6.6H89.6z"/>
<path d="M48.5,23.7c4,4.7,8,9.3,12,13.9L56,20.4C53.5,21.5,51,22.6,48.5,23.7z"/>
<path d="M13.1,63.5v8.8c2.3-1.1,4.5-2.2,6.8-3.3C17.7,67.1,15.4,65.3,13.1,63.5z"/>
<path d="M13.1,63.5c2.3,1.8,4.5,3.6,6.8,5.5c5.9-2.9,11.8-5.8,17.7-8.7v-4.9c-2.6-2.4-5.1-4.8-7.7-7.3c-5.6,0-11.2,0-16.8,0V63.5z"
	/>
<path d="M13.1,37.9v10.3c5.6,0,11.2,0,16.8,0c-4.1-3.9-8.2-7.9-12.3-11.9C16.2,36.8,14.7,37.4,13.1,37.9z"/>
<path d="M44.6,56.8c5.9-2.9,11.9-5.9,17.8-8.8c-6.7,0-13.4,0-20,0.1L44.6,56.8z"/>
<path d="M37.6,55.4v-7.3c-2.6,0-5.1,0-7.7,0C32.5,50.6,35,53,37.6,55.4z"/>
<path d="M48.5,23.7C38.3,28.3,28,32.5,17.7,36.3c4.1,4,8.2,7.9,12.3,11.9c2.6,0,5.1,0,7.7,0V29.6l4.7,18.5c6.7,0,13.4,0,20-0.1
	c0.2-0.1,0.4-0.2,0.6-0.3l-2.6-10C56.4,33.1,52.5,28.4,48.5,23.7z"/>
<path d="M95.8,36.1l1.3-5.3c-1.6,0.8-3.2,1.6-4.8,2.4C93.5,34.2,94.6,35.2,95.8,36.1z"/>
<path d="M73.5,42.5L72.1,48c6.9,0,13.8-0.1,20.7-0.1l3-11.8c-1.2-1-2.3-1.9-3.5-2.9C86,36.3,79.7,39.4,73.5,42.5z"/>
<path d="M71.4,50.5c3.1,3.6,6.1,7.2,9.2,10.9c3.9-3.7,7.8-7.5,11.6-11.3l0.6-2.2C85.9,47.9,79,48,72.1,48L71.4,50.5z"/>
<path d="M52.4,87.6c3.2-3.1,6.4-6.1,9.6-9.1c0.2-0.2,0.5-0.4,0.7-0.6c-0.7-0.6-1.3-1.2-2-1.7c-3.7,0-7.5-0.1-11.2-0.1L52.4,87.6z"/>
<path d="M49.5,76.1c3.7,0,7.5,0.1,11.2,0.1c-4.9-4.2-9.7-8.5-14.5-12.8L49.5,76.1z"/>
<path d="M62.7,77.9c0.6-0.6,1.3-1.1,1.9-1.7c-1.3,0-2.6,0-3.9,0C61.4,76.7,62,77.3,62.7,77.9z"/>
<path d="M71.4,50.5l-3.8,15L63.1,48c-0.2,0-0.5,0-0.7,0c-5.9,2.9-11.9,5.9-17.8,8.8l1.7,6.5c4.7,4.3,9.6,8.6,14.5,12.8
	c1.3,0,2.6,0,3.9,0c5.5-4.9,10.8-9.8,16-14.8C77.6,57.7,74.5,54.1,71.4,50.5z"/>
<path d="M62.4,48c0.2,0,0.5,0,0.7,0L63,47.7C62.8,47.8,62.6,47.9,62.4,48z"/>
<path d="M80.9,94.2C80.9,94.2,80.9,94.1,80.9,94.2c-1.6,3-3.1,6.1-4.6,9.2h2.3L80.9,94.2z"/>
<path d="M81,93.9c0,0.1-0.1,0.2-0.1,0.3c0,0,0,0,0.1,0L81,93.9z"/>
<path d="M87.3,69.3l4.9-19.2c-3.8,3.8-7.7,7.5-11.6,11.3C82.9,64,85.1,66.7,87.3,69.3z"/>
<path d="M62.7,77.9c-0.2,0.2-0.5,0.4-0.7,0.6c-3.2,3-6.4,6.1-9.6,9.1l3.8,14.9c0.3,0.3,0.5,0.5,0.8,0.8h19.3
	c1.5-3.1,3.1-6.1,4.6-9.2c-4.7-4.4-9.3-8.8-13.9-12.6C65.6,80.3,64.1,79.1,62.7,77.9z"/>
<path d="M57,103.4c-0.3-0.3-0.5-0.5-0.8-0.8l0.2,0.8H57z"/>
<path d="M62.7,77.9c1.4,1.2,2.9,2.4,4.3,3.6c4.6,3.9,9.2,8.3,13.9,12.6c0-0.1,0.1-0.2,0.1-0.3l4.5-17.6c-7,0-13.9-0.1-20.9-0.1
	C64,76.7,63.3,77.3,62.7,77.9z"/>
<path d="M80.6,61.4c-5.2,5-10.6,9.9-16,14.8c7,0,13.9,0.1,20.9,0.1l1.8-7C85.1,66.7,82.9,64,80.6,61.4z"/>
<path d="M190,52.8c5.7,5.4,11.2,10.9,16.6,16.5c4-4.6,7.9-9.3,11.9-13.9l-0.4-1.1c-2.2-2.8-4.4-5.6-6.5-8.3
	c-7.8,0.2-15.7,0.4-23.5,0.6L190,52.8z"/>
<path d="M185.5,37.9l2.7,8.8c7.8-0.2,15.7-0.4,23.5-0.6c-5.7-7.3-11.3-14.6-17-21.8C191.6,28.8,188.5,33.4,185.5,37.9z"/>
<path d="M153.6,81.8c4,2.9,8,5.8,12,8.6l0.9-3h10.1c-3.3-3.5-6.6-7-9.9-10.5c-2.9,0-5.8-0.1-8.7-0.1
	C156.6,78.5,155.1,80.1,153.6,81.8z"/>
<path d="M158,76.8c2.9,0,5.8,0.1,8.7,0.1c-1.6-1.7-3.1-3.3-4.7-4.9C160.8,73.6,159.4,75.2,158,76.8z"/>
<path d="M153.6,81.8c-7.1,7.7-14.6,14.8-22.2,21.6h30.5l3.8-13C161.6,87.5,157.6,84.7,153.6,81.8z"/>
<path d="M190,52.8l4.2,13.6H173l5.4-17.9c-2.8,4.3-5.6,8.6-8.4,12.9c-2.5,3.6-5.2,7.1-7.9,10.5c1.6,1.6,3.1,3.3,4.7,4.9
	c10.9,0.2,21.9,0.4,32.8,0.7c2.4-2.7,4.7-5.5,7.1-8.2C201.3,63.8,195.7,58.2,190,52.8z"/>
<path d="M176.6,87.4h14.2c3-3.2,5.9-6.5,8.7-9.8c-11-0.3-21.9-0.5-32.8-0.7C170.1,80.4,173.3,83.9,176.6,87.4z"/>
<path d="M218.2,54.5L215,46c-1.1,0-2.2,0.1-3.4,0.1C213.8,48.9,216,51.7,218.2,54.5z"/>
<path d="M194.6,24.3c5.7,7.2,11.3,14.5,17,21.8c1.1,0,2.2-0.1,3.4-0.1l-12.5-33.3C199.9,16.6,197.3,20.4,194.6,24.3z"/>
<path d="M236.6,103.4l-4.8-12.8c-1.1,1-2.3,2-3.5,3c2.7,3.2,5.3,6.5,7.8,9.8H236.6z"/>
<path d="M228.3,93.5c-3.9,3.3-7.7,6.6-11.7,9.8h19.6C233.6,100,231,96.8,228.3,93.5z"/>
<path d="M214.8,78.1c4.6,5.1,9.1,10.2,13.5,15.5c1.1-1,2.3-2,3.5-3l-4.5-12.1c-0.1,0-0.1,0-0.2,0C222.9,78.3,218.9,78.2,214.8,78.1z
	"/>
<path d="M206.7,69.4c2.7,2.9,5.4,5.7,8.1,8.7c4.1,0.1,8.1,0.3,12.2,0.4c0.1,0,0.1,0,0.2,0l-8.6-23C214.6,60.1,210.6,64.8,206.7,69.4
	z"/>
<path d="M190.9,87.4h9.6l4.8,16h11.3c4-3.2,7.9-6.5,11.7-9.8c-4.4-5.3-8.9-10.4-13.5-15.5c-5.1-0.2-10.1-0.3-15.2-0.5
	C196.7,80.9,193.8,84.2,190.9,87.4z"/>
<path d="M199.6,77.6c5.1,0.1,10.1,0.3,15.2,0.5c-2.7-2.9-5.4-5.8-8.1-8.7C204.3,72.1,202,74.9,199.6,77.6z"/>
<path d="M153.6,81.8c1.5-1.6,3-3.3,4.5-5c-3.8,0-7.5-0.1-11.3-0.1C149,78.4,151.3,80.1,153.6,81.8z"/>
<path d="M148.4,57.8l-5.9,15.7c1.4,1.1,2.8,2.1,4.2,3.1c3.8,0,7.5,0.1,11.3,0.1c1.4-1.6,2.7-3.2,4.1-4.8
	C157.6,67.2,153,62.4,148.4,57.8z"/>
<path d="M131.3,103.4L131.3,103.4c7.7-6.8,15.2-13.9,22.3-21.6c-2.3-1.7-4.6-3.4-6.9-5.1c-1.8,0-3.6,0-5.4-0.1L131.3,103.4z"/>
<path d="M141.3,76.6c1.8,0,3.6,0,5.4,0.1c-1.4-1.1-2.8-2.1-4.2-3.1L141.3,76.6z"/>
<path d="M170,61.5c2.8-4.4,5.6-8.7,8.4-12.9l0.5-1.7c-8.9,0.2-17.7,0.3-26.6,0.4l-3.9,10.4c4.6,4.7,9.1,9.4,13.7,14.2
	C164.8,68.6,167.5,65.1,170,61.5z"/>
<path d="M152.3,47.3c8.9-0.1,17.7-0.3,26.6-0.4l1-3.4c-6.4-5.9-13-11.6-19.7-17.3L152.3,47.3z"/>
<path d="M167.6,6.6l-7.3,19.5c6.7,5.7,13.2,11.4,19.7,17.3l3.6-11.7l1.9,6.2c3.1-4.6,6.1-9.1,9.2-13.6c-4.7-5.9-9.4-11.8-14.1-17.7
	H167.6z"/>
<path d="M180.5,6.6c4.8,5.9,9.5,11.8,14.1,17.7c2.6-3.9,5.3-7.8,7.9-11.6l-2.3-6.1H180.5z"/>
<path d="M246.1,16.1c1.4,2.1,2.8,4.3,4.1,6.4c0.9-0.9,1.9-1.8,2.8-2.7c-2.3-2.9-4.6-5.7-6.9-8.6V16.1z"/>
<path d="M246.1,26.4c0.1-0.1,0.2-0.2,0.3-0.3c-0.1-0.2-0.2-0.5-0.3-0.7V26.4z"/>
<path d="M246.1,25.4c0.1,0.2,0.2,0.5,0.3,0.7c1.3-1.2,2.5-2.4,3.8-3.6c-1.4-2.2-2.7-4.3-4.1-6.4V25.4z"/>
<path d="M246.1,11.3c2.3,2.9,4.6,5.7,6.9,8.6c4.5-4.3,9-8.7,13.2-13.2h-20.2V11.3z"/>
<path d="M275.8,47.4c0,0,0.1-0.1,0.1-0.1v-3.6c-1,0-2,0.1-3.1,0.1C273.9,45,274.8,46.2,275.8,47.4z"/>
<path d="M253,19.8c6.6,8,13.2,16,19.9,24c1,0,2-0.1,3.1-0.1v-37h-9.7C262,11.2,257.5,15.5,253,19.8z"/>
<path d="M269.2,54.4c2.2-2.3,4.4-4.7,6.6-7.1c-1-1.2-2-2.4-2.9-3.5c-3.2,0.2-6.4,0.3-9.5,0.4C265.3,47.7,267.3,51,269.2,54.4z"/>
<path d="M250.2,22.5c4.5,7.2,8.9,14.4,13.2,21.8c3.2-0.1,6.4-0.3,9.5-0.4c-6.7-8-13.3-16-19.9-24C252.1,20.7,251.1,21.6,250.2,22.5z
	"/>
<path d="M262.6,61.3c-2.4-5.6-4.9-11.2-7.4-16.7c-3,0.1-6,0.2-9.1,0.4v32.6C251.7,72.3,257.2,66.8,262.6,61.3z"/>
<path d="M246.1,26.4V45c3-0.1,6-0.2,9.1-0.4c-2.8-6.2-5.8-12.4-8.7-18.5C246.3,26.2,246.2,26.3,246.1,26.4z"/>
<path d="M262.6,61.3c2.2-2.3,4.5-4.6,6.7-6.9c-1.9-3.4-3.9-6.8-5.9-10.1c-2.7,0.1-5.5,0.2-8.2,0.4C257.7,50.2,260.2,55.7,262.6,61.3
	z"/>
<path d="M246.4,26.1c3,6.1,5.9,12.3,8.7,18.5c2.7-0.1,5.5-0.2,8.2-0.4c-4.3-7.3-8.7-14.6-13.2-21.8
	C248.9,23.7,247.7,24.9,246.4,26.1z"/>
<path d="M275.9,47.5v-0.2c0,0-0.1,0.1-0.1,0.1C275.9,47.4,275.9,47.5,275.9,47.5z"/>
<path d="M269.2,54.4c2.2,3.9,4.5,7.9,6.7,11.8V47.5c0,0-0.1-0.1-0.1-0.1C273.7,49.7,271.4,52.1,269.2,54.4z"/>
<path d="M253.6,97.4c-2.1-2.7-4.3-5.3-6.6-7.9c-0.3-0.4-0.6-0.7-0.9-1.1v14.9h1.9C249.8,101.4,251.7,99.4,253.6,97.4z"/>
<path d="M246.1,88.4c0.3,0.4,0.6,0.7,0.9,1.1c2.3,2.6,4.4,5.3,6.6,7.9c5.5-5.8,10.9-11.8,16.3-17.8c-7.9-0.2-15.9-0.4-23.8-0.6V88.4
	z"/>
<path d="M262.6,61.3c-5.4,5.5-10.9,10.9-16.5,16.2v1.5c7.9,0.2,15.9,0.4,23.8,0.6c0.1-0.1,0.1-0.2,0.2-0.2
	C267.7,73.4,265.2,67.3,262.6,61.3z"/>
<path d="M275.9,72.7v-6.5c-2.2-3.9-4.5-7.9-6.7-11.8c-2.2,2.3-4.4,4.6-6.7,6.9c2.6,6,5.1,12,7.5,18.1C272,77.2,274,75,275.9,72.7z"
	/>
<path d="M303.2,79.5c0.2,0.2,0.4,0.5,0.6,0.7c6.2,0.1,12.5,0.2,18.7,0.3v-1H303.2z"/>
<path d="M322.6,102.1V80.5c-6.2-0.1-12.5-0.2-18.7-0.3C310.1,87.6,316.3,94.8,322.6,102.1z"/>
<path d="M292.1,94.8c-1.5,2.9-3,5.7-4.5,8.6h9.5C295.4,100.5,293.7,97.6,292.1,94.8z"/>
<path d="M292.1,94.8c1.6,2.9,3.3,5.7,5,8.6h25.6v-1.2c-6.2-7.3-12.5-14.5-18.7-21.8c-1.4,0-2.8,0-4.2-0.1
	C297.1,85.1,294.6,89.9,292.1,94.8z"/>
<path d="M299.9,79.5c-0.1,0.2-0.2,0.5-0.3,0.7c1.4,0,2.8,0,4.2,0.1c-0.2-0.2-0.4-0.5-0.6-0.7H299.9z"/>
<path d="M253.6,97.4c-1.9,2-3.8,4-5.7,5.9h10.4C256.7,101.4,255.2,99.4,253.6,97.4z"/>
<path d="M253.6,97.4c1.6,2,3.2,4,4.7,5.9H279c-2.8-8-5.7-15.9-8.8-23.7c-0.1,0-0.2,0-0.3,0C264.5,85.7,259.1,91.6,253.6,97.4z"/>
<path d="M269.9,79.6c0.1,0,0.2,0,0.3,0c0-0.1-0.1-0.2-0.1-0.2C270,79.5,269.9,79.6,269.9,79.6z"/>
<path d="M279,103.4h8.6c1.5-2.9,3-5.7,4.5-8.6c-2.8-4.9-5.6-9.9-8.4-14.8c-4.5-0.1-9-0.2-13.5-0.3C273.3,87.5,276.2,95.4,279,103.4z
	"/>
<path d="M275.9,79.5v-6.8c-1.9,2.2-3.9,4.5-5.9,6.7c0,0.1,0.1,0.2,0.1,0.2c4.5,0.1,9,0.2,13.5,0.3c-0.1-0.1-0.1-0.3-0.2-0.4H275.9z"
	/>
<path d="M292.1,94.8c2.5-4.8,5-9.7,7.5-14.6c-5.3-0.1-10.6-0.2-15.9-0.3C286.4,84.9,289.2,89.8,292.1,94.8z"/>
<path d="M283.4,79.5c0.1,0.1,0.1,0.3,0.2,0.4c5.3,0.1,10.6,0.2,15.9,0.3c0.1-0.2,0.2-0.5,0.3-0.7H283.4z"/>
<path d="M337.6,84.3c0.7,1.2,1.5,2.3,2.3,3.4c1-2.3,1.9-4.6,2.9-6.9c-2.4,0-4.8,0-7.2-0.1C336.2,81.9,336.9,83.2,337.6,84.3z"/>
<path d="M331.7,40.6c-0.9,4.3-1.3,9.1-1.3,14.2c0,10.2,1.8,18.8,5.3,25.9c2.4,0,4.8,0,7.2,0.1c1.9-4.6,3.7-9.2,5.4-13.9
	c-5.6-8.6-10.9-17.4-16.1-26.3C331.9,40.6,331.8,40.6,331.7,40.6z"/>
<path d="M331.7,40.6c0.1,0,0.3,0,0.4,0c-0.1-0.2-0.2-0.3-0.3-0.5C331.7,40.3,331.7,40.4,331.7,40.6z"/>
<path d="M358.7,28.8c1.1-6,1.9-12.1,2.3-18.3c0.1-1,0.1-2.1,0.2-3.1c-5.5,1.6-10.4,4.1-14.5,7.4C350.7,19.4,354.7,24.1,358.7,28.8z"
	/>
<path d="M348.1,66.9c3.2-8.9,6-17.9,8.2-27.1c-8.1,0.2-16.2,0.5-24.3,0.8C337.3,49.5,342.6,58.2,348.1,66.9z"/>
<path d="M343.1,17.9c-5.7,5.7-9.5,13.2-11.4,22.2c0.1,0.2,0.2,0.3,0.3,0.5c8.1-0.4,16.2-0.6,24.3-0.8c0.9-3.6,1.7-7.3,2.3-11
	c-4-4.7-8-9.4-12-14.1C345.4,15.7,344.2,16.8,343.1,17.9z"/>
<path d="M394.5,34.9c0.7,1,1.4,2.5,2,4.3c3,0,6,0,8.9-0.1l3.2-0.7c-4.2-4.7-8.4-9.5-12.5-14.3C395.6,27.7,395.1,31.3,394.5,34.9z"/>
<path d="M397.1,40.9l8.3-1.9c-3,0-6,0-8.9,0.1C396.7,39.7,396.9,40.3,397.1,40.9z"/>
<path d="M408,12.4c-2.8-1.9-5.9-3.5-9.5-4.7c-0.7,5.5-1.5,10.9-2.3,16.4c4.1,4.8,8.3,9.6,12.5,14.3l14.8-3.3
	C420.1,24.9,414.9,17.3,408,12.4z"/>
<path d="M362.8,88.7c-2.1,4.2-4.2,8.3-6.4,12.4c5.1,2.1,11.2,3.3,18.2,3.7C370.6,99.5,366.7,94.1,362.8,88.7z"/>
<path d="M362.8,88.7c3.8,5.4,7.8,10.8,11.9,16.1c1.7,0.1,3.4,0.2,5.2,0.2c2-7.7,3.8-15.5,5.6-23.3c-1.9,0.6-4.1,0.9-6.5,0.9
	c-3,0-5.7-0.5-8-1.6c-1.4,0-2.9,0-4.3,0C365.3,83.5,364.1,86.1,362.8,88.7z"/>
<path d="M366.6,80.9c1.4,0,2.9,0,4.3,0c-1.2-0.5-2.3-1.2-3.4-2.1C367.2,79.6,366.9,80.3,366.6,80.9z"/>
<path d="M388,29.2c0,0,0.1,0,0.1,0.1c2.4,1.2,4.5,3,6.1,5.3c0.1,0.1,0.2,0.3,0.3,0.4c0.6-3.6,1.1-7.2,1.7-10.8
	c-1.5-1.8-3.1-3.6-4.6-5.4C390.4,22.2,389.2,25.7,388,29.2z"/>
<path d="M391.6,18.7c1.5,1.8,3.1,3.6,4.6,5.4c0.8-5.4,1.6-10.9,2.3-16.4c-1-0.3-2-0.6-3-0.9C394.2,10.8,392.9,14.8,391.6,18.7z"/>
<path d="M339.9,87.7c4.3,5.9,9.3,10.2,14.9,12.7c0.5,0.2,1,0.4,1.6,0.7c2.2-4.1,4.3-8.2,6.4-12.4c-1.8-2.6-3.6-5.2-5.4-7.8
	c-4.9,0-9.8-0.1-14.6-0.1C341.8,83.1,340.9,85.4,339.9,87.7z"/>
<path d="M342.8,80.8c4.9,0,9.8,0.1,14.6,0.1c-3.2-4.6-6.3-9.3-9.3-14C346.5,71.5,344.7,76.2,342.8,80.8z"/>
<path d="M379.2,5c-6.6,0-12.7,0.8-18,2.4c-0.1,1-0.2,2.1-0.2,3.1c-0.4,6.2-1.2,12.3-2.3,18.3c1.9,2.2,3.8,4.5,5.7,6.8c0,0,0,0,0,0
	c3.6-5.4,8.8-8.2,15.6-8.2c2.9,0,5.6,0.6,8,1.8c1.2-3.5,2.4-6.9,3.6-10.4c-3.9-4.6-7.8-9.1-11.7-13.7C379.6,5,379.4,5,379.2,5z"/>
<path d="M362.8,88.7c1.3-2.6,2.5-5.1,3.8-7.7c-3,0-6.1,0-9.1-0.1C359.2,83.5,361,86.1,362.8,88.7z"/>
<path d="M365.2,76.6c-3.3-4-4.9-11.3-4.9-22c0-6.2,0.7-11.1,2.1-14.9c-2,0-4,0.1-6,0.1c-2.2,9.2-5,18.2-8.2,27.1
	c3,4.7,6.1,9.4,9.3,14c3,0,6.1,0,9.1,0.1c0.3-0.7,0.6-1.3,1-2C366.7,78.2,365.9,77.5,365.2,76.6z"/>
<path d="M356.4,39.8c2-0.1,4-0.1,6-0.1c0.6-1.5,1.2-2.9,2-4.1c-1.9-2.3-3.8-4.5-5.7-6.8C358,32.5,357.2,36.1,356.4,39.8z"/>
<path d="M391.6,18.7c1.3-3.9,2.6-7.9,3.9-11.9c-4.6-1.2-9.8-1.8-15.7-1.8C383.8,9.6,387.7,14.1,391.6,18.7z"/>
<path d="M385.4,81.7c-1.7,7.8-3.6,15.6-5.6,23.3c0.3,0,0.5,0,0.8,0c8.7,0,15.8-1.3,21.4-3.8c3.5-1.6,6.7-3.6,9.5-6.2
	c-3.5-4.7-7-9.3-10.6-14c-4.6,0-9.2,0-13.8,0C386.6,81.3,386,81.5,385.4,81.7z"/>
<path d="M391.9,77.8c-1.3,1.4-2.9,2.5-4.7,3.3c4.6,0,9.2,0,13.8,0c-2-2.6-4-5.2-6-7.8C394,75,393,76.5,391.9,77.8z"/>
<path d="M398.2,63.8c-0.8,3.7-1.9,6.9-3.3,9.5c2,2.6,4,5.2,6,7.8c6.8,0,13.6,0,20.4,0c1.2-2.9,2.3-6,3.1-9.4L398.2,63.8z"/>
<path d="M401,81.1c3.6,4.6,7.1,9.3,10.6,14c1.6-1.5,3.2-3.1,4.6-5c2-2.7,3.8-5.7,5.2-9C414.5,81.1,407.8,81.1,401,81.1z"/>
<path d="M451,15.8c4.8,1.9,9.8,3.5,15,4.7c2.5,0.6,5.1,1.3,7.6,1.9c2.2-5.3,4.3-10.6,6.4-15.9c-2.8-0.1-5.6-0.2-8.3-0.3
	C463.5,7.9,456.6,11.1,451,15.8z"/>
<path d="M471.6,6.3c2.8,0.1,5.6,0.2,8.3,0.3c0.2-0.5,0.4-0.9,0.5-1.4C477.4,5.3,474.4,5.7,471.6,6.3z"/>
<path d="M441.8,83.3c0,0.1,0.1,0.1,0.1,0.2c0.5-0.8,1-1.6,1.5-2.4c-1,0-1.9,0-2.9,0C441,81.8,441.4,82.6,441.8,83.3z"/>
<path d="M436.1,66.7c0.9,5.3,2.4,10.1,4.5,14.3c1,0,1.9,0,2.9,0c1-1.7,2-3.3,3-5C442.9,73,439.5,69.9,436.1,66.7z"/>
<path d="M437,38.8c-1.2,4.9-1.9,10.3-1.9,16.2c0,4.1,0.3,8,0.9,11.7c3.4,3.2,6.8,6.3,10.4,9.3c7.3-12.2,14-24.8,20-37.7
	c-2.5,0.1-5,0.1-7.5,0.2C451.7,38.7,444.4,38.8,437,38.8z"/>
<path d="M437,38.8c7.3-0.1,14.6-0.2,22-0.3c2.5-0.1,5-0.1,7.5-0.2c0.2-0.4,0.4-0.7,0.5-1.1c-6.7-5.9-13.3-11.8-19.9-17.7
	C442.3,24.8,438.9,31.2,437,38.8z"/>
<path d="M451,15.8c-0.9,0.8-1.8,1.5-2.6,2.4c-0.4,0.4-0.9,0.9-1.3,1.3c6.6,5.9,13.3,11.8,19.9,17.7c2.3-4.9,4.5-9.8,6.5-14.8
	c-2.5-0.6-5-1.3-7.6-1.9C460.8,19.3,455.8,17.7,451,15.8z"/>
<path d="M505.4,51.1c1-4.5,1.9-9.1,2.8-13.7c-1.9,0-3.9,0.1-5.8,0.1C504.2,41.1,505.2,45.6,505.4,51.1z"/>
<path d="M467,37.2c0.3,0.3,0.6,0.6,1,0.8c0.7-1.5,1.6-2.9,2.5-4c3.6-4.3,8.5-6.4,14.5-6.4c6.3,0,11.3,2.1,14.9,6.3
	c0.9,1,1.7,2.3,2.4,3.6c1.9,0,3.9-0.1,5.8-0.1c0.3-1.7,0.6-3.5,0.9-5.2c-11.6-3.4-23.4-6.7-35.5-9.8C471.5,27.4,469.3,32.3,467,37.2
	z"/>
<path d="M470.5,76.2c-3.6-4.3-5.4-11.3-5.4-21c0-7.1,1-12.7,2.8-16.9c-0.5,0-0.9,0-1.4,0c-6,12.9-12.7,25.5-20,37.7
	c0.2,0.1,0.3,0.3,0.5,0.4c1.8,1.5,3.6,3,5.4,4.5c8.1,0,16.1-0.1,24.2-0.1C474.3,79.8,472.2,78.3,470.5,76.2z"/>
<path d="M494.5,80.8c0.8,0,1.5,0,2.3,0c0.2-0.6,0.4-1.1,0.6-1.7C496.5,79.7,495.5,80.3,494.5,80.8z"/>
<path d="M485.3,82.6c-3.3,0-6.1-0.6-8.7-1.7c-8.1,0-16.1,0.1-24.2,0.1c9.4,7.9,18.5,15.8,27.4,23.8c2,0.1,4.1,0.2,6.2,0.2
	c4.1-7.9,7.6-16,10.7-24.2c-0.8,0-1.5,0-2.3,0C491.8,82,488.8,82.6,485.3,82.6z"/>
<path d="M466.5,38.3c0.5,0,0.9,0,1.4,0c0-0.1,0.1-0.2,0.1-0.2c-0.3-0.3-0.6-0.6-1-0.8C466.9,37.6,466.7,37.9,466.5,38.3z"/>
<path d="M441.9,83.5c4.4,7.4,10.2,12.9,17.3,16.3c5.7,2.8,12.6,4.4,20.6,5c-8.9-7.9-18-15.9-27.4-23.8c-3,0-6,0-9,0
	C443,81.8,442.5,82.7,441.9,83.5z"/>
<path d="M446.5,76.1c-1,1.7-2,3.3-3,5c3,0,6,0,9,0c-1.8-1.5-3.6-3-5.4-4.5C446.8,76.4,446.7,76.2,446.5,76.1z"/>
<path d="M480,6.5c-2,5.3-4.1,10.6-6.4,15.9c12.1,3.1,23.9,6.4,35.5,9.8c1.2-7.2,2.1-14.4,2.9-21.6c-2.5-1.2-5.1-2.2-7.9-3.1
	c0,0,0,0-0.1,0C496,7.1,488,6.8,480,6.5z"/>
<path d="M480.5,5.1c-0.2,0.5-0.4,0.9-0.5,1.4c8,0.3,16,0.6,24,1c0,0,0,0,0.1,0c-5.6-1.7-11.9-2.5-19-2.5C483.5,5,482,5.1,480.5,5.1z
	"/>
<path d="M486.1,105c0.1,0,0.2,0,0.2,0c10.7,0,19.7-2,26.9-6c3.1-1.7,5.9-3.8,8.4-6.2c-0.1-3-0.3-6.1-0.5-9.1c-1.2-1-2.4-2-3.6-3.1
	c-6.9,0.1-13.8,0.1-20.7,0.2C493.7,89,490.2,97.1,486.1,105z"/>
<path d="M500.2,76.4c-0.9,1-1.8,1.9-2.9,2.7c-0.2,0.6-0.4,1.1-0.6,1.7c6.9,0,13.8-0.1,20.7-0.2c-4.6-3.9-9.1-7.7-13.7-11.6
	C502.9,72.1,501.7,74.6,500.2,76.4z"/>
<path d="M508.2,37.4c-0.8,4.6-1.7,9.2-2.8,13.7c0,0.9,0.1,1.8,0.1,2.7c0,6.1-0.6,11.2-1.7,15.2c4.5,3.9,9.1,7.7,13.7,11.6
	c1.1,0,2.3,0,3.4,0c-0.9-14.3-2.3-28.7-4.1-43.3C513.9,37.4,511.1,37.4,508.2,37.4z"/>
<path d="M521.1,83.7c-0.1-1-0.1-2.1-0.2-3.1c-1.1,0-2.3,0-3.4,0C518.7,81.6,519.9,82.7,521.1,83.7z"/>
<path d="M509.1,32.2c-0.3,1.7-0.6,3.5-0.9,5.2c2.9,0,5.7-0.1,8.6-0.1c-0.1-1-0.2-2-0.4-3C514,33.6,511.5,32.9,509.1,32.2z"/>
<path d="M512.9,11.1c-0.3-0.2-0.6-0.4-1-0.5c-0.8,7.3-1.7,14.5-2.9,21.6c2.4,0.7,4.9,1.4,7.3,2.1c-0.7-5.6-1.5-11.2-2.4-16.9
	C513.7,15.4,513.3,13.2,512.9,11.1z"/>
<path d="M525.9,37.2c2.6,0.8,5.3,1.6,7.9,2.4c-0.2-0.8-0.4-1.7-0.6-2.5C530.8,37.2,528.4,37.2,525.9,37.2z"/>
<path d="M512.9,11.1c0.4,2.1,0.7,4.3,1.1,6.4c0.9,5.6,1.6,11.3,2.4,16.9c3.2,0.9,6.4,1.9,9.5,2.9c2.4,0,4.9-0.1,7.3-0.1
	c-2.1-7.6-5.7-14-10.9-19.2C519.6,15.2,516.4,13,512.9,11.1z"/>
<path d="M526,87.8c-1.6-1.4-3.3-2.8-4.9-4.1c0.2,3,0.3,6.1,0.5,9.1C523.2,91.3,524.7,89.6,526,87.8z"/>
<path d="M521.1,83.7c1.6,1.4,3.3,2.8,4.9,4.1c1.4-1.8,2.6-3.7,3.6-5.7c0.3-0.5,0.5-1,0.7-1.6c-3.2,0-6.3,0.1-9.5,0.1
	C521,81.6,521,82.6,521.1,83.7z"/>
<path d="M525.9,37.2c-3.1,0-6.1,0.1-9.2,0.1c1.8,14.5,3.3,28.9,4.1,43.3c3.2,0,6.3-0.1,9.5-0.1c3.3-7,5-15.7,5-26.2
	c0-5.3-0.5-10.2-1.5-14.7C531.2,38.8,528.6,38,525.9,37.2z"/>
<path d="M516.8,37.3c3.1,0,6.1-0.1,9.2-0.1c-3.2-1-6.4-1.9-9.5-2.9C516.5,35.3,516.6,36.3,516.8,37.3z"/>
<path d="M551.5,103.4h6.3c0.5-7.7,1.2-15.4,1.9-23.1c-2.7,0-5.5,0-8.2,0.1V103.4z"/>
<path d="M562.6,48.5c-3.7-1.2-7.4-2.3-11.1-3.4v35.3c2.7,0,5.5,0,8.2-0.1c1-10.4,2.2-20.8,3.5-31.2C563,48.9,562.8,48.7,562.6,48.5z
	"/>
<path d="M563.2,49.1c0-0.1,0-0.3,0-0.4c-0.2-0.1-0.4-0.1-0.6-0.2C562.8,48.7,563,48.9,563.2,49.1z"/>
<path d="M551.5,45c3.7,1.1,7.4,2.3,11.1,3.4c-3.7-3.7-7.4-7.5-11.1-11.2V45z"/>
<path d="M551.5,37.2c3.7,3.8,7.4,7.5,11.1,11.2c0.2,0.1,0.4,0.1,0.6,0.2c0.5-3.9,1-7.8,1.5-11.7c-4.4,0-8.8,0-13.3,0V37.2z"/>
<path d="M551.5,37c4.4,0,8.8,0,13.3,0c1.1-8.4,2.2-16.8,3.2-25.2c-5.5-0.3-11-0.7-16.5-1.1V37z"/>
<path d="M551.5,6.6v4c5.5,0.4,11,0.8,16.5,1.1c0.2-1.7,0.4-3.4,0.6-5.1H551.5z"/>
<path d="M557.7,103.4h22.9c2.1-7.9,4.5-15.6,7-23.4c-9.3,0.1-18.6,0.2-28,0.3C558.9,87.9,558.2,95.6,557.7,103.4z"/>
<path d="M581.3,79.5V67.1c-6.1-5.9-12.1-12-18.2-18c-1.3,10.4-2.5,20.8-3.5,31.2c9.3-0.1,18.6-0.2,28-0.3c0-0.2,0.1-0.3,0.1-0.5
	H581.3z"/>
<path d="M563.2,49.1c6,6,12.1,12,18.2,18V54.3c-6.1-1.9-12.1-3.7-18.1-5.6C563.2,48.8,563.2,48.9,563.2,49.1z"/>
<path d="M563.2,48.7c6,1.9,12,3.7,18.1,5.6V37.1c-5.5,0-11.1-0.1-16.6-0.1C564.2,40.9,563.7,44.8,563.2,48.7z"/>
<path d="M564.7,37c5.5,0,11.1,0,16.6,0.1V12.3c-4.5-0.1-8.9-0.3-13.4-0.6C566.9,20.2,565.8,28.6,564.7,37z"/>
<path d="M568.6,6.6c-0.2,1.7-0.4,3.4-0.6,5.1c4.4,0.2,8.9,0.4,13.4,0.6V6.6H568.6z"/>
<path d="M603.6,88.2c-2.2,5-4.3,10-6.1,15.1h22.9C614.7,98.4,609.1,93.3,603.6,88.2z"/>
<path d="M603.6,88.2c5.5,5.1,11.1,10.2,16.8,15.1h4.9c0.9-1.6,1.8-3.2,2.7-4.9V79.6c-6.8,0.1-13.6,0.1-20.5,0.2
	C606.1,82.6,604.8,85.4,603.6,88.2z"/>
<path d="M607.7,79.5c0,0.1-0.1,0.2-0.1,0.3c6.8-0.1,13.6-0.1,20.5-0.2v-0.1H607.7z"/>
<path d="M628,98.5c-0.9,1.6-1.8,3.3-2.7,4.9h2.7V98.5z"/>
<path d="M603.6,88.2c1.3-2.8,2.6-5.6,4-8.4c-4.3,0-8.5,0.1-12.8,0.1C597.7,82.7,600.6,85.5,603.6,88.2z"/>
<path d="M594.3,79.5c0.1,0.1,0.3,0.3,0.4,0.4c4.3,0,8.5-0.1,12.8-0.1c0-0.1,0.1-0.2,0.1-0.3H594.3z"/>
<path d="M580.6,103.4h16.8c1.9-5.1,3.9-10.2,6.1-15.1c-3-2.7-5.9-5.5-8.8-8.3c-2.4,0-4.7,0-7.1,0.1
	C585.2,87.7,582.8,95.5,580.6,103.4z"/>
<path d="M587.8,79.5c0,0.2-0.1,0.3-0.1,0.5c2.4,0,4.7,0,7.1-0.1c-0.1-0.1-0.3-0.3-0.4-0.4H587.8z"/>
<path d="M641.2,37.8v35.5c5.2-10.1,10.2-20.3,15-30.6c-1.9-1.6-3.9-3.2-5.9-4.7C647.3,37.9,644.3,37.8,641.2,37.8z"/>
<path d="M641.2,37.8c3,0.1,6.1,0.1,9.1,0.2c-3-2.4-6.1-4.8-9.1-7.2V37.8z"/>
<path d="M656.3,42.7c0.7-1.5,1.4-3,2.1-4.5c-2.7-0.1-5.3-0.1-8-0.2C652.4,39.6,654.3,41.1,656.3,42.7z"/>
<path d="M641.2,30.8c3.1,2.4,6.1,4.8,9.1,7.2c2.7,0.1,5.3,0.1,8,0.2c1.2-2.5,2.3-4.9,3.5-7.4c-6.9-3.8-13.8-7.6-20.6-11.6V30.8z"/>
<path d="M641.2,19.2c6.8,4,13.7,7.8,20.6,11.6c2.8-6.1,5.6-12.3,8.4-18.4c-9.6-0.1-19.3-0.2-29-0.3V19.2z"/>
<path d="M641.2,6.6v5.5c9.7,0,19.3,0.1,29,0.3c0.9-1.9,1.7-3.8,2.6-5.8H641.2z"/>
<path d="M664,82.5c-0.4-0.1-0.8-0.3-1.2-0.4c-3.6,7.1-7.3,14.2-11,21.2h13.9V83C665.1,82.9,664.6,82.7,664,82.5z"/>
<path d="M662.8,82.1c0.4,0.1,0.8,0.3,1.2,0.4c0.6,0.2,1.1,0.4,1.7,0.5v-3.7c-0.5,0-1,0-1.5,0C663.8,80.3,663.3,81.2,662.8,82.1z"/>
<path d="M664.2,79.4c0.5,0,1,0,1.5,0v-2.8C665.2,77.5,664.7,78.4,664.2,79.4z"/>
<path d="M673.7,60.8c0.4-0.8,0.8-1.6,1.2-2.4c-0.8-0.7-1.5-1.4-2.3-2L673.7,60.8z"/>
<path d="M671,38.5c-1,0-2,0-3-0.1l4.6,18c0.8,0.7,1.6,1.4,2.3,2c2.8-5.5,5.5-10.9,8.2-16.4c-2.2-1.1-4.3-2.3-6.5-3.4
	C674.7,38.6,672.9,38.6,671,38.5z"/>
<path d="M668,38.4c1,0,2,0,3,0.1c1.9,0.1,3.7,0.1,5.6,0.2c-3.3-1.7-6.6-3.5-9.9-5.2L668,38.4z"/>
<path d="M662.8,82.1c0.5-0.9,0.9-1.8,1.4-2.8c-3.2,0-6.4,0-9.5,0.1C657.4,80.3,660.1,81.2,662.8,82.1z"/>
<path d="M641.2,73.3v1.5c4.4,1.6,8.9,3.1,13.5,4.7c3.2,0,6.4,0,9.5-0.1c0.5-0.9,1-1.9,1.5-2.8v-26c-3.1-2.6-6.3-5.2-9.4-7.8
	C651.4,53,646.4,63.2,641.2,73.3z"/>
<path d="M656.3,42.7c3.2,2.6,6.3,5.2,9.4,7.8V38.4c-2.4-0.1-4.9-0.1-7.3-0.2C657.7,39.7,657,41.2,656.3,42.7z"/>
<path d="M658.4,38.2c2.4,0.1,4.9,0.1,7.3,0.2v-5.4c-1.3-0.7-2.6-1.4-3.9-2.1C660.7,33.3,659.6,35.7,658.4,38.2z"/>
<path d="M641.2,103.4h10.6c3.7-7.1,7.4-14.1,11-21.2c-2.7-0.9-5.4-1.8-8.1-2.7c-4.5,0-9,0.1-13.5,0.1V103.4z"/>
<path d="M641.2,79.5c4.5,0,9-0.1,13.5-0.1c-4.6-1.5-9-3.1-13.5-4.7V79.5z"/>
<path d="M683.1,42.1c0.5-1,1-2.1,1.5-3.1c-2.7-0.1-5.4-0.2-8.1-0.3C678.7,39.8,680.9,41,683.1,42.1z"/>
<path d="M661.8,30.8c1.3,0.7,2.6,1.4,3.9,2.1v-3.3l1,3.9c3.3,1.8,6.6,3.5,9.9,5.2c2.7,0.1,5.4,0.2,8.1,0.3c0.9-1.9,1.9-3.7,2.8-5.6
	l-5.4-20.8c-4-0.1-7.9-0.1-11.9-0.2C667.5,18.6,664.7,24.7,661.8,30.8z"/>
<path d="M672.8,6.6c-0.8,1.9-1.7,3.8-2.6,5.8c4,0.1,7.9,0.1,11.9,0.2l-1.5-6H672.8z"/>
<path d="M684.6,39c-0.5,1-1,2.1-1.5,3.1c2.5,1.3,5,2.6,7.6,3.9l-1.7-6.8C687.5,39.1,686.1,39,684.6,39z"/>
<path d="M684.6,39c1.4,0.1,2.8,0.1,4.3,0.2l-1.5-5.8C686.5,35.3,685.6,37.1,684.6,39z"/>
<path d="M683.8,100.3c1.4-3.5,2.9-6.9,4.3-10.3c-2.5-0.7-5-1.5-7.5-2.3L683.8,100.3z"/>
<path d="M680.5,87.7c2.5,0.8,5,1.5,7.5,2.3c1.5-3.6,3-7.2,4.6-10.8c-4.7,0-9.5,0-14.2,0.1L680.5,87.7z"/>
<path d="M674.9,58.5c-0.4,0.8-0.8,1.6-1.2,2.4l4.7,18.4c4.7,0,9.5-0.1,14.2-0.1c0.4-1,0.9-2,1.3-3C687.8,70.1,681.4,64.2,674.9,58.5
	z"/>
<path d="M695.7,65.5l-5-19.5c-2.5-1.3-5-2.6-7.6-3.9c-2.7,5.5-5.5,10.9-8.2,16.4c6.5,5.8,12.9,11.7,19,17.7
	c3.4-7.9,6.8-15.7,10.2-23.6c-1.5-0.7-3-1.5-4.5-2.2L695.7,65.5z"/>
<path d="M699.6,50.4c1.5,0.7,3,1.5,4.5,2.2c1.8-4.2,3.6-8.4,5.4-12.5c-2.4-0.1-4.8-0.2-7.2-0.3L699.6,50.4z"/>
<path d="M710.7,6.6l-1.7,6.6c3.9,0.1,7.9,0.2,11.8,0.4c1-2.3,2-4.6,3-7H710.7z"/>
<path d="M702.3,39.7c2.4,0.1,4.8,0.2,7.2,0.3c3.8-8.8,7.6-17.6,11.3-26.4c-3.9-0.1-7.9-0.3-11.8-0.4L702.3,39.7z"/>
<path d="M725.5,85.2c1.2-2,2.3-4.1,3.5-6.1c-1.2,0-2.3,0-3.5,0V85.2z"/>
<path d="M725.5,62.8v16.2c1.2,0,2.3,0,3.5,0c2.2-3.9,4.3-7.8,6.4-11.7C732.1,65.9,728.8,64.3,725.5,62.8z"/>
<path d="M750,6.6h-3.3c1.1,0.5,2.2,1,3.3,1.4V6.6z"/>
<path d="M750,26.8V14.7c-3.7-0.2-7.4-0.3-11.1-0.4C742.7,18.3,746.5,22.5,750,26.8z"/>
<path d="M746.8,6.6h-15.3c2.5,2.5,5,5,7.4,7.6c3.7,0.1,7.4,0.3,11.1,0.4V8.1C748.9,7.6,747.8,7.1,746.8,6.6z"/>
<path d="M725.5,62.8c3.3,1.5,6.6,3,9.8,4.5c4.4-8.3,8.5-16.8,12.4-25.4c-7.4-0.4-14.9-0.8-22.3-1.2V62.8z"/>
<path d="M704.1,52.6c4.6,2.3,9.3,4.5,13.9,6.7l4.7-18.6c-4.4-0.2-8.8-0.4-13.2-0.6C707.7,44.2,705.9,48.4,704.1,52.6z"/>
<path d="M709.5,40.1c4.4,0.2,8.8,0.4,13.2,0.6l2.8-11.1v11.2c7.4,0.4,14.9,0.8,22.3,1.2c0.7-1.6,1.5-3.2,2.2-4.7V26.8
	c-3.6-4.3-7.3-8.5-11.1-12.6c-6-0.2-12-0.4-18.1-0.6C717.1,22.5,713.3,31.3,709.5,40.1z"/>
<path d="M723.8,6.6c-1,2.3-2,4.7-3,7c6,0.2,12,0.4,18.1,0.6c-2.4-2.6-4.9-5.1-7.4-7.6H723.8z"/>
<path d="M683.8,100.3l0.8,3.1h22.2l2.1-8.1c-7-1.5-13.9-3.3-20.7-5.3C686.6,93.4,685.2,96.8,683.8,100.3z"/>
<path d="M709.5,92.4l3.4-13.3c-5.3,0-10.7,0-16,0.1C701.2,83.5,705.4,87.9,709.5,92.4z"/>
<path d="M704.1,52.6c-3.4,7.8-6.8,15.7-10.2,23.6c1,1,2,2,3,3c5.3,0,10.7,0,16-0.1l5.1-19.8C713.3,57.1,708.7,54.9,704.1,52.6z"/>
<path d="M688,90c6.8,2,13.7,3.8,20.7,5.3l0.7-2.8c-4.1-4.5-8.3-8.9-12.6-13.3c-1.4,0-2.9,0-4.3,0C691.1,82.8,689.6,86.4,688,90z"/>
<path d="M692.6,79.2c1.4,0,2.9,0,4.3,0c-1-1-2-2-3-3C693.5,77.2,693,78.2,692.6,79.2z"/>
<path d="M729,79.1c-1.1,2-2.3,4.1-3.5,6.1v13.3c7.5,1.6,15,3.2,22.4,4.9h2.1V79C743,79,736,79,729,79.1z"/>
<path d="M735.4,67.4c-2.1,3.9-4.2,7.8-6.4,11.7c7,0,14,0,21,0v-5.1C745.1,71.7,740.2,69.6,735.4,67.4z"/>
<path d="M725.5,98.5v4.9h22.4C740.5,101.7,733.1,100,725.5,98.5z"/>
<path d="M735.4,67.4c4.9,2.2,9.7,4.4,14.6,6.6V42.1c-0.7,0-1.5-0.1-2.2-0.1C743.9,50.6,739.7,59,735.4,67.4z"/>
<path d="M750,42.1v-4.9c-0.7,1.6-1.5,3.2-2.2,4.7C748.6,42,749.3,42.1,750,42.1z"/>
<path d="M814.3,41c0.2,0.1,0.4,0.2,0.6,0.4c0.7-2.3,1.4-4.6,2.2-6.9c1.7-5.5,3.5-10.8,5.5-16.1c-2.7-0.2-5.5-0.3-8.2-0.5V41z"/>
<path d="M814.3,13.2v4.7c2.7,0.2,5.5,0.3,8.2,0.5c0.1-0.3,0.2-0.6,0.3-0.9C820,16,817.1,14.6,814.3,13.2z"/>
<path d="M814.3,43.2c0.2-0.6,0.4-1.2,0.6-1.9c-0.2-0.1-0.4-0.2-0.6-0.4V43.2z"/>
<path d="M827,6.6h-12.7v6.5c2.9,1.4,5.7,2.8,8.6,4.2C824.2,13.8,825.5,10.2,827,6.6z"/>
<path d="M815.9,101.5c-0.6-0.2-1.1-0.4-1.7-0.7v2.5h1.5C815.8,102.7,815.9,102.1,815.9,101.5z"/>
<path d="M814.3,70.6v8.7c1.3,0,2.6,0,3.9,0c0.3-2.1,0.6-4.2,0.9-6.4C817.4,72.2,815.8,71.4,814.3,70.6z"/>
<path d="M814.3,100.8c0.6,0.2,1.1,0.4,1.7,0.7c0.5-7.4,1.3-14.8,2.3-22.1c-1.3,0-2.6,0-3.9,0V100.8z"/>
<path d="M821.6,57c-2.5-1.8-4.9-3.6-7.3-5.4v19.1c1.6,0.8,3.2,1.6,4.8,2.4C819.8,67.6,820.7,62.3,821.6,57z"/>
<path d="M814.3,51.6c2.4,1.9,4.9,3.7,7.3,5.4c0.6-3.4,1.2-6.9,1.9-10.3c-0.6-0.4-1.2-0.8-1.9-1.1c-2.4-0.1-4.9-0.2-7.3-0.3V51.6z"/>
<path d="M814.3,43.2v2c2.4,0.1,4.9,0.2,7.3,0.3c-2.2-1.4-4.5-2.8-6.7-4.1C814.7,42,814.5,42.6,814.3,43.2z"/>
<path d="M823.4,46.7c0.1-0.4,0.1-0.7,0.2-1.1c-0.7,0-1.4-0.1-2.1-0.1C822.2,45.9,822.8,46.3,823.4,46.7z"/>
<path d="M817,34.5c-0.7,2.3-1.4,4.6-2.2,6.9c2.3,1.4,4.5,2.7,6.7,4.1c0.7,0,1.4,0.1,2.1,0.1c1.6-8.4,3.3-16.7,5.1-25.1
	c-1.3-0.7-2.6-1.3-3.8-2c-0.8,0-1.6-0.1-2.4-0.1C820.5,23.7,818.7,29,817,34.5z"/>
<path d="M822.5,18.4c0.8,0,1.6,0.1,2.4,0.1c-0.7-0.4-1.4-0.7-2.1-1.1C822.7,17.7,822.6,18.1,822.5,18.4z"/>
<path d="M827,6.6c-1.4,3.6-2.8,7.2-4.1,10.8c0.7,0.4,1.4,0.7,2.1,1.1c1.4,0.1,2.8,0.2,4.2,0.3c0.9-4,1.7-8.1,2.6-12.1H827z"/>
<path d="M828.7,20.5c0.1-0.6,0.3-1.2,0.4-1.8c-1.4-0.1-2.8-0.2-4.2-0.3C826.2,19.2,827.5,19.8,828.7,20.5z"/>
<path d="M881.7,51.1v-4.4c-2.5,0-5.1,0-7.6,0C876.7,48.1,879.2,49.6,881.7,51.1z"/>
<path d="M870.2,44.3c1.3,0.8,2.6,1.5,3.9,2.3c2.5,0,5.1,0,7.6,0v-2.3H870.2z"/>
<path d="M848.6,63.3c0,0.2,0,0.4,0,0.5h0.8C849.1,63.7,848.9,63.5,848.6,63.3z"/>
<path d="M850.2,44.3c-0.1,0.7-0.1,1.4-0.2,2c2.7,0.1,5.3,0.1,8,0.2c5.4,0,10.7,0.1,16.1,0.1c-1.3-0.8-2.6-1.5-3.9-2.3H850.2z"/>
<path d="M850,46.3c-0.5,5.7-0.9,11.3-1.4,17c0.3,0.2,0.5,0.4,0.8,0.5h32.4V51.1c-2.5-1.5-5.1-3-7.6-4.5c-5.4,0-10.7-0.1-16.1-0.1
	C855.3,46.5,852.7,46.4,850,46.3z"/>
<path d="M851.5,27.4h36.7v-5c-12-0.8-24.1-1.6-36.1-2.3C851.8,22.6,851.7,25,851.5,27.4z"/>
<path d="M853,6.6c-0.3,4.5-0.6,9-0.9,13.5c12,0.7,24.1,1.5,36.1,2.3V6.6H853z"/>
<path d="M828.7,20.5c2.4,1.3,4.9,2.6,7.3,4c2.8,1.6,5.5,3.2,8.3,4.8v-1.8h7.2c0.2-2.4,0.4-4.9,0.5-7.3c-7.6-0.5-15.3-0.9-22.9-1.4
	C829,19.3,828.9,19.9,828.7,20.5z"/>
<path d="M831.8,6.6c-0.9,4-1.8,8.1-2.6,12.1c7.6,0.4,15.3,0.9,22.9,1.4c0.3-4.5,0.6-9,0.9-13.5H831.8z"/>
<path d="M815.9,101.5c0,0.6-0.1,1.2-0.1,1.9h4.8C819,102.7,817.5,102.1,815.9,101.5z"/>
<path d="M818.2,79.3c4.4,0,8.8,0.1,13.1,0.1c-4-2.3-8.1-4.4-12.3-6.5C818.7,75.1,818.5,77.2,818.2,79.3z"/>
<path d="M815.9,101.5c1.6,0.6,3.1,1.2,4.7,1.9h23.7V88c-4-3.1-8.4-5.9-13-8.5c-4.4,0-8.7-0.1-13.1-0.1
	C817.2,86.7,816.5,94.1,815.9,101.5z"/>
<path d="M844.3,88v-8.4c-4.3-0.1-8.6-0.1-13-0.2C835.9,82.1,840.2,84.9,844.3,88z"/>
<path d="M821.6,57c-0.9,5.3-1.8,10.7-2.5,16c4.1,2.1,8.2,4.2,12.3,6.5c4.3,0,8.6,0.1,13,0.2V73C836.9,67.5,829.2,62.4,821.6,57z"/>
<path d="M844.3,63.8h4.3c0-0.2,0-0.4,0-0.5c-8.3-5.7-16.7-11.3-25.2-16.6c-0.6,3.4-1.3,6.9-1.9,10.3c7.6,5.4,15.3,10.5,22.7,16V63.8
	z"/>
<path d="M823.4,46.7c8.5,5.3,16.9,10.9,25.2,16.6c0.5-5.7,0.9-11.3,1.4-17c-8.8-0.2-17.6-0.4-26.4-0.8
	C823.6,45.9,823.5,46.3,823.4,46.7z"/>
<path d="M844.3,29.3c-2.8-1.6-5.5-3.2-8.3-4.8c-2.4-1.4-4.8-2.7-7.3-4c-1.8,8.4-3.5,16.7-5.1,25.1c8.8,0.3,17.6,0.6,26.4,0.8
	c0.1-0.7,0.1-1.4,0.2-2h-5.9V29.3z"/>
<path d="M980.6,47.1C980.6,47.1,980.6,47.1,980.6,47.1l0.1-0.4C980.6,46.8,980.6,46.9,980.6,47.1z"/>
<path d="M977.9,62.4h2.7V47.1c0,0,0,0-0.1,0C979.8,52.2,978.9,57.3,977.9,62.4z"/>
<path d="M950.6,62.4h27.3c1-5.1,1.9-10.2,2.7-15.3c-8.2,0-16.3-0.1-24.5-0.1C954.3,52.1,952.5,57.3,950.6,62.4z"/>
<path d="M956.1,47c8.2,0,16.3,0.1,24.5,0.1c0-0.1,0-0.3,0.1-0.4v-4h-23.1C957.1,44.1,956.6,45.5,956.1,47z"/>
<path d="M984.2,18.7c-0.3,2.9-0.6,5.8-1,8.6h1V18.7z"/>
<path d="M983.3,27.3c0.3-2.9,0.7-5.7,1-8.6v-12h-15.2c-1.5,5.1-3.1,10.1-4.7,15.1c2.2,1.8,4.4,3.7,6.6,5.5H983.3z"/>
<path d="M964.4,21.8c-0.6,1.8-1.2,3.7-1.7,5.5h8.4C968.8,25.5,966.6,23.6,964.4,21.8z"/>
<path d="M985.7,97.8c-0.4,1.8-0.8,3.7-1.2,5.5h1.2V97.8z"/>
<path d="M968.6,99.9c2.2,1.2,4.4,2.3,6.6,3.5h9.3c0.4-1.8,0.8-3.7,1.2-5.5V81.5h-12C972.2,87.6,970.5,93.8,968.6,99.9z"/>
<path d="M968.6,99.9c-0.4,1.2-0.7,2.3-1.1,3.5h7.7C973,102.2,970.8,101,968.6,99.9z"/>
<path d="M941.7,85.3c8.9,4.9,17.9,9.8,26.9,14.5c1.9-6.1,3.6-12.3,5.1-18.4h-30.4C942.8,82.8,942.2,84,941.7,85.3z"/>
<path d="M968.6,99.9c-9-4.7-17.9-9.6-26.9-14.5c-2.4,6-4.9,12-7.5,18h33.3C967.9,102.2,968.2,101,968.6,99.9z"/>
<path d="M941.4,62.4h9.2c1.9-5.1,3.7-10.3,5.5-15.4c-2.8,0-5.6,0-8.3,0C945.6,52.1,943.5,57.2,941.4,62.4z"/>
<path d="M947.7,46.9c2.8,0,5.6,0,8.3,0c0.5-1.4,1-2.9,1.5-4.3h-8.1C948.9,44.1,948.3,45.5,947.7,46.9z"/>
<path d="M933.7,80.9c0.1,0.1,0.3,0.1,0.4,0.2v-0.3C934,80.8,933.9,80.8,933.7,80.9C933.7,80.8,933.7,80.9,933.7,80.9z"/>
<path d="M933.8,80.8c0.1,0,0.2,0,0.4,0v-0.9C934,80.2,933.9,80.5,933.8,80.8z"/>
<path d="M941.7,85.3c0.5-1.3,1.1-2.6,1.6-3.9h-8.6C937.1,82.8,939.4,84.1,941.7,85.3z"/>
<path d="M934.1,81.5v-0.3c-0.1-0.1-0.3-0.1-0.4-0.2c-3.1,7.5-6.2,15-9.3,22.5h9.7c2.6-6,5.1-12,7.5-18c-2.3-1.3-4.7-2.6-7-3.9H934.1
	z"/>
<path d="M963.3,6.6h-17.2c4.4,3.6,8.8,7.3,13.1,10.9C960.6,13.9,962,10.3,963.3,6.6z"/>
<path d="M933.7,80.9C933.7,80.9,933.7,80.8,933.7,80.9c0-0.1-0.1-0.1-0.1-0.1C933.6,80.8,933.7,80.9,933.7,80.9z"/>
<path d="M934.1,62.4h7.3c2.1-5.1,4.2-10.3,6.3-15.4c-9.5,0-19-0.1-28.5-0.1c-2.2,7.3-4.6,14.6-6.9,21.9c7.1,4.1,14.2,8.1,21.3,12.1
	c0.1,0,0.1,0,0.2,0c0.1-0.3,0.2-0.6,0.4-0.9V62.4z"/>
<path d="M919.2,46.8c9.5,0,19,0.1,28.5,0.1c0.6-1.4,1.2-2.9,1.7-4.3h-15.3V27.3h21.4c0-0.1,0.1-0.2,0.1-0.3c-10-0.7-20-1.4-30-2
	C923.6,32.3,921.4,39.6,919.2,46.8z"/>
<path d="M946.1,6.6h-15.5c-1.6,6.1-3.2,12.2-5,18.3c10,0.7,20,1.4,30,2c1.2-3.1,2.4-6.3,3.6-9.5C954.9,13.9,950.5,10.3,946.1,6.6z"
	/>
<path d="M904.2,94.1v9.3h20.3c3.1-7.5,6.2-15,9.3-22.5c0,0-0.1-0.1-0.1-0.1c-8.4,0-16.7-0.1-25.1-0.2
	C907.1,85.1,905.6,89.6,904.2,94.1z"/>
<path d="M908.5,80.6c8.4,0.1,16.7,0.1,25.1,0.2c-7.1-4-14.2-8-21.3-12.1C911,72.7,909.8,76.7,908.5,80.6z"/>
<path d="M964.4,21.8c-1.7-1.4-3.4-2.8-5.1-4.3c-1.2,3.2-2.4,6.3-3.6,9.5c1.5,0.1,2.9,0.2,4.4,0.3h2.6
	C963.2,25.5,963.8,23.6,964.4,21.8z"/>
<path d="M955.5,27.3h4.5c-1.5-0.1-2.9-0.2-4.4-0.3C955.6,27.1,955.6,27.2,955.5,27.3z"/>
<path d="M969.1,6.6h-5.8c-1.3,3.6-2.7,7.3-4,10.9c1.7,1.4,3.4,2.8,5.1,4.3C966,16.8,967.6,11.7,969.1,6.6z"/>
<path d="M904.2,64.1c2.7,1.6,5.4,3.1,8.2,4.7c2.3-7.3,4.6-14.6,6.9-21.9c-5,0-10,0-15-0.1V64.1z"/>
<path d="M904.2,46.8c5,0,10,0,15,0.1c2.2-7.3,4.4-14.6,6.5-21.9c-7.2-0.5-14.3-1-21.5-1.4V46.8z"/>
<path d="M904.2,6.6v16.9c7.2,0.5,14.3,1,21.5,1.4c1.7-6.1,3.4-12.2,5-18.3H904.2z"/>
<path d="M904.2,94.1c1.4-4.5,2.9-9,4.3-13.4c-1.4,0-2.9,0-4.3,0V94.1z"/>
<path d="M904.2,64.1v16.5c1.4,0,2.9,0,4.3,0c1.3-4,2.6-7.9,3.8-11.9C909.6,67.2,906.9,65.6,904.2,64.1z"/>
<path d="M1002.2,6.6v13.2c1-4.4,2.1-8.8,3.1-13.2H1002.2z"/>
<path d="M1032.2,88.2c-2.2,5-4.3,10.1-6.5,15.1h6.5V88.2z"/>
<path d="M1008.7,58.8c-2.2,6.4-4.3,12.9-6.5,19.3v2.5c10-0.1,20-0.2,30-0.4v-1.5C1024.4,72,1016.5,65.4,1008.7,58.8z"/>
<path d="M1002.2,103.4h23.5c2.1-5.1,4.3-10.1,6.5-15.1v-8c-10,0.2-20,0.3-30,0.4V103.4z"/>
<path d="M1032.2,64.1h2.6c2.6,0,4.9,0.7,7,2c2.8-6.3,5.7-12.6,8.5-18.8c-12.6-0.1-25.2-0.1-37.8-0.2c-1.3,3.9-2.6,7.8-3.9,11.6
	c7.9,6.6,15.7,13.2,23.5,19.9V64.1z"/>
<path d="M1012.6,47.2c12.6,0,25.2,0.1,37.8,0.2c0.4-0.9,0.8-1.7,1.2-2.6c-3.3,0.7-5.6,1.1-6.8,1.1h-12.6V32
	c-4.8-0.3-9.6-0.6-14.4-0.9C1016.1,36.5,1014.3,41.8,1012.6,47.2z"/>
<path d="M1045.3,26.2c5.5,0,9.2,0.8,11.1,2.5c0.7,0.6,1.3,1.3,1.7,2.1c0.5-0.9,0.9-1.9,1.4-2.8c-7-6.9-13.8-14-20.6-21.3h-13.3
	c-2.6,8.2-5.2,16.3-7.9,24.5c4.8,0.3,9.6,0.6,14.4,0.9v-5.8H1045.3z"/>
<path d="M1069.5,8.1c-4.5-0.9-10.4-1.4-17.5-1.4h-13c6.8,7.3,13.6,14.4,20.6,21.3C1062.8,21.3,1066.1,14.7,1069.5,8.1z"/>
<path d="M1072.7,103.4h24.7l-12.5-24.3c-2,0.1-4.1,0.1-6.1,0.2C1076.7,87.3,1074.7,95.3,1072.7,103.4z"/>
<path d="M1080.5,71.7c-0.6,2.5-1.2,5-1.8,7.6c2-0.1,4.1-0.1,6.1-0.2l-1.9-3.8C1082.4,74.4,1081.6,73.2,1080.5,71.7z"/>
<path d="M1085.9,47.5C1085.9,47.5,1085.9,47.5,1085.9,47.5c0.1,0,0.1-0.1,0.2-0.1c2-3.4,3.1-7.4,3.4-11.9c-0.4,0-0.7,0-1.1-0.1
	C1087.5,39.4,1086.7,43.5,1085.9,47.5z"/>
<path d="M1089.3,30.4c-0.3,1.6-0.7,3.3-1,4.9c0.4,0,0.7,0,1.1,0.1c0-0.6,0.1-1.3,0.1-1.9C1089.5,32.4,1089.4,31.4,1089.3,30.4z"/>
<path d="M1085.8,47.7c0-0.1,0.1-0.1,0.1-0.2c0,0,0,0-0.1,0C1085.9,47.6,1085.8,47.6,1085.8,47.7z"/>
<path d="M1083.6,50.8c0.8-1,1.6-2,2.3-3.2c0-0.1,0-0.1,0-0.2c-2,0-3.9,0-5.9,0C1081.2,48.6,1082.4,49.7,1083.6,50.8z"/>
<path d="M1067.4,35.5c4.2,4,8.4,8,12.6,12c2,0,3.9,0,5.9,0c0.9-4,1.7-8.1,2.5-12.1c-6.8-0.4-13.7-0.7-20.5-1.2
	C1067.7,34.6,1067.5,35.1,1067.4,35.5z"/>
<path d="M1085,17.8c-2.5-3.5-5.6-6.1-9.4-7.8c-2.6,8.1-5.2,16.1-7.8,24.2c6.9,0.4,13.7,0.8,20.5,1.2c0.3-1.6,0.7-3.3,1-4.9
	C1088.9,25.6,1087.5,21.4,1085,17.8z"/>
<path d="M1052.4,82.7l11.1,20.6h9.1c2.1-8,4.1-16,6-24.1c-8.5,0.2-16.9,0.4-25.4,0.6C1053,80.8,1052.7,81.8,1052.4,82.7z"/>
<path d="M1078.7,69.3c-2.1-2.6-3.7-4.3-4.8-5.1c-1.6-1.2-4.2-2.4-7.8-3.6c4.4-1,7.9-2.3,10.5-3.8c2.7-1.7,5.1-3.7,7-6
	c-1.2-1.1-2.4-2.2-3.6-3.4c-5.5,0-10.9-0.1-16.4-0.1c-3.4,10.8-6.9,21.6-10.3,32.4c8.4-0.2,16.9-0.4,25.4-0.6c0.6-2.5,1.2-5,1.8-7.6
	C1080,71,1079.3,70.2,1078.7,69.3z"/>
<path d="M1063.6,47.4c5.5,0,10.9,0.1,16.4,0.1c-4.2-3.9-8.4-7.9-12.6-12C1066.1,39.5,1064.8,43.4,1063.6,47.4z"/>
<path d="M1059.4,35.9c0,2.1-0.6,4-1.9,5.6c-1.3,1.6-2.9,2.6-4.8,3c-0.4,0.1-0.8,0.2-1.1,0.2c-0.4,0.9-0.8,1.7-1.2,2.6
	c4.4,0,8.8,0,13.2,0.1c1.3-4,2.5-7.9,3.8-11.9c-0.5-0.5-1-1-1.5-1.5c-2.2-0.1-4.4-0.3-6.7-0.4C1059.4,34.3,1059.4,35.1,1059.4,35.9z
	"/>
<path d="M1058.2,30.7c0.5,0.9,0.8,1.8,1,2.9c2.2,0.1,4.4,0.3,6.7,0.4c-2.1-2-4.2-4.1-6.3-6.2C1059.1,28.9,1058.7,29.8,1058.2,30.7z"
	/>
<path d="M1052.4,82.7c0.3-1,0.6-1.9,0.9-2.9c-0.8,0-1.6,0-2.4,0.1L1052.4,82.7z"/>
<path d="M1050.4,47.3c-2.9,6.3-5.7,12.5-8.5,18.8c0.1,0.1,0.2,0.1,0.3,0.2c1.6,1.1,3.4,3.6,5.4,7.5l3.3,6.1c0.8,0,1.6,0,2.4-0.1
	c3.4-10.8,6.8-21.6,10.3-32.4C1059.2,47.4,1054.8,47.3,1050.4,47.3z"/>
<path d="M1067.4,35.5c0.1-0.4,0.3-0.9,0.4-1.3c-0.6,0-1.3-0.1-1.9-0.1C1066.4,34.6,1066.9,35.1,1067.4,35.5z"/>
<path d="M1073.2,9c-1.1-0.4-2.3-0.7-3.7-0.9c-3.4,6.6-6.7,13.2-9.9,19.8c2.1,2.1,4.2,4.1,6.3,6.2c0.6,0,1.3,0.1,1.9,0.1
	c2.6-8.1,5.2-16.2,7.8-24.2C1074.8,9.6,1074,9.3,1073.2,9z"/>
<path d="M1002.2,47.1c3.5,0,6.9,0,10.4,0c1.8-5.3,3.5-10.7,5.3-16c-5.2-0.3-10.4-0.7-15.6-1V47.1z"/>
<path d="M1005.3,6.6c-1.1,4.4-2.1,8.8-3.1,13.2v10.2c5.2,0.3,10.4,0.7,15.6,1c2.7-8.1,5.3-16.3,7.9-24.5H1005.3z"/>
<path d="M1002.2,53.3c2.2,1.8,4.3,3.6,6.5,5.5c1.3-3.9,2.6-7.8,3.9-11.6c-3.5,0-6.9,0-10.4,0V53.3z"/>
<path d="M1002.2,53.3v24.8c2.2-6.4,4.3-12.9,6.5-19.3C1006.5,57,1004.4,55.2,1002.2,53.3z"/>
<path d="M1125.5,6.6h-18.4v13.5c4.7,2.9,9.5,5.8,14.2,8.6C1122.7,21.4,1124.1,14,1125.5,6.6z"/>
<path d="M1117.4,47.8c-3.4,0-6.9-0.1-10.3-0.1v24.5c1.4,1.2,2.8,2.5,4.2,3.7C1113.4,66.6,1115.5,57.2,1117.4,47.8z"/>
<path d="M1107.1,47.7c3.4,0,6.9,0.1,10.3,0.1c0.7-3.6,1.5-7.2,2.2-10.7c-4.2-0.2-8.4-0.5-12.5-0.7V47.7z"/>
<path d="M1107.1,20.1v16.2c4.2,0.2,8.3,0.4,12.5,0.7c0.6-2.8,1.1-5.5,1.6-8.3C1116.5,25.9,1111.8,23,1107.1,20.1z"/>
<path d="M1107.1,93.2c1.2-4.9,2.4-9.9,3.6-14.9c-1.2,0-2.4,0.1-3.6,0.1V93.2z"/>
<path d="M1107.1,72.2v6.3c1.2,0,2.4-0.1,3.6-0.1c0.2-0.8,0.4-1.6,0.6-2.4C1109.9,74.7,1108.5,73.4,1107.1,72.2z"/>
<path d="M1119.8,103.4h15.3v-6.2c-3.5-3.1-7.1-6.3-10.6-9.4C1123,92.9,1121.4,98.2,1119.8,103.4z"/>
<path d="M1127.5,77.8c-1,3.3-2,6.7-3,10c3.5,3.1,7.1,6.3,10.6,9.4V77.5c-0.1,0-0.1,0-0.2,0C1132.5,77.6,1130,77.7,1127.5,77.8z"/>
<path d="M1127.5,77.8c2.5-0.1,5-0.2,7.5-0.3c0.1,0,0.1,0,0.2,0V51.8C1132.6,60.5,1130.1,69.1,1127.5,77.8z"/>
<path d="M1155.8,80.5c0.3-1.3,0.6-2.7,0.8-4c-1.1,0.1-2.3,0.1-3.4,0.2L1155.8,80.5z"/>
<path d="M1153.3,48.2c-5.7-0.1-11.4-0.2-17-0.2c-0.3,0.9-0.5,1.8-0.8,2.7l17.7,25.9c1.1-0.1,2.3-0.1,3.4-0.2
	c1.7-7.9,3.1-15.7,4.4-23.6C1158.5,51.3,1155.9,49.8,1153.3,48.2z"/>
<path d="M1136.3,48c5.7,0.1,11.4,0.1,17,0.2c-4.8-2.9-9.7-5.8-14.5-8.7C1138,42.3,1137.1,45.1,1136.3,48z"/>
<path d="M1161.1,52.9c0.3-1.5,0.5-3,0.7-4.6c-2.8,0-5.6-0.1-8.5-0.1C1155.9,49.8,1158.5,51.3,1161.1,52.9z"/>
<path d="M1139.2,38.3c-0.1,0.4-0.2,0.8-0.4,1.2c4.8,2.9,9.7,5.8,14.5,8.7c2.8,0,5.6,0.1,8.5,0.1c0.1-0.6,0.2-1.2,0.3-1.8l-4.9-7.2
	c-4.7-0.3-9.5-0.5-14.2-0.8C1141.7,38.4,1140.5,38.3,1139.2,38.3z"/>
<path d="M1139.2,38.3c1.3,0.1,2.5,0.2,3.8,0.2c4.7,0.3,9.5,0.5,14.2,0.8l-12.7-18.6C1142.7,26.5,1140.9,32.4,1139.2,38.3z"/>
<path d="M1161.1,52.9c3,1.8,6,3.6,9.1,5.4l-6.8-10c-0.5,0-1,0-1.5,0C1161.6,49.8,1161.3,51.4,1161.1,52.9z"/>
<path d="M1161.8,48.3c0.5,0,1,0,1.5,0l-1.2-1.8C1162,47.1,1161.9,47.7,1161.8,48.3z"/>
<path d="M1186,6.6h-14.6v19c5,2.8,10,5.6,14.9,8.4C1186.1,24.9,1186,15.8,1186,6.6z"/>
<path d="M1171.4,59.1c5.3,3.1,10.5,6.3,15.8,9.4c-0.2-6.6-0.3-13.2-0.5-19.8c-5.1-0.1-10.2-0.2-15.3-0.2V59.1z"/>
<path d="M1171.4,48.5c5.1,0.1,10.2,0.2,15.3,0.2c-0.1-2.7-0.1-5.3-0.2-8c-5-0.2-10.1-0.4-15.1-0.7V48.5z"/>
<path d="M1171.4,25.6V40c5,0.2,10.1,0.5,15.1,0.7c-0.1-2.2-0.1-4.5-0.2-6.7C1181.4,31.2,1176.4,28.4,1171.4,25.6z"/>
<path d="M1171.4,59.1v1.1l-1.3-1.8c-3-1.8-6-3.6-9.1-5.4c-1.3,7.9-2.8,15.8-4.4,23.6c10.2-0.5,20.5-1,30.7-1.4
	c0-2.2-0.1-4.4-0.1-6.6C1181.9,65.3,1176.6,62.2,1171.4,59.1z"/>
<path d="M1155.8,80.5l15.6,22.9h16.3c0-9.4-0.2-18.8-0.4-28.3c-10.2,0.5-20.5,1-30.7,1.4C1156.4,77.8,1156.1,79.2,1155.8,80.5z"/>
<path d="M1187.7,103.4h11.9V75.8c-0.7-0.4-1.3-0.8-2-1.2c-3.4,0.2-6.8,0.3-10.2,0.5C1187.5,84.5,1187.7,93.9,1187.7,103.4z"/>
<path d="M1187.3,75.1c3.4-0.2,6.8-0.3,10.2-0.5c-3.5-2-6.9-4.1-10.4-6.1C1187.2,70.7,1187.3,72.9,1187.3,75.1z"/>
<path d="M1199.6,41.6v-0.3c-0.2,0-0.4,0-0.6,0C1199.1,41.4,1199.3,41.5,1199.6,41.6z"/>
<path d="M1186,6.6c0,9.1,0.2,18.3,0.4,27.4c4.2,2.4,8.4,4.8,12.6,7.2c0.2,0,0.4,0,0.6,0V6.6H1186z"/>
<path d="M1186.7,48.7c4.3,0.1,8.6,0.2,12.9,0.2v-7.3c-0.2-0.1-0.4-0.2-0.6-0.4c-4.1-0.2-8.3-0.3-12.4-0.5
	C1186.6,43.4,1186.6,46,1186.7,48.7z"/>
<path d="M1186.5,40.7c4.1,0.2,8.3,0.4,12.4,0.5c-4.2-2.4-8.4-4.8-12.6-7.2C1186.4,36.3,1186.4,38.5,1186.5,40.7z"/>
<path d="M1199.6,75.8v-1.3c-0.7,0-1.3,0.1-2,0.1C1198.2,75,1198.9,75.4,1199.6,75.8z"/>
<path d="M1186.7,48.7c0.2,6.6,0.3,13.2,0.5,19.8c3.5,2.1,6.9,4.1,10.4,6.1c0.7,0,1.3-0.1,2-0.1V48.9
	C1195.3,48.9,1191,48.8,1186.7,48.7z"/>
<path d="M1107.1,93.2v10.2h12.8c1.6-5.2,3.2-10.4,4.8-15.6c-3.6-3.2-7.1-6.3-10.7-9.5c-1.1,0-2.1,0.1-3.2,0.1
	C1109.5,83.3,1108.3,88.2,1107.1,93.2z"/>
<path d="M1110.7,78.3c1.1,0,2.1-0.1,3.2-0.1c-0.9-0.8-1.7-1.5-2.6-2.3C1111.1,76.7,1110.9,77.5,1110.7,78.3z"/>
<path d="M1135.2,50.3l0.3,0.5c0.3-0.9,0.5-1.8,0.8-2.7c-6.3-0.1-12.6-0.1-18.9-0.2c-2,9.4-4,18.8-6.2,28.1c0.9,0.8,1.7,1.5,2.6,2.3
	c4.6-0.1,9.1-0.3,13.7-0.5c2.6-8.6,5.1-17.3,7.6-25.9V50.3z"/>
<path d="M1124.6,87.7c1-3.3,2-6.6,3-10c-4.6,0.2-9.1,0.3-13.7,0.5C1117.4,81.4,1121,84.6,1124.6,87.7z"/>
<path d="M1117.4,47.8c6.3,0.1,12.6,0.1,18.9,0.2c0.8-2.8,1.7-5.7,2.5-8.5c-0.8-0.5-1.5-0.9-2.3-1.4c-5.7-0.4-11.3-0.7-17-1
	C1118.9,40.6,1118.2,44.2,1117.4,47.8z"/>
<path d="M1119.6,37.1c5.6,0.3,11.3,0.7,17,1c-5.1-3.1-10.2-6.2-15.3-9.3C1120.7,31.5,1120.2,34.3,1119.6,37.1z"/>
<path d="M1138.8,39.5c0.1-0.4,0.2-0.8,0.4-1.2c-0.9-0.1-1.7-0.1-2.6-0.2C1137.3,38.5,1138.1,39,1138.8,39.5z"/>
<path d="M1135,6.6h-9.5c-1.4,7.4-2.8,14.8-4.2,22.1c5.1,3.1,10.2,6.2,15.3,9.3c0.9,0.1,1.7,0.1,2.6,0.2c1.8-5.9,3.5-11.7,5.3-17.6
	L1135,6.6z"/>
<path d="M1215.3,85l-6.9,18.4h14.7c1.4-3.8,2.8-7.6,4.2-11.4C1223.3,89.7,1219.3,87.3,1215.3,85z"/>
<path d="M1225.9,56.9c3.8,2.3,7.7,4.5,11.5,6.8c1.6-4.6,3.1-9.2,4.6-13.8c-4.5-0.1-8.9-0.2-13.4-0.3L1225.9,56.9z"/>
<path d="M1228.6,49.6c4.5,0.1,8.9,0.2,13.4,0.3c0.8-2.4,1.6-4.9,2.4-7.3c-4.3-0.1-8.7-0.2-13-0.3L1228.6,49.6z"/>
<path d="M1240.4,18.1l-9.1,24.2c4.3,0.1,8.7,0.2,13,0.3c2.2-6.9,4.3-13.8,6.3-20.8C1247.2,20.5,1243.8,19.3,1240.4,18.1z"/>
<path d="M1215.3,85c4,2.3,8,4.7,12,7c2.3-6.3,4.6-12.6,6.8-18.9c-4.8,0.2-9.7,0.4-14.5,0.6L1215.3,85z"/>
<path d="M1225.9,56.9l-6.3,16.7c4.8-0.2,9.7-0.4,14.5-0.6c1.1-3.1,2.2-6.3,3.3-9.4C1233.5,61.4,1229.7,59.1,1225.9,56.9z"/>
<path d="M1254.7,6.6h-9.9l-4.3,11.4c3.4,1.2,6.8,2.4,10.2,3.7C1252,16.7,1253.4,11.7,1254.7,6.6z"/>
<path d="M1223.1,103.4h15.8l1.2-4c-4.3-2.4-8.5-4.9-12.8-7.4C1225.9,95.8,1224.5,99.6,1223.1,103.4z"/>
<path d="M1270,62.2c1.5-3.7,3-7.3,4.5-11c-2.7-0.3-5.4-0.5-8.1-0.6L1270,62.2z"/>
<path d="M1262.8,78.6c1-2.2,2-4.4,3-6.6c-4.5,0.1-9,0.2-13.5,0.4C1255.8,74.5,1259.3,76.5,1262.8,78.6z"/>
<path d="M1250.1,66.5l4.9-16.2c-4.4-0.1-8.7-0.2-13.1-0.4c-1.5,4.6-3,9.2-4.6,13.8c5,2.9,9.9,5.8,14.9,8.8c4.5-0.1,9-0.3,13.5-0.4
	c0.8-1.8,1.6-3.7,2.4-5.6H1250.1z"/>
<path d="M1250.6,21.7c-2,7-4.1,13.9-6.3,20.8c4.3,0.1,8.6,0.2,13,0.2l3.4-11.1l3.4,11.2c4.6,0.1,9.1,0.1,13.7,0.1
	c1.3-3.3,2.6-6.7,3.8-10C1271.3,29.2,1261,25.5,1250.6,21.7z"/>
<path d="M1266.5,50.6c2.7,0.1,5.4,0.3,8.1,0.6c1.1-2.7,2.2-5.4,3.2-8.2c-4.6,0-9.1-0.1-13.7-0.1L1266.5,50.6z"/>
<path d="M1242,49.9c4.3,0.1,8.7,0.2,13.1,0.4l2.3-7.4c-4.3-0.1-8.6-0.2-13-0.2C1243.6,45,1242.8,47.4,1242,49.9z"/>
<path d="M1227.3,92c4.3,2.5,8.5,4.9,12.8,7.4l3.5-11.9h15c1.4-2.9,2.8-5.8,4.1-8.8c-3.5-2.1-7-4.1-10.5-6.2
	c-6.1,0.2-12.1,0.4-18.2,0.6C1231.9,79.4,1229.6,85.7,1227.3,92z"/>
<path d="M1234.1,73.1c6.1-0.2,12.1-0.4,18.2-0.6c-5-2.9-9.9-5.8-14.9-8.8C1236.3,66.8,1235.2,69.9,1234.1,73.1z"/>
<path d="M1284.4,25.4l-7.1-18.8h-22.6c-1.3,5.1-2.7,10.1-4.1,15.1c10.4,3.7,20.7,7.5,31,11.3C1282.5,30.5,1283.5,27.9,1284.4,25.4z"
	/>
<path d="M1262.8,78.6c9.7,5.7,19.4,11.4,29.1,17.1c3.7-7,7.4-13.9,11.1-20.8l-1.3-3.5c-12,0.1-23.9,0.3-35.9,0.6
	C1264.8,74.2,1263.8,76.4,1262.8,78.6z"/>
<path d="M1274.6,51.2c-1.5,3.7-3,7.4-4.5,11l1.3,4.3h-3.1c-0.8,1.9-1.6,3.7-2.4,5.6c12-0.3,23.9-0.5,35.9-0.6l-6.5-17.3
	C1288.3,52.9,1281.4,51.9,1274.6,51.2z"/>
<path d="M1288.1,35.4c-2.2-0.8-4.4-1.6-6.5-2.4c-1.2,3.4-2.5,6.7-3.8,10c4.4,0,8.8,0.1,13.3,0.1L1288.1,35.4z"/>
<path d="M1277.8,43c-1.1,2.7-2.1,5.4-3.2,8.2c6.8,0.7,13.7,1.7,20.6,2.9l-4.1-11C1286.6,43.1,1282.2,43.1,1277.8,43z"/>
<path d="M1258.6,87.4h18.9l4.8,16h5.5c1.3-2.6,2.7-5.1,4-7.6c-9.7-5.7-19.4-11.4-29.1-17.1C1261.4,81.5,1260,84.5,1258.6,87.4z"/>
<path d="M1284.4,25.4c-0.9,2.5-1.9,5.1-2.8,7.6c2.2,0.8,4.4,1.6,6.5,2.4L1284.4,25.4z"/>
<path d="M1291.9,95.7c4.4,2.6,8.8,5.1,13.1,7.6h8.7L1303,74.9C1299.2,81.8,1295.5,88.7,1291.9,95.7z"/>
<path d="M1305,103.4c-4.4-2.5-8.8-5.1-13.1-7.6c-1.3,2.5-2.7,5.1-4,7.6H1305z"/>
<path d="M1339.3,6.6h-16V9c3.5,2.9,6.9,5.8,10.4,8.8C1335.6,14,1337.5,10.4,1339.3,6.6z"/>
<path d="M1323.4,9v28.5c3.5-6.5,7-13.1,10.4-19.7C1330.3,14.8,1326.8,11.8,1323.4,9z"/>
<path d="M1323.4,48.3v10c5.9,0.7,11.8,1.1,17.6,1.1c1.5,0,2.9,0.1,4.4,0.1c0.5-0.9,1-1.8,1.5-2.6C1339,54.1,1331.2,51.2,1323.4,48.3
	z"/>
<path d="M1323.4,71.4v27.9c5.1-9.3,10.2-18.5,15.4-27.8c-0.9,0-1.8,0-2.7,0C1331.8,71.4,1327.6,71.4,1323.4,71.4z"/>
<path d="M1341,59.5c-5.8,0-11.7-0.4-17.6-1.1v13c4.2,0,8.4,0.1,12.6,0.1c0.9,0,1.8,0,2.7,0c2.2-4,4.4-8,6.6-12
	C1343.9,59.6,1342.5,59.5,1341,59.5z"/>
<path d="M1363.7,24.9l-12.4-18.3h-11.9c-1.8,3.7-3.7,7.4-5.6,11.1c7.8,6.7,15.4,13.6,23,20.8C1359.1,34,1361.4,29.5,1363.7,24.9z"/>
<path d="M1356.7,38.5c-7.6-7.2-15.2-14.1-23-20.8c-3.4,6.6-6.8,13.2-10.4,19.7V43c10.4-0.1,20.8-0.2,31.2-0.5
	C1355.3,41.2,1356,39.9,1356.7,38.5z"/>
<path d="M1323.4,43v5.3c7.8,2.9,15.6,5.7,23.4,8.6c2.6-4.8,5.2-9.6,7.8-14.4C1344.2,42.8,1333.8,42.9,1323.4,43z"/>
<path d="M1351.5,88.8c-6.6,5.6-13.8,9.9-20.9,14.5h20.9V88.8z"/>
<path d="M1391.8,6.6h-4.1v1.8c4.8,1.7,9.6,3.3,14.6,4.8C1398.8,11,1395.3,8.8,1391.8,6.6z"/>
<path d="M1413,16.5c1,0.3,1.9,0.5,2.8,0.8V6.6h-24.1c3.5,2.2,7,4.4,10.5,6.6C1405.8,14.4,1409.4,15.5,1413,16.5z"/>
<path d="M1398.4,41.3c-3.6,0.1-7.2,0.3-10.8,0.4v9.7C1391.2,48,1394.8,44.7,1398.4,41.3z"/>
<path d="M1415.8,25v-2.5c-4.5-3.1-9-6.2-13.6-9.2c-4.9-1.5-9.8-3.2-14.6-4.8v33.3c3.6-0.1,7.2-0.2,10.8-0.4
	C1404.3,35.9,1410.1,30.5,1415.8,25z"/>
<path d="M1415.8,17.3c-1-0.3-1.9-0.5-2.8-0.8c-3.6-1-7.2-2.1-10.8-3.2c4.6,3,9.1,6.1,13.6,9.2V17.3z"/>
<path d="M1366.7,72.7l15.3,22.5c5.3-5.7,10.6-11.5,15.8-17.3c-1.4-1.3-2.8-2.6-4.3-3.9c-1.7-0.6-3.4-1.2-5.2-1.9c-7,0-14-0.1-21-0.2
	C1367.2,72.2,1367,72.4,1366.7,72.7z"/>
<path d="M1367.4,71.9c7,0.1,14,0.1,21,0.2c-5.3-1.9-10.6-3.8-15.8-5.7C1370.9,68.2,1369.1,70.1,1367.4,71.9z"/>
<path d="M1397.9,77.9c0.5-0.6,1.1-1.2,1.6-1.8c-2-0.7-3.9-1.4-5.9-2.1C1395,75.3,1396.5,76.6,1397.9,77.9z"/>
<path d="M1379.1,60.4c4.1,4,8.3,7.9,12.5,11.8c3.8,0,7.6,0,11.4,0.1c3.3-3.6,6.5-7.3,9.8-11C1401.6,60.9,1390.4,60.6,1379.1,60.4z"
	/>
<path d="M1393.6,74c2,0.7,3.9,1.4,5.9,2.1c1.2-1.3,2.3-2.6,3.5-3.9c-3.8,0-7.6,0-11.4-0.1C1392.3,72.7,1393,73.4,1393.6,74z"/>
<path d="M1398.4,41.3c-3.6,3.4-7.2,6.7-10.8,10.1v8.7l-3.6-5.3c-1.8,1.7-3.5,3.4-5.3,5.2c0.1,0.1,0.2,0.2,0.3,0.3
	c11.2,0.3,22.4,0.6,33.6,0.8c1-1.2,2-2.3,3.1-3.5V40.7C1410,40.9,1404.2,41.1,1398.4,41.3z"/>
<path d="M1415.8,25c-5.7,5.5-11.6,10.9-17.4,16.3c5.8-0.2,11.6-0.4,17.4-0.7V25z"/>
<path d="M1393.6,74c-0.7-0.6-1.3-1.2-2-1.8c-1.1,0-2.1,0-3.2,0C1390.2,72.7,1391.9,73.3,1393.6,74z"/>
<path d="M1378.6,60.4c-2,2-4,4-5.9,6c5.3,1.9,10.5,3.8,15.8,5.7c1.1,0,2.1,0,3.2,0c-4.2-3.9-8.4-7.8-12.5-11.8
	C1379,60.4,1378.8,60.4,1378.6,60.4z"/>
<path d="M1378.6,60.4c0.2,0,0.4,0,0.6,0c-0.1-0.1-0.2-0.2-0.3-0.3C1378.7,60.2,1378.7,60.3,1378.6,60.4z"/>
<path d="M1415.8,96.4c-2.3,2.3-4.5,4.6-6.7,6.9h6.7V96.4z"/>
<path d="M1382.1,95.1l5.6,8.2h21.4c2.2-2.3,4.5-4.6,6.7-6.9v-2.3c-6-5.4-12-10.8-18-16.3C1392.7,83.7,1387.4,89.4,1382.1,95.1z"/>
<path d="M1397.9,77.9c6,5.5,12,10.9,18,16.3V81.9c-5.5-1.9-10.9-3.9-16.3-5.8C1399,76.7,1398.4,77.3,1397.9,77.9z"/>
<path d="M1399.5,76.1c5.4,2,10.9,3.9,16.3,5.8v-9.7c-4.3,0-8.6,0-12.8,0C1401.8,73.5,1400.7,74.8,1399.5,76.1z"/>
<path d="M1412.8,61.2c-3.2,3.7-6.5,7.3-9.8,11c4.3,0,8.6,0,12.8,0V61.3C1414.8,61.3,1413.8,61.2,1412.8,61.2z"/>
<path d="M1412.8,61.2c1,0,2,0.1,3.1,0.1v-3.5C1414.8,58.9,1413.8,60.1,1412.8,61.2z"/>
<path d="M1366.7,72.7c0.2-0.2,0.5-0.5,0.7-0.7c-0.4,0-0.8,0-1.2,0L1366.7,72.7z"/>
<path d="M1359.1,61.4l7.1,10.5c0.4,0,0.8,0,1.2,0c1.7-1.9,3.5-3.7,5.2-5.5C1368.1,64.7,1363.6,63.1,1359.1,61.4z"/>
<path d="M1323.4,99.3v4h7.2c7.1-4.6,14.3-9,20.9-14.5V71.7c-4.2-0.1-8.5-0.1-12.7-0.2C1333.6,80.8,1328.5,90,1323.4,99.3z"/>
<path d="M1345.4,59.6c-2.2,4-4.4,8-6.6,12c4.2,0.1,8.5,0.1,12.7,0.2v-12C1349.4,59.7,1347.4,59.6,1345.4,59.6z"/>
<path d="M1346.8,57c-0.5,0.9-1,1.8-1.5,2.6c2,0,4.1,0.1,6.1,0.1v-1.1C1349.9,58.1,1348.4,57.5,1346.8,57z"/>
<path d="M1359.1,61.4c4.5,1.6,9,3.3,13.5,4.9c2-2,3.9-4,5.9-6c-6.8-0.2-13.7-0.3-20.5-0.5L1359.1,61.4z"/>
<path d="M1360.8,42.4c-2.1,0-4.2,0.1-6.2,0.1c-2.6,4.8-5.1,9.6-7.8,14.4c1.6,0.6,3.1,1.1,4.7,1.7v-8.4l6.6,9.6
	c6.8,0.2,13.7,0.3,20.5,0.5c0.1-0.1,0.2-0.2,0.3-0.3c-4-3.8-7.9-7.7-11.8-11.6C1364.9,46.4,1362.9,44.4,1360.8,42.4z"/>
<path d="M1356.7,38.5c-0.7,1.4-1.4,2.7-2.2,4.1c2.1,0,4.2-0.1,6.2-0.1C1359.4,41.1,1358.1,39.8,1356.7,38.5z"/>
<path d="M1360.8,42.4c2.1,2,4.1,4,6.2,6.1c3.9,3.9,7.9,7.8,11.8,11.6c1.7-1.7,3.5-3.5,5.3-5.2l-8.7-12.8
	C1370.5,42.2,1365.7,42.3,1360.8,42.4z"/>
<path d="M1363.7,24.9c-2.3,4.5-4.6,9.1-7,13.6c1.4,1.3,2.7,2.6,4.1,3.9c4.9-0.1,9.7-0.2,14.6-0.4L1363.7,24.9z"/>
<path d="M1436.1,23.1v11.2c2.5-3,5-6,7.5-9C1441.1,24.6,1438.6,23.8,1436.1,23.1z"/>
<path d="M1459,6.6h-22.9v16.4c2.5,0.7,5,1.5,7.5,2.2C1448.8,19.1,1453.9,12.9,1459,6.6z"/>
<path d="M1436.1,39.7v22c4.8,0.1,9.6,0.2,14.4,0.3c2.1-2.1,4.2-4.2,6.4-6.3c-5.9-5.6-12.1-11-18.5-16.2
	C1437.6,39.7,1436.9,39.7,1436.1,39.7z"/>
<path d="M1436.1,37.7v2c0.8,0,1.5-0.1,2.3-0.1C1437.6,39,1436.9,38.4,1436.1,37.7z"/>
<path d="M1436.1,76.3c1.4-1.3,2.8-2.7,4.1-4.1c-1.4,0-2.8,0-4.1,0V76.3z"/>
<path d="M1436.1,61.8v10.4c1.4,0,2.8,0,4.1,0c3.4-3.4,6.9-6.7,10.3-10.1C1445.7,62,1440.9,61.9,1436.1,61.8z"/>
<path d="M1466,32c-7.4-2.2-14.9-4.5-22.3-6.7c-2.5,3-5,6-7.5,9v3.4c0.8,0.6,1.5,1.3,2.3,1.9c9.2-0.5,18.4-1,27.6-1.5V32z"/>
<path d="M1438.4,39.6c6.4,5.2,12.5,10.6,18.5,16.2c3-3,6.1-6.1,9.1-9.1v-8.5C1456.8,38.7,1447.6,39.2,1438.4,39.6z"/>
<path d="M1466,28.5h7.5c3.1,0,5.9,0.3,8.3,1c4.1-7.3,8.3-14.5,12.7-21.6c-4-0.8-8.6-1.3-13.9-1.3H1459c-5.1,6.3-10.2,12.5-15.4,18.7
	c7.5,2.2,14.9,4.4,22.3,6.7V28.5z"/>
<path d="M1485,26.5c5-5.7,9.8-11.4,14.5-17.2c-1.6-0.6-3.3-1-5.1-1.4c-4.4,7.1-8.6,14.3-12.7,21.6c0.2,0,0.3,0.1,0.5,0.1
	C1483.1,28.6,1484.1,27.5,1485,26.5z"/>
<path d="M1494.5,98.8c0.6,0.8,1.1,1.6,1.7,2.5c0.7-0.2,1.4-0.3,2.1-0.5c4.8-1.3,9.3-3.8,13.5-7.7c4.2-3.8,7.4-8.6,9.8-14.3
	c0.8-2,1.5-4.3,2-6.8c-3.4,0-6.9,0-10.3,0C1507.2,81,1500.9,90,1494.5,98.8z"/>
<path d="M1519.2,62.9c-2,3-4,6.1-6,9.1c3.4,0,6.9,0,10.3,0c0.6-2.7,1-5.7,1.2-9C1522.9,62.9,1521.1,62.9,1519.2,62.9z"/>
<path d="M1525.1,53.7c-1.9,3.1-3.9,6.1-5.8,9.2c1.9,0,3.7,0,5.6,0c0.2-2.6,0.3-5.3,0.3-8.2C1525.1,54.4,1525.1,54,1525.1,53.7z"/>
<path d="M1494.5,98.8c-0.8,1.1-1.6,2.3-2.5,3.4c1.4-0.3,2.8-0.6,4.2-0.9C1495.6,100.4,1495,99.6,1494.5,98.8z"/>
<path d="M1449,97.5c0.3-1.2,0.6-2.5,0.9-3.7c-4.6-1.6-9.2-3.2-13.8-4.8v14.3h12.1C1448.4,101.4,1448.7,99.5,1449,97.5z"/>
<path d="M1464.3,63c0.1-0.2,0.2-0.4,0.3-0.7c-0.3,0-0.7,0-1,0C1463.8,62.6,1464.1,62.8,1464.3,63z"/>
<path d="M1466,46.7c-3,3.1-6,6.1-9.1,9.1c2.3,2.1,4.5,4.3,6.7,6.5c0.3,0,0.7,0,1,0c0.5-0.9,0.9-1.9,1.4-2.8V46.7z"/>
<path d="M1436.1,76.3V89c4.6,1.6,9.2,3.2,13.8,4.8c2.2-7.7,5.8-14.7,9.6-21.7c-6.4,0-12.9,0-19.3,0
	C1438.8,73.6,1437.5,74.9,1436.1,76.3z"/>
<path d="M1463.6,62.3c-4.4-0.1-8.7-0.2-13.1-0.3c-3.4,3.4-6.9,6.8-10.3,10.1c6.4,0,12.9,0,19.3,0c1.6-3,3.2-6,4.8-9.2
	C1464.1,62.8,1463.8,62.6,1463.6,62.3z"/>
<path d="M1450.5,62.1c4.4,0.1,8.7,0.2,13.1,0.3c-2.2-2.2-4.5-4.4-6.7-6.5C1454.8,57.9,1452.7,60,1450.5,62.1z"/>
<path d="M1464.3,63c0.6,0.6,1.1,1.1,1.7,1.7v-2.4c-0.5,0-0.9,0-1.4,0C1464.5,62.6,1464.4,62.8,1464.3,63z"/>
<path d="M1464.6,62.4c0.5,0,0.9,0,1.4,0v-2.8C1465.5,60.5,1465.1,61.4,1464.6,62.4z"/>
<path d="M1495.1,55.3c0,2.8-0.1,5.3-0.3,7.5c6,0.1,11.9,0.1,17.9,0.1c3-4.5,6-8.9,9-13.4c-9.4-3.1-18.9-6.1-28.3-9.1
	C1494.5,44.2,1495.1,49.2,1495.1,55.3z"/>
<path d="M1492.8,72.1c-1.5,3.5-3.6,5.9-6.2,7.3c-1.4,0.8-3.4,1.3-5.9,1.6c3.5,4.1,6.8,8.4,10.1,12.7c5.4-7.2,10.6-14.4,15.6-21.7
	C1501.9,72,1497.3,72,1492.8,72.1C1492.8,72,1492.8,72,1492.8,72.1z"/>
<path d="M1494.8,62.8c-0.3,4-1,7.1-1.9,9.3c4.5,0,9,0,13.6-0.1c2.1-3,4.2-6.1,6.3-9.1C1506.7,62.9,1500.7,62.8,1494.8,62.8z"/>
<path d="M1464.3,63c-1.6,3.1-3.2,6.1-4.8,9.2c2.2,0,4.3,0,6.5,0v-7.4C1465.4,64.2,1464.9,63.6,1464.3,63z"/>
<path d="M1449.9,93.8c9.3,3.2,18.7,6.4,28.1,9.5h2.5c1,0,2,0,3-0.1c2.4-3.2,4.9-6.4,7.2-9.6c-3.2-4.4-6.6-8.6-10.1-12.7
	c-2.1,0.3-4.5,0.4-7.4,0.4h-7.3v-9.2c-2.2,0-4.3,0-6.5,0C1455.8,79.2,1452.1,86.1,1449.9,93.8z"/>
<path d="M1449.9,93.8c-0.3,1.2-0.7,2.4-0.9,3.7c-0.3,2-0.6,3.9-0.8,5.9h29.8C1468.6,100.2,1459.2,97.1,1449.9,93.8z"/>
<path d="M1515.1,20.4c-3.5-4.4-8-7.8-13.4-10.2c-0.7-0.3-1.5-0.6-2.2-0.9c-4.7,5.8-9.5,11.5-14.5,17.2c-0.9,1-1.9,2.1-2.8,3.1
	c3.3,0.9,6,2.4,7.9,4.6c0.6,0.7,1.1,1.4,1.6,2.3c10.2-0.7,20.4-1.4,30.6-2.2C1520.6,29.1,1518.2,24.5,1515.1,20.4z"/>
<path d="M1522.2,34.3c-10.2,0.8-20.4,1.5-30.6,2.2c0.6,1.1,1.2,2.4,1.6,3.9c9.5,3,18.9,6,28.3,9.1c1-1.5,1.9-2.9,2.9-4.4
	c-0.4-3.1-1-6.2-1.8-9.2C1522.6,35.4,1522.4,34.8,1522.2,34.3z"/>
<path d="M1494.5,98.8c-1.2-1.7-2.4-3.4-3.7-5.1c-2.4,3.2-4.8,6.4-7.2,9.6c2.7-0.2,5.5-0.5,8.5-1.1
	C1492.8,101,1493.6,99.9,1494.5,98.8z"/>
<path d="M1490.8,93.7c1.2,1.7,2.5,3.4,3.7,5.1c6.5-8.8,12.7-17.7,18.8-26.8c-2.3,0-4.6,0-6.9,0C1501.3,79.3,1496.1,86.5,1490.8,93.7
	z"/>
<path d="M1512.7,62.9c-2.1,3-4.2,6.1-6.3,9.1c2.3,0,4.6,0,6.9,0c2-3,4-6,6-9.1C1517,62.9,1514.9,62.9,1512.7,62.9z"/>
<path d="M1525,50.5c-1.1-0.4-2.2-0.7-3.3-1.1c-2.9,4.5-5.9,9-9,13.4c2.2,0,4.4,0,6.6,0c2-3,3.9-6.1,5.8-9.2
	C1525.1,52.6,1525,51.6,1525,50.5z"/>
<path d="M1524.5,45.1c-0.9,1.5-1.9,2.9-2.9,4.4c1.1,0.4,2.2,0.7,3.3,1.1C1524.9,48.7,1524.7,46.9,1524.5,45.1z"/>
<path d="M1540.7,6.6v12.6c2.5-4.2,5.1-8.4,7.6-12.6H1540.7z"/>
<path d="M1548.3,6.6c-2.5,4.2-5,8.4-7.6,12.6v7.9c3.7-6.7,7.4-13.6,10.8-20.5H1548.3z"/>
<path d="M1599.6,18.5c-7.2-2.1-14.4-4.2-21.6-6.2c-2.1,5-4.1,10-6.2,15h23.8C1596.9,24.4,1598.3,21.4,1599.6,18.5z"/>
<path d="M1605,6.6h-24.7c-0.8,1.9-1.5,3.7-2.3,5.6c7.2,2,14.4,4.1,21.6,6.2C1601.4,14.5,1603.2,10.6,1605,6.6z"/>
<path d="M1620.8,24.9c-7-2.2-14.1-4.3-21.2-6.4c-1.3,2.9-2.7,5.9-4,8.8h4.5c6.9-0.7,13.8-1.4,20.7-2.2V24.9z"/>
<path d="M1620.8,25.1c-6.9,0.7-13.8,1.5-20.7,2.2h20.7V25.1z"/>
<path d="M1620.8,6.6H1605c-1.8,4-3.6,7.9-5.4,11.9c7.1,2.1,14.1,4.2,21.2,6.4V6.6z"/>
<path d="M1614.2,62.4h2.9v-2c-0.7,0-1.4,0.1-2.1,0.1C1614.8,61.1,1614.5,61.8,1614.2,62.4z"/>
<path d="M1615.1,60.5c0.7,0,1.4-0.1,2.1-0.1v-4.6C1616.5,57.3,1615.8,58.9,1615.1,60.5z"/>
<path d="M1579.5,62.4h24.1c0.3-0.5,0.6-0.9,1-1.4c-8.3,0.4-16.6,0.7-24.9,1C1579.6,62.1,1579.5,62.3,1579.5,62.4z"/>
<path d="M1579.6,62c8.3-0.3,16.6-0.6,24.9-1c4.2-5.9,8.4-11.8,12.6-17.9v-0.4h-28.6C1585.6,49.1,1582.6,55.6,1579.6,62z"/>
<path d="M1603.6,62.4h10.7c0.3-0.6,0.6-1.3,0.8-1.9c-3.5,0.2-7,0.4-10.5,0.5C1604.2,61.5,1603.9,61.9,1603.6,62.4z"/>
<path d="M1615.1,60.5c0.7-1.6,1.4-3.2,2.1-4.8V43.1c-4.2,6.1-8.4,12-12.6,17.9C1608,60.9,1611.6,60.7,1615.1,60.5z"/>
<path d="M1540.7,101.1v2.3h19.4c3.5-7.4,7-14.7,10.5-22.1v-9.5c-5.9,0-11.7,0-17.6,0C1548.9,81.6,1544.8,91.3,1540.7,101.1z"/>
<path d="M1560.7,62.5c-1.2,0-2.4,0-3.7,0.1c-1.3,3.1-2.6,6.2-3.9,9.3c5.9,0,11.7,0,17.6,0v-5.9C1567.3,64.8,1564,63.6,1560.7,62.5z"
	/>
<path d="M1557,62.6c1.2,0,2.4,0,3.7-0.1c-1.1-0.4-2.1-0.7-3.2-1.1C1557.3,61.8,1557.2,62.2,1557,62.6z"/>
<path d="M1570.7,65.9v-3.5h8.8c0.1-0.1,0.1-0.3,0.2-0.4c-6.3,0.2-12.7,0.4-19,0.5C1564,63.6,1567.3,64.8,1570.7,65.9z"/>
<path d="M1570.7,30.1C1570.7,30.1,1570.6,30.2,1570.7,30.1C1570.6,30.2,1570.7,30.2,1570.7,30.1L1570.7,30.1z"/>
<path d="M1570.7,30.2C1570.7,30.2,1570.6,30.2,1570.7,30.2c-4.4,10.4-8.8,20.8-13.2,31.2c1.1,0.4,2.1,0.7,3.2,1.1
	c6.3-0.1,12.6-0.3,19-0.5c3-6.4,6-12.9,8.9-19.3h-17.9V30.2z"/>
<path d="M1622.2,89.5c-2.9,4.6-5.8,9.3-8.8,13.9h8.8V89.5z"/>
<path d="M1622.2,84.2v-2.7h-7.6C1617.2,82.4,1619.7,83.3,1622.2,84.2z"/>
<path d="M1605.9,81.5c-3.1,7.3-6.2,14.6-9.2,21.9h16.7c2.9-4.6,5.9-9.3,8.8-13.9v-5.3c-2.5-0.9-5-1.8-7.6-2.7H1605.9z"/>
<path d="M1570.7,81.3c-3.5,7.4-7,14.7-10.5,22.1h16c4.6-7.7,9.3-14.9,14.1-21.9h-19.5V81.3z"/>
<path d="M1576.1,103.4h20.7c3-7.3,6.1-14.6,9.2-21.9h-15.8C1585.4,88.5,1580.7,95.7,1576.1,103.4z"/>
<path d="M1540.7,101.1c4.1-9.8,8.2-19.5,12.4-29.3c-4.1,0-8.2,0-12.4,0V101.1z"/>
<path d="M1540.7,62.8v9.1c4.1,0,8.2,0,12.4,0c1.3-3.1,2.6-6.2,3.9-9.3C1551.6,62.7,1546.1,62.7,1540.7,62.8z"/>
<path d="M1540.7,55.8v7c5.4-0.1,10.8-0.1,16.3-0.2c0.2-0.4,0.3-0.8,0.5-1.2C1551.9,59.5,1546.3,57.6,1540.7,55.8z"/>
<path d="M1570.7,30.1v-2.8h1.2c2.1-5,4.1-10,6.2-15c-6.7-1.9-13.4-3.8-20.1-5.6h-6.4c-3.5,6.9-7.1,13.8-10.8,20.5v5.7
	C1550.7,32,1560.7,31.1,1570.7,30.1C1570.6,30.2,1570.7,30.1,1570.7,30.1z"/>
<path d="M1540.7,32.8v23c5.6,1.9,11.2,3.7,16.8,5.6c4.4-10.4,8.8-20.8,13.2-31.2C1560.7,31.1,1550.7,32,1540.7,32.8z"/>
<path d="M1580.3,6.6h-22.4c6.7,1.9,13.4,3.7,20.1,5.6C1578.8,10.4,1579.6,8.5,1580.3,6.6z"/>
<path d="M1633.6,71.3l-0.5,0c0,0.2,0,0.4,0.1,0.6C1633.3,71.8,1633.5,71.6,1633.6,71.3z"/>
<path d="M1645,96.5c6.5,5.6,17.5,8.5,33,8.5c-10.4-4-20.8-7.9-31.2-11.8C1646.2,94.3,1645.6,95.4,1645,96.5z"/>
<path d="M1673.9,43.1c-2.3,4.4-4.7,8.8-7.1,13.2c8.9-1.1,17.8-2.6,26.7-4.1c0-0.5,0.1-0.9,0.1-1.4
	C1687.1,48.2,1680.5,45.6,1673.9,43.1z"/>
<path d="M1661.6,69.6l-1.9,0.1c-0.5,0.9-1,1.8-1.4,2.6c1.3,0,2.6,0,3.9,0.1C1661.9,71.5,1661.7,70.6,1661.6,69.6z"/>
<path d="M1693.5,52.3c-8.9,1.5-17.8,2.9-26.7,4.1c-0.9,1.6-1.8,3.3-2.7,4.9c2.8,0.9,5.8,1.6,9.1,2.4c8,1.8,13.1,3.6,15.3,5.6
	c1.6,1.5,2.7,3.1,3.1,4.8c0.2,0,0.4,0,0.6,0.1C1692.7,66.9,1693.1,59.6,1693.5,52.3z"/>
<path d="M1691.6,74.2c0.1,0.6,0.2,1.2,0.2,1.9c0,2.6-1.2,5-3.5,7c-2.3,2-5.6,3-9.9,3c-5.7,0-10.1-2-13.2-5.9
	c-1.5-1.9-2.6-4.5-3.3-7.7c-1.3,0-2.6,0-3.9-0.1c-3.8,7-7.6,13.9-11.4,20.9c10.4,3.9,20.8,7.8,31.2,11.8c0,0,0,0,0,0
	c0.1,0,0.2,0,0.4,0c4.9-8.6,9.5-17.6,13.6-26.7c0.1-1.4,0.2-2.7,0.2-4.1C1692,74.2,1691.8,74.2,1691.6,74.2z"/>
<path d="M1676.5,38.3c-0.9,1.6-1.7,3.2-2.6,4.9c6.6,2.5,13.1,5.1,19.7,7.8c0.1-2.1,0.3-4.3,0.4-6.4c0-0.6,0.1-1.1,0.1-1.7
	C1689.3,41.3,1683.5,39.8,1676.5,38.3C1676.6,38.3,1676.5,38.3,1676.5,38.3z"/>
<path d="M1701.6,54.3c-1.9-0.8-3.8-1.6-5.7-2.4c-0.8,0.1-1.6,0.3-2.4,0.4c-0.4,7.3-0.9,14.6-1.3,21.9c0.5,0.1,1,0.1,1.5,0.2
	C1696.6,67.8,1699.2,61.1,1701.6,54.3z"/>
<path d="M1693.7,74.4c-0.5-0.1-1-0.1-1.5-0.2c-0.1,1.4-0.2,2.7-0.2,4.1C1692.6,77,1693.1,75.7,1693.7,74.4z"/>
<path d="M1693.5,52.3c0.8-0.1,1.6-0.3,2.4-0.4c-0.8-0.3-1.5-0.7-2.3-1C1693.6,51.4,1693.6,51.9,1693.5,52.3z"/>
<path d="M1694,44.5c-0.1,2.1-0.3,4.3-0.4,6.4c0.8,0.3,1.5,0.7,2.3,1c2.3-0.4,4.6-0.8,6.9-1.2c0.5-1.3,0.9-2.7,1.3-4.1
	c-2.6-1.3-6-2.6-10.1-3.9C1694.1,43.4,1694,43.9,1694,44.5z"/>
<path d="M1701.6,54.3c0.4-1.2,0.8-2.4,1.2-3.6c-2.3,0.4-4.6,0.8-6.9,1.2C1697.8,52.7,1699.7,53.5,1701.6,54.3z"/>
<path d="M1690.6,104c0.4-8.6,0.8-17.1,1.4-25.7c-4.1,9.1-8.6,18-13.6,26.7C1682.8,105,1686.9,104.6,1690.6,104z"/>
<path d="M1701.6,54.3c2.5,1.1,4.9,2.1,7.4,3.2c3.6,1.6,7,3.3,10.4,5.1c-0.6-1.7-1.4-3.4-2.4-5c-1.8-3-4.4-5.7-7.8-8
	c-2.1,0.4-4.2,0.7-6.3,1.1C1702.5,51.9,1702.1,53.1,1701.6,54.3z"/>
<path d="M1704.2,46.6c-0.4,1.4-0.9,2.7-1.3,4.1c2.1-0.4,4.2-0.7,6.3-1.1c-1.4-1-2.9-1.9-4.6-2.7
	C1704.5,46.8,1704.4,46.7,1704.2,46.6z"/>
<path d="M1720.9,71.9c0-3.3-0.5-6.4-1.5-9.3c-3.4-1.8-6.8-3.5-10.4-5.1c-2.5-1.1-4.9-2.2-7.4-3.2c-2.4,6.8-5.1,13.5-7.9,20.1
	c8.9,1,17.8,2.2,26.6,3.4C1720.7,75.8,1720.9,73.9,1720.9,71.9z"/>
<path d="M1693.7,74.4c-0.6,1.3-1.1,2.6-1.7,3.9c-0.5,8.6-1,17.1-1.4,25.7c4-0.7,7.6-1.7,10.7-3.1c6.2-2.7,10.9-6.7,14.4-11.9
	c2.3-3.5,3.8-7.3,4.6-11.3C1711.5,76.6,1702.6,75.4,1693.7,74.4z"/>
<path d="M1639.8,90.6c2.3,0.9,4.7,1.7,7,2.6c3.8-7,7.6-13.9,11.4-20.9c-8.3-0.1-16.7-0.2-25-0.3
	C1633.9,79.1,1636.1,85.3,1639.8,90.6z"/>
<path d="M1633.6,71.3c-0.1,0.2-0.3,0.4-0.4,0.7c0,0,0,0,0,0c8.3,0.1,16.7,0.2,25,0.3c0.5-0.9,1-1.8,1.4-2.6L1633.6,71.3z"/>
<path d="M1643.9,95.5c0.3,0.4,0.7,0.7,1.1,1c0.6-1.1,1.2-2.2,1.8-3.3c-2.3-0.9-4.7-1.7-7-2.6C1641,92.3,1642.3,94,1643.9,95.5z"/>
<path d="M1696.5,7.4c-1.2-0.4-2.5-0.7-3.9-1c-1.7,3.6-3.5,7.2-5.3,10.9c2.9-0.4,5.7-0.7,8.6-1.1C1696.1,13.2,1696.3,10.3,1696.5,7.4
	z"/>
<path d="M1687.3,17.2c-1.3,2.6-2.6,5.2-3.9,7.8c0.5,0.3,1,0.6,1.4,1c2.4,2,4,5.1,4.7,9.5l5-0.3c0.4-6.4,0.9-12.7,1.3-19.1
	C1693,16.5,1690.2,16.9,1687.3,17.2z"/>
<path d="M1706.1,11.9c-2.7-1.9-5.9-3.4-9.6-4.5c-0.2,2.9-0.4,5.8-0.6,8.8c4.4-0.6,8.8-1.2,13.2-1.8
	C1708.2,13.5,1707.2,12.6,1706.1,11.9z"/>
<path d="M1709.1,14.4c-4.4,0.6-8.8,1.2-13.2,1.8c-0.5,6.4-0.9,12.7-1.3,19.1l13.3-0.8c1.5-5.5,2.9-11.1,4-16.8
	C1711,16.5,1710.1,15.4,1709.1,14.4z"/>
<path d="M1707.9,34.4l9.8-0.6c-0.8-6.6-2.7-12-5.8-16.2C1710.7,23.3,1709.4,28.9,1707.9,34.4z"/>
<path d="M1664.2,61.3c0.9-1.6,1.8-3.3,2.7-4.9c-4.1,0.5-8.1,1-12.2,1.4C1657.4,59,1660.6,60.2,1664.2,61.3z"/>
<path d="M1645.5,52.2c2.4,2,5.4,3.9,9.1,5.5c4.1-0.4,8.2-0.8,12.2-1.4c2.4-4.4,4.8-8.8,7.1-13.2c-6.2-2.3-12.4-4.6-18.6-6.8
	C1652.1,41.6,1648.8,46.9,1645.5,52.2z"/>
<path d="M1692.6,6.4c-4.3-0.9-9.3-1.4-14.8-1.4c-1.1,0-2.2,0-3.2,0.1c-3.1,5-6.1,10-9.2,14.9c7.3-0.9,14.6-1.8,21.9-2.7
	C1689.1,13.6,1690.9,10,1692.6,6.4z"/>
<path d="M1667,25.2c1.8-1.5,4.4-2.2,7.8-2.2c3.4,0,6.3,0.7,8.5,2c1.3-2.6,2.6-5.2,3.9-7.8c-7.3,0.9-14.6,1.9-21.9,2.7
	c-3.4,5.5-6.7,10.9-10.1,16.4c6.2,2.2,12.4,4.4,18.6,6.8c0.9-1.6,1.7-3.2,2.6-4.9c-5.2-1.1-8.5-2.3-9.9-3.5
	c-1.5-1.2-2.2-2.6-2.2-4.2C1664.4,28.5,1665.3,26.7,1667,25.2z"/>
<path d="M1636.8,33.3c0,7.6,2.8,13.8,8.4,18.7c0.1,0.1,0.2,0.2,0.3,0.3c3.3-5.3,6.6-10.6,9.8-15.9c-6.1-2.1-12.2-4.2-18.4-6.2
	C1636.8,31.2,1636.8,32.2,1636.8,33.3z"/>
<path d="M1639,23.1c-1,2.3-1.7,4.6-2,7c6.1,2,12.3,4.1,18.4,6.2c3.4-5.5,6.7-10.9,10.1-16.4C1656.6,21.1,1647.8,22.1,1639,23.1z"/>
<path d="M1674.6,5.1c-8.5,0.2-15.4,1.5-20.6,3.7c-5.8,2.5-10.1,6-13,10.4c-0.8,1.3-1.5,2.6-2.1,3.9c8.8-1,17.7-2,26.5-3.1
	C1668.5,15,1671.6,10,1674.6,5.1z"/>
</svg>
