<?xml version="1.0" encoding="iso-8859-1"?>
<!-- Generator: Adobe Illustrator 16.0.0, SVG Export Plug-In . SVG Version: 6.00 Build 0)  -->
<!DOCTYPE svg PUBLIC "-//W3C//DTD SVG 1.1//EN" "http://www.w3.org/Graphics/SVG/1.1/DTD/svg11.dtd">
<svg version="1.1" id="title" xmlns="http://www.w3.org/2000/svg" xmlns:xlink="http://www.w3.org/1999/xlink" x="0px" y="0px"
	 width="1427.9px" height="110px" viewBox="0 0 1427.9 110" style="enable-background:new 0 0 1427.9 110;" xml:space="preserve">
<path d="M17.8,36.5c2.1-2.1,4.3-4.2,6.4-6.3c-2.1-0.5-4.3-1-6.4-1.4V36.5z"/>
<path d="M17.8,24.3v4.5c2.1,0.4,4.3,0.9,6.4,1.4c2-2,4.1-4,6.2-5.9H17.8z"/>
<path d="M47.9,24.3H37.4c2.5,1.1,5.1,2.2,7.6,3.3C45.9,26.5,46.9,25.4,47.9,24.3z"/>
<path d="M17.8,56.6c0.1-0.1,0.2-0.2,0.3-0.3c-0.1,0-0.2-0.1-0.3-0.1V56.6z"/>
<path d="M17.8,36.5v19.7c0.1,0,0.2,0.1,0.3,0.1c7.2-7.2,14.1-14.7,20.9-22.2c-4.9-1.5-9.8-2.8-14.8-3.9C22.1,32.3,20,34.4,17.8,36.5
	z"/>
<path d="M37.4,24.3h-6.9c-2.1,1.9-4.2,3.9-6.2,5.9c5,1.1,9.9,2.5,14.8,3.9c2-2.2,3.9-4.4,5.9-6.5C42.4,26.5,39.9,25.4,37.4,24.3z"/>
<path d="M50.6,60.6h10.1V48.2h-0.2C57.2,52.3,53.9,56.5,50.6,60.6z"/>
<path d="M37.2,60.6h13.4c3.3-4.1,6.6-8.3,9.9-12.4H47.4C44,52.3,40.6,56.5,37.2,60.6z"/>
<path d="M17.8,84.7v1h12.7c2.1-2.6,4.2-5.3,6.3-7.9V62.5c-0.3-0.1-0.6-0.2-0.9-0.3C29.9,69.7,23.9,77.2,17.8,84.7z"/>
<path d="M36.9,62.5V61c-0.3,0.4-0.6,0.8-0.9,1.2C36.3,62.3,36.6,62.4,36.9,62.5z"/>
<path d="M36.9,85.7v-7.9c-2.1,2.6-4.2,5.3-6.3,7.9H36.9z"/>
<path d="M64.8,27.4v-0.8c-1.3-0.7-2.5-1.5-3.8-2.3H47.9c-1,1.1-2,2.2-2.9,3.3c4.8,2.1,9.6,4.2,14.3,6.4
	C61.1,31.8,62.9,29.6,64.8,27.4z"/>
<path d="M17.8,56.6v28.2c6.1-7.5,12.1-15.1,18.1-22.5c-6-1.9-11.9-3.9-17.9-5.9C18,56.4,17.9,56.5,17.8,56.6z"/>
<path d="M56.3,37.5c1-1.2,2-2.4,3-3.5c-4.8-2.1-9.5-4.3-14.3-6.4c-2,2.2-3.9,4.4-5.9,6.5c3.5,1,7,2.2,10.4,3.4H56.3z"/>
<path d="M49.5,37.5c-3.4-1.2-6.9-2.3-10.4-3.4c-6.8,7.5-13.8,15-20.9,22.2c5.9,2,11.9,4,17.9,5.9c0.3-0.4,0.6-0.8,0.9-1.2v-0.4h0.3
	c3.4-4.2,6.7-8.3,10.1-12.4H36.9V37.5H49.5z"/>
<path d="M64.8,24.3H61c1.2,0.8,2.5,1.5,3.8,2.3V24.3z"/>
<path d="M64.8,27.4c-1.9,2.2-3.7,4.4-5.5,6.5c1.8,0.8,3.7,1.7,5.5,2.5V27.4z"/>
<path d="M64.8,36.4c-1.8-0.8-3.7-1.7-5.5-2.5c-1,1.2-2,2.4-3,3.5h8.5V36.4z"/>
<path d="M75.3,24.3v5.9c1.6-2,3.3-3.9,4.9-5.9H75.3z"/>
<path d="M86.7,36.5c1.6-3.2,3.3-6.4,5-9.6c-1-0.9-2-1.8-3.1-2.7h-8.4c-1.7,1.9-3.3,3.9-4.9,5.9v1.8c0.2,0.1,0.4,0.2,0.6,0.3
	C79.5,33.6,83.1,35,86.7,36.5z"/>
<path d="M93,24.3h-4.5c1,0.9,2.1,1.8,3.1,2.7C92.1,26.1,92.6,25.2,93,24.3z"/>
<path d="M75.3,58.8c1.4-2.8,2.8-5.6,4.3-8.4c-1.4-0.7-2.8-1.5-4.3-2.2V58.8z"/>
<path d="M75.3,41.3v7c1.4,0.7,2.8,1.4,4.3,2.2c1-1.9,2-3.8,3-5.8C80.1,43.5,77.7,42.4,75.3,41.3z"/>
<path d="M86.7,36.5c-3.6-1.5-7.2-2.9-10.8-4.3c-0.2-0.1-0.4-0.2-0.6-0.3v9.4c2.4,1.1,4.8,2.3,7.2,3.4C83.9,41.9,85.3,39.2,86.7,36.5
	z"/>
<path d="M128.6,50.2c1.5-2.5,2.2-5.4,2.2-8.8c0-3.9-1-7.2-2.9-10c-0.3-0.5-0.7-0.9-1.1-1.4c-1.6,6.5-3.6,12.8-5.7,19.1
	c2.2,0.8,4.3,1.6,6.5,2.5C127.9,51.1,128.3,50.7,128.6,50.2z"/>
<path d="M127.6,51.6c-2.2-0.8-4.3-1.6-6.5-2.5c-0.2,0.5-0.3,1-0.5,1.5c1.9,0.8,3.8,1.6,5.7,2.4C126.8,52.7,127.2,52.1,127.6,51.6z"
	/>
<path d="M126.3,53.1c-1.9-0.8-3.8-1.6-5.7-2.4c-0.9,2.5-1.8,5-2.8,7.4c1.9-0.6,3.5-1.2,4.8-1.9C124,55.3,125.2,54.3,126.3,53.1z"/>
<path d="M111.7,42.8c0,0.7-0.1,1.4-0.3,2c1.4,0.9,2.9,1.7,4.5,2.3c1.7,0.7,3.5,1.3,5.2,2c2.2-6.3,4.1-12.7,5.7-19.1
	c-1.7-2-3.9-3.4-6.4-4.2c-1-0.3-2.1-0.6-3.3-0.8c-2.6,4.3-5.3,8.6-8,12.8c0.2,0.1,0.5,0.3,0.7,0.4C111,39.3,111.7,40.9,111.7,42.8z"
	/>
<path d="M121.1,49.2c-1.7-0.7-3.5-1.3-5.2-2c-1.6-0.7-3.1-1.5-4.5-2.3c-0.2,0.6-0.5,1.1-0.9,1.6c0,0,0,0,0,0
	c3.4,1.4,6.7,2.9,10.1,4.3C120.7,50.2,120.9,49.7,121.1,49.2z"/>
<path d="M117.4,59.1c-0.5-0.2-1-0.4-1.5-0.5c0.7-0.2,1.3-0.3,1.9-0.5c1-2.5,1.9-4.9,2.8-7.4c-3.4-1.4-6.7-2.9-10.1-4.3
	c-0.8,1-1.8,1.7-3.1,1.9c-2.5,0.6-4.2,0.8-5,0.8h-0.6c-0.8,1.2-1.6,2.4-2.4,3.6c5.8,2.8,11.5,5.7,17.2,8.6
	C116.8,60.6,117.1,59.9,117.4,59.1z"/>
<path d="M75.3,84.1v1.6h19.1v-8.3c-3.9-0.6-7.7-1.3-11.6-2.3C80.3,78.2,77.9,81.2,75.3,84.1z"/>
<path d="M104.1,66.9l5.4,10c0.9-1.9,1.8-3.7,2.6-5.6c-3.1-2.5-6.4-4.8-9.6-7C103.1,65,103.6,65.9,104.1,66.9z"/>
<path d="M99.3,52.8c-1.5,2.2-3,4.3-4.5,6.4c0.9,0.6,1.8,1.2,2.7,1.7c1.2,0.2,2.2,0.6,3.2,1.3c0.6,0.4,1.2,1.1,1.9,2.1
	c3.3,2.3,6.5,4.6,9.6,7c1.5-3.3,3-6.7,4.3-10C110.8,58.4,105.1,55.6,99.3,52.8z"/>
<path d="M82.8,75.2c3.9,0.9,7.7,1.7,11.6,2.3V60.8H96c0.5,0,1,0.1,1.5,0.1c-0.9-0.6-1.8-1.2-2.7-1.7C91,64.6,87,70,82.8,75.2z"/>
<path d="M128.3,85.7h0.4c-0.1-0.1-0.2-0.2-0.3-0.3C128.4,85.5,128.3,85.6,128.3,85.7z"/>
<path d="M131.7,77.8c-0.7,1.5-1.3,3.1-2,4.6c1.1,0.2,2.1,0.4,3.2,0.7c-1.1-0.2-2.1-0.5-3.2-0.7c-0.4,1-0.8,2-1.3,2.9
	c0.1,0.1,0.2,0.2,0.3,0.3h7L131.7,77.8z"/>
<path d="M123.9,64.1c-1.3-1.7-2.3-2.7-3-3.2c-0.8-0.6-1.9-1.2-3.4-1.7c-0.3,0.7-0.6,1.5-0.9,2.2c2.9,1.5,5.8,2.9,8.6,4.4
	C124.8,65.2,124.4,64.7,123.9,64.1z"/>
<path d="M111,79.7l3.3,6.1h14c0-0.1,0.1-0.2,0.1-0.3c-1.4-1.3-2.8-2.6-4.2-3.9C119.8,80.8,115.4,80.2,111,79.7z"/>
<path d="M124.2,81.5c1.4,1.3,2.8,2.6,4.2,3.9c0.4-1,0.8-2,1.3-2.9C127.8,82.1,126,81.8,124.2,81.5z"/>
<path d="M109.5,77l1.5,2.7c4.4,0.5,8.8,1.1,13.2,1.8c-3.9-3.5-7.9-6.9-12-10.1C111.3,73.2,110.4,75.1,109.5,77z"/>
<path d="M131.7,77.8l-5.1-9.9c-0.3-0.6-0.8-1.3-1.4-2.2c-2.9-1.5-5.8-2.9-8.6-4.4c-1.4,3.4-2.8,6.7-4.3,10c4.1,3.2,8.1,6.6,12,10.1
	c1.8,0.3,3.7,0.6,5.5,1C130.3,80.9,131,79.4,131.7,77.8z"/>
<path d="M94.4,36.7h7.1c-3.2-3.2-6.4-6.6-9.8-9.7c-1.7,3.2-3.3,6.4-5,9.6c2.6,1,5.1,2.1,7.7,3.2V36.7z"/>
<path d="M101.4,36.7h1.3c2.9,0,5.1,0.4,6.4,1.1c2.7-4.3,5.3-8.5,8-12.8c-2.7-0.5-6.1-0.7-10.2-0.7H93c-0.5,0.9-0.9,1.8-1.4,2.7
	C95.1,30.1,98.2,33.5,101.4,36.7z"/>
<path d="M101.7,49.2h-7.4v-9.5c-2.6-1.1-5.1-2.1-7.7-3.2c-1.4,2.7-2.8,5.4-4.2,8.2c5.6,2.7,11.2,5.4,16.8,8.1
	C100.1,51.6,100.9,50.4,101.7,49.2z"/>
<path d="M82.5,44.7c-1,1.9-2,3.8-3,5.8c5.2,2.7,10.3,5.6,15.3,8.8c1.5-2.1,3-4.3,4.5-6.4C93.7,50,88.1,47.3,82.5,44.7z"/>
<path d="M75.3,58.8v14.5c1.2,0.3,2.4,0.6,3.6,0.9c1.3,0.4,2.6,0.7,3.9,1C87,70,91,64.6,94.8,59.2c-5-3.1-10.1-6-15.3-8.8
	C78.1,53.2,76.7,56,75.3,58.8z"/>
<path d="M75.3,73.3v10.8c2.6-2.9,5.1-5.9,7.5-8.9c-1.3-0.3-2.6-0.6-3.9-1C77.7,73.9,76.5,73.6,75.3,73.3z"/>
<path d="M156.3,25.3c-3.9,1.4-7.2,3.5-10,6.3c-0.7,0.7-1.3,1.4-1.9,2.2c2,1,4.1,2.1,6.1,3.1C152.5,33,154.4,29.2,156.3,25.3z"/>
<path d="M140.1,59c0.4-0.8,0.8-1.6,1.1-2.4c-1.1-0.4-2.2-0.8-3.2-1.2c0,0.9,0,1.8,0.1,2.7C138.7,58.4,139.4,58.7,140.1,59z"/>
<path d="M141.2,56.6c3-6.6,6.1-13.2,9.3-19.7c-2-1-4.1-2.1-6.1-3.1c-4.3,5.4-6.5,12.5-6.5,21.3c0,0.1,0,0.2,0,0.4
	C139.1,55.8,140.1,56.2,141.2,56.6z"/>
<path d="M140.1,59c-0.7-0.3-1.3-0.6-2-0.9c0.1,1.5,0.2,2.9,0.5,4.2C139,61.2,139.6,60.1,140.1,59z"/>
<path d="M200,42.7c-1.4-4.4-3.6-8.2-6.7-11.3c-0.6-0.6-1.3-1.2-1.9-1.7c-0.7,1.8-1.3,3.7-2,5.5c2.9,1.9,5.7,3.8,8.5,5.9
	C198.6,41.7,199.3,42.2,200,42.7z"/>
<path d="M197.9,41.2c-2.8-2.1-5.6-4-8.5-5.9c-2.2,5.8-4.4,11.5-6.8,17.2c0,0,0,0,0,0c5.6,2.6,11.1,5.1,16.7,7.6
	c0.8-1.8,1.6-3.7,2.3-5.6c0,0,0,0,0,0c0-4.4-0.5-8.3-1.6-11.8C199.3,42.2,198.6,41.7,197.9,41.2z"/>
<path d="M182.7,54.3c0,6.9-1.1,11.6-3.4,14.3c-0.2,0.2-0.4,0.4-0.6,0.6c4.8,1.5,9.6,3.1,14.4,4.6c2.2-4.5,4.2-9,6.2-13.6
	c-5.6-2.5-11.2-5-16.7-7.6C182.6,53.1,182.7,53.7,182.7,54.3z"/>
<path d="M174.3,71.9c-0.2,0.4-0.3,0.7-0.5,1.1c5.5,2.2,11,4.4,16.5,6.5c1-1.9,1.9-3.8,2.8-5.7c-4.8-1.5-9.6-3-14.4-4.6
	C177.5,70.4,176,71.4,174.3,71.9z"/>
<path d="M167.8,86.7c0.9,0,1.8,0.1,2.7,0.1c6.8,0,12.5-1.3,17.1-3.8c0.5-0.3,1-0.6,1.5-0.9c0.4-0.9,0.9-1.7,1.3-2.6
	c-5.5-2.1-11-4.3-16.5-6.5C171.8,77.6,169.8,82.2,167.8,86.7z"/>
<path d="M201.3,61c0.2-2,0.4-4.1,0.4-6.4c-0.7,1.9-1.5,3.7-2.3,5.6C200,60.4,200.6,60.7,201.3,61z"/>
<path d="M193.2,73.7c1.1,0.3,2.2,0.7,3.3,1c0.6-0.8,1.1-1.7,1.6-2.6c1.7-3.1,2.7-6.9,3.2-11.3c-0.6-0.3-1.3-0.6-1.9-0.8
	C197.4,64.7,195.3,69.2,193.2,73.7z"/>
<path d="M190.4,79.4c0.5,0.2,1,0.4,1.4,0.5c1.8-1.5,3.3-3.3,4.6-5.2c-1.1-0.3-2.2-0.7-3.3-1C192.3,75.6,191.3,77.5,190.4,79.4z"/>
<path d="M189.1,82c1-0.6,1.9-1.3,2.8-2c-0.5-0.2-1-0.4-1.4-0.5C189.9,80.3,189.5,81.2,189.1,82z"/>
<path d="M173.8,73c0.2-0.4,0.3-0.7,0.5-1.1c-0.6,0.2-1.3,0.4-2,0.5C172.8,72.6,173.3,72.8,173.8,73z"/>
<path d="M155.8,84.5c2.3,0.9,4.9,1.4,7.8,1.8c-2.4-1.3-4.7-2.6-7.1-3.9C156.3,83.1,156,83.8,155.8,84.5z"/>
<path d="M173.8,73c-0.5-0.2-1-0.4-1.5-0.6c-0.8,0.1-1.6,0.2-2.5,0.2c-3.4,0-6.2-1-8.3-3c-1.8,4.2-3.4,8.5-5,12.8
	c2.4,1.3,4.7,2.6,7.1,3.9c1.3,0.2,2.7,0.3,4.2,0.4C169.8,82.2,171.8,77.6,173.8,73z"/>
<path d="M175.4,38.8c1.4,0.7,2.7,1.6,3.8,2.8c2.1,2.4,3.2,6,3.5,10.9c2.4-5.7,4.6-11.4,6.8-17.2c-3.3-2.1-6.6-4.2-9.9-6.1
	C178.2,32.4,176.8,35.6,175.4,38.8z"/>
<path d="M181.3,24.7c-0.6,1.5-1.2,3-1.8,4.5c3.3,1.9,6.6,4,9.9,6.1c0.7-1.8,1.4-3.7,2-5.5C188.6,27.5,185.2,25.8,181.3,24.7z"/>
<path d="M161.5,69.6c-0.4-0.3-0.7-0.7-1.1-1.1c-0.4-0.4-0.7-0.9-1-1.4c-1.4-0.6-2.8-1.2-4.2-1.7c-2.5,4.1-5,8.2-7.5,12.3
	c3,1.6,5.9,3.2,8.8,4.8C158,78.1,159.7,73.8,161.5,69.6z"/>
<path d="M147.7,77.6c-0.3,0.4-0.6,0.9-0.8,1.3c1.9,1.8,4,3.4,6.4,4.5c0.8,0.4,1.7,0.7,2.6,1.1c0.2-0.7,0.5-1.4,0.7-2.1
	C153.6,80.8,150.6,79.2,147.7,77.6z"/>
<path d="M157.5,61.6c-0.1,0.2-0.2,0.3-0.3,0.5c0.1,0,0.3,0.1,0.4,0.1C157.6,62,157.5,61.8,157.5,61.6z"/>
<path d="M157.6,62.2c-0.1,0-0.3-0.1-0.4-0.1c-0.7,1.1-1.3,2.2-2,3.3c1.4,0.6,2.8,1.2,4.2,1.7C158.6,65.8,158,64.1,157.6,62.2z"/>
<path d="M168.7,23.2c-4.6,0.1-8.7,0.8-12.4,2.1c-2,3.8-3.9,7.7-5.8,11.6c3.3,1.7,6.5,3.3,9.8,4.9c0,0,0.1-0.1,0.1-0.1
	c2.3-2.7,5.4-4.1,9.2-4.1c0.7,0,1.3,0.1,1.9,0.1c1.8-3.3,3.6-6.7,5.3-10C174.2,26.1,171.4,24.7,168.7,23.2z"/>
<path d="M169.7,23.2c-0.3,0-0.7,0-1,0c2.8,1.4,5.5,2.9,8.2,4.4c0.6-1.2,1.3-2.4,1.9-3.6C176,23.5,173,23.2,169.7,23.2z"/>
<path d="M157.5,61.6c-0.4-1.9-0.5-4.1-0.5-6.5c0-6.2,1.1-10.6,3.4-13.3c-3.3-1.6-6.5-3.3-9.8-4.9c-3.2,6.5-6.3,13.1-9.3,19.7
	c5.3,1.9,10.7,3.7,16,5.5C157.3,61.9,157.4,61.8,157.5,61.6z"/>
<path d="M157.2,62.1c-5.3-1.8-10.7-3.6-16-5.5c-0.4,0.8-0.8,1.6-1.1,2.4c5,2.1,10.1,4.3,15.1,6.4C155.9,64.3,156.6,63.2,157.2,62.1z
	"/>
<path d="M155.2,65.4c-5.1-2.1-10.1-4.2-15.1-6.4c-0.5,1.1-1,2.2-1.6,3.4c0.7,4,1.9,7.6,3.7,10.6c0.5,0.9,1.1,1.8,1.8,2.6
	c1.2,0.7,2.5,1.3,3.7,2C150.2,73.5,152.7,69.5,155.2,65.4z"/>
<path d="M147.7,77.6c-1.2-0.7-2.5-1.3-3.7-2c0.9,1.2,1.9,2.3,2.9,3.4C147.1,78.5,147.4,78.1,147.7,77.6z"/>
<path d="M171.6,37.7c1.4,0.2,2.6,0.5,3.8,1c1.4-3.2,2.8-6.4,4.1-9.6c-0.9-0.5-1.7-1-2.6-1.5C175.2,31.1,173.4,34.4,171.6,37.7z"/>
<path d="M178.8,24.1c-0.6,1.2-1.2,2.4-1.9,3.6c0.9,0.5,1.7,1,2.6,1.5c0.6-1.5,1.2-3,1.8-4.5C180.5,24.4,179.6,24.2,178.8,24.1z"/>
<path d="M212,24.3v1c0.1-0.3,0.2-0.7,0.3-1H212z"/>
<path d="M219.9,38.2c0.5-2,1.1-3.9,1.7-5.8c-3.2-1.7-6.4-3.4-9.5-5v23.2c1.1,0.6,2.2,1.3,3.3,1.9C216.9,47.8,218.4,43.1,219.9,38.2z
	"/>
<path d="M215.3,52.4c-1.1-0.6-2.2-1.2-3.3-1.9v11C213.1,58.5,214.2,55.5,215.3,52.4z"/>
<path d="M224.5,24.3h-12.1c-0.1,0.3-0.2,0.7-0.3,1v2c3.2,1.7,6.4,3.3,9.5,5C222.4,29.6,223.4,26.9,224.5,24.3z"/>
<path d="M229.9,83.9c-0.4,0.3-0.8,0.6-1.2,0.9c0.4,0.1,0.8,0.3,1.2,0.4V83.9z"/>
<path d="M228.7,84.8c-0.4,0.3-0.9,0.6-1.3,0.9h2.5v-0.6C229.5,85.1,229.1,84.9,228.7,84.8z"/>
<path d="M214.3,85.7h13.1c0.4-0.3,0.9-0.6,1.3-0.9c-3.7-1.1-7.3-2.3-11-3.4C216.6,82.8,215.5,84.3,214.3,85.7z"/>
<path d="M217.7,81.4c3.7,1.1,7.3,2.3,11,3.4c0.4-0.3,0.8-0.6,1.2-0.9V72.9c-1.6-0.6-3.1-1.2-4.7-1.9C222.8,74.5,220.3,78,217.7,81.4
	z"/>
<path d="M229.9,72.9v-8.8c-1.5,2.3-3.1,4.7-4.7,7C226.7,71.7,228.3,72.3,229.9,72.9z"/>
<path d="M270.8,73c-0.6,0.6-1.3,1.2-1.9,1.8c0.6,0.2,1.3,0.4,1.9,0.7V73z"/>
<path d="M268.9,74.8c-3.3,3-6.6,6-10,8.9c2.1,0.7,4.1,1.4,6.2,2.1h5.7V75.4C270.1,75.2,269.5,75,268.9,74.8z"/>
<path d="M265.1,85.7c-2.1-0.7-4.1-1.4-6.2-2.1c-0.8,0.7-1.7,1.4-2.5,2.1H265.1z"/>
<path d="M250.3,81.9l2.6,3.8h3.5c0.8-0.7,1.7-1.4,2.5-2.1c-2.6-0.9-5.1-1.8-7.6-2.7C250.9,81.3,250.6,81.6,250.3,81.9z"/>
<path d="M270.8,73V60.8c-3.3,3.7-6.7,7.4-10.2,11c2.8,1,5.5,1.9,8.3,2.9C269.5,74.2,270.1,73.6,270.8,73z"/>
<path d="M260.5,71.9c-3,3.1-6.1,6.1-9.3,9.1c2.5,0.9,5.1,1.8,7.6,2.7c3.4-2.9,6.7-5.8,10-8.9C266.1,73.8,263.3,72.8,260.5,71.9z"/>
<path d="M270.8,42.6c-2.8,3.9-5.9,7.8-9,11.6c3,1.7,6,3.4,9,5.1V42.6z"/>
<path d="M250.3,81.9c0.3-0.3,0.7-0.6,1-0.9c-0.7-0.3-1.5-0.5-2.2-0.8L250.3,81.9z"/>
<path d="M270.8,60.8v-1.5c-3-1.7-6-3.4-9-5.1c-1.6,2-3.2,3.9-4.9,5.9c-2.1,2.9-4.4,5.5-6.8,7.9c3.5,1.3,7,2.6,10.5,3.8
	C264,68.3,267.5,64.6,270.8,60.8z"/>
<path d="M250.1,68.1c-1.8,1.8-3.8,3.5-5.7,5.2l4.7,6.9c0.7,0.3,1.5,0.5,2.2,0.8c3.2-3,6.3-6,9.3-9.1C257,70.6,253.5,69.4,250.1,68.1
	z"/>
<path d="M242.7,43.3c-0.1,0.1-0.1,0.2-0.2,0.3c0.2,0.1,0.4,0.2,0.7,0.4L242.7,43.3z"/>
<path d="M270.8,42.6V24.3H254c-0.4,0.6-0.7,1.2-1.1,1.8v23.2c3,1.6,5.9,3.3,8.9,5C264.9,50.4,267.9,46.6,270.8,42.6z"/>
<path d="M256.9,60.2c1.7-2,3.3-3.9,4.9-5.9c-3-1.7-5.9-3.3-8.9-5v9l-9.8-14.3c-0.2-0.1-0.4-0.2-0.7-0.4c-2.8,4.8-5.7,9.5-8.6,14.2
	l3.6,5.2c4.2,1.8,8.4,3.4,12.7,5C252.5,65.6,254.8,63,256.9,60.2z"/>
<path d="M250.1,68.1c-4.3-1.6-8.5-3.3-12.7-5l6.9,10.2C246.3,71.6,248.2,69.9,250.1,68.1z"/>
<path d="M242.7,43.3l-12.9-19h-5.3c-1.1,2.7-2.1,5.4-2.9,8.1c7,3.7,14,7.4,20.9,11.2C242.5,43.5,242.6,43.4,242.7,43.3z"/>
<path d="M212,79.6c1.9,0.6,3.8,1.2,5.7,1.8c2.6-3.4,5.1-6.9,7.5-10.4c-4.4-1.8-8.8-3.6-13.2-5.4V79.6z"/>
<path d="M212,85.7h2.3c1.2-1.4,2.3-2.9,3.4-4.3c-1.9-0.6-3.8-1.2-5.7-1.8V85.7z"/>
<path d="M215.3,52.4c-1.1,3.1-2.2,6.1-3.3,9.1v4.1c4.4,1.9,8.8,3.7,13.2,5.4c1.6-2.3,3.2-4.6,4.7-7v-4.3
	C224.9,57.5,220,55,215.3,52.4z"/>
<path d="M229.9,52l4,5.8c2.9-4.7,5.8-9.5,8.6-14.2c-7-3.8-13.9-7.5-20.9-11.2c-0.6,1.9-1.2,3.9-1.7,5.8c-1.5,4.9-3,9.6-4.6,14.2
	c4.8,2.7,9.6,5.1,14.6,7.4V52z"/>
<path d="M252.9,24.3v1.8c0.4-0.6,0.7-1.2,1.1-1.8H252.9z"/>
<path d="M282.3,24.3c-0.4,0.8-0.8,1.6-1.3,2.3c4.2,2,8.4,4,12.7,5.9c2.1-2.7,4.1-5.5,6.1-8.3H282.3z"/>
<path d="M293.7,32.5c-4.2-2-8.4-3.9-12.7-5.9c-0.6,1.2-1.3,2.3-2,3.5v9.3h9.4C290.2,37.2,292,34.9,293.7,32.5z"/>
<path d="M304.5,37.5c-3.6-1.6-7.2-3.3-10.7-5c-1.7,2.3-3.5,4.6-5.3,6.9h10v4.8C300.5,42,302.5,39.8,304.5,37.5z"/>
<path d="M308.3,33.1c-2.7-2.9-5.4-5.9-8-8.9h-0.4c-2,2.8-4.1,5.5-6.1,8.3c3.6,1.7,7.1,3.3,10.7,5C305.8,36.1,307,34.6,308.3,33.1z"
	/>
<path d="M316.2,24.3h-15.9c2.7,3,5.3,5.9,8,8.9C310.9,30.2,313.6,27.2,316.2,24.3z"/>
<path d="M333.5,24.3c-4,5.1-8,10.2-12.2,15.2h15.6V24.3H333.5z"/>
<path d="M317.4,85.7V72.1c-3.9,2.6-7.7,5.2-11.5,7.9c3.2,1.9,6.4,3.9,9.5,5.8H317.4z"/>
<path d="M298.5,85.7h17.1c-3.2-1.9-6.4-3.9-9.5-5.8c-2.5,1.8-5,3.5-7.5,5.3V85.7z"/>
<path d="M317.4,63.7V44c-6.3,7.4-12.6,14.8-19,22.5v9c1.6,0.9,3.1,1.8,4.7,2.8C308,73.5,312.8,68.7,317.4,63.7z"/>
<path d="M303.1,78.2c-1.6-0.9-3.1-1.9-4.7-2.8v7.1C300,81.1,301.6,79.7,303.1,78.2z"/>
<path d="M317.4,72.1v-8.4c-4.6,5-9.4,9.8-14.3,14.5c1,0.6,1.9,1.2,2.9,1.7C309.8,77.3,313.6,74.7,317.4,72.1z"/>
<path d="M298.5,85.2c2.5-1.8,5-3.6,7.5-5.3c-1-0.6-1.9-1.2-2.9-1.7c-1.5,1.5-3.1,2.9-4.7,4.3V85.2z"/>
<path d="M317.4,42.9c-3.1-3.2-6.1-6.4-9.1-9.7c-1.3,1.5-2.6,2.9-3.9,4.4c4.3,2,8.7,4,13,5.9V42.9z"/>
<path d="M317.4,39.4h3.8c4.2-5,8.3-10,12.2-15.2h-17.3c-2.6,3-5.2,5.9-7.9,8.9c3,3.3,6,6.5,9.1,9.7V39.4z"/>
<path d="M317.4,43.4c-4.3-2-8.7-3.9-13-5.9c-2,2.2-4,4.5-6,6.7v22.2c6.4-7.7,12.7-15.1,19-22.5V43.4z"/>
<path d="M282.3,24.3h-3.3v1.4c0.7,0.3,1.3,0.6,2,0.9C281.5,25.8,281.9,25.1,282.3,24.3z"/>
<path d="M279.1,25.7v4.4c0.7-1.2,1.3-2.3,2-3.5C280.4,26.3,279.7,26,279.1,25.7z"/>
<path d="M356.2,56.7h-8.7c1.9,0.8,3.8,1.7,5.8,2.5C354.3,58.4,355.2,57.5,356.2,56.7z"/>
<path d="M347.5,56.7h-7.3c-1.6,1.1-3.1,2.1-4.7,3.2c2.9,2.4,5.8,4.8,8.9,7c3-2.6,5.9-5.2,8.9-7.7C351.4,58.4,349.5,57.5,347.5,56.7z
	"/>
<path d="M335.2,60.2v9.8h5.8c1.2-1,2.3-2,3.5-3c-3-2.2-6-4.6-8.9-7C335.4,60,335.3,60.1,335.2,60.2z"/>
<path d="M360,68.4V62c-2.2-0.9-4.5-1.9-6.7-2.8c-3,2.5-5.9,5.1-8.9,7.7c1.4,1,2.8,2,4.3,3h9.7C359,69.4,359.5,68.9,360,68.4z"/>
<path d="M340.9,69.9h7.8c-1.5-1-2.9-2-4.3-3C343.3,67.9,342.1,68.9,340.9,69.9z"/>
<path d="M360,56.7h-3.8c-1,0.8-1.9,1.7-2.9,2.5c2.2,0.9,4.5,1.9,6.7,2.8V56.7z"/>
<path d="M360,68.4c-0.5,0.5-1,1-1.6,1.5h1.6V68.4z"/>
<path d="M335.2,60.2c0.1-0.1,0.2-0.2,0.4-0.2c-0.1-0.1-0.2-0.2-0.4-0.3V60.2z"/>
<path d="M335.2,56.7v2.9c0.1,0.1,0.2,0.2,0.4,0.3c1.6-1.1,3.1-2.1,4.7-3.2H335.2z"/>
<path d="M370.2,34.4c-0.7-0.4-1.4-0.9-2.1-1.3V35c0.3,0.1,0.6,0.3,0.9,0.4C369.4,35,369.8,34.7,370.2,34.4z"/>
<path d="M381.6,24.3h-13.5v8.8c0.7,0.4,1.4,0.9,2.1,1.3C374.1,31.1,377.9,27.8,381.6,24.3z"/>
<path d="M368.1,35v1.1c0.3-0.2,0.6-0.5,0.9-0.7C368.7,35.3,368.4,35.1,368.1,35z"/>
<path d="M416.7,47.2h-0.9c-1.8,2-3.5,4-5.3,6c2.1,0.9,4.1,1.7,6.2,2.6V47.2z"/>
<path d="M406.3,57.7c-0.6,0.7-1.2,1.3-1.8,1.9h4.4C408,59,407.2,58.4,406.3,57.7z"/>
<path d="M416.7,59.7v-3.9c-2.1-0.9-4.1-1.7-6.2-2.6c-1.4,1.5-2.8,3.1-4.2,4.6c0.9,0.6,1.7,1.3,2.6,1.9H416.7z"/>
<path d="M415.8,47.2h-19.5c4.7,2,9.5,4,14.2,6C412.3,51.2,414.1,49.2,415.8,47.2z"/>
<path d="M371.2,66.7c-1,0.8-2,1.6-3.1,2.3v11.9c2.5,1.1,5.1,2.2,7.8,3.2c0.2,0.1,0.5,0.2,0.8,0.3c4.5-3.2,8.8-6.7,12.9-10.4
	C383.4,71.6,377.3,69.2,371.2,66.7z"/>
<path d="M368.1,80.9v4.8h6.7c0.6-0.4,1.2-0.9,1.8-1.3c-0.3-0.1-0.5-0.2-0.8-0.3C373.2,83.2,370.7,82.1,368.1,80.9z"/>
<path d="M404.5,59.7c0.6-0.6,1.2-1.3,1.8-1.9c-4.1-3.1-8.3-6.1-12.7-9c-7.3,6.1-14.8,12.1-22.4,17.9c6.1,2.5,12.2,5,18.4,7.4
	c0.8-0.7,1.7-1.5,2.5-2.2h-4.9V59.7H404.5z"/>
<path d="M410.5,53.2c-4.7-2-9.5-4-14.2-6h-0.8c-0.6,0.5-1.3,1.1-1.9,1.6c4.4,2.9,8.6,5.9,12.7,9C407.7,56.2,409.1,54.7,410.5,53.2z"
	/>
<path d="M413.9,71.8h-21.8c-0.8,0.8-1.7,1.5-2.5,2.2c5.3,2.1,10.6,4.1,15.9,6.1C408.4,77.4,411.2,74.7,413.9,71.8z"/>
<path d="M374.8,85.7h4.7c-1-0.6-2-1-2.9-1.3C376,84.9,375.5,85.3,374.8,85.7z"/>
<path d="M405.5,80.2c-5.3-2-10.6-4-15.9-6.1c-4.2,3.7-8.5,7.1-12.9,10.4c0.9,0.3,1.9,0.7,2.9,1.3h19.8
	C401.4,83.9,403.5,82.1,405.5,80.2z"/>
<path d="M420,71.8h-6c-2.7,2.9-5.5,5.6-8.4,8.3c4.8,1.8,9.6,3.6,14.4,5.3V71.8z"/>
<path d="M405.5,80.2c-2,1.9-4.1,3.8-6.2,5.6H420v-0.3C415.1,83.7,410.3,82,405.5,80.2z"/>
<path d="M419,26.2c-4,3.8-8.1,7.5-12.2,11.2H419V26.2z"/>
<path d="M387.2,42.7c-0.1,0.1-0.3,0.2-0.4,0.4c0.1,0.1,0.3,0.1,0.4,0.2V42.7z"/>
<path d="M387.2,43.3c-0.1-0.1-0.3-0.1-0.4-0.2c-0.3,0.3-0.6,0.6-0.9,0.8c0.4,0.3,0.9,0.5,1.3,0.8V43.3z"/>
<path d="M393.6,48.7c-0.8-0.5-1.6-1.1-2.4-1.6h-4v-2.5c-0.4-0.3-0.9-0.5-1.3-0.8c-6,5.6-11.9,11.1-17.8,16.8v4.7
	c1,0.4,2,0.8,3.1,1.2C378.8,60.9,386.2,54.9,393.6,48.7z"/>
<path d="M368.1,65.4V69c1-0.8,2-1.6,3.1-2.3C370.2,66.2,369.2,65.8,368.1,65.4z"/>
<path d="M395.5,47.2h-4.3c0.8,0.5,1.6,1,2.4,1.6C394.2,48.2,394.9,47.7,395.5,47.2z"/>
<path d="M419,26.2v-1.9h-11.5c-4.9,4.3-9.8,8.7-14.6,13.1h13.9C410.9,33.7,415,30,419,26.2z"/>
<path d="M377.9,39.1C377.9,39.2,377.9,39.2,377.9,39.1c0.2,0.2,0.4,0.3,0.7,0.4C378.4,39.4,378.2,39.3,377.9,39.1z"/>
<path d="M398.2,24.3c-6.9,4.8-13.6,9.7-20.3,14.9c0.2,0.1,0.4,0.3,0.7,0.4c2.7,1.2,5.4,2.4,8.2,3.5c0.1-0.1,0.3-0.2,0.4-0.4v-5.3
	h5.8c4.8-4.4,9.7-8.8,14.6-13.1H398.2z"/>
<path d="M382.9,42.2c-1.4-0.9-2.9-1.7-4.3-2.6c-0.3-0.1-0.5-0.2-0.8-0.3c-3.3,2.5-6.5,5.1-9.7,7.6v13.8c5.9-5.6,11.8-11.2,17.8-16.8
	C384.9,43.3,383.9,42.7,382.9,42.2z"/>
<path d="M378.6,39.5c1.4,0.9,2.8,1.7,4.3,2.6c1,0.6,2,1.2,3,1.8c0.3-0.3,0.6-0.6,0.9-0.8C384.1,41.9,381.3,40.7,378.6,39.5z"/>
<path d="M377.9,39.1c-2.6-1.6-5.2-3.2-7.7-4.8c-0.4,0.3-0.8,0.7-1.2,1C372,36.7,374.9,37.9,377.9,39.1
	C377.9,39.2,377.9,39.2,377.9,39.1z"/>
<path d="M398.2,24.3h-16.6c-3.7,3.5-7.5,6.9-11.4,10.1c2.6,1.6,5.1,3.2,7.7,4.8C384.6,34,391.3,29,398.2,24.3z"/>
<path d="M369,35.4c-0.3,0.2-0.6,0.5-0.9,0.7v10.7c3.2-2.6,6.4-5.1,9.7-7.6C374.9,37.9,372,36.7,369,35.4z"/>
<path d="M444.5,33.7c1.7-2.4,3.4-4.8,5.1-7.2l-1.5-2.2h-13.5c0,0,0,0.1-0.1,0.1c3.1,3,6.2,6,9.2,9C443.9,33.5,444.2,33.6,444.5,33.7
	z"/>
<path d="M434.4,24.4c-0.9,1.1-1.7,2.2-2.6,3.3c3.9,1.9,7.9,3.8,11.8,5.7C440.6,30.3,437.5,27.3,434.4,24.4z"/>
<path d="M443.6,33.3c-3.9-1.9-7.9-3.8-11.8-5.7c-0.5,0.6-1,1.3-1.5,1.9v23.1c4.8-6.1,9.4-12.4,14-18.8
	C444.1,33.8,443.9,33.5,443.6,33.3z"/>
<path d="M444.5,33.7c-0.3-0.1-0.5-0.3-0.8-0.4c0.2,0.2,0.4,0.4,0.6,0.6C444.3,33.9,444.4,33.8,444.5,33.7z"/>
<path d="M470.2,56.9l-7.9-11.6c-1,1.3-2,2.6-3.1,3.8c3.1,3.2,6.2,6.4,9.3,9.7C469.1,58.1,469.7,57.5,470.2,56.9z"/>
<path d="M459.3,49.1c-2.3,2.9-4.7,5.8-7.1,8.7l7.5,11c3-3.3,5.9-6.7,8.9-10.1C465.5,55.5,462.4,52.3,459.3,49.1z"/>
<path d="M489.1,61c-2.7,3.7-5.5,7.4-8.3,11c2.8,3.1,5.5,6.1,8.3,9.2V61z"/>
<path d="M480.8,72c-1.9,2.5-3.9,5-5.8,7.6c4.7,1.9,9.4,3.7,14.1,5.6v-3.9C486.4,78.1,483.6,75.1,480.8,72z"/>
<path d="M470.7,85l0.5,0.7h17.9v-0.6c-4.7-1.9-9.4-3.7-14.1-5.6C473.6,81.4,472.2,83.2,470.7,85z"/>
<path d="M489.1,38c-0.6-0.3-1.2-0.6-1.8-0.9c-3.5,4.1-7,8.1-10.5,12.2c4.1,2,8.2,4,12.3,6.1V38z"/>
<path d="M470.7,85c1.4-1.8,2.9-3.6,4.3-5.5c-3.7-1.5-7.4-2.9-11-4.4L470.7,85z"/>
<path d="M468.6,58.8c-3,3.4-5.9,6.7-8.9,10.1l4.3,6.3c3.7,1.5,7.4,2.9,11,4.4c2-2.5,3.9-5,5.8-7.6C476.8,67.5,472.7,63.1,468.6,58.8
	z"/>
<path d="M489.1,61v-5.6c-4.1-2.1-8.2-4.1-12.3-6.1c-1.9,2.2-3.7,4.3-5.6,6.5v2.5l-1-1.4c-0.6,0.6-1.1,1.3-1.7,1.9
	c4.1,4.4,8.2,8.8,12.3,13.2C483.6,68.3,486.4,64.7,489.1,61z"/>
<path d="M489.1,35c-0.6,0.7-1.2,1.4-1.8,2.1c0.6,0.3,1.2,0.6,1.8,0.9V35z"/>
<path d="M487.3,37.1c-4.6-2.2-9.2-4.4-13.8-6.6c-0.8,1.1-1.5,2.1-2.3,3.2v12.9c1.9,0.9,3.8,1.8,5.6,2.7
	C480.3,45.3,483.8,41.2,487.3,37.1z"/>
<path d="M471.2,46.6v9.2c1.9-2.2,3.8-4.3,5.6-6.5C474.9,48.4,473.1,47.5,471.2,46.6z"/>
<path d="M489.1,24.3h-0.8c0.3,0.1,0.5,0.2,0.8,0.3V24.3z"/>
<path d="M489.1,35V24.6c-0.3-0.1-0.5-0.2-0.8-0.3h-10.2c-1.5,2.1-3,4.2-4.6,6.3c4.6,2.2,9.2,4.4,13.8,6.6
	C487.9,36.4,488.5,35.7,489.1,35z"/>
<path d="M478.1,24.3h-6.9v5.2c0.8,0.4,1.6,0.7,2.3,1.1C475.1,28.5,476.6,26.4,478.1,24.3z"/>
<path d="M471.2,29.4v4.3c0.8-1,1.6-2.1,2.3-3.2C472.7,30.2,472,29.8,471.2,29.4z"/>
<path d="M448.2,81.6c-1.3,1.4-2.5,2.8-3.8,4.2h3.8V81.6z"/>
<path d="M448.2,62.6c-1.3,1.5-2.6,3-3.9,4.6c1.3,0.5,2.6,1.1,3.9,1.6V62.6z"/>
<path d="M430.3,85.7h9.4c-0.3-0.2-0.5-0.4-0.8-0.6c-1.9-1.7-3.9-3.4-5.8-5.1c-0.9,1-1.8,2.1-2.8,3.1V85.7z"/>
<path d="M439.7,85.7h4.7c1.3-1.4,2.5-2.8,3.8-4.2V68.8c-1.3-0.5-2.6-1.1-3.9-1.6c-3.7,4.3-7.4,8.6-11.2,12.9
	c1.9,1.7,3.9,3.4,5.8,5.1C439.1,85.3,439.4,85.5,439.7,85.7z"/>
<path d="M449.6,26.5c-1.7,2.4-3.4,4.8-5.1,7.2c5,2.4,9.9,4.7,14.9,7.1L449.6,26.5z"/>
<path d="M459.3,40.8c-4.9-2.4-9.9-4.7-14.9-7.1c-0.1,0.1-0.1,0.2-0.2,0.2c5,5,10,10,15,15.1c1-1.3,2-2.5,3.1-3.8L459.3,40.8z"/>
<path d="M448.2,62.6V52l4,5.8c2.4-2.9,4.8-5.8,7.1-8.7c-4.9-5.1-9.9-10.1-15-15.1c-4.5,6.4-9.2,12.6-14,18.8v8.7
	c4.6,1.9,9.3,3.8,13.9,5.7C445.6,65.6,446.9,64.1,448.2,62.6z"/>
<path d="M430.3,83.2c0.9-1,1.8-2.1,2.8-3.1c-0.9-0.8-1.8-1.6-2.8-2.4V83.2z"/>
<path d="M430.3,61.4v16.1c0.9,0.8,1.8,1.6,2.8,2.4c3.8-4.3,7.5-8.5,11.2-12.9C439.6,65.3,435,63.4,430.3,61.4z"/>
<path d="M434.4,24.4C434.4,24.3,434.4,24.3,434.4,24.4l-4.1-0.1v2.7c0.5,0.2,1,0.5,1.5,0.7C432.7,26.6,433.6,25.5,434.4,24.4z"/>
<path d="M434.5,24.3h-0.2C434.4,24.3,434.4,24.3,434.5,24.3C434.5,24.3,434.5,24.3,434.5,24.3z"/>
<path d="M430.3,26.9v2.6c0.5-0.6,1-1.3,1.5-1.9C431.3,27.4,430.8,27.2,430.3,26.9z"/>
<path d="M514,24.3h-4.3c1.2,0.4,2.4,0.7,3.6,1.1C513.6,25,513.8,24.6,514,24.3z"/>
<path d="M509.7,24.3H502v5.4c2.3,0.9,4.6,1.8,6.9,2.7c1.5-2.3,3-4.7,4.5-7.1C512.1,25,510.9,24.6,509.7,24.3z"/>
<path d="M502,29.7v13.2c2.3-3.4,4.6-6.9,6.9-10.4C506.6,31.5,504.3,30.6,502,29.7z"/>
<path d="M533.6,24.4c-0.3,0-0.6,0-0.9-0.1c-1.2,1.9-2.5,3.8-3.7,5.7c0.4,0.1,0.8,0.3,1.2,0.4C531.2,28.4,532.3,26.4,533.6,24.4z"/>
<path d="M527.1,38.2c1-2.3,1.9-4.7,2.8-7.1c0.1-0.3,0.2-0.5,0.3-0.8c-0.4-0.1-0.8-0.3-1.2-0.4c-1.8,2.7-3.5,5.4-5.3,8.2h2
	C526.2,38.2,526.6,38.2,527.1,38.2z"/>
<path d="M515.4,50.8c-2.9,4.5-5.9,9-8.8,13.6c1.8,1,3.7,2,5.5,3c2.9-4.6,5.5-9.3,8-14.2C518.6,52.4,517,51.6,515.4,50.8z"/>
<path d="M506.6,64.4c-1.6,2.4-3.1,4.9-4.6,7.3v10.4c3.6-4.7,7-9.6,10.2-14.7C510.3,66.4,508.5,65.4,506.6,64.4z"/>
<path d="M521,51.6v-9.3c-1.9,2.8-3.7,5.7-5.6,8.5c1.6,0.8,3.2,1.6,4.8,2.4C520.4,52.7,520.7,52.2,521,51.6z"/>
<path d="M521,51.6c-0.3,0.5-0.5,1-0.8,1.6c0.3,0.1,0.5,0.3,0.8,0.4V51.6z"/>
<path d="M521.3,71.8H521V53.6c-0.3-0.1-0.5-0.3-0.8-0.4c-2.5,4.9-5.2,9.6-8,14.2c2.9,1.6,5.8,3.2,8.8,4.8
	C521,72.1,521.2,71.9,521.3,71.8z"/>
<path d="M512.1,67.4c-3.2,5.1-6.6,10-10.2,14.7v3.6h7c4-4.5,8-9,11.9-13.5C518,70.6,515.1,69,512.1,67.4z"/>
<path d="M552.2,33c-2.2-2.8-5.1-5-8.5-6.5c-2.7-1.2-6-1.9-10-2.1c-1.3,2-2.5,4-3.4,6c6.5,2,13,4.1,19.5,6.2
	C550.6,35.5,551.4,34.3,552.2,33C552.2,33.1,552.2,33.1,552.2,33z"/>
<path d="M537.8,44.2c1.6,0.7,3.2,1.4,4.8,2c2.5-3.2,4.9-6.4,7.2-9.6c-6.5-2.1-13-4.2-19.5-6.2c-0.1,0.3-0.2,0.5-0.3,0.8
	c-0.9,2.4-1.8,4.7-2.8,7.1c4.2,0.2,7.3,1.4,9.2,3.6C536.8,42.5,537.3,43.3,537.8,44.2z"/>
<path d="M542.6,46.3c-1.6-0.7-3.2-1.4-4.8-2c0.7,1.6,1.2,3.7,1.5,6.3C540.4,49.1,541.5,47.7,542.6,46.3z"/>
<path d="M552.2,33.1c-0.8,1.2-1.6,2.4-2.5,3.5c1.9,0.6,3.8,1.3,5.7,1.9C554.6,36.6,553.5,34.8,552.2,33.1z"/>
<path d="M541.5,63.8c3.2-4.6,6.3-9.2,9.4-13.9c-2.8-1.2-5.5-2.4-8.3-3.6c-1.1,1.4-2.2,2.8-3.3,4.2c0.1,1.4,0.2,3,0.2,4.7
	c0,2.9-0.2,5.4-0.5,7.3C539.8,62.9,540.6,63.4,541.5,63.8z"/>
<path d="M555.4,38.6c-1.9-0.6-3.8-1.3-5.7-1.9c-2.3,3.3-4.7,6.5-7.2,9.6c2.8,1.2,5.6,2.4,8.3,3.6c1.9-2.9,3.8-5.8,5.6-8.7
	C556.2,40.3,555.8,39.4,555.4,38.6z"/>
<path d="M541.5,63.8c-0.9-0.4-1.7-0.8-2.6-1.3c-0.2,1.3-0.5,2.4-0.9,3.3c-1,2.2-2.3,3.7-3.9,4.6c-1.7,0.9-4.5,1.3-8.5,1.3h-4.3
	c-0.1,0.1-0.3,0.3-0.4,0.4c3.4,1.9,6.8,3.8,10.1,5.8C534.6,73.3,538.1,68.6,541.5,63.8z"/>
<path d="M520.9,72.2c-4,4.5-8,9-11.9,13.5h15.8c2.1-2.5,4.2-5.1,6.2-7.7C527.6,76,524.3,74.1,520.9,72.2z"/>
<path d="M558.3,50.3c-0.5,0.7-1,1.5-1.5,2.2c0.6,0.3,1.1,0.5,1.7,0.8C558.4,52.3,558.4,51.3,558.3,50.3z"/>
<path d="M556.8,52.5c-3.2,4.7-6.4,9.4-9.3,14.2c2.8,1.4,5.6,2.8,8.4,4.1c0.1-0.3,0.3-0.5,0.4-0.8c1.5-3.6,2.2-8.7,2.2-15.3
	c0-0.5,0-1,0-1.5C557.9,53,557.3,52.8,556.8,52.5z"/>
<path d="M538.4,84.8c0.9-0.2,1.9-0.4,2.8-0.7c-0.7-0.4-1.3-0.8-2-1.2C538.9,83.5,538.7,84.2,538.4,84.8z"/>
<path d="M550.1,79.2c2.5-2.3,4.4-5,5.9-8.3c-2.8-1.4-5.6-2.8-8.4-4.1c-3.1,5.2-5.9,10.5-8.3,16.2c0.7,0.4,1.3,0.8,2,1.2
	c0.1,0,0.2,0,0.3-0.1C544.5,83.2,547.4,81.6,550.1,79.2z"/>
<path d="M558.3,50.3c-0.2-2.6-0.6-5.1-1.3-7.4c-0.2-0.6-0.4-1.1-0.5-1.7c-1.8,2.9-3.7,5.8-5.6,8.7c2,0.9,3.9,1.7,5.9,2.6
	C557.3,51.8,557.8,51,558.3,50.3z"/>
<path d="M550.9,49.9c-3.1,4.7-6.2,9.3-9.4,13.9c2,1,4,2,6,3c2.9-4.9,6-9.6,9.3-14.2C554.8,51.6,552.9,50.8,550.9,49.9z"/>
<path d="M541.5,63.8c-3.4,4.8-6.9,9.6-10.5,14.2c2.8,1.6,5.5,3.2,8.2,4.9c2.4-5.6,5.2-11,8.3-16.2C545.5,65.7,543.5,64.8,541.5,63.8
	z"/>
<path d="M524.8,85.7h5.4c2.5,0,5.3-0.3,8.2-0.9c0.3-0.6,0.5-1.3,0.8-1.9c-2.7-1.7-5.5-3.3-8.2-4.9C529,80.6,526.9,83.2,524.8,85.7z"
	/>
<path d="M532.7,24.3c-0.8,0-1.6-0.1-2.5-0.1H514c-0.2,0.4-0.5,0.7-0.7,1.1c5.2,1.5,10.5,3.1,15.6,4.7
	C530.2,28.1,531.5,26.2,532.7,24.3z"/>
<path d="M523.7,38.2c1.8-2.7,3.5-5.4,5.3-8.2c-5.2-1.6-10.4-3.2-15.6-4.7c-1.5,2.4-3,4.7-4.5,7.1c4.8,1.9,9.6,3.8,14.3,5.8H523.7z"
	/>
<path d="M508.9,32.4c-2.3,3.5-4.5,7-6.9,10.4v1.4c4.5,2.2,8.9,4.4,13.4,6.6c1.9-2.8,3.7-5.7,5.6-8.5v-4.1h2.2
	C518.4,36.2,513.6,34.3,508.9,32.4z"/>
<path d="M515.4,50.8c-4.5-2.2-8.9-4.4-13.4-6.6V62c1.6,0.8,3.1,1.6,4.6,2.4C509.5,59.9,512.4,55.4,515.4,50.8z"/>
<path d="M502,62v9.8c1.5-2.5,3.1-4.9,4.6-7.3C505.1,63.6,503.5,62.8,502,62z"/>
<path d="M605.9,37c-3.6-1.2-7.3-2.4-10.9-3.6c-0.5,0.8-1.1,1.6-1.6,2.4l3.4,15.3C599.8,46.3,602.9,41.7,605.9,37z"/>
<path d="M610,30.5l-1.2-6.2h-7.8c-2,3-4,6-6.1,9.1c3.6,1.2,7.3,2.4,10.9,3.6C607.3,34.8,608.7,32.7,610,30.5z"/>
<path d="M603.5,56.8c3.1-5,6-10.1,8.6-15.3l-0.5-2.7c-1.9-0.6-3.8-1.2-5.7-1.9c-3,4.7-6.1,9.4-9.2,14.1l0.7,3.3
	C599.5,55.2,601.5,56,603.5,56.8z"/>
<path d="M603.5,56.8c-2-0.8-4-1.7-6-2.5l2,8.9C600.8,61.1,602.2,59,603.5,56.8z"/>
<path d="M610,30.5c-1.3,2.2-2.7,4.3-4.1,6.5c1.9,0.6,3.8,1.2,5.7,1.9L610,30.5z"/>
<path d="M635.8,25.8c-1.3-0.5-2.5-1.1-3.8-1.6h-1c-2.1,6.3-4.5,12.5-7.2,18.6c1.9,0.6,3.7,1.2,5.6,1.8
	C631.9,38.6,634.1,32.3,635.8,25.8z"/>
<path d="M604.7,76.4c-0.6,0.8-1.2,1.7-1.7,2.5l1.5,6.8h1.4c1.5-2,3-4.1,4.4-6.2C608.4,78.5,606.6,77.4,604.7,76.4z"/>
<path d="M619.9,64.1c-1.9-0.9-3.8-1.7-5.7-2.6c-3,5.1-6.1,10-9.5,14.8c1.8,1,3.7,2.1,5.5,3.1C613.7,74.5,616.9,69.4,619.9,64.1z"/>
<path d="M629.4,44.7c-1.9-0.6-3.7-1.2-5.6-1.8c-2.9,6.4-6.1,12.6-9.6,18.7c1.9,0.9,3.8,1.7,5.7,2.6
	C623.4,57.9,626.6,51.4,629.4,44.7z"/>
<path d="M636.3,24.3h-4.2c1.3,0.5,2.5,1,3.8,1.6C636,25.3,636.1,24.8,636.3,24.3z"/>
<path d="M623.8,42.9c-1.3-0.4-2.5-0.8-3.8-1.2l-4.7,17l-3.2-17.1c-2.7,5.2-5.6,10.3-8.6,15.3c3.6,1.5,7.1,3.1,10.7,4.7
	C617.7,55.5,620.9,49.3,623.8,42.9z"/>
<path d="M614.2,61.5c-3.5-1.6-7.1-3.2-10.7-4.7c-1.3,2.1-2.6,4.3-4,6.4l2.6,11.7c0.9,0.5,1.8,1,2.6,1.5
	C608,71.5,611.2,66.6,614.2,61.5z"/>
<path d="M604.7,76.4c-0.9-0.5-1.8-1-2.6-1.5l0.9,4C603.6,78.1,604.1,77.2,604.7,76.4z"/>
<path d="M631,24.3h-6.2L620,41.6c1.3,0.4,2.5,0.8,3.8,1.2C626.6,36.8,629,30.6,631,24.3z"/>
<path d="M632.3,52.6c-3.3,4.3-6.5,8.5-9.6,12.8c1.8,0.9,3.6,1.7,5.4,2.6L632.3,52.6z"/>
<path d="M623.1,85.7L628,68c-1.8-0.9-3.6-1.7-5.4-2.6c-3.7,5-7.3,9.9-10.8,15c3,1.7,5.9,3.5,8.8,5.3H623.1z"/>
<path d="M620.7,85.7c-2.9-1.8-5.9-3.6-8.8-5.3c-1.2,1.7-2.4,3.5-3.6,5.3H620.7z"/>
<path d="M646,50.4c0.9-1.7,1.7-3.5,2.6-5.3L645.8,35c-3.1,4-6.2,8-9.2,12c1.1,0.4,2.2,0.7,3.3,1.1C641.9,48.8,644,49.6,646,50.4z"/>
<path d="M646,50.4c-2-0.8-4.1-1.5-6.1-2.2c-1.1-0.4-2.2-0.7-3.3-1.1c-0.7,0.9-1.3,1.7-2,2.6l4,14.5C641.2,59.6,643.7,55,646,50.4z"
	/>
<path d="M663.2,38.1c-2.1-1-4.2-1.9-6.4-2.9l-3.4,18.2c1,0.4,1.9,0.9,2.9,1.3C658.7,49.2,661,43.6,663.2,38.1z"/>
<path d="M648.6,45.1c-0.8,1.8-1.7,3.5-2.6,5.3c1.5,0.6,3,1.2,4.6,1.8L648.6,45.1z"/>
<path d="M656.3,54.7c-1-0.4-1.9-0.9-2.9-1.3l-1,5.3l-1.8-6.4c-1.5-0.6-3-1.2-4.6-1.8c-2.4,4.7-4.8,9.2-7.4,13.8l3,10.8
	c1.5,0.8,3,1.6,4.5,2.4C649.5,69.8,653,62.3,656.3,54.7z"/>
<path d="M646.1,77.4c-1.5-0.8-3-1.6-4.5-2.4l2.1,7.7C644.6,80.9,645.3,79.2,646.1,77.4z"/>
<path d="M668.1,24.3h-9.3l-2.1,10.9c2.1,1,4.3,1.9,6.4,2.9C664.9,33.5,666.6,28.9,668.1,24.3z"/>
<path d="M669.9,41.1c-2.3-1-4.5-2-6.8-3.1c-2.2,5.6-4.5,11.1-6.9,16.6c2.9,1.3,5.9,2.7,8.8,4.1C666.8,52.9,668.4,47,669.9,41.1z"/>
<path d="M665.1,58.8c-2.9-1.4-5.8-2.8-8.8-4.1c-3.3,7.6-6.8,15.2-10.1,22.7c3.6,1.9,7.1,3.9,10.7,6
	C659.9,75.3,662.6,67.1,665.1,58.8z"/>
<path d="M646.1,77.4c-0.8,1.8-1.6,3.5-2.4,5.3l0.8,3h11.3c0.3-0.8,0.6-1.6,0.9-2.4C653.3,81.3,649.7,79.3,646.1,77.4z"/>
<path d="M674,24.3h-5.9c-1.5,4.6-3.2,9.2-5,13.8c2.3,1,4.5,2,6.8,3.1C671.4,35.5,672.8,29.9,674,24.3z"/>
<path d="M672.8,42.4c-1-0.4-1.9-0.9-2.9-1.3c-1.5,5.9-3.1,11.8-4.9,17.6c1.2,0.6,2.5,1.2,3.7,1.8L672.8,42.4z"/>
<path d="M663.2,85.7l5.5-25.1c-1.2-0.6-2.5-1.2-3.7-1.8c-2.5,8.3-5.2,16.5-8.3,24.6c1.3,0.8,2.7,1.6,4,2.4H663.2z"/>
<path d="M660.8,85.7c-1.3-0.8-2.7-1.6-4-2.4c-0.3,0.8-0.6,1.6-0.9,2.4H660.8z"/>
<path d="M676.8,24.3H674c-1.3,5.6-2.7,11.2-4.1,16.9c1,0.4,1.9,0.9,2.9,1.3L676.8,24.3z"/>
<path d="M629.4,44.7c-2.8,6.7-6,13.2-9.5,19.4c0.9,0.4,1.9,0.9,2.8,1.3c3.2-4.3,6.4-8.6,9.6-12.8l1.6-5.6l0.7,2.6
	c0.7-0.9,1.3-1.7,2-2.6C634.2,46.3,631.8,45.5,629.4,44.7z"/>
<path d="M622.6,65.5c-0.9-0.4-1.9-0.9-2.8-1.3c-3,5.3-6.2,10.4-9.6,15.4c0.5,0.3,1.1,0.6,1.6,0.9C615.4,75.4,619,70.4,622.6,65.5z"
	/>
<path d="M610.2,79.5c-1.4,2.1-2.9,4.2-4.4,6.2h2.4c1.2-1.8,2.4-3.5,3.6-5.3C611.3,80.1,610.8,79.8,610.2,79.5z"/>
<path d="M644.3,29.6c-1.8-0.8-3.6-1.6-5.4-2.4c-1-0.4-2-0.9-3-1.3c-1.8,6.5-3.9,12.7-6.5,18.9c2.4,0.8,4.8,1.6,7.2,2.4
	c3.1-4,6.2-8,9.2-12L644.3,29.6z"/>
<path d="M644.3,29.6l-1.5-5.3h-6.5c-0.1,0.5-0.3,1.1-0.4,1.6c1,0.4,2,0.9,3,1.3C640.7,28,642.5,28.8,644.3,29.6z"/>
<path d="M595,33.3c-0.8-0.3-1.6-0.5-2.4-0.8l0.7,3.2C593.9,34.9,594.5,34.1,595,33.3z"/>
<path d="M595,33.3c2-3,4.1-6,6.1-9.1h-10.3l1.8,8.3C593.4,32.8,594.2,33.1,595,33.3z"/>
<path d="M691.9,51.1c-3-1.3-5.9-2.7-8.9-4v20.6c0.6,0.3,1.2,0.6,1.8,0.9C687.4,62.8,689.8,57,691.9,51.1z"/>
<path d="M684.8,68.5c-0.6-0.3-1.2-0.6-1.8-0.9v4.8C683.6,71.2,684.2,69.8,684.8,68.5z"/>
<path d="M698.1,25.2c-2.9-0.3-5.8-0.6-8.8-0.9H683V47c3,1.3,5.9,2.7,8.9,4C694.8,42.7,697,34.1,698.1,25.2z"/>
<path d="M698.2,25c-0.6-0.2-1.3-0.5-1.9-0.7h-6.9c2.9,0.3,5.8,0.6,8.8,0.9C698.1,25.1,698.2,25,698.2,25z"/>
<path d="M698.3,24.3h-2c0.6,0.2,1.3,0.5,1.9,0.7C698.2,24.7,698.2,24.5,698.3,24.3z"/>
<path d="M712.7,31.4c-0.2,2-0.5,4-0.8,6h11.2C719.6,35.4,716.1,33.5,712.7,31.4z"/>
<path d="M726.5,27.2c-4.4-0.2-8.8-0.5-13.3-0.8c-0.1,1.4-0.3,2.7-0.4,4.1c4.4,1.7,8.9,3.4,13.3,5C726.2,32.7,726.4,29.9,726.5,27.2z
	"/>
<path d="M726,37.4c0-0.6,0-1.3,0.1-1.9c-4.4-1.7-8.9-3.3-13.3-5c0,0.3-0.1,0.6-0.1,1c3.4,2,6.9,4,10.4,6H726z"/>
<path d="M726.6,24.3h-13.2c-0.1,0.7-0.1,1.4-0.2,2.1c4.4,0.3,8.8,0.6,13.3,0.8C726.5,26.2,726.5,25.2,726.6,24.3z"/>
<path d="M731.6,37.4h2.3v-9.9c-2.5-0.1-4.9-0.2-7.4-0.3c-0.1,2.8-0.2,5.5-0.3,8.3c0.6,0.2,1.2,0.4,1.8,0.7
	C729.1,36.6,730.3,37,731.6,37.4z"/>
<path d="M727.9,36.2c-0.6-0.2-1.2-0.4-1.8-0.7c0,0.6,0,1.3-0.1,1.9h5.5C730.3,37,729.1,36.6,727.9,36.2z"/>
<path d="M733.9,24.3h-7.3c0,1-0.1,1.9-0.1,2.9c2.5,0.1,4.9,0.2,7.4,0.3V24.3z"/>
<path d="M707.6,58.2c-0.1,0.5-0.3,1-0.4,1.5h3.8C709.9,59.2,708.7,58.7,707.6,58.2z"/>
<path d="M724.5,59.7c0.4-4.2,0.8-8.3,1-12.5h-15.3c-0.8,3.7-1.6,7.4-2.6,11c1.1,0.5,2.3,1,3.4,1.5H724.5z"/>
<path d="M731.6,47.2h-6.1c-0.3,4.2-0.6,8.4-1,12.5h7.1V47.2z"/>
<path d="M698.2,25c0,0.1,0,0.1,0,0.2c0.2,0,0.5,0,0.7,0.1C698.6,25.1,698.4,25.1,698.2,25z"/>
<path d="M702.9,25.6c-0.7-0.4-1.4-0.9-2.1-1.3h-2.5c0,0.2-0.1,0.5-0.1,0.7c0.2,0.1,0.4,0.2,0.7,0.2
	C700.2,25.3,701.6,25.5,702.9,25.6z"/>
<path d="M713.2,26.4c0.1-0.7,0.1-1.4,0.2-2.1h-12.6c0.7,0.4,1.4,0.9,2.1,1.3C706.4,25.9,709.8,26.2,713.2,26.4z"/>
<path d="M703.5,71.8H702V59.7h5.2c0.1-0.5,0.3-1,0.4-1.5c-5.2-2.4-10.5-4.7-15.7-7.1c-2.1,5.9-4.5,11.7-7.1,17.4
	c5.7,2.8,11.4,5.4,17.2,7.7C702.5,74.7,703,73.3,703.5,71.8z"/>
<path d="M684.8,68.5c-0.6,1.3-1.2,2.6-1.8,3.9v13.3h15.3c1.3-3.2,2.5-6.3,3.7-9.5C696.2,73.9,690.4,71.3,684.8,68.5z"/>
<path d="M710.2,47.2H702v-9.8h9.9c0.3-2,0.6-4,0.8-6c-1.5-0.9-3-1.8-4.5-2.7c-3.1-1.2-6.2-2.3-9.4-3.5c-0.2,0-0.5,0-0.7-0.1
	c-1.1,9-3.3,17.6-6.3,25.9c5.2,2.4,10.5,4.7,15.7,7.1C708.5,54.5,709.4,50.9,710.2,47.2z"/>
<path d="M702.9,25.6c-1.4-0.1-2.7-0.2-4.1-0.4c3.1,1.2,6.3,2.3,9.4,3.5C706.4,27.7,704.7,26.6,702.9,25.6z"/>
<path d="M712.8,30.5c-1.5-0.6-3.1-1.2-4.6-1.7c1.5,0.9,3,1.8,4.5,2.7C712.7,31.1,712.8,30.8,712.8,30.5z"/>
<path d="M712.8,30.5c0.2-1.4,0.3-2.7,0.4-4.1c-3.4-0.2-6.9-0.5-10.3-0.8c1.7,1.1,3.5,2.1,5.3,3.2C709.7,29.3,711.3,29.9,712.8,30.5z
	"/>
<path d="M701.9,76.2c-1.2,3.2-2.4,6.4-3.7,9.5h22.4c0.2-1.2,0.5-2.3,0.7-3.5C714.7,80.8,708.3,78.7,701.9,76.2z"/>
<path d="M723,71.8h-19.5c-0.5,1.5-1,2.9-1.6,4.4c6.3,2.5,12.7,4.6,19.3,6C721.9,78.8,722.5,75.3,723,71.8z"/>
<path d="M732.5,71.8H723c-0.5,3.5-1.1,7-1.7,10.4c0.9,0.2,1.7,0.4,2.6,0.5C726.8,79.2,729.7,75.5,732.5,71.8z"/>
<path d="M721.3,82.2c-0.2,1.2-0.5,2.3-0.7,3.5h0.9c0.8-1,1.6-2,2.4-3C723,82.6,722.1,82.4,721.3,82.2z"/>
<path d="M723.9,82.7c-0.8,1-1.6,2-2.4,3h13.3v-1.7C731.1,83.9,727.5,83.4,723.9,82.7z"/>
<path d="M734.8,71.8h-2.3c-2.8,3.7-5.7,7.4-8.6,10.9c3.6,0.7,7.2,1.1,10.9,1.3V71.8z"/>
<path d="M778.7,38.2C778.7,38.3,778.7,38.3,778.7,38.2c1.3-3.8,2.5-7.7,3.7-11.6c-3.8,0.3-7.5,0.5-11.2,0.6c-0.9,3.2-2,6.4-3.3,9.4
	h4.8C775.5,36.7,777.5,37.2,778.7,38.2z"/>
<path d="M782.3,26.6c-2.1-0.8-4.3-1.5-6.4-2.3h-4.1c-0.2,1-0.5,2-0.8,3C774.8,27.1,778.6,26.9,782.3,26.6
	C782.3,26.6,782.3,26.6,782.3,26.6z"/>
<path d="M783,24.4c-0.8-0.1-1.6-0.1-2.4-0.1H776c2.1,0.8,4.3,1.5,6.4,2.3C782.6,25.8,782.8,25.1,783,24.4z"/>
<path d="M796.9,31.9c-0.7-1.2-1.6-2.3-2.7-3.3c-0.8-0.7-1.7-1.4-2.7-1.9c0,1.1,0.1,2.1,0.1,3.2C793.4,30.6,795.2,31.3,796.9,31.9z"
	/>
<path d="M799,39.6c0-2.9-0.7-5.4-2.1-7.6c-1.8-0.7-3.5-1.3-5.3-2c0.1,5.6-0.2,11.1-0.7,16.7c2,0.2,3.9,0.4,5.8,0.7
	C798.3,45.1,799,42.5,799,39.6z"/>
<path d="M790.9,46.7c-0.2,2-0.4,3.9-0.6,5.9c2.3-0.9,4-2.1,5.3-3.6c0.4-0.5,0.8-1,1.2-1.6C794.8,47.1,792.9,46.9,790.9,46.7z"/>
<path d="M758.8,83.4c-0.5,0.8-1,1.5-1.5,2.3h6c-0.5-0.2-1-0.4-1.4-0.6C760.9,84.6,759.8,84,758.8,83.4z"/>
<path d="M783.2,85.3c2-6.5,3.7-13.1,5-19.8c-2-0.7-4-1.3-6-2c0.4,0.8,0.6,1.7,0.6,2.6c0,2-0.7,3.5-2,4.7c-1.3,1.2-3.6,1.7-6.9,1.7
	H765c-1.9,3.8-4,7.4-6.2,10.9c1,0.6,2.1,1.2,3.1,1.7c0.5,0.2,1,0.4,1.4,0.6h14.5C778.9,85.7,780.7,85.6,783.2,85.3z"/>
<path d="M791.6,26.7c-0.4-0.2-0.9-0.5-1.4-0.7c-0.4,0-0.9,0.1-1.3,0.1c-2.1,0.2-4.2,0.3-6.4,0.5c3,1.1,6.1,2.2,9.1,3.3
	C791.6,28.9,791.6,27.8,791.6,26.7z"/>
<path d="M791.6,29.9c-3-1.1-6.1-2.2-9.1-3.3c-0.1,0-0.1,0-0.2,0c-1.1,3.9-2.3,7.8-3.6,11.7c1.1,1,1.7,2.4,1.7,4.1
	c0,1.2-0.3,2.2-0.7,3.1c3.8,0.4,7.5,0.7,11.3,1.1C791.5,41.1,791.7,35.5,791.6,29.9z"/>
<path d="M790.9,46.7c-3.7-0.4-7.5-0.8-11.3-1.1c-0.3,0.5-0.6,0.9-1,1.3c-0.7,0.6-1.8,1.1-3.3,1.3c-1.4,3.8-2.8,7.6-4.4,11.3
	c0.6,0.2,1.1,0.4,1.7,0.6h1.2c3.3,0,5.7,0.6,7,1.7c0.6,0.5,1.1,1.1,1.4,1.7c2,0.7,4,1.4,6,2c0.8-4,1.5-8.1,2-12.1
	c-0.4-0.1-0.8-0.2-1.2-0.3c0.5-0.2,0.9-0.3,1.3-0.5C790.6,50.6,790.8,48.6,790.9,46.7z"/>
<path d="M771,59.5c-0.1,0.2-0.2,0.4-0.2,0.6h1.9C772.1,59.9,771.6,59.7,771,59.5z"/>
<path d="M788.9,26.2c0.4,0,0.9-0.1,1.3-0.1c-2.1-0.9-4.4-1.5-7.2-1.7c-0.2,0.7-0.4,1.5-0.7,2.2c0.1,0,0.1,0,0.2,0.1
	C784.7,26.5,786.8,26.3,788.9,26.2z"/>
<path d="M782.3,26.6C782.3,26.6,782.3,26.6,782.3,26.6c0,0.1,0.1,0.1,0.2,0.1C782.5,26.6,782.4,26.6,782.3,26.6z"/>
<path d="M801.2,63.4c-0.5-1.8-1.3-3.5-2.5-4.9c-1.9-2.3-4.7-4-8.5-5.1c-0.5,4.1-1.2,8.1-2,12.1c3.8,1.3,7.6,2.5,11.4,3.6
	C800.2,67.2,800.7,65.3,801.2,63.4z"/>
<path d="M793.6,82.9c0.6-0.3,1.2-0.7,1.7-1.1c1.7-4.1,3.1-8.3,4.4-12.7c-3.8-1.2-7.6-2.4-11.4-3.6c-1.3,6.7-3,13.3-5,19.8
	c0.9-0.1,2-0.2,3.1-0.4C789.6,84.5,792,83.8,793.6,82.9z"/>
<path d="M799.6,76.8c1.2-2.1,2-4.5,2.2-7.1c-0.7-0.2-1.4-0.4-2.2-0.7c-1.3,4.3-2.7,8.6-4.4,12.7C797,80.4,798.5,78.8,799.6,76.8z"/>
<path d="M801.9,68.2c0-1.8-0.2-3.4-0.6-4.9c-0.5,1.9-1,3.8-1.6,5.7c0.7,0.2,1.4,0.4,2.2,0.7C801.8,69.3,801.9,68.8,801.9,68.2z"/>
<path d="M745.1,85.7h12.2c0.5-0.8,1-1.5,1.5-2.3c-4.6-2.7-9.1-6.2-13.7-8.6V85.7z"/>
<path d="M764.2,72.5V60.1h6.5c0.1-0.2,0.2-0.4,0.2-0.6c-2-0.8-4.1-1.5-6.1-2.3c-2.1-0.8-4.3-1.7-6.4-2.5c-4.1,6.6-8.7,13-13.5,19.2
	v0.9c4.6,2.5,9.1,5.9,13.7,8.6c2.2-3.5,4.3-7.1,6.2-10.9H764.2z"/>
<path d="M764.2,48.4v-3.8c-1.7,3.4-3.7,6.8-5.7,10c2.1,0.9,4.2,1.7,6.4,2.5c2,0.8,4.1,1.5,6.1,2.3c1.5-3.7,3-7.5,4.4-11.3
	c-0.8,0.1-1.8,0.2-2.9,0.2H764.2z"/>
<path d="M751.5,42.1c-1.4,2.6-2.8,5.1-4.2,7.6c3.7,1.7,7.5,3.4,11.3,4.9c2-3.3,4-6.6,5.7-10v-0.7C759.9,43.4,755.7,42.8,751.5,42.1z
	"/>
<path d="M764.2,36.7h3.6c1.3-3.1,2.4-6.2,3.3-9.4c-4.2,0.2-8.4,0.3-12.6,0.4c-2.1,4.9-4.5,9.7-7,14.5c4.2,0.7,8.5,1.3,12.8,1.8V36.7
	z"/>
<path d="M745.1,53.3v20.5c4.8-6.2,9.4-12.6,13.5-19.2c-3.8-1.6-7.6-3.2-11.3-4.9C746.5,50.9,745.8,52.1,745.1,53.3z"/>
<path d="M771.9,24.3h-12c-0.5,1.1-0.9,2.3-1.4,3.4c4.2-0.1,8.4-0.2,12.6-0.4C771.4,26.3,771.6,25.3,771.9,24.3z"/>
<path d="M745.1,53.3c0.7-1.2,1.5-2.4,2.2-3.6c-0.7-0.3-1.4-0.7-2.2-1V53.3z"/>
<path d="M758.4,27.6c-4.5,0.1-8.9,0.1-13.4,0.1v13.2c2.1,0.4,4.3,0.8,6.4,1.2C754,37.4,756.3,32.6,758.4,27.6z"/>
<path d="M745.1,40.9v7.8c0.7,0.3,1.4,0.7,2.2,1c1.5-2.5,2.9-5,4.2-7.6C749.3,41.8,747.2,41.3,745.1,40.9z"/>
<path d="M758.4,27.6c0.5-1.1,0.9-2.2,1.4-3.4h-14.8v3.4C749.5,27.7,754,27.7,758.4,27.6z"/>
<path d="M854.8,24.3h-8.4c2.5,1.2,5,2.4,7.5,3.7C854.2,26.7,854.5,25.5,854.8,24.3z"/>
<path d="M853.8,28c-2.5-1.2-5-2.5-7.5-3.7h-5.7v8.3c3.6,1.1,7.1,2.1,10.7,3.2C852.3,33.2,853.1,30.6,853.8,28z"/>
<path d="M851.4,35.8c-3.6-1.1-7.1-2.1-10.7-3.2v17.4c1.4,0.6,2.7,1.2,4.1,1.9C847.2,46.5,849.4,41.2,851.4,35.8z"/>
<path d="M844.8,51.8c-1.4-0.6-2.7-1.3-4.1-1.9v10.8C842.1,57.7,843.4,54.7,844.8,51.8z"/>
<path d="M862.1,32.1c-2.7-1.4-5.5-2.8-8.2-4.2c-0.7,2.6-1.6,5.2-2.5,7.8c2.7,0.8,5.3,1.6,8,2.4C860.3,36.2,861.2,34.1,862.1,32.1z"
	/>
<path d="M865.2,24.5c-0.6-0.1-1.2-0.2-1.9-0.2h-8.6c-0.3,1.2-0.6,2.5-1,3.7c2.7,1.4,5.5,2.8,8.2,4.2
	C863.1,29.6,864.2,27.1,865.2,24.5z"/>
<path d="M859.4,38.2c-2.7-0.8-5.3-1.6-8-2.4c-1.9,5.4-4.2,10.7-6.6,16c2.2,1,4.3,2,6.5,3C854.1,49.3,856.8,43.8,859.4,38.2z"/>
<path d="M840.7,74.1c3.7-6.3,7.2-12.7,10.6-19.2c-2.2-1-4.3-2-6.5-3c-1.3,3-2.7,5.9-4.1,8.9V74.1z"/>
<path d="M865.3,24.3h-2c0.6,0.1,1.2,0.2,1.9,0.2C865.3,24.4,865.3,24.4,865.3,24.3z"/>
<path d="M882.4,26.5c-0.2-0.1-0.5-0.2-0.8-0.3c-0.2,0.4-0.4,0.8-0.6,1.3c1.7,0.4,3.4,0.8,5.2,1.2C885,27.8,883.8,27.1,882.4,26.5z"
	/>
<path d="M850.2,85.7h18.7c0.1,0,0.2,0,0.3,0c-5.6-1-11.2-2.1-16.8-3.2C851.7,83.6,850.9,84.7,850.2,85.7z"/>
<path d="M887.6,46.9c-3.9-1.2-7.7-2.4-11.6-3.6c1.4,2.6,2.2,6.5,2.2,11.9c0,4.9-0.5,8.5-1.4,10.7c-0.2,0.5-0.5,1-0.8,1.5
	c1,0.5,1.9,1,2.9,1.6C881.9,61.6,884.9,54.4,887.6,46.9z"/>
<path d="M876,67.3c-0.9,1.4-1.9,2.4-3.2,3.1c-1.7,0.9-4.5,1.3-8.5,1.3h-4.7v-0.9c-2.3,3.9-4.7,7.8-7.3,11.6
	c5.6,1.2,11.2,2.2,16.8,3.2c1,0,2-0.1,3-0.2c2-5.6,4.3-11.1,6.5-16.6C877.9,68.4,876.9,67.9,876,67.3z"/>
<path d="M876,43.3c3.9,1.2,7.7,2.4,11.6,3.6c0.1-0.4,0.3-0.8,0.4-1.2c-4.1-2.2-8.2-4.4-12.3-6.6c-0.3,0.8-0.7,1.5-1,2.3
	c0.1,0.1,0.2,0.2,0.4,0.4C875.4,42.2,875.7,42.7,876,43.3z"/>
<path d="M891.6,34c-0.2-0.3-0.5-0.7-0.7-1c-1.3-1.7-2.9-3.1-4.7-4.4c-1.7-0.4-3.4-0.8-5.2-1.2c-1.8,3.9-3.6,7.8-5.4,11.7
	c4.1,2.2,8.2,4.3,12.3,6.6C889.4,41.9,890.6,38,891.6,34z"/>
<path d="M888,45.7c-0.1,0.4-0.3,0.8-0.4,1.2c2.1,0.7,4.2,1.4,6.4,2C892,47.9,890,46.8,888,45.7z"/>
<path d="M897,49.9c-0.2-2.4-0.6-4.8-1.3-7.1c-0.9-3.3-2.3-6.3-4.1-8.9c-1,4-2.3,7.9-3.6,11.7c2,1.1,4,2.2,6,3.2
	C895,49.3,896,49.6,897,49.9z"/>
<path d="M897.2,56.2c0-0.5,0-1,0-1.5c0-1.4-0.1-2.8-0.2-4.1c-1-0.6-2.1-1.1-3.1-1.7c-2.1-0.7-4.2-1.4-6.4-2
	c-2.7,7.4-5.7,14.7-8.8,22c3.9,2.2,7.8,4.4,11.6,6.6C893.1,69.2,895.4,62.8,897.2,56.2z"/>
<path d="M878.8,68.9c-2.3,5.5-4.5,11-6.5,16.6c2.5-0.2,5.1-0.7,7.9-1.5c3-0.8,5.9-2.4,8.6-4.9c0.1-0.1,0.2-0.2,0.3-0.3
	c0.5-1.1,0.9-2.2,1.4-3.3C886.6,73.3,882.7,71.1,878.8,68.9z"/>
<path d="M897,49.9c-1-0.3-2-0.6-3-1c1,0.6,2.1,1.1,3.1,1.7C897,50.4,897,50.2,897,49.9z"/>
<path d="M895,70.1c0.8-1.9,1.3-4.1,1.7-6.8c-1,2.9-2,5.9-2.8,8.8c0.8-3,1.8-5.9,2.8-8.8c0.3-2.1,0.5-4.5,0.5-7.1
	c-1.8,6.6-4.1,13-6.7,19.3c0.3,0.2,0.7,0.4,1,0.6C892.9,74.3,894.1,72.3,895,70.1z"/>
<path d="M891.5,76.1c-0.3-0.2-0.7-0.4-1-0.6c-0.5,1.1-0.9,2.2-1.4,3.3C890,78,890.7,77.1,891.5,76.1z"/>
<path d="M840.7,85.7h9.5c0.8-1.1,1.5-2.2,2.3-3.2c-3.9-0.8-7.8-1.7-11.7-2.5V85.7z"/>
<path d="M859.7,38.3c-0.1,0-0.2-0.1-0.3-0.1c-2.6,5.6-5.3,11.2-8.1,16.6c2.8,1.3,5.6,2.7,8.4,4.1V38.3z"/>
<path d="M851.3,54.8c-3.4,6.5-6.9,12.9-10.6,19.2V80c3.9,0.9,7.8,1.7,11.7,2.5c2.6-3.8,5-7.7,7.3-11.6v-12
	C856.9,57.5,854.1,56.1,851.3,54.8z"/>
<path d="M859.7,38.2h4.7c4.7,0,8.1,1.1,10.2,3.3c0.3-0.8,0.7-1.5,1-2.3c-4.5-2.4-9.1-4.7-13.6-7.1c-0.9,2-1.8,4.1-2.7,6.1
	C859.5,38.2,859.6,38.2,859.7,38.2L859.7,38.2z"/>
<path d="M881,27.5c-2-0.5-4.1-0.9-6.2-1.3c-3.2-0.7-6.5-1.2-9.7-1.6c-1,2.5-2.1,5.1-3.2,7.6c4.5,2.3,9.1,4.7,13.6,7.1
	C877.5,35.3,879.2,31.4,881,27.5z"/>
<path d="M881,27.5c0.2-0.4,0.4-0.8,0.6-1.3c-3.3-1.3-7.6-2-12.7-2h-3.6c0,0.1-0.1,0.2-0.1,0.2c3.2,0.4,6.4,1,9.7,1.6
	C876.9,26.6,879,27,881,27.5z"/>
<path d="M925.8,24.3c-0.8,2.6-1.7,5.1-2.5,7.7c1.2-2.5,2.3-5.1,3.4-7.7H925.8z"/>
<path d="M907.2,33.7v6c0.9-1.8,1.8-3.5,2.7-5.3C909,34.2,908.1,34,907.2,33.7z"/>
<path d="M915.2,24.3h-8.1v9.5c0.9,0.2,1.8,0.5,2.7,0.7C911.7,31,913.5,27.7,915.2,24.3z"/>
<path d="M920.8,37.1c-3.6-0.9-7.3-1.8-10.9-2.7c-0.9,1.8-1.8,3.5-2.7,5.3v13.5c1.6,0.5,3.1,1,4.7,1.5C914.9,49,918,43.1,920.8,37.1z
	"/>
<path d="M907.2,53.2v3c1,0.6,2,1.1,3,1.7c0.6-1.1,1.1-2.1,1.7-3.2C910.3,54.3,908.7,53.8,907.2,53.2z"/>
<path d="M907.2,63.8c1-1.9,2-3.9,3-5.8c-1-0.6-2-1.1-3-1.7V63.8z"/>
<path d="M923.3,32c0.9-2.6,1.7-5.1,2.5-7.7h-10.5c-1.8,3.4-3.6,6.8-5.3,10.2c3.6,0.9,7.3,1.8,10.9,2.7
	C921.7,35.4,922.5,33.7,923.3,32z"/>
<path d="M921.4,37.3c-0.2,0-0.4-0.1-0.6-0.1c-2.9,6-5.9,11.8-9,17.7c0.6,0.2,1.2,0.4,1.8,0.6C916.8,49.4,919.2,43.4,921.4,37.3z"/>
<path d="M907.2,63.8v3c0.9-1.5,1.8-3.1,2.7-4.6c0.7-1.1,1.3-2.2,1.9-3.3c-0.5-0.3-1.1-0.6-1.6-0.9C909.2,59.9,908.2,61.8,907.2,63.8
	z"/>
<path d="M911.9,54.8c-0.6,1.1-1.1,2.1-1.7,3.2c0.5,0.3,1.1,0.6,1.6,0.9c0.6-1.1,1.3-2.3,1.9-3.5C913.1,55.2,912.5,55,911.9,54.8z"/>
<path d="M923.3,32c-0.8,1.7-1.6,3.5-2.4,5.2c0.2,0,0.4,0.1,0.6,0.1C922,35.5,922.7,33.7,923.3,32z"/>
<path d="M939.4,24.3h-9.8c-0.5,4.4-1.1,8.8-1.9,13.1h9.6C938.1,33,938.8,28.7,939.4,24.3z"/>
<path d="M947,24.3h-7.6c-0.6,4.4-1.3,8.8-2,13.1h8.5C946.3,33,946.7,28.6,947,24.3z"/>
<path d="M956.9,24.3H947c-0.4,4.4-0.7,8.7-1.1,13.1h7.8C954.7,33,955.8,28.6,956.9,24.3z"/>
<path d="M958.1,24.3h-1.2c-1.1,4.4-2.2,8.7-3.3,13.1h4.4V24.3z"/>
<path d="M924.9,49.2c0.5-1.6,0.9-3.2,1.3-4.8v-6c-1.6-0.4-3.2-0.8-4.8-1.2c-2.2,6.1-4.7,12.2-7.7,18.1c2.8,0.9,5.7,1.9,8.5,2.8
	C923.2,55.3,924.1,52.3,924.9,49.2z"/>
<path d="M909.9,62.2c-0.9,1.6-1.8,3.1-2.7,4.6v19h4.5c2.6-7.5,5.7-14.7,8.5-22.1c-2.8-1.6-5.6-3.2-8.4-4.8
	C911.2,60,910.6,61.1,909.9,62.2z"/>
<path d="M913.7,55.4c-0.6,1.2-1.2,2.3-1.9,3.5c2.8,1.6,5.6,3.2,8.4,4.8c0.7-1.8,1.3-3.6,1.9-5.4C919.3,57.3,916.5,56.3,913.7,55.4z"
	/>
<path d="M926.2,37.4h1.5c0.8-4.4,1.4-8.8,1.9-13.1h-2.9c-1.1,2.6-2.2,5.1-3.4,7.7c-0.6,1.8-1.2,3.5-1.9,5.3c1.6,0.4,3.2,0.8,4.8,1.2
	V37.4z"/>
<path d="M944.9,47.2h-9.3c-0.8,4.2-1.6,8.4-2.5,12.5h10.6C944.1,55.5,944.5,51.3,944.9,47.2z"/>
<path d="M951.3,47.2h-6.3c-0.4,4.2-0.8,8.4-1.2,12.5h4.7C949.3,55.5,950.3,51.3,951.3,47.2z"/>
<path d="M955.8,47.2h-4.5c-1,4.2-2,8.3-2.9,12.5h7.4V47.2z"/>
<path d="M930.7,71.8c-1,4.6-1.9,9.3-2.8,13.9h13.1c0.3-3.2,0.7-6.4,1-9.6c-2.5-1.5-5-2.9-7.5-4.3H930.7z"/>
<path d="M934.5,71.8c2.5,1.4,5,2.9,7.5,4.3c0.2-1.5,0.3-2.9,0.5-4.3H934.5z"/>
<path d="M940.9,85.7h2.1c0.5-2.7,1-5.4,1.5-8.1c-0.9-0.5-1.7-1-2.6-1.5C941.6,79.4,941.3,82.6,940.9,85.7z"/>
<path d="M942.4,71.8c-0.2,1.5-0.3,2.9-0.5,4.3c0.9,0.5,1.7,1,2.6,1.5c0.4-2,0.8-3.9,1.2-5.9H942.4z"/>
<path d="M943,85.7h15.2c-4.5-2.7-9.1-5.4-13.6-8.1C944,80.4,943.5,83,943,85.7z"/>
<path d="M959,71.8h-5.1c-0.7,1.1-1.4,2.2-2,3.3c0.7-1.1,1.3-2.3,2-3.3h-8.2c-0.4,2-0.8,3.9-1.2,5.9c4.5,2.7,9.1,5.3,13.6,8.1h0.8
	V71.8z"/>
<path d="M920.2,63.6c-2.8,7.4-5.9,14.6-8.5,22.1h16.1c0.9-4.6,1.9-9.3,2.8-13.9h-4.4V67C924.2,65.9,922.2,64.7,920.2,63.6z"/>
<path d="M926.2,59.7h0.2c-1.4-0.5-2.9-1-4.3-1.5c-0.6,1.8-1.3,3.6-1.9,5.4c2,1.1,4,2.3,6,3.4V59.7z"/>
<path d="M933.1,59.7c0.8-4.2,1.7-8.4,2.5-12.5h-9.4v-2.8c-0.4,1.6-0.8,3.2-1.3,4.8c-0.8,3.1-1.7,6.1-2.7,9.1c1.4,0.5,2.9,1,4.3,1.5
	H933.1z"/>
<path d="M981.7,47.9c-2-0.1-4-0.3-5.9-0.5c-1,0.9-1.9,1.7-2.9,2.6l3.2,8.5C978,54.9,979.8,51.4,981.7,47.9z"/>
<path d="M986.7,38c-3.7,3.1-7.4,6.2-10.9,9.4c2,0.2,3.9,0.4,5.9,0.5C983.4,44.6,985.1,41.3,986.7,38z"/>
<path d="M975.8,47.4c3.6-3.2,7.2-6.3,10.9-9.4c0.1-0.3,0.3-0.5,0.4-0.8l-4-12.9h0c-4.8,6.3-9,12.9-12.3,20l1,2.7
	C973.1,47.1,974.4,47.3,975.8,47.4z"/>
<path d="M975.8,47.4c-1.3-0.1-2.7-0.3-4-0.4l1.1,3C973.8,49.1,974.8,48.2,975.8,47.4z"/>
<path d="M983,24.3h-19.8l7.5,20C974,37.2,978.3,30.6,983,24.3z"/>
<path d="M987.1,37.2c-0.1,0.3-0.3,0.5-0.4,0.8c0.2-0.1,0.3-0.3,0.5-0.4L987.1,37.2z"/>
<path d="M990.6,48.5l-3.4-11c-0.2,0.1-0.3,0.3-0.5,0.4c-1.6,3.3-3.3,6.6-5,9.9c1.4,0.1,2.8,0.2,4.2,0.3
	C987.5,48.3,989.1,48.4,990.6,48.5z"/>
<path d="M993.7,58.5l-3.1-9.9c-1.6-0.1-3.2-0.3-4.7-0.4c-1.4-0.1-2.8-0.2-4.2-0.3c-1.8,3.5-3.7,7-5.6,10.5l8.3,22
	C987.6,73.2,990.8,65.8,993.7,58.5z"/>
<path d="M993.7,58.5c-3,7.4-6.1,14.7-9.3,22l0.2,0.6c2.9,1.2,5.8,2.3,8.8,3.5c1.1-6.1,2-12.3,2.7-18.4L993.7,58.5z"/>
<path d="M984.6,81l1.8,4.7h6.8c0.1-0.4,0.1-0.8,0.2-1.2C990.5,83.3,987.6,82.2,984.6,81z"/>
<path d="M1006.9,36.1l-4.1,13.4c1.4,0.1,2.8,0.2,4.1,0.4C1006.9,45.3,1006.9,40.7,1006.9,36.1z"/>
<path d="M996.4,85.7c-1-0.4-2-0.8-3-1.2c-0.1,0.4-0.1,0.8-0.2,1.2H996.4z"/>
<path d="M1006.9,85.7c0-12,0-23.9,0-35.9c-1.4-0.1-2.8-0.2-4.1-0.4l-5.9,19l-0.8-2.4c-0.7,6.2-1.6,12.3-2.7,18.4c1,0.4,2,0.8,3,1.2
	H1006.9z"/>
<path d="M1016.6,34.4c-2.6-1.5-5.2-3.1-7.8-4.7l-2,6.4c0,4.6,0,9.2,0,13.8c2.9,0.3,5.9,0.5,8.8,0.8
	C1016.1,45.2,1016.5,39.8,1016.6,34.4z"/>
<path d="M1014.5,65.6c0.4-5,0.8-10,1.2-14.9c-2.9-0.3-5.9-0.5-8.8-0.8c0,12,0,23.9,0,35.9h0.1L1014.5,65.6z"/>
<path d="M1016.6,24.3h-6.1l-1.7,5.4c2.6,1.6,5.2,3.1,7.8,4.7C1016.7,31,1016.8,27.6,1016.6,24.3z"/>
<path d="M1024.4,38.8c-2.6-1.4-5.2-2.9-7.8-4.4c-0.2,5.5-0.5,10.9-1,16.3c1.4,0.1,2.8,0.3,4.2,0.4L1024.4,38.8z"/>
<path d="M1015.7,50.7c-0.4,5-0.8,9.9-1.2,14.9l5.4-14.5C1018.5,50.9,1017.1,50.8,1015.7,50.7z"/>
<path d="M1016.6,34.4c2.6,1.5,5.2,3,7.8,4.4l5.4-14.5h-13.2C1016.8,27.6,1016.7,31,1016.6,34.4z"/>
<path d="M1084.6,47.2h-11c-1.3,3.1-2.7,6.1-4.2,9.1c5.1,0.6,10.1,1.1,15.2,1.6V47.2z"/>
<path d="M1084.6,57.9c-5.1-0.5-10.1-1.1-15.2-1.6c-0.5,1.1-1.1,2.3-1.6,3.4h16.8V57.9z"/>
<path d="M1061.5,71.8h-2.2c-2,4.6-4,9.3-6,13.9h0.1C1056.2,81.1,1058.9,76.5,1061.5,71.8z"/>
<path d="M1065,58.6c-0.2,0.4-0.3,0.7-0.5,1.1h3C1066.7,59.3,1065.8,59,1065,58.6z"/>
<path d="M1073.5,47.2h-3.5c-1.3,2.9-2.6,5.8-3.9,8.8c1.1,0.1,2.1,0.2,3.2,0.3C1070.8,53.2,1072.2,50.2,1073.5,47.2z"/>
<path d="M1067.7,59.7c0.6-1.1,1.1-2.3,1.6-3.4c-1.1-0.1-2.1-0.2-3.2-0.3c-0.4,0.9-0.8,1.8-1.2,2.7c0.8,0.4,1.7,0.7,2.5,1.1H1067.7z"
	/>
<path d="M1081.9,26.2c-1.3,3.8-2.8,7.5-4.3,11.2h9.2V24.3h-6c-2.2,4.3-4.3,8.7-6.3,13.1h3.1C1079.1,33.7,1080.5,29.9,1081.9,26.2z"
	/>
<path d="M1073.7,24.3h-11.7c-2.1,4.4-4.3,8.8-6.6,13.1h10.7C1068.6,33,1071.1,28.7,1073.7,24.3z"/>
<path d="M1080.8,24.3h-7.2c-2.5,4.4-5.1,8.8-7.6,13.1h8.5C1076.6,33,1078.7,28.6,1080.8,24.3z"/>
<path d="M1055.9,54.5c0,0.1-0.1,0.2-0.1,0.3c0.3,0,0.6,0.1,0.9,0.1C1056.5,54.8,1056.2,54.7,1055.9,54.5z"/>
<path d="M1064.5,59.7c0.2-0.4,0.3-0.7,0.5-1.1c-2.8-1.2-5.5-2.5-8.3-3.7c-0.3,0-0.6-0.1-0.9-0.1c-6,10.2-11.8,20.5-17.3,30.9h14.8
	c2-4.6,4-9.3,6-13.9h-4.3V59.7H1064.5z"/>
<path d="M1066.2,55.9c1.3-2.9,2.6-5.9,3.9-8.8h-9.8c-1.4,2.5-2.9,4.9-4.3,7.4c0.3,0.1,0.5,0.2,0.8,0.4
	C1059.9,55.2,1063,55.6,1066.2,55.9z"/>
<path d="M1066.2,55.9c-3.2-0.3-6.3-0.7-9.5-1c2.8,1.3,5.5,2.5,8.3,3.7C1065.4,57.7,1065.8,56.8,1066.2,55.9z"/>
<path d="M1055.9,54.5c-2.7-1.2-5.4-2.5-8.1-3.8c-0.6,1-1.2,2-1.7,3c3.2,0.3,6.5,0.7,9.7,1C1055.8,54.7,1055.9,54.6,1055.9,54.5z"/>
<path d="M1055.8,54.8c-3.2-0.4-6.5-0.7-9.7-1c-1.4,2.4-2.8,4.8-4.2,7.2c-2.3,8.2-4.5,16.3-5.9,24.7v0.1h2.6
	C1044,75.3,1049.8,65,1055.8,54.8z"/>
<path d="M1060.3,47.2h-5.2v-9.3c-2.3,4.3-4.8,8.6-7.2,12.8c2.7,1.3,5.4,2.6,8.1,3.8C1057.4,52.1,1058.8,49.6,1060.3,47.2z"/>
<path d="M1047.8,50.7c-0.9-0.4-1.8-0.9-2.7-1.3c-0.4,1.4-0.8,2.7-1.1,4.1c0.7,0.1,1.4,0.1,2.1,0.2
	C1046.7,52.7,1047.2,51.7,1047.8,50.7z"/>
<path d="M1044,53.5c-0.7,2.5-1.4,5-2.1,7.4c1.4-2.4,2.8-4.8,4.2-7.2C1045.4,53.7,1044.7,53.6,1044,53.5z"/>
<path d="M1055,37.9v-0.5h0.3c2.3-4.3,4.6-8.7,6.6-13.1h-1.8c-4.3,5.5-8.6,10.8-12.8,16.3c-0.7,3-1.5,6-2.3,8.9
	c0.9,0.4,1.8,0.9,2.7,1.3C1050.3,46.5,1052.7,42.2,1055,37.9z"/>
<path d="M1079.7,71.8h-18.2c-2.6,4.7-5.2,9.3-8,13.9h16.9C1073.4,81,1076.5,76.4,1079.7,71.8z"/>
<path d="M1087.8,76.6c-1.5,3-3,6.1-4.5,9.1h4.5V76.6z"/>
<path d="M1087.8,76.6v-4.8h-8.1c-3.2,4.6-6.3,9.2-9.3,13.9h12.9C1084.7,82.7,1086.2,79.6,1087.8,76.6z"/>
<path d="M1050.3,24.3c-0.1,1-0.3,1.9-0.4,2.9c-0.6,4.5-1.5,9-2.5,13.4c4.2-5.4,8.5-10.8,12.8-16.3H1050.3z"/>
<path d="M1041.9,47.8c-1.2,1.7-2.4,3.4-3.6,5.1c1.9,0.2,3.8,0.4,5.7,0.6c0.4-1.4,0.8-2.7,1.1-4.1C1044.1,48.9,1043,48.4,1041.9,47.8
	z"/>
<path d="M1038.3,52.9c-0.8,1.1-1.5,2.2-2.3,3.3v15.3c1.9-3.6,3.9-7.1,5.9-10.6c0.7-2.5,1.4-5,2.1-7.4
	C1042.1,53.3,1040.2,53.1,1038.3,52.9z"/>
<path d="M1047.4,40.5c-1.9,2.4-3.7,4.9-5.5,7.3c1.1,0.5,2.2,1.1,3.3,1.6C1045.9,46.5,1046.7,43.5,1047.4,40.5z"/>
<path d="M1036,71.6v14.1c1.4-8.4,3.6-16.5,5.9-24.7C1039.9,64.5,1037.9,68,1036,71.6z"/>
<path d="M1041.9,47.8c-2-1-4-2-5.9-3v7.8c0.8,0.1,1.5,0.2,2.3,0.2C1039.5,51.2,1040.7,49.5,1041.9,47.8z"/>
<path d="M1036,52.7v3.6c0.8-1.1,1.5-2.2,2.3-3.3C1037.5,52.8,1036.7,52.8,1036,52.7z"/>
<path d="M1036,24.3v20.6c2,1,3.9,2,5.9,3c1.8-2.5,3.6-4.9,5.5-7.3c1-4.4,1.9-8.8,2.5-13.4c0.1-0.9,0.3-1.9,0.4-2.9H1036z"/>
<path d="M1117,26.9v-2.6h-5.8c-1.9,3.4-4,6.8-6.1,10.1c1.7,1.4,3.3,2.8,5,4.1C1112.5,34.6,1114.8,30.7,1117,26.9z"/>
<path d="M1110.1,38.5c-1.7-1.4-3.3-2.8-5-4.1c-1.1,1.7-2.1,3.4-3.2,5c2.5,0.1,4.9,0.3,7.4,0.4C1109.6,39.4,1109.9,39,1110.1,38.5z"
	/>
<path d="M1109.3,39.8c-2.5-0.2-4.9-0.3-7.4-0.4c-1.3,2-2.6,4-3.9,5.9V58c3.1-5.3,6.4-10.6,9.9-15.9
	C1108.4,41.4,1108.9,40.6,1109.3,39.8z"/>
<path d="M1113.9,78.7c-1-0.6-2-1.1-3-1.5c-3.5-1.3-7-2.7-10.4-4c-0.8,1.7-1.6,3.4-2.4,5.1v7.5h12.4
	C1111.6,83.4,1112.7,81,1113.9,78.7z"/>
<path d="M1117,46c-3.5,4.5-6.7,9.4-9.6,14.3c3.2,0.3,6.4,0.6,9.6,1V46z"/>
<path d="M1113.9,78.7c1.3-2.7,2.6-5.4,3.8-8.1h-0.7v-9.3c-3.2-0.3-6.4-0.6-9.6-1c-2.5,4.2-4.8,8.5-6.9,12.9c3.5,1.3,6.9,2.7,10.4,4
	C1111.9,77.6,1112.9,78.1,1113.9,78.7z"/>
<path d="M1117,40.4V26.9c-2.2,3.9-4.5,7.7-6.9,11.7c0.6,0.5,1.2,1,1.8,1.5C1113.6,40.1,1115.3,40.3,1117,40.4z"/>
<path d="M1110.1,38.5c-0.3,0.4-0.5,0.9-0.8,1.3c0.9,0.1,1.7,0.1,2.6,0.2C1111.3,39.5,1110.7,39,1110.1,38.5z"/>
<path d="M1117,40.4c-1.7-0.1-3.4-0.2-5.1-0.4c1.7,1.4,3.4,2.8,5.1,4.2V40.4z"/>
<path d="M1117,46v-1.7c-1.7-1.4-3.4-2.8-5.1-4.2c-0.9-0.1-1.7-0.1-2.6-0.2c-0.5,0.8-1,1.5-1.4,2.3c-3.4,5.3-6.7,10.6-9.9,15.9v1.3
	c3.1,0.3,6.2,0.6,9.4,1C1110.3,55.3,1113.5,50.5,1117,46z"/>
<path d="M1107.4,60.3c-3.1-0.3-6.2-0.6-9.4-1v12.9c0.8,0.3,1.6,0.6,2.4,0.9C1102.6,68.8,1104.9,64.5,1107.4,60.3z"/>
<path d="M1098,72.2v6.1c0.8-1.7,1.6-3.4,2.4-5.1C1099.7,72.8,1098.8,72.5,1098,72.2z"/>
<path d="M1132.6,70.6h-14.9c-1.3,2.7-2.6,5.4-3.8,8.1c3.4,2,6.7,4.5,10,6.9C1126.5,80.5,1129.5,75.5,1132.6,70.6z"/>
<path d="M1123.8,85.6c-3.3-2.4-6.5-4.9-10-6.9c-1.1,2.3-2.3,4.7-3.4,7h13.3C1123.8,85.7,1123.8,85.7,1123.8,85.6z"/>
<path d="M1123.8,85.6c0,0,0,0.1-0.1,0.1h0.2C1123.9,85.7,1123.9,85.7,1123.8,85.6z"/>
<path d="M1128.8,85.7c4.3-5.1,8.7-10.1,13-15.1h-9.2c-3.1,4.9-6.1,9.9-8.8,15c0,0,0.1,0.1,0.1,0.1H1128.8z"/>
<path d="M1142.5,70.6c-4.6,4.6-8.7,9.7-12.3,15.1h16.4V70.6H1142.5z"/>
<path d="M1142.5,70.6h-0.7c-4.3,5-8.6,10.1-13,15.1h1.4C1133.9,80.3,1138,75.2,1142.5,70.6z"/>
<path d="M1111.2,24.3H1098v4.2c2.4,2,4.7,4,7.1,5.9C1107.2,31,1109.3,27.7,1111.2,24.3z"/>
<path d="M1105.1,34.4c-2.4-2-4.7-4-7.1-5.9v10.8c1.3,0.1,2.6,0.1,3.9,0.2C1103,37.7,1104.1,36.1,1105.1,34.4z"/>
<path d="M1098,39.2v6.1c1.3-2,2.6-3.9,3.9-5.9C1100.6,39.3,1099.3,39.3,1098,39.2z"/>
<path d="M1183.2,23.2c-7.3,0-13.4,1.5-18.3,4.5c3.2,1.8,6.5,3.6,9.7,5.4c3-3.3,6-6.6,9-9.9C1183.4,23.2,1183.3,23.2,1183.2,23.2z"/>
<path d="M1174.6,33.1c-3.2-1.8-6.5-3.6-9.7-5.4c-0.8,0.5-1.5,1-2.2,1.5c-2.9,3.8-5.8,7.6-8.7,11.5c-0.4,1.1-0.8,2.3-1.1,3.5
	c3.6,0.5,7.1,0.9,10.7,1.4C1167.1,41.4,1170.8,37.2,1174.6,33.1z"/>
<path d="M1163.5,45.6c-3.6-0.5-7.1-1-10.7-1.4c-0.3,1-0.5,2-0.7,3c2,1.5,4.1,3,6.1,4.5C1160,49.6,1161.7,47.6,1163.5,45.6z"/>
<path d="M1158.2,51.6c-2-1.5-4.1-3-6.1-4.5c-0.4,2.5-0.7,5.1-0.7,7.9c0,1.4,0.1,2.8,0.2,4.1C1153.8,56.6,1156,54.1,1158.2,51.6z"/>
<path d="M1183.1,37.6c0.7,0,1.4,0.1,2.1,0.2c2.2-4.6,4.3-9.2,6.3-13.8c-2.5-0.5-5.1-0.7-8-0.7c-3,3.3-6,6.6-9,9.9
	c2.8,1.5,5.6,3,8.5,4.5C1183.1,37.6,1183.1,37.6,1183.1,37.6z"/>
<path d="M1174.6,33.1c-3.7,4.1-7.4,8.3-11.1,12.5c2.7,0.4,5.3,0.7,8,1.1c0.6-2.1,1.4-3.8,2.5-5c2.3-2.7,5.3-4,9.1-4.1
	C1180.2,36.1,1177.4,34.6,1174.6,33.1z"/>
<path d="M1162.3,54.5c-1.4-1-2.7-2-4-2.9c-2.2,2.5-4.4,5-6.6,7.6c0.1,1,0.2,2,0.4,2.9C1155.3,59.4,1158.7,56.9,1162.3,54.5z"/>
<path d="M1170.9,49.2c0.1-0.9,0.3-1.7,0.5-2.5c-2.6-0.4-5.3-0.8-8-1.1c-1.8,2-3.5,4-5.2,6c1.3,1,2.7,2,4,2.9
	C1165.1,52.7,1167.9,50.9,1170.9,49.2z"/>
<path d="M1188.2,36.8c1-3.1,2-6.3,2.7-9.6C1190.1,30.4,1189.2,33.6,1188.2,36.8c4.1-3.2,8.1-6.6,11.8-10.1c-2.5-1.2-5.3-2.1-8.4-2.7
	c-2,4.6-4.1,9.2-6.3,13.8c0.5,0.1,0.9,0.1,1.4,0.2C1187.1,37.6,1187.6,37.2,1188.2,36.8z"/>
<path d="M1174,68.6c0,0-0.1-0.1-0.1-0.1c-0.9-1.1-1.6-2.4-2.2-4.1c-3,5.5-6,11-9.2,16.4c1.2,0.9,2.5,1.7,3.8,2.4
	C1168.8,78.4,1171.4,73.5,1174,68.6z"/>
<path d="M1188.2,36.8c-0.5,0.4-1,0.8-1.6,1.2c0.4,0.1,0.7,0.2,1.1,0.3C1187.8,37.8,1188,37.3,1188.2,36.8z"/>
<path d="M1186.2,72.3c-0.9,0.2-1.9,0.3-2.9,0.3c-3.9,0-7-1.3-9.3-4c-2.5,4.9-5.1,9.8-7.7,14.7c0.1,0.1,0.3,0.1,0.4,0.2
	c3.7,1.8,8.2,2.9,13.5,3.2c2.8-4.2,5.6-8.3,8.4-12.5C1187.8,73.6,1187,72.9,1186.2,72.3z"/>
<path d="M1186.2,72.3c0.8,0.6,1.6,1.3,2.4,1.9c1-1.5,2-2.9,3-4.4C1190.1,71.1,1188.3,71.9,1186.2,72.3z"/>
<path d="M1192.6,41.6c0.4,0.5,0.8,1,1.1,1.5c3.7,1.9,7.5,3.7,11.3,5.5c2.2-3.7,4.3-7.5,6.2-11.4c-1.2-2.2-2.7-4.1-4.4-5.8
	c-2-2-4.3-3.6-6.9-4.8c-3.7,3.6-7.7,6.9-11.8,10.1c-0.2,0.5-0.3,1-0.5,1.6C1189.6,38.9,1191.3,40,1192.6,41.6z"/>
<path d="M1203.2,51.7c0.6-1,1.2-2,1.8-3c-3.8-1.8-7.5-3.7-11.3-5.5c1.2,1.9,1.9,4.4,2.2,7.4C1198.4,50.9,1200.8,51.3,1203.2,51.7z"
	/>
<path d="M1203.2,51.7c-2.4-0.4-4.8-0.8-7.3-1.2c0.1,1.2,0.2,2.4,0.2,3.8c0,4.5-0.5,8.1-1.5,10.9
	C1197.6,60.7,1200.5,56.2,1203.2,51.7z"/>
<path d="M1203.1,81.6c3.5-2.4,6.3-5.5,8.4-9.4c2.2-4.1,3.4-9.3,3.6-15.5C1210.6,65,1206.9,73.3,1203.1,81.6z"/>
<path d="M1180.2,86.7c1.2,0.1,2.4,0.1,3.7,0.1c4.6,0,8.6-0.6,12.2-1.7c0.5-1.1,1-2.3,1.5-3.4c-3-2.5-6-5-9-7.4
	C1185.8,78.3,1183,82.5,1180.2,86.7z"/>
<path d="M1203.2,51.7c-2.7,4.6-5.6,9-8.5,13.5c-0.5,1.4-1.1,2.5-1.9,3.4c-0.4,0.5-0.8,0.9-1.3,1.2c-1,1.5-2,2.9-3,4.4
	c3.1,2.4,6.1,4.9,9,7.4c4.2-9.5,8.1-19.1,11.4-29C1207,52.3,1205.1,52,1203.2,51.7z"/>
<path d="M1211.2,37.3c-2,3.9-4,7.7-6.2,11.4c1.5,0.7,3,1.5,4.6,2.2c0.8-2.5,1.6-5.1,2.3-7.7c-0.7,2.6-1.5,5.1-2.3,7.7
	c1.8,0.9,3.7,1.7,5.5,2.6C1215,47.1,1213.7,41.7,1211.2,37.3z"/>
<path d="M1209.5,50.8c-0.2,0.6-0.4,1.2-0.6,1.8c2,0.3,4.1,0.7,6.1,1c0-0.1,0-0.2,0-0.2C1213.2,52.6,1211.4,51.7,1209.5,50.8z"/>
<path d="M1205,48.7c-0.6,1-1.2,2-1.8,3c1.9,0.3,3.8,0.6,5.8,1c0.2-0.6,0.4-1.2,0.6-1.8C1208,50.1,1206.5,49.4,1205,48.7z"/>
<path d="M1196.1,85c1.3-0.4,2.5-0.9,3.7-1.5c-0.7-0.6-1.5-1.3-2.2-1.9C1197.1,82.8,1196.6,83.9,1196.1,85z"/>
<path d="M1203.1,81.6c3.7-8.3,7.5-16.6,11.9-24.9c0-0.7,0-1.4,0-2.1c0-0.3,0-0.6,0-0.9c-2-0.3-4.1-0.7-6.1-1
	c-3.3,9.9-7.2,19.5-11.4,29c0.7,0.6,1.5,1.3,2.2,1.9c0.4-0.2,0.8-0.4,1.2-0.6C1201.8,82.5,1202.5,82.1,1203.1,81.6z"/>
<path d="M1162.5,80.8c3.1-5.4,6.2-10.9,9.2-16.4c-0.4-1.1-0.7-2.3-0.9-3.6c-2.9-2.1-5.7-4.2-8.6-6.2c-3.6,2.4-7,4.9-10.3,7.5
	c0.6,4.1,1.9,7.8,3.7,10.9C1157.6,76.2,1159.8,78.8,1162.5,80.8z"/>
<path d="M1170.4,55.1c0-2.2,0.2-4.2,0.4-6c-3,1.7-5.8,3.5-8.6,5.4c2.9,2.1,5.7,4.2,8.6,6.2C1170.6,59.1,1170.4,57.2,1170.4,55.1z"/>
<path d="M1159.8,31.6c-2.6,2.6-4.5,5.6-5.9,9.1c2.9-3.8,5.8-7.6,8.7-11.5C1161.6,29.9,1160.7,30.7,1159.8,31.6z"/>
<path d="M1233.3,24.3h-8v16.1c3.6-5.2,6.9-10.1,10-15.3C1234.6,24.8,1234,24.5,1233.3,24.3z"/>
<path d="M1235.7,24.3h-2.4c0.6,0.3,1.3,0.5,1.9,0.8C1235.4,24.8,1235.6,24.5,1235.7,24.3z"/>
<path d="M1253.2,24.3h-12.8c-0.3,0.9-0.7,1.7-1,2.5c3.4,1.5,6.7,3,10.1,4.5C1250.6,29,1251.9,26.6,1253.2,24.3z"/>
<path d="M1225.3,56.5v1.5c2.5,1.1,5,2.2,7.5,3.3c0.8-1.4,1.6-2.9,2.4-4.3c-3.1-0.5-6.2-1-9.3-1.6
	C1225.6,55.8,1225.5,56.2,1225.3,56.5z"/>
<path d="M1225.3,75c2.5-4.6,4.9-9.1,7.5-13.6c-2.5-1.1-5-2.2-7.5-3.3V75z"/>
<path d="M1244.4,40.5v-3.7h2c1-1.8,2-3.6,3-5.5c-3.4-1.5-6.7-3-10.1-4.5c-2.8,6.9-5.9,13.6-9.2,20.2c2.4,2,4.9,3.9,7.4,5.8
	C1239.7,48.7,1242.1,44.6,1244.4,40.5z"/>
<path d="M1230.1,47.1c-1.4,2.8-2.8,5.6-4.3,8.4c3.1,0.5,6.2,1,9.3,1.6c0.8-1.4,1.5-2.8,2.3-4.1C1235,50.9,1232.5,49,1230.1,47.1z"/>
<path d="M1239.3,26.8c-1.3-0.6-2.7-1.2-4.1-1.7c-3.1,5.2-6.4,10.2-10,15.3v2.8c1.6,1.3,3.2,2.6,4.8,3.9
	C1233.4,40.4,1236.5,33.7,1239.3,26.8z"/>
<path d="M1225.3,43.2v12.2c0.2,0,0.4,0.1,0.5,0.1c1.5-2.8,2.9-5.6,4.3-8.4C1228.5,45.8,1226.9,44.5,1225.3,43.2z"/>
<path d="M1225.3,56.5c0.2-0.3,0.4-0.7,0.5-1c-0.2,0-0.4-0.1-0.5-0.1V56.5z"/>
<path d="M1240.3,24.3h-4.6c-0.2,0.3-0.3,0.5-0.5,0.8c1.4,0.6,2.7,1.1,4.1,1.7C1239.6,26,1240,25.1,1240.3,24.3z"/>
<path d="M1237.4,52.9c-0.8,1.4-1.5,2.8-2.3,4.1c2.5,0.4,5,0.8,7.5,1.2c0.2-0.3,0.3-0.7,0.5-1C1241.2,55.8,1239.3,54.3,1237.4,52.9z"
	/>
<path d="M1246.4,50.5h-2v-10c-2.3,4.1-4.6,8.3-6.9,12.4c1.9,1.5,3.8,2.9,5.7,4.4C1244.2,55,1245.3,52.7,1246.4,50.5z"/>
<path d="M1232.7,61.3c2.3,1,4.7,2,7,3c1-2,1.9-4,2.9-6.1c-2.5-0.4-5-0.8-7.5-1.2C1234.3,58.5,1233.5,59.9,1232.7,61.3z"/>
<path d="M1225.3,75v10.8h2.8c1.6-2.3,3.3-4.6,5-6.8c2.1-4.9,4.4-9.8,6.6-14.6c-2.3-1-4.7-2-7-3C1230.2,65.9,1227.7,70.4,1225.3,75z"
	/>
<path d="M1230.2,85.7c0.9-2.3,1.9-4.5,2.8-6.8c-1.7,2.2-3.4,4.5-5,6.8H1230.2z"/>
<path d="M1244.4,66.2v-0.7c-0.2,0.2-0.3,0.4-0.5,0.5C1244,66.1,1244.2,66.2,1244.4,66.2z"/>
<path d="M1233.1,79c-1,2.2-1.9,4.5-2.8,6.8h4.1c3.2-3.6,6.6-7.1,10-10.5v-9c-0.2-0.1-0.3-0.1-0.5-0.2
	C1240.1,70.2,1236.5,74.5,1233.1,79z"/>
<path d="M1244.4,85.7V75.2c-3.4,3.4-6.8,6.9-10,10.5H1244.4z"/>
<path d="M1261.1,47.7c-3.8,3.9-7.6,7.8-11.2,11.7c1.5,0.2,3,0.5,4.6,0.7C1256.7,56.1,1259,51.9,1261.1,47.7z"/>
<path d="M1253,62.9c0.5-0.9,1-1.8,1.5-2.7c-1.5-0.2-3-0.5-4.6-0.7c-0.5,0.6-1.1,1.2-1.6,1.8c0.8,0.6,1.5,1.1,2.3,1.7H1253z"/>
<path d="M1250.5,62.9c-0.8-0.6-1.5-1.1-2.3-1.7c-0.5,0.6-1.1,1.1-1.6,1.7H1250.5z"/>
<path d="M1270.7,27.9c-3-2.1-7-3.3-12-3.6c-1.4,3.1-2.8,6.2-4.3,9.3c3.7,1.7,7.4,3.5,11.1,5.3C1267.4,35.3,1269.1,31.6,1270.7,27.9z
	"/>
<path d="M1249.9,59.5c3.7-3.9,7.5-7.8,11.2-11.7c1.5-2.9,3-5.9,4.5-8.8c-3.7-1.8-7.4-3.5-11.1-5.3c-0.5,1.1-1,2.2-1.6,3.3
	c1.9,0.3,3.2,0.9,4.1,1.8c1.3,1.3,1.9,3,1.9,4.9c0,2-0.7,3.6-2.2,4.9c-1.5,1.3-4.1,1.9-7.7,1.9h-2.6c-1.1,2.3-2.2,4.5-3.3,6.8
	c0.6,0.5,1.2,0.9,1.8,1.4C1246.6,58.9,1248.2,59.2,1249.9,59.5z"/>
<path d="M1244.9,58.6c-0.6-0.5-1.2-0.9-1.8-1.4c-0.2,0.3-0.3,0.7-0.5,1C1243.4,58.4,1244.1,58.5,1244.9,58.6z"/>
<path d="M1233.1,79c3.4-4.4,7-8.7,10.8-12.9c-1.4-0.6-2.8-1.1-4.1-1.7C1237.4,69.2,1235.2,74,1233.1,79z"/>
<path d="M1249.9,59.5c-1.7-0.3-3.3-0.5-5-0.8c1.1,0.9,2.2,1.7,3.4,2.6C1248.8,60.6,1249.3,60,1249.9,59.5z"/>
<path d="M1244.9,58.6c-0.8-0.1-1.5-0.2-2.3-0.4c-1,2-1.9,4-2.9,6.1c1.4,0.6,2.8,1.1,4.1,1.7c0.2-0.2,0.3-0.4,0.5-0.5v-2.6h2.3
	c0.5-0.6,1.1-1.1,1.6-1.7C1247.1,60.4,1246,59.5,1244.9,58.6z"/>
<path d="M1275.3,33.2c-0.8-1.5-1.8-2.9-3-4c-0.5-0.5-1-0.9-1.6-1.3c-1.6,3.7-3.4,7.4-5.1,11c0.9,0.5,1.9,0.9,2.8,1.4
	C1270.7,37.9,1273,35.6,1275.3,33.2z"/>
<path d="M1265.6,38.9c-1.5,3-2.9,5.9-4.5,8.8c2.4-2.5,4.9-5,7.3-7.4C1267.5,39.8,1266.5,39.4,1265.6,38.9z"/>
<path d="M1274.3,43.1c-1.9-1-3.9-1.9-5.8-2.8c-2.4,2.5-4.9,5-7.3,7.4c-2.2,4.2-4.4,8.3-6.7,12.4c1.4,0.2,2.9,0.5,4.3,0.7
	C1264.3,55.3,1269.6,49.5,1274.3,43.1z"/>
<path d="M1256.8,62.9c0.7-0.7,1.3-1.3,2-2c-1.4-0.2-2.9-0.5-4.3-0.7c-0.5,0.9-1,1.8-1.5,2.7h1.8
	C1255.5,62.9,1256.1,62.9,1256.8,62.9z"/>
<path d="M1277.1,39.1c-0.3-2.2-1-4.2-1.9-5.9c-2.3,2.4-4.6,4.7-6.9,7.1c2,0.9,3.9,1.9,5.8,2.8C1275.3,41.8,1276.2,40.5,1277.1,39.1z
	"/>
<path d="M1277.4,43.1c0-1.4-0.1-2.8-0.3-4c-0.9,1.4-1.9,2.7-2.9,4c1,0.5,2.1,1,3.1,1.5C1277.4,44.2,1277.4,43.7,1277.4,43.1z"/>
<path d="M1271.8,57.7c3.4-3.2,5.2-7.5,5.5-13c-1-0.5-2.1-1-3.1-1.5c-4.7,6.3-10,12.1-15.5,17.7c1.8,0.3,3.6,0.6,5.5,0.9
	C1267.3,60.9,1269.9,59.5,1271.8,57.7z"/>
<path d="M1258.8,60.9c-0.7,0.7-1.3,1.3-2,2c2.8-0.1,5.2-0.5,7.4-1.1C1262.4,61.5,1260.6,61.2,1258.8,60.9z"/>
<path d="M1258.8,24.3c-0.6,0-1.3-0.1-1.9-0.1h-3.7c-1.2,2.4-2.5,4.7-3.8,7c1.7,0.8,3.4,1.6,5.1,2.4
	C1255.9,30.6,1257.4,27.5,1258.8,24.3z"/>
<path d="M1252.9,37c0.5-1.1,1-2.2,1.6-3.3c-1.7-0.8-3.4-1.6-5.1-2.4c-1,1.8-2,3.6-3,5.5h3.4C1250.9,36.8,1252,36.8,1252.9,37z"/>
<path d="M1294.3,24.3h-6c1.3,1.6,2.7,3.1,4,4.7C1293,27.4,1293.7,25.8,1294.3,24.3z"/>
<path d="M1288.3,24.3h-1v16.2c1.7-3.8,3.4-7.7,5-11.5C1291,27.4,1289.6,25.9,1288.3,24.3z"/>
<path d="M1324.4,32.2c-1.7,1.7-3.3,3.4-4.9,5.2h8.8C1326.9,35.7,1325.7,34,1324.4,32.2z"/>
<path d="M1333.9,24.3h-1.2c-0.2,0.2-0.4,0.4-0.6,0.6c1.5,0.6,2.9,1.3,4.4,1.9C1335.6,25.9,1334.7,25.1,1333.9,24.3z"/>
<path d="M1338.2,37.4v-9c-0.6-0.5-1.2-1.1-1.7-1.6c-1.5-0.6-2.9-1.3-4.4-1.9c-2.6,2.4-5.2,4.9-7.7,7.4c1.3,1.7,2.5,3.4,3.8,5.2
	H1338.2z"/>
<path d="M1338.2,27.5v-3.2h-4.3c0.9,0.8,1.7,1.7,2.6,2.5C1337.1,27,1337.6,27.3,1338.2,27.5z"/>
<path d="M1338.2,27.5c-0.6-0.3-1.2-0.5-1.7-0.8c0.6,0.5,1.2,1.1,1.7,1.6V27.5z"/>
<path d="M1325.3,58.9c-0.2,0.3-0.4,0.5-0.6,0.8h1.5C1326,59.4,1325.6,59.2,1325.3,58.9z"/>
<path d="M1326.7,59.7c3-4.1,5.9-8.3,8.7-12.5h-1.8c-2.7,3.9-5.5,7.8-8.2,11.7c0.3,0.3,0.7,0.5,1,0.8H1326.7z"/>
<path d="M1335.9,47.2h-0.6c-2.8,4.2-5.7,8.4-8.7,12.5h9.2V47.2z"/>
<path d="M1308.9,84.2c1.3-2.2,2.6-4.3,4-6.4c-2.2,2.7-4.4,5.4-6.6,8h1.8C1308.3,85.2,1308.6,84.7,1308.9,84.2z"/>
<path d="M1311.3,47.2h-0.4c-1.1,1.3-2.2,2.7-3.3,4.1c-1.2,2.1-2.5,4.2-3.7,6.4c1,0.5,2,0.9,2.9,1.4c1.4-1.3,2.8-2.5,4.1-3.9
	c-1.4,1.3-2.8,2.6-4.1,3.9c0.5,0.2,1,0.5,1.4,0.7h16.6c0.2-0.3,0.4-0.5,0.6-0.8C1320.6,55,1315.8,51.1,1311.3,47.2z"/>
<path d="M1311.3,47.2c4.6,4,9.3,7.9,14.1,11.7c2.7-4,5.4-7.9,8.2-11.7H1311.3z"/>
<path d="M1303.8,57.6c-1.7,2.9-3.5,5.8-5.2,8.8c2.7-2.4,5.4-4.9,8.1-7.4C1305.8,58.5,1304.8,58.1,1303.8,57.6z"/>
<path d="M1287.3,82.6v3.1h8.9C1293.3,84.7,1290.3,83.7,1287.3,82.6z"/>
<path d="M1306.3,85.7c2.2-2.6,4.4-5.3,6.6-8c1.3-2,2.5-4,3.8-5.9h-10.3v-4.3c-2.6-0.3-5.2-0.6-7.9-0.9c-3,5.1-6,10.3-8.6,15.6
	c2.7-5.3,5.6-10.5,8.6-15.6c0,0-0.1,0-0.1,0c-2.2,1.9-4.3,3.8-6.5,5.7c-1.5,2.2-3.1,4.5-4.6,6.7v3.6c3,1,5.9,2.1,8.9,3.1H1306.3z"/>
<path d="M1306.4,59.7h1.8c-0.5-0.2-1-0.5-1.4-0.7c-2.7,2.5-5.4,4.9-8.1,7.4c0,0.1-0.1,0.1-0.1,0.2c2.6,0.3,5.2,0.6,7.9,0.9V59.7z"/>
<path d="M1298.6,66.4c-0.1,0.1-0.1,0.1-0.2,0.2c0,0,0.1,0,0.1,0C1298.5,66.5,1298.6,66.4,1298.6,66.4z"/>
<path d="M1307.5,51.2c-1.6,2-3.1,3.9-4.6,5.9c0.3,0.1,0.6,0.3,0.9,0.4C1305.1,55.5,1306.3,53.4,1307.5,51.2z"/>
<path d="M1298.6,66.4c1.7-2.9,3.5-5.9,5.2-8.8c-0.3-0.1-0.6-0.3-0.9-0.4c-2.3,3-4.5,6-6.7,9.1c0.7,0.1,1.5,0.2,2.2,0.3
	C1298.5,66.5,1298.5,66.4,1298.6,66.4z"/>
<path d="M1296.2,66.3c-1.4,2-2.9,4-4.3,6c2.2-1.9,4.3-3.8,6.5-5.7C1297.7,66.4,1296.9,66.3,1296.2,66.3z"/>
<path d="M1317.6,71.8c-1.5,2-3.1,4-4.7,5.9c-1.3,2.1-2.7,4.3-4,6.4c-0.3,0.5-0.6,1-0.9,1.6h13.4c2.8-4.6,5.5-9.2,8.2-13.9H1317.6z"
	/>
<path d="M1339.1,71.8h-4.2c1.4,0.6,2.8,1.2,4.2,1.7V71.8z"/>
<path d="M1339.1,75.5v-2c-1.4-0.6-2.8-1.1-4.2-1.7h-5.4c-2.7,4.7-5.4,9.3-8.2,13.9h11.4C1334.9,82.3,1337,78.9,1339.1,75.5z"/>
<path d="M1339.1,80.7v-5.2c-2.1,3.4-4.2,6.8-6.3,10.2h3.1C1337,84,1338.1,82.4,1339.1,80.7z"/>
<path d="M1339.1,80.7c-1.1,1.7-2.1,3.4-3.2,5.1h3.2V80.7z"/>
<path d="M1316.7,71.8c-1.3,2-2.5,3.9-3.8,5.9c1.6-2,3.1-3.9,4.7-5.9H1316.7z"/>
<path d="M1298,34.9c-1.9-2-3.8-3.9-5.7-6c-1.6,3.9-3.3,7.7-5,11.5v9.1c0.5,0.2,1,0.5,1.4,0.7C1291.9,45.2,1295.1,40.1,1298,34.9z"/>
<path d="M1303.9,24.3h-9.5c-0.7,1.6-1.3,3.1-2,4.7c1.8,2,3.7,4,5.7,6C1300.1,31.4,1302,27.9,1303.9,24.3z"/>
<path d="M1287.3,49.6v3c0.5-0.8,1-1.5,1.4-2.3C1288.3,50,1287.8,49.8,1287.3,49.6z"/>
<path d="M1309.9,47.2c-0.8,1.4-1.5,2.7-2.3,4.1c1.1-1.4,2.2-2.7,3.3-4.1H1309.9z"/>
<path d="M1324.4,32.2c-1.5-2.1-3-4.1-4.6-6.2c-1.4,3.9-3.1,7.7-4.9,11.4h4.5C1321.1,35.6,1322.7,33.9,1324.4,32.2z"/>
<path d="M1332.7,24.3h-1.8c0.4,0.2,0.8,0.4,1.3,0.6C1332.3,24.6,1332.5,24.5,1332.7,24.3z"/>
<path d="M1332.1,24.8c-0.4-0.2-0.8-0.4-1.3-0.6h-10.3c-0.2,0.6-0.4,1.2-0.6,1.8c1.5,2.1,3,4.1,4.6,6.2
	C1326.9,29.7,1329.5,27.2,1332.1,24.8z"/>
<path d="M1292.1,51.9c-1.6,1.8-3.2,3.5-4.8,5.4v5.1c2.3-3.1,4.6-6.3,7-9.4C1293.6,52.6,1292.9,52.3,1292.1,51.9z"/>
<path d="M1306.7,36.8c-1.1,1.1-2.2,2.2-3.3,3.3c0.1,0.1,0.3,0.3,0.4,0.4C1304.8,39.3,1305.7,38.1,1306.7,36.8z"/>
<path d="M1303.8,40.5c-0.1-0.1-0.3-0.3-0.4-0.4c-3.8,3.9-7.6,7.8-11.3,11.8c0.7,0.4,1.4,0.7,2.2,1.1
	C1297.4,48.8,1300.6,44.7,1303.8,40.5z"/>
<path d="M1287.3,76.4V79c1.5-2.3,3.1-4.5,4.6-6.7C1290.4,73.6,1288.9,75,1287.3,76.4z"/>
<path d="M1318.9,24.7c-4.1,4.1-8.1,8.1-12.2,12.2c-0.9,1.2-1.9,2.5-2.8,3.7c0.8,0.8,1.7,1.6,2.5,2.3v-5.4h8.6
	c1.8-3.7,3.4-7.5,4.9-11.4C1319.5,25.6,1319.2,25.1,1318.9,24.7z"/>
<path d="M1320.5,24.3h-1.2c-0.1,0.1-0.3,0.3-0.4,0.4c0.3,0.4,0.7,0.9,1,1.3C1320.1,25.4,1320.3,24.9,1320.5,24.3z"/>
<path d="M1307.5,51.2c0.8-1.4,1.6-2.7,2.3-4.1h-3.5v-4.3c-0.8-0.8-1.7-1.5-2.5-2.3c-3.2,4.1-6.4,8.3-9.5,12.5
	c2.9,1.4,5.7,2.8,8.6,4.2C1304.4,55.2,1306,53.2,1307.5,51.2z"/>
<path d="M1296.2,66.3c-3-0.4-5.9-0.8-8.9-1.2v11.3c1.5-1.4,3.1-2.7,4.6-4.1C1293.3,70.3,1294.8,68.2,1296.2,66.3z"/>
<path d="M1302.9,57.2c-2.9-1.4-5.8-2.8-8.6-4.2c-2.3,3.1-4.7,6.2-7,9.4v2.7c3,0.4,5.9,0.8,8.9,1.2
	C1298.4,63.2,1300.6,60.2,1302.9,57.2z"/>
<path d="M1303.4,40.1c-1.8-1.7-3.6-3.4-5.4-5.2c-3,5.2-6.1,10.3-9.3,15.3c1.1,0.6,2.2,1.1,3.4,1.7
	C1295.8,47.9,1299.6,44,1303.4,40.1z"/>
<path d="M1306.7,36.8c3.2-4.2,6.5-8.4,9.7-12.6h-12.5c-1.8,3.6-3.8,7.1-5.8,10.7c1.8,1.8,3.5,3.5,5.4,5.2
	C1304.5,39,1305.6,37.9,1306.7,36.8z"/>
<path d="M1288.8,50.3c-0.5,0.8-1,1.5-1.4,2.3v4.7c1.6-1.8,3.2-3.6,4.8-5.4C1291,51.4,1289.9,50.8,1288.8,50.3z"/>
<path d="M1318.6,24.3h-2.2c-3.2,4.2-6.4,8.4-9.7,12.6c4-4.1,8.1-8.1,12.2-12.2C1318.8,24.5,1318.7,24.4,1318.6,24.3z"/>
<path d="M1319.3,24.3h-0.7c0.1,0.1,0.2,0.3,0.3,0.4C1319,24.5,1319.1,24.4,1319.3,24.3z"/>
<path d="M1349.6,24.3v0.4c0.1-0.1,0.2-0.3,0.3-0.4H1349.6z"/>
<path d="M1349.6,32.5v3.7c0.6-1,1.2-2,1.8-3C1350.8,33,1350.2,32.7,1349.6,32.5z"/>
<path d="M1356.8,24.3h-6.9c-0.1,0.1-0.2,0.3-0.3,0.4v7.8c0.6,0.3,1.2,0.5,1.8,0.8C1353.2,30.2,1355,27.2,1356.8,24.3z"/>
<path d="M1381.5,67.2c-0.5,0.9-1,1.7-1.5,2.6l8.6,15.9h12.4c0.2-0.6,0.4-1.2,0.6-1.8C1394.8,78.5,1388.1,72.9,1381.5,67.2z"/>
<path d="M1402.9,50.2c1.5-2.5,2.2-5.4,2.2-8.8c0-3.9-1-7.2-2.9-10c-0.1-0.2-0.3-0.4-0.4-0.5c-3.2,6.6-6.6,13-10.3,19.2
	c2.9,1.2,5.8,2.3,8.7,3.5C1401.3,52.6,1402.2,51.4,1402.9,50.2z"/>
<path d="M1398.2,64.1c-1.3-1.7-2.3-2.7-3-3.2c-1-0.8-2.7-1.5-4.9-2.3c2.8-0.6,5-1.5,6.7-2.4c1.2-0.8,2.4-1.6,3.3-2.6
	c-2.9-1.2-5.8-2.3-8.7-3.5c-1.6,2.8-3.3,5.5-5.1,8.2c-1.6,3-3.3,5.9-5,8.9c6.6,5.7,13.3,11.3,20.1,16.8c1-3.1,1.9-6.2,2.9-9.2
	l-3.5-6.8C1400.4,67,1399.6,65.8,1398.2,64.1z"/>
<path d="M1410.1,85.7l-5.7-11c-1,3.1-1.9,6.1-2.9,9.2c0.7,0.6,1.4,1.2,2.2,1.8H1410.1z"/>
<path d="M1403.7,85.7c-0.7-0.6-1.4-1.2-2.2-1.8c-0.2,0.6-0.4,1.2-0.6,1.8H1403.7z"/>
<path d="M1391.6,50.1c-0.2-0.1-0.3-0.1-0.5-0.2c-1.5,2.8-3.1,5.6-4.6,8.4C1388.2,55.6,1389.9,52.9,1391.6,50.1z"/>
<path d="M1401.8,30.8c-0.2-0.2-0.3-0.5-0.5-0.7c-3.2,6.7-6.7,13.2-10.2,19.7c0.2,0.1,0.3,0.1,0.5,0.2
	C1395.3,43.9,1398.7,37.5,1401.8,30.8z"/>
<path d="M1368.7,85.7v-3.1c-0.8,1-1.6,2.1-2.4,3.1H1368.7z"/>
<path d="M1386.4,58.3c-1.8,2.8-3.7,5.5-5.7,8.3c0.2,0.2,0.5,0.4,0.7,0.6C1383.1,64.2,1384.8,61.3,1386.4,58.3z"/>
<path d="M1381.5,67.2c-0.2-0.2-0.5-0.4-0.7-0.6c-0.5,0.7-0.9,1.3-1.4,2l0.7,1.2C1380.5,68.9,1381,68.1,1381.5,67.2z"/>
<path d="M1384.2,47.1c-0.7,0.6-1.5,1.1-2.5,1.2c-2.5,0.6-4.2,0.8-5,0.8h-8v-8.5c-0.9-0.4-1.9-0.8-2.8-1.2c-2,3-4,5.9-6,8.9
	c6.9,6.2,13.8,12.3,20.9,18.3c2-2.7,3.9-5.5,5.7-8.3c1.6-2.8,3.1-5.6,4.6-8.4C1388.8,49,1386.5,48,1384.2,47.1z"/>
<path d="M1370.9,32.2c-1.7,2.4-3.3,4.8-5,7.3c0.9,0.4,1.9,0.8,2.8,1.2v-4h8.3c3.5,0,5.8,0.5,7.1,1.6c1.3,1.1,1.9,2.6,1.9,4.6
	c0,1.3-0.4,2.5-1.2,3.6c-0.2,0.3-0.4,0.5-0.6,0.7c2.3,0.9,4.6,1.9,6.9,2.8c3.5-6.5,7-13.1,10.2-19.7c-1.8-2.1-4-3.5-6.6-4.4
	c-3.1-1-7.6-1.5-13.5-1.5h-6.3c-3.8,4.7-7.5,9.5-11.1,14.3c0.7,0.3,1.3,0.6,2,0.8C1367.5,37,1369.2,34.6,1370.9,32.2z"/>
<path d="M1363.9,38.6c-2,2.7-3.9,5.4-5.8,8.1c0.6,0.5,1.2,1.1,1.8,1.7c2-3,4-6,6-8.9C1365.2,39.2,1364.6,38.9,1363.9,38.6z"/>
<path d="M1359.9,48.3c-0.6-0.5-1.2-1.1-1.8-1.7c-2.4,3.5-4.8,7-7.2,10.5c-0.2,0.9-0.4,1.8-0.5,2.7c0.4,0.3,0.9,0.7,1.3,1
	C1354.4,56.7,1357.2,52.5,1359.9,48.3z"/>
<path d="M1350.4,59.9c-0.2,1.1-0.4,2.1-0.5,3.2C1350,62.1,1350.2,61,1350.4,59.9c-0.3-0.2-0.5-0.4-0.8-0.6v4.8
	c0.7-1.1,1.4-2.2,2.1-3.2C1351.3,60.6,1350.8,60.3,1350.4,59.9z"/>
<path d="M1350.9,57.2c-0.4,0.6-0.9,1.3-1.3,1.9v0.2c0.3,0.2,0.5,0.4,0.8,0.6C1350.5,59,1350.7,58.1,1350.9,57.2z"/>
<path d="M1355.9,85.2c-2.1-2-4.1-3.9-6.3-5.8v6.4h6.8C1356.2,85.5,1356.1,85.3,1355.9,85.2z"/>
<path d="M1359.9,48.3c-2.8,4.2-5.5,8.4-8.2,12.6c5.6,4.2,11.4,8.2,17,12.4V60.8h1.7c1.7,0,3.3,0.5,4.7,1.4c1,0.7,2.2,2.3,3.4,4.7
	l0.9,1.6c0.5-0.7,0.9-1.3,1.4-2C1373.8,60.6,1366.8,54.5,1359.9,48.3z"/>
<path d="M1351.7,60.9c-0.7,1.1-1.4,2.2-2.1,3.2v13.5c0.4,0.2,0.8,0.3,1.3,0.5c-0.4-0.2-0.8-0.3-1.3-0.5v1.6c2.1,1.9,4.2,3.9,6.3,5.8
	c0.2,0.2,0.4,0.4,0.5,0.6h9.9c0.8-1,1.6-2.1,2.4-3.1v-9.3C1363.1,69.2,1357.3,65.2,1351.7,60.9z"/>
<path d="M1375,24.3h-11c-2.1,3.9-4.1,7.8-6,11.8c2,0.8,3.9,1.7,5.9,2.5C1367.5,33.8,1371.2,29,1375,24.3z"/>
<path d="M1358,36.1c-1.1,2.5-2.2,5.1-3.2,7.7c1.1,1,2.2,1.9,3.2,2.9c1.9-2.7,3.9-5.4,5.8-8.1C1362,37.8,1360,36.9,1358,36.1z"/>
<path d="M1354.8,43.8c-1.6,4.3-3,8.8-3.9,13.4c2.3-3.5,4.7-7,7.2-10.5C1357,45.7,1355.9,44.8,1354.8,43.8z"/>
<path d="M1356.8,24.3c-1.9,3-3.6,5.9-5.4,9c2.2,1,4.4,1.9,6.7,2.9c1.8-4,3.9-8,6-11.8H1356.8z"/>
<path d="M1358,36.1c-2.2-1-4.4-1.9-6.7-2.9c-0.6,1-1.2,2-1.8,3V39c1.7,1.6,3.5,3.2,5.2,4.8C1355.8,41.2,1356.9,38.6,1358,36.1z"/>
<path d="M1354.8,43.8c-1.7-1.6-3.5-3.2-5.2-4.8v20.1c0.4-0.6,0.9-1.3,1.3-1.9C1351.9,52.6,1353.2,48.1,1354.8,43.8z"/>
</svg>
