<?xml version="1.0" encoding="iso-8859-1"?>
<!-- Generator: Adobe Illustrator 16.0.0, SVG Export Plug-In . SVG Version: 6.00 Build 0)  -->
<!DOCTYPE svg PUBLIC "-//W3C//DTD SVG 1.1//EN" "http://www.w3.org/Graphics/SVG/1.1/DTD/svg11.dtd">
<svg version="1.1" id="Layer_1" xmlns="http://www.w3.org/2000/svg" xmlns:xlink="http://www.w3.org/1999/xlink" x="0px" y="0px"
	 width="477px" height="238px" viewBox="0 0 477 238" style="enable-background:new 0 0 477 238;" xml:space="preserve">
<path d="M114.8,25.5h-7.5l-1,3.5h-6.8l8.1-21.5h7.2l8.1,21.5h-6.9L114.8,25.5z M113.5,20.9l-2.4-7.7l-2.3,7.7H113.5z"/>
<path d="M135,7.6h12.4c2.1,0,3.7,0.5,4.8,1.5s1.7,2.3,1.7,3.8c0,1.3-0.4,2.4-1.2,3.3c-0.5,0.6-1.3,1.1-2.3,1.4
	c1.5,0.4,2.7,1,3.4,1.9s1.1,2,1.1,3.4c0,1.1-0.3,2.1-0.8,3s-1.2,1.6-2.1,2.1c-0.6,0.3-1.4,0.6-2.5,0.7c-1.5,0.2-2.5,0.3-3,0.3H135
	V7.6z M141.7,16h2.9c1,0,1.8-0.2,2.2-0.5s0.6-0.9,0.6-1.5c0-0.6-0.2-1.1-0.6-1.5s-1.1-0.5-2.1-0.5h-2.9V16z M141.7,24.4h3.4
	c1.1,0,1.9-0.2,2.4-0.6s0.7-0.9,0.7-1.6c0-0.6-0.2-1.1-0.7-1.5s-1.3-0.6-2.4-0.6h-3.4V24.4z"/>
<path d="M158.6,7.6h6.7V29h-6.7V7.6z"/>
<path d="M168.5,7.6h20.2v5.3h-6.8V29h-6.6V12.9h-6.8V7.6z"/>
<path d="M214.8,25.5h-7.5l-1,3.5h-6.8l8.1-21.5h7.2l8.1,21.5h-6.9L214.8,25.5z M213.5,20.9l-2.4-7.7l-2.3,7.7H213.5z"/>
<path d="M225,7.6h12.4c2.1,0,3.7,0.5,4.8,1.5s1.7,2.3,1.7,3.8c0,1.3-0.4,2.4-1.2,3.3c-0.5,0.6-1.3,1.1-2.3,1.4
	c1.5,0.4,2.7,1,3.4,1.9s1.1,2,1.1,3.4c0,1.1-0.3,2.1-0.8,3s-1.2,1.6-2.1,2.1c-0.6,0.3-1.4,0.6-2.5,0.7c-1.5,0.2-2.5,0.3-3,0.3H225
	V7.6z M231.7,16h2.9c1,0,1.8-0.2,2.2-0.5s0.6-0.9,0.6-1.5c0-0.6-0.2-1.1-0.6-1.5s-1.1-0.5-2.1-0.5h-2.9V16z M231.7,24.4h3.4
	c1.1,0,1.9-0.2,2.4-0.6s0.7-0.9,0.7-1.6c0-0.6-0.2-1.1-0.7-1.5s-1.3-0.6-2.4-0.6h-3.4V24.4z"/>
<path d="M247.5,18.3c0-3.5,1-6.2,2.9-8.2s4.7-2.9,8.2-2.9c3.6,0,6.3,1,8.3,2.9s2.9,4.6,2.9,8.1c0,2.5-0.4,4.6-1.3,6.2
	s-2.1,2.9-3.7,3.8s-3.6,1.3-6,1.3c-2.4,0-4.4-0.4-6-1.2s-2.9-2-3.9-3.7S247.5,20.8,247.5,18.3z M254.1,18.4c0,2.2,0.4,3.7,1.2,4.7
	s1.9,1.4,3.3,1.4c1.4,0,2.5-0.5,3.3-1.4s1.2-2.6,1.2-5c0-2-0.4-3.5-1.2-4.4s-1.9-1.4-3.3-1.4c-1.3,0-2.4,0.5-3.2,1.4
	S254.1,16.2,254.1,18.4z"/>
<path d="M287.3,7.6h6.6v12.8c0,1.3-0.2,2.5-0.6,3.6c-0.4,1.1-1,2.1-1.9,3c-0.8,0.8-1.7,1.4-2.7,1.8c-1.3,0.5-2.8,0.7-4.6,0.7
	c-1,0-2.2-0.1-3.4-0.2c-1.2-0.1-2.3-0.4-3.1-0.9c-0.8-0.4-1.6-1.1-2.3-1.9c-0.7-0.8-1.2-1.6-1.4-2.5c-0.4-1.4-0.6-2.6-0.6-3.6V7.6
	h6.6v13.1c0,1.2,0.3,2.1,1,2.7s1.6,1,2.7,1c1.1,0,2-0.3,2.7-1s1-1.6,1-2.8V7.6z"/>
<path d="M296.8,7.6H317v5.3h-6.8V29h-6.6V12.9h-6.8V7.6z"/>
<path d="M329.9,7.6h8.7l3.4,13.1l3.3-13.1h8.7V29h-5.4V12.7L344.4,29h-4.9l-4.2-16.4V29h-5.4V7.6z"/>
<path d="M358.3,7.6h17.8v4.6h-11.1v3.4h10.3V20h-10.3v4.2h11.5V29h-18.1V7.6z"/>
<path d="M9.2,49.3h2.7v8.6H9.2V49.3z"/>
<path d="M25.2,56.4h-3l-0.4,1.4h-2.7l3.2-8.6h2.9l3.2,8.6h-2.8L25.2,56.4z M24.7,54.6l-0.9-3.1l-0.9,3.1H24.7z"/>
<path d="M29.2,49.3h3.5l1.3,5.2l1.3-5.2h3.5v8.6h-2.2v-6.6l-1.7,6.6h-2l-1.7-6.6v6.6h-2.2V49.3z"/>
<path d="M52.1,56.4h-3l-0.4,1.4h-2.7l3.2-8.6H52l3.2,8.6h-2.8L52.1,56.4z M51.5,54.6l-0.9-3.1l-0.9,3.1H51.5z"/>
<path d="M62.3,49.3h6.6v1.8H65v1.5h3.3v1.7H65v3.5h-2.7V49.3z"/>
<path d="M70.3,57.8v-8.6h4.4c0.8,0,1.4,0.1,1.9,0.2s0.8,0.4,1,0.8s0.4,0.8,0.4,1.4c0,0.5-0.1,0.9-0.3,1.2s-0.5,0.6-0.8,0.8
	c-0.2,0.1-0.5,0.2-0.9,0.3c0.3,0.1,0.5,0.2,0.7,0.3c0.1,0.1,0.2,0.2,0.4,0.5c0.2,0.2,0.3,0.4,0.4,0.5l1.3,2.5h-3l-1.4-2.6
	c-0.2-0.3-0.3-0.6-0.5-0.7c-0.2-0.1-0.4-0.2-0.7-0.2H73v3.5H70.3z M73,52.7h1.1c0.1,0,0.4,0,0.7-0.1c0.2,0,0.3-0.1,0.4-0.3
	s0.2-0.3,0.2-0.5c0-0.3-0.1-0.5-0.3-0.6s-0.5-0.2-1-0.2H73V52.7z"/>
<path d="M79.1,53.6c0-1.4,0.4-2.5,1.2-3.3s1.9-1.2,3.3-1.2c1.4,0,2.5,0.4,3.3,1.2s1.2,1.8,1.2,3.2c0,1-0.2,1.8-0.5,2.5
	s-0.8,1.1-1.5,1.5S84.6,58,83.6,58c-1,0-1.8-0.2-2.4-0.5s-1.1-0.8-1.5-1.5S79.1,54.6,79.1,53.6z M81.7,53.6c0,0.9,0.2,1.5,0.5,1.9
	S83,56,83.5,56c0.6,0,1-0.2,1.3-0.6s0.5-1,0.5-2c0-0.8-0.2-1.4-0.5-1.8s-0.8-0.6-1.3-0.6c-0.5,0-1,0.2-1.3,0.6S81.7,52.7,81.7,53.6z
	"/>
<path d="M89.4,49.3h2.5l3.2,4.8v-4.8h2.5v8.6h-2.5l-3.2-4.7v4.7h-2.5V49.3z"/>
<path d="M98.8,49.3h8.1v2.1h-2.7v6.5h-2.7v-6.5h-2.7V49.3z"/>
<path d="M106.6,53.8h3.5v1.8h-3.5V53.8z"/>
<path d="M111.2,49.3h7.1v1.8h-4.5v1.4h4.1v1.8h-4.1v1.7h4.6v1.9h-7.2V49.3z"/>
<path d="M119.9,49.3h2.5l3.2,4.8v-4.8h2.5v8.6h-2.5l-3.2-4.7v4.7h-2.5V49.3z"/>
<path d="M130,49.3h3.9c0.8,0,1.4,0.1,1.9,0.3s0.9,0.5,1.2,0.9s0.5,0.9,0.7,1.4s0.2,1.1,0.2,1.7c0,0.9-0.1,1.6-0.3,2.1
	s-0.5,0.9-0.9,1.3s-0.8,0.6-1.2,0.7c-0.6,0.2-1.1,0.2-1.6,0.2H130V49.3z M132.6,51.2v4.7h0.7c0.6,0,0.9-0.1,1.2-0.2s0.4-0.3,0.6-0.6
	s0.2-0.8,0.2-1.5c0-0.9-0.1-1.5-0.4-1.9s-0.8-0.5-1.5-0.5H132.6z"/>
<path d="M144.5,49.3h2.5l0.9,4.8l1.3-4.8h2.5l1.3,4.8l0.9-4.8h2.5l-1.9,8.6h-2.6l-1.5-5.4l-1.5,5.4h-2.6L144.5,49.3z"/>
<path d="M157.4,49.3h7.1v1.8h-4.5v1.4h4.1v1.8h-4.1v1.7h4.6v1.9h-7.2V49.3z"/>
<path d="M166.1,49.3h5c0.8,0,1.5,0.2,1.9,0.6s0.7,0.9,0.7,1.5c0,0.5-0.2,0.9-0.5,1.3c-0.2,0.2-0.5,0.4-0.9,0.6
	c0.6,0.1,1.1,0.4,1.4,0.8s0.4,0.8,0.4,1.4c0,0.4-0.1,0.8-0.3,1.2s-0.5,0.6-0.8,0.8c-0.2,0.1-0.6,0.2-1,0.3c-0.6,0.1-1,0.1-1.2,0.1
	h-4.6V49.3z M168.8,52.6h1.2c0.4,0,0.7-0.1,0.9-0.2s0.2-0.3,0.2-0.6c0-0.2-0.1-0.4-0.2-0.6S170.4,51,170,51h-1.2V52.6z M168.8,56
	h1.4c0.5,0,0.8-0.1,1-0.2s0.3-0.4,0.3-0.7c0-0.3-0.1-0.5-0.3-0.6s-0.5-0.2-1-0.2h-1.3V56z"/>
<path d="M181.6,49.3h3.9c0.8,0,1.4,0.1,1.9,0.3s0.9,0.5,1.2,0.9s0.5,0.9,0.7,1.4s0.2,1.1,0.2,1.7c0,0.9-0.1,1.6-0.3,2.1
	s-0.5,0.9-0.9,1.3s-0.8,0.6-1.2,0.7c-0.6,0.2-1.1,0.2-1.6,0.2h-3.9V49.3z M184.3,51.2v4.7h0.7c0.6,0,0.9-0.1,1.2-0.2
	s0.4-0.3,0.6-0.6s0.2-0.8,0.2-1.5c0-0.9-0.1-1.5-0.4-1.9s-0.8-0.5-1.5-0.5H184.3z"/>
<path d="M190.9,49.3h7.1v1.8h-4.5v1.4h4.1v1.8h-4.1v1.7h4.6v1.9h-7.2V49.3z"/>
<path d="M198.8,49.3h2.8l1.9,6.2l1.9-6.2h2.7l-3.2,8.6H202L198.8,49.3z"/>
<path d="M208.9,49.3h7.1v1.8h-4.5v1.4h4.1v1.8h-4.1v1.7h4.6v1.9h-7.2V49.3z"/>
<path d="M217.6,49.3h2.7v6.5h4.1v2.1h-6.8V49.3z"/>
<path d="M225.1,53.6c0-1.4,0.4-2.5,1.2-3.3s1.9-1.2,3.3-1.2c1.4,0,2.5,0.4,3.3,1.2s1.2,1.8,1.2,3.2c0,1-0.2,1.8-0.5,2.5
	s-0.8,1.1-1.5,1.5s-1.4,0.5-2.4,0.5c-1,0-1.8-0.2-2.4-0.5s-1.1-0.8-1.5-1.5S225.1,54.6,225.1,53.6z M227.7,53.6
	c0,0.9,0.2,1.5,0.5,1.9s0.8,0.6,1.3,0.6c0.6,0,1-0.2,1.3-0.6s0.5-1,0.5-2c0-0.8-0.2-1.4-0.5-1.8s-0.8-0.6-1.3-0.6
	c-0.5,0-1,0.2-1.3,0.6S227.7,52.7,227.7,53.6z"/>
<path d="M235.4,49.3h4.4c1,0,1.7,0.2,2.2,0.7s0.7,1.1,0.7,2c0,0.9-0.3,1.5-0.8,2s-1.3,0.7-2.4,0.7h-1.5v3.2h-2.7V49.3z M238.1,52.9
	h0.7c0.5,0,0.9-0.1,1.1-0.3s0.3-0.4,0.3-0.7c0-0.3-0.1-0.5-0.3-0.7s-0.5-0.3-1-0.3h-0.8V52.9z"/>
<path d="M244.1,49.3h7.1v1.8h-4.5v1.4h4.1v1.8h-4.1v1.7h4.6v1.9h-7.2V49.3z"/>
<path d="M252.8,57.8v-8.6h4.4c0.8,0,1.4,0.1,1.9,0.2s0.8,0.4,1,0.8s0.4,0.8,0.4,1.4c0,0.5-0.1,0.9-0.3,1.2s-0.5,0.6-0.8,0.8
	c-0.2,0.1-0.5,0.2-0.9,0.3c0.3,0.1,0.5,0.2,0.7,0.3c0.1,0.1,0.2,0.2,0.4,0.5c0.2,0.2,0.3,0.4,0.4,0.5l1.3,2.5h-3l-1.4-2.6
	c-0.2-0.3-0.3-0.6-0.5-0.7c-0.2-0.1-0.4-0.2-0.7-0.2h-0.2v3.5H252.8z M255.4,52.7h1.1c0.1,0,0.4,0,0.7-0.1c0.2,0,0.3-0.1,0.4-0.3
	s0.2-0.3,0.2-0.5c0-0.3-0.1-0.5-0.3-0.6s-0.5-0.2-1-0.2h-1.2V52.7z"/>
<path d="M268.3,49.3h6.6v1.8h-3.9v1.5h3.3v1.7h-3.3v3.5h-2.7V49.3z"/>
<path d="M276.3,57.8v-8.6h4.4c0.8,0,1.4,0.1,1.9,0.2s0.8,0.4,1,0.8s0.4,0.8,0.4,1.4c0,0.5-0.1,0.9-0.3,1.2s-0.5,0.6-0.8,0.8
	c-0.2,0.1-0.5,0.2-0.9,0.3c0.3,0.1,0.5,0.2,0.7,0.3c0.1,0.1,0.2,0.2,0.4,0.5c0.2,0.2,0.3,0.4,0.4,0.5l1.3,2.5h-3l-1.4-2.6
	c-0.2-0.3-0.3-0.6-0.5-0.7c-0.2-0.1-0.4-0.2-0.7-0.2h-0.2v3.5H276.3z M278.9,52.7h1.1c0.1,0,0.4,0,0.7-0.1c0.2,0,0.3-0.1,0.4-0.3
	s0.2-0.3,0.2-0.5c0-0.3-0.1-0.5-0.3-0.6s-0.5-0.2-1-0.2h-1.2V52.7z"/>
<path d="M285,53.6c0-1.4,0.4-2.5,1.2-3.3s1.9-1.2,3.3-1.2c1.4,0,2.5,0.4,3.3,1.2s1.2,1.8,1.2,3.2c0,1-0.2,1.8-0.5,2.5
	s-0.8,1.1-1.5,1.5s-1.4,0.5-2.4,0.5c-1,0-1.8-0.2-2.4-0.5s-1.1-0.8-1.5-1.5S285,54.6,285,53.6z M287.7,53.6c0,0.9,0.2,1.5,0.5,1.9
	s0.8,0.6,1.3,0.6c0.6,0,1-0.2,1.3-0.6s0.5-1,0.5-2c0-0.8-0.2-1.4-0.5-1.8s-0.8-0.6-1.3-0.6c-0.5,0-1,0.2-1.3,0.6
	S287.7,52.7,287.7,53.6z"/>
<path d="M295.3,49.3h3.5l1.3,5.2l1.3-5.2h3.5v8.6h-2.2v-6.6l-1.7,6.6h-2l-1.7-6.6v6.6h-2.2V49.3z"/>
<path d="M312.9,49.3h2.7v6.5h4.1v2.1h-6.8V49.3z"/>
<path d="M320.3,53.6c0-1.4,0.4-2.5,1.2-3.3s1.9-1.2,3.3-1.2c1.4,0,2.5,0.4,3.3,1.2s1.2,1.8,1.2,3.2c0,1-0.2,1.8-0.5,2.5
	s-0.8,1.1-1.5,1.5s-1.4,0.5-2.4,0.5c-1,0-1.8-0.2-2.4-0.5s-1.1-0.8-1.5-1.5S320.3,54.6,320.3,53.6z M323,53.6c0,0.9,0.2,1.5,0.5,1.9
	s0.8,0.6,1.3,0.6c0.6,0,1-0.2,1.3-0.6s0.5-1,0.5-2c0-0.8-0.2-1.4-0.5-1.8s-0.8-0.6-1.3-0.6c-0.5,0-1,0.2-1.3,0.6S323,52.7,323,53.6z
	"/>
<path d="M330.7,49.3h2.5l3.2,4.8v-4.8h2.5v8.6h-2.5l-3.2-4.7v4.7h-2.5V49.3z"/>
<path d="M340.7,49.3h3.9c0.8,0,1.4,0.1,1.9,0.3s0.9,0.5,1.2,0.9s0.5,0.9,0.7,1.4s0.2,1.1,0.2,1.7c0,0.9-0.1,1.6-0.3,2.1
	s-0.5,0.9-0.9,1.3s-0.8,0.6-1.2,0.7c-0.6,0.2-1.1,0.2-1.6,0.2h-3.9V49.3z M343.4,51.2v4.7h0.7c0.6,0,0.9-0.1,1.2-0.2
	s0.4-0.3,0.6-0.6s0.2-0.8,0.2-1.5c0-0.9-0.1-1.5-0.4-1.9s-0.8-0.5-1.5-0.5H343.4z"/>
<path d="M349.7,53.6c0-1.4,0.4-2.5,1.2-3.3s1.9-1.2,3.3-1.2c1.4,0,2.5,0.4,3.3,1.2s1.2,1.8,1.2,3.2c0,1-0.2,1.8-0.5,2.5
	s-0.8,1.1-1.5,1.5s-1.4,0.5-2.4,0.5c-1,0-1.8-0.2-2.4-0.5s-1.1-0.8-1.5-1.5S349.7,54.6,349.7,53.6z M352.3,53.6
	c0,0.9,0.2,1.5,0.5,1.9s0.8,0.6,1.3,0.6c0.6,0,1-0.2,1.3-0.6s0.5-1,0.5-2c0-0.8-0.2-1.4-0.5-1.8s-0.8-0.6-1.3-0.6
	c-0.5,0-1,0.2-1.3,0.6S352.3,52.7,352.3,53.6z"/>
<path d="M360,49.3h2.5l3.2,4.8v-4.8h2.5v8.6h-2.5l-3.2-4.7v4.7H360V49.3z"/>
<path d="M375.3,49.3h2.5l0.9,4.8l1.3-4.8h2.5l1.3,4.8l0.9-4.8h2.5l-1.9,8.6h-2.6l-1.5-5.4l-1.5,5.4h-2.6L375.3,49.3z"/>
<path d="M388.3,49.3h2.7v8.6h-2.7V49.3z"/>
<path d="M392.2,49.3h8.1v2.1h-2.7v6.5h-2.7v-6.5h-2.7V49.3z"/>
<path d="M401.5,49.3h2.7v3h2.9v-3h2.7v8.6h-2.7v-3.5h-2.9v3.5h-2.7V49.3z"/>
<path d="M423,56.4h-3l-0.4,1.4h-2.7l3.2-8.6h2.9l3.2,8.6h-2.8L423,56.4z M422.4,54.6l-0.9-3.1l-0.9,3.1H422.4z"/>
<path d="M427,49.3h2.5l3.2,4.8v-4.8h2.5v8.6h-2.5l-3.2-4.7v4.7H427V49.3z"/>
<path d="M443.2,49.3h7.1v1.8h-4.5v1.4h4.1v1.8h-4.1v1.7h4.6v1.9h-7.2V49.3z"/>
<path d="M451,49.3h2.9l1.7,2.9l1.7-2.9h2.9l-3.3,5v3.6h-2.7v-3.6L451,49.3z"/>
<path d="M461.2,49.3h7.1v1.8h-4.5v1.4h4.1v1.8h-4.1v1.7h4.6v1.9h-7.2V49.3z"/>
<path d="M9.1,63.7h6.6v1.8h-3.9V67h3.3v1.7h-3.3v3.5H9.1V63.7z"/>
<path d="M16.8,68c0-1.4,0.4-2.5,1.2-3.3s1.9-1.2,3.3-1.2c1.4,0,2.5,0.4,3.3,1.2s1.2,1.8,1.2,3.2c0,1-0.2,1.8-0.5,2.5
	s-0.8,1.1-1.5,1.5s-1.4,0.5-2.4,0.5c-1,0-1.8-0.2-2.4-0.5s-1.1-0.8-1.5-1.5S16.8,69,16.8,68z M19.4,68c0,0.9,0.2,1.5,0.5,1.9
	s0.8,0.6,1.3,0.6c0.6,0,1-0.2,1.3-0.6s0.5-1,0.5-2c0-0.8-0.2-1.4-0.5-1.8s-0.8-0.6-1.3-0.6c-0.5,0-1,0.2-1.3,0.6S19.4,67.1,19.4,68z
	"/>
<path d="M27.1,72.2v-8.6h4.4c0.8,0,1.4,0.1,1.9,0.2s0.8,0.4,1,0.8s0.4,0.8,0.4,1.4c0,0.5-0.1,0.9-0.3,1.2s-0.5,0.6-0.8,0.8
	c-0.2,0.1-0.5,0.2-0.9,0.3c0.3,0.1,0.5,0.2,0.7,0.3c0.1,0.1,0.2,0.2,0.4,0.5c0.2,0.2,0.3,0.4,0.4,0.5l1.3,2.5h-3l-1.4-2.6
	c-0.2-0.3-0.3-0.6-0.5-0.7c-0.2-0.1-0.4-0.2-0.7-0.2h-0.2v3.5H27.1z M29.8,67.1h1.1c0.1,0,0.4,0,0.7-0.1c0.2,0,0.3-0.1,0.4-0.3
	s0.2-0.3,0.2-0.5c0-0.3-0.1-0.5-0.3-0.6s-0.5-0.2-1-0.2h-1.2V67.1z"/>
<path d="M40.1,63.7h3.9c0.8,0,1.4,0.1,1.9,0.3s0.9,0.5,1.2,0.9s0.5,0.9,0.7,1.4s0.2,1.1,0.2,1.7c0,0.9-0.1,1.6-0.3,2.1
	s-0.5,0.9-0.9,1.3s-0.8,0.6-1.2,0.7c-0.6,0.2-1.1,0.2-1.6,0.2h-3.9V63.7z M42.8,65.6v4.7h0.7c0.6,0,0.9-0.1,1.2-0.2s0.4-0.3,0.6-0.6
	s0.2-0.8,0.2-1.5c0-0.9-0.1-1.5-0.4-1.9s-0.8-0.5-1.5-0.5H42.8z"/>
<path d="M49.4,63.7h7.1v1.8h-4.5v1.4h4.1v1.8h-4.1v1.7h4.6v1.9h-7.2V63.7z"/>
<path d="M57.5,63.7h8.1v2.1h-2.7v6.5h-2.7v-6.5h-2.7V63.7z"/>
<path d="M71.2,70.8h-3l-0.4,1.4h-2.7l3.2-8.6h2.9l3.2,8.6h-2.8L71.2,70.8z M70.7,69l-0.9-3.1L68.8,69H70.7z"/>
<path d="M75.4,63.7H78v8.6h-2.7V63.7z"/>
<path d="M80,63.7h2.7v6.5h4.1v2.1H80V63.7z"/>
<path d="M96.9,70.8h-3l-0.4,1.4h-2.7l3.2-8.6h2.9l3.2,8.6h-2.8L96.9,70.8z M96.4,69l-0.9-3.1L94.5,69H96.4z"/>
<path d="M101,63.7h2.5l3.2,4.8v-4.8h2.5v8.6h-2.5l-3.2-4.7v4.7H101V63.7z"/>
<path d="M111,63.7h3.9c0.8,0,1.4,0.1,1.9,0.3s0.9,0.5,1.2,0.9s0.5,0.9,0.7,1.4s0.2,1.1,0.2,1.7c0,0.9-0.1,1.6-0.3,2.1
	s-0.5,0.9-0.9,1.3s-0.8,0.6-1.2,0.7c-0.6,0.2-1.1,0.2-1.6,0.2H111V63.7z M113.7,65.6v4.7h0.7c0.6,0,0.9-0.1,1.2-0.2s0.4-0.3,0.6-0.6
	s0.2-0.8,0.2-1.5c0-0.9-0.1-1.5-0.4-1.9s-0.8-0.5-1.5-0.5H113.7z"/>
<path d="M129.3,70.8h-3l-0.4,1.4h-2.7l3.2-8.6h2.9l3.2,8.6h-2.8L129.3,70.8z M128.7,69l-0.9-3.1l-0.9,3.1H128.7z"/>
<path d="M133.3,63.7h2.5l3.2,4.8v-4.8h2.5v8.6H139l-3.2-4.7v4.7h-2.5V63.7z"/>
<path d="M147,63.7h4.4c1,0,1.7,0.2,2.2,0.7s0.7,1.1,0.7,2c0,0.9-0.3,1.5-0.8,2s-1.3,0.7-2.4,0.7h-1.5v3.2H147V63.7z M149.6,67.3h0.7
	c0.5,0,0.9-0.1,1.1-0.3s0.3-0.4,0.3-0.7c0-0.3-0.1-0.5-0.3-0.7s-0.5-0.3-1-0.3h-0.8V67.3z"/>
<path d="M159.9,70.8h-3l-0.4,1.4h-2.7l3.2-8.6h2.9l3.2,8.6h-2.8L159.9,70.8z M159.4,69l-0.9-3.1l-0.9,3.1H159.4z"/>
<path d="M163.5,69.4l2.5-0.2c0.1,0.4,0.2,0.7,0.3,0.9c0.3,0.3,0.7,0.5,1.2,0.5c0.4,0,0.7-0.1,0.9-0.3s0.3-0.4,0.3-0.6
	c0-0.2-0.1-0.4-0.3-0.6s-0.6-0.3-1.4-0.5c-1.2-0.3-2-0.6-2.5-1c-0.5-0.4-0.8-1-0.8-1.7c0-0.4,0.1-0.9,0.4-1.3s0.6-0.7,1.2-0.9
	s1.2-0.3,2.1-0.3c1.1,0,1.9,0.2,2.5,0.6s0.9,1.1,1,1.9l-2.5,0.1c-0.1-0.4-0.2-0.7-0.4-0.8s-0.5-0.3-0.9-0.3c-0.3,0-0.5,0.1-0.7,0.2
	s-0.2,0.3-0.2,0.5c0,0.1,0.1,0.3,0.2,0.4c0.1,0.1,0.4,0.2,0.9,0.3c1.2,0.2,2,0.5,2.5,0.8s0.9,0.6,1.1,1s0.3,0.8,0.3,1.3
	c0,0.6-0.2,1.1-0.5,1.5s-0.7,0.8-1.3,1.1s-1.2,0.4-2.1,0.4c-1.5,0-2.5-0.3-3-0.8S163.6,70.3,163.5,69.4z"/>
<path d="M172.2,69.4l2.5-0.2c0.1,0.4,0.2,0.7,0.3,0.9c0.3,0.3,0.7,0.5,1.2,0.5c0.4,0,0.7-0.1,0.9-0.3s0.3-0.4,0.3-0.6
	c0-0.2-0.1-0.4-0.3-0.6s-0.6-0.3-1.4-0.5c-1.2-0.3-2-0.6-2.5-1c-0.5-0.4-0.8-1-0.8-1.7c0-0.4,0.1-0.9,0.4-1.3s0.6-0.7,1.2-0.9
	s1.2-0.3,2.1-0.3c1.1,0,1.9,0.2,2.5,0.6s0.9,1.1,1,1.9l-2.5,0.1c-0.1-0.4-0.2-0.7-0.4-0.8s-0.5-0.3-0.9-0.3c-0.3,0-0.5,0.1-0.7,0.2
	s-0.2,0.3-0.2,0.5c0,0.1,0.1,0.3,0.2,0.4c0.1,0.1,0.4,0.2,0.9,0.3c1.2,0.2,2,0.5,2.5,0.8s0.9,0.6,1.1,1s0.3,0.8,0.3,1.3
	c0,0.6-0.2,1.1-0.5,1.5s-0.7,0.8-1.3,1.1s-1.2,0.4-2.1,0.4c-1.5,0-2.5-0.3-3-0.8S172.2,70.3,172.2,69.4z"/>
<path d="M181.4,63.7h2.7v8.6h-2.7V63.7z"/>
<path d="M185.6,68c0-1.4,0.4-2.5,1.2-3.3s1.9-1.2,3.3-1.2c1.4,0,2.5,0.4,3.3,1.2s1.2,1.8,1.2,3.2c0,1-0.2,1.8-0.5,2.5
	s-0.8,1.1-1.5,1.5s-1.4,0.5-2.4,0.5c-1,0-1.8-0.2-2.4-0.5s-1.1-0.8-1.5-1.5S185.6,69,185.6,68z M188.3,68c0,0.9,0.2,1.5,0.5,1.9
	s0.8,0.6,1.3,0.6c0.6,0,1-0.2,1.3-0.6s0.5-1,0.5-2c0-0.8-0.2-1.4-0.5-1.8s-0.8-0.6-1.3-0.6c-0.5,0-1,0.2-1.3,0.6
	S188.3,67.1,188.3,68z"/>
<path d="M196,63.7h2.5l3.2,4.8v-4.8h2.5v8.6h-2.5l-3.2-4.7v4.7H196V63.7z"/>
<path d="M209.6,63.7h6.6v1.8h-3.9V67h3.3v1.7h-3.3v3.5h-2.7V63.7z"/>
<path d="M217.3,68c0-1.4,0.4-2.5,1.2-3.3s1.9-1.2,3.3-1.2c1.4,0,2.5,0.4,3.3,1.2s1.2,1.8,1.2,3.2c0,1-0.2,1.8-0.5,2.5
	s-0.8,1.1-1.5,1.5s-1.4,0.5-2.4,0.5c-1,0-1.8-0.2-2.4-0.5s-1.1-0.8-1.5-1.5S217.3,69,217.3,68z M220,68c0,0.9,0.2,1.5,0.5,1.9
	s0.8,0.6,1.3,0.6c0.6,0,1-0.2,1.3-0.6s0.5-1,0.5-2c0-0.8-0.2-1.4-0.5-1.8s-0.8-0.6-1.3-0.6c-0.5,0-1,0.2-1.3,0.6S220,67.1,220,68z"
	/>
<path d="M227.7,72.2v-8.6h4.4c0.8,0,1.4,0.1,1.9,0.2s0.8,0.4,1,0.8s0.4,0.8,0.4,1.4c0,0.5-0.1,0.9-0.3,1.2c-0.2,0.3-0.5,0.6-0.8,0.8
	c-0.2,0.1-0.5,0.2-0.9,0.3c0.3,0.1,0.5,0.2,0.7,0.3c0.1,0.1,0.2,0.2,0.4,0.5c0.2,0.2,0.3,0.4,0.4,0.5l1.3,2.5h-3l-1.4-2.6
	c-0.2-0.3-0.3-0.6-0.5-0.7c-0.2-0.1-0.4-0.2-0.7-0.2h-0.2v3.5H227.7z M230.3,67.1h1.1c0.1,0,0.4,0,0.7-0.1c0.2,0,0.3-0.1,0.4-0.3
	s0.2-0.3,0.2-0.5c0-0.3-0.1-0.5-0.3-0.6s-0.5-0.2-1-0.2h-1.2V67.1z"/>
<path d="M240,63.7h8.1v2.1h-2.7v6.5h-2.7v-6.5H240V63.7z"/>
<path d="M249.3,63.7h7.1v1.8H252v1.4h4.1v1.8H252v1.7h4.6v1.9h-7.2V63.7z"/>
<path d="M263.7,68.7l2.3,0.7c-0.2,0.7-0.4,1.2-0.7,1.6s-0.8,0.8-1.3,1s-1.1,0.3-1.9,0.3c-0.9,0-1.7-0.1-2.3-0.4
	c-0.6-0.3-1.1-0.7-1.5-1.4s-0.6-1.6-0.6-2.6c0-1.4,0.4-2.5,1.1-3.3c0.8-0.8,1.8-1.1,3.2-1.1c1.1,0,1.9,0.2,2.6,0.7s1.1,1.1,1.4,2
	l-2.3,0.5c-0.1-0.3-0.2-0.5-0.3-0.6c-0.1-0.2-0.3-0.4-0.5-0.5s-0.5-0.2-0.7-0.2c-0.6,0-1.1,0.2-1.4,0.7c-0.2,0.4-0.4,0.9-0.4,1.7
	c0,1,0.1,1.6,0.4,2s0.7,0.5,1.2,0.5c0.5,0,0.9-0.1,1.2-0.4S263.6,69.3,263.7,68.7z"/>
<path d="M267.3,63.7h2.7v3h2.9v-3h2.7v8.6h-2.7v-3.5H270v3.5h-2.7V63.7z"/>
<path d="M277.3,63.7h2.5l3.2,4.8v-4.8h2.5v8.6H283l-3.2-4.7v4.7h-2.5V63.7z"/>
<path d="M287,68c0-1.4,0.4-2.5,1.2-3.3s1.9-1.2,3.3-1.2c1.4,0,2.5,0.4,3.3,1.2s1.2,1.8,1.2,3.2c0,1-0.2,1.8-0.5,2.5
	s-0.8,1.1-1.5,1.5s-1.4,0.5-2.4,0.5c-1,0-1.8-0.2-2.4-0.5s-1.1-0.8-1.5-1.5S287,69,287,68z M289.6,68c0,0.9,0.2,1.5,0.5,1.9
	s0.8,0.6,1.3,0.6c0.6,0,1-0.2,1.3-0.6s0.5-1,0.5-2c0-0.8-0.2-1.4-0.5-1.8s-0.8-0.6-1.3-0.6c-0.5,0-1,0.2-1.3,0.6
	S289.6,67.1,289.6,68z"/>
<path d="M297.3,63.7h2.7v6.5h4.1v2.1h-6.8V63.7z"/>
<path d="M304.8,68c0-1.4,0.4-2.5,1.2-3.3s1.9-1.2,3.3-1.2c1.4,0,2.5,0.4,3.3,1.2s1.2,1.8,1.2,3.2c0,1-0.2,1.8-0.5,2.5
	s-0.8,1.1-1.5,1.5s-1.4,0.5-2.4,0.5c-1,0-1.8-0.2-2.4-0.5s-1.1-0.8-1.5-1.5S304.8,69,304.8,68z M307.4,68c0,0.9,0.2,1.5,0.5,1.9
	s0.8,0.6,1.3,0.6c0.6,0,1-0.2,1.3-0.6s0.5-1,0.5-2c0-0.8-0.2-1.4-0.5-1.8s-0.8-0.6-1.3-0.6c-0.5,0-1,0.2-1.3,0.6
	S307.4,67.1,307.4,68z"/>
<path d="M319.4,69.1v-1.8h4.1V71c-0.8,0.5-1.5,0.9-2.1,1.1s-1.3,0.3-2.1,0.3c-1,0-1.9-0.2-2.5-0.5s-1.1-0.9-1.5-1.6
	s-0.5-1.5-0.5-2.4c0-0.9,0.2-1.8,0.6-2.4s1-1.2,1.7-1.6c0.6-0.3,1.4-0.4,2.3-0.4c0.9,0,1.7,0.1,2.1,0.3s0.9,0.4,1.2,0.8
	s0.5,0.8,0.7,1.4l-2.6,0.5c-0.1-0.3-0.3-0.6-0.5-0.7s-0.6-0.3-1-0.3c-0.6,0-1,0.2-1.4,0.6s-0.5,1-0.5,1.9c0,0.9,0.2,1.6,0.5,2
	s0.8,0.6,1.5,0.6c0.3,0,0.6,0,0.8-0.1s0.6-0.2,0.9-0.4v-0.8H319.4z"/>
<path d="M324.2,63.7h2.9l1.7,2.9l1.7-2.9h2.9l-3.3,5v3.6h-2.7v-3.6L324.2,63.7z"/>
<path d="M332.2,69.9h2.5v2.4h-2.5V69.9z"/>
<path d="M339.6,69.4l2.5-0.2c0.1,0.4,0.2,0.7,0.3,0.9c0.3,0.3,0.7,0.5,1.2,0.5c0.4,0,0.7-0.1,0.9-0.3s0.3-0.4,0.3-0.6
	c0-0.2-0.1-0.4-0.3-0.6s-0.6-0.3-1.4-0.5c-1.2-0.3-2-0.6-2.5-1c-0.5-0.4-0.8-1-0.8-1.7c0-0.4,0.1-0.9,0.4-1.3s0.6-0.7,1.2-0.9
	s1.2-0.3,2.1-0.3c1.1,0,1.9,0.2,2.5,0.6s0.9,1.1,1,1.9l-2.5,0.1c-0.1-0.4-0.2-0.7-0.4-0.8s-0.5-0.3-0.9-0.3c-0.3,0-0.5,0.1-0.7,0.2
	s-0.2,0.3-0.2,0.5c0,0.1,0.1,0.3,0.2,0.4c0.1,0.1,0.4,0.2,0.9,0.3c1.2,0.2,2,0.5,2.5,0.8s0.9,0.6,1.1,1s0.3,0.8,0.3,1.3
	c0,0.6-0.2,1.1-0.5,1.5s-0.7,0.8-1.3,1.1s-1.2,0.4-2.1,0.4c-1.5,0-2.5-0.3-3-0.8S339.7,70.3,339.6,69.4z"/>
<path d="M348.8,63.7h2.7v8.6h-2.7V63.7z"/>
<path d="M353.4,63.7h2.5l3.2,4.8v-4.8h2.5v8.6h-2.5l-3.2-4.7v4.7h-2.5V63.7z"/>
<path d="M369.1,68.7l2.3,0.7c-0.2,0.7-0.4,1.2-0.7,1.6s-0.8,0.8-1.3,1s-1.1,0.3-1.9,0.3c-0.9,0-1.7-0.1-2.3-0.4
	c-0.6-0.3-1.1-0.7-1.5-1.4s-0.6-1.6-0.6-2.6c0-1.4,0.4-2.5,1.1-3.3c0.8-0.8,1.8-1.1,3.2-1.1c1.1,0,1.9,0.2,2.6,0.7s1.1,1.1,1.4,2
	l-2.3,0.5c-0.1-0.3-0.2-0.5-0.3-0.6c-0.1-0.2-0.3-0.4-0.5-0.5s-0.5-0.2-0.7-0.2c-0.6,0-1.1,0.2-1.4,0.7c-0.2,0.4-0.4,0.9-0.4,1.7
	c0,1,0.1,1.6,0.4,2s0.7,0.5,1.2,0.5c0.5,0,0.9-0.1,1.2-0.4S369,69.3,369.1,68.7z"/>
<path d="M372.7,63.7h7.1v1.8h-4.5v1.4h4.1v1.8h-4.1v1.7h4.6v1.9h-7.2V63.7z"/>
<path d="M385,63.7h3.5l1.3,5.2l1.3-5.2h3.5v8.6h-2.2v-6.6l-1.7,6.6h-2l-1.7-6.6v6.6H385V63.7z"/>
<path d="M401.7,70.8h-3l-0.4,1.4h-2.7l3.2-8.6h2.9l3.2,8.6h-2.8L401.7,70.8z M401.1,69l-0.9-3.1l-0.9,3.1H401.1z"/>
<path d="M405.7,72.2v-8.6h4.4c0.8,0,1.4,0.1,1.9,0.2s0.8,0.4,1,0.8s0.4,0.8,0.4,1.4c0,0.5-0.1,0.9-0.3,1.2s-0.5,0.6-0.8,0.8
	c-0.2,0.1-0.5,0.2-0.9,0.3c0.3,0.1,0.5,0.2,0.7,0.3c0.1,0.1,0.2,0.2,0.4,0.5c0.2,0.2,0.3,0.4,0.4,0.5l1.3,2.5h-3l-1.4-2.6
	c-0.2-0.3-0.3-0.6-0.5-0.7c-0.2-0.1-0.4-0.2-0.7-0.2h-0.2v3.5H405.7z M408.4,67.1h1.1c0.1,0,0.4,0,0.7-0.1c0.2,0,0.3-0.1,0.4-0.3
	s0.2-0.3,0.2-0.5c0-0.3-0.1-0.5-0.3-0.6s-0.5-0.2-1-0.2h-1.2V67.1z"/>
<path d="M420.5,68.7l2.3,0.7c-0.2,0.7-0.4,1.2-0.7,1.6s-0.8,0.8-1.3,1s-1.1,0.3-1.9,0.3c-0.9,0-1.7-0.1-2.3-0.4
	c-0.6-0.3-1.1-0.7-1.5-1.4s-0.6-1.6-0.6-2.6c0-1.4,0.4-2.5,1.1-3.3c0.8-0.8,1.8-1.1,3.2-1.1c1.1,0,1.9,0.2,2.6,0.7s1.1,1.1,1.4,2
	l-2.3,0.5c-0.1-0.3-0.2-0.5-0.3-0.6c-0.1-0.2-0.3-0.4-0.5-0.5s-0.5-0.2-0.7-0.2c-0.6,0-1.1,0.2-1.4,0.7c-0.2,0.4-0.4,0.9-0.4,1.7
	c0,1,0.1,1.6,0.4,2s0.7,0.5,1.2,0.5c0.5,0,0.9-0.1,1.2-0.4S420.4,69.3,420.5,68.7z"/>
<path d="M424.2,63.7h2.7v3h2.9v-3h2.7v8.6h-2.7v-3.5h-2.9v3.5h-2.7V63.7z"/>
<path d="M444.4,72.2h-7.2c0.1-0.7,0.3-1.4,0.7-2s1.2-1.4,2.3-2.2c0.7-0.5,1.1-0.9,1.3-1.2s0.3-0.5,0.3-0.8c0-0.3-0.1-0.5-0.3-0.7
	s-0.4-0.3-0.7-0.3c-0.3,0-0.6,0.1-0.7,0.3s-0.3,0.5-0.4,1l-2.4-0.2c0.1-0.7,0.3-1.2,0.5-1.6s0.6-0.7,1.1-0.9s1.1-0.3,1.9-0.3
	c0.8,0,1.5,0.1,2,0.3s0.8,0.5,1.1,0.9s0.4,0.8,0.4,1.3c0,0.5-0.2,1-0.5,1.5s-0.9,1-1.7,1.6c-0.5,0.3-0.8,0.6-1,0.7s-0.4,0.3-0.6,0.5
	h3.7V72.2z"/>
<path d="M445.5,67.9c0-1.6,0.3-2.8,0.9-3.4s1.5-1,2.7-1c0.6,0,1.1,0.1,1.4,0.2s0.7,0.3,0.9,0.6s0.4,0.5,0.6,0.7s0.2,0.5,0.3,0.9
	c0.2,0.6,0.2,1.3,0.2,2c0,1.6-0.3,2.7-0.8,3.4s-1.4,1.1-2.7,1.1c-0.7,0-1.3-0.1-1.8-0.3s-0.8-0.6-1.1-1c-0.2-0.3-0.4-0.7-0.5-1.3
	S445.5,68.6,445.5,67.9z M447.8,67.9c0,1.1,0.1,1.8,0.3,2.2s0.5,0.6,0.8,0.6c0.2,0,0.5-0.1,0.6-0.3s0.3-0.4,0.4-0.8s0.1-0.9,0.1-1.7
	c0-1.1-0.1-1.9-0.3-2.3s-0.5-0.6-0.9-0.6c-0.4,0-0.7,0.2-0.9,0.6S447.8,66.8,447.8,67.9z"/>
<path d="M458.9,63.5v8.7h-2.4v-5.7c-0.4,0.3-0.8,0.5-1.1,0.7s-0.8,0.4-1.4,0.5v-2c0.8-0.3,1.4-0.6,1.9-0.9s0.8-0.8,1.1-1.4H458.9z"
	/>
<path d="M462.4,63.7h5.7v1.9h-3.8l-0.2,1.3c0.3-0.1,0.5-0.2,0.8-0.3s0.5-0.1,0.8-0.1c0.9,0,1.6,0.3,2.1,0.8s0.8,1.2,0.8,2
	c0,0.6-0.1,1.1-0.4,1.6s-0.7,0.9-1.2,1.2s-1.2,0.4-1.9,0.4c-0.6,0-1.1-0.1-1.5-0.2s-0.7-0.3-1-0.5s-0.5-0.5-0.7-0.7s-0.3-0.6-0.4-1
	l2.4-0.3c0.1,0.4,0.2,0.7,0.4,0.9s0.5,0.3,0.8,0.3c0.3,0,0.6-0.1,0.8-0.4s0.3-0.6,0.3-1.1c0-0.5-0.1-0.9-0.3-1.1s-0.5-0.4-0.9-0.4
	c-0.2,0-0.5,0.1-0.7,0.2c-0.2,0.1-0.3,0.2-0.5,0.4l-2-0.3L462.4,63.7z"/>
<path d="M9.2,78.1h2.7v8.6H9.2V78.1z"/>
<path d="M19.9,78.1h2.7v3h2.9v-3h2.7v8.6h-2.7v-3.5h-2.9v3.5h-2.7V78.1z"/>
<path d="M35.2,85.2h-3l-0.4,1.4h-2.7l3.2-8.6h2.9l3.2,8.6h-2.8L35.2,85.2z M34.7,83.4l-0.9-3.1l-0.9,3.1H34.7z"/>
<path d="M37.8,78.1h2.8l1.9,6.2l1.9-6.2h2.7l-3.2,8.6H41L37.8,78.1z"/>
<path d="M47.9,78.1H55v1.8h-4.5v1.4h4.1V83h-4.1v1.7h4.6v1.9h-7.2V78.1z"/>
<path d="M62.8,78.1h5c0.8,0,1.5,0.2,1.9,0.6s0.7,0.9,0.7,1.5c0,0.5-0.2,0.9-0.5,1.3c-0.2,0.2-0.5,0.4-0.9,0.6
	c0.6,0.1,1.1,0.4,1.4,0.8s0.4,0.8,0.4,1.4c0,0.4-0.1,0.8-0.3,1.2s-0.5,0.6-0.8,0.8c-0.2,0.1-0.6,0.2-1,0.3c-0.6,0.1-1,0.1-1.2,0.1
	h-4.6V78.1z M65.5,81.4h1.2c0.4,0,0.7-0.1,0.9-0.2s0.2-0.3,0.2-0.6c0-0.2-0.1-0.4-0.2-0.6s-0.4-0.2-0.8-0.2h-1.2V81.4z M65.5,84.8
	h1.4c0.5,0,0.8-0.1,1-0.2s0.3-0.4,0.3-0.7c0-0.3-0.1-0.5-0.3-0.6s-0.5-0.2-1-0.2h-1.3V84.8z"/>
<path d="M72.1,78.1h7.1v1.8h-4.5v1.4h4.1V83h-4.1v1.7h4.6v1.9h-7.2V78.1z"/>
<path d="M80.8,78.1h7.1v1.8h-4.5v1.4h4.1V83h-4.1v1.7H88v1.9h-7.2V78.1z"/>
<path d="M89.5,78.1h2.5l3.2,4.8v-4.8h2.5v8.6h-2.5L92,81.9v4.7h-2.5V78.1z"/>
<path d="M105.6,78.1h2.7v6.5h4.1v2.1h-6.8V78.1z"/>
<path d="M113.6,78.1h7.1v1.8h-4.5v1.4h4.1V83h-4.1v1.7h4.6v1.9h-7.2V78.1z"/>
<path d="M127.6,85.2h-3l-0.4,1.4h-2.7l3.2-8.6h2.9l3.2,8.6H128L127.6,85.2z M127,83.4l-0.9-3.1l-0.9,3.1H127z"/>
<path d="M131.6,86.6v-8.6h4.4c0.8,0,1.4,0.1,1.9,0.2s0.8,0.4,1,0.8s0.4,0.8,0.4,1.4c0,0.5-0.1,0.9-0.3,1.2s-0.5,0.6-0.8,0.8
	c-0.2,0.1-0.5,0.2-0.9,0.3c0.3,0.1,0.5,0.2,0.7,0.3c0.1,0.1,0.2,0.2,0.4,0.5c0.2,0.2,0.3,0.4,0.4,0.5l1.3,2.5h-3l-1.4-2.6
	c-0.2-0.3-0.3-0.6-0.5-0.7c-0.2-0.1-0.4-0.2-0.7-0.2h-0.2v3.5H131.6z M134.3,81.5h1.1c0.1,0,0.4,0,0.7-0.1c0.2,0,0.3-0.1,0.4-0.3
	s0.2-0.3,0.2-0.5c0-0.3-0.1-0.5-0.3-0.6s-0.5-0.2-1-0.2h-1.2V81.5z"/>
<path d="M141,78.1h2.5l3.2,4.8v-4.8h2.5v8.6h-2.5l-3.2-4.7v4.7H141V78.1z"/>
<path d="M151,78.1h2.7v8.6H151V78.1z"/>
<path d="M155.6,78.1h2.5l3.2,4.8v-4.8h2.5v8.6h-2.5l-3.2-4.7v4.7h-2.5V78.1z"/>
<path d="M169.9,83.5v-1.8h4.1v3.7c-0.8,0.5-1.5,0.9-2.1,1.1s-1.3,0.3-2.1,0.3c-1,0-1.9-0.2-2.5-0.5s-1.1-0.9-1.5-1.6
	s-0.5-1.5-0.5-2.4c0-0.9,0.2-1.8,0.6-2.4s1-1.2,1.7-1.6c0.6-0.3,1.4-0.4,2.3-0.4c0.9,0,1.7,0.1,2.1,0.3s0.9,0.4,1.2,0.8
	s0.5,0.8,0.7,1.4l-2.6,0.5c-0.1-0.3-0.3-0.6-0.5-0.7s-0.6-0.3-1-0.3c-0.6,0-1,0.2-1.4,0.6s-0.5,1-0.5,1.9c0,0.9,0.2,1.6,0.5,2
	s0.8,0.6,1.5,0.6c0.3,0,0.6,0,0.8-0.1s0.6-0.2,0.9-0.4v-0.8H169.9z"/>
<path d="M181.2,78.1h8.1v2.1h-2.7v6.5h-2.7v-6.5h-2.7V78.1z"/>
<path d="M190.5,78.1h2.7v3h2.9v-3h2.7v8.6H196v-3.5h-2.9v3.5h-2.7V78.1z"/>
<path d="M200.4,78.1h7.1v1.8h-4.5v1.4h4.1V83h-4.1v1.7h4.6v1.9h-7.2V78.1z"/>
<path d="M214.4,78.1h2.5l0.9,4.8l1.3-4.8h2.5l1.3,4.8l0.9-4.8h2.5l-1.9,8.6h-2.6l-1.5-5.4l-1.5,5.4h-2.6L214.4,78.1z"/>
<path d="M232.6,85.2h-3l-0.4,1.4h-2.7l3.2-8.6h2.9l3.2,8.6H233L232.6,85.2z M232,83.4l-0.9-3.1l-0.9,3.1H232z"/>
<path d="M234.7,78.1h2.9l1.7,2.9l1.7-2.9h2.9l-3.3,5v3.6h-2.7V83L234.7,78.1z"/>
<path d="M244,83.8l2.5-0.2c0.1,0.4,0.2,0.7,0.3,0.9c0.3,0.3,0.7,0.5,1.2,0.5c0.4,0,0.7-0.1,0.9-0.3s0.3-0.4,0.3-0.6
	c0-0.2-0.1-0.4-0.3-0.6s-0.6-0.3-1.4-0.5c-1.2-0.3-2-0.6-2.5-1c-0.5-0.4-0.8-1-0.8-1.7c0-0.4,0.1-0.9,0.4-1.3s0.6-0.7,1.2-0.9
	s1.2-0.3,2.1-0.3c1.1,0,1.9,0.2,2.5,0.6s0.9,1.1,1,1.9l-2.5,0.1c-0.1-0.4-0.2-0.7-0.4-0.8s-0.5-0.3-0.9-0.3c-0.3,0-0.5,0.1-0.7,0.2
	s-0.2,0.3-0.2,0.5c0,0.1,0.1,0.3,0.2,0.4c0.1,0.1,0.4,0.2,0.9,0.3c1.2,0.2,2,0.5,2.5,0.8s0.9,0.6,1.1,1s0.3,0.8,0.3,1.3
	c0,0.6-0.2,1.1-0.5,1.5s-0.7,0.8-1.3,1.1s-1.2,0.4-2.1,0.4c-1.5,0-2.5-0.3-3-0.8S244,84.7,244,83.8z"/>
<path d="M258.9,82.4c0-1.4,0.4-2.5,1.2-3.3s1.9-1.2,3.3-1.2c1.4,0,2.5,0.4,3.3,1.2s1.2,1.8,1.2,3.2c0,1-0.2,1.8-0.5,2.5
	s-0.8,1.1-1.5,1.5s-1.4,0.5-2.4,0.5c-1,0-1.8-0.2-2.4-0.5s-1.1-0.8-1.5-1.5S258.9,83.4,258.9,82.4z M261.6,82.4
	c0,0.9,0.2,1.5,0.5,1.9s0.8,0.6,1.3,0.6c0.6,0,1-0.2,1.3-0.6s0.5-1,0.5-2c0-0.8-0.2-1.4-0.5-1.8s-0.8-0.6-1.3-0.6
	c-0.5,0-1,0.2-1.3,0.6S261.6,81.5,261.6,82.4z"/>
<path d="M269.3,78.1h6.6v1.8h-3.9v1.5h3.3v1.7h-3.3v3.5h-2.7V78.1z"/>
<path d="M283.4,78.1h6.6v1.8h-3.9v1.5h3.3v1.7h-3.3v3.5h-2.7V78.1z"/>
<path d="M291.5,86.6v-8.6h4.4c0.8,0,1.4,0.1,1.9,0.2s0.8,0.4,1,0.8s0.4,0.8,0.4,1.4c0,0.5-0.1,0.9-0.3,1.2s-0.5,0.6-0.8,0.8
	c-0.2,0.1-0.5,0.2-0.9,0.3c0.3,0.1,0.5,0.2,0.7,0.3c0.1,0.1,0.2,0.2,0.4,0.5c0.2,0.2,0.3,0.4,0.4,0.5l1.3,2.5h-3l-1.4-2.6
	c-0.2-0.3-0.3-0.6-0.5-0.7c-0.2-0.1-0.4-0.2-0.7-0.2h-0.2v3.5H291.5z M294.1,81.5h1.1c0.1,0,0.4,0,0.7-0.1c0.2,0,0.3-0.1,0.4-0.3
	s0.2-0.3,0.2-0.5c0-0.3-0.1-0.5-0.3-0.6s-0.5-0.2-1-0.2h-1.2V81.5z"/>
<path d="M300.2,82.4c0-1.4,0.4-2.5,1.2-3.3s1.9-1.2,3.3-1.2c1.4,0,2.5,0.4,3.3,1.2s1.2,1.8,1.2,3.2c0,1-0.2,1.8-0.5,2.5
	s-0.8,1.1-1.5,1.5s-1.4,0.5-2.4,0.5c-1,0-1.8-0.2-2.4-0.5s-1.1-0.8-1.5-1.5S300.2,83.4,300.2,82.4z M302.9,82.4
	c0,0.9,0.2,1.5,0.5,1.9s0.8,0.6,1.3,0.6c0.6,0,1-0.2,1.3-0.6s0.5-1,0.5-2c0-0.8-0.2-1.4-0.5-1.8s-0.8-0.6-1.3-0.6
	c-0.5,0-1,0.2-1.3,0.6S302.9,81.5,302.9,82.4z"/>
<path d="M310.6,78.1h2.5l3.2,4.8v-4.8h2.5v8.6h-2.5l-3.2-4.7v4.7h-2.5V78.1z"/>
<path d="M320,78.1h8.1v2.1h-2.7v6.5h-2.7v-6.5H320V78.1z"/>
<path d="M327.8,82.6h3.5v1.8h-3.5V82.6z"/>
<path d="M332.4,78.1h7.1v1.8h-4.5v1.4h4.1V83h-4.1v1.7h4.6v1.9h-7.2V78.1z"/>
<path d="M341.1,78.1h2.5l3.2,4.8v-4.8h2.5v8.6h-2.5l-3.2-4.7v4.7h-2.5V78.1z"/>
<path d="M351.1,78.1h3.9c0.8,0,1.4,0.1,1.9,0.3s0.9,0.5,1.2,0.9s0.5,0.9,0.7,1.4s0.2,1.1,0.2,1.7c0,0.9-0.1,1.6-0.3,2.1
	s-0.5,0.9-0.9,1.3s-0.8,0.6-1.2,0.7c-0.6,0.2-1.1,0.2-1.6,0.2h-3.9V78.1z M353.8,80v4.7h0.7c0.6,0,0.9-0.1,1.2-0.2s0.4-0.3,0.6-0.6
	s0.2-0.8,0.2-1.5c0-0.9-0.1-1.5-0.4-1.9s-0.8-0.5-1.5-0.5H353.8z"/>
<path d="M366.6,78.1h3.9c0.8,0,1.4,0.1,1.9,0.3s0.9,0.5,1.2,0.9s0.5,0.9,0.7,1.4s0.2,1.1,0.2,1.7c0,0.9-0.1,1.6-0.3,2.1
	s-0.5,0.9-0.9,1.3s-0.8,0.6-1.2,0.7c-0.6,0.2-1.1,0.2-1.6,0.2h-3.9V78.1z M369.3,80v4.7h0.7c0.6,0,0.9-0.1,1.2-0.2s0.4-0.3,0.6-0.6
	s0.2-0.8,0.2-1.5c0-0.9-0.1-1.5-0.4-1.9s-0.8-0.5-1.5-0.5H369.3z"/>
<path d="M375.9,78.1h7.1v1.8h-4.5v1.4h4.1V83h-4.1v1.7h4.6v1.9h-7.2V78.1z"/>
<path d="M383.7,78.1h2.8l1.9,6.2l1.9-6.2h2.7l-3.2,8.6H387L383.7,78.1z"/>
<path d="M393.9,78.1h7.1v1.8h-4.5v1.4h4.1V83h-4.1v1.7h4.6v1.9h-7.2V78.1z"/>
<path d="M402.6,78.1h2.7v6.5h4.1v2.1h-6.8V78.1z"/>
<path d="M410,82.4c0-1.4,0.4-2.5,1.2-3.3s1.9-1.2,3.3-1.2c1.4,0,2.5,0.4,3.3,1.2s1.2,1.8,1.2,3.2c0,1-0.2,1.8-0.5,2.5
	s-0.8,1.1-1.5,1.5s-1.4,0.5-2.4,0.5c-1,0-1.8-0.2-2.4-0.5s-1.1-0.8-1.5-1.5S410,83.4,410,82.4z M412.7,82.4c0,0.9,0.2,1.5,0.5,1.9
	s0.8,0.6,1.3,0.6c0.6,0,1-0.2,1.3-0.6s0.5-1,0.5-2c0-0.8-0.2-1.4-0.5-1.8s-0.8-0.6-1.3-0.6c-0.5,0-1,0.2-1.3,0.6
	S412.7,81.5,412.7,82.4z"/>
<path d="M420.4,78.1h4.4c1,0,1.7,0.2,2.2,0.7s0.7,1.1,0.7,2c0,0.9-0.3,1.5-0.8,2s-1.3,0.7-2.4,0.7H423v3.2h-2.7V78.1z M423,81.7h0.7
	c0.5,0,0.9-0.1,1.1-0.3s0.3-0.4,0.3-0.7c0-0.3-0.1-0.5-0.3-0.7s-0.5-0.3-1-0.3H423V81.7z"/>
<path d="M429,78.1h3.5l1.3,5.2l1.3-5.2h3.5v8.6h-2.2v-6.6l-1.7,6.6h-2l-1.7-6.6v6.6H429V78.1z"/>
<path d="M440.4,78.1h7.1v1.8H443v1.4h4.1V83H443v1.7h4.6v1.9h-7.2V78.1z"/>
<path d="M449,78.1h2.5l3.2,4.8v-4.8h2.5v8.6h-2.5l-3.2-4.7v4.7H449V78.1z"/>
<path d="M458.4,78.1h8.1v2.1h-2.7v6.5h-2.7v-6.5h-2.7V78.1z"/>
<path d="M465.7,84.3h2.5v2.4h-2.5V84.3z"/>
<path d="M71.6,92.5h8.1v2.1H77v6.5h-2.7v-6.5h-2.7V92.5z"/>
<path d="M80.9,92.5h2.7v3h2.9v-3h2.7v8.6h-2.7v-3.5h-2.9v3.5h-2.7V92.5z"/>
<path d="M91,92.5h2.7v8.6H91V92.5z"/>
<path d="M95.1,98.2l2.5-0.2c0.1,0.4,0.2,0.7,0.3,0.9c0.3,0.3,0.7,0.5,1.2,0.5c0.4,0,0.7-0.1,0.9-0.3s0.3-0.4,0.3-0.6
	c0-0.2-0.1-0.4-0.3-0.6s-0.6-0.3-1.4-0.5c-1.2-0.3-2-0.6-2.5-1c-0.5-0.4-0.8-1-0.8-1.7c0-0.4,0.1-0.9,0.4-1.3s0.6-0.7,1.2-0.9
	s1.2-0.3,2.1-0.3c1.1,0,1.9,0.2,2.5,0.6s0.9,1.1,1,1.9l-2.5,0.1c-0.1-0.4-0.2-0.7-0.4-0.8s-0.5-0.3-0.9-0.3c-0.3,0-0.5,0.1-0.7,0.2
	s-0.2,0.3-0.2,0.5c0,0.1,0.1,0.3,0.2,0.4c0.1,0.1,0.4,0.2,0.9,0.3c1.2,0.2,2,0.5,2.5,0.8s0.9,0.6,1.1,1s0.3,0.8,0.3,1.3
	c0,0.6-0.2,1.1-0.5,1.5s-0.7,0.8-1.3,1.1s-1.2,0.4-2.1,0.4c-1.5,0-2.5-0.3-3-0.8S95.2,99.1,95.1,98.2z"/>
<path d="M108.2,92.5h2.7v3h2.9v-3h2.7v8.6h-2.7v-3.5h-2.9v3.5h-2.7V92.5z"/>
<path d="M123.5,99.6h-3l-0.4,1.4h-2.7l3.2-8.6h2.9l3.2,8.6h-2.8L123.5,99.6z M123,97.8l-0.9-3.1l-0.9,3.1H123z"/>
<path d="M127.1,98.2l2.5-0.2c0.1,0.4,0.2,0.7,0.3,0.9c0.3,0.3,0.7,0.5,1.2,0.5c0.4,0,0.7-0.1,0.9-0.3s0.3-0.4,0.3-0.6
	c0-0.2-0.1-0.4-0.3-0.6s-0.6-0.3-1.4-0.5c-1.2-0.3-2-0.6-2.5-1c-0.5-0.4-0.8-1-0.8-1.7c0-0.4,0.1-0.9,0.4-1.3s0.6-0.7,1.2-0.9
	s1.2-0.3,2.1-0.3c1.1,0,1.9,0.2,2.5,0.6s0.9,1.1,1,1.9l-2.5,0.1c-0.1-0.4-0.2-0.7-0.4-0.8s-0.5-0.3-0.9-0.3c-0.3,0-0.5,0.1-0.7,0.2
	s-0.2,0.3-0.2,0.5c0,0.1,0.1,0.3,0.2,0.4c0.1,0.1,0.4,0.2,0.9,0.3c1.2,0.2,2,0.5,2.5,0.8s0.9,0.6,1.1,1s0.3,0.8,0.3,1.3
	c0,0.6-0.2,1.1-0.5,1.5s-0.7,0.8-1.3,1.1s-1.2,0.4-2.1,0.4c-1.5,0-2.5-0.3-3-0.8S127.2,99.1,127.1,98.2z"/>
<path d="M140.2,92.5h2.5l3.2,4.8v-4.8h2.5v8.6H146l-3.2-4.7v4.7h-2.5V92.5z"/>
<path d="M149.9,96.8c0-1.4,0.4-2.5,1.2-3.3s1.9-1.2,3.3-1.2c1.4,0,2.5,0.4,3.3,1.2s1.2,1.8,1.2,3.2c0,1-0.2,1.8-0.5,2.5
	s-0.8,1.1-1.5,1.5s-1.4,0.5-2.4,0.5c-1,0-1.8-0.2-2.4-0.5s-1.1-0.8-1.5-1.5S149.9,97.8,149.9,96.8z M152.5,96.8
	c0,0.9,0.2,1.5,0.5,1.9s0.8,0.6,1.3,0.6c0.6,0,1-0.2,1.3-0.6s0.5-1,0.5-2c0-0.8-0.2-1.4-0.5-1.8s-0.8-0.6-1.3-0.6
	c-0.5,0-1,0.2-1.3,0.6S152.5,95.9,152.5,96.8z"/>
<path d="M159.1,92.5h2.5l0.9,4.8l1.3-4.8h2.5l1.3,4.8l0.9-4.8h2.5l-1.9,8.6h-2.6l-1.5-5.4l-1.5,5.4H161L159.1,92.5z"/>
<path d="M176,92.5h5c0.8,0,1.5,0.2,1.9,0.6s0.7,0.9,0.7,1.5c0,0.5-0.2,0.9-0.5,1.3c-0.2,0.2-0.5,0.4-0.9,0.6
	c0.6,0.1,1.1,0.4,1.4,0.8s0.4,0.8,0.4,1.4c0,0.4-0.1,0.8-0.3,1.2s-0.5,0.6-0.8,0.8c-0.2,0.1-0.6,0.2-1,0.3c-0.6,0.1-1,0.1-1.2,0.1
	H176V92.5z M178.7,95.8h1.2c0.4,0,0.7-0.1,0.9-0.2s0.2-0.3,0.2-0.6c0-0.2-0.1-0.4-0.2-0.6s-0.4-0.2-0.8-0.2h-1.2V95.8z M178.7,99.2
	h1.4c0.5,0,0.8-0.1,1-0.2s0.3-0.4,0.3-0.7c0-0.3-0.1-0.5-0.3-0.6s-0.5-0.2-1-0.2h-1.3V99.2z"/>
<path d="M185.4,92.5h2.7v6.5h4.1v2.1h-6.8V92.5z"/>
<path d="M192.8,96.8c0-1.4,0.4-2.5,1.2-3.3s1.9-1.2,3.3-1.2c1.4,0,2.5,0.4,3.3,1.2s1.2,1.8,1.2,3.2c0,1-0.2,1.8-0.5,2.5
	s-0.8,1.1-1.5,1.5s-1.4,0.5-2.4,0.5c-1,0-1.8-0.2-2.4-0.5s-1.1-0.8-1.5-1.5S192.8,97.8,192.8,96.8z M195.5,96.8
	c0,0.9,0.2,1.5,0.5,1.9s0.8,0.6,1.3,0.6c0.6,0,1-0.2,1.3-0.6s0.5-1,0.5-2c0-0.8-0.2-1.4-0.5-1.8s-0.8-0.6-1.3-0.6
	c-0.5,0-1,0.2-1.3,0.6S195.5,95.9,195.5,96.8z"/>
<path d="M202.7,98.2l2.5-0.2c0.1,0.4,0.2,0.7,0.3,0.9c0.3,0.3,0.7,0.5,1.2,0.5c0.4,0,0.7-0.1,0.9-0.3s0.3-0.4,0.3-0.6
	c0-0.2-0.1-0.4-0.3-0.6s-0.6-0.3-1.4-0.5c-1.2-0.3-2-0.6-2.5-1c-0.5-0.4-0.8-1-0.8-1.7c0-0.4,0.1-0.9,0.4-1.3s0.6-0.7,1.2-0.9
	s1.2-0.3,2.1-0.3c1.1,0,1.9,0.2,2.5,0.6s0.9,1.1,1,1.9l-2.5,0.1c-0.1-0.4-0.2-0.7-0.4-0.8s-0.5-0.3-0.9-0.3c-0.3,0-0.5,0.1-0.7,0.2
	s-0.2,0.3-0.2,0.5c0,0.1,0.1,0.3,0.2,0.4c0.1,0.1,0.4,0.2,0.9,0.3c1.2,0.2,2,0.5,2.5,0.8s0.9,0.6,1.1,1s0.3,0.8,0.3,1.3
	c0,0.6-0.2,1.1-0.5,1.5s-0.7,0.8-1.3,1.1s-1.2,0.4-2.1,0.4c-1.5,0-2.5-0.3-3-0.8S202.8,99.1,202.7,98.2z"/>
<path d="M211.4,98.2l2.5-0.2c0.1,0.4,0.2,0.7,0.3,0.9c0.3,0.3,0.7,0.5,1.2,0.5c0.4,0,0.7-0.1,0.9-0.3s0.3-0.4,0.3-0.6
	c0-0.2-0.1-0.4-0.3-0.6s-0.6-0.3-1.4-0.5c-1.2-0.3-2-0.6-2.5-1c-0.5-0.4-0.8-1-0.8-1.7c0-0.4,0.1-0.9,0.4-1.3s0.6-0.7,1.2-0.9
	s1.2-0.3,2.1-0.3c1.1,0,1.9,0.2,2.5,0.6s0.9,1.1,1,1.9l-2.5,0.1c-0.1-0.4-0.2-0.7-0.4-0.8s-0.5-0.3-0.9-0.3c-0.3,0-0.5,0.1-0.7,0.2
	s-0.2,0.3-0.2,0.5c0,0.1,0.1,0.3,0.2,0.4c0.1,0.1,0.4,0.2,0.9,0.3c1.2,0.2,2,0.5,2.5,0.8s0.9,0.6,1.1,1s0.3,0.8,0.3,1.3
	c0,0.6-0.2,1.1-0.5,1.5s-0.7,0.8-1.3,1.1s-1.2,0.4-2.1,0.4c-1.5,0-2.5-0.3-3-0.8S211.4,99.1,211.4,98.2z"/>
<path d="M220.1,96.8c0-1.4,0.4-2.5,1.2-3.3s1.9-1.2,3.3-1.2c1.4,0,2.5,0.4,3.3,1.2s1.2,1.8,1.2,3.2c0,1-0.2,1.8-0.5,2.5
	s-0.8,1.1-1.5,1.5s-1.4,0.5-2.4,0.5c-1,0-1.8-0.2-2.4-0.5s-1.1-0.8-1.5-1.5S220.1,97.8,220.1,96.8z M222.8,96.8
	c0,0.9,0.2,1.5,0.5,1.9s0.8,0.6,1.3,0.6c0.6,0,1-0.2,1.3-0.6s0.5-1,0.5-2c0-0.8-0.2-1.4-0.5-1.8s-0.8-0.6-1.3-0.6
	c-0.5,0-1,0.2-1.3,0.6S222.8,95.9,222.8,96.8z"/>
<path d="M230.4,92.5h3.5l1.3,5.2l1.3-5.2h3.5v8.6h-2.2v-6.6l-1.7,6.6h-2l-1.7-6.6v6.6h-2.2V92.5z"/>
<path d="M241.8,92.5h7.1v1.8h-4.5v1.4h4.1v1.8h-4.1v1.7h4.6v1.9h-7.2V92.5z"/>
<path d="M250.5,92.5h3.9c0.8,0,1.4,0.1,1.9,0.3s0.9,0.5,1.2,0.9s0.5,0.9,0.7,1.4s0.2,1.1,0.2,1.7c0,0.9-0.1,1.6-0.3,2.1
	s-0.5,0.9-0.9,1.3s-0.8,0.6-1.2,0.7c-0.6,0.2-1.1,0.2-1.6,0.2h-3.9V92.5z M253.2,94.4v4.7h0.7c0.6,0,0.9-0.1,1.2-0.2
	s0.4-0.3,0.6-0.6s0.2-0.8,0.2-1.5c0-0.9-0.1-1.5-0.4-1.9s-0.8-0.5-1.5-0.5H253.2z"/>
<path d="M263.9,92.5h2.7v8.6h-2.7V92.5z"/>
<path d="M268.5,92.5h2.5l3.2,4.8v-4.8h2.5v8.6h-2.5l-3.2-4.7v4.7h-2.5V92.5z"/>
<path d="M277.9,92.5h8.1v2.1h-2.7v6.5h-2.7v-6.5h-2.7V92.5z"/>
<path d="M286.4,96.8c0-1.4,0.4-2.5,1.2-3.3s1.9-1.2,3.3-1.2c1.4,0,2.5,0.4,3.3,1.2s1.2,1.8,1.2,3.2c0,1-0.2,1.8-0.5,2.5
	s-0.8,1.1-1.5,1.5s-1.4,0.5-2.4,0.5c-1,0-1.8-0.2-2.4-0.5s-1.1-0.8-1.5-1.5S286.4,97.8,286.4,96.8z M289,96.8c0,0.9,0.2,1.5,0.5,1.9
	s0.8,0.6,1.3,0.6c0.6,0,1-0.2,1.3-0.6s0.5-1,0.5-2c0-0.8-0.2-1.4-0.5-1.8s-0.8-0.6-1.3-0.6c-0.5,0-1,0.2-1.3,0.6S289,95.9,289,96.8z
	"/>
<path d="M306,99.6h-3l-0.4,1.4h-2.7l3.2-8.6h2.9l3.2,8.6h-2.8L306,99.6z M305.5,97.8l-0.9-3.1l-0.9,3.1H305.5z"/>
<path d="M310.1,92.5h2.5l3.2,4.8v-4.8h2.5v8.6h-2.5l-3.2-4.7v4.7h-2.5V92.5z"/>
<path d="M323.7,96.8c0-1.4,0.4-2.5,1.2-3.3s1.9-1.2,3.3-1.2c1.4,0,2.5,0.4,3.3,1.2s1.2,1.8,1.2,3.2c0,1-0.2,1.8-0.5,2.5
	s-0.8,1.1-1.5,1.5s-1.4,0.5-2.4,0.5c-1,0-1.8-0.2-2.4-0.5s-1.1-0.8-1.5-1.5S323.7,97.8,323.7,96.8z M326.4,96.8
	c0,0.9,0.2,1.5,0.5,1.9s0.8,0.6,1.3,0.6c0.6,0,1-0.2,1.3-0.6s0.5-1,0.5-2c0-0.8-0.2-1.4-0.5-1.8s-0.8-0.6-1.3-0.6
	c-0.5,0-1,0.2-1.3,0.6S326.4,95.9,326.4,96.8z"/>
<path d="M334.1,92.5h5c0.8,0,1.5,0.2,1.9,0.6s0.7,0.9,0.7,1.5c0,0.5-0.2,0.9-0.5,1.3c-0.2,0.2-0.5,0.4-0.9,0.6
	c0.6,0.1,1.1,0.4,1.4,0.8s0.4,0.8,0.4,1.4c0,0.4-0.1,0.8-0.3,1.2s-0.5,0.6-0.8,0.8c-0.2,0.1-0.6,0.2-1,0.3c-0.6,0.1-1,0.1-1.2,0.1
	h-4.6V92.5z M336.7,95.8h1.2c0.4,0,0.7-0.1,0.9-0.2s0.2-0.3,0.2-0.6c0-0.2-0.1-0.4-0.2-0.6s-0.4-0.2-0.8-0.2h-1.2V95.8z M336.7,99.2
	h1.4c0.5,0,0.8-0.1,1-0.2s0.3-0.4,0.3-0.7c0-0.3-0.1-0.5-0.3-0.6s-0.5-0.2-1-0.2h-1.3V99.2z"/>
<path d="M342.9,98.2l2.5-0.2c0.1,0.4,0.2,0.7,0.3,0.9c0.3,0.3,0.7,0.5,1.2,0.5c0.4,0,0.7-0.1,0.9-0.3s0.3-0.4,0.3-0.6
	c0-0.2-0.1-0.4-0.3-0.6s-0.6-0.3-1.4-0.5c-1.2-0.3-2-0.6-2.5-1c-0.5-0.4-0.8-1-0.8-1.7c0-0.4,0.1-0.9,0.4-1.3s0.6-0.7,1.2-0.9
	s1.2-0.3,2.1-0.3c1.1,0,1.9,0.2,2.5,0.6s0.9,1.1,1,1.9l-2.5,0.1c-0.1-0.4-0.2-0.7-0.4-0.8s-0.5-0.3-0.9-0.3c-0.3,0-0.5,0.1-0.7,0.2
	s-0.2,0.3-0.2,0.5c0,0.1,0.1,0.3,0.2,0.4c0.1,0.1,0.4,0.2,0.9,0.3c1.2,0.2,2,0.5,2.5,0.8s0.9,0.6,1.1,1s0.3,0.8,0.3,1.3
	c0,0.6-0.2,1.1-0.5,1.5s-0.7,0.8-1.3,1.1s-1.2,0.4-2.1,0.4c-1.5,0-2.5-0.3-3-0.8S343,99.1,342.9,98.2z"/>
<path d="M352,92.5h7.1v1.8h-4.5v1.4h4.1v1.8h-4.1v1.7h4.6v1.9H352V92.5z"/>
<path d="M360.3,98.2l2.5-0.2c0.1,0.4,0.2,0.7,0.3,0.9c0.3,0.3,0.7,0.5,1.2,0.5c0.4,0,0.7-0.1,0.9-0.3s0.3-0.4,0.3-0.6
	c0-0.2-0.1-0.4-0.3-0.6s-0.6-0.3-1.4-0.5c-1.2-0.3-2-0.6-2.5-1c-0.5-0.4-0.8-1-0.8-1.7c0-0.4,0.1-0.9,0.4-1.3s0.6-0.7,1.2-0.9
	s1.2-0.3,2.1-0.3c1.1,0,1.9,0.2,2.5,0.6s0.9,1.1,1,1.9l-2.5,0.1c-0.1-0.4-0.2-0.7-0.4-0.8s-0.5-0.3-0.9-0.3c-0.3,0-0.5,0.1-0.7,0.2
	s-0.2,0.3-0.2,0.5c0,0.1,0.1,0.3,0.2,0.4c0.1,0.1,0.4,0.2,0.9,0.3c1.2,0.2,2,0.5,2.5,0.8s0.9,0.6,1.1,1s0.3,0.8,0.3,1.3
	c0,0.6-0.2,1.1-0.5,1.5s-0.7,0.8-1.3,1.1s-1.2,0.4-2.1,0.4c-1.5,0-2.5-0.3-3-0.8S360.3,99.1,360.3,98.2z"/>
<path d="M368.9,98.2l2.5-0.2c0.1,0.4,0.2,0.7,0.3,0.9c0.3,0.3,0.7,0.5,1.2,0.5c0.4,0,0.7-0.1,0.9-0.3s0.3-0.4,0.3-0.6
	c0-0.2-0.1-0.4-0.3-0.6s-0.6-0.3-1.4-0.5c-1.2-0.3-2-0.6-2.5-1c-0.5-0.4-0.8-1-0.8-1.7c0-0.4,0.1-0.9,0.4-1.3s0.6-0.7,1.2-0.9
	s1.2-0.3,2.1-0.3c1.1,0,1.9,0.2,2.5,0.6s0.9,1.1,1,1.9l-2.5,0.1c-0.1-0.4-0.2-0.7-0.4-0.8s-0.5-0.3-0.9-0.3c-0.3,0-0.5,0.1-0.7,0.2
	s-0.2,0.3-0.2,0.5c0,0.1,0.1,0.3,0.2,0.4c0.1,0.1,0.4,0.2,0.9,0.3c1.2,0.2,2,0.5,2.5,0.8s0.9,0.6,1.1,1s0.3,0.8,0.3,1.3
	c0,0.6-0.2,1.1-0.5,1.5s-0.7,0.8-1.3,1.1s-1.2,0.4-2.1,0.4c-1.5,0-2.5-0.3-3-0.8S369,99.1,368.9,98.2z"/>
<path d="M378.2,92.5h2.7v8.6h-2.7V92.5z"/>
<path d="M382.4,96.8c0-1.4,0.4-2.5,1.2-3.3s1.9-1.2,3.3-1.2c1.4,0,2.5,0.4,3.3,1.2s1.2,1.8,1.2,3.2c0,1-0.2,1.8-0.5,2.5
	s-0.8,1.1-1.5,1.5s-1.4,0.5-2.4,0.5c-1,0-1.8-0.2-2.4-0.5s-1.1-0.8-1.5-1.5S382.4,97.8,382.4,96.8z M385,96.8c0,0.9,0.2,1.5,0.5,1.9
	s0.8,0.6,1.3,0.6c0.6,0,1-0.2,1.3-0.6s0.5-1,0.5-2c0-0.8-0.2-1.4-0.5-1.8s-0.8-0.6-1.3-0.6c-0.5,0-1,0.2-1.3,0.6S385,95.9,385,96.8z
	"/>
<path d="M392.7,92.5h2.5l3.2,4.8v-4.8h2.5v8.6h-2.5l-3.2-4.7v4.7h-2.5V92.5z"/>
<path d="M402.6,98.7h2.5v2.4h-2.5V98.7z"/>
<path d="M9.2,121.3h2.7v8.6H9.2V121.3z"/>
<path d="M17.4,121.3h2.7v3H23v-3h2.7v8.6H23v-3.5h-2.9v3.5h-2.7V121.3z"/>
<path d="M32.7,128.4h-3l-0.4,1.4h-2.7l3.2-8.6h2.9l3.2,8.6h-2.8L32.7,128.4z M32.1,126.6l-0.9-3.1l-0.9,3.1H32.1z"/>
<path d="M35.2,121.3H38l1.9,6.2l1.9-6.2h2.7l-3.2,8.6h-2.9L35.2,121.3z"/>
<path d="M45.4,121.3h7.1v1.8h-4.5v1.4h4.1v1.8h-4.1v1.7h4.6v1.9h-7.2V121.3z"/>
<path d="M63,128.4h-3l-0.4,1.4h-2.7l3.2-8.6H63l3.2,8.6h-2.8L63,128.4z M62.5,126.6l-0.9-3.1l-0.9,3.1H62.5z"/>
<path d="M70.7,121.3h3.5l1.3,5.2l1.3-5.2h3.5v8.6h-2.2v-6.6l-1.7,6.6h-2l-1.7-6.6v6.6h-2.2V121.3z"/>
<path d="M82,121.3h7.1v1.8h-4.5v1.4h4.1v1.8h-4.1v1.7h4.6v1.9H82V121.3z"/>
<path d="M90.7,121.3h3.9c0.8,0,1.4,0.1,1.9,0.3s0.9,0.5,1.2,0.9s0.5,0.9,0.7,1.4s0.2,1.1,0.2,1.7c0,0.9-0.1,1.6-0.3,2.1
	s-0.5,0.9-0.9,1.3s-0.8,0.6-1.2,0.7c-0.6,0.2-1.1,0.2-1.6,0.2h-3.9V121.3z M93.4,123.2v4.7H94c0.6,0,0.9-0.1,1.2-0.2
	s0.4-0.3,0.6-0.6s0.2-0.8,0.2-1.5c0-0.9-0.1-1.5-0.4-1.9s-0.8-0.5-1.5-0.5H93.4z"/>
<path d="M100.1,121.3h2.7v8.6h-2.7V121.3z"/>
<path d="M110,128.4h-3l-0.4,1.4h-2.7l3.2-8.6h2.9l3.2,8.6h-2.8L110,128.4z M109.4,126.6l-0.9-3.1l-0.9,3.1H109.4z"/>
<path d="M123,128.4h-3l-0.4,1.4h-2.7l3.2-8.6h2.9l3.2,8.6h-2.8L123,128.4z M122.4,126.6l-0.9-3.1l-0.9,3.1H122.4z"/>
<path d="M127,121.3h2.5l3.2,4.8v-4.8h2.5v8.6h-2.5l-3.2-4.7v4.7H127V121.3z"/>
<path d="M137,121.3h3.9c0.8,0,1.4,0.1,1.9,0.3s0.9,0.5,1.2,0.9s0.5,0.9,0.7,1.4s0.2,1.1,0.2,1.7c0,0.9-0.1,1.6-0.3,2.1
	s-0.5,0.9-0.9,1.3s-0.8,0.6-1.2,0.7c-0.6,0.2-1.1,0.2-1.6,0.2H137V121.3z M139.7,123.2v4.7h0.7c0.6,0,0.9-0.1,1.2-0.2
	s0.4-0.3,0.6-0.6s0.2-0.8,0.2-1.5c0-0.9-0.1-1.5-0.4-1.9s-0.8-0.5-1.5-0.5H139.7z"/>
<path d="M155.7,126.3l2.3,0.7c-0.2,0.7-0.4,1.2-0.7,1.6s-0.8,0.8-1.3,1s-1.1,0.3-1.9,0.3c-0.9,0-1.7-0.1-2.3-0.4
	c-0.6-0.3-1.1-0.7-1.5-1.4s-0.6-1.6-0.6-2.6c0-1.4,0.4-2.5,1.1-3.3s1.8-1.1,3.2-1.1c1.1,0,1.9,0.2,2.6,0.7s1.1,1.1,1.4,2l-2.3,0.5
	c-0.1-0.3-0.2-0.5-0.3-0.6c-0.1-0.2-0.3-0.4-0.5-0.5s-0.5-0.2-0.7-0.2c-0.6,0-1.1,0.2-1.4,0.7c-0.2,0.4-0.4,0.9-0.4,1.7
	c0,1,0.1,1.6,0.4,2s0.7,0.5,1.2,0.5c0.5,0,0.9-0.1,1.2-0.4S155.6,126.9,155.7,126.3z"/>
<path d="M159,125.6c0-1.4,0.4-2.5,1.2-3.3s1.9-1.2,3.3-1.2c1.4,0,2.5,0.4,3.3,1.2s1.2,1.8,1.2,3.2c0,1-0.2,1.8-0.5,2.5
	s-0.8,1.1-1.5,1.5s-1.4,0.5-2.4,0.5c-1,0-1.8-0.2-2.4-0.5s-1.1-0.8-1.5-1.5S159,126.6,159,125.6z M161.6,125.6
	c0,0.9,0.2,1.5,0.5,1.9s0.8,0.6,1.3,0.6c0.6,0,1-0.2,1.3-0.6s0.5-1,0.5-2c0-0.8-0.2-1.4-0.5-1.8s-0.8-0.6-1.3-0.6
	c-0.5,0-1,0.2-1.3,0.6S161.6,124.7,161.6,125.6z"/>
<path d="M169.3,121.3h3.5l1.3,5.2l1.3-5.2h3.5v8.6h-2.2v-6.6l-1.7,6.6h-2l-1.7-6.6v6.6h-2.2V121.3z"/>
<path d="M180.6,121.3h3.5l1.3,5.2l1.3-5.2h3.5v8.6h-2.2v-6.6l-1.7,6.6h-2l-1.7-6.6v6.6h-2.2V121.3z"/>
<path d="M197.6,121.3h2.6v5.1c0,0.5-0.1,1-0.2,1.4s-0.4,0.8-0.7,1.2c-0.3,0.3-0.7,0.6-1.1,0.7c-0.5,0.2-1.1,0.3-1.9,0.3
	c-0.4,0-0.9,0-1.4-0.1s-0.9-0.2-1.2-0.3c-0.3-0.2-0.6-0.4-0.9-0.7s-0.5-0.6-0.6-1c-0.2-0.5-0.2-1-0.2-1.5v-5.1h2.6v5.2
	c0,0.5,0.1,0.8,0.4,1.1c0.3,0.3,0.6,0.4,1.1,0.4c0.5,0,0.8-0.1,1.1-0.4c0.3-0.3,0.4-0.6,0.4-1.1V121.3z"/>
<path d="M202,121.3h2.5l3.2,4.8v-4.8h2.5v8.6h-2.5l-3.2-4.7v4.7H202V121.3z"/>
<path d="M212.1,121.3h2.7v8.6h-2.7V121.3z"/>
<path d="M222.4,126.3l2.3,0.7c-0.2,0.7-0.4,1.2-0.7,1.6s-0.8,0.8-1.3,1s-1.1,0.3-1.9,0.3c-0.9,0-1.7-0.1-2.3-0.4
	c-0.6-0.3-1.1-0.7-1.5-1.4s-0.6-1.6-0.6-2.6c0-1.4,0.4-2.5,1.1-3.3s1.8-1.1,3.2-1.1c1.1,0,1.9,0.2,2.6,0.7s1.1,1.1,1.4,2l-2.3,0.5
	c-0.1-0.3-0.2-0.5-0.3-0.6c-0.1-0.2-0.3-0.4-0.5-0.5s-0.5-0.2-0.7-0.2c-0.6,0-1.1,0.2-1.4,0.7c-0.2,0.4-0.4,0.9-0.4,1.7
	c0,1,0.1,1.6,0.4,2s0.7,0.5,1.2,0.5c0.5,0,0.9-0.1,1.2-0.4S222.2,126.9,222.4,126.3z"/>
<path d="M231.3,128.4h-3l-0.4,1.4h-2.7l3.2-8.6h2.9l3.2,8.6h-2.8L231.3,128.4z M230.7,126.6l-0.9-3.1l-0.9,3.1H230.7z"/>
<path d="M233.9,121.3h8.1v2.1h-2.7v6.5h-2.7v-6.5h-2.7V121.3z"/>
<path d="M243.2,121.3h2.7v8.6h-2.7V121.3z"/>
<path d="M247.5,125.6c0-1.4,0.4-2.5,1.2-3.3s1.9-1.2,3.3-1.2c1.4,0,2.5,0.4,3.3,1.2s1.2,1.8,1.2,3.2c0,1-0.2,1.8-0.5,2.5
	s-0.8,1.1-1.5,1.5S253,130,252,130c-1,0-1.8-0.2-2.4-0.5s-1.1-0.8-1.5-1.5S247.5,126.6,247.5,125.6z M250.1,125.6
	c0,0.9,0.2,1.5,0.5,1.9s0.8,0.6,1.3,0.6c0.6,0,1-0.2,1.3-0.6s0.5-1,0.5-2c0-0.8-0.2-1.4-0.5-1.8s-0.8-0.6-1.3-0.6
	c-0.5,0-1,0.2-1.3,0.6S250.1,124.7,250.1,125.6z"/>
<path d="M257.8,121.3h2.5l3.2,4.8v-4.8h2.5v8.6h-2.5l-3.2-4.7v4.7h-2.5V121.3z"/>
<path d="M267.3,127l2.5-0.2c0.1,0.4,0.2,0.7,0.3,0.9c0.3,0.3,0.7,0.5,1.2,0.5c0.4,0,0.7-0.1,0.9-0.3s0.3-0.4,0.3-0.6
	c0-0.2-0.1-0.4-0.3-0.6s-0.6-0.3-1.4-0.5c-1.2-0.3-2-0.6-2.5-1c-0.5-0.4-0.8-1-0.8-1.7c0-0.4,0.1-0.9,0.4-1.3s0.6-0.7,1.2-0.9
	s1.2-0.3,2.1-0.3c1.1,0,1.9,0.2,2.5,0.6c0.6,0.4,0.9,1.1,1,1.9l-2.5,0.1c-0.1-0.4-0.2-0.7-0.4-0.8s-0.5-0.3-0.9-0.3
	c-0.3,0-0.5,0.1-0.7,0.2s-0.2,0.3-0.2,0.5c0,0.1,0.1,0.3,0.2,0.4c0.1,0.1,0.4,0.2,0.9,0.3c1.2,0.2,2,0.5,2.5,0.8
	c0.5,0.3,0.9,0.6,1.1,1s0.3,0.8,0.3,1.3c0,0.6-0.2,1.1-0.5,1.5s-0.7,0.8-1.3,1.1s-1.2,0.4-2.1,0.4c-1.5,0-2.5-0.3-3-0.8
	S267.4,127.9,267.3,127z"/>
<path d="M280.2,121.3h3.9c0.8,0,1.4,0.1,1.9,0.3s0.9,0.5,1.2,0.9s0.5,0.9,0.7,1.4s0.2,1.1,0.2,1.7c0,0.9-0.1,1.6-0.3,2.1
	s-0.5,0.9-0.9,1.3s-0.8,0.6-1.2,0.7c-0.6,0.2-1.1,0.2-1.6,0.2h-3.9V121.3z M282.8,123.2v4.7h0.7c0.6,0,0.9-0.1,1.2-0.2
	s0.4-0.3,0.6-0.6s0.2-0.8,0.2-1.5c0-0.9-0.1-1.5-0.4-1.9s-0.8-0.5-1.5-0.5H282.8z"/>
<path d="M289.4,121.3h7.1v1.8h-4.5v1.4h4.1v1.8h-4.1v1.7h4.6v1.9h-7.2V121.3z"/>
<path d="M302.4,126.7v-1.8h4.1v3.7c-0.8,0.5-1.5,0.9-2.1,1.1s-1.3,0.3-2.1,0.3c-1,0-1.9-0.2-2.5-0.5s-1.1-0.9-1.5-1.6
	s-0.5-1.5-0.5-2.4c0-0.9,0.2-1.8,0.6-2.4s1-1.2,1.7-1.6c0.6-0.3,1.4-0.4,2.3-0.4c0.9,0,1.7,0.1,2.1,0.3s0.9,0.4,1.2,0.8
	s0.5,0.8,0.7,1.4l-2.6,0.5c-0.1-0.3-0.3-0.6-0.5-0.7s-0.6-0.3-1-0.3c-0.6,0-1,0.2-1.4,0.6s-0.5,1-0.5,1.9c0,0.9,0.2,1.6,0.5,2
	s0.8,0.6,1.5,0.6c0.3,0,0.6,0,0.8-0.1s0.6-0.2,0.9-0.4v-0.8H302.4z"/>
<path d="M308.2,129.8v-8.6h4.4c0.8,0,1.4,0.1,1.9,0.2s0.8,0.4,1,0.8s0.4,0.8,0.4,1.4c0,0.5-0.1,0.9-0.3,1.2s-0.5,0.6-0.8,0.8
	c-0.2,0.1-0.5,0.2-0.9,0.3c0.3,0.1,0.5,0.2,0.7,0.3c0.1,0.1,0.2,0.2,0.4,0.5s0.3,0.4,0.4,0.5l1.3,2.5h-3l-1.4-2.6
	c-0.2-0.3-0.3-0.6-0.5-0.7c-0.2-0.1-0.4-0.2-0.7-0.2h-0.2v3.5H308.2z M310.8,124.7h1.1c0.1,0,0.4,0,0.7-0.1c0.2,0,0.3-0.1,0.4-0.3
	s0.2-0.3,0.2-0.5c0-0.3-0.1-0.5-0.3-0.6s-0.5-0.2-1-0.2h-1.2V124.7z"/>
<path d="M317.4,121.3h7.1v1.8h-4.5v1.4h4.1v1.8h-4.1v1.7h4.6v1.9h-7.2V121.3z"/>
<path d="M326.1,121.3h7.1v1.8h-4.5v1.4h4.1v1.8h-4.1v1.7h4.6v1.9h-7.2V121.3z"/>
<path d="M338.4,121.3h6.6v1.8h-3.9v1.5h3.3v1.7h-3.3v3.5h-2.7V121.3z"/>
<path d="M346.5,129.8v-8.6h4.4c0.8,0,1.4,0.1,1.9,0.2s0.8,0.4,1,0.8s0.4,0.8,0.4,1.4c0,0.5-0.1,0.9-0.3,1.2s-0.5,0.6-0.8,0.8
	c-0.2,0.1-0.5,0.2-0.9,0.3c0.3,0.1,0.5,0.2,0.7,0.3c0.1,0.1,0.2,0.2,0.4,0.5s0.3,0.4,0.4,0.5l1.3,2.5h-3l-1.4-2.6
	c-0.2-0.3-0.3-0.6-0.5-0.7c-0.2-0.1-0.4-0.2-0.7-0.2h-0.2v3.5H346.5z M349.1,124.7h1.1c0.1,0,0.4,0,0.7-0.1c0.2,0,0.3-0.1,0.4-0.3
	s0.2-0.3,0.2-0.5c0-0.3-0.1-0.5-0.3-0.6s-0.5-0.2-1-0.2h-1.2V124.7z"/>
<path d="M355.2,125.6c0-1.4,0.4-2.5,1.2-3.3s1.9-1.2,3.3-1.2c1.4,0,2.5,0.4,3.3,1.2s1.2,1.8,1.2,3.2c0,1-0.2,1.8-0.5,2.5
	s-0.8,1.1-1.5,1.5s-1.4,0.5-2.4,0.5c-1,0-1.8-0.2-2.4-0.5s-1.1-0.8-1.5-1.5S355.2,126.6,355.2,125.6z M357.9,125.6
	c0,0.9,0.2,1.5,0.5,1.9s0.8,0.6,1.3,0.6c0.6,0,1-0.2,1.3-0.6s0.5-1,0.5-2c0-0.8-0.2-1.4-0.5-1.8s-0.8-0.6-1.3-0.6
	c-0.5,0-1,0.2-1.3,0.6S357.9,124.7,357.9,125.6z"/>
<path d="M365.5,121.3h3.5l1.3,5.2l1.3-5.2h3.5v8.6H373v-6.6l-1.7,6.6h-2l-1.7-6.6v6.6h-2.2V121.3z"/>
<path d="M384.9,126.7v-1.8h4.1v3.7c-0.8,0.5-1.5,0.9-2.1,1.1s-1.3,0.3-2.1,0.3c-1,0-1.9-0.2-2.5-0.5s-1.1-0.9-1.5-1.6
	s-0.5-1.5-0.5-2.4c0-0.9,0.2-1.8,0.6-2.4s1-1.2,1.7-1.6c0.6-0.3,1.4-0.4,2.3-0.4c0.9,0,1.7,0.1,2.1,0.3s0.9,0.4,1.2,0.8
	s0.5,0.8,0.7,1.4l-2.6,0.5c-0.1-0.3-0.3-0.6-0.5-0.7s-0.6-0.3-1-0.3c-0.6,0-1,0.2-1.4,0.6s-0.5,1-0.5,1.9c0,0.9,0.2,1.6,0.5,2
	s0.8,0.6,1.5,0.6c0.3,0,0.6,0,0.8-0.1s0.6-0.2,0.9-0.4v-0.8H384.9z"/>
<path d="M390.2,125.6c0-1.4,0.4-2.5,1.2-3.3s1.9-1.2,3.3-1.2c1.4,0,2.5,0.4,3.3,1.2s1.2,1.8,1.2,3.2c0,1-0.2,1.8-0.5,2.5
	s-0.8,1.1-1.5,1.5s-1.4,0.5-2.4,0.5c-1,0-1.8-0.2-2.4-0.5s-1.1-0.8-1.5-1.5S390.2,126.6,390.2,125.6z M392.8,125.6
	c0,0.9,0.2,1.5,0.5,1.9s0.8,0.6,1.3,0.6c0.6,0,1-0.2,1.3-0.6s0.5-1,0.5-2c0-0.8-0.2-1.4-0.5-1.8s-0.8-0.6-1.3-0.6
	c-0.5,0-1,0.2-1.3,0.6S392.8,124.7,392.8,125.6z"/>
<path d="M400.5,121.3h2.7v6.5h4.1v2.1h-6.8V121.3z"/>
<path d="M408.6,121.3h3.9c0.8,0,1.4,0.1,1.9,0.3s0.9,0.5,1.2,0.9s0.5,0.9,0.7,1.4s0.2,1.1,0.2,1.7c0,0.9-0.1,1.6-0.3,2.1
	s-0.5,0.9-0.9,1.3s-0.8,0.6-1.2,0.7c-0.6,0.2-1.1,0.2-1.6,0.2h-3.9V121.3z M411.2,123.2v4.7h0.7c0.6,0,0.9-0.1,1.2-0.2
	s0.4-0.3,0.6-0.6s0.2-0.8,0.2-1.5c0-0.9-0.1-1.5-0.4-1.9s-0.8-0.5-1.5-0.5H411.2z"/>
<path d="M417.4,127l2.5-0.2c0.1,0.4,0.2,0.7,0.3,0.9c0.3,0.3,0.7,0.5,1.2,0.5c0.4,0,0.7-0.1,0.9-0.3s0.3-0.4,0.3-0.6
	c0-0.2-0.1-0.4-0.3-0.6s-0.6-0.3-1.4-0.5c-1.2-0.3-2-0.6-2.5-1c-0.5-0.4-0.8-1-0.8-1.7c0-0.4,0.1-0.9,0.4-1.3s0.6-0.7,1.2-0.9
	s1.2-0.3,2.1-0.3c1.1,0,1.9,0.2,2.5,0.6s0.9,1.1,1,1.9l-2.5,0.1c-0.1-0.4-0.2-0.7-0.4-0.8s-0.5-0.3-0.9-0.3c-0.3,0-0.5,0.1-0.7,0.2
	s-0.2,0.3-0.2,0.5c0,0.1,0.1,0.3,0.2,0.4c0.1,0.1,0.4,0.2,0.9,0.3c1.2,0.2,2,0.5,2.5,0.8s0.9,0.6,1.1,1s0.3,0.8,0.3,1.3
	c0,0.6-0.2,1.1-0.5,1.5s-0.7,0.8-1.3,1.1s-1.2,0.4-2.1,0.4c-1.5,0-2.5-0.3-3-0.8S417.5,127.9,417.4,127z"/>
<path d="M426.5,121.3h3.5l1.3,5.2l1.3-5.2h3.5v8.6H434v-6.6l-1.7,6.6h-2l-1.7-6.6v6.6h-2.2V121.3z"/>
<path d="M438,121.3h2.7v8.6H438V121.3z"/>
<path d="M441.9,121.3h8.1v2.1h-2.7v6.5h-2.7v-6.5h-2.7V121.3z"/>
<path d="M451.2,121.3h2.7v3h2.9v-3h2.7v8.6h-2.7v-3.5h-2.9v3.5h-2.7V121.3z"/>
<path d="M460.7,127l2.5-0.2c0.1,0.4,0.2,0.7,0.3,0.9c0.3,0.3,0.7,0.5,1.2,0.5c0.4,0,0.7-0.1,0.9-0.3s0.3-0.4,0.3-0.6
	c0-0.2-0.1-0.4-0.3-0.6s-0.6-0.3-1.4-0.5c-1.2-0.3-2-0.6-2.5-1c-0.5-0.4-0.8-1-0.8-1.7c0-0.4,0.1-0.9,0.4-1.3s0.6-0.7,1.2-0.9
	s1.2-0.3,2.1-0.3c1.1,0,1.9,0.2,2.5,0.6s0.9,1.1,1,1.9l-2.5,0.1c-0.1-0.4-0.2-0.7-0.4-0.8s-0.5-0.3-0.9-0.3c-0.3,0-0.5,0.1-0.7,0.2
	s-0.2,0.3-0.2,0.5c0,0.1,0.1,0.3,0.2,0.4c0.1,0.1,0.4,0.2,0.9,0.3c1.2,0.2,2,0.5,2.5,0.8s0.9,0.6,1.1,1s0.3,0.8,0.3,1.3
	c0,0.6-0.2,1.1-0.5,1.5s-0.7,0.8-1.3,1.1s-1.2,0.4-2.1,0.4c-1.5,0-2.5-0.3-3-0.8S460.8,127.9,460.7,127z"/>
<path d="M14.8,140.7l2.3,0.7c-0.2,0.7-0.4,1.2-0.7,1.6s-0.8,0.8-1.3,1s-1.1,0.3-1.9,0.3c-0.9,0-1.7-0.1-2.3-0.4s-1.1-0.7-1.5-1.4
	c-0.4-0.7-0.6-1.6-0.6-2.6c0-1.4,0.4-2.5,1.1-3.3c0.8-0.8,1.8-1.1,3.2-1.1c1.1,0,1.9,0.2,2.6,0.7s1.1,1.1,1.4,2l-2.3,0.5
	c-0.1-0.3-0.2-0.5-0.3-0.6c-0.1-0.2-0.3-0.4-0.5-0.5s-0.5-0.2-0.7-0.2c-0.6,0-1.1,0.2-1.4,0.7c-0.2,0.4-0.4,0.9-0.4,1.7
	c0,1,0.1,1.6,0.4,2c0.3,0.4,0.7,0.5,1.2,0.5c0.5,0,0.9-0.1,1.2-0.4S14.7,141.3,14.8,140.7z"/>
<path d="M18.1,140c0-1.4,0.4-2.5,1.2-3.3s1.9-1.2,3.3-1.2c1.4,0,2.5,0.4,3.3,1.2s1.2,1.8,1.2,3.2c0,1-0.2,1.8-0.5,2.5
	s-0.8,1.1-1.5,1.5s-1.4,0.5-2.4,0.5c-1,0-1.8-0.2-2.4-0.5s-1.1-0.8-1.5-1.5S18.1,141,18.1,140z M20.7,140c0,0.9,0.2,1.5,0.5,1.9
	s0.8,0.6,1.3,0.6c0.6,0,1-0.2,1.3-0.6s0.5-1,0.5-2c0-0.8-0.2-1.4-0.5-1.8s-0.8-0.6-1.3-0.6c-0.5,0-1,0.2-1.3,0.6
	S20.7,139.1,20.7,140z"/>
<path d="M28.4,135.7h2.7v6.5h4.1v2.1h-6.8V135.7z"/>
<path d="M36.4,135.7h2.7v6.5h4.1v2.1h-6.8V135.7z"/>
<path d="M44.4,135.7h7.1v1.8h-4.5v1.4h4.1v1.8h-4.1v1.7h4.6v1.9h-7.2V135.7z"/>
<path d="M57.4,141.1v-1.8h4.1v3.7c-0.8,0.5-1.5,0.9-2.1,1.1s-1.3,0.3-2.1,0.3c-1,0-1.9-0.2-2.5-0.5s-1.1-0.9-1.5-1.6
	s-0.5-1.5-0.5-2.4c0-0.9,0.2-1.8,0.6-2.4s1-1.2,1.7-1.6c0.6-0.3,1.4-0.4,2.3-0.4c0.9,0,1.7,0.1,2.1,0.3s0.9,0.4,1.2,0.8
	s0.5,0.8,0.7,1.4l-2.6,0.5c-0.1-0.3-0.3-0.6-0.5-0.7s-0.6-0.3-1-0.3c-0.6,0-1,0.2-1.4,0.6s-0.5,1-0.5,1.9c0,0.9,0.2,1.6,0.5,2
	s0.8,0.6,1.5,0.6c0.3,0,0.6,0,0.8-0.1s0.6-0.2,0.9-0.4v-0.8H57.4z"/>
<path d="M63.1,135.7h7.1v1.8h-4.5v1.4h4.1v1.8h-4.1v1.7h4.6v1.9h-7.2V135.7z"/>
<path d="M81.4,142.8h-3l-0.4,1.4h-2.7l3.2-8.6h2.9l3.2,8.6h-2.8L81.4,142.8z M80.9,141l-0.9-3.1L79,141H80.9z"/>
<path d="M85.5,135.7H88l3.2,4.8v-4.8h2.5v8.6h-2.5l-3.2-4.7v4.7h-2.5V135.7z"/>
<path d="M95.5,135.7h3.9c0.8,0,1.4,0.1,1.9,0.3s0.9,0.5,1.2,0.9s0.5,0.9,0.7,1.4s0.2,1.1,0.2,1.7c0,0.9-0.1,1.6-0.3,2.1
	s-0.5,0.9-0.9,1.3s-0.8,0.6-1.2,0.7c-0.6,0.2-1.1,0.2-1.6,0.2h-3.9V135.7z M98.1,137.6v4.7h0.7c0.6,0,0.9-0.1,1.2-0.2
	s0.4-0.3,0.6-0.6s0.2-0.8,0.2-1.5c0-0.9-0.1-1.5-0.4-1.9s-0.8-0.5-1.5-0.5H98.1z"/>
<path d="M109.2,135.7h5c0.8,0,1.5,0.2,1.9,0.6s0.7,0.9,0.7,1.5c0,0.5-0.2,0.9-0.5,1.3c-0.2,0.2-0.5,0.4-0.9,0.6
	c0.6,0.1,1.1,0.4,1.4,0.8s0.4,0.8,0.4,1.4c0,0.4-0.1,0.8-0.3,1.2s-0.5,0.6-0.8,0.8c-0.2,0.1-0.6,0.2-1,0.3c-0.6,0.1-1,0.1-1.2,0.1
	h-4.6V135.7z M111.9,139h1.2c0.4,0,0.7-0.1,0.9-0.2s0.2-0.3,0.2-0.6c0-0.2-0.1-0.4-0.2-0.6s-0.4-0.2-0.8-0.2h-1.2V139z M111.9,142.4
	h1.4c0.5,0,0.8-0.1,1-0.2s0.3-0.4,0.3-0.7c0-0.3-0.1-0.5-0.3-0.6s-0.5-0.2-1-0.2h-1.3V142.4z"/>
<path d="M118.5,135.7h7.1v1.8h-4.5v1.4h4.1v1.8h-4.1v1.7h4.6v1.9h-7.2V135.7z"/>
<path d="M127.2,135.7h6.6v1.8h-3.9v1.5h3.3v1.7h-3.3v3.5h-2.7V135.7z"/>
<path d="M134.8,140c0-1.4,0.4-2.5,1.2-3.3s1.9-1.2,3.3-1.2c1.4,0,2.5,0.4,3.3,1.2s1.2,1.8,1.2,3.2c0,1-0.2,1.8-0.5,2.5
	s-0.8,1.1-1.5,1.5s-1.4,0.5-2.4,0.5c-1,0-1.8-0.2-2.4-0.5s-1.1-0.8-1.5-1.5S134.8,141,134.8,140z M137.5,140c0,0.9,0.2,1.5,0.5,1.9
	s0.8,0.6,1.3,0.6c0.6,0,1-0.2,1.3-0.6s0.5-1,0.5-2c0-0.8-0.2-1.4-0.5-1.8s-0.8-0.6-1.3-0.6c-0.5,0-1,0.2-1.3,0.6
	S137.5,139.1,137.5,140z"/>
<path d="M145.2,144.2v-8.6h4.4c0.8,0,1.4,0.1,1.9,0.2s0.8,0.4,1,0.8s0.4,0.8,0.4,1.4c0,0.5-0.1,0.9-0.3,1.2s-0.5,0.6-0.8,0.8
	c-0.2,0.1-0.5,0.2-0.9,0.3c0.3,0.1,0.5,0.2,0.7,0.3c0.1,0.1,0.2,0.2,0.4,0.5s0.3,0.4,0.4,0.5l1.3,2.5h-3l-1.4-2.6
	c-0.2-0.3-0.3-0.6-0.5-0.7c-0.2-0.1-0.4-0.2-0.7-0.2h-0.2v3.5H145.2z M147.9,139.1h1.1c0.1,0,0.4,0,0.7-0.1c0.2,0,0.3-0.1,0.4-0.3
	s0.2-0.3,0.2-0.5c0-0.3-0.1-0.5-0.3-0.6s-0.5-0.2-1-0.2h-1.2V139.1z"/>
<path d="M154.5,135.7h7.1v1.8h-4.5v1.4h4.1v1.8h-4.1v1.7h4.6v1.9h-7.2V135.7z"/>
<path d="M167.6,135.7h5c0.8,0,1.5,0.2,1.9,0.6s0.7,0.9,0.7,1.5c0,0.5-0.2,0.9-0.5,1.3c-0.2,0.2-0.5,0.4-0.9,0.6
	c0.6,0.1,1.1,0.4,1.4,0.8s0.4,0.8,0.4,1.4c0,0.4-0.1,0.8-0.3,1.2s-0.5,0.6-0.8,0.8c-0.2,0.1-0.6,0.2-1,0.3c-0.6,0.1-1,0.1-1.2,0.1
	h-4.6V135.7z M170.2,139h1.2c0.4,0,0.7-0.1,0.9-0.2s0.2-0.3,0.2-0.6c0-0.2-0.1-0.4-0.2-0.6s-0.4-0.2-0.8-0.2h-1.2V139z M170.2,142.4
	h1.4c0.5,0,0.8-0.1,1-0.2s0.3-0.4,0.3-0.7c0-0.3-0.1-0.5-0.3-0.6s-0.5-0.2-1-0.2h-1.3V142.4z"/>
<path d="M176.9,135.7h7.1v1.8h-4.5v1.4h4.1v1.8h-4.1v1.7h4.6v1.9h-7.2V135.7z"/>
<path d="M189.9,141.1v-1.8h4.1v3.7c-0.8,0.5-1.5,0.9-2.1,1.1s-1.3,0.3-2.1,0.3c-1,0-1.9-0.2-2.5-0.5s-1.1-0.9-1.5-1.6
	s-0.5-1.5-0.5-2.4c0-0.9,0.2-1.8,0.6-2.4s1-1.2,1.7-1.6c0.6-0.3,1.4-0.4,2.3-0.4c0.9,0,1.7,0.1,2.1,0.3s0.9,0.4,1.2,0.8
	s0.5,0.8,0.7,1.4l-2.6,0.5c-0.1-0.3-0.3-0.6-0.5-0.7s-0.6-0.3-1-0.3c-0.6,0-1,0.2-1.4,0.6s-0.5,1-0.5,1.9c0,0.9,0.2,1.6,0.5,2
	s0.8,0.6,1.5,0.6c0.3,0,0.6,0,0.8-0.1s0.6-0.2,0.9-0.4v-0.8H189.9z"/>
<path d="M195.6,135.7h2.7v8.6h-2.7V135.7z"/>
<path d="M200.2,135.7h2.5l3.2,4.8v-4.8h2.5v8.6h-2.5l-3.2-4.7v4.7h-2.5V135.7z"/>
<path d="M210.2,135.7h2.5l3.2,4.8v-4.8h2.5v8.6h-2.5l-3.2-4.7v4.7h-2.5V135.7z"/>
<path d="M220.3,135.7h2.7v8.6h-2.7V135.7z"/>
<path d="M224.9,135.7h2.5l3.2,4.8v-4.8h2.5v8.6h-2.5l-3.2-4.7v4.7h-2.5V135.7z"/>
<path d="M239.2,141.1v-1.8h4.1v3.7c-0.8,0.5-1.5,0.9-2.1,1.1s-1.3,0.3-2.1,0.3c-1,0-1.9-0.2-2.5-0.5s-1.1-0.9-1.5-1.6
	s-0.5-1.5-0.5-2.4c0-0.9,0.2-1.8,0.6-2.4s1-1.2,1.7-1.6c0.6-0.3,1.4-0.4,2.3-0.4c0.9,0,1.7,0.1,2.1,0.3s0.9,0.4,1.2,0.8
	s0.5,0.8,0.7,1.4l-2.6,0.5c-0.1-0.3-0.3-0.6-0.5-0.7s-0.6-0.3-1-0.3c-0.6,0-1,0.2-1.4,0.6s-0.5,1-0.5,1.9c0,0.9,0.2,1.6,0.5,2
	s0.8,0.6,1.5,0.6c0.3,0,0.6,0,0.8-0.1s0.6-0.2,0.9-0.4v-0.8H239.2z"/>
<path d="M249.2,135.7h3.5l1.3,5.2l1.3-5.2h3.5v8.6h-2.2v-6.6l-1.7,6.6h-2l-1.7-6.6v6.6h-2.2V135.7z"/>
<path d="M259.7,135.7h2.9l1.7,2.9l1.7-2.9h2.9l-3.3,5v3.6H263v-3.6L259.7,135.7z"/>
<path d="M280,140.7l2.3,0.7c-0.2,0.7-0.4,1.2-0.7,1.6s-0.8,0.8-1.3,1s-1.1,0.3-1.9,0.3c-0.9,0-1.7-0.1-2.3-0.4s-1.1-0.7-1.5-1.4
	c-0.4-0.7-0.6-1.6-0.6-2.6c0-1.4,0.4-2.5,1.1-3.3c0.8-0.8,1.8-1.1,3.2-1.1c1.1,0,1.9,0.2,2.6,0.7s1.1,1.1,1.4,2l-2.3,0.5
	c-0.1-0.3-0.2-0.5-0.3-0.6c-0.1-0.2-0.3-0.4-0.5-0.5s-0.5-0.2-0.7-0.2c-0.6,0-1.1,0.2-1.4,0.7c-0.2,0.4-0.4,0.9-0.4,1.7
	c0,1,0.1,1.6,0.4,2c0.3,0.4,0.7,0.5,1.2,0.5c0.5,0,0.9-0.1,1.2-0.4S279.9,141.3,280,140.7z"/>
<path d="M283.3,140c0-1.4,0.4-2.5,1.2-3.3s1.9-1.2,3.3-1.2c1.4,0,2.5,0.4,3.3,1.2s1.2,1.8,1.2,3.2c0,1-0.2,1.8-0.5,2.5
	s-0.8,1.1-1.5,1.5s-1.4,0.5-2.4,0.5c-1,0-1.8-0.2-2.4-0.5s-1.1-0.8-1.5-1.5S283.3,141,283.3,140z M285.9,140c0,0.9,0.2,1.5,0.5,1.9
	s0.8,0.6,1.3,0.6c0.6,0,1-0.2,1.3-0.6s0.5-1,0.5-2c0-0.8-0.2-1.4-0.5-1.8s-0.8-0.6-1.3-0.6c-0.5,0-1,0.2-1.3,0.6
	S285.9,139.1,285.9,140z"/>
<path d="M293.6,135.7h3.9c0.8,0,1.4,0.1,1.9,0.3s0.9,0.5,1.2,0.9s0.5,0.9,0.7,1.4s0.2,1.1,0.2,1.7c0,0.9-0.1,1.6-0.3,2.1
	s-0.5,0.9-0.9,1.3s-0.8,0.6-1.2,0.7c-0.6,0.2-1.1,0.2-1.6,0.2h-3.9V135.7z M296.3,137.6v4.7h0.7c0.6,0,0.9-0.1,1.2-0.2
	s0.4-0.3,0.6-0.6s0.2-0.8,0.2-1.5c0-0.9-0.1-1.5-0.4-1.9s-0.8-0.5-1.5-0.5H296.3z"/>
<path d="M303,135.7h2.7v8.6H303V135.7z"/>
<path d="M307.6,135.7h2.5l3.2,4.8v-4.8h2.5v8.6h-2.5l-3.2-4.7v4.7h-2.5V135.7z"/>
<path d="M321.9,141.1v-1.8h4.1v3.7c-0.8,0.5-1.5,0.9-2.1,1.1s-1.3,0.3-2.1,0.3c-1,0-1.9-0.2-2.5-0.5s-1.1-0.9-1.5-1.6
	s-0.5-1.5-0.5-2.4c0-0.9,0.2-1.8,0.6-2.4s1-1.2,1.7-1.6c0.6-0.3,1.4-0.4,2.3-0.4c0.9,0,1.7,0.1,2.1,0.3s0.9,0.4,1.2,0.8
	s0.5,0.8,0.7,1.4l-2.6,0.5c-0.1-0.3-0.3-0.6-0.5-0.7s-0.6-0.3-1-0.3c-0.6,0-1,0.2-1.4,0.6s-0.5,1-0.5,1.9c0,0.9,0.2,1.6,0.5,2
	s0.8,0.6,1.5,0.6c0.3,0,0.6,0,0.8-0.1s0.6-0.2,0.9-0.4v-0.8H321.9z"/>
<path d="M335.6,135.7h2.7v4.7c0,1-0.1,1.7-0.3,2.2s-0.5,0.9-1,1.3c-0.5,0.4-1.2,0.5-2,0.5c-0.9,0-1.5-0.1-2-0.4s-0.8-0.6-1.1-1
	s-0.4-1-0.5-1.7l2.5-0.3c0,0.4,0,0.7,0.1,0.8s0.2,0.3,0.3,0.4c0.1,0.1,0.2,0.1,0.4,0.1c0.3,0,0.5-0.1,0.7-0.3s0.2-0.6,0.2-1.1V135.7
	z"/>
<path d="M339.7,140c0-1.4,0.4-2.5,1.2-3.3s1.9-1.2,3.3-1.2c1.4,0,2.5,0.4,3.3,1.2s1.2,1.8,1.2,3.2c0,1-0.2,1.8-0.5,2.5
	s-0.8,1.1-1.5,1.5s-1.4,0.5-2.4,0.5c-1,0-1.8-0.2-2.4-0.5s-1.1-0.8-1.5-1.5S339.7,141,339.7,140z M342.3,140c0,0.9,0.2,1.5,0.5,1.9
	s0.8,0.6,1.3,0.6c0.6,0,1-0.2,1.3-0.6s0.5-1,0.5-2c0-0.8-0.2-1.4-0.5-1.8s-0.8-0.6-1.3-0.6c-0.5,0-1,0.2-1.3,0.6
	S342.3,139.1,342.3,140z"/>
<path d="M355.6,135.7h2.6v5.1c0,0.5-0.1,1-0.2,1.4c-0.2,0.5-0.4,0.8-0.7,1.2c-0.3,0.3-0.7,0.6-1.1,0.7c-0.5,0.2-1.1,0.3-1.9,0.3
	c-0.4,0-0.9,0-1.4-0.1s-0.9-0.2-1.2-0.3s-0.6-0.4-0.9-0.7s-0.5-0.7-0.6-1c-0.2-0.5-0.2-1-0.2-1.5v-5.1h2.6v5.2
	c0,0.5,0.1,0.8,0.4,1.1s0.6,0.4,1.1,0.4c0.5,0,0.8-0.1,1.1-0.4s0.4-0.6,0.4-1.1V135.7z"/>
<path d="M360,144.2v-8.6h4.4c0.8,0,1.4,0.1,1.9,0.2s0.8,0.4,1,0.8s0.4,0.8,0.4,1.4c0,0.5-0.1,0.9-0.3,1.2s-0.5,0.6-0.8,0.8
	c-0.2,0.1-0.5,0.2-0.9,0.3c0.3,0.1,0.5,0.2,0.7,0.3c0.1,0.1,0.2,0.2,0.4,0.5s0.3,0.4,0.4,0.5l1.3,2.5h-3l-1.4-2.6
	c-0.2-0.3-0.3-0.6-0.5-0.7c-0.2-0.1-0.4-0.2-0.7-0.2h-0.2v3.5H360z M362.7,139.1h1.1c0.1,0,0.4,0,0.7-0.1c0.2,0,0.3-0.1,0.4-0.3
	s0.2-0.3,0.2-0.5c0-0.3-0.1-0.5-0.3-0.6s-0.5-0.2-1-0.2h-1.2V139.1z"/>
<path d="M369.3,135.7h2.5l3.2,4.8v-4.8h2.5v8.6H375l-3.2-4.7v4.7h-2.5V135.7z"/>
<path d="M379.3,135.7h7.1v1.8H382v1.4h4.1v1.8H382v1.7h4.6v1.9h-7.2V135.7z"/>
<path d="M387.1,135.7h2.9l1.7,2.9l1.7-2.9h2.9l-3.3,5v3.6h-2.7v-3.6L387.1,135.7z"/>
<path d="M401.8,135.7h2.7v8.6h-2.7V135.7z"/>
<path d="M409.8,135.7h2.5l0.9,4.8l1.3-4.8h2.5l1.3,4.8l0.9-4.8h2.5l-1.9,8.6h-2.6l-1.5-5.4l-1.5,5.4h-2.6L409.8,135.7z"/>
<path d="M422.2,140c0-1.4,0.4-2.5,1.2-3.3s1.9-1.2,3.3-1.2c1.4,0,2.5,0.4,3.3,1.2s1.2,1.8,1.2,3.2c0,1-0.2,1.8-0.5,2.5
	s-0.8,1.1-1.5,1.5s-1.4,0.5-2.4,0.5c-1,0-1.8-0.2-2.4-0.5s-1.1-0.8-1.5-1.5S422.2,141,422.2,140z M424.8,140c0,0.9,0.2,1.5,0.5,1.9
	s0.8,0.6,1.3,0.6c0.6,0,1-0.2,1.3-0.6s0.5-1,0.5-2c0-0.8-0.2-1.4-0.5-1.8s-0.8-0.6-1.3-0.6c-0.5,0-1,0.2-1.3,0.6
	S424.8,139.1,424.8,140z"/>
<path d="M432.6,144.2v-8.6h4.4c0.8,0,1.4,0.1,1.9,0.2s0.8,0.4,1,0.8s0.4,0.8,0.4,1.4c0,0.5-0.1,0.9-0.3,1.2s-0.5,0.6-0.8,0.8
	c-0.2,0.1-0.5,0.2-0.9,0.3c0.3,0.1,0.5,0.2,0.7,0.3c0.1,0.1,0.2,0.2,0.4,0.5s0.3,0.4,0.4,0.5l1.3,2.5h-3l-1.4-2.6
	c-0.2-0.3-0.3-0.6-0.5-0.7c-0.2-0.1-0.4-0.2-0.7-0.2h-0.2v3.5H432.6z M435.2,139.1h1.1c0.1,0,0.4,0,0.7-0.1c0.2,0,0.3-0.1,0.4-0.3
	s0.2-0.3,0.2-0.5c0-0.3-0.1-0.5-0.3-0.6s-0.5-0.2-1-0.2h-1.2V139.1z"/>
<path d="M441.9,135.7h2.7v3.2l2.8-3.2h3.5l-3.1,3.2l3.3,5.3h-3.3l-1.8-3.5l-1.4,1.4v2.1h-2.7V135.7z"/>
<path d="M451.8,135.7h7.1v1.8h-4.5v1.4h4.1v1.8h-4.1v1.7h4.6v1.9h-7.2V135.7z"/>
<path d="M460.6,135.7h3.9c0.8,0,1.4,0.1,1.9,0.3s0.9,0.5,1.2,0.9s0.5,0.9,0.7,1.4s0.2,1.1,0.2,1.7c0,0.9-0.1,1.6-0.3,2.1
	s-0.5,0.9-0.9,1.3s-0.8,0.6-1.2,0.7c-0.6,0.2-1.1,0.2-1.6,0.2h-3.9V135.7z M463.2,137.6v4.7h0.7c0.6,0,0.9-0.1,1.2-0.2
	s0.4-0.3,0.6-0.6s0.2-0.8,0.2-1.5c0-0.9-0.1-1.5-0.4-1.9s-0.8-0.5-1.5-0.5H463.2z"/>
<path d="M64.3,150.1h6.6v1.8h-3.9v1.5h3.3v1.7h-3.3v3.5h-2.7V150.1z"/>
<path d="M71.9,154.4c0-1.4,0.4-2.5,1.2-3.3s1.9-1.2,3.3-1.2c1.4,0,2.5,0.4,3.3,1.2s1.2,1.8,1.2,3.2c0,1-0.2,1.8-0.5,2.5
	s-0.8,1.1-1.5,1.5s-1.4,0.5-2.4,0.5c-1,0-1.8-0.2-2.4-0.5s-1.1-0.8-1.5-1.5S71.9,155.4,71.9,154.4z M74.6,154.4
	c0,0.9,0.2,1.5,0.5,1.9s0.8,0.6,1.3,0.6c0.6,0,1-0.2,1.3-0.6s0.5-1,0.5-2c0-0.8-0.2-1.4-0.5-1.8s-0.8-0.6-1.3-0.6
	c-0.5,0-1,0.2-1.3,0.6S74.6,153.5,74.6,154.4z"/>
<path d="M82.3,158.6v-8.6h4.4c0.8,0,1.4,0.1,1.9,0.2s0.8,0.4,1,0.8s0.4,0.8,0.4,1.4c0,0.5-0.1,0.9-0.3,1.2c-0.2,0.3-0.5,0.6-0.8,0.8
	c-0.2,0.1-0.5,0.2-0.9,0.3c0.3,0.1,0.5,0.2,0.7,0.3c0.1,0.1,0.2,0.2,0.4,0.5c0.2,0.2,0.3,0.4,0.4,0.5l1.3,2.5h-3l-1.4-2.6
	c-0.2-0.3-0.3-0.6-0.5-0.7c-0.2-0.1-0.4-0.2-0.7-0.2H85v3.5H82.3z M85,153.5h1.1c0.1,0,0.4,0,0.7-0.1c0.2,0,0.3-0.1,0.4-0.3
	s0.2-0.3,0.2-0.5c0-0.3-0.1-0.5-0.3-0.6s-0.5-0.2-1-0.2H85V153.5z"/>
<path d="M95,150.1h8.1v2.1h-2.7v6.5h-2.7v-6.5H95V150.1z"/>
<path d="M103.4,150.1h2.5l0.9,4.8l1.3-4.8h2.5l1.3,4.8l0.9-4.8h2.5l-1.9,8.6h-2.6l-1.5-5.4l-1.5,5.4h-2.6L103.4,150.1z"/>
<path d="M115.7,154.4c0-1.4,0.4-2.5,1.2-3.3s1.9-1.2,3.3-1.2c1.4,0,2.5,0.4,3.3,1.2s1.2,1.8,1.2,3.2c0,1-0.2,1.8-0.5,2.5
	s-0.8,1.1-1.5,1.5s-1.4,0.5-2.4,0.5c-1,0-1.8-0.2-2.4-0.5s-1.1-0.8-1.5-1.5S115.7,155.4,115.7,154.4z M118.4,154.4
	c0,0.9,0.2,1.5,0.5,1.9s0.8,0.6,1.3,0.6c0.6,0,1-0.2,1.3-0.6s0.5-1,0.5-2c0-0.8-0.2-1.4-0.5-1.8s-0.8-0.6-1.3-0.6
	c-0.5,0-1,0.2-1.3,0.6S118.4,153.5,118.4,154.4z"/>
<path d="M129.2,150.1h2.9l1.7,2.9l1.7-2.9h2.9l-3.3,5v3.6h-2.7V155L129.2,150.1z"/>
<path d="M139.4,150.1h7.1v1.8h-4.5v1.4h4.1v1.8h-4.1v1.7h4.6v1.9h-7.2V150.1z"/>
<path d="M153.3,157.2h-3l-0.4,1.4h-2.7l3.2-8.6h2.9l3.2,8.6h-2.8L153.3,157.2z M152.8,155.4l-0.9-3.1l-0.9,3.1H152.8z"/>
<path d="M157.4,158.6v-8.6h4.4c0.8,0,1.4,0.1,1.9,0.2s0.8,0.4,1,0.8s0.4,0.8,0.4,1.4c0,0.5-0.1,0.9-0.3,1.2
	c-0.2,0.3-0.5,0.6-0.8,0.8c-0.2,0.1-0.5,0.2-0.9,0.3c0.3,0.1,0.5,0.2,0.7,0.3c0.1,0.1,0.2,0.2,0.4,0.5c0.2,0.2,0.3,0.4,0.4,0.5
	l1.3,2.5h-3l-1.4-2.6c-0.2-0.3-0.3-0.6-0.5-0.7c-0.2-0.1-0.4-0.2-0.7-0.2h-0.2v3.5H157.4z M160.1,153.5h1.1c0.1,0,0.4,0,0.7-0.1
	c0.2,0,0.3-0.1,0.4-0.3s0.2-0.3,0.2-0.5c0-0.3-0.1-0.5-0.3-0.6s-0.5-0.2-1-0.2h-1.2V153.5z"/>
<path d="M166.3,155.8l2.5-0.2c0.1,0.4,0.2,0.7,0.3,0.9c0.3,0.3,0.7,0.5,1.2,0.5c0.4,0,0.7-0.1,0.9-0.3s0.3-0.4,0.3-0.6
	c0-0.2-0.1-0.4-0.3-0.6s-0.6-0.3-1.4-0.5c-1.2-0.3-2-0.6-2.5-1c-0.5-0.4-0.8-1-0.8-1.7c0-0.4,0.1-0.9,0.4-1.2s0.6-0.7,1.2-0.9
	s1.2-0.3,2.1-0.3c1.1,0,1.9,0.2,2.5,0.6s0.9,1.1,1,1.9l-2.5,0.1c-0.1-0.4-0.2-0.7-0.4-0.8s-0.5-0.3-0.9-0.3c-0.3,0-0.5,0.1-0.7,0.2
	s-0.2,0.3-0.2,0.5c0,0.1,0.1,0.3,0.2,0.4c0.1,0.1,0.4,0.2,0.9,0.3c1.2,0.2,2,0.5,2.5,0.8s0.9,0.6,1.1,1s0.3,0.8,0.3,1.3
	c0,0.6-0.2,1.1-0.5,1.5s-0.7,0.8-1.3,1.1s-1.2,0.4-2.1,0.4c-1.5,0-2.5-0.3-3-0.8S166.3,156.7,166.3,155.8z"/>
<path d="M184.7,157.2h-3l-0.4,1.4h-2.7l3.2-8.6h2.9l3.2,8.6h-2.8L184.7,157.2z M184.1,155.4l-0.9-3.1l-0.9,3.1H184.1z"/>
<path d="M188.3,155.8l2.5-0.2c0.1,0.4,0.2,0.7,0.3,0.9c0.3,0.3,0.7,0.5,1.2,0.5c0.4,0,0.7-0.1,0.9-0.3s0.3-0.4,0.3-0.6
	c0-0.2-0.1-0.4-0.3-0.6s-0.6-0.3-1.4-0.5c-1.2-0.3-2-0.6-2.5-1c-0.5-0.4-0.8-1-0.8-1.7c0-0.4,0.1-0.9,0.4-1.2s0.6-0.7,1.2-0.9
	s1.2-0.3,2.1-0.3c1.1,0,1.9,0.2,2.5,0.6s0.9,1.1,1,1.9l-2.5,0.1c-0.1-0.4-0.2-0.7-0.4-0.8s-0.5-0.3-0.9-0.3c-0.3,0-0.5,0.1-0.7,0.2
	s-0.2,0.3-0.2,0.5c0,0.1,0.1,0.3,0.2,0.4c0.1,0.1,0.4,0.2,0.9,0.3c1.2,0.2,2,0.5,2.5,0.8s0.9,0.6,1.1,1s0.3,0.8,0.3,1.3
	c0,0.6-0.2,1.1-0.5,1.5s-0.7,0.8-1.3,1.1s-1.2,0.4-2.1,0.4c-1.5,0-2.5-0.3-3-0.8S188.3,156.7,188.3,155.8z"/>
<path d="M206.7,157.2h-3l-0.4,1.4h-2.7l3.2-8.6h2.9l3.2,8.6h-2.8L206.7,157.2z M206.1,155.4l-0.9-3.1l-0.9,3.1H206.1z"/>
<path d="M214.8,150.1h6.6v1.8h-3.9v1.5h3.3v1.7h-3.3v3.5h-2.7V150.1z"/>
<path d="M222.8,158.6v-8.6h4.4c0.8,0,1.4,0.1,1.9,0.2s0.8,0.4,1,0.8s0.4,0.8,0.4,1.4c0,0.5-0.1,0.9-0.3,1.2
	c-0.2,0.3-0.5,0.6-0.8,0.8c-0.2,0.1-0.5,0.2-0.9,0.3c0.3,0.1,0.5,0.2,0.7,0.3c0.1,0.1,0.2,0.2,0.4,0.5c0.2,0.2,0.3,0.4,0.4,0.5
	l1.3,2.5h-3l-1.4-2.6c-0.2-0.3-0.3-0.6-0.5-0.7c-0.2-0.1-0.4-0.2-0.7-0.2h-0.2v3.5H222.8z M225.4,153.5h1.1c0.1,0,0.4,0,0.7-0.1
	c0.2,0,0.3-0.1,0.4-0.3s0.2-0.3,0.2-0.5c0-0.3-0.1-0.5-0.3-0.6s-0.5-0.2-1-0.2h-1.2V153.5z"/>
<path d="M232.1,150.1h7.1v1.8h-4.5v1.4h4.1v1.8h-4.1v1.7h4.6v1.9h-7.2V150.1z"/>
<path d="M240.7,150.1h7.1v1.8h-4.5v1.4h4.1v1.8h-4.1v1.7h4.6v1.9h-7.2V150.1z"/>
<path d="M249.4,150.1h2.7v6.5h4.1v2.1h-6.8V150.1z"/>
<path d="M262.7,157.2h-3l-0.4,1.4h-2.7l3.2-8.6h2.9l3.2,8.6h-2.8L262.7,157.2z M262.1,155.4l-0.9-3.1l-0.9,3.1H262.1z"/>
<path d="M266.8,150.1h2.5l3.2,4.8v-4.8h2.5v8.6h-2.5l-3.2-4.7v4.7h-2.5V150.1z"/>
<path d="M282.5,155.1l2.3,0.7c-0.2,0.7-0.4,1.2-0.7,1.6s-0.8,0.8-1.3,1s-1.1,0.3-1.9,0.3c-0.9,0-1.7-0.1-2.3-0.4s-1.1-0.7-1.5-1.4
	s-0.6-1.6-0.6-2.6c0-1.4,0.4-2.5,1.1-3.3c0.8-0.8,1.8-1.1,3.2-1.1c1.1,0,1.9,0.2,2.6,0.7s1.1,1.1,1.4,2l-2.3,0.5
	c-0.1-0.3-0.2-0.5-0.3-0.6c-0.1-0.2-0.3-0.4-0.5-0.5s-0.5-0.2-0.7-0.2c-0.6,0-1.1,0.2-1.4,0.7c-0.2,0.4-0.4,0.9-0.4,1.7
	c0,1,0.1,1.6,0.4,2s0.7,0.5,1.2,0.5c0.5,0,0.9-0.1,1.2-0.4S282.3,155.7,282.5,155.1z"/>
<path d="M286.1,150.1h7.1v1.8h-4.5v1.4h4.1v1.8h-4.1v1.7h4.6v1.9h-7.2V150.1z"/>
<path d="M298.7,150.1h4.4c1,0,1.7,0.2,2.2,0.7s0.7,1.1,0.7,2c0,0.9-0.3,1.5-0.8,2s-1.3,0.7-2.4,0.7h-1.5v3.2h-2.7V150.1z
	 M301.4,153.7h0.7c0.5,0,0.9-0.1,1.1-0.3s0.3-0.4,0.3-0.7c0-0.3-0.1-0.5-0.3-0.7s-0.5-0.3-1-0.3h-0.8V153.7z"/>
<path d="M307.4,150.1h2.7v3h2.9v-3h2.7v8.6H313v-3.5h-2.9v3.5h-2.7V150.1z"/>
<path d="M317.1,154.4c0-1.4,0.4-2.5,1.2-3.3s1.9-1.2,3.3-1.2c1.4,0,2.5,0.4,3.3,1.2s1.2,1.8,1.2,3.2c0,1-0.2,1.8-0.5,2.5
	s-0.8,1.1-1.5,1.5s-1.4,0.5-2.4,0.5c-1,0-1.8-0.2-2.4-0.5s-1.1-0.8-1.5-1.5S317.1,155.4,317.1,154.4z M319.7,154.4
	c0,0.9,0.2,1.5,0.5,1.9s0.8,0.6,1.3,0.6c0.6,0,1-0.2,1.3-0.6s0.5-1,0.5-2c0-0.8-0.2-1.4-0.5-1.8s-0.8-0.6-1.3-0.6
	c-0.5,0-1,0.2-1.3,0.6S319.7,153.5,319.7,154.4z"/>
<path d="M326.5,150.1h8.1v2.1h-2.7v6.5h-2.7v-6.5h-2.7V150.1z"/>
<path d="M335,154.4c0-1.4,0.4-2.5,1.2-3.3s1.9-1.2,3.3-1.2c1.4,0,2.5,0.4,3.3,1.2s1.2,1.8,1.2,3.2c0,1-0.2,1.8-0.5,2.5
	s-0.8,1.1-1.5,1.5s-1.4,0.5-2.4,0.5c-1,0-1.8-0.2-2.4-0.5s-1.1-0.8-1.5-1.5S335,155.4,335,154.4z M337.7,154.4
	c0,0.9,0.2,1.5,0.5,1.9s0.8,0.6,1.3,0.6c0.6,0,1-0.2,1.3-0.6s0.5-1,0.5-2c0-0.8-0.2-1.4-0.5-1.8s-0.8-0.6-1.3-0.6
	c-0.5,0-1,0.2-1.3,0.6S337.7,153.5,337.7,154.4z"/>
<path d="M349.7,155.5v-1.8h4.1v3.7c-0.8,0.5-1.5,0.9-2.1,1.1s-1.3,0.3-2.1,0.3c-1,0-1.9-0.2-2.5-0.5s-1.1-0.9-1.5-1.6
	s-0.5-1.5-0.5-2.4c0-0.9,0.2-1.8,0.6-2.4s1-1.2,1.7-1.6c0.6-0.3,1.4-0.4,2.3-0.4c0.9,0,1.7,0.1,2.1,0.3s0.9,0.4,1.2,0.8
	s0.5,0.8,0.7,1.4l-2.6,0.5c-0.1-0.3-0.3-0.6-0.5-0.7s-0.6-0.3-1-0.3c-0.6,0-1,0.2-1.4,0.6s-0.5,1-0.5,1.9c0,0.9,0.2,1.6,0.5,2
	s0.8,0.6,1.5,0.6c0.3,0,0.6,0,0.8-0.1s0.6-0.2,0.9-0.4v-0.8H349.7z"/>
<path d="M355.4,158.6v-8.6h4.4c0.8,0,1.4,0.1,1.9,0.2s0.8,0.4,1,0.8s0.4,0.8,0.4,1.4c0,0.5-0.1,0.9-0.3,1.2s-0.5,0.6-0.8,0.8
	c-0.2,0.1-0.5,0.2-0.9,0.3c0.3,0.1,0.5,0.2,0.7,0.3c0.1,0.1,0.2,0.2,0.4,0.5c0.2,0.2,0.3,0.4,0.4,0.5l1.3,2.5h-3l-1.4-2.6
	c-0.2-0.3-0.3-0.6-0.5-0.7c-0.2-0.1-0.4-0.2-0.7-0.2H358v3.5H355.4z M358,153.5h1.1c0.1,0,0.4,0,0.7-0.1c0.2,0,0.3-0.1,0.4-0.3
	s0.2-0.3,0.2-0.5c0-0.3-0.1-0.5-0.3-0.6s-0.5-0.2-1-0.2H358V153.5z"/>
<path d="M370,157.2h-3l-0.4,1.4h-2.7l3.2-8.6h2.9l3.2,8.6h-2.8L370,157.2z M369.4,155.4l-0.9-3.1l-0.9,3.1H369.4z"/>
<path d="M374,150.1h4.4c1,0,1.7,0.2,2.2,0.7s0.7,1.1,0.7,2c0,0.9-0.3,1.5-0.8,2s-1.3,0.7-2.4,0.7h-1.5v3.2H374V150.1z M376.7,153.7
	h0.7c0.5,0,0.9-0.1,1.1-0.3s0.3-0.4,0.3-0.7c0-0.3-0.1-0.5-0.3-0.7s-0.5-0.3-1-0.3h-0.8V153.7z"/>
<path d="M382.7,150.1h2.7v3h2.9v-3h2.7v8.6h-2.7v-3.5h-2.9v3.5h-2.7V150.1z"/>
<path d="M392.7,150.1h7.1v1.8h-4.5v1.4h4.1v1.8h-4.1v1.7h4.6v1.9h-7.2V150.1z"/>
<path d="M401.4,158.6v-8.6h4.4c0.8,0,1.4,0.1,1.9,0.2s0.8,0.4,1,0.8s0.4,0.8,0.4,1.4c0,0.5-0.1,0.9-0.3,1.2s-0.5,0.6-0.8,0.8
	c-0.2,0.1-0.5,0.2-0.9,0.3c0.3,0.1,0.5,0.2,0.7,0.3c0.1,0.1,0.2,0.2,0.4,0.5c0.2,0.2,0.3,0.4,0.4,0.5l1.3,2.5h-3l-1.4-2.6
	c-0.2-0.3-0.3-0.6-0.5-0.7c-0.2-0.1-0.4-0.2-0.7-0.2H404v3.5H401.4z M404,153.5h1.1c0.1,0,0.4,0,0.7-0.1c0.2,0,0.3-0.1,0.4-0.3
	s0.2-0.3,0.2-0.5c0-0.3-0.1-0.5-0.3-0.6s-0.5-0.2-1-0.2H404V153.5z"/>
<path d="M410.5,156.3h2.5v2.4h-2.5V156.3z"/>
<path d="M9.2,178.9h2.7v8.6H9.2V178.9z"/>
<path d="M33.3,186h-3l-0.4,1.4h-2.7l3.2-8.6h2.9l3.2,8.6h-2.8L33.3,186z M32.7,184.2l-0.9-3.1l-0.9,3.1H32.7z"/>
<path d="M37.3,178.9h3.5l1.3,5.2l1.3-5.2H47v8.6h-2.2v-6.6l-1.7,6.6h-2l-1.7-6.6v6.6h-2.2V178.9z"/>
<path d="M68.2,186h-3l-0.4,1.4H62l3.2-8.6h2.9l3.2,8.6h-2.8L68.2,186z M67.6,184.2l-0.9-3.1l-0.9,3.1H67.6z"/>
<path d="M72.2,178.9h2.7v6.5H79v2.1h-6.8V178.9z"/>
<path d="M79.1,178.9h2.5l0.9,4.8l1.3-4.8h2.5l1.3,4.8l0.9-4.8h2.5l-1.9,8.6h-2.6l-1.5-5.4l-1.5,5.4H81L79.1,178.9z"/>
<path d="M97.3,186h-3l-0.4,1.4h-2.7l3.2-8.6h2.9l3.2,8.6h-2.8L97.3,186z M96.7,184.2l-0.9-3.1l-0.9,3.1H96.7z"/>
<path d="M99.5,178.9h2.9l1.7,2.9l1.7-2.9h2.9l-3.3,5v3.6h-2.7v-3.6L99.5,178.9z"/>
<path d="M108.7,184.6l2.5-0.2c0.1,0.4,0.2,0.7,0.3,0.9c0.3,0.3,0.7,0.5,1.2,0.5c0.4,0,0.7-0.1,0.9-0.3s0.3-0.4,0.3-0.6
	c0-0.2-0.1-0.4-0.3-0.6s-0.6-0.3-1.4-0.5c-1.2-0.3-2-0.6-2.5-1c-0.5-0.4-0.8-1-0.8-1.7c0-0.4,0.1-0.9,0.4-1.3s0.6-0.7,1.2-0.9
	s1.2-0.3,2.1-0.3c1.1,0,1.9,0.2,2.5,0.6s0.9,1.1,1,1.9l-2.5,0.1c-0.1-0.4-0.2-0.7-0.4-0.8s-0.5-0.3-0.9-0.3c-0.3,0-0.5,0.1-0.7,0.2
	s-0.2,0.3-0.2,0.5c0,0.1,0.1,0.3,0.2,0.4c0.1,0.1,0.4,0.2,0.9,0.3c1.2,0.2,2,0.5,2.5,0.8s0.9,0.6,1.1,1s0.3,0.8,0.3,1.3
	c0,0.6-0.2,1.1-0.5,1.5s-0.7,0.8-1.3,1.1s-1.2,0.4-2.1,0.4c-1.5,0-2.5-0.3-3-0.8S108.7,185.5,108.7,184.6z"/>
<path d="M132,178.9h2.7v3.2l2.8-3.2h3.5l-3.1,3.2l3.3,5.3h-3.3l-1.8-3.5l-1.4,1.4v2.1H132V178.9z"/>
<path d="M142,178.9h7.1v1.8h-4.5v1.4h4.1v1.8h-4.1v1.7h4.6v1.9H142V178.9z"/>
<path d="M150.7,178.9h7.1v1.8h-4.5v1.4h4.1v1.8h-4.1v1.7h4.6v1.9h-7.2V178.9z"/>
<path d="M159.4,178.9h2.5l3.2,4.8v-4.8h2.5v8.6h-2.5l-3.2-4.7v4.7h-2.5V178.9z"/>
<path d="M183,178.9h8.1v2.1h-2.7v6.5h-2.7V181H183V178.9z"/>
<path d="M191.5,183.2c0-1.4,0.4-2.5,1.2-3.3s1.9-1.2,3.3-1.2c1.4,0,2.5,0.4,3.3,1.2s1.2,1.8,1.2,3.2c0,1-0.2,1.8-0.5,2.5
	s-0.8,1.1-1.5,1.5s-1.4,0.5-2.4,0.5c-1,0-1.8-0.2-2.4-0.5s-1.1-0.8-1.5-1.5S191.5,184.2,191.5,183.2z M194.2,183.2
	c0,0.9,0.2,1.5,0.5,1.9s0.8,0.6,1.3,0.6c0.6,0,1-0.2,1.3-0.6s0.5-1,0.5-2c0-0.8-0.2-1.4-0.5-1.8s-0.8-0.6-1.3-0.6
	c-0.5,0-1,0.2-1.3,0.6S194.2,182.3,194.2,183.2z"/>
<path d="M216.1,178.9h2.7v6.5h4.1v2.1h-6.8V178.9z"/>
<path d="M224.1,178.9h7.1v1.8h-4.5v1.4h4.1v1.8h-4.1v1.7h4.6v1.9h-7.2V178.9z"/>
<path d="M238,186h-3l-0.4,1.4h-2.7l3.2-8.6h2.9l3.2,8.6h-2.8L238,186z M237.5,184.2l-0.9-3.1l-0.9,3.1H237.5z"/>
<path d="M242.1,187.4v-8.6h4.4c0.8,0,1.4,0.1,1.9,0.2s0.8,0.4,1,0.8s0.4,0.8,0.4,1.4c0,0.5-0.1,0.9-0.3,1.2
	c-0.2,0.3-0.5,0.6-0.8,0.8c-0.2,0.1-0.5,0.2-0.9,0.3c0.3,0.1,0.5,0.2,0.7,0.3c0.1,0.1,0.2,0.2,0.4,0.5c0.2,0.2,0.3,0.4,0.4,0.5
	l1.3,2.5h-3l-1.4-2.6c-0.2-0.3-0.3-0.6-0.5-0.7c-0.2-0.1-0.4-0.2-0.7-0.2h-0.2v3.5H242.1z M244.8,182.3h1.1c0.1,0,0.4,0,0.7-0.1
	c0.2,0,0.3-0.1,0.4-0.3s0.2-0.3,0.2-0.5c0-0.3-0.1-0.5-0.3-0.6s-0.5-0.2-1-0.2h-1.2V182.3z"/>
<path d="M251.4,178.9h2.5l3.2,4.8v-4.8h2.5v8.6h-2.5l-3.2-4.7v4.7h-2.5V178.9z"/>
<path d="M275.6,178.9h2.5l3.2,4.8v-4.8h2.5v8.6h-2.5l-3.2-4.7v4.7h-2.5V178.9z"/>
<path d="M285.6,178.9h7.1v1.8h-4.5v1.4h4.1v1.8h-4.1v1.7h4.6v1.9h-7.2V178.9z"/>
<path d="M293.4,178.9h2.5l0.9,4.8l1.3-4.8h2.5l1.3,4.8l0.9-4.8h2.5l-1.9,8.6h-2.6l-1.5-5.4l-1.5,5.4h-2.6L293.4,178.9z"/>
<path d="M319.9,178.9h8.1v2.1h-2.7v6.5h-2.7V181h-2.7V178.9z"/>
<path d="M329.2,178.9h7.1v1.8h-4.5v1.4h4.1v1.8h-4.1v1.7h4.6v1.9h-7.2V178.9z"/>
<path d="M343.6,183.9l2.3,0.7c-0.2,0.7-0.4,1.2-0.7,1.6s-0.8,0.8-1.3,1s-1.1,0.3-1.9,0.3c-0.9,0-1.7-0.1-2.3-0.4
	c-0.6-0.3-1.1-0.7-1.5-1.4c-0.4-0.7-0.6-1.6-0.6-2.6c0-1.4,0.4-2.5,1.1-3.3c0.8-0.8,1.8-1.1,3.2-1.1c1.1,0,1.9,0.2,2.6,0.7
	s1.1,1.1,1.4,2l-2.3,0.5c-0.1-0.3-0.2-0.5-0.3-0.6c-0.1-0.2-0.3-0.4-0.5-0.5s-0.5-0.2-0.7-0.2c-0.6,0-1.1,0.2-1.4,0.7
	c-0.2,0.4-0.4,0.9-0.4,1.7c0,1,0.1,1.6,0.4,2c0.3,0.4,0.7,0.5,1.2,0.5c0.5,0,0.9-0.1,1.2-0.4S343.4,184.5,343.6,183.9z"/>
<path d="M347.2,178.9h2.7v3h2.9v-3h2.7v8.6h-2.7V184h-2.9v3.5h-2.7V178.9z"/>
<path d="M357.2,178.9h2.5l3.2,4.8v-4.8h2.5v8.6h-2.5l-3.2-4.7v4.7h-2.5V178.9z"/>
<path d="M366.8,183.2c0-1.4,0.4-2.5,1.2-3.3s1.9-1.2,3.3-1.2c1.4,0,2.5,0.4,3.3,1.2s1.2,1.8,1.2,3.2c0,1-0.2,1.8-0.5,2.5
	s-0.8,1.1-1.5,1.5s-1.4,0.5-2.4,0.5c-1,0-1.8-0.2-2.4-0.5s-1.1-0.8-1.5-1.5S366.8,184.2,366.8,183.2z M369.5,183.2
	c0,0.9,0.2,1.5,0.5,1.9s0.8,0.6,1.3,0.6c0.6,0,1-0.2,1.3-0.6s0.5-1,0.5-2c0-0.8-0.2-1.4-0.5-1.8s-0.8-0.6-1.3-0.6
	c-0.5,0-1,0.2-1.3,0.6S369.5,182.3,369.5,183.2z"/>
<path d="M377.2,178.9h2.7v6.5h4.1v2.1h-6.8V178.9z"/>
<path d="M384.6,183.2c0-1.4,0.4-2.5,1.2-3.3s1.9-1.2,3.3-1.2c1.4,0,2.5,0.4,3.3,1.2s1.2,1.8,1.2,3.2c0,1-0.2,1.8-0.5,2.5
	s-0.8,1.1-1.5,1.5s-1.4,0.5-2.4,0.5c-1,0-1.8-0.2-2.4-0.5s-1.1-0.8-1.5-1.5S384.6,184.2,384.6,183.2z M387.3,183.2
	c0,0.9,0.2,1.5,0.5,1.9s0.8,0.6,1.3,0.6c0.6,0,1-0.2,1.3-0.6s0.5-1,0.5-2c0-0.8-0.2-1.4-0.5-1.8s-0.8-0.6-1.3-0.6
	c-0.5,0-1,0.2-1.3,0.6S387.3,182.3,387.3,183.2z"/>
<path d="M399.3,184.3v-1.8h4.1v3.7c-0.8,0.5-1.5,0.9-2.1,1.1s-1.3,0.3-2.1,0.3c-1,0-1.9-0.2-2.5-0.5s-1.1-0.9-1.5-1.6
	s-0.5-1.5-0.5-2.4c0-0.9,0.2-1.8,0.6-2.4s1-1.2,1.7-1.6c0.6-0.3,1.4-0.4,2.3-0.4c0.9,0,1.7,0.1,2.1,0.3s0.9,0.4,1.2,0.8
	s0.5,0.8,0.7,1.4l-2.6,0.5c-0.1-0.3-0.3-0.6-0.5-0.7s-0.6-0.3-1-0.3c-0.6,0-1,0.2-1.4,0.6s-0.5,1-0.5,1.9c0,0.9,0.2,1.6,0.5,2
	s0.8,0.6,1.5,0.6c0.3,0,0.6,0,0.8-0.1s0.6-0.2,0.9-0.4v-0.8H399.3z"/>
<path d="M405.1,178.9h2.7v8.6h-2.7V178.9z"/>
<path d="M409.6,178.9h7.1v1.8h-4.5v1.4h4.1v1.8h-4.1v1.7h4.6v1.9h-7.2V178.9z"/>
<path d="M417.8,184.6l2.5-0.2c0.1,0.4,0.2,0.7,0.3,0.9c0.3,0.3,0.7,0.5,1.2,0.5c0.4,0,0.7-0.1,0.9-0.3s0.3-0.4,0.3-0.6
	c0-0.2-0.1-0.4-0.3-0.6s-0.6-0.3-1.4-0.5c-1.2-0.3-2-0.6-2.5-1c-0.5-0.4-0.8-1-0.8-1.7c0-0.4,0.1-0.9,0.4-1.3s0.6-0.7,1.2-0.9
	s1.2-0.3,2.1-0.3c1.1,0,1.9,0.2,2.5,0.6s0.9,1.1,1,1.9l-2.5,0.1c-0.1-0.4-0.2-0.7-0.4-0.8s-0.5-0.3-0.9-0.3c-0.3,0-0.5,0.1-0.7,0.2
	s-0.2,0.3-0.2,0.5c0,0.1,0.1,0.3,0.2,0.4c0.1,0.1,0.4,0.2,0.9,0.3c1.2,0.2,2,0.5,2.5,0.8s0.9,0.6,1.1,1s0.3,0.8,0.3,1.3
	c0,0.6-0.2,1.1-0.5,1.5s-0.7,0.8-1.3,1.1s-1.2,0.4-2.1,0.4c-1.5,0-2.5-0.3-3-0.8S417.9,185.5,417.8,184.6z"/>
<path d="M446.5,186h-3l-0.4,1.4h-2.7l3.2-8.6h2.9l3.2,8.6h-2.8L446.5,186z M445.9,184.2l-0.9-3.1l-0.9,3.1H445.9z"/>
<path d="M450.5,178.9h2.5l3.2,4.8v-4.8h2.5v8.6h-2.5l-3.2-4.7v4.7h-2.5V178.9z"/>
<path d="M460.6,178.9h3.9c0.8,0,1.4,0.1,1.9,0.3s0.9,0.5,1.2,0.9s0.5,0.9,0.7,1.4s0.2,1.1,0.2,1.7c0,0.9-0.1,1.6-0.3,2.1
	s-0.5,0.9-0.9,1.3s-0.8,0.6-1.2,0.7c-0.6,0.2-1.1,0.2-1.6,0.2h-3.9V178.9z M463.2,180.8v4.7h0.7c0.6,0,0.9-0.1,1.2-0.2
	s0.4-0.3,0.6-0.6s0.2-0.8,0.2-1.5c0-0.9-0.1-1.5-0.4-1.9s-0.8-0.5-1.5-0.5H463.2z"/>
<path d="M8.5,193.3h8.1v2.1h-2.7v6.5h-2.7v-6.5H8.5V193.3z"/>
<path d="M17.7,193.3h7.1v1.8h-4.5v1.4h4.1v1.8h-4.1v1.7H25v1.9h-7.2V193.3z"/>
<path d="M32.1,198.3l2.3,0.7c-0.2,0.7-0.4,1.2-0.7,1.6s-0.8,0.8-1.3,1s-1.1,0.3-1.9,0.3c-0.9,0-1.7-0.1-2.3-0.4
	c-0.6-0.3-1.1-0.7-1.5-1.4c-0.4-0.7-0.6-1.6-0.6-2.6c0-1.4,0.4-2.5,1.1-3.3c0.8-0.8,1.8-1.1,3.2-1.1c1.1,0,1.9,0.2,2.6,0.7
	s1.1,1.1,1.4,2l-2.3,0.5c-0.1-0.3-0.2-0.5-0.3-0.6c-0.1-0.2-0.3-0.4-0.5-0.5s-0.5-0.2-0.7-0.2c-0.6,0-1.1,0.2-1.4,0.7
	c-0.2,0.4-0.4,0.9-0.4,1.7c0,1,0.1,1.6,0.4,2c0.3,0.4,0.7,0.5,1.2,0.5c0.5,0,0.9-0.1,1.2-0.4S32,198.9,32.1,198.3z"/>
<path d="M35.8,193.3h2.7v3h2.9v-3H44v8.6h-2.7v-3.5h-2.9v3.5h-2.7V193.3z"/>
<path d="M45.8,193.3h2.5l3.2,4.8v-4.8H54v8.6h-2.5l-3.2-4.7v4.7h-2.5V193.3z"/>
<path d="M55.9,193.3h2.7v8.6h-2.7V193.3z"/>
<path d="M68,200.6c0.3,0.2,0.5,0.4,0.7,0.4c0.2,0.1,0.4,0.2,0.6,0.3l-0.7,1.5c-0.4-0.2-0.7-0.4-1.1-0.6s-0.6-0.4-0.8-0.6
	c-0.6,0.3-1.3,0.4-2.2,0.4c-1.3,0-2.3-0.3-3.1-1c-0.9-0.8-1.3-1.9-1.3-3.4c0-1.4,0.4-2.5,1.2-3.3s1.9-1.2,3.3-1.2
	c1.4,0,2.5,0.4,3.3,1.1s1.2,1.9,1.2,3.3C69,198.8,68.7,199.8,68,200.6z M66,199.2c0.2-0.4,0.3-0.9,0.3-1.7c0-0.9-0.2-1.5-0.5-1.9
	s-0.8-0.6-1.3-0.6c-0.5,0-1,0.2-1.3,0.6s-0.5,1-0.5,1.8c0,0.9,0.2,1.6,0.5,2s0.8,0.6,1.3,0.6c0.2,0,0.3,0,0.5-0.1
	c-0.2-0.2-0.6-0.4-1.1-0.6l0.4-1c0.2,0,0.4,0.1,0.5,0.2s0.4,0.2,0.8,0.5C65.8,199.1,65.9,199.2,66,199.2z"/>
<path d="M76,193.3h2.6v5.1c0,0.5-0.1,1-0.2,1.4c-0.2,0.5-0.4,0.8-0.7,1.2s-0.7,0.6-1.1,0.7c-0.5,0.2-1.1,0.3-1.9,0.3
	c-0.4,0-0.9,0-1.4-0.1s-0.9-0.2-1.2-0.3s-0.6-0.4-0.9-0.7s-0.5-0.7-0.6-1c-0.2-0.5-0.2-1-0.2-1.5v-5.1h2.6v5.2
	c0,0.5,0.1,0.8,0.4,1.1c0.3,0.3,0.6,0.4,1.1,0.4c0.5,0,0.8-0.1,1.1-0.4c0.3-0.3,0.4-0.6,0.4-1.1V193.3z"/>
<path d="M80.4,193.3h7.1v1.8h-4.5v1.4h4.1v1.8h-4.1v1.7h4.6v1.9h-7.2V193.3z"/>
<path d="M88.6,199l2.5-0.2c0.1,0.4,0.2,0.7,0.3,0.9c0.3,0.3,0.7,0.5,1.2,0.5c0.4,0,0.7-0.1,0.9-0.3s0.3-0.4,0.3-0.6
	c0-0.2-0.1-0.4-0.3-0.6s-0.6-0.3-1.4-0.5c-1.2-0.3-2-0.6-2.5-1c-0.5-0.4-0.8-1-0.8-1.7c0-0.4,0.1-0.9,0.4-1.3s0.6-0.7,1.2-0.9
	s1.2-0.3,2.1-0.3c1.1,0,1.9,0.2,2.5,0.6s0.9,1.1,1,1.9l-2.5,0.1c-0.1-0.4-0.2-0.7-0.4-0.8s-0.5-0.3-0.9-0.3c-0.3,0-0.5,0.1-0.7,0.2
	s-0.2,0.3-0.2,0.5c0,0.1,0.1,0.3,0.2,0.4c0.1,0.1,0.4,0.2,0.9,0.3c1.2,0.2,2,0.5,2.5,0.8s0.9,0.6,1.1,1s0.3,0.8,0.3,1.3
	c0,0.6-0.2,1.1-0.5,1.5s-0.7,0.8-1.3,1.1s-1.2,0.4-2.1,0.4c-1.5,0-2.5-0.3-3-0.8S88.7,199.9,88.6,199z"/>
<path d="M97.6,199.5h2.5v2.4h-2.5V199.5z"/>
<path d="M112.5,193.3h2.7v8.6h-2.7V193.3z"/>
<path d="M127.7,193.3h2.7v3h2.9v-3h2.7v8.6h-2.7v-3.5h-2.9v3.5h-2.7V193.3z"/>
<path d="M142.9,200.4h-3l-0.4,1.4h-2.7l3.2-8.6h2.9l3.2,8.6h-2.8L142.9,200.4z M142.4,198.6l-0.9-3.1l-0.9,3.1H142.4z"/>
<path d="M145.5,193.3h2.8l1.9,6.2l1.9-6.2h2.7l-3.2,8.6h-2.9L145.5,193.3z"/>
<path d="M155.7,193.3h7.1v1.8h-4.5v1.4h4.1v1.8h-4.1v1.7h4.6v1.9h-7.2V193.3z"/>
<path d="M175,201.8v-8.6h4.4c0.8,0,1.4,0.1,1.9,0.2s0.8,0.4,1,0.8s0.4,0.8,0.4,1.4c0,0.5-0.1,0.9-0.3,1.2c-0.2,0.3-0.5,0.6-0.8,0.8
	c-0.2,0.1-0.5,0.2-0.9,0.3c0.3,0.1,0.5,0.2,0.7,0.3c0.1,0.1,0.2,0.2,0.4,0.5c0.2,0.2,0.3,0.4,0.4,0.5l1.3,2.5h-3l-1.4-2.6
	c-0.2-0.3-0.3-0.6-0.5-0.7c-0.2-0.1-0.4-0.2-0.7-0.2h-0.2v3.5H175z M177.7,196.7h1.1c0.1,0,0.4,0,0.7-0.1c0.2,0,0.3-0.1,0.4-0.3
	s0.2-0.3,0.2-0.5c0-0.3-0.1-0.5-0.3-0.6s-0.5-0.2-1-0.2h-1.2V196.7z"/>
<path d="M184.3,193.3h7.1v1.8h-4.5v1.4h4.1v1.8h-4.1v1.7h4.6v1.9h-7.2V193.3z"/>
<path d="M198.7,198.3l2.3,0.7c-0.2,0.7-0.4,1.2-0.7,1.6s-0.8,0.8-1.3,1s-1.1,0.3-1.9,0.3c-0.9,0-1.7-0.1-2.3-0.4
	c-0.6-0.3-1.1-0.7-1.5-1.4c-0.4-0.7-0.6-1.6-0.6-2.6c0-1.4,0.4-2.5,1.1-3.3c0.8-0.8,1.8-1.1,3.2-1.1c1.1,0,1.9,0.2,2.6,0.7
	s1.1,1.1,1.4,2l-2.3,0.5c-0.1-0.3-0.2-0.5-0.3-0.6c-0.1-0.2-0.3-0.4-0.5-0.5s-0.5-0.2-0.7-0.2c-0.6,0-1.1,0.2-1.4,0.7
	c-0.2,0.4-0.4,0.9-0.4,1.7c0,1,0.1,1.6,0.4,2c0.3,0.4,0.7,0.5,1.2,0.5c0.5,0,0.9-0.1,1.2-0.4S198.6,198.9,198.7,198.3z"/>
<path d="M202.3,193.3h7.1v1.8h-4.5v1.4h4.1v1.8h-4.1v1.7h4.6v1.9h-7.2V193.3z"/>
<path d="M211,193.3h2.5l3.2,4.8v-4.8h2.5v8.6h-2.5l-3.2-4.7v4.7H211V193.3z"/>
<path d="M220.3,193.3h8.1v2.1h-2.7v6.5h-2.7v-6.5h-2.7V193.3z"/>
<path d="M229.6,193.3h2.7v6.5h4.1v2.1h-6.8V193.3z"/>
<path d="M235.8,193.3h2.9l1.7,2.9l1.7-2.9h2.9l-3.3,5v3.6h-2.7v-3.6L235.8,193.3z"/>
<path d="M256.7,193.3h5c0.8,0,1.5,0.2,1.9,0.6s0.7,0.9,0.7,1.5c0,0.5-0.2,0.9-0.5,1.3c-0.2,0.2-0.5,0.4-0.9,0.6
	c0.6,0.1,1.1,0.4,1.4,0.8s0.4,0.8,0.4,1.4c0,0.4-0.1,0.8-0.3,1.2s-0.5,0.6-0.8,0.8c-0.2,0.1-0.6,0.2-1,0.3c-0.6,0.1-1,0.1-1.2,0.1
	h-4.6V193.3z M259.3,196.6h1.2c0.4,0,0.7-0.1,0.9-0.2s0.2-0.3,0.2-0.6c0-0.2-0.1-0.4-0.2-0.6s-0.4-0.2-0.8-0.2h-1.2V196.6z
	 M259.3,200h1.4c0.5,0,0.8-0.1,1-0.2s0.3-0.4,0.3-0.7c0-0.3-0.1-0.5-0.3-0.6s-0.5-0.2-1-0.2h-1.3V200z"/>
<path d="M266,193.3h7.1v1.8h-4.5v1.4h4.1v1.8h-4.1v1.7h4.6v1.9H266V193.3z"/>
<path d="M274.7,193.3h7.1v1.8h-4.5v1.4h4.1v1.8h-4.1v1.7h4.6v1.9h-7.2V193.3z"/>
<path d="M283.3,193.3h2.5l3.2,4.8v-4.8h2.5v8.6h-2.5l-3.2-4.7v4.7h-2.5V193.3z"/>
<path d="M303.9,193.3h2.7v6.5h4.1v2.1h-6.8V193.3z"/>
<path d="M311.9,193.3h7.1v1.8h-4.5v1.4h4.1v1.8h-4.1v1.7h4.6v1.9h-7.2V193.3z"/>
<path d="M325.9,200.4h-3l-0.4,1.4h-2.7l3.2-8.6h2.9l3.2,8.6h-2.8L325.9,200.4z M325.3,198.6l-0.9-3.1l-0.9,3.1H325.3z"/>
<path d="M330,201.8v-8.6h4.4c0.8,0,1.4,0.1,1.9,0.2s0.8,0.4,1,0.8s0.4,0.8,0.4,1.4c0,0.5-0.1,0.9-0.3,1.2s-0.5,0.6-0.8,0.8
	c-0.2,0.1-0.5,0.2-0.9,0.3c0.3,0.1,0.5,0.2,0.7,0.3c0.1,0.1,0.2,0.2,0.4,0.5c0.2,0.2,0.3,0.4,0.4,0.5l1.3,2.5h-3l-1.4-2.6
	c-0.2-0.3-0.3-0.6-0.5-0.7c-0.2-0.1-0.4-0.2-0.7-0.2h-0.2v3.5H330z M332.7,196.7h1.1c0.1,0,0.4,0,0.7-0.1c0.2,0,0.3-0.1,0.4-0.3
	s0.2-0.3,0.2-0.5c0-0.3-0.1-0.5-0.3-0.6s-0.5-0.2-1-0.2h-1.2V196.7z"/>
<path d="M339.3,193.3h2.5l3.2,4.8v-4.8h2.5v8.6H345l-3.2-4.7v4.7h-2.5V193.3z"/>
<path d="M349.4,193.3h2.7v8.6h-2.7V193.3z"/>
<path d="M354,193.3h2.5l3.2,4.8v-4.8h2.5v8.6h-2.5l-3.2-4.7v4.7H354V193.3z"/>
<path d="M368.3,198.7v-1.8h4.1v3.7c-0.8,0.5-1.5,0.9-2.1,1.1s-1.3,0.3-2.1,0.3c-1,0-1.9-0.2-2.5-0.5s-1.1-0.9-1.5-1.6
	s-0.5-1.5-0.5-2.4c0-0.9,0.2-1.8,0.6-2.4s1-1.2,1.7-1.6c0.6-0.3,1.4-0.4,2.3-0.4c0.9,0,1.7,0.1,2.1,0.3s0.9,0.4,1.2,0.8
	s0.5,0.8,0.7,1.4l-2.6,0.5c-0.1-0.3-0.3-0.6-0.5-0.7s-0.6-0.3-1-0.3c-0.6,0-1,0.2-1.4,0.6s-0.5,1-0.5,1.9c0,0.9,0.2,1.6,0.5,2
	s0.8,0.6,1.5,0.6c0.3,0,0.6,0,0.8-0.1s0.6-0.2,0.9-0.4v-0.8H368.3z"/>
<path d="M389.9,200.4h-3l-0.4,1.4h-2.7l3.2-8.6h2.9l3.2,8.6h-2.8L389.9,200.4z M389.3,198.6l-0.9-3.1l-0.9,3.1H389.3z"/>
<path d="M393.9,193.3h5c0.8,0,1.5,0.2,1.9,0.6s0.7,0.9,0.7,1.5c0,0.5-0.2,0.9-0.5,1.3c-0.2,0.2-0.5,0.4-0.9,0.6
	c0.6,0.1,1.1,0.4,1.4,0.8s0.4,0.8,0.4,1.4c0,0.4-0.1,0.8-0.3,1.2s-0.5,0.6-0.8,0.8c-0.2,0.1-0.6,0.2-1,0.3c-0.6,0.1-1,0.1-1.2,0.1
	h-4.6V193.3z M396.6,196.6h1.2c0.4,0,0.7-0.1,0.9-0.2s0.2-0.3,0.2-0.6c0-0.2-0.1-0.4-0.2-0.6s-0.4-0.2-0.8-0.2h-1.2V196.6z
	 M396.6,200h1.4c0.5,0,0.8-0.1,1-0.2s0.3-0.4,0.3-0.7c0-0.3-0.1-0.5-0.3-0.6s-0.5-0.2-1-0.2h-1.3V200z"/>
<path d="M402.9,197.6c0-1.4,0.4-2.5,1.2-3.3s1.9-1.2,3.3-1.2c1.4,0,2.5,0.4,3.3,1.2s1.2,1.8,1.2,3.2c0,1-0.2,1.8-0.5,2.5
	s-0.8,1.1-1.5,1.5s-1.4,0.5-2.4,0.5c-1,0-1.8-0.2-2.4-0.5s-1.1-0.8-1.5-1.5S402.9,198.6,402.9,197.6z M405.6,197.6
	c0,0.9,0.2,1.5,0.5,1.9s0.8,0.6,1.3,0.6c0.6,0,1-0.2,1.3-0.6s0.5-1,0.5-2c0-0.8-0.2-1.4-0.5-1.8s-0.8-0.6-1.3-0.6
	c-0.5,0-1,0.2-1.3,0.6S405.6,196.7,405.6,197.6z"/>
<path d="M418.8,193.3h2.6v5.1c0,0.5-0.1,1-0.2,1.4c-0.2,0.5-0.4,0.8-0.7,1.2s-0.7,0.6-1.1,0.7c-0.5,0.2-1.1,0.3-1.9,0.3
	c-0.4,0-0.9,0-1.4-0.1s-0.9-0.2-1.2-0.3s-0.6-0.4-0.9-0.7s-0.5-0.7-0.6-1c-0.2-0.5-0.2-1-0.2-1.5v-5.1h2.6v5.2
	c0,0.5,0.1,0.8,0.4,1.1c0.3,0.3,0.6,0.4,1.1,0.4c0.5,0,0.8-0.1,1.1-0.4c0.3-0.3,0.4-0.6,0.4-1.1V193.3z"/>
<path d="M422.6,193.3h8.1v2.1H428v6.5h-2.7v-6.5h-2.7V193.3z"/>
<path d="M441.9,193.3h8.1v2.1h-2.7v6.5h-2.7v-6.5h-2.7V193.3z"/>
<path d="M451.2,193.3h2.7v3h2.9v-3h2.7v8.6h-2.7v-3.5h-2.9v3.5h-2.7V193.3z"/>
<path d="M461.2,193.3h7.1v1.8h-4.5v1.4h4.1v1.8h-4.1v1.7h4.6v1.9h-7.2V193.3z"/>
<path d="M9.1,207.7h6.6v1.8h-3.9v1.5h3.3v1.7h-3.3v3.5H9.1V207.7z"/>
<path d="M21.2,214.8h-3l-0.4,1.4h-2.7l3.2-8.6h2.9l3.2,8.6h-2.8L21.2,214.8z M20.7,213l-0.9-3.1l-0.9,3.1H20.7z"/>
<path d="M25.3,207.7h2.5l3.2,4.8v-4.8h2.5v8.6H31l-3.2-4.7v4.7h-2.5V207.7z"/>
<path d="M34.7,207.7h8.1v2.1H40v6.5h-2.7v-6.5h-2.7V207.7z"/>
<path d="M48.4,214.8h-3l-0.4,1.4h-2.7l3.2-8.6h2.9l3.2,8.6h-2.8L48.4,214.8z M47.9,213l-0.9-3.1L46,213H47.9z"/>
<path d="M52,213.4l2.5-0.2c0.1,0.4,0.2,0.7,0.3,0.9c0.3,0.3,0.7,0.5,1.2,0.5c0.4,0,0.7-0.1,0.9-0.3s0.3-0.4,0.3-0.6
	c0-0.2-0.1-0.4-0.3-0.6s-0.6-0.3-1.4-0.5c-1.2-0.3-2-0.6-2.5-1c-0.5-0.4-0.8-1-0.8-1.7c0-0.4,0.1-0.9,0.4-1.3s0.6-0.7,1.2-0.9
	s1.2-0.3,2.1-0.3c1.1,0,1.9,0.2,2.5,0.6s0.9,1.1,1,1.9l-2.5,0.1c-0.1-0.4-0.2-0.7-0.4-0.8s-0.5-0.3-0.9-0.3c-0.3,0-0.5,0.1-0.7,0.2
	s-0.2,0.3-0.2,0.5c0,0.1,0.1,0.3,0.2,0.4c0.1,0.1,0.4,0.2,0.9,0.3c1.2,0.2,2,0.5,2.5,0.8s0.9,0.6,1.1,1s0.3,0.8,0.3,1.3
	c0,0.6-0.2,1.1-0.5,1.5s-0.7,0.8-1.3,1.1s-1.2,0.4-2.1,0.4c-1.5,0-2.5-0.3-3-0.8S52.1,214.3,52,213.4z"/>
<path d="M60.5,207.7h8.1v2.1h-2.7v6.5h-2.7v-6.5h-2.7V207.7z"/>
<path d="M69.9,207.7h2.7v8.6h-2.7V207.7z"/>
<path d="M80.2,212.7l2.3,0.7c-0.2,0.7-0.4,1.2-0.7,1.6s-0.8,0.8-1.3,1s-1.1,0.3-1.9,0.3c-0.9,0-1.7-0.1-2.3-0.4
	c-0.6-0.3-1.1-0.7-1.5-1.4c-0.4-0.7-0.6-1.6-0.6-2.6c0-1.4,0.4-2.5,1.1-3.3c0.8-0.8,1.8-1.1,3.2-1.1c1.1,0,1.9,0.2,2.6,0.7
	s1.1,1.1,1.4,2l-2.3,0.5c-0.1-0.3-0.2-0.5-0.3-0.6c-0.1-0.2-0.3-0.4-0.5-0.5s-0.5-0.2-0.7-0.2c-0.6,0-1.1,0.2-1.4,0.7
	c-0.2,0.4-0.4,0.9-0.4,1.7c0,1,0.1,1.6,0.4,2c0.3,0.4,0.7,0.5,1.2,0.5c0.5,0,0.9-0.1,1.2-0.4S80.1,213.3,80.2,212.7z"/>
<path d="M92.1,213.1v-1.8h4.1v3.7c-0.8,0.5-1.5,0.9-2.1,1.1s-1.3,0.3-2.1,0.3c-1,0-1.9-0.2-2.5-0.5s-1.1-0.9-1.5-1.6
	s-0.5-1.5-0.5-2.4c0-0.9,0.2-1.8,0.6-2.4s1-1.2,1.7-1.6c0.6-0.3,1.4-0.4,2.3-0.4c0.9,0,1.7,0.1,2.1,0.3s0.9,0.4,1.2,0.8
	s0.5,0.8,0.7,1.4l-2.6,0.5c-0.1-0.3-0.3-0.6-0.5-0.7s-0.6-0.3-1-0.3c-0.6,0-1,0.2-1.4,0.6s-0.5,1-0.5,1.9c0,0.9,0.2,1.6,0.5,2
	s0.8,0.6,1.5,0.6c0.3,0,0.6,0,0.8-0.1s0.6-0.2,0.9-0.4v-0.8H92.1z"/>
<path d="M97.3,213.4l2.5-0.2c0.1,0.4,0.2,0.7,0.3,0.9c0.3,0.3,0.7,0.5,1.2,0.5c0.4,0,0.7-0.1,0.9-0.3s0.3-0.4,0.3-0.6
	c0-0.2-0.1-0.4-0.3-0.6s-0.6-0.3-1.4-0.5c-1.2-0.3-2-0.6-2.5-1c-0.5-0.4-0.8-1-0.8-1.7c0-0.4,0.1-0.9,0.4-1.3s0.6-0.7,1.2-0.9
	s1.2-0.3,2.1-0.3c1.1,0,1.9,0.2,2.5,0.6s0.9,1.1,1,1.9l-2.5,0.1c-0.1-0.4-0.2-0.7-0.4-0.8s-0.5-0.3-0.9-0.3c-0.3,0-0.5,0.1-0.7,0.2
	s-0.2,0.3-0.2,0.5c0,0.1,0.1,0.3,0.2,0.4c0.1,0.1,0.4,0.2,0.9,0.3c1.2,0.2,2,0.5,2.5,0.8s0.9,0.6,1.1,1s0.3,0.8,0.3,1.3
	c0,0.6-0.2,1.1-0.5,1.5s-0.7,0.8-1.3,1.1s-1.2,0.4-2.1,0.4c-1.5,0-2.5-0.3-3-0.8S97.4,214.3,97.3,213.4z"/>
<path d="M111.7,214.8h-3l-0.4,1.4h-2.7l3.2-8.6h2.9l3.2,8.6h-2.8L111.7,214.8z M111.2,213l-0.9-3.1l-0.9,3.1H111.2z"/>
<path d="M115.8,207.7h4.4c1,0,1.7,0.2,2.2,0.7s0.7,1.1,0.7,2c0,0.9-0.3,1.5-0.8,2s-1.3,0.7-2.4,0.7h-1.5v3.2h-2.7V207.7z
	 M118.4,211.3h0.7c0.5,0,0.9-0.1,1.1-0.3s0.3-0.4,0.3-0.7c0-0.3-0.1-0.5-0.3-0.7s-0.5-0.3-1-0.3h-0.8V211.3z"/>
<path d="M132,207.7h2.7v4.7c0,1-0.1,1.7-0.3,2.2c-0.2,0.5-0.5,0.9-1,1.3c-0.5,0.4-1.2,0.5-2,0.5c-0.9,0-1.5-0.1-2-0.4
	s-0.8-0.6-1.1-1s-0.4-1-0.5-1.7l2.5-0.3c0,0.4,0,0.7,0.1,0.8s0.2,0.3,0.3,0.4c0.1,0.1,0.2,0.1,0.4,0.1c0.3,0,0.5-0.1,0.7-0.3
	c0.1-0.2,0.2-0.6,0.2-1.1V207.7z"/>
<path d="M141.4,214.8h-3l-0.4,1.4h-2.7l3.2-8.6h2.9l3.2,8.6h-2.8L141.4,214.8z M140.8,213l-0.9-3.1l-0.9,3.1H140.8z"/>
<path d="M143.9,207.7h2.8l1.9,6.2l1.9-6.2h2.7l-3.2,8.6h-2.9L143.9,207.7z"/>
<path d="M158.7,214.8h-3l-0.4,1.4h-2.7l3.2-8.6h2.9l3.2,8.6h-2.8L158.7,214.8z M158.1,213l-0.9-3.1l-0.9,3.1H158.1z"/>
<path d="M162.3,213.4l2.5-0.2c0.1,0.4,0.2,0.7,0.3,0.9c0.3,0.3,0.7,0.5,1.2,0.5c0.4,0,0.7-0.1,0.9-0.3s0.3-0.4,0.3-0.6
	c0-0.2-0.1-0.4-0.3-0.6s-0.6-0.3-1.4-0.5c-1.2-0.3-2-0.6-2.5-1c-0.5-0.4-0.8-1-0.8-1.7c0-0.4,0.1-0.9,0.4-1.3s0.6-0.7,1.2-0.9
	s1.2-0.3,2.1-0.3c1.1,0,1.9,0.2,2.5,0.6s0.9,1.1,1,1.9l-2.5,0.1c-0.1-0.4-0.2-0.7-0.4-0.8s-0.5-0.3-0.9-0.3c-0.3,0-0.5,0.1-0.7,0.2
	s-0.2,0.3-0.2,0.5c0,0.1,0.1,0.3,0.2,0.4c0.1,0.1,0.4,0.2,0.9,0.3c1.2,0.2,2,0.5,2.5,0.8s0.9,0.6,1.1,1s0.3,0.8,0.3,1.3
	c0,0.6-0.2,1.1-0.5,1.5s-0.7,0.8-1.3,1.1s-1.2,0.4-2.1,0.4c-1.5,0-2.5-0.3-3-0.8S162.4,214.3,162.3,213.4z"/>
<path d="M177.1,212.7l2.3,0.7c-0.2,0.7-0.4,1.2-0.7,1.6s-0.8,0.8-1.3,1s-1.1,0.3-1.9,0.3c-0.9,0-1.7-0.1-2.3-0.4
	c-0.6-0.3-1.1-0.7-1.5-1.4c-0.4-0.7-0.6-1.6-0.6-2.6c0-1.4,0.4-2.5,1.1-3.3c0.8-0.8,1.8-1.1,3.2-1.1c1.1,0,1.9,0.2,2.6,0.7
	s1.1,1.1,1.4,2l-2.3,0.5c-0.1-0.3-0.2-0.5-0.3-0.6c-0.1-0.2-0.3-0.4-0.5-0.5s-0.5-0.2-0.7-0.2c-0.6,0-1.1,0.2-1.4,0.7
	c-0.2,0.4-0.4,0.9-0.4,1.7c0,1,0.1,1.6,0.4,2c0.3,0.4,0.7,0.5,1.2,0.5c0.5,0,0.9-0.1,1.2-0.4S177,213.3,177.1,212.7z"/>
<path d="M180.8,216.2v-8.6h4.4c0.8,0,1.4,0.1,1.9,0.2s0.8,0.4,1,0.8s0.4,0.8,0.4,1.4c0,0.5-0.1,0.9-0.3,1.2s-0.5,0.6-0.8,0.8
	c-0.2,0.1-0.5,0.2-0.9,0.3c0.3,0.1,0.5,0.2,0.7,0.3c0.1,0.1,0.2,0.2,0.4,0.5c0.2,0.2,0.3,0.4,0.4,0.5l1.3,2.5h-3l-1.4-2.6
	c-0.2-0.3-0.3-0.6-0.5-0.7c-0.2-0.1-0.4-0.2-0.7-0.2h-0.2v3.5H180.8z M183.4,211.1h1.1c0.1,0,0.4,0,0.7-0.1c0.2,0,0.3-0.1,0.4-0.3
	s0.2-0.3,0.2-0.5c0-0.3-0.1-0.5-0.3-0.6s-0.5-0.2-1-0.2h-1.2V211.1z"/>
<path d="M190.2,207.7h2.7v8.6h-2.7V207.7z"/>
<path d="M194.7,207.7h4.4c1,0,1.7,0.2,2.2,0.7s0.7,1.1,0.7,2c0,0.9-0.3,1.5-0.8,2s-1.3,0.7-2.4,0.7h-1.5v3.2h-2.7V207.7z
	 M197.4,211.3h0.7c0.5,0,0.9-0.1,1.1-0.3s0.3-0.4,0.3-0.7c0-0.3-0.1-0.5-0.3-0.7s-0.5-0.3-1-0.3h-0.8V211.3z"/>
<path d="M202.8,207.7h8.1v2.1h-2.7v6.5h-2.7v-6.5h-2.7V207.7z"/>
<path d="M221.3,214.8h-3l-0.4,1.4h-2.7l3.2-8.6h2.9l3.2,8.6h-2.8L221.3,214.8z M220.8,213l-0.9-3.1l-0.9,3.1H220.8z"/>
<path d="M225.4,207.7h2.5l3.2,4.8v-4.8h2.5v8.6h-2.5l-3.2-4.7v4.7h-2.5V207.7z"/>
<path d="M235.5,207.7h2.7v8.6h-2.7V207.7z"/>
<path d="M240,207.7h3.5l1.3,5.2l1.3-5.2h3.5v8.6h-2.2v-6.6l-1.7,6.6h-2l-1.7-6.6v6.6H240V207.7z"/>
<path d="M256.7,214.8h-3l-0.4,1.4h-2.7l3.2-8.6h2.9l3.2,8.6h-2.8L256.7,214.8z M256.1,213l-0.9-3.1l-0.9,3.1H256.1z"/>
<path d="M259.3,207.7h8.1v2.1h-2.7v6.5H262v-6.5h-2.7V207.7z"/>
<path d="M268.7,207.7h2.7v8.6h-2.7V207.7z"/>
<path d="M272.9,212c0-1.4,0.4-2.5,1.2-3.3c0.8-0.8,1.9-1.2,3.3-1.2c1.4,0,2.5,0.4,3.3,1.2s1.2,1.8,1.2,3.2c0,1-0.2,1.8-0.5,2.5
	s-0.8,1.1-1.5,1.5s-1.4,0.5-2.4,0.5c-1,0-1.8-0.2-2.4-0.5s-1.1-0.8-1.5-1.5C273.1,213.8,272.9,213,272.9,212z M275.5,212
	c0,0.9,0.2,1.5,0.5,1.9s0.8,0.6,1.3,0.6c0.6,0,1-0.2,1.3-0.6s0.5-1,0.5-2c0-0.8-0.2-1.4-0.5-1.8s-0.8-0.6-1.3-0.6
	c-0.5,0-1,0.2-1.3,0.6S275.5,211.1,275.5,212z"/>
<path d="M283.2,207.7h2.5l3.2,4.8v-4.8h2.5v8.6h-2.5l-3.2-4.7v4.7h-2.5V207.7z"/>
<path d="M297.2,207.7h2.7v6.5h4.1v2.1h-6.8V207.7z"/>
<path d="M305.3,207.7h2.7v8.6h-2.7V207.7z"/>
<path d="M309.9,207.7h5c0.8,0,1.5,0.2,1.9,0.6s0.7,0.9,0.7,1.5c0,0.5-0.2,0.9-0.5,1.3c-0.2,0.2-0.5,0.4-0.9,0.6
	c0.6,0.1,1.1,0.4,1.4,0.8s0.4,0.8,0.4,1.4c0,0.4-0.1,0.8-0.3,1.2s-0.5,0.6-0.8,0.8c-0.2,0.1-0.6,0.2-1,0.3c-0.6,0.1-1,0.1-1.2,0.1
	h-4.6V207.7z M312.5,211h1.2c0.4,0,0.7-0.1,0.9-0.2s0.2-0.3,0.2-0.6c0-0.2-0.1-0.4-0.2-0.6s-0.4-0.2-0.8-0.2h-1.2V211z M312.5,214.4
	h1.4c0.5,0,0.8-0.1,1-0.2s0.3-0.4,0.3-0.7c0-0.3-0.1-0.5-0.3-0.6s-0.5-0.2-1-0.2h-1.3V214.4z"/>
<path d="M319.2,216.2v-8.6h4.4c0.8,0,1.4,0.1,1.9,0.2s0.8,0.4,1,0.8s0.4,0.8,0.4,1.4c0,0.5-0.1,0.9-0.3,1.2s-0.5,0.6-0.8,0.8
	c-0.2,0.1-0.5,0.2-0.9,0.3c0.3,0.1,0.5,0.2,0.7,0.3c0.1,0.1,0.2,0.2,0.4,0.5c0.2,0.2,0.3,0.4,0.4,0.5l1.3,2.5h-3l-1.4-2.6
	c-0.2-0.3-0.3-0.6-0.5-0.7c-0.2-0.1-0.4-0.2-0.7-0.2h-0.2v3.5H319.2z M321.9,211.1h1.1c0.1,0,0.4,0,0.7-0.1c0.2,0,0.3-0.1,0.4-0.3
	s0.2-0.3,0.2-0.5c0-0.3-0.1-0.5-0.3-0.6s-0.5-0.2-1-0.2h-1.2V211.1z"/>
<path d="M333.8,214.8h-3l-0.4,1.4h-2.7l3.2-8.6h2.9l3.2,8.6h-2.8L333.8,214.8z M333.2,213l-0.9-3.1l-0.9,3.1H333.2z"/>
<path d="M337.9,216.2v-8.6h4.4c0.8,0,1.4,0.1,1.9,0.2s0.8,0.4,1,0.8s0.4,0.8,0.4,1.4c0,0.5-0.1,0.9-0.3,1.2s-0.5,0.6-0.8,0.8
	c-0.2,0.1-0.5,0.2-0.9,0.3c0.3,0.1,0.5,0.2,0.7,0.3c0.1,0.1,0.2,0.2,0.4,0.5c0.2,0.2,0.3,0.4,0.4,0.5l1.3,2.5h-3l-1.4-2.6
	c-0.2-0.3-0.3-0.6-0.5-0.7c-0.2-0.1-0.4-0.2-0.7-0.2h-0.2v3.5H337.9z M340.5,211.1h1.1c0.1,0,0.4,0,0.7-0.1c0.2,0,0.3-0.1,0.4-0.3
	s0.2-0.3,0.2-0.5c0-0.3-0.1-0.5-0.3-0.6s-0.5-0.2-1-0.2h-1.2V211.1z"/>
<path d="M345.8,207.7h2.9l1.7,2.9l1.7-2.9h2.9l-3.3,5v3.6h-2.7v-3.6L345.8,207.7z"/>
<path d="M365.2,214.8h-3l-0.4,1.4h-2.7l3.2-8.6h2.9l3.2,8.6h-2.8L365.2,214.8z M364.7,213l-0.9-3.1l-0.9,3.1H364.7z"/>
<path d="M369.3,207.7h2.5l3.2,4.8v-4.8h2.5v8.6H375l-3.2-4.7v4.7h-2.5V207.7z"/>
<path d="M379.3,207.7h3.9c0.8,0,1.4,0.1,1.9,0.3s0.9,0.5,1.2,0.9s0.5,0.9,0.7,1.4s0.2,1.1,0.2,1.7c0,0.9-0.1,1.6-0.3,2.1
	s-0.5,0.9-0.9,1.3s-0.8,0.6-1.2,0.7c-0.6,0.2-1.1,0.2-1.6,0.2h-3.9V207.7z M382,209.6v4.7h0.7c0.6,0,0.9-0.1,1.2-0.2
	s0.4-0.3,0.6-0.6s0.2-0.8,0.2-1.5c0-0.9-0.1-1.5-0.4-1.9s-0.8-0.5-1.5-0.5H382z"/>
<path d="M392.7,207.7h2.7v8.6h-2.7V207.7z"/>
<path d="M396.7,207.7h8.1v2.1H402v6.5h-2.7v-6.5h-2.7V207.7z"/>
<path d="M410,207.7h2.7v8.6H410V207.7z"/>
<path d="M414.1,213.4l2.5-0.2c0.1,0.4,0.2,0.7,0.3,0.9c0.3,0.3,0.7,0.5,1.2,0.5c0.4,0,0.7-0.1,0.9-0.3s0.3-0.4,0.3-0.6
	c0-0.2-0.1-0.4-0.3-0.6s-0.6-0.3-1.4-0.5c-1.2-0.3-2-0.6-2.5-1c-0.5-0.4-0.8-1-0.8-1.7c0-0.4,0.1-0.9,0.4-1.3s0.6-0.7,1.2-0.9
	s1.2-0.3,2.1-0.3c1.1,0,1.9,0.2,2.5,0.6s0.9,1.1,1,1.9l-2.5,0.1c-0.1-0.4-0.2-0.7-0.4-0.8s-0.5-0.3-0.9-0.3c-0.3,0-0.5,0.1-0.7,0.2
	s-0.2,0.3-0.2,0.5c0,0.1,0.1,0.3,0.2,0.4c0.1,0.1,0.4,0.2,0.9,0.3c1.2,0.2,2,0.5,2.5,0.8s0.9,0.6,1.1,1s0.3,0.8,0.3,1.3
	c0,0.6-0.2,1.1-0.5,1.5s-0.7,0.8-1.3,1.1s-1.2,0.4-2.1,0.4c-1.5,0-2.5-0.3-3-0.8S414.2,214.3,414.1,213.4z"/>
<path d="M427.2,207.7h5c0.8,0,1.5,0.2,1.9,0.6s0.7,0.9,0.7,1.5c0,0.5-0.2,0.9-0.5,1.3c-0.2,0.2-0.5,0.4-0.9,0.6
	c0.6,0.1,1.1,0.4,1.4,0.8s0.4,0.8,0.4,1.4c0,0.4-0.1,0.8-0.3,1.2s-0.5,0.6-0.8,0.8c-0.2,0.1-0.6,0.2-1,0.3c-0.6,0.1-1,0.1-1.2,0.1
	h-4.6V207.7z M429.9,211h1.2c0.4,0,0.7-0.1,0.9-0.2s0.2-0.3,0.2-0.6c0-0.2-0.1-0.4-0.2-0.6s-0.4-0.2-0.8-0.2h-1.2V211z M429.9,214.4
	h1.4c0.5,0,0.8-0.1,1-0.2s0.3-0.4,0.3-0.7c0-0.3-0.1-0.5-0.3-0.6s-0.5-0.2-1-0.2h-1.3V214.4z"/>
<path d="M436.5,207.7h7.1v1.8h-4.5v1.4h4.1v1.8h-4.1v1.7h4.6v1.9h-7.2V207.7z"/>
<path d="M445.3,207.7h2.7v8.6h-2.7V207.7z"/>
<path d="M449.9,207.7h2.5l3.2,4.8v-4.8h2.5v8.6h-2.5l-3.2-4.7v4.7h-2.5V207.7z"/>
<path d="M464.2,213.1v-1.8h4.1v3.7c-0.8,0.5-1.5,0.9-2.1,1.1s-1.3,0.3-2.1,0.3c-1,0-1.9-0.2-2.5-0.5s-1.1-0.9-1.5-1.6
	s-0.5-1.5-0.5-2.4c0-0.9,0.2-1.8,0.6-2.4s1-1.2,1.7-1.6c0.6-0.3,1.4-0.4,2.3-0.4c0.9,0,1.7,0.1,2.1,0.3s0.9,0.4,1.2,0.8
	s0.5,0.8,0.7,1.4l-2.6,0.5c-0.1-0.3-0.3-0.6-0.5-0.7s-0.6-0.3-1-0.3c-0.6,0-1,0.2-1.4,0.6s-0.5,1-0.5,1.9c0,0.9,0.2,1.6,0.5,2
	s0.8,0.6,1.5,0.6c0.3,0,0.6,0,0.8-0.1s0.6-0.2,0.9-0.4v-0.8H464.2z"/>
<path d="M112.4,222.1h2.6v5.1c0,0.5-0.1,1-0.2,1.4c-0.2,0.5-0.4,0.8-0.7,1.2s-0.7,0.6-1.1,0.7c-0.5,0.2-1.1,0.3-1.9,0.3
	c-0.4,0-0.9,0-1.4-0.1s-0.9-0.2-1.2-0.3s-0.6-0.4-0.9-0.7s-0.5-0.7-0.6-1c-0.2-0.5-0.2-1-0.2-1.5v-5.1h2.6v5.2
	c0,0.5,0.1,0.8,0.4,1.1c0.3,0.3,0.6,0.4,1.1,0.4c0.5,0,0.8-0.1,1.1-0.4c0.3-0.3,0.4-0.6,0.4-1.1V222.1z"/>
<path d="M116.3,227.8l2.5-0.2c0.1,0.4,0.2,0.7,0.3,0.9c0.3,0.3,0.7,0.5,1.2,0.5c0.4,0,0.7-0.1,0.9-0.3s0.3-0.4,0.3-0.6
	c0-0.2-0.1-0.4-0.3-0.6s-0.6-0.3-1.4-0.5c-1.2-0.3-2-0.6-2.5-1c-0.5-0.4-0.8-1-0.8-1.7c0-0.4,0.1-0.9,0.4-1.3s0.6-0.7,1.2-0.9
	s1.2-0.3,2.1-0.3c1.1,0,1.9,0.2,2.5,0.6s0.9,1.1,1,1.9l-2.5,0.1c-0.1-0.4-0.2-0.7-0.4-0.8s-0.5-0.3-0.9-0.3c-0.3,0-0.5,0.1-0.7,0.2
	s-0.2,0.3-0.2,0.5c0,0.1,0.1,0.3,0.2,0.4c0.1,0.1,0.4,0.2,0.9,0.3c1.2,0.2,2,0.5,2.5,0.8s0.9,0.6,1.1,1s0.3,0.8,0.3,1.3
	c0,0.6-0.2,1.1-0.5,1.5s-0.7,0.8-1.3,1.1s-1.2,0.4-2.1,0.4c-1.5,0-2.5-0.3-3-0.8S116.4,228.7,116.3,227.8z"/>
<path d="M125.4,222.1h7.1v1.8h-4.5v1.4h4.1v1.8h-4.1v1.7h4.6v1.9h-7.2V222.1z"/>
<path d="M134.1,222.1h3.9c0.8,0,1.4,0.1,1.9,0.3s0.9,0.5,1.2,0.9s0.5,0.9,0.7,1.4s0.2,1.1,0.2,1.7c0,0.9-0.1,1.6-0.3,2.1
	s-0.5,0.9-0.9,1.3s-0.8,0.6-1.2,0.7c-0.6,0.2-1.1,0.2-1.6,0.2h-3.9V222.1z M136.8,224v4.7h0.7c0.6,0,0.9-0.1,1.2-0.2
	s0.4-0.3,0.6-0.6s0.2-0.8,0.2-1.5c0-0.9-0.1-1.5-0.4-1.9s-0.8-0.5-1.5-0.5H136.8z"/>
<path d="M146.8,222.1h8.1v2.1h-2.7v6.5h-2.7v-6.5h-2.7V222.1z"/>
<path d="M156.1,222.1h2.7v3h2.9v-3h2.7v8.6h-2.7v-3.5h-2.9v3.5h-2.7V222.1z"/>
<path d="M166.1,230.6v-8.6h4.4c0.8,0,1.4,0.1,1.9,0.2s0.8,0.4,1,0.8s0.4,0.8,0.4,1.4c0,0.5-0.1,0.9-0.3,1.2
	c-0.2,0.3-0.5,0.6-0.8,0.8c-0.2,0.1-0.5,0.2-0.9,0.3c0.3,0.1,0.5,0.2,0.7,0.3c0.1,0.1,0.2,0.2,0.4,0.5c0.2,0.2,0.3,0.4,0.4,0.5
	l1.3,2.5h-3l-1.4-2.6c-0.2-0.3-0.3-0.6-0.5-0.7c-0.2-0.1-0.4-0.2-0.7-0.2h-0.2v3.5H166.1z M168.8,225.5h1.1c0.1,0,0.4,0,0.7-0.1
	c0.2,0,0.3-0.1,0.4-0.3s0.2-0.3,0.2-0.5c0-0.3-0.1-0.5-0.3-0.6s-0.5-0.2-1-0.2h-1.2V225.5z"/>
<path d="M174.9,226.4c0-1.4,0.4-2.5,1.2-3.3s1.9-1.2,3.3-1.2c1.4,0,2.5,0.4,3.3,1.2s1.2,1.8,1.2,3.2c0,1-0.2,1.8-0.5,2.5
	s-0.8,1.1-1.5,1.5s-1.4,0.5-2.4,0.5c-1,0-1.8-0.2-2.4-0.5s-1.1-0.8-1.5-1.5S174.9,227.4,174.9,226.4z M177.5,226.4
	c0,0.9,0.2,1.5,0.5,1.9s0.8,0.6,1.3,0.6c0.6,0,1-0.2,1.3-0.6s0.5-1,0.5-2c0-0.8-0.2-1.4-0.5-1.8s-0.8-0.6-1.3-0.6
	c-0.5,0-1,0.2-1.3,0.6S177.5,225.5,177.5,226.4z"/>
<path d="M190.8,222.1h2.6v5.1c0,0.5-0.1,1-0.2,1.4c-0.2,0.5-0.4,0.8-0.7,1.2s-0.7,0.6-1.1,0.7c-0.5,0.2-1.1,0.3-1.9,0.3
	c-0.4,0-0.9,0-1.4-0.1s-0.9-0.2-1.2-0.3s-0.6-0.4-0.9-0.7s-0.5-0.7-0.6-1c-0.2-0.5-0.2-1-0.2-1.5v-5.1h2.6v5.2
	c0,0.5,0.1,0.8,0.4,1.1c0.3,0.3,0.6,0.4,1.1,0.4c0.5,0,0.8-0.1,1.1-0.4c0.3-0.3,0.4-0.6,0.4-1.1V222.1z"/>
<path d="M199.5,227.5v-1.8h4.1v3.7c-0.8,0.5-1.5,0.9-2.1,1.1s-1.3,0.3-2.1,0.3c-1,0-1.9-0.2-2.5-0.5s-1.1-0.9-1.5-1.6
	s-0.5-1.5-0.5-2.4c0-0.9,0.2-1.8,0.6-2.4s1-1.2,1.7-1.6c0.6-0.3,1.4-0.4,2.3-0.4c0.9,0,1.7,0.1,2.1,0.3s0.9,0.4,1.2,0.8
	s0.5,0.8,0.7,1.4l-2.6,0.5c-0.1-0.3-0.3-0.6-0.5-0.7s-0.6-0.3-1-0.3c-0.6,0-1,0.2-1.4,0.6s-0.5,1-0.5,1.9c0,0.9,0.2,1.6,0.5,2
	s0.8,0.6,1.5,0.6c0.3,0,0.6,0,0.8-0.1s0.6-0.2,0.9-0.4v-0.8H199.5z"/>
<path d="M205.2,222.1h2.7v3h2.9v-3h2.7v8.6h-2.7v-3.5h-2.9v3.5h-2.7V222.1z"/>
<path d="M214.9,226.4c0-1.4,0.4-2.5,1.2-3.3s1.9-1.2,3.3-1.2c1.4,0,2.5,0.4,3.3,1.2s1.2,1.8,1.2,3.2c0,1-0.2,1.8-0.5,2.5
	s-0.8,1.1-1.5,1.5s-1.4,0.5-2.4,0.5c-1,0-1.8-0.2-2.4-0.5s-1.1-0.8-1.5-1.5S214.9,227.4,214.9,226.4z M217.5,226.4
	c0,0.9,0.2,1.5,0.5,1.9s0.8,0.6,1.3,0.6c0.6,0,1-0.2,1.3-0.6s0.5-1,0.5-2c0-0.8-0.2-1.4-0.5-1.8s-0.8-0.6-1.3-0.6
	c-0.5,0-1,0.2-1.3,0.6S217.5,225.5,217.5,226.4z"/>
<path d="M230.8,222.1h2.6v5.1c0,0.5-0.1,1-0.2,1.4c-0.2,0.5-0.4,0.8-0.7,1.2s-0.7,0.6-1.1,0.7c-0.5,0.2-1.1,0.3-1.9,0.3
	c-0.4,0-0.9,0-1.4-0.1s-0.9-0.2-1.2-0.3s-0.6-0.4-0.9-0.7s-0.5-0.7-0.6-1c-0.2-0.5-0.2-1-0.2-1.5v-5.1h2.6v5.2
	c0,0.5,0.1,0.8,0.4,1.1c0.3,0.3,0.6,0.4,1.1,0.4c0.5,0,0.8-0.1,1.1-0.4c0.3-0.3,0.4-0.6,0.4-1.1V222.1z"/>
<path d="M234.6,222.1h8.1v2.1H240v6.5h-2.7v-6.5h-2.7V222.1z"/>
<path d="M247.3,222.1h8.1v2.1h-2.7v6.5H250v-6.5h-2.7V222.1z"/>
<path d="M256.5,222.1h2.7v3h2.9v-3h2.7v8.6h-2.7v-3.5h-2.9v3.5h-2.7V222.1z"/>
<path d="M266.6,222.1h2.7v8.6h-2.7V222.1z"/>
<path d="M270.7,227.8l2.5-0.2c0.1,0.4,0.2,0.7,0.3,0.9c0.3,0.3,0.7,0.5,1.2,0.5c0.4,0,0.7-0.1,0.9-0.3s0.3-0.4,0.3-0.6
	c0-0.2-0.1-0.4-0.3-0.6s-0.6-0.3-1.4-0.5c-1.2-0.3-2-0.6-2.5-1c-0.5-0.4-0.8-1-0.8-1.7c0-0.4,0.1-0.9,0.4-1.3s0.6-0.7,1.2-0.9
	s1.2-0.3,2.1-0.3c1.1,0,1.9,0.2,2.5,0.6s0.9,1.1,1,1.9l-2.5,0.1c-0.1-0.4-0.2-0.7-0.4-0.8s-0.5-0.3-0.9-0.3c-0.3,0-0.5,0.1-0.7,0.2
	s-0.2,0.3-0.2,0.5c0,0.1,0.1,0.3,0.2,0.4c0.1,0.1,0.4,0.2,0.9,0.3c1.2,0.2,2,0.5,2.5,0.8s0.9,0.6,1.1,1s0.3,0.8,0.3,1.3
	c0,0.6-0.2,1.1-0.5,1.5s-0.7,0.8-1.3,1.1s-1.2,0.4-2.1,0.4c-1.5,0-2.5-0.3-3-0.8S270.8,228.7,270.7,227.8z"/>
<path d="M283.4,227.8l2.5-0.2c0.1,0.4,0.2,0.7,0.3,0.9c0.3,0.3,0.7,0.5,1.2,0.5c0.4,0,0.7-0.1,0.9-0.3s0.3-0.4,0.3-0.6
	c0-0.2-0.1-0.4-0.3-0.6s-0.6-0.3-1.4-0.5c-1.2-0.3-2-0.6-2.5-1c-0.5-0.4-0.8-1-0.8-1.7c0-0.4,0.1-0.9,0.4-1.3s0.6-0.7,1.2-0.9
	s1.2-0.3,2.1-0.3c1.1,0,1.9,0.2,2.5,0.6s0.9,1.1,1,1.9l-2.5,0.1c-0.1-0.4-0.2-0.7-0.4-0.8s-0.5-0.3-0.9-0.3c-0.3,0-0.5,0.1-0.7,0.2
	s-0.2,0.3-0.2,0.5c0,0.1,0.1,0.3,0.2,0.4c0.1,0.1,0.4,0.2,0.9,0.3c1.2,0.2,2,0.5,2.5,0.8s0.9,0.6,1.1,1s0.3,0.8,0.3,1.3
	c0,0.6-0.2,1.1-0.5,1.5s-0.7,0.8-1.3,1.1s-1.2,0.4-2.1,0.4c-1.5,0-2.5-0.3-3-0.8S283.5,228.7,283.4,227.8z"/>
<path d="M292.6,222.1h2.7v8.6h-2.7V222.1z"/>
<path d="M296.6,222.1h8.1v2.1H302v6.5h-2.7v-6.5h-2.7V222.1z"/>
<path d="M305.9,222.1h7.1v1.8h-4.5v1.4h4.1v1.8h-4.1v1.7h4.6v1.9h-7.2V222.1z"/>
<path d="M314.4,228.3h2.5v2.4h-2.5V228.3z"/>
<path d="M318.4,228.3h2.5v2.4h-2.5V228.3z"/>
<path d="M322.4,228.3h2.5v2.4h-2.5V228.3z"/>
<path d="M326.4,228.3h2.5v2.4h-2.5V228.3z"/>
<path d="M335.8,229.2h-3l-0.4,1.4h-2.7l3.2-8.6h2.9l3.2,8.6h-2.8L335.8,229.2z M335.3,227.4l-0.9-3.1l-0.9,3.1H335.3z"/>
<path d="M343.9,222.1h2.7v6.5h4.1v2.1h-6.8V222.1z"/>
<path d="M351.3,226.4c0-1.4,0.4-2.5,1.2-3.3s1.9-1.2,3.3-1.2c1.4,0,2.5,0.4,3.3,1.2s1.2,1.8,1.2,3.2c0,1-0.2,1.8-0.5,2.5
	s-0.8,1.1-1.5,1.5s-1.4,0.5-2.4,0.5c-1,0-1.8-0.2-2.4-0.5s-1.1-0.8-1.5-1.5S351.3,227.4,351.3,226.4z M354,226.4
	c0,0.9,0.2,1.5,0.5,1.9s0.8,0.6,1.3,0.6c0.6,0,1-0.2,1.3-0.6s0.5-1,0.5-2c0-0.8-0.2-1.4-0.5-1.8s-0.8-0.6-1.3-0.6
	c-0.5,0-1,0.2-1.3,0.6S354,225.5,354,226.4z"/>
<path d="M360.7,222.1h8.1v2.1h-2.7v6.5h-2.7v-6.5h-2.7V222.1z"/>
<path d="M368,228.3h2.5v2.4H368V228.3z"/>
</svg>
