<?xml version="1.0" encoding="iso-8859-1"?>
<!-- Generator: Adobe Illustrator 16.0.0, SVG Export Plug-In . SVG Version: 6.00 Build 0)  -->
<!DOCTYPE svg PUBLIC "-//W3C//DTD SVG 1.1//EN" "http://www.w3.org/Graphics/SVG/1.1/DTD/svg11.dtd">
<svg version="1.1" id="Layer_1" xmlns="http://www.w3.org/2000/svg" xmlns:xlink="http://www.w3.org/1999/xlink" x="0px" y="0px" width="479.4px" height="236.4px" viewBox="0 0 479.4 236.4" style="enable-background:new 0 0 479.4 236.4;" xml:space="preserve">
	<path d="M116,24.7h-7.5l-1,3.5h-6.8l8.1-21.5h7.2l8.1,21.5h-6.9L116,24.7z M114.7,20l-2.4-7.7L110,20H114.7z"/>
	<path d="M136.2,6.8h12.4c2.1,0,3.7,0.5,4.8,1.5s1.7,2.3,1.7,3.8c0,1.3-0.4,2.4-1.2,3.3c-0.5,0.6-1.3,1.1-2.3,1.4
		c1.5,0.4,2.7,1,3.4,1.9s1.1,2,1.1,3.4c0,1.1-0.3,2.1-0.8,3s-1.2,1.6-2.1,2.1c-0.6,0.3-1.4,0.6-2.5,0.7c-1.5,0.2-2.5,0.3-3,0.3h-11.5
		V6.8z M142.9,15.2h2.9c1,0,1.8-0.2,2.2-0.5s0.6-0.9,0.6-1.5c0-0.6-0.2-1.1-0.6-1.5s-1.1-0.5-2.1-0.5h-2.9V15.2z M142.9,23.6h3.4
		c1.1,0,1.9-0.2,2.4-0.6s0.7-0.9,0.7-1.6c0-0.6-0.2-1.1-0.7-1.5s-1.3-0.6-2.4-0.6h-3.4V23.6z"/>
	<path d="M159.8,6.8h6.7v21.5h-6.7V6.8z"/>
	<path d="M169.7,6.8h20.2v5.3h-6.8v16.2h-6.6V12.1h-6.8V6.8z"/>
	<path d="M216.1,24.7h-7.5l-1,3.5h-6.8l8.1-21.5h7.2l8.1,21.5h-6.9L216.1,24.7z M214.7,20l-2.4-7.7L210,20H214.7z"/>
	<path d="M226.2,6.8h12.4c2.1,0,3.7,0.5,4.8,1.5s1.7,2.3,1.7,3.8c0,1.3-0.4,2.4-1.2,3.3c-0.5,0.6-1.3,1.1-2.3,1.4
		c1.5,0.4,2.7,1,3.4,1.9s1.1,2,1.1,3.4c0,1.1-0.3,2.1-0.8,3s-1.2,1.6-2.1,2.1c-0.6,0.3-1.4,0.6-2.5,0.7c-1.5,0.2-2.5,0.3-3,0.3h-11.5
		V6.8z M232.9,15.2h2.9c1,0,1.8-0.2,2.2-0.5s0.6-0.9,0.6-1.5c0-0.6-0.2-1.1-0.6-1.5s-1.1-0.5-2.1-0.5h-2.9V15.2z M232.9,23.6h3.4
		c1.1,0,1.9-0.2,2.4-0.6s0.7-0.9,0.7-1.6c0-0.6-0.2-1.1-0.7-1.5s-1.3-0.6-2.4-0.6h-3.4V23.6z"/>
	<path d="M248.7,17.5c0-3.5,1-6.2,2.9-8.2s4.7-2.9,8.2-2.9c3.6,0,6.3,1,8.3,2.9s2.9,4.6,2.9,8.1c0,2.5-0.4,4.6-1.3,6.2
		s-2.1,2.9-3.7,3.8s-3.6,1.3-6,1.3c-2.4,0-4.4-0.4-6-1.2s-2.9-2-3.9-3.7S248.7,20,248.7,17.5z M255.3,17.5c0,2.2,0.4,3.7,1.2,4.7
		s1.9,1.4,3.3,1.4c1.4,0,2.5-0.5,3.3-1.4s1.2-2.6,1.2-5c0-2-0.4-3.5-1.2-4.4s-1.9-1.4-3.3-1.4c-1.3,0-2.4,0.5-3.2,1.4
		S255.3,15.3,255.3,17.5z"/>
	<path d="M288.5,6.8h6.6v12.8c0,1.3-0.2,2.5-0.6,3.6c-0.4,1.1-1,2.1-1.9,3c-0.8,0.8-1.7,1.4-2.7,1.8c-1.3,0.5-2.8,0.7-4.6,0.7
		c-1,0-2.2-0.1-3.4-0.2c-1.2-0.1-2.3-0.4-3.1-0.9s-1.6-1.1-2.3-1.9c-0.7-0.8-1.2-1.6-1.4-2.5c-0.4-1.4-0.6-2.6-0.6-3.6V6.8h6.6v13.1
		c0,1.2,0.3,2.1,1,2.7c0.7,0.7,1.6,1,2.7,1c1.1,0,2-0.3,2.7-1c0.7-0.6,1-1.6,1-2.8V6.8z"/>
	<path d="M298,6.8h20.2v5.3h-6.8v16.2h-6.6V12.1H298V6.8z"/>
	<path d="M331.1,6.8h8.7l3.4,13.1l3.3-13.1h8.7v21.5h-5.4V11.9l-4.2,16.4h-4.9l-4.2-16.4v16.4h-5.4V6.8z"/>
	<path d="M359.5,6.8h17.8v4.6h-11.1v3.4h10.3v4.4h-10.3v4.2h11.5v4.9h-18.1V6.8z"/>
	<path d="M10.4,48.4h2.7V57h-2.7V48.4z"/>
	<path d="M25.8,55.6h-3L22.3,57h-2.7l3.2-8.6h2.9L29,57h-2.8L25.8,55.6z M25.2,53.8l-0.9-3.1l-0.9,3.1H25.2z"/>
	<path d="M29.8,48.4h3.5l1.3,5.2l1.3-5.2h3.5V57h-2.2v-6.6L35.6,57h-2L32,50.5V57h-2.2V48.4z"/>
	<path d="M51.9,55.6h-3L48.5,57h-2.7l3.2-8.6h2.9l3.2,8.6h-2.8L51.9,55.6z M51.4,53.8l-0.9-3.1l-0.9,3.1H51.4z"/>
	<path d="M61.5,48.4h2.7v6.5h4.1V57h-6.8V48.4z"/>
	<path d="M69,52.7c0-1.4,0.4-2.5,1.2-3.3s1.9-1.2,3.3-1.2c1.4,0,2.5,0.4,3.3,1.2s1.2,1.8,1.2,3.2c0,1-0.2,1.8-0.5,2.5
		s-0.8,1.1-1.5,1.5s-1.4,0.5-2.4,0.5c-1,0-1.8-0.2-2.4-0.5s-1.1-0.8-1.5-1.5S69,53.7,69,52.7z M71.6,52.8c0,0.9,0.2,1.5,0.5,1.9
		s0.8,0.6,1.3,0.6c0.6,0,1-0.2,1.3-0.6s0.5-1,0.5-2c0-0.8-0.2-1.4-0.5-1.8s-0.8-0.6-1.3-0.6c-0.5,0-1,0.2-1.3,0.6
		S71.6,51.9,71.6,52.8z"/>
	<path d="M79.3,48.4h2.5l3.2,4.8v-4.8h2.5V57H85l-3.2-4.7V57h-2.5V48.4z"/>
	<path d="M89.3,48.4h3.9c0.8,0,1.4,0.1,1.9,0.3s0.9,0.5,1.2,0.9s0.5,0.9,0.7,1.4s0.2,1.1,0.2,1.7c0,0.9-0.1,1.6-0.3,2.1
		s-0.5,0.9-0.9,1.3s-0.8,0.6-1.2,0.7C94.3,57,93.7,57,93.3,57h-3.9V48.4z M92,50.4v4.7h0.7c0.6,0,0.9-0.1,1.2-0.2s0.4-0.3,0.6-0.6
		s0.2-0.8,0.2-1.5c0-0.9-0.1-1.5-0.4-1.9s-0.8-0.5-1.5-0.5H92z"/>
	<path d="M98.3,52.7c0-1.4,0.4-2.5,1.2-3.3s1.9-1.2,3.3-1.2c1.4,0,2.5,0.4,3.3,1.2s1.2,1.8,1.2,3.2c0,1-0.2,1.8-0.5,2.5
		s-0.8,1.1-1.5,1.5s-1.4,0.5-2.4,0.5c-1,0-1.8-0.2-2.4-0.5s-1.1-0.8-1.5-1.5S98.3,53.7,98.3,52.7z M100.9,52.8c0,0.9,0.2,1.5,0.5,1.9
		s0.8,0.6,1.3,0.6c0.6,0,1-0.2,1.3-0.6s0.5-1,0.5-2c0-0.8-0.2-1.4-0.5-1.8s-0.8-0.6-1.3-0.6c-0.5,0-1,0.2-1.3,0.6
		S100.9,51.9,100.9,52.8z"/>
	<path d="M108.6,48.4h2.5l3.2,4.8v-4.8h2.5V57h-2.5l-3.2-4.7V57h-2.5V48.4z"/>
	<path d="M124.1,48.4h5c0.8,0,1.5,0.2,1.9,0.6s0.7,0.9,0.7,1.5c0,0.5-0.2,0.9-0.5,1.3c-0.2,0.2-0.5,0.4-0.9,0.6
		c0.6,0.1,1.1,0.4,1.4,0.8s0.4,0.8,0.4,1.4c0,0.4-0.1,0.8-0.3,1.2s-0.5,0.6-0.8,0.8c-0.2,0.1-0.6,0.2-1,0.3c-0.6,0.1-1,0.1-1.2,0.1
		h-4.6V48.4z M126.8,51.8h1.2c0.4,0,0.7-0.1,0.9-0.2s0.2-0.3,0.2-0.6c0-0.2-0.1-0.4-0.2-0.6s-0.4-0.2-0.8-0.2h-1.2V51.8z M126.8,55.2
		h1.4c0.5,0,0.8-0.1,1-0.2s0.3-0.4,0.3-0.7c0-0.3-0.1-0.5-0.3-0.6s-0.5-0.2-1-0.2h-1.3V55.2z"/>
	<path d="M138.5,55.6h-3l-0.4,1.4h-2.7l3.2-8.6h2.9l3.2,8.6H139L138.5,55.6z M138,53.8l-0.9-3.1l-0.9,3.1H138z"/>
	<path d="M142.1,54.2l2.5-0.2c0.1,0.4,0.2,0.7,0.3,0.9c0.3,0.3,0.7,0.5,1.2,0.5c0.4,0,0.7-0.1,0.9-0.3s0.3-0.4,0.3-0.6
		c0-0.2-0.1-0.4-0.3-0.6s-0.6-0.3-1.4-0.5c-1.2-0.3-2-0.6-2.5-1c-0.5-0.4-0.8-1-0.8-1.7c0-0.4,0.1-0.9,0.4-1.3s0.6-0.7,1.2-0.9
		s1.2-0.3,2.1-0.3c1.1,0,1.9,0.2,2.5,0.6s0.9,1.1,1,1.9l-2.5,0.1c-0.1-0.4-0.2-0.7-0.4-0.8s-0.5-0.3-0.9-0.3c-0.3,0-0.5,0.1-0.7,0.2
		s-0.2,0.3-0.2,0.5c0,0.1,0.1,0.3,0.2,0.4c0.1,0.1,0.4,0.2,0.9,0.3c1.2,0.2,2,0.5,2.5,0.8s0.9,0.6,1.1,1s0.3,0.8,0.3,1.3
		c0,0.6-0.2,1.1-0.5,1.5s-0.7,0.8-1.3,1.1s-1.2,0.4-2.1,0.4c-1.5,0-2.5-0.3-3-0.8S142.2,55.1,142.1,54.2z"/>
	<path d="M151.2,48.4h7.1v1.8h-4.5v1.4h4.1v1.8h-4.1v1.7h4.6V57h-7.2V48.4z"/>
	<path d="M160,48.4h3.9c0.8,0,1.4,0.1,1.9,0.3s0.9,0.5,1.2,0.9s0.5,0.9,0.7,1.4s0.2,1.1,0.2,1.7c0,0.9-0.1,1.6-0.3,2.1
		s-0.5,0.9-0.9,1.3s-0.8,0.6-1.2,0.7c-0.6,0.2-1.1,0.2-1.6,0.2H160V48.4z M162.6,50.4v4.7h0.7c0.6,0,0.9-0.1,1.2-0.2s0.4-0.3,0.6-0.6
		s0.2-0.8,0.2-1.5c0-0.9-0.1-1.5-0.4-1.9s-0.8-0.5-1.5-0.5H162.6z"/>
	<path d="M174.8,48.4h6.6v1.8h-3.9v1.5h3.3v1.7h-3.3V57h-2.7V48.4z"/>
	<path d="M182.8,57v-8.6h4.4c0.8,0,1.4,0.1,1.9,0.2s0.8,0.4,1,0.8s0.4,0.8,0.4,1.4c0,0.5-0.1,0.9-0.3,1.2c-0.2,0.3-0.5,0.6-0.8,0.8
		c-0.2,0.1-0.5,0.2-0.9,0.3c0.3,0.1,0.5,0.2,0.7,0.3c0.1,0.1,0.2,0.2,0.4,0.5s0.3,0.4,0.4,0.5l1.3,2.5h-3l-1.4-2.6
		c-0.2-0.3-0.3-0.6-0.5-0.7c-0.2-0.1-0.4-0.2-0.7-0.2h-0.2V57H182.8z M185.5,51.9h1.1c0.1,0,0.4,0,0.7-0.1c0.2,0,0.3-0.1,0.4-0.3
		s0.2-0.3,0.2-0.5c0-0.3-0.1-0.5-0.3-0.6s-0.5-0.2-1-0.2h-1.2V51.9z"/>
	<path d="M191.6,52.7c0-1.4,0.4-2.5,1.2-3.3s1.9-1.2,3.3-1.2c1.4,0,2.5,0.4,3.3,1.2s1.2,1.8,1.2,3.2c0,1-0.2,1.8-0.5,2.5
		s-0.8,1.1-1.5,1.5s-1.4,0.5-2.4,0.5c-1,0-1.8-0.2-2.4-0.5s-1.1-0.8-1.5-1.5S191.6,53.7,191.6,52.7z M194.2,52.8
		c0,0.9,0.2,1.5,0.5,1.9s0.8,0.6,1.3,0.6c0.6,0,1-0.2,1.3-0.6s0.5-1,0.5-2c0-0.8-0.2-1.4-0.5-1.8s-0.8-0.6-1.3-0.6
		c-0.5,0-1,0.2-1.3,0.6S194.2,51.9,194.2,52.8z"/>
	<path d="M201.9,48.4h2.5l3.2,4.8v-4.8h2.5V57h-2.5l-3.2-4.7V57h-2.5V48.4z"/>
	<path d="M211.3,48.4h8.1v2.1h-2.7V57H214v-6.5h-2.7V48.4z"/>
	<path d="M219.1,53h3.5v1.8h-3.5V53z"/>
	<path d="M223.7,48.4h7.1v1.8h-4.5v1.4h4.1v1.8h-4.1v1.7h4.6V57h-7.2V48.4z"/>
	<path d="M232.4,48.4h2.5l3.2,4.8v-4.8h2.5V57h-2.5l-3.2-4.7V57h-2.5V48.4z"/>
	<path d="M242.4,48.4h3.9c0.8,0,1.4,0.1,1.9,0.3s0.9,0.5,1.2,0.9s0.5,0.9,0.7,1.4s0.2,1.1,0.2,1.7c0,0.9-0.1,1.6-0.3,2.1
		s-0.5,0.9-0.9,1.3s-0.8,0.6-1.2,0.7c-0.6,0.2-1.1,0.2-1.6,0.2h-3.9V48.4z M245.1,50.4v4.7h0.7c0.6,0,0.9-0.1,1.2-0.2
		s0.4-0.3,0.6-0.6s0.2-0.8,0.2-1.5c0-0.9-0.1-1.5-0.4-1.9s-0.8-0.5-1.5-0.5H245.1z"/>
	<path d="M256.4,48.4h2.5l0.9,4.8l1.3-4.8h2.5l1.3,4.8l0.9-4.8h2.5l-1.9,8.6h-2.6l-1.5-5.4l-1.5,5.4h-2.6L256.4,48.4z"/>
	<path d="M269.2,48.4h7.1v1.8h-4.5v1.4h4.1v1.8h-4.1v1.7h4.6V57h-7.2V48.4z"/>
	<path d="M277.9,48.4h5c0.8,0,1.5,0.2,1.9,0.6s0.7,0.9,0.7,1.5c0,0.5-0.2,0.9-0.5,1.3c-0.2,0.2-0.5,0.4-0.9,0.6
		c0.6,0.1,1.1,0.4,1.4,0.8s0.4,0.8,0.4,1.4c0,0.4-0.1,0.8-0.3,1.2s-0.5,0.6-0.8,0.8c-0.2,0.1-0.6,0.2-1,0.3c-0.6,0.1-1,0.1-1.2,0.1
		h-4.6V48.4z M280.6,51.8h1.2c0.4,0,0.7-0.1,0.9-0.2s0.2-0.3,0.2-0.6c0-0.2-0.1-0.4-0.2-0.6s-0.4-0.2-0.8-0.2h-1.2V51.8z M280.6,55.2
		h1.4c0.5,0,0.8-0.1,1-0.2s0.3-0.4,0.3-0.7c0-0.3-0.1-0.5-0.3-0.6s-0.5-0.2-1-0.2h-1.3V55.2z"/>
	<path d="M292.8,48.4h3.9c0.8,0,1.4,0.1,1.9,0.3s0.9,0.5,1.2,0.9s0.5,0.9,0.7,1.4s0.2,1.1,0.2,1.7c0,0.9-0.1,1.6-0.3,2.1
		s-0.5,0.9-0.9,1.3s-0.8,0.6-1.2,0.7c-0.6,0.2-1.1,0.2-1.6,0.2h-3.9V48.4z M295.4,50.4v4.7h0.7c0.6,0,0.9-0.1,1.2-0.2
		s0.4-0.3,0.6-0.6s0.2-0.8,0.2-1.5c0-0.9-0.1-1.5-0.4-1.9s-0.8-0.5-1.5-0.5H295.4z"/>
	<path d="M302.1,48.4h7.1v1.8h-4.5v1.4h4.1v1.8h-4.1v1.7h4.6V57h-7.2V48.4z"/>
	<path d="M309.9,48.4h2.8l1.9,6.2l1.9-6.2h2.7L316,57h-2.9L309.9,48.4z"/>
	<path d="M320.1,48.4h7.1v1.8h-4.5v1.4h4.1v1.8h-4.1v1.7h4.6V57h-7.2V48.4z"/>
	<path d="M328.7,48.4h2.7v6.5h4.1V57h-6.8V48.4z"/>
	<path d="M336.2,52.7c0-1.4,0.4-2.5,1.2-3.3s1.9-1.2,3.3-1.2c1.4,0,2.5,0.4,3.3,1.2s1.2,1.8,1.2,3.2c0,1-0.2,1.8-0.5,2.5
		s-0.8,1.1-1.5,1.5s-1.4,0.5-2.4,0.5c-1,0-1.8-0.2-2.4-0.5s-1.2-0.8-1.5-1.5S336.2,53.7,336.2,52.7z M338.9,52.8
		c0,0.9,0.2,1.5,0.5,1.9s0.8,0.6,1.3,0.6c0.6,0,1-0.2,1.3-0.6s0.5-1,0.5-2c0-0.8-0.2-1.4-0.5-1.8s-0.8-0.6-1.3-0.6
		c-0.5,0-1,0.2-1.3,0.6S338.9,51.9,338.9,52.8z"/>
	<path d="M346.5,48.4h4.4c1,0,1.7,0.2,2.2,0.7s0.7,1.1,0.7,2c0,0.9-0.3,1.5-0.8,2s-1.3,0.7-2.4,0.7h-1.5V57h-2.7V48.4z M349.2,52.1
		h0.7c0.5,0,0.9-0.1,1.1-0.3s0.3-0.4,0.3-0.7c0-0.3-0.1-0.5-0.3-0.7s-0.5-0.3-1-0.3h-0.8V52.1z"/>
	<path d="M355.2,48.4h7.1v1.8h-4.5v1.4h4.1v1.8h-4.1v1.7h4.6V57h-7.2V48.4z"/>
	<path d="M363.9,57v-8.6h4.4c0.8,0,1.4,0.1,1.9,0.2s0.8,0.4,1,0.8s0.4,0.8,0.4,1.4c0,0.5-0.1,0.9-0.3,1.2s-0.5,0.6-0.8,0.8
		c-0.2,0.1-0.5,0.2-0.9,0.3c0.3,0.1,0.5,0.2,0.7,0.3c0.1,0.1,0.2,0.2,0.4,0.5s0.3,0.4,0.4,0.5l1.3,2.5h-3l-1.4-2.6
		c-0.2-0.3-0.3-0.6-0.5-0.7c-0.2-0.1-0.4-0.2-0.7-0.2h-0.2V57H363.9z M366.6,51.9h1.1c0.1,0,0.4,0,0.7-0.1c0.2,0,0.3-0.1,0.4-0.3
		s0.2-0.3,0.2-0.5c0-0.3-0.1-0.5-0.3-0.6s-0.5-0.2-1-0.2h-1.2V51.9z"/>
	<path d="M377.8,48.4h2.5l0.9,4.8l1.3-4.8h2.5l1.3,4.8l0.9-4.8h2.5L388,57h-2.6l-1.5-5.4l-1.5,5.4h-2.6L377.8,48.4z"/>
	<path d="M390.8,48.4h2.7V57h-2.7V48.4z"/>
	<path d="M394.8,48.4h8.1v2.1h-2.7V57h-2.7v-6.5h-2.7V48.4z"/>
	<path d="M404.1,48.4h2.7v3h2.9v-3h2.7V57h-2.7v-3.5h-2.9V57h-2.7V48.4z"/>
	<path d="M424.8,55.6h-3l-0.4,1.4h-2.7l3.2-8.6h2.9L428,57h-2.8L424.8,55.6z M424.3,53.8l-0.9-3.1l-0.9,3.1H424.3z"/>
	<path d="M428.9,48.4h2.5l3.2,4.8v-4.8h2.5V57h-2.5l-3.2-4.7V57h-2.5V48.4z"/>
	<path d="M444.4,48.4h7.1v1.8h-4.5v1.4h4.1v1.8h-4.1v1.7h4.6V57h-7.2V48.4z"/>
	<path d="M452.2,48.4h2.9l1.7,2.9l1.7-2.9h2.9l-3.3,5V57h-2.7v-3.6L452.2,48.4z"/>
	<path d="M462.4,48.4h7.1v1.8h-4.5v1.4h4.1v1.8h-4.1v1.7h4.6V57h-7.2V48.4z"/>
	<path d="M10.3,62.8h6.6v1.8H13v1.5h3.3v1.7H13v3.5h-2.7V62.8z"/>
	<path d="M18,67.1c0-1.4,0.4-2.5,1.2-3.3s1.9-1.2,3.3-1.2c1.4,0,2.5,0.4,3.3,1.2s1.2,1.8,1.2,3.2c0,1-0.2,1.8-0.5,2.5
		s-0.8,1.1-1.5,1.5s-1.4,0.5-2.4,0.5c-1,0-1.8-0.2-2.4-0.5s-1.1-0.8-1.5-1.5S18,68.1,18,67.1z M20.6,67.2c0,0.9,0.2,1.5,0.5,1.9
		s0.8,0.6,1.3,0.6c0.6,0,1-0.2,1.3-0.6s0.5-1,0.5-2c0-0.8-0.2-1.4-0.5-1.8s-0.8-0.6-1.3-0.6c-0.5,0-1,0.2-1.3,0.6
		S20.6,66.3,20.6,67.2z"/>
	<path d="M28.3,71.4v-8.6h4.4c0.8,0,1.4,0.1,1.9,0.2s0.8,0.4,1,0.8s0.4,0.8,0.4,1.4c0,0.5-0.1,0.9-0.3,1.2c-0.2,0.3-0.5,0.6-0.8,0.8
		c-0.2,0.1-0.5,0.2-0.9,0.3c0.3,0.1,0.5,0.2,0.7,0.3c0.1,0.1,0.2,0.2,0.4,0.5c0.2,0.2,0.3,0.4,0.4,0.5l1.3,2.5h-3l-1.4-2.6
		c-0.2-0.3-0.3-0.6-0.5-0.7c-0.2-0.1-0.4-0.2-0.7-0.2H31v3.5H28.3z M31,66.3h1.1c0.1,0,0.4,0,0.7-0.1c0.2,0,0.3-0.1,0.4-0.3
		s0.2-0.3,0.2-0.5c0-0.3-0.1-0.5-0.3-0.6s-0.5-0.2-1-0.2H31V66.3z"/>
	<path d="M46,62.8H50c0.8,0,1.4,0.1,1.9,0.3s0.9,0.5,1.2,0.9s0.5,0.9,0.7,1.4s0.2,1.1,0.2,1.7c0,0.9-0.1,1.6-0.3,2.1
		s-0.5,0.9-0.9,1.3s-0.8,0.6-1.2,0.7c-0.6,0.2-1.1,0.2-1.6,0.2H46V62.8z M48.7,64.8v4.7h0.7c0.6,0,0.9-0.1,1.2-0.2s0.4-0.3,0.6-0.6
		s0.2-0.8,0.2-1.5c0-0.9-0.1-1.5-0.4-1.9s-0.8-0.5-1.5-0.5H48.7z"/>
	<path d="M55.3,62.8h7.1v1.8H58V66h4.1v1.8H58v1.7h4.6v1.9h-7.2V62.8z"/>
	<path d="M63.4,62.8h8.1V65h-2.7v6.5h-2.7V65h-2.7V62.8z"/>
	<path d="M77.1,70h-3l-0.4,1.4H71l3.2-8.6h2.9l3.2,8.6h-2.8L77.1,70z M76.6,68.2l-0.9-3.1l-0.9,3.1H76.6z"/>
	<path d="M81.3,62.8h2.7v8.6h-2.7V62.8z"/>
	<path d="M85.8,62.8h2.7v6.5h4.1v2.1h-6.8V62.8z"/>
	<path d="M107.5,70h-3l-0.4,1.4h-2.7l3.2-8.6h2.9l3.2,8.6h-2.8L107.5,70z M106.9,68.2l-0.9-3.1l-0.9,3.1H106.9z"/>
	<path d="M111.5,62.8h2.5l3.2,4.8v-4.8h2.5v8.6h-2.5l-3.2-4.7v4.7h-2.5V62.8z"/>
	<path d="M121.5,62.8h3.9c0.8,0,1.4,0.1,1.9,0.3s0.9,0.5,1.2,0.9s0.5,0.9,0.7,1.4s0.2,1.1,0.2,1.7c0,0.9-0.1,1.6-0.3,2.1
		s-0.5,0.9-0.9,1.3s-0.8,0.6-1.2,0.7c-0.6,0.2-1.1,0.2-1.6,0.2h-3.9V62.8z M124.2,64.8v4.7h0.7c0.6,0,0.9-0.1,1.2-0.2
		s0.4-0.3,0.6-0.6s0.2-0.8,0.2-1.5c0-0.9-0.1-1.5-0.4-1.9s-0.8-0.5-1.5-0.5H124.2z"/>
	<path d="M144.5,70h-3l-0.4,1.4h-2.7l3.2-8.6h2.9l3.2,8.6h-2.8L144.5,70z M143.9,68.2l-0.9-3.1l-0.9,3.1H143.9z"/>
	<path d="M148.5,62.8h2.5l3.2,4.8v-4.8h2.5v8.6h-2.5l-3.2-4.7v4.7h-2.5V62.8z"/>
	<path d="M167,62.8h2.7v8.6H167V62.8z"/>
	<path d="M170.9,62.8h8.1V65h-2.7v6.5h-2.7V65h-2.7V62.8z"/>
	<path d="M185.5,67.9l2.3,0.7c-0.2,0.7-0.4,1.2-0.7,1.6s-0.8,0.8-1.3,1s-1.1,0.3-1.9,0.3c-0.9,0-1.7-0.1-2.3-0.4s-1.1-0.7-1.5-1.4
		c-0.4-0.7-0.6-1.6-0.6-2.6c0-1.4,0.4-2.5,1.1-3.3c0.8-0.8,1.8-1.1,3.2-1.1c1.1,0,1.9,0.2,2.6,0.7s1.1,1.1,1.4,2l-2.3,0.5
		c-0.1-0.3-0.2-0.5-0.3-0.6c-0.1-0.2-0.3-0.4-0.5-0.5s-0.5-0.2-0.7-0.2c-0.6,0-1.1,0.2-1.4,0.7c-0.2,0.4-0.4,0.9-0.4,1.7
		c0,1,0.1,1.6,0.4,2c0.3,0.4,0.7,0.5,1.2,0.5c0.5,0,0.9-0.1,1.2-0.4S185.4,68.5,185.5,67.9z"/>
	<path d="M189.1,62.8h2.7v3h2.9v-3h2.7v8.6h-2.7V68h-2.9v3.5h-2.7V62.8z"/>
	<path d="M206.8,62.8h8.1V65h-2.7v6.5h-2.7V65h-2.7V62.8z"/>
	<path d="M216.1,62.8h2.7v3h2.9v-3h2.7v8.6h-2.7V68h-2.9v3.5h-2.7V62.8z"/>
	<path d="M231.4,70h-3l-0.4,1.4h-2.7l3.2-8.6h2.9l3.2,8.6h-2.8L231.4,70z M230.8,68.2l-0.9-3.1l-0.9,3.1H230.8z"/>
	<path d="M234,62.8h8.1V65h-2.7v6.5h-2.7V65H234V62.8z"/>
	<path d="M251.7,62.8h2.7v8.6h-2.7V62.8z"/>
	<path d="M264.2,68.6l2.5-0.2c0.1,0.4,0.2,0.7,0.3,0.9c0.3,0.3,0.7,0.5,1.2,0.5c0.4,0,0.7-0.1,0.9-0.3s0.3-0.4,0.3-0.6
		c0-0.2-0.1-0.4-0.3-0.6s-0.6-0.3-1.4-0.5c-1.2-0.3-2-0.6-2.5-1c-0.5-0.4-0.8-1-0.8-1.7c0-0.4,0.1-0.9,0.4-1.3s0.6-0.7,1.2-0.9
		s1.2-0.3,2.1-0.3c1.1,0,1.9,0.2,2.5,0.6s0.9,1.1,1,1.9l-2.5,0.1c-0.1-0.4-0.2-0.7-0.4-0.8s-0.5-0.3-0.9-0.3c-0.3,0-0.5,0.1-0.7,0.2
		s-0.2,0.3-0.2,0.5c0,0.1,0.1,0.3,0.2,0.4c0.1,0.1,0.4,0.2,0.9,0.3c1.2,0.2,2,0.5,2.5,0.8s0.9,0.6,1.1,1s0.3,0.8,0.3,1.3
		c0,0.6-0.2,1.1-0.5,1.5s-0.7,0.8-1.3,1.1s-1.2,0.4-2.1,0.4c-1.5,0-2.5-0.3-3-0.8S264.2,69.5,264.2,68.6z"/>
	<path d="M279,67.9l2.3,0.7c-0.2,0.7-0.4,1.2-0.7,1.6s-0.8,0.8-1.2,1s-1.1,0.3-1.9,0.3c-0.9,0-1.7-0.1-2.3-0.4
		c-0.6-0.3-1.1-0.7-1.5-1.4c-0.4-0.7-0.6-1.6-0.6-2.6c0-1.4,0.4-2.5,1.1-3.3c0.8-0.8,1.8-1.1,3.2-1.1c1.1,0,1.9,0.2,2.6,0.7
		s1.1,1.1,1.4,2l-2.3,0.5c-0.1-0.3-0.2-0.5-0.3-0.6c-0.1-0.2-0.3-0.4-0.5-0.5s-0.5-0.2-0.7-0.2c-0.6,0-1.1,0.2-1.4,0.7
		c-0.2,0.4-0.4,0.9-0.4,1.7c0,1,0.1,1.6,0.4,2c0.3,0.4,0.7,0.5,1.2,0.5c0.5,0,0.9-0.1,1.2-0.4S278.9,68.5,279,67.9z"/>
	<path d="M282.7,71.4v-8.6h4.4c0.8,0,1.4,0.1,1.9,0.2s0.8,0.4,1,0.8s0.4,0.8,0.4,1.4c0,0.5-0.1,0.9-0.3,1.2s-0.5,0.6-0.8,0.8
		c-0.2,0.1-0.5,0.2-0.9,0.3c0.3,0.1,0.5,0.2,0.7,0.3c0.1,0.1,0.2,0.2,0.4,0.5c0.2,0.2,0.3,0.4,0.4,0.5l1.3,2.5h-3l-1.4-2.6
		c-0.2-0.3-0.3-0.6-0.5-0.7c-0.2-0.1-0.4-0.2-0.7-0.2h-0.2v3.5H282.7z M285.3,66.3h1.1c0.1,0,0.4,0,0.7-0.1c0.2,0,0.3-0.1,0.4-0.3
		s0.2-0.3,0.2-0.5c0-0.3-0.1-0.5-0.3-0.6s-0.5-0.2-1-0.2h-1.2V66.3z"/>
	<path d="M297.2,70h-3l-0.4,1.4h-2.7l3.2-8.6h2.9l3.2,8.6h-2.8L297.2,70z M296.7,68.2l-0.9-3.1l-0.9,3.1H296.7z"/>
	<path d="M299.9,62.8h8.1V65h-2.7v6.5h-2.7V65h-2.7V62.8z"/>
	<path d="M314.4,67.9l2.3,0.7c-0.2,0.7-0.4,1.2-0.7,1.6s-0.8,0.8-1.2,1s-1.1,0.3-1.9,0.3c-0.9,0-1.7-0.1-2.3-0.4s-1.1-0.7-1.5-1.4
		c-0.4-0.7-0.6-1.6-0.6-2.6c0-1.4,0.4-2.5,1.1-3.3c0.8-0.8,1.8-1.1,3.2-1.1c1.1,0,1.9,0.2,2.6,0.7s1.1,1.1,1.4,2l-2.3,0.5
		c-0.1-0.3-0.2-0.5-0.3-0.6c-0.1-0.2-0.3-0.4-0.5-0.5s-0.5-0.2-0.7-0.2c-0.6,0-1.1,0.2-1.4,0.7c-0.2,0.4-0.4,0.9-0.4,1.7
		c0,1,0.1,1.6,0.4,2c0.3,0.4,0.7,0.5,1.2,0.5c0.5,0,0.9-0.1,1.2-0.4S314.3,68.5,314.4,67.9z"/>
	<path d="M318.1,62.8h2.7v3h2.9v-3h2.7v8.6h-2.7V68h-2.9v3.5h-2.7V62.8z"/>
	<path d="M335.5,62.8h2.5l0.9,4.8l1.3-4.8h2.5l1.3,4.8l0.9-4.8h2.5l-1.9,8.6H343l-1.5-5.4l-1.5,5.4h-2.6L335.5,62.8z"/>
	<path d="M348.5,62.8h2.7v8.6h-2.7V62.8z"/>
	<path d="M352.5,62.8h8.1V65h-2.7v6.5h-2.7V65h-2.7V62.8z"/>
	<path d="M361.7,62.8h2.7v3h2.9v-3h2.7v8.6h-2.7V68h-2.9v3.5h-2.7V62.8z"/>
	<path d="M385.8,67.9l2.3,0.7c-0.2,0.7-0.4,1.2-0.7,1.6s-0.8,0.8-1.2,1s-1.1,0.3-1.9,0.3c-0.9,0-1.7-0.1-2.3-0.4s-1.1-0.7-1.5-1.4
		c-0.4-0.7-0.6-1.6-0.6-2.6c0-1.4,0.4-2.5,1.1-3.3c0.8-0.8,1.8-1.1,3.2-1.1c1.1,0,1.9,0.2,2.6,0.7s1.1,1.1,1.4,2l-2.3,0.5
		c-0.1-0.3-0.2-0.5-0.3-0.6c-0.1-0.2-0.3-0.4-0.5-0.5s-0.5-0.2-0.7-0.2c-0.6,0-1.1,0.2-1.4,0.7c-0.2,0.4-0.4,0.9-0.4,1.7
		c0,1,0.1,1.6,0.4,2c0.3,0.4,0.7,0.5,1.2,0.5c0.5,0,0.9-0.1,1.2-0.4S385.7,68.5,385.8,67.9z"/>
	<path d="M389.1,67.1c0-1.4,0.4-2.5,1.2-3.3s1.9-1.2,3.3-1.2c1.4,0,2.5,0.4,3.3,1.2s1.2,1.8,1.2,3.2c0,1-0.2,1.8-0.5,2.5
		s-0.8,1.1-1.5,1.5s-1.4,0.5-2.4,0.5c-1,0-1.8-0.2-2.4-0.5s-1.2-0.8-1.5-1.5S389.1,68.1,389.1,67.1z M391.7,67.2
		c0,0.9,0.2,1.5,0.5,1.9s0.8,0.6,1.3,0.6c0.6,0,1-0.2,1.3-0.6s0.5-1,0.5-2c0-0.8-0.2-1.4-0.5-1.8s-0.8-0.6-1.3-0.6
		c-0.5,0-1,0.2-1.3,0.6S391.7,66.3,391.7,67.2z"/>
	<path d="M399.4,62.8h3.9c0.8,0,1.4,0.1,1.9,0.3s0.9,0.5,1.2,0.9s0.5,0.9,0.7,1.4s0.2,1.1,0.2,1.7c0,0.9-0.1,1.6-0.3,2.1
		s-0.5,0.9-0.9,1.3s-0.8,0.6-1.2,0.7c-0.6,0.2-1.1,0.2-1.6,0.2h-3.9V62.8z M402.1,64.8v4.7h0.7c0.6,0,0.9-0.1,1.2-0.2
		s0.4-0.3,0.6-0.6s0.2-0.8,0.2-1.5c0-0.9-0.1-1.5-0.4-1.9s-0.8-0.5-1.5-0.5H402.1z"/>
	<path d="M408.7,62.8h7.1v1.8h-4.5V66h4.1v1.8h-4.1v1.7h4.6v1.9h-7.2V62.8z"/>
	<path d="M417.2,69h2.5v2.4h-2.5V69z"/>
	<path d="M429.3,68.6l2.5-0.2c0.1,0.4,0.2,0.7,0.3,0.9c0.3,0.3,0.7,0.5,1.2,0.5c0.4,0,0.7-0.1,0.9-0.3s0.3-0.4,0.3-0.6
		c0-0.2-0.1-0.4-0.3-0.6s-0.6-0.3-1.4-0.5c-1.2-0.3-2-0.6-2.5-1c-0.5-0.4-0.8-1-0.8-1.7c0-0.4,0.1-0.9,0.4-1.3s0.6-0.7,1.2-0.9
		s1.2-0.3,2.1-0.3c1.1,0,1.9,0.2,2.5,0.6s0.9,1.1,1,1.9l-2.5,0.1c-0.1-0.4-0.2-0.7-0.4-0.8s-0.5-0.3-0.9-0.3c-0.3,0-0.5,0.1-0.7,0.2
		S432,64.8,432,65c0,0.1,0.1,0.3,0.2,0.4c0.1,0.1,0.4,0.2,0.9,0.3c1.2,0.2,2,0.5,2.5,0.8s0.9,0.6,1.1,1s0.3,0.8,0.3,1.3
		c0,0.6-0.2,1.1-0.5,1.5s-0.7,0.8-1.3,1.1s-1.2,0.4-2.1,0.4c-1.5,0-2.5-0.3-3-0.8S429.3,69.5,429.3,68.6z"/>
	<path d="M438.5,62.8h2.7v8.6h-2.7V62.8z"/>
	<path d="M443.1,62.8h2.5l3.2,4.8v-4.8h2.5v8.6h-2.5l-3.2-4.7v4.7h-2.5V62.8z"/>
	<path d="M458.8,67.9l2.3,0.7c-0.2,0.7-0.4,1.2-0.7,1.6s-0.8,0.8-1.3,1s-1.1,0.3-1.9,0.3c-0.9,0-1.7-0.1-2.3-0.4s-1.1-0.7-1.5-1.4
		c-0.4-0.7-0.6-1.6-0.6-2.6c0-1.4,0.4-2.5,1.1-3.3c0.8-0.8,1.8-1.1,3.2-1.1c1.1,0,1.9,0.2,2.6,0.7s1.1,1.1,1.4,2l-2.3,0.5
		c-0.1-0.3-0.2-0.5-0.3-0.6c-0.1-0.2-0.3-0.4-0.5-0.5s-0.5-0.2-0.7-0.2c-0.6,0-1.1,0.2-1.4,0.7c-0.2,0.4-0.4,0.9-0.4,1.7
		c0,1,0.1,1.6,0.4,2c0.3,0.4,0.7,0.5,1.2,0.5c0.5,0,0.9-0.1,1.2-0.4S458.7,68.5,458.8,67.9z"/>
	<path d="M462.4,62.8h7.1v1.8h-4.5V66h4.1v1.8h-4.1v1.7h4.6v1.9h-7.2V62.8z"/>
	<path d="M10.3,77.2h3.5l1.3,5.2l1.3-5.2h3.5v8.6h-2.2v-6.6l-1.7,6.6h-2l-1.7-6.6v6.6h-2.2V77.2z"/>
	<path d="M26.9,84.4h-3l-0.4,1.4h-2.7l3.2-8.6h2.9l3.2,8.6h-2.8L26.9,84.4z M26.4,82.6l-0.9-3.1l-0.9,3.1H26.4z"/>
	<path d="M31,85.8v-8.6h4.4c0.8,0,1.4,0.1,1.9,0.2s0.8,0.4,1,0.8s0.4,0.8,0.4,1.4c0,0.5-0.1,0.9-0.3,1.2c-0.2,0.3-0.5,0.6-0.8,0.8
		c-0.2,0.1-0.5,0.2-0.9,0.3c0.3,0.1,0.5,0.2,0.7,0.3c0.1,0.1,0.2,0.2,0.4,0.5s0.3,0.4,0.4,0.5l1.3,2.5h-3L35,83.2
		c-0.2-0.3-0.3-0.6-0.5-0.7c-0.2-0.1-0.4-0.2-0.7-0.2h-0.2v3.5H31z M33.7,80.7h1.1c0.1,0,0.4,0,0.7-0.1c0.2,0,0.3-0.1,0.4-0.3
		s0.2-0.3,0.2-0.5c0-0.3-0.1-0.5-0.3-0.6s-0.5-0.2-1-0.2h-1.2V80.7z"/>
	<path d="M45.8,82.3l2.3,0.7c-0.2,0.7-0.4,1.2-0.7,1.6s-0.8,0.8-1.3,1S45,86,44.2,86c-0.9,0-1.7-0.1-2.3-0.4
		c-0.6-0.3-1.1-0.7-1.5-1.4c-0.4-0.7-0.6-1.6-0.6-2.6c0-1.4,0.4-2.5,1.1-3.3c0.8-0.8,1.8-1.1,3.2-1.1c1.1,0,1.9,0.2,2.6,0.7
		s1.1,1.1,1.4,2l-2.3,0.5c-0.1-0.3-0.2-0.5-0.3-0.6c-0.1-0.2-0.3-0.4-0.5-0.5s-0.5-0.2-0.7-0.2c-0.6,0-1.1,0.2-1.4,0.7
		c-0.2,0.4-0.4,0.9-0.4,1.7c0,1,0.1,1.6,0.4,2c0.3,0.4,0.7,0.5,1.2,0.5c0.5,0,0.9-0.1,1.2-0.4S45.7,82.9,45.8,82.3z"/>
	<path d="M49.4,77.2h2.7v3H55v-3h2.7v8.6H55v-3.5h-2.9v3.5h-2.7V77.2z"/>
	<path d="M74,85.8h-7.2c0.1-0.7,0.3-1.4,0.7-2s1.2-1.4,2.3-2.2c0.7-0.5,1.1-0.9,1.3-1.2s0.3-0.5,0.3-0.8c0-0.3-0.1-0.5-0.3-0.7
		s-0.4-0.3-0.7-0.3c-0.3,0-0.6,0.1-0.7,0.3s-0.3,0.5-0.4,1L67,79.8c0.1-0.7,0.3-1.2,0.5-1.6s0.6-0.7,1.1-0.9s1.1-0.3,1.9-0.3
		c0.8,0,1.5,0.1,2,0.3s0.8,0.5,1.1,0.9s0.4,0.8,0.4,1.3c0,0.5-0.2,1-0.5,1.5s-0.9,1-1.7,1.6c-0.5,0.3-0.8,0.6-1,0.7s-0.4,0.3-0.6,0.5
		H74V85.8z"/>
	<path d="M75,81.5c0-1.6,0.3-2.8,0.9-3.4s1.5-1,2.7-1c0.6,0,1.1,0.1,1.4,0.2s0.7,0.3,0.9,0.6s0.4,0.5,0.6,0.7s0.2,0.5,0.3,0.9
		c0.2,0.6,0.2,1.3,0.2,2c0,1.6-0.3,2.7-0.8,3.4S79.8,86,78.5,86c-0.7,0-1.3-0.1-1.8-0.3s-0.8-0.6-1.1-1c-0.2-0.3-0.4-0.7-0.5-1.3
		S75,82.2,75,81.5z M77.3,81.5c0,1.1,0.1,1.8,0.3,2.2s0.5,0.6,0.8,0.6c0.2,0,0.5-0.1,0.6-0.3s0.3-0.4,0.4-0.8s0.1-0.9,0.1-1.7
		c0-1.1-0.1-1.9-0.3-2.3s-0.5-0.6-0.9-0.6c-0.4,0-0.7,0.2-0.9,0.6S77.3,80.4,77.3,81.5z"/>
	<path d="M88.4,77.1v8.7H86v-5.7c-0.4,0.3-0.8,0.5-1.1,0.7s-0.8,0.4-1.4,0.5v-2c0.8-0.3,1.4-0.6,1.9-0.9s0.8-0.8,1.1-1.4H88.4z"/>
	<path d="M91.9,77.2h5.7v1.9h-3.8l-0.2,1.3c0.3-0.1,0.5-0.2,0.8-0.3s0.5-0.1,0.8-0.1c0.9,0,1.6,0.3,2.1,0.8s0.8,1.2,0.8,2
		c0,0.6-0.1,1.1-0.4,1.6s-0.7,0.9-1.2,1.2S95.3,86,94.5,86c-0.6,0-1.1-0.1-1.5-0.2s-0.7-0.3-1-0.5s-0.5-0.5-0.7-0.7s-0.3-0.6-0.4-1
		l2.4-0.3c0.1,0.4,0.2,0.7,0.4,0.9s0.5,0.3,0.8,0.3c0.3,0,0.6-0.1,0.8-0.4s0.3-0.6,0.3-1.1c0-0.5-0.1-0.9-0.3-1.1s-0.5-0.4-0.9-0.4
		c-0.2,0-0.5,0.1-0.7,0.2c-0.2,0.1-0.3,0.2-0.5,0.4l-2-0.3L91.9,77.2z"/>
	<path d="M107.4,77.2h2.7v8.6h-2.7V77.2z"/>
	<path d="M120,77.2h2.7v3h2.9v-3h2.7v8.6h-2.7v-3.5h-2.9v3.5H120V77.2z"/>
	<path d="M135.2,84.4h-3l-0.4,1.4h-2.7l3.2-8.6h2.9l3.2,8.6h-2.8L135.2,84.4z M134.7,82.6l-0.9-3.1l-0.9,3.1H134.7z"/>
	<path d="M137.8,77.2h2.8l1.9,6.2l1.9-6.2h2.7l-3.2,8.6H141L137.8,77.2z"/>
	<path d="M147.9,77.2h7.1v1.8h-4.5v1.4h4.1v1.8h-4.1v1.7h4.6v1.9h-7.2V77.2z"/>
	<path d="M164.6,77.2h5c0.8,0,1.5,0.2,1.9,0.6s0.7,0.9,0.7,1.5c0,0.5-0.2,0.9-0.5,1.3c-0.2,0.2-0.5,0.4-0.9,0.6
		c0.6,0.1,1.1,0.4,1.4,0.8s0.4,0.8,0.4,1.4c0,0.4-0.1,0.8-0.3,1.2s-0.5,0.6-0.8,0.8c-0.2,0.1-0.6,0.2-1,0.3c-0.6,0.1-1,0.1-1.2,0.1
		h-4.6V77.2z M167.2,80.6h1.2c0.4,0,0.7-0.1,0.9-0.2s0.2-0.3,0.2-0.6c0-0.2-0.1-0.4-0.2-0.6s-0.4-0.2-0.8-0.2h-1.2V80.6z M167.2,84
		h1.4c0.5,0,0.8-0.1,1-0.2s0.3-0.4,0.3-0.7c0-0.3-0.1-0.5-0.3-0.6s-0.5-0.2-1-0.2h-1.3V84z"/>
	<path d="M173.9,77.2h7.1v1.8h-4.5v1.4h4.1v1.8h-4.1v1.7h4.6v1.9h-7.2V77.2z"/>
	<path d="M182.6,77.2h7.1v1.8h-4.5v1.4h4.1v1.8h-4.1v1.7h4.6v1.9h-7.2V77.2z"/>
	<path d="M191.2,77.2h2.5L197,82v-4.8h2.5v8.6H197l-3.2-4.7v4.7h-2.5V77.2z"/>
	<path d="M209.2,77.2h2.7v6.5h4.1v2.1h-6.8V77.2z"/>
	<path d="M217.2,77.2h7.1v1.8h-4.5v1.4h4.1v1.8h-4.1v1.7h4.6v1.9h-7.2V77.2z"/>
	<path d="M231.1,84.4h-3l-0.4,1.4H225l3.2-8.6h2.9l3.2,8.6h-2.8L231.1,84.4z M230.6,82.6l-0.9-3.1l-0.9,3.1H230.6z"/>
	<path d="M235.2,85.8v-8.6h4.4c0.8,0,1.4,0.1,1.9,0.2s0.8,0.4,1,0.8s0.4,0.8,0.4,1.4c0,0.5-0.1,0.9-0.3,1.2c-0.2,0.3-0.5,0.6-0.8,0.8
		c-0.2,0.1-0.5,0.2-0.9,0.3c0.3,0.1,0.5,0.2,0.7,0.3c0.1,0.1,0.2,0.2,0.4,0.5s0.3,0.4,0.4,0.5l1.3,2.5h-3l-1.4-2.6
		c-0.2-0.3-0.3-0.6-0.5-0.7c-0.2-0.1-0.4-0.2-0.7-0.2h-0.2v3.5H235.2z M237.9,80.7h1.1c0.1,0,0.4,0,0.7-0.1c0.2,0,0.3-0.1,0.4-0.3
		s0.2-0.3,0.2-0.5c0-0.3-0.1-0.5-0.3-0.6s-0.5-0.2-1-0.2h-1.2V80.7z"/>
	<path d="M244.5,77.2h2.5l3.2,4.8v-4.8h2.5v8.6h-2.5l-3.2-4.7v4.7h-2.5V77.2z"/>
	<path d="M254.6,77.2h2.7v8.6h-2.7V77.2z"/>
	<path d="M259.2,77.2h2.5l3.2,4.8v-4.8h2.5v8.6h-2.5l-3.2-4.7v4.7h-2.5V77.2z"/>
	<path d="M273.5,82.7v-1.8h4.1v3.7c-0.8,0.5-1.5,0.9-2.1,1.1c-0.6,0.2-1.3,0.3-2.1,0.3c-1,0-1.9-0.2-2.5-0.5s-1.1-0.9-1.5-1.6
		s-0.5-1.5-0.5-2.4c0-0.9,0.2-1.8,0.6-2.4s1-1.2,1.7-1.6c0.6-0.3,1.4-0.4,2.3-0.4c0.9,0,1.7,0.1,2.1,0.3s0.9,0.4,1.2,0.8
		s0.5,0.8,0.7,1.4l-2.6,0.5c-0.1-0.3-0.3-0.6-0.5-0.7s-0.6-0.3-1-0.3c-0.6,0-1,0.2-1.4,0.6s-0.5,1-0.5,1.9c0,0.9,0.2,1.6,0.5,2
		s0.8,0.6,1.5,0.6c0.3,0,0.6,0,0.8-0.1s0.6-0.2,0.9-0.4v-0.8H273.5z"/>
	<path d="M286.5,77.2h8.1v2.1h-2.7v6.5h-2.7v-6.5h-2.7V77.2z"/>
	<path d="M295.8,77.2h2.7v3h2.9v-3h2.7v8.6h-2.7v-3.5h-2.9v3.5h-2.7V77.2z"/>
	<path d="M305.8,77.2h7.1v1.8h-4.5v1.4h4.1v1.8h-4.1v1.7h4.6v1.9h-7.2V77.2z"/>
	<path d="M321.5,77.2h2.5l0.9,4.8l1.3-4.8h2.5l1.3,4.8l0.9-4.8h2.5l-1.9,8.6H329l-1.5-5.4l-1.5,5.4h-2.6L321.5,77.2z"/>
	<path d="M339.7,84.4h-3l-0.4,1.4h-2.7l3.2-8.6h2.9l3.2,8.6h-2.8L339.7,84.4z M339.1,82.6l-0.9-3.1l-0.9,3.1H339.1z"/>
	<path d="M341.8,77.2h2.9l1.7,2.9l1.7-2.9h2.9l-3.3,5v3.6h-2.7v-3.6L341.8,77.2z"/>
	<path d="M351.1,83l2.5-0.2c0.1,0.4,0.2,0.7,0.3,0.9c0.3,0.3,0.7,0.5,1.2,0.5c0.4,0,0.7-0.1,0.9-0.3s0.3-0.4,0.3-0.6
		c0-0.2-0.1-0.4-0.3-0.6s-0.6-0.3-1.4-0.5c-1.2-0.3-2-0.6-2.5-1c-0.5-0.4-0.8-1-0.8-1.7c0-0.4,0.1-0.9,0.4-1.3s0.6-0.7,1.2-0.9
		s1.2-0.3,2.1-0.3c1.1,0,1.9,0.2,2.5,0.6s0.9,1.1,1,1.9l-2.5,0.1c-0.1-0.4-0.2-0.7-0.4-0.8s-0.5-0.3-0.9-0.3c-0.3,0-0.5,0.1-0.7,0.2
		s-0.2,0.3-0.2,0.5c0,0.1,0.1,0.3,0.2,0.4c0.1,0.1,0.4,0.2,0.9,0.3c1.2,0.2,2,0.5,2.5,0.8s0.9,0.6,1.1,1s0.3,0.8,0.3,1.3
		c0,0.6-0.2,1.1-0.5,1.5s-0.7,0.8-1.3,1.1s-1.2,0.4-2.1,0.4c-1.5,0-2.5-0.3-3-0.8S351.1,83.9,351.1,83z"/>
	<path d="M367.8,81.5c0-1.4,0.4-2.5,1.2-3.3s1.9-1.2,3.3-1.2c1.4,0,2.5,0.4,3.3,1.2s1.2,1.8,1.2,3.2c0,1-0.2,1.8-0.5,2.5
		s-0.8,1.1-1.5,1.5s-1.4,0.5-2.4,0.5c-1,0-1.8-0.2-2.4-0.5s-1.1-0.8-1.5-1.5S367.8,82.5,367.8,81.5z M370.5,81.6
		c0,0.9,0.2,1.5,0.5,1.9s0.8,0.6,1.3,0.6c0.6,0,1-0.2,1.3-0.6s0.5-1,0.5-2c0-0.8-0.2-1.4-0.5-1.8s-0.8-0.6-1.3-0.6
		c-0.5,0-1,0.2-1.3,0.6S370.5,80.7,370.5,81.6z"/>
	<path d="M378.2,77.2h6.6v1.8h-3.9v1.5h3.3v1.7h-3.3v3.5h-2.7V77.2z"/>
	<path d="M394.1,77.2h6.6v1.8h-3.9v1.5h3.3v1.7h-3.3v3.5h-2.7V77.2z"/>
	<path d="M402.1,85.8v-8.6h4.4c0.8,0,1.4,0.1,1.9,0.2s0.8,0.4,1,0.8s0.4,0.8,0.4,1.4c0,0.5-0.1,0.9-0.3,1.2s-0.5,0.6-0.8,0.8
		c-0.2,0.1-0.5,0.2-0.9,0.3c0.3,0.1,0.5,0.2,0.7,0.3c0.1,0.1,0.2,0.2,0.4,0.5s0.3,0.4,0.4,0.5l1.3,2.5h-3l-1.4-2.6
		c-0.2-0.3-0.3-0.6-0.5-0.7c-0.2-0.1-0.4-0.2-0.7-0.2h-0.2v3.5H402.1z M404.8,80.7h1.1c0.1,0,0.4,0,0.7-0.1c0.2,0,0.3-0.1,0.4-0.3
		s0.2-0.3,0.2-0.5c0-0.3-0.1-0.5-0.3-0.6s-0.5-0.2-1-0.2h-1.2V80.7z"/>
	<path d="M410.9,81.5c0-1.4,0.4-2.5,1.2-3.3s1.9-1.2,3.3-1.2c1.4,0,2.5,0.4,3.3,1.2s1.2,1.8,1.2,3.2c0,1-0.2,1.8-0.5,2.5
		s-0.8,1.1-1.5,1.5s-1.4,0.5-2.4,0.5c-1,0-1.8-0.2-2.4-0.5s-1.2-0.8-1.5-1.5S410.9,82.5,410.9,81.5z M413.5,81.6
		c0,0.9,0.2,1.5,0.5,1.9s0.8,0.6,1.3,0.6c0.6,0,1-0.2,1.3-0.6s0.5-1,0.5-2c0-0.8-0.2-1.4-0.5-1.8s-0.8-0.6-1.3-0.6
		c-0.5,0-1,0.2-1.3,0.6S413.5,80.7,413.5,81.6z"/>
	<path d="M421.2,77.2h2.5L427,82v-4.8h2.5v8.6H427l-3.2-4.7v4.7h-2.5V77.2z"/>
	<path d="M430.6,77.2h8.1v2.1H436v6.5h-2.7v-6.5h-2.7V77.2z"/>
	<path d="M438.5,81.8h3.5v1.8h-3.5V81.8z"/>
	<path d="M443.1,77.2h7.1v1.8h-4.5v1.4h4.1v1.8h-4.1v1.7h4.6v1.9h-7.2V77.2z"/>
	<path d="M451.8,77.2h2.5l3.2,4.8v-4.8h2.5v8.6h-2.5l-3.2-4.7v4.7h-2.5V77.2z"/>
	<path d="M461.8,77.2h3.9c0.8,0,1.4,0.1,1.9,0.3s0.9,0.5,1.2,0.9s0.5,0.9,0.7,1.4s0.2,1.1,0.2,1.7c0,0.9-0.1,1.6-0.3,2.1
		s-0.5,0.9-0.9,1.3s-0.8,0.6-1.2,0.7c-0.6,0.2-1.1,0.2-1.6,0.2h-3.9V77.2z M464.4,79.2v4.7h0.7c0.6,0,0.9-0.1,1.2-0.2
		s0.4-0.3,0.6-0.6s0.2-0.8,0.2-1.5c0-0.9-0.1-1.5-0.4-1.9s-0.8-0.5-1.5-0.5H464.4z"/>
	<path d="M23.5,91.6h3.9c0.8,0,1.4,0.1,1.9,0.3s0.9,0.5,1.2,0.9s0.5,0.9,0.7,1.4s0.2,1.1,0.2,1.7c0,0.9-0.1,1.6-0.3,2.1
		s-0.5,0.9-0.9,1.3s-0.8,0.6-1.2,0.7c-0.6,0.2-1.1,0.2-1.6,0.2h-3.9V91.6z M26.1,93.6v4.7h0.7c0.6,0,0.9-0.1,1.2-0.2s0.4-0.3,0.6-0.6
		s0.2-0.8,0.2-1.5c0-0.9-0.1-1.5-0.4-1.9s-0.8-0.5-1.5-0.5H26.1z"/>
	<path d="M32.8,91.6h7.1v1.8h-4.5v1.4h4.1v1.8h-4.1v1.7H40v1.9h-7.2V91.6z"/>
	<path d="M40.6,91.6h2.8l1.9,6.2l1.9-6.2h2.7l-3.2,8.6h-2.9L40.6,91.6z"/>
	<path d="M50.8,91.6h7.1v1.8h-4.5v1.4h4.1v1.8h-4.1v1.7H58v1.9h-7.2V91.6z"/>
	<path d="M59.4,91.6h2.7v6.5h4.1v2.1h-6.8V91.6z"/>
	<path d="M66.9,95.9c0-1.4,0.4-2.5,1.2-3.3s1.9-1.2,3.3-1.2c1.4,0,2.5,0.4,3.3,1.2s1.2,1.8,1.2,3.2c0,1-0.2,1.8-0.5,2.5
		s-0.8,1.1-1.5,1.5s-1.4,0.5-2.4,0.5c-1,0-1.8-0.2-2.4-0.5s-1.1-0.8-1.5-1.5S66.9,96.9,66.9,95.9z M69.6,96c0,0.9,0.2,1.5,0.5,1.9
		s0.8,0.6,1.3,0.6c0.6,0,1-0.2,1.3-0.6s0.5-1,0.5-2c0-0.8-0.2-1.4-0.5-1.8s-0.8-0.6-1.3-0.6c-0.5,0-1,0.2-1.3,0.6S69.6,95.1,69.6,96z
		"/>
	<path d="M77.2,91.6h4.4c1,0,1.7,0.2,2.2,0.7s0.7,1.1,0.7,2c0,0.9-0.3,1.5-0.8,2S82.4,97,81.4,97h-1.5v3.2h-2.7V91.6z M79.9,95.3h0.7
		c0.5,0,0.9-0.1,1.1-0.3s0.3-0.4,0.3-0.7c0-0.3-0.1-0.5-0.3-0.7s-0.5-0.3-1-0.3h-0.8V95.3z"/>
	<path d="M85.9,91.6h3.5l1.3,5.2l1.3-5.2h3.5v8.6h-2.2v-6.6l-1.7,6.6h-2l-1.7-6.6v6.6h-2.2V91.6z"/>
	<path d="M97.2,91.6h7.1v1.8h-4.5v1.4h4.1v1.8h-4.1v1.7h4.6v1.9h-7.2V91.6z"/>
	<path d="M105.9,91.6h2.5l3.2,4.8v-4.8h2.5v8.6h-2.5l-3.2-4.7v4.7h-2.5V91.6z"/>
	<path d="M115.3,91.6h8.1v2.1h-2.7v6.5H118v-6.5h-2.7V91.6z"/>
	<path d="M122.6,97.8h2.5v2.4h-2.5V97.8z"/>
	<path d="M130.8,91.6h2.7v8.6h-2.7V91.6z"/>
	<path d="M134.8,91.6h8.1v2.1h-2.7v6.5h-2.7v-6.5h-2.7V91.6z"/>
	<path d="M148.1,91.6h2.7v3h2.9v-3h2.7v8.6h-2.7v-3.5h-2.9v3.5h-2.7V91.6z"/>
	<path d="M163.3,98.8h-3l-0.4,1.4h-2.7l3.2-8.6h2.9l3.2,8.6h-2.8L163.3,98.8z M162.8,97l-0.9-3.1l-0.9,3.1H162.8z"/>
	<path d="M166.9,97.4l2.5-0.2c0.1,0.4,0.2,0.7,0.3,0.9c0.3,0.3,0.7,0.5,1.2,0.5c0.4,0,0.7-0.1,0.9-0.3s0.3-0.4,0.3-0.6
		c0-0.2-0.1-0.4-0.3-0.6s-0.6-0.3-1.4-0.5c-1.2-0.3-2-0.6-2.5-1c-0.5-0.4-0.8-1-0.8-1.7c0-0.4,0.1-0.9,0.4-1.3s0.6-0.7,1.2-0.9
		s1.2-0.3,2.1-0.3c1.1,0,1.9,0.2,2.5,0.6s0.9,1.1,1,1.9l-2.5,0.1c-0.1-0.4-0.2-0.7-0.4-0.8s-0.5-0.3-0.9-0.3c-0.3,0-0.5,0.1-0.7,0.2
		s-0.2,0.3-0.2,0.5c0,0.1,0.1,0.3,0.2,0.4c0.1,0.1,0.4,0.2,0.9,0.3c1.2,0.2,2,0.5,2.5,0.8s0.9,0.6,1.1,1s0.3,0.8,0.3,1.3
		c0,0.6-0.2,1.1-0.5,1.5s-0.7,0.8-1.3,1.1s-1.2,0.4-2.1,0.4c-1.5,0-2.5-0.3-3-0.8S167,98.3,166.9,97.4z"/>
	<path d="M180.1,91.6h2.5l3.2,4.8v-4.8h2.5v8.6h-2.5l-3.2-4.7v4.7h-2.5V91.6z"/>
	<path d="M189.7,95.9c0-1.4,0.4-2.5,1.2-3.3s1.9-1.2,3.3-1.2c1.4,0,2.5,0.4,3.3,1.2s1.2,1.8,1.2,3.2c0,1-0.2,1.8-0.5,2.5
		s-0.8,1.1-1.5,1.5s-1.4,0.5-2.4,0.5c-1,0-1.8-0.2-2.4-0.5s-1.1-0.8-1.5-1.5S189.7,96.9,189.7,95.9z M192.4,96c0,0.9,0.2,1.5,0.5,1.9
		s0.8,0.6,1.3,0.6c0.6,0,1-0.2,1.3-0.6s0.5-1,0.5-2c0-0.8-0.2-1.4-0.5-1.8s-0.8-0.6-1.3-0.6c-0.5,0-1,0.2-1.3,0.6
		S192.4,95.1,192.4,96z"/>
	<path d="M199,91.6h2.5l0.9,4.8l1.3-4.8h2.5l1.3,4.8l0.9-4.8h2.5l-1.9,8.6h-2.6l-1.5-5.4l-1.5,5.4h-2.6L199,91.6z"/>
	<path d="M215.9,91.6h5c0.8,0,1.5,0.2,1.9,0.6s0.7,0.9,0.7,1.5c0,0.5-0.2,0.9-0.5,1.3c-0.2,0.2-0.5,0.4-0.9,0.6
		c0.6,0.1,1.1,0.4,1.4,0.8s0.4,0.8,0.4,1.4c0,0.4-0.1,0.8-0.3,1.2s-0.5,0.6-0.8,0.8c-0.2,0.1-0.6,0.2-1,0.3c-0.6,0.1-1,0.1-1.2,0.1
		h-4.6V91.6z M218.5,95h1.2c0.4,0,0.7-0.1,0.9-0.2s0.2-0.3,0.2-0.6c0-0.2-0.1-0.4-0.2-0.6s-0.4-0.2-0.8-0.2h-1.2V95z M218.5,98.4h1.4
		c0.5,0,0.8-0.1,1-0.2s0.3-0.4,0.3-0.7c0-0.3-0.1-0.5-0.3-0.6s-0.5-0.2-1-0.2h-1.3V98.4z"/>
	<path d="M225.2,91.6h7.1v1.8h-4.5v1.4h4.1v1.8h-4.1v1.7h4.6v1.9h-7.2V91.6z"/>
	<path d="M233.8,91.6h7.1v1.8h-4.5v1.4h4.1v1.8h-4.1v1.7h4.6v1.9h-7.2V91.6z"/>
	<path d="M242.5,91.6h2.5l3.2,4.8v-4.8h2.5v8.6h-2.5l-3.2-4.7v4.7h-2.5V91.6z"/>
	<path d="M256.5,91.6h7.1v1.8h-4.5v1.4h4.1v1.8h-4.1v1.7h4.6v1.9h-7.2V91.6z"/>
	<path d="M265.2,91.6h2.7v6.5h4.1v2.1h-6.8V91.6z"/>
	<path d="M273.2,91.6h7.1v1.8h-4.5v1.4h4.1v1.8h-4.1v1.7h4.6v1.9h-7.2V91.6z"/>
	<path d="M281,91.6h2.8l1.9,6.2l1.9-6.2h2.7l-3.2,8.6h-2.9L281,91.6z"/>
	<path d="M295.8,98.8h-3l-0.4,1.4h-2.7l3.2-8.6h2.9l3.2,8.6h-2.8L295.8,98.8z M295.2,97l-0.9-3.1l-0.9,3.1H295.2z"/>
	<path d="M298.4,91.6h8.1v2.1h-2.7v6.5h-2.7v-6.5h-2.7V91.6z"/>
	<path d="M307.7,91.6h7.1v1.8h-4.5v1.4h4.1v1.8h-4.1v1.7h4.6v1.9h-7.2V91.6z"/>
	<path d="M316.4,91.6h3.9c0.8,0,1.4,0.1,1.9,0.3s0.9,0.5,1.2,0.9s0.5,0.9,0.7,1.4s0.2,1.1,0.2,1.7c0,0.9-0.1,1.6-0.3,2.1
		s-0.5,0.9-0.9,1.3s-0.8,0.6-1.2,0.7c-0.6,0.2-1.1,0.2-1.6,0.2h-3.9V91.6z M319,93.6v4.7h0.7c0.6,0,0.9-0.1,1.2-0.2s0.4-0.3,0.6-0.6
		s0.2-0.8,0.2-1.5c0-0.9-0.1-1.5-0.4-1.9s-0.8-0.5-1.5-0.5H319z"/>
	<path d="M329.1,91.6h8.1v2.1h-2.7v6.5h-2.7v-6.5h-2.7V91.6z"/>
	<path d="M337.6,95.9c0-1.4,0.4-2.5,1.2-3.3s1.9-1.2,3.3-1.2c1.4,0,2.5,0.4,3.3,1.2s1.2,1.8,1.2,3.2c0,1-0.2,1.8-0.5,2.5
		s-0.8,1.1-1.5,1.5s-1.4,0.5-2.4,0.5c-1,0-1.8-0.2-2.4-0.5s-1.1-0.8-1.5-1.5S337.6,96.9,337.6,95.9z M340.3,96c0,0.9,0.2,1.5,0.5,1.9
		s0.8,0.6,1.3,0.6c0.6,0,1-0.2,1.3-0.6s0.5-1,0.5-2c0-0.8-0.2-1.4-0.5-1.8s-0.8-0.6-1.3-0.6c-0.5,0-1,0.2-1.3,0.6
		S340.3,95.1,340.3,96z"/>
	<path d="M357.2,98.8h-3l-0.4,1.4h-2.7l3.2-8.6h2.9l3.2,8.6h-2.8L357.2,98.8z M356.7,97l-0.9-3.1l-0.9,3.1H356.7z"/>
	<path d="M361.3,91.6h2.5l3.2,4.8v-4.8h2.5v8.6H367l-3.2-4.7v4.7h-2.5V91.6z"/>
	<path d="M374.9,95.9c0-1.4,0.4-2.5,1.2-3.3s1.9-1.2,3.3-1.2c1.4,0,2.5,0.4,3.3,1.2s1.2,1.8,1.2,3.2c0,1-0.2,1.8-0.5,2.5
		s-0.8,1.1-1.5,1.5s-1.4,0.5-2.4,0.5c-1,0-1.8-0.2-2.4-0.5s-1.1-0.8-1.5-1.5S374.9,96.9,374.9,95.9z M377.6,96c0,0.9,0.2,1.5,0.5,1.9
		s0.8,0.6,1.3,0.6c0.6,0,1-0.2,1.3-0.6s0.5-1,0.5-2c0-0.8-0.2-1.4-0.5-1.8s-0.8-0.6-1.3-0.6c-0.5,0-1,0.2-1.3,0.6
		S377.6,95.1,377.6,96z"/>
	<path d="M385.3,91.6h5c0.8,0,1.5,0.2,1.9,0.6s0.7,0.9,0.7,1.5c0,0.5-0.2,0.9-0.5,1.3c-0.2,0.2-0.5,0.4-0.9,0.6
		c0.6,0.1,1.1,0.4,1.4,0.8s0.4,0.8,0.4,1.4c0,0.4-0.1,0.8-0.3,1.2s-0.5,0.6-0.8,0.8c-0.2,0.1-0.6,0.2-1,0.3c-0.6,0.1-1,0.1-1.2,0.1
		h-4.6V91.6z M387.9,95h1.2c0.4,0,0.7-0.1,0.9-0.2s0.2-0.3,0.2-0.6c0-0.2-0.1-0.4-0.2-0.6s-0.4-0.2-0.8-0.2h-1.2V95z M387.9,98.4h1.4
		c0.5,0,0.8-0.1,1-0.2s0.3-0.4,0.3-0.7c0-0.3-0.1-0.5-0.3-0.6s-0.5-0.2-1-0.2h-1.3V98.4z"/>
	<path d="M394.1,97.4l2.5-0.2c0.1,0.4,0.2,0.7,0.3,0.9c0.3,0.3,0.7,0.5,1.2,0.5c0.4,0,0.7-0.1,0.9-0.3s0.3-0.4,0.3-0.6
		c0-0.2-0.1-0.4-0.3-0.6s-0.6-0.3-1.4-0.5c-1.2-0.3-2-0.6-2.5-1c-0.5-0.4-0.8-1-0.8-1.7c0-0.4,0.1-0.9,0.4-1.3s0.6-0.7,1.2-0.9
		s1.2-0.3,2.1-0.3c1.1,0,1.9,0.2,2.5,0.6s0.9,1.1,1,1.9l-2.5,0.1c-0.1-0.4-0.2-0.7-0.4-0.8s-0.5-0.3-0.9-0.3c-0.3,0-0.5,0.1-0.7,0.2
		s-0.2,0.3-0.2,0.5c0,0.1,0.1,0.3,0.2,0.4c0.1,0.1,0.4,0.2,0.9,0.3c1.2,0.2,2,0.5,2.5,0.8s0.9,0.6,1.1,1s0.3,0.8,0.3,1.3
		c0,0.6-0.2,1.1-0.5,1.5s-0.7,0.8-1.3,1.1s-1.2,0.4-2.1,0.4c-1.5,0-2.5-0.3-3-0.8S394.2,98.3,394.1,97.4z"/>
	<path d="M403.3,91.6h7.1v1.8h-4.5v1.4h4.1v1.8h-4.1v1.7h4.6v1.9h-7.2V91.6z"/>
	<path d="M411.5,97.4l2.5-0.2c0.1,0.4,0.2,0.7,0.3,0.9c0.3,0.3,0.7,0.5,1.2,0.5c0.4,0,0.7-0.1,0.9-0.3s0.3-0.4,0.3-0.6
		c0-0.2-0.1-0.4-0.3-0.6s-0.6-0.3-1.4-0.5c-1.2-0.3-2-0.6-2.5-1c-0.5-0.4-0.8-1-0.8-1.7c0-0.4,0.1-0.9,0.4-1.3s0.6-0.7,1.2-0.9
		s1.2-0.3,2.1-0.3c1.1,0,1.9,0.2,2.5,0.6s0.9,1.1,1,1.9l-2.5,0.1c-0.1-0.4-0.2-0.7-0.4-0.8s-0.5-0.3-0.9-0.3c-0.3,0-0.5,0.1-0.7,0.2
		s-0.2,0.3-0.2,0.5c0,0.1,0.1,0.3,0.2,0.4c0.1,0.1,0.4,0.2,0.9,0.3c1.2,0.2,2,0.5,2.5,0.8s0.9,0.6,1.1,1s0.3,0.8,0.3,1.3
		c0,0.6-0.2,1.1-0.5,1.5s-0.7,0.8-1.3,1.1s-1.2,0.4-2.1,0.4c-1.5,0-2.5-0.3-3-0.8S411.5,98.3,411.5,97.4z"/>
	<path d="M420.1,97.4l2.5-0.2c0.1,0.4,0.2,0.7,0.3,0.9c0.3,0.3,0.7,0.5,1.2,0.5c0.4,0,0.7-0.1,0.9-0.3s0.3-0.4,0.3-0.6
		c0-0.2-0.1-0.4-0.3-0.6s-0.6-0.3-1.4-0.5c-1.2-0.3-2-0.6-2.5-1c-0.5-0.4-0.8-1-0.8-1.7c0-0.4,0.1-0.9,0.4-1.3s0.6-0.7,1.2-0.9
		s1.2-0.3,2.1-0.3c1.1,0,1.9,0.2,2.5,0.6s0.9,1.1,1,1.9l-2.5,0.1c-0.1-0.4-0.2-0.7-0.4-0.8s-0.5-0.3-0.9-0.3c-0.3,0-0.5,0.1-0.7,0.2
		s-0.2,0.3-0.2,0.5c0,0.1,0.1,0.3,0.2,0.4c0.1,0.1,0.4,0.2,0.9,0.3c1.2,0.2,2,0.5,2.5,0.8s0.9,0.6,1.1,1s0.3,0.8,0.3,1.3
		c0,0.6-0.2,1.1-0.5,1.5s-0.7,0.8-1.3,1.1s-1.2,0.4-2.1,0.4c-1.5,0-2.5-0.3-3-0.8S420.2,98.3,420.1,97.4z"/>
	<path d="M429.4,91.6h2.7v8.6h-2.7V91.6z"/>
	<path d="M433.6,95.9c0-1.4,0.4-2.5,1.2-3.3s1.9-1.2,3.3-1.2c1.4,0,2.5,0.4,3.3,1.2s1.2,1.8,1.2,3.2c0,1-0.2,1.8-0.5,2.5
		s-0.8,1.1-1.5,1.5s-1.4,0.5-2.4,0.5c-1,0-1.8-0.2-2.4-0.5s-1.1-0.8-1.5-1.5S433.6,96.9,433.6,95.9z M436.2,96c0,0.9,0.2,1.5,0.5,1.9
		s0.8,0.6,1.3,0.6c0.6,0,1-0.2,1.3-0.6s0.5-1,0.5-2c0-0.8-0.2-1.4-0.5-1.8s-0.8-0.6-1.3-0.6c-0.5,0-1,0.2-1.3,0.6
		S436.2,95.1,436.2,96z"/>
	<path d="M443.9,91.6h2.5l3.2,4.8v-4.8h2.5v8.6h-2.5l-3.2-4.7v4.7h-2.5V91.6z"/>
	<path d="M453.8,97.8h2.5v2.4h-2.5V97.8z"/>
	<path d="M10.4,120.4h2.7v8.6h-2.7V120.4z"/>
	<path d="M18.6,120.4h2.7v3h2.9v-3h2.7v8.6h-2.7v-3.5h-2.9v3.5h-2.7V120.4z"/>
	<path d="M33.9,127.6h-3l-0.4,1.4h-2.7l3.2-8.6h2.9l3.2,8.6h-2.8L33.9,127.6z M33.3,125.8l-0.9-3.1l-0.9,3.1H33.3z"/>
	<path d="M36.4,120.4h2.8l1.9,6.2l1.9-6.2h2.7l-3.2,8.6h-2.9L36.4,120.4z"/>
	<path d="M46.6,120.4h7.1v1.8h-4.5v1.4h4.1v1.8h-4.1v1.7h4.6v1.9h-7.2V120.4z"/>
	<path d="M64.2,127.6h-3l-0.4,1.4h-2.7l3.2-8.6h2.9l3.2,8.6h-2.8L64.2,127.6z M63.7,125.8l-0.9-3.1l-0.9,3.1H63.7z"/>
	<path d="M71.9,120.4h3.5l1.3,5.2l1.3-5.2h3.5v8.6h-2.2v-6.6l-1.7,6.6h-2l-1.7-6.6v6.6h-2.2V120.4z"/>
	<path d="M83.2,120.4h7.1v1.8h-4.5v1.4H90v1.8h-4.1v1.7h4.6v1.9h-7.2V120.4z"/>
	<path d="M91.9,120.4h3.9c0.8,0,1.4,0.1,1.9,0.3s0.9,0.5,1.2,0.9s0.5,0.9,0.7,1.4s0.2,1.1,0.2,1.7c0,0.9-0.1,1.6-0.3,2.1
		s-0.5,0.9-0.9,1.3s-0.8,0.6-1.2,0.7c-0.6,0.2-1.1,0.2-1.6,0.2h-3.9V120.4z M94.6,122.4v4.7h0.7c0.6,0,0.9-0.1,1.2-0.2
		s0.4-0.3,0.6-0.6s0.2-0.8,0.2-1.5c0-0.9-0.1-1.5-0.4-1.9s-0.8-0.5-1.5-0.5H94.6z"/>
	<path d="M101.3,120.4h2.7v8.6h-2.7V120.4z"/>
	<path d="M111.2,127.6h-3l-0.4,1.4H105l3.2-8.6h2.9l3.2,8.6h-2.8L111.2,127.6z M110.6,125.8l-0.9-3.1l-0.9,3.1H110.6z"/>
	<path d="M124.2,127.6h-3l-0.4,1.4H118l3.2-8.6h2.9l3.2,8.6h-2.8L124.2,127.6z M123.6,125.8l-0.9-3.1l-0.9,3.1H123.6z"/>
	<path d="M128.2,120.4h2.5l3.2,4.8v-4.8h2.5v8.6H134l-3.2-4.7v4.7h-2.5V120.4z"/>
	<path d="M138.3,120.4h3.9c0.8,0,1.4,0.1,1.9,0.3s0.9,0.5,1.2,0.9s0.5,0.9,0.7,1.4s0.2,1.1,0.2,1.7c0,0.9-0.1,1.6-0.3,2.1
		s-0.5,0.9-0.9,1.3s-0.8,0.6-1.2,0.7c-0.6,0.2-1.1,0.2-1.6,0.2h-3.9V120.4z M140.9,122.4v4.7h0.7c0.6,0,0.9-0.1,1.2-0.2
		s0.4-0.3,0.6-0.6s0.2-0.8,0.2-1.5c0-0.9-0.1-1.5-0.4-1.9s-0.8-0.5-1.5-0.5H140.9z"/>
	<path d="M156.9,125.5l2.3,0.7c-0.2,0.7-0.4,1.2-0.7,1.6s-0.8,0.8-1.3,1s-1.1,0.3-1.9,0.3c-0.9,0-1.7-0.1-2.3-0.4
		c-0.6-0.3-1.1-0.7-1.5-1.4c-0.4-0.7-0.6-1.6-0.6-2.6c0-1.4,0.4-2.5,1.1-3.3c0.8-0.8,1.8-1.1,3.2-1.1c1.1,0,1.9,0.2,2.6,0.7
		s1.1,1.1,1.4,2l-2.3,0.5c-0.1-0.3-0.2-0.5-0.3-0.6c-0.1-0.2-0.3-0.4-0.5-0.5s-0.5-0.2-0.7-0.2c-0.6,0-1.1,0.2-1.4,0.7
		c-0.2,0.4-0.4,0.9-0.4,1.7c0,1,0.1,1.6,0.4,2c0.3,0.4,0.7,0.5,1.2,0.5c0.5,0,0.9-0.1,1.2-0.4S156.8,126.1,156.9,125.5z"/>
	<path d="M160.2,124.7c0-1.4,0.4-2.5,1.2-3.3s1.9-1.2,3.3-1.2c1.4,0,2.5,0.4,3.3,1.2s1.2,1.8,1.2,3.2c0,1-0.2,1.8-0.5,2.5
		s-0.8,1.1-1.5,1.5s-1.4,0.5-2.4,0.5c-1,0-1.8-0.2-2.4-0.5s-1.1-0.8-1.5-1.5S160.2,125.7,160.2,124.7z M162.9,124.8
		c0,0.9,0.2,1.5,0.5,1.9s0.8,0.6,1.3,0.6c0.6,0,1-0.2,1.3-0.6s0.5-1,0.5-2c0-0.8-0.2-1.4-0.5-1.8s-0.8-0.6-1.3-0.6
		c-0.5,0-1,0.2-1.3,0.6S162.9,123.9,162.9,124.8z"/>
	<path d="M170.5,120.4h3.5l1.3,5.2l1.3-5.2h3.5v8.6H178v-6.6l-1.7,6.6h-2l-1.7-6.6v6.6h-2.2V120.4z"/>
	<path d="M181.8,120.4h3.5l1.3,5.2l1.3-5.2h3.5v8.6h-2.2v-6.6l-1.7,6.6h-2l-1.7-6.6v6.6h-2.2V120.4z"/>
	<path d="M198.8,120.4h2.6v5.1c0,0.5-0.1,1-0.2,1.4c-0.2,0.5-0.4,0.8-0.7,1.2s-0.7,0.6-1.1,0.7c-0.5,0.2-1.1,0.3-1.9,0.3
		c-0.4,0-0.9,0-1.4-0.1s-0.9-0.2-1.2-0.3c-0.3-0.2-0.6-0.4-0.9-0.7s-0.5-0.6-0.6-1c-0.2-0.5-0.2-1-0.2-1.5v-5.1h2.6v5.2
		c0,0.5,0.1,0.8,0.4,1.1c0.3,0.3,0.6,0.4,1.1,0.4c0.5,0,0.8-0.1,1.1-0.4c0.3-0.3,0.4-0.6,0.4-1.1V120.4z"/>
	<path d="M203.2,120.4h2.5l3.2,4.8v-4.8h2.5v8.6h-2.5l-3.2-4.7v4.7h-2.5V120.4z"/>
	<path d="M213.3,120.4h2.7v8.6h-2.7V120.4z"/>
	<path d="M223.6,125.5l2.3,0.7c-0.2,0.7-0.4,1.2-0.7,1.6s-0.8,0.8-1.3,1s-1.1,0.3-1.9,0.3c-0.9,0-1.7-0.1-2.3-0.4
		c-0.6-0.3-1.1-0.7-1.5-1.4c-0.4-0.7-0.6-1.6-0.6-2.6c0-1.4,0.4-2.5,1.1-3.3c0.8-0.8,1.8-1.1,3.2-1.1c1.1,0,1.9,0.2,2.6,0.7
		s1.1,1.1,1.4,2l-2.3,0.5c-0.1-0.3-0.2-0.5-0.3-0.6c-0.1-0.2-0.3-0.4-0.5-0.5s-0.5-0.2-0.7-0.2c-0.6,0-1.1,0.2-1.4,0.7
		c-0.2,0.4-0.4,0.9-0.4,1.7c0,1,0.1,1.6,0.4,2c0.3,0.4,0.7,0.5,1.2,0.5c0.5,0,0.9-0.1,1.2-0.4S223.5,126.1,223.6,125.5z"/>
	<path d="M232.5,127.6h-3L229,129h-2.7l3.2-8.6h2.9l3.2,8.6h-2.8L232.5,127.6z M231.9,125.8l-0.9-3.1l-0.9,3.1H231.9z"/>
	<path d="M235.1,120.4h8.1v2.1h-2.7v6.5h-2.7v-6.5h-2.7V120.4z"/>
	<path d="M244.5,120.4h2.7v8.6h-2.7V120.4z"/>
	<path d="M248.7,124.7c0-1.4,0.4-2.5,1.2-3.3s1.9-1.2,3.3-1.2c1.4,0,2.5,0.4,3.3,1.2s1.2,1.8,1.2,3.2c0,1-0.2,1.8-0.5,2.5
		s-0.8,1.1-1.5,1.5s-1.4,0.5-2.4,0.5c-1,0-1.8-0.2-2.4-0.5s-1.1-0.8-1.5-1.5S248.7,125.7,248.7,124.7z M251.3,124.8
		c0,0.9,0.2,1.5,0.5,1.9s0.8,0.6,1.3,0.6c0.6,0,1-0.2,1.3-0.6s0.5-1,0.5-2c0-0.8-0.2-1.4-0.5-1.8s-0.8-0.6-1.3-0.6
		c-0.5,0-1,0.2-1.3,0.6S251.3,123.9,251.3,124.8z"/>
	<path d="M259,120.4h2.5l3.2,4.8v-4.8h2.5v8.6h-2.5l-3.2-4.7v4.7H259V120.4z"/>
	<path d="M268.6,126.2l2.5-0.2c0.1,0.4,0.2,0.7,0.3,0.9c0.3,0.3,0.7,0.5,1.2,0.5c0.4,0,0.7-0.1,0.9-0.3s0.3-0.4,0.3-0.6
		c0-0.2-0.1-0.4-0.3-0.6s-0.6-0.3-1.4-0.5c-1.2-0.3-2-0.6-2.5-1c-0.5-0.4-0.8-1-0.8-1.7c0-0.4,0.1-0.9,0.4-1.3s0.6-0.7,1.2-0.9
		s1.2-0.3,2.1-0.3c1.1,0,1.9,0.2,2.5,0.6s0.9,1.1,1,1.9l-2.5,0.1c-0.1-0.4-0.2-0.7-0.4-0.8s-0.5-0.3-0.9-0.3c-0.3,0-0.5,0.1-0.7,0.2
		s-0.2,0.3-0.2,0.5c0,0.1,0.1,0.3,0.2,0.4c0.1,0.1,0.4,0.2,0.9,0.3c1.2,0.2,2,0.5,2.5,0.8c0.5,0.3,0.9,0.6,1.1,1s0.3,0.8,0.3,1.3
		c0,0.6-0.2,1.1-0.5,1.5s-0.7,0.8-1.3,1.1c-0.5,0.2-1.2,0.4-2.1,0.4c-1.5,0-2.5-0.3-3-0.8S268.6,127.1,268.6,126.2z"/>
	<path d="M281.4,120.4h3.9c0.8,0,1.4,0.1,1.9,0.3s0.9,0.5,1.2,0.9s0.5,0.9,0.7,1.4s0.2,1.1,0.2,1.7c0,0.9-0.1,1.6-0.3,2.1
		s-0.5,0.9-0.9,1.3s-0.8,0.6-1.2,0.7c-0.6,0.2-1.1,0.2-1.6,0.2h-3.9V120.4z M284,122.4v4.7h0.7c0.6,0,0.9-0.1,1.2-0.2
		s0.4-0.3,0.6-0.6s0.2-0.8,0.2-1.5c0-0.9-0.1-1.5-0.4-1.9s-0.8-0.5-1.5-0.5H284z"/>
	<path d="M290.7,120.4h7.1v1.8h-4.5v1.4h4.1v1.8h-4.1v1.7h4.6v1.9h-7.2V120.4z"/>
	<path d="M303.7,125.9v-1.8h4.1v3.7c-0.8,0.5-1.5,0.9-2.1,1.1s-1.3,0.3-2.1,0.3c-1,0-1.9-0.2-2.5-0.5s-1.1-0.9-1.5-1.6
		s-0.5-1.5-0.5-2.4c0-0.9,0.2-1.8,0.6-2.4s1-1.2,1.7-1.6c0.6-0.3,1.4-0.4,2.3-0.4c0.9,0,1.7,0.1,2.1,0.3s0.9,0.4,1.2,0.8
		s0.5,0.8,0.7,1.4l-2.6,0.5c-0.1-0.3-0.3-0.6-0.5-0.7s-0.6-0.3-1-0.3c-0.6,0-1,0.2-1.4,0.6s-0.5,1-0.5,1.9c0,0.9,0.2,1.6,0.5,2
		s0.8,0.6,1.5,0.6c0.3,0,0.6,0,0.8-0.1s0.6-0.2,0.9-0.4v-0.8H303.7z"/>
	<path d="M309.4,129v-8.6h4.4c0.8,0,1.4,0.1,1.9,0.2s0.8,0.4,1,0.8s0.4,0.8,0.4,1.4c0,0.5-0.1,0.9-0.3,1.2s-0.5,0.6-0.8,0.8
		c-0.2,0.1-0.5,0.2-0.9,0.3c0.3,0.1,0.5,0.2,0.7,0.3c0.1,0.1,0.2,0.2,0.4,0.5s0.3,0.4,0.4,0.5l1.3,2.5h-3l-1.4-2.6
		c-0.2-0.3-0.3-0.6-0.5-0.7c-0.2-0.1-0.4-0.2-0.7-0.2H312v3.5H309.4z M312,123.9h1.1c0.1,0,0.4,0,0.7-0.1c0.2,0,0.3-0.1,0.4-0.3
		s0.2-0.3,0.2-0.5c0-0.3-0.1-0.5-0.3-0.6s-0.5-0.2-1-0.2H312V123.9z"/>
	<path d="M318.7,120.4h7.1v1.8h-4.5v1.4h4.1v1.8h-4.1v1.7h4.6v1.9h-7.2V120.4z"/>
	<path d="M327.3,120.4h7.1v1.8H330v1.4h4.1v1.8H330v1.7h4.6v1.9h-7.2V120.4z"/>
	<path d="M339.7,120.4h6.6v1.8h-3.9v1.5h3.3v1.7h-3.3v3.5h-2.7V120.4z"/>
	<path d="M347.7,129v-8.6h4.4c0.8,0,1.4,0.1,1.9,0.2s0.8,0.4,1,0.8s0.4,0.8,0.4,1.4c0,0.5-0.1,0.9-0.3,1.2s-0.5,0.6-0.8,0.8
		c-0.2,0.1-0.5,0.2-0.9,0.3c0.3,0.1,0.5,0.2,0.7,0.3c0.1,0.1,0.2,0.2,0.4,0.5s0.3,0.4,0.4,0.5l1.3,2.5h-3l-1.4-2.6
		c-0.2-0.3-0.3-0.6-0.5-0.7c-0.2-0.1-0.4-0.2-0.7-0.2h-0.2v3.5H347.7z M350.3,123.9h1.1c0.1,0,0.4,0,0.7-0.1c0.2,0,0.3-0.1,0.4-0.3
		s0.2-0.3,0.2-0.5c0-0.3-0.1-0.5-0.3-0.6s-0.5-0.2-1-0.2h-1.2V123.9z"/>
	<path d="M356.4,124.7c0-1.4,0.4-2.5,1.2-3.3s1.9-1.2,3.3-1.2c1.4,0,2.5,0.4,3.3,1.2s1.2,1.8,1.2,3.2c0,1-0.2,1.8-0.5,2.5
		s-0.8,1.1-1.5,1.5s-1.4,0.5-2.4,0.5c-1,0-1.8-0.2-2.4-0.5s-1.2-0.8-1.5-1.5S356.4,125.7,356.4,124.7z M359.1,124.8
		c0,0.9,0.2,1.5,0.5,1.9s0.8,0.6,1.3,0.6c0.6,0,1-0.2,1.3-0.6s0.5-1,0.5-2c0-0.8-0.2-1.4-0.5-1.8s-0.8-0.6-1.3-0.6
		c-0.5,0-1,0.2-1.3,0.6S359.1,123.9,359.1,124.8z"/>
	<path d="M366.7,120.4h3.5l1.3,5.2l1.3-5.2h3.5v8.6h-2.2v-6.6l-1.7,6.6h-2l-1.7-6.6v6.6h-2.2V120.4z"/>
	<path d="M386.1,125.9v-1.8h4.1v3.7c-0.8,0.5-1.5,0.9-2.1,1.1s-1.3,0.3-2.1,0.3c-1,0-1.8-0.2-2.5-0.5s-1.1-0.9-1.5-1.6
		s-0.5-1.5-0.5-2.4c0-0.9,0.2-1.8,0.6-2.4s1-1.2,1.7-1.6c0.6-0.3,1.4-0.4,2.3-0.4c0.9,0,1.7,0.1,2.1,0.3s0.9,0.4,1.2,0.8
		s0.5,0.8,0.7,1.4l-2.6,0.5c-0.1-0.3-0.3-0.6-0.5-0.7s-0.6-0.3-1-0.3c-0.6,0-1,0.2-1.4,0.6s-0.5,1-0.5,1.9c0,0.9,0.2,1.6,0.5,2
		s0.8,0.6,1.5,0.6c0.3,0,0.6,0,0.8-0.1s0.6-0.2,0.9-0.4v-0.8H386.1z"/>
	<path d="M391.4,124.7c0-1.4,0.4-2.5,1.2-3.3s1.9-1.2,3.3-1.2c1.4,0,2.5,0.4,3.3,1.2s1.2,1.8,1.2,3.2c0,1-0.2,1.8-0.5,2.5
		s-0.8,1.1-1.5,1.5s-1.4,0.5-2.4,0.5c-1,0-1.8-0.2-2.4-0.5s-1.2-0.8-1.5-1.5S391.4,125.7,391.4,124.7z M394.1,124.8
		c0,0.9,0.2,1.5,0.5,1.9s0.8,0.6,1.3,0.6c0.6,0,1-0.2,1.3-0.6s0.5-1,0.5-2c0-0.8-0.2-1.4-0.5-1.8s-0.8-0.6-1.3-0.6
		c-0.5,0-1,0.2-1.3,0.6S394.1,123.9,394.1,124.8z"/>
	<path d="M401.7,120.4h2.7v6.5h4.1v2.1h-6.8V120.4z"/>
	<path d="M409.8,120.4h3.9c0.8,0,1.4,0.1,1.9,0.3s0.9,0.5,1.2,0.9s0.5,0.9,0.7,1.4s0.2,1.1,0.2,1.7c0,0.9-0.1,1.6-0.3,2.1
		s-0.5,0.9-0.9,1.3s-0.8,0.6-1.2,0.7c-0.6,0.2-1.1,0.2-1.6,0.2h-3.9V120.4z M412.4,122.4v4.7h0.7c0.6,0,0.9-0.1,1.2-0.2
		s0.4-0.3,0.6-0.6s0.2-0.8,0.2-1.5c0-0.9-0.1-1.5-0.4-1.9s-0.8-0.5-1.5-0.5H412.4z"/>
	<path d="M418.6,126.2l2.5-0.2c0.1,0.4,0.2,0.7,0.3,0.9c0.3,0.3,0.7,0.5,1.2,0.5c0.4,0,0.7-0.1,0.9-0.3s0.3-0.4,0.3-0.6
		c0-0.2-0.1-0.4-0.3-0.6s-0.6-0.3-1.4-0.5c-1.2-0.3-2-0.6-2.5-1c-0.5-0.4-0.8-1-0.8-1.7c0-0.4,0.1-0.9,0.4-1.3s0.6-0.7,1.2-0.9
		s1.2-0.3,2.1-0.3c1.1,0,1.9,0.2,2.5,0.6s0.9,1.1,1,1.9l-2.5,0.1c-0.1-0.4-0.2-0.7-0.4-0.8s-0.5-0.3-0.9-0.3c-0.3,0-0.5,0.1-0.7,0.2
		s-0.2,0.3-0.2,0.5c0,0.1,0.1,0.3,0.2,0.4c0.1,0.1,0.4,0.2,0.9,0.3c1.2,0.2,2,0.5,2.5,0.8s0.9,0.6,1.1,1s0.3,0.8,0.3,1.3
		c0,0.6-0.2,1.1-0.5,1.5s-0.7,0.8-1.3,1.1s-1.2,0.4-2.1,0.4c-1.5,0-2.5-0.3-3-0.8S418.7,127.1,418.6,126.2z"/>
	<path d="M427.7,120.4h3.5l1.3,5.2l1.3-5.2h3.5v8.6h-2.2v-6.6l-1.7,6.6h-2l-1.7-6.6v6.6h-2.2V120.4z"/>
	<path d="M439.2,120.4h2.7v8.6h-2.7V120.4z"/>
	<path d="M443.1,120.4h8.1v2.1h-2.7v6.5h-2.7v-6.5h-2.7V120.4z"/>
	<path d="M452.4,120.4h2.7v3h2.9v-3h2.7v8.6H458v-3.5h-2.9v3.5h-2.7V120.4z"/>
	<path d="M461.9,126.2l2.5-0.2c0.1,0.4,0.2,0.7,0.3,0.9c0.3,0.3,0.7,0.5,1.2,0.5c0.4,0,0.7-0.1,0.9-0.3s0.3-0.4,0.3-0.6
		c0-0.2-0.1-0.4-0.3-0.6s-0.6-0.3-1.4-0.5c-1.2-0.3-2-0.6-2.5-1c-0.5-0.4-0.8-1-0.8-1.7c0-0.4,0.1-0.9,0.4-1.3s0.6-0.7,1.2-0.9
		s1.2-0.3,2.1-0.3c1.1,0,1.9,0.2,2.5,0.6s0.9,1.1,1,1.9l-2.5,0.1c-0.1-0.4-0.2-0.7-0.4-0.8s-0.5-0.3-0.9-0.3c-0.3,0-0.5,0.1-0.7,0.2
		s-0.2,0.3-0.2,0.5c0,0.1,0.1,0.3,0.2,0.4c0.1,0.1,0.4,0.2,0.9,0.3c1.2,0.2,2,0.5,2.5,0.8s0.9,0.6,1.1,1s0.3,0.8,0.3,1.3
		c0,0.6-0.2,1.1-0.5,1.5s-0.7,0.8-1.3,1.1s-1.2,0.4-2.1,0.4c-1.5,0-2.5-0.3-3-0.8S462,127.1,461.9,126.2z"/>
	<path d="M16,139.9l2.3,0.7c-0.2,0.7-0.4,1.2-0.7,1.6s-0.8,0.8-1.3,1s-1.1,0.3-1.9,0.3c-0.9,0-1.7-0.1-2.3-0.4s-1.1-0.7-1.5-1.4
		c-0.4-0.7-0.6-1.6-0.6-2.6c0-1.4,0.4-2.5,1.1-3.3c0.8-0.8,1.8-1.1,3.2-1.1c1.1,0,1.9,0.2,2.6,0.7s1.1,1.1,1.4,2l-2.3,0.5
		c-0.1-0.3-0.2-0.5-0.3-0.6c-0.1-0.2-0.3-0.4-0.5-0.5s-0.5-0.2-0.7-0.2c-0.6,0-1.1,0.2-1.4,0.7c-0.2,0.4-0.4,0.9-0.4,1.7
		c0,1,0.1,1.6,0.4,2c0.3,0.4,0.7,0.5,1.2,0.5c0.5,0,0.9-0.1,1.2-0.4S15.9,140.5,16,139.9z"/>
	<path d="M19.3,139.1c0-1.4,0.4-2.5,1.2-3.3s1.9-1.2,3.3-1.2c1.4,0,2.5,0.4,3.3,1.2s1.2,1.8,1.2,3.2c0,1-0.2,1.8-0.5,2.5
		s-0.8,1.1-1.5,1.5s-1.4,0.5-2.4,0.5c-1,0-1.8-0.2-2.4-0.5s-1.1-0.8-1.5-1.5S19.3,140.1,19.3,139.1z M22,139.2c0,0.9,0.2,1.5,0.5,1.9
		s0.8,0.6,1.3,0.6c0.6,0,1-0.2,1.3-0.6s0.5-1,0.5-2c0-0.8-0.2-1.4-0.5-1.8s-0.8-0.6-1.3-0.6c-0.5,0-1,0.2-1.3,0.6S22,138.3,22,139.2z
		"/>
	<path d="M29.6,134.8h2.7v6.5h4.1v2.1h-6.8V134.8z"/>
	<path d="M37.6,134.8h2.7v6.5h4.1v2.1h-6.8V134.8z"/>
	<path d="M45.6,134.8h7.1v1.8h-4.5v1.4h4.1v1.8h-4.1v1.7h4.6v1.9h-7.2V134.8z"/>
	<path d="M58.6,140.3v-1.8h4.1v3.7c-0.8,0.5-1.5,0.9-2.1,1.1s-1.3,0.3-2.1,0.3c-1,0-1.9-0.2-2.5-0.5s-1.1-0.9-1.5-1.6
		S54,140,54,139.1c0-0.9,0.2-1.8,0.6-2.4s1-1.2,1.7-1.6c0.6-0.3,1.4-0.4,2.3-0.4c0.9,0,1.7,0.1,2.1,0.3s0.9,0.4,1.2,0.8
		s0.5,0.8,0.7,1.4l-2.6,0.5c-0.1-0.3-0.3-0.6-0.5-0.7s-0.6-0.3-1-0.3c-0.6,0-1,0.2-1.4,0.6s-0.5,1-0.5,1.9c0,0.9,0.2,1.6,0.5,2
		s0.8,0.6,1.5,0.6c0.3,0,0.6,0,0.8-0.1s0.6-0.2,0.9-0.4v-0.8H58.6z"/>
	<path d="M64.3,134.8h7.1v1.8H67v1.4h4.1v1.8H67v1.7h4.6v1.9h-7.2V134.8z"/>
	<path d="M82.6,142h-3l-0.4,1.4h-2.7l3.2-8.6h2.9l3.2,8.6h-2.8L82.6,142z M82.1,140.2l-0.9-3.1l-0.9,3.1H82.1z"/>
	<path d="M86.7,134.8h2.5l3.2,4.8v-4.8h2.5v8.6h-2.5l-3.2-4.7v4.7h-2.5V134.8z"/>
	<path d="M96.7,134.8h3.9c0.8,0,1.4,0.1,1.9,0.3s0.9,0.5,1.2,0.9s0.5,0.9,0.7,1.4s0.2,1.1,0.2,1.7c0,0.9-0.1,1.6-0.3,2.1
		s-0.5,0.9-0.9,1.3s-0.8,0.6-1.2,0.7c-0.6,0.2-1.1,0.2-1.6,0.2h-3.9V134.8z M99.4,136.8v4.7h0.7c0.6,0,0.9-0.1,1.2-0.2
		s0.4-0.3,0.6-0.6s0.2-0.8,0.2-1.5c0-0.9-0.1-1.5-0.4-1.9s-0.8-0.5-1.5-0.5H99.4z"/>
	<path d="M110.4,134.8h5c0.8,0,1.5,0.2,1.9,0.6s0.7,0.9,0.7,1.5c0,0.5-0.2,0.9-0.5,1.3c-0.2,0.2-0.5,0.4-0.9,0.6
		c0.6,0.1,1.1,0.4,1.4,0.8s0.4,0.8,0.4,1.4c0,0.4-0.1,0.8-0.3,1.2s-0.5,0.6-0.8,0.8c-0.2,0.1-0.6,0.2-1,0.3c-0.6,0.1-1,0.1-1.2,0.1
		h-4.6V134.8z M113.1,138.2h1.2c0.4,0,0.7-0.1,0.9-0.2s0.2-0.3,0.2-0.6c0-0.2-0.1-0.4-0.2-0.6s-0.4-0.2-0.8-0.2h-1.2V138.2z
		 M113.1,141.6h1.4c0.5,0,0.8-0.1,1-0.2s0.3-0.4,0.3-0.7c0-0.3-0.1-0.5-0.3-0.6s-0.5-0.2-1-0.2h-1.3V141.6z"/>
	<path d="M119.7,134.8h7.1v1.8h-4.5v1.4h4.1v1.8h-4.1v1.7h4.6v1.9h-7.2V134.8z"/>
	<path d="M128.4,134.8h6.6v1.8h-3.9v1.5h3.3v1.7h-3.3v3.5h-2.7V134.8z"/>
	<path d="M136.1,139.1c0-1.4,0.4-2.5,1.2-3.3s1.9-1.2,3.3-1.2c1.4,0,2.5,0.4,3.3,1.2s1.2,1.8,1.2,3.2c0,1-0.2,1.8-0.5,2.5
		s-0.8,1.1-1.5,1.5s-1.4,0.5-2.4,0.5c-1,0-1.8-0.2-2.4-0.5s-1.1-0.8-1.5-1.5S136.1,140.1,136.1,139.1z M138.7,139.2
		c0,0.9,0.2,1.5,0.5,1.9s0.8,0.6,1.3,0.6c0.6,0,1-0.2,1.3-0.6s0.5-1,0.5-2c0-0.8-0.2-1.4-0.5-1.8s-0.8-0.6-1.3-0.6
		c-0.5,0-1,0.2-1.3,0.6S138.7,138.3,138.7,139.2z"/>
	<path d="M146.4,143.4v-8.6h4.4c0.8,0,1.4,0.1,1.9,0.2s0.8,0.4,1,0.8s0.4,0.8,0.4,1.4c0,0.5-0.1,0.9-0.3,1.2
		c-0.2,0.3-0.5,0.6-0.8,0.8c-0.2,0.1-0.5,0.2-0.9,0.3c0.3,0.1,0.5,0.2,0.7,0.3c0.1,0.1,0.2,0.2,0.4,0.5c0.2,0.2,0.3,0.4,0.4,0.5
		l1.3,2.5h-3l-1.4-2.6c-0.2-0.3-0.3-0.6-0.5-0.7c-0.2-0.1-0.4-0.2-0.7-0.2h-0.2v3.5H146.4z M149.1,138.3h1.1c0.1,0,0.4,0,0.7-0.1
		c0.2,0,0.3-0.1,0.4-0.3s0.2-0.3,0.2-0.5c0-0.3-0.1-0.5-0.3-0.6s-0.5-0.2-1-0.2h-1.2V138.3z"/>
	<path d="M155.7,134.8h7.1v1.8h-4.5v1.4h4.1v1.8h-4.1v1.7h4.6v1.9h-7.2V134.8z"/>
	<path d="M168.8,134.8h5c0.8,0,1.5,0.2,1.9,0.6s0.7,0.9,0.7,1.5c0,0.5-0.2,0.9-0.5,1.3c-0.2,0.2-0.5,0.4-0.9,0.6
		c0.6,0.1,1.1,0.4,1.4,0.8s0.4,0.8,0.4,1.4c0,0.4-0.1,0.8-0.3,1.2s-0.5,0.6-0.8,0.8c-0.2,0.1-0.6,0.2-1,0.3c-0.6,0.1-1,0.1-1.2,0.1
		h-4.6V134.8z M171.4,138.2h1.2c0.4,0,0.7-0.1,0.9-0.2s0.2-0.3,0.2-0.6c0-0.2-0.1-0.4-0.2-0.6s-0.4-0.2-0.8-0.2h-1.2V138.2z
		 M171.4,141.6h1.4c0.5,0,0.8-0.1,1-0.2s0.3-0.4,0.3-0.7c0-0.3-0.1-0.5-0.3-0.6s-0.5-0.2-1-0.2h-1.3V141.6z"/>
	<path d="M178.1,134.8h7.1v1.8h-4.5v1.4h4.1v1.8h-4.1v1.7h4.6v1.9h-7.2V134.8z"/>
	<path d="M191.1,140.3v-1.8h4.1v3.7c-0.8,0.5-1.5,0.9-2.1,1.1s-1.3,0.3-2.1,0.3c-1,0-1.9-0.2-2.5-0.5s-1.1-0.9-1.5-1.6
		s-0.5-1.5-0.5-2.4c0-0.9,0.2-1.8,0.6-2.4s1-1.2,1.7-1.6c0.6-0.3,1.4-0.4,2.3-0.4c0.9,0,1.7,0.1,2.1,0.3s0.9,0.4,1.2,0.8
		s0.5,0.8,0.7,1.4l-2.6,0.5c-0.1-0.3-0.3-0.6-0.5-0.7s-0.6-0.3-1-0.3c-0.6,0-1,0.2-1.4,0.6s-0.5,1-0.5,1.9c0,0.9,0.2,1.6,0.5,2
		s0.8,0.6,1.5,0.6c0.3,0,0.6,0,0.8-0.1s0.6-0.2,0.9-0.4v-0.8H191.1z"/>
	<path d="M196.9,134.8h2.7v8.6h-2.7V134.8z"/>
	<path d="M201.4,134.8h2.5l3.2,4.8v-4.8h2.5v8.6h-2.5l-3.2-4.7v4.7h-2.5V134.8z"/>
	<path d="M211.4,134.8h2.5l3.2,4.8v-4.8h2.5v8.6h-2.5l-3.2-4.7v4.7h-2.5V134.8z"/>
	<path d="M221.5,134.8h2.7v8.6h-2.7V134.8z"/>
	<path d="M226.1,134.8h2.5l3.2,4.8v-4.8h2.5v8.6h-2.5l-3.2-4.7v4.7h-2.5V134.8z"/>
	<path d="M240.4,140.3v-1.8h4.1v3.7c-0.8,0.5-1.5,0.9-2.1,1.1s-1.3,0.3-2.1,0.3c-1,0-1.9-0.2-2.5-0.5s-1.1-0.9-1.5-1.6
		s-0.5-1.5-0.5-2.4c0-0.9,0.2-1.8,0.6-2.4s1-1.2,1.7-1.6c0.6-0.3,1.4-0.4,2.3-0.4c0.9,0,1.7,0.1,2.1,0.3s0.9,0.4,1.2,0.8
		s0.5,0.8,0.7,1.4l-2.6,0.5c-0.1-0.3-0.3-0.6-0.5-0.7s-0.6-0.3-1-0.3c-0.6,0-1,0.2-1.4,0.6s-0.5,1-0.5,1.9c0,0.9,0.2,1.6,0.5,2
		s0.8,0.6,1.5,0.6c0.3,0,0.6,0,0.8-0.1s0.6-0.2,0.9-0.4v-0.8H240.4z"/>
	<path d="M250.4,134.8h3.5l1.3,5.2l1.3-5.2h3.5v8.6h-2.2v-6.6l-1.7,6.6h-2l-1.7-6.6v6.6h-2.2V134.8z"/>
	<path d="M260.9,134.8h2.9l1.7,2.9l1.7-2.9h2.9l-3.3,5v3.6h-2.7v-3.6L260.9,134.8z"/>
	<path d="M281.2,139.9l2.3,0.7c-0.2,0.7-0.4,1.2-0.7,1.6s-0.8,0.8-1.3,1s-1.1,0.3-1.9,0.3c-0.9,0-1.7-0.1-2.3-0.4s-1.1-0.7-1.5-1.4
		c-0.4-0.7-0.6-1.6-0.6-2.6c0-1.4,0.4-2.5,1.1-3.3c0.8-0.8,1.8-1.1,3.2-1.1c1.1,0,1.9,0.2,2.6,0.7s1.1,1.1,1.4,2l-2.3,0.5
		c-0.1-0.3-0.2-0.5-0.3-0.6c-0.1-0.2-0.3-0.4-0.5-0.5s-0.5-0.2-0.7-0.2c-0.6,0-1.1,0.2-1.4,0.7c-0.2,0.4-0.4,0.9-0.4,1.7
		c0,1,0.1,1.6,0.4,2c0.3,0.4,0.7,0.5,1.2,0.5c0.5,0,0.9-0.1,1.2-0.4S281.1,140.5,281.2,139.9z"/>
	<path d="M284.5,139.1c0-1.4,0.4-2.5,1.2-3.3s1.9-1.2,3.3-1.2c1.4,0,2.5,0.4,3.3,1.2s1.2,1.8,1.2,3.2c0,1-0.2,1.8-0.5,2.5
		s-0.8,1.1-1.5,1.5s-1.4,0.5-2.4,0.5c-1,0-1.8-0.2-2.4-0.5s-1.1-0.8-1.5-1.5S284.5,140.1,284.5,139.1z M287.1,139.2
		c0,0.9,0.2,1.5,0.5,1.9s0.8,0.6,1.3,0.6c0.6,0,1-0.2,1.3-0.6s0.5-1,0.5-2c0-0.8-0.2-1.4-0.5-1.8s-0.8-0.6-1.3-0.6
		c-0.5,0-1,0.2-1.3,0.6S287.1,138.3,287.1,139.2z"/>
	<path d="M294.9,134.8h3.9c0.8,0,1.4,0.1,1.9,0.3s0.9,0.5,1.2,0.9s0.5,0.9,0.7,1.4s0.2,1.1,0.2,1.7c0,0.9-0.1,1.6-0.3,2.1
		s-0.5,0.9-0.9,1.3s-0.8,0.6-1.2,0.7c-0.6,0.2-1.1,0.2-1.6,0.2h-3.9V134.8z M297.5,136.8v4.7h0.7c0.6,0,0.9-0.1,1.2-0.2
		s0.4-0.3,0.6-0.6s0.2-0.8,0.2-1.5c0-0.9-0.1-1.5-0.4-1.9s-0.8-0.5-1.5-0.5H297.5z"/>
	<path d="M304.3,134.8h2.7v8.6h-2.7V134.8z"/>
	<path d="M308.8,134.8h2.5l3.2,4.8v-4.8h2.5v8.6h-2.5l-3.2-4.7v4.7h-2.5V134.8z"/>
	<path d="M323.1,140.3v-1.8h4.1v3.7c-0.8,0.5-1.5,0.9-2.1,1.1s-1.3,0.3-2.1,0.3c-1,0-1.9-0.2-2.5-0.5s-1.1-0.9-1.5-1.6
		s-0.5-1.5-0.5-2.4c0-0.9,0.2-1.8,0.6-2.4s1-1.2,1.7-1.6c0.6-0.3,1.4-0.4,2.3-0.4c0.9,0,1.7,0.1,2.1,0.3s0.9,0.4,1.2,0.8
		s0.5,0.8,0.7,1.4l-2.6,0.5c-0.1-0.3-0.3-0.6-0.5-0.7s-0.6-0.3-1-0.3c-0.6,0-1,0.2-1.4,0.6s-0.5,1-0.5,1.9c0,0.9,0.2,1.6,0.5,2
		s0.8,0.6,1.5,0.6c0.3,0,0.6,0,0.8-0.1s0.6-0.2,0.9-0.4v-0.8H323.1z"/>
	<path d="M336.8,134.8h2.7v4.7c0,1-0.1,1.7-0.3,2.2s-0.5,0.9-1,1.3s-1.2,0.5-2,0.5c-0.9,0-1.5-0.1-2-0.4s-0.8-0.6-1.1-1
		s-0.4-1-0.5-1.7l2.5-0.3c0,0.4,0,0.7,0.1,0.8s0.2,0.3,0.3,0.4c0.1,0.1,0.2,0.1,0.4,0.1c0.3,0,0.5-0.1,0.7-0.3s0.2-0.6,0.2-1.1V134.8
		z"/>
	<path d="M340.9,139.1c0-1.4,0.4-2.5,1.2-3.3s1.9-1.2,3.3-1.2c1.4,0,2.5,0.4,3.3,1.2s1.2,1.8,1.2,3.2c0,1-0.2,1.8-0.5,2.5
		s-0.8,1.1-1.5,1.5s-1.4,0.5-2.4,0.5c-1,0-1.8-0.2-2.4-0.5s-1.1-0.8-1.5-1.5S340.9,140.1,340.9,139.1z M343.5,139.2
		c0,0.9,0.2,1.5,0.5,1.9s0.8,0.6,1.3,0.6c0.6,0,1-0.2,1.3-0.6s0.5-1,0.5-2c0-0.8-0.2-1.4-0.5-1.8s-0.8-0.6-1.3-0.6
		c-0.5,0-1,0.2-1.3,0.6S343.5,138.3,343.5,139.2z"/>
	<path d="M356.8,134.8h2.6v5.1c0,0.5-0.1,1-0.2,1.4c-0.2,0.5-0.4,0.8-0.7,1.2c-0.3,0.3-0.7,0.6-1.1,0.7c-0.5,0.2-1.1,0.3-1.9,0.3
		c-0.4,0-0.9,0-1.4-0.1s-0.9-0.2-1.2-0.3s-0.6-0.4-0.9-0.7c-0.3-0.3-0.5-0.7-0.6-1c-0.2-0.5-0.2-1-0.2-1.5v-5.1h2.6v5.2
		c0,0.5,0.1,0.8,0.4,1.1s0.6,0.4,1.1,0.4c0.5,0,0.8-0.1,1.1-0.4s0.4-0.6,0.4-1.1V134.8z"/>
	<path d="M361.2,143.4v-8.6h4.4c0.8,0,1.4,0.1,1.9,0.2s0.8,0.4,1,0.8s0.4,0.8,0.4,1.4c0,0.5-0.1,0.9-0.3,1.2s-0.5,0.6-0.8,0.8
		c-0.2,0.1-0.5,0.2-0.9,0.3c0.3,0.1,0.5,0.2,0.7,0.3c0.1,0.1,0.2,0.2,0.4,0.5c0.2,0.2,0.3,0.4,0.4,0.5l1.3,2.5h-3l-1.4-2.6
		c-0.2-0.3-0.3-0.6-0.5-0.7c-0.2-0.1-0.4-0.2-0.7-0.2h-0.2v3.5H361.2z M363.9,138.3h1.1c0.1,0,0.4,0,0.7-0.1c0.2,0,0.3-0.1,0.4-0.3
		s0.2-0.3,0.2-0.5c0-0.3-0.1-0.5-0.3-0.6s-0.5-0.2-1-0.2h-1.2V138.3z"/>
	<path d="M370.5,134.8h2.5l3.2,4.8v-4.8h2.5v8.6h-2.5l-3.2-4.7v4.7h-2.5V134.8z"/>
	<path d="M380.5,134.8h7.1v1.8h-4.5v1.4h4.1v1.8h-4.1v1.7h4.6v1.9h-7.2V134.8z"/>
	<path d="M388.3,134.8h2.9l1.7,2.9l1.7-2.9h2.9l-3.3,5v3.6h-2.7v-3.6L388.3,134.8z"/>
	<path d="M403,134.8h2.7v8.6H403V134.8z"/>
	<path d="M411.1,134.8h2.5l0.9,4.8l1.3-4.8h2.5l1.3,4.8l0.9-4.8h2.5l-1.9,8.6h-2.6l-1.5-5.4l-1.5,5.4H413L411.1,134.8z"/>
	<path d="M423.4,139.1c0-1.4,0.4-2.5,1.2-3.3s1.9-1.2,3.3-1.2c1.4,0,2.5,0.4,3.3,1.2s1.2,1.8,1.2,3.2c0,1-0.2,1.8-0.5,2.5
		s-0.8,1.1-1.5,1.5s-1.4,0.5-2.4,0.5c-1,0-1.8-0.2-2.4-0.5s-1.2-0.8-1.5-1.5S423.4,140.1,423.4,139.1z M426.1,139.2
		c0,0.9,0.2,1.5,0.5,1.9s0.8,0.6,1.3,0.6c0.6,0,1-0.2,1.3-0.6s0.5-1,0.5-2c0-0.8-0.2-1.4-0.5-1.8s-0.8-0.6-1.3-0.6
		c-0.5,0-1,0.2-1.3,0.6S426.1,138.3,426.1,139.2z"/>
	<path d="M433.8,143.4v-8.6h4.4c0.8,0,1.4,0.1,1.9,0.2s0.8,0.4,1,0.8s0.4,0.8,0.4,1.4c0,0.5-0.1,0.9-0.3,1.2s-0.5,0.6-0.8,0.8
		c-0.2,0.1-0.5,0.2-0.9,0.3c0.3,0.1,0.5,0.2,0.7,0.3c0.1,0.1,0.2,0.2,0.4,0.5c0.2,0.2,0.3,0.4,0.4,0.5l1.3,2.5h-3l-1.4-2.6
		c-0.2-0.3-0.3-0.6-0.5-0.7c-0.2-0.1-0.4-0.2-0.7-0.2h-0.2v3.5H433.8z M436.4,138.3h1.1c0.1,0,0.4,0,0.7-0.1c0.2,0,0.3-0.1,0.4-0.3
		s0.2-0.3,0.2-0.5c0-0.3-0.1-0.5-0.3-0.6s-0.5-0.2-1-0.2h-1.2V138.3z"/>
	<path d="M443.1,134.8h2.7v3.2l2.8-3.2h3.5l-3.1,3.2l3.3,5.3h-3.3l-1.8-3.5l-1.4,1.4v2.1h-2.7V134.8z"/>
	<path d="M453.1,134.8h7.1v1.8h-4.5v1.4h4.1v1.8h-4.1v1.7h4.6v1.9h-7.2V134.8z"/>
	<path d="M461.8,134.8h3.9c0.8,0,1.4,0.1,1.9,0.3s0.9,0.5,1.2,0.9s0.5,0.9,0.7,1.4s0.2,1.1,0.2,1.7c0,0.9-0.1,1.6-0.3,2.1
		s-0.5,0.9-0.9,1.3s-0.8,0.6-1.2,0.7c-0.6,0.2-1.1,0.2-1.6,0.2h-3.9V134.8z M464.4,136.8v4.7h0.7c0.6,0,0.9-0.1,1.2-0.2
		s0.4-0.3,0.6-0.6s0.2-0.8,0.2-1.5c0-0.9-0.1-1.5-0.4-1.9s-0.8-0.5-1.5-0.5H464.4z"/>
	<path d="M65.5,149.2h6.6v1.8h-3.9v1.5h3.3v1.7h-3.3v3.5h-2.7V149.2z"/>
	<path d="M73.2,153.5c0-1.4,0.4-2.5,1.2-3.3s1.9-1.2,3.3-1.2c1.4,0,2.5,0.4,3.3,1.2s1.2,1.8,1.2,3.2c0,1-0.2,1.8-0.5,2.5
		s-0.8,1.1-1.5,1.5s-1.4,0.5-2.4,0.5c-1,0-1.8-0.2-2.4-0.5s-1.1-0.8-1.5-1.5S73.2,154.5,73.2,153.5z M75.8,153.6
		c0,0.9,0.2,1.5,0.5,1.9s0.8,0.6,1.3,0.6c0.6,0,1-0.2,1.3-0.6s0.5-1,0.5-2c0-0.8-0.2-1.4-0.5-1.8s-0.8-0.6-1.3-0.6
		c-0.5,0-1,0.2-1.3,0.6S75.8,152.7,75.8,153.6z"/>
	<path d="M83.5,157.8v-8.6h4.4c0.8,0,1.4,0.1,1.9,0.2s0.8,0.4,1,0.8s0.4,0.8,0.4,1.4c0,0.5-0.1,0.9-0.3,1.2c-0.2,0.3-0.5,0.6-0.8,0.8
		c-0.2,0.1-0.5,0.2-0.9,0.3c0.3,0.1,0.5,0.2,0.7,0.3c0.1,0.1,0.2,0.2,0.4,0.5s0.3,0.4,0.4,0.5l1.3,2.5h-3l-1.4-2.6
		c-0.2-0.3-0.3-0.6-0.5-0.7c-0.2-0.1-0.4-0.2-0.7-0.2h-0.2v3.5H83.5z M86.2,152.7h1.1c0.1,0,0.4,0,0.7-0.1c0.2,0,0.3-0.1,0.4-0.3
		s0.2-0.3,0.2-0.5c0-0.3-0.1-0.5-0.3-0.6s-0.5-0.2-1-0.2h-1.2V152.7z"/>
	<path d="M96.2,149.2h8.1v2.1h-2.7v6.5h-2.7v-6.5h-2.7V149.2z"/>
	<path d="M104.6,149.2h2.5l0.9,4.8l1.3-4.8h2.5l1.3,4.8l0.9-4.8h2.5l-1.9,8.6h-2.6l-1.5-5.4l-1.5,5.4h-2.6L104.6,149.2z"/>
	<path d="M116.9,153.5c0-1.4,0.4-2.5,1.2-3.3s1.9-1.2,3.3-1.2c1.4,0,2.5,0.4,3.3,1.2s1.2,1.8,1.2,3.2c0,1-0.2,1.8-0.5,2.5
		s-0.8,1.1-1.5,1.5s-1.4,0.5-2.4,0.5c-1,0-1.8-0.2-2.4-0.5s-1.1-0.8-1.5-1.5S116.9,154.5,116.9,153.5z M119.6,153.6
		c0,0.9,0.2,1.5,0.5,1.9s0.8,0.6,1.3,0.6c0.6,0,1-0.2,1.3-0.6s0.5-1,0.5-2c0-0.8-0.2-1.4-0.5-1.8s-0.8-0.6-1.3-0.6
		c-0.5,0-1,0.2-1.3,0.6S119.6,152.7,119.6,153.6z"/>
	<path d="M130.4,149.2h2.9l1.7,2.9l1.7-2.9h2.9l-3.3,5v3.6h-2.7v-3.6L130.4,149.2z"/>
	<path d="M140.6,149.2h7.1v1.8h-4.5v1.4h4.1v1.8h-4.1v1.7h4.6v1.9h-7.2V149.2z"/>
	<path d="M154.6,156.4h-3l-0.4,1.4h-2.7l3.2-8.6h2.9l3.2,8.6H155L154.6,156.4z M154,154.6l-0.9-3.1l-0.9,3.1H154z"/>
	<path d="M158.6,157.8v-8.6h4.4c0.8,0,1.4,0.1,1.9,0.2s0.8,0.4,1,0.8s0.4,0.8,0.4,1.4c0,0.5-0.1,0.9-0.3,1.2
		c-0.2,0.3-0.5,0.6-0.8,0.8c-0.2,0.1-0.5,0.2-0.9,0.3c0.3,0.1,0.5,0.2,0.7,0.3c0.1,0.1,0.2,0.2,0.4,0.5s0.3,0.4,0.4,0.5l1.3,2.5h-3
		l-1.4-2.6c-0.2-0.3-0.3-0.6-0.5-0.7c-0.2-0.1-0.4-0.2-0.7-0.2h-0.2v3.5H158.6z M161.3,152.7h1.1c0.1,0,0.4,0,0.7-0.1
		c0.2,0,0.3-0.1,0.4-0.3s0.2-0.3,0.2-0.5c0-0.3-0.1-0.5-0.3-0.6s-0.5-0.2-1-0.2h-1.2V152.7z"/>
	<path d="M167.5,155l2.5-0.2c0.1,0.4,0.2,0.7,0.3,0.9c0.3,0.3,0.7,0.5,1.2,0.5c0.4,0,0.7-0.1,0.9-0.3s0.3-0.4,0.3-0.6
		c0-0.2-0.1-0.4-0.3-0.6s-0.6-0.3-1.4-0.5c-1.2-0.3-2-0.6-2.5-1c-0.5-0.4-0.8-1-0.8-1.7c0-0.4,0.1-0.9,0.4-1.3s0.6-0.7,1.2-0.9
		s1.2-0.3,2.1-0.3c1.1,0,1.9,0.2,2.5,0.6s0.9,1.1,1,1.9l-2.5,0.1c-0.1-0.4-0.2-0.7-0.4-0.8s-0.5-0.3-0.9-0.3c-0.3,0-0.5,0.1-0.7,0.2
		s-0.2,0.3-0.2,0.5c0,0.1,0.1,0.3,0.2,0.4c0.1,0.1,0.4,0.2,0.9,0.3c1.2,0.2,2,0.5,2.5,0.8s0.9,0.6,1.1,1s0.3,0.8,0.3,1.3
		c0,0.6-0.2,1.1-0.5,1.5s-0.7,0.8-1.3,1.1s-1.2,0.4-2.1,0.4c-1.5,0-2.5-0.3-3-0.8S167.6,155.9,167.5,155z"/>
	<path d="M185.9,156.4h-3l-0.4,1.4h-2.7l3.2-8.6h2.9l3.2,8.6h-2.8L185.9,156.4z M185.3,154.6l-0.9-3.1l-0.9,3.1H185.3z"/>
	<path d="M189.5,155l2.5-0.2c0.1,0.4,0.2,0.7,0.3,0.9c0.3,0.3,0.7,0.5,1.2,0.5c0.4,0,0.7-0.1,0.9-0.3s0.3-0.4,0.3-0.6
		c0-0.2-0.1-0.4-0.3-0.6s-0.6-0.3-1.4-0.5c-1.2-0.3-2-0.6-2.5-1c-0.5-0.4-0.8-1-0.8-1.7c0-0.4,0.1-0.9,0.4-1.3s0.6-0.7,1.2-0.9
		s1.2-0.3,2.1-0.3c1.1,0,1.9,0.2,2.5,0.6s0.9,1.1,1,1.9l-2.5,0.1c-0.1-0.4-0.2-0.7-0.4-0.8s-0.5-0.3-0.9-0.3c-0.3,0-0.5,0.1-0.7,0.2
		s-0.2,0.3-0.2,0.5c0,0.1,0.1,0.3,0.2,0.4c0.1,0.1,0.4,0.2,0.9,0.3c1.2,0.2,2,0.5,2.5,0.8s0.9,0.6,1.1,1s0.3,0.8,0.3,1.3
		c0,0.6-0.2,1.1-0.5,1.5s-0.7,0.8-1.3,1.1s-1.2,0.4-2.1,0.4c-1.5,0-2.5-0.3-3-0.8S189.6,155.9,189.5,155z"/>
	<path d="M207.9,156.4h-3l-0.4,1.4h-2.7l3.2-8.6h2.9l3.2,8.6h-2.8L207.9,156.4z M207.3,154.6l-0.9-3.1l-0.9,3.1H207.3z"/>
	<path d="M216,149.2h6.6v1.8h-3.9v1.5h3.3v1.7h-3.3v3.5H216V149.2z"/>
	<path d="M224,157.8v-8.6h4.4c0.8,0,1.4,0.1,1.9,0.2s0.8,0.4,1,0.8s0.4,0.8,0.4,1.4c0,0.5-0.1,0.9-0.3,1.2c-0.2,0.3-0.5,0.6-0.8,0.8
		c-0.2,0.1-0.5,0.2-0.9,0.3c0.3,0.1,0.5,0.2,0.7,0.3c0.1,0.1,0.2,0.2,0.4,0.5s0.3,0.4,0.4,0.5l1.3,2.5h-3l-1.4-2.6
		c-0.2-0.3-0.3-0.6-0.5-0.7c-0.2-0.1-0.4-0.2-0.7-0.2h-0.2v3.5H224z M226.7,152.7h1.1c0.1,0,0.4,0,0.7-0.1c0.2,0,0.3-0.1,0.4-0.3
		s0.2-0.3,0.2-0.5c0-0.3-0.1-0.5-0.3-0.6s-0.5-0.2-1-0.2h-1.2V152.7z"/>
	<path d="M233.3,149.2h7.1v1.8h-4.5v1.4h4.1v1.8h-4.1v1.7h4.6v1.9h-7.2V149.2z"/>
	<path d="M242,149.2h7.1v1.8h-4.5v1.4h4.1v1.8h-4.1v1.7h4.6v1.9H242V149.2z"/>
	<path d="M250.6,149.2h2.7v6.5h4.1v2.1h-6.8V149.2z"/>
	<path d="M263.9,156.4h-3l-0.4,1.4h-2.7l3.2-8.6h2.9l3.2,8.6h-2.8L263.9,156.4z M263.4,154.6l-0.9-3.1l-0.9,3.1H263.4z"/>
	<path d="M268,149.2h2.5l3.2,4.8v-4.8h2.5v8.6h-2.5l-3.2-4.7v4.7H268V149.2z"/>
	<path d="M283.7,154.3l2.3,0.7c-0.2,0.7-0.4,1.2-0.7,1.6s-0.8,0.8-1.3,1s-1.1,0.3-1.9,0.3c-0.9,0-1.7-0.1-2.3-0.4
		c-0.6-0.3-1.1-0.7-1.5-1.4c-0.4-0.7-0.6-1.6-0.6-2.6c0-1.4,0.4-2.5,1.1-3.3c0.8-0.8,1.8-1.1,3.2-1.1c1.1,0,1.9,0.2,2.6,0.7
		s1.1,1.1,1.4,2l-2.3,0.5c-0.1-0.3-0.2-0.5-0.3-0.6c-0.1-0.2-0.3-0.4-0.5-0.5s-0.5-0.2-0.7-0.2c-0.6,0-1.1,0.2-1.4,0.7
		c-0.2,0.4-0.4,0.9-0.4,1.7c0,1,0.1,1.6,0.4,2c0.3,0.4,0.7,0.5,1.2,0.5c0.5,0,0.9-0.1,1.2-0.4S283.6,154.9,283.7,154.3z"/>
	<path d="M287.3,149.2h7.1v1.8h-4.5v1.4h4.1v1.8h-4.1v1.7h4.6v1.9h-7.2V149.2z"/>
	<path d="M299.9,149.2h4.4c1,0,1.7,0.2,2.2,0.7s0.7,1.1,0.7,2c0,0.9-0.3,1.5-0.8,2s-1.3,0.7-2.4,0.7h-1.5v3.2h-2.7V149.2z
		 M302.6,152.9h0.7c0.5,0,0.9-0.1,1.1-0.3s0.3-0.4,0.3-0.7c0-0.3-0.1-0.5-0.3-0.7s-0.5-0.3-1-0.3h-0.8V152.9z"/>
	<path d="M308.6,149.2h2.7v3h2.9v-3h2.7v8.6h-2.7v-3.5h-2.9v3.5h-2.7V149.2z"/>
	<path d="M318.3,153.5c0-1.4,0.4-2.5,1.2-3.3s1.9-1.2,3.3-1.2c1.4,0,2.5,0.4,3.3,1.2s1.2,1.8,1.2,3.2c0,1-0.2,1.8-0.5,2.5
		s-0.8,1.1-1.5,1.5s-1.4,0.5-2.4,0.5c-1,0-1.8-0.2-2.4-0.5s-1.1-0.8-1.5-1.5S318.3,154.5,318.3,153.5z M320.9,153.6
		c0,0.9,0.2,1.5,0.5,1.9s0.8,0.6,1.3,0.6c0.6,0,1-0.2,1.3-0.6s0.5-1,0.5-2c0-0.8-0.2-1.4-0.5-1.8s-0.8-0.6-1.3-0.6
		c-0.5,0-1,0.2-1.3,0.6S320.9,152.7,320.9,153.6z"/>
	<path d="M327.7,149.2h8.1v2.1h-2.7v6.5h-2.7v-6.5h-2.7V149.2z"/>
	<path d="M336.2,153.5c0-1.4,0.4-2.5,1.2-3.3s1.9-1.2,3.3-1.2c1.4,0,2.5,0.4,3.3,1.2s1.2,1.8,1.2,3.2c0,1-0.2,1.8-0.5,2.5
		s-0.8,1.1-1.5,1.5s-1.4,0.5-2.4,0.5c-1,0-1.8-0.2-2.4-0.5s-1.1-0.8-1.5-1.5S336.2,154.5,336.2,153.5z M338.9,153.6
		c0,0.9,0.2,1.5,0.5,1.9s0.8,0.6,1.3,0.6c0.6,0,1-0.2,1.3-0.6s0.5-1,0.5-2c0-0.8-0.2-1.4-0.5-1.8s-0.8-0.6-1.3-0.6
		c-0.5,0-1,0.2-1.3,0.6S338.9,152.7,338.9,153.6z"/>
	<path d="M350.9,154.7v-1.8h4.1v3.7c-0.8,0.5-1.5,0.9-2.1,1.1s-1.3,0.3-2.1,0.3c-1,0-1.9-0.2-2.5-0.5s-1.1-0.9-1.5-1.6
		s-0.5-1.5-0.5-2.4c0-0.9,0.2-1.8,0.6-2.4s1-1.2,1.7-1.6c0.6-0.3,1.4-0.4,2.3-0.4c0.9,0,1.7,0.1,2.1,0.3s0.9,0.4,1.2,0.8
		s0.5,0.8,0.7,1.4l-2.6,0.5c-0.1-0.3-0.3-0.6-0.5-0.7s-0.6-0.3-1-0.3c-0.6,0-1,0.2-1.4,0.6s-0.5,1-0.5,1.9c0,0.9,0.2,1.6,0.5,2
		s0.8,0.6,1.5,0.6c0.3,0,0.6,0,0.8-0.1s0.6-0.2,0.9-0.4v-0.8H350.9z"/>
	<path d="M356.6,157.8v-8.6h4.4c0.8,0,1.4,0.1,1.9,0.2s0.8,0.4,1,0.8s0.4,0.8,0.4,1.4c0,0.5-0.1,0.9-0.3,1.2s-0.5,0.6-0.8,0.8
		c-0.2,0.1-0.5,0.2-0.9,0.3c0.3,0.1,0.5,0.2,0.7,0.3c0.1,0.1,0.2,0.2,0.4,0.5s0.3,0.4,0.4,0.5l1.3,2.5h-3l-1.4-2.6
		c-0.2-0.3-0.3-0.6-0.5-0.7c-0.2-0.1-0.4-0.2-0.7-0.2h-0.2v3.5H356.6z M359.3,152.7h1.1c0.1,0,0.4,0,0.7-0.1c0.2,0,0.3-0.1,0.4-0.3
		s0.2-0.3,0.2-0.5c0-0.3-0.1-0.5-0.3-0.6s-0.5-0.2-1-0.2h-1.2V152.7z"/>
	<path d="M371.2,156.4h-3l-0.4,1.4H365l3.2-8.6h2.9l3.2,8.6h-2.8L371.2,156.4z M370.6,154.6l-0.9-3.1l-0.9,3.1H370.6z"/>
	<path d="M375.2,149.2h4.4c1,0,1.7,0.2,2.2,0.7s0.7,1.1,0.7,2c0,0.9-0.3,1.5-0.8,2s-1.3,0.7-2.4,0.7h-1.5v3.2h-2.7V149.2z
		 M377.9,152.9h0.7c0.5,0,0.9-0.1,1.1-0.3s0.3-0.4,0.3-0.7c0-0.3-0.1-0.5-0.3-0.7s-0.5-0.3-1-0.3h-0.8V152.9z"/>
	<path d="M383.9,149.2h2.7v3h2.9v-3h2.7v8.6h-2.7v-3.5h-2.9v3.5h-2.7V149.2z"/>
	<path d="M393.9,149.2h7.1v1.8h-4.5v1.4h4.1v1.8h-4.1v1.7h4.6v1.9h-7.2V149.2z"/>
	<path d="M402.6,157.8v-8.6h4.4c0.8,0,1.4,0.1,1.9,0.2s0.8,0.4,1,0.8s0.4,0.8,0.4,1.4c0,0.5-0.1,0.9-0.3,1.2s-0.5,0.6-0.8,0.8
		c-0.2,0.1-0.5,0.2-0.9,0.3c0.3,0.1,0.5,0.2,0.7,0.3c0.1,0.1,0.2,0.2,0.4,0.5s0.3,0.4,0.4,0.5l1.3,2.5h-3l-1.4-2.6
		c-0.2-0.3-0.3-0.6-0.5-0.7c-0.2-0.1-0.4-0.2-0.7-0.2h-0.2v3.5H402.6z M405.3,152.7h1.1c0.1,0,0.4,0,0.7-0.1c0.2,0,0.3-0.1,0.4-0.3
		s0.2-0.3,0.2-0.5c0-0.3-0.1-0.5-0.3-0.6s-0.5-0.2-1-0.2h-1.2V152.7z"/>
	<path d="M411.7,155.4h2.5v2.4h-2.5V155.4z"/>
	<path d="M10.4,178h2.7v8.6h-2.7V178z"/>
	<path d="M34.5,185.2h-3l-0.4,1.4h-2.7l3.2-8.6h2.9l3.2,8.6h-2.8L34.5,185.2z M33.9,183.4l-0.9-3.1l-0.9,3.1H33.9z"/>
	<path d="M38.5,178H42l1.3,5.2l1.3-5.2h3.5v8.6H46v-6.6l-1.7,6.6h-2l-1.7-6.6v6.6h-2.2V178z"/>
	<path d="M69.4,185.2h-3l-0.4,1.4h-2.7l3.2-8.6h2.9l3.2,8.6h-2.8L69.4,185.2z M68.8,183.4l-0.9-3.1l-0.9,3.1H68.8z"/>
	<path d="M73.4,178h2.7v6.5h4.1v2.1h-6.8V178z"/>
	<path d="M80.3,178h2.5l0.9,4.8l1.3-4.8h2.5l1.3,4.8l0.9-4.8h2.5l-1.9,8.6h-2.6l-1.5-5.4l-1.5,5.4h-2.6L80.3,178z"/>
	<path d="M98.5,185.2h-3l-0.4,1.4h-2.7l3.2-8.6h2.9l3.2,8.6h-2.8L98.5,185.2z M97.9,183.4l-0.9-3.1l-0.9,3.1H97.9z"/>
	<path d="M100.7,178h2.9l1.7,2.9l1.7-2.9h2.9l-3.3,5v3.6H104V183L100.7,178z"/>
	<path d="M109.9,183.8l2.5-0.2c0.1,0.4,0.2,0.7,0.3,0.9c0.3,0.3,0.7,0.5,1.2,0.5c0.4,0,0.7-0.1,0.9-0.3s0.3-0.4,0.3-0.6
		c0-0.2-0.1-0.4-0.3-0.6s-0.6-0.3-1.4-0.5c-1.2-0.3-2-0.6-2.5-1c-0.5-0.4-0.8-1-0.8-1.7c0-0.4,0.1-0.9,0.4-1.3s0.6-0.7,1.2-0.9
		s1.2-0.3,2.1-0.3c1.1,0,1.9,0.2,2.5,0.6s0.9,1.1,1,1.9l-2.5,0.1c-0.1-0.4-0.2-0.7-0.4-0.8s-0.5-0.3-0.9-0.3c-0.3,0-0.5,0.1-0.7,0.2
		s-0.2,0.3-0.2,0.5c0,0.1,0.1,0.3,0.2,0.4c0.1,0.1,0.4,0.2,0.9,0.3c1.2,0.2,2,0.5,2.5,0.8s0.9,0.6,1.1,1s0.3,0.8,0.3,1.3
		c0,0.6-0.2,1.1-0.5,1.5s-0.7,0.8-1.3,1.1s-1.2,0.4-2.1,0.4c-1.5,0-2.5-0.3-3-0.8S110,184.7,109.9,183.8z"/>
	<path d="M133.3,178h2.7v3.2l2.8-3.2h3.5l-3.1,3.2l3.3,5.3h-3.3l-1.8-3.5l-1.4,1.4v2.1h-2.7V178z"/>
	<path d="M143.2,178h7.1v1.8h-4.5v1.4h4.1v1.8h-4.1v1.7h4.6v1.9h-7.2V178z"/>
	<path d="M151.9,178h7.1v1.8h-4.5v1.4h4.1v1.8h-4.1v1.7h4.6v1.9h-7.2V178z"/>
	<path d="M160.6,178h2.5l3.2,4.8V178h2.5v8.6h-2.5l-3.2-4.7v4.7h-2.5V178z"/>
	<path d="M184.2,178h8.1v2.1h-2.7v6.5h-2.7v-6.5h-2.7V178z"/>
	<path d="M192.7,182.3c0-1.4,0.4-2.5,1.2-3.3s1.9-1.2,3.3-1.2c1.4,0,2.5,0.4,3.3,1.2s1.2,1.8,1.2,3.2c0,1-0.2,1.8-0.5,2.5
		s-0.8,1.1-1.5,1.5s-1.4,0.5-2.4,0.5c-1,0-1.8-0.2-2.4-0.5s-1.1-0.8-1.5-1.5S192.7,183.3,192.7,182.3z M195.4,182.4
		c0,0.9,0.2,1.5,0.5,1.9s0.8,0.6,1.3,0.6c0.6,0,1-0.2,1.3-0.6s0.5-1,0.5-2c0-0.8-0.2-1.4-0.5-1.8s-0.8-0.6-1.3-0.6
		c-0.5,0-1,0.2-1.3,0.6S195.4,181.5,195.4,182.4z"/>
	<path d="M217.3,178h2.7v6.5h4.1v2.1h-6.8V178z"/>
	<path d="M225.3,178h7.1v1.8h-4.5v1.4h4.1v1.8h-4.1v1.7h4.6v1.9h-7.2V178z"/>
	<path d="M239.2,185.2h-3l-0.4,1.4h-2.7l3.2-8.6h2.9l3.2,8.6h-2.8L239.2,185.2z M238.7,183.4l-0.9-3.1l-0.9,3.1H238.7z"/>
	<path d="M243.3,186.6V178h4.4c0.8,0,1.4,0.1,1.9,0.2s0.8,0.4,1,0.8s0.4,0.8,0.4,1.4c0,0.5-0.1,0.9-0.3,1.2c-0.2,0.3-0.5,0.6-0.8,0.8
		c-0.2,0.1-0.5,0.2-0.9,0.3c0.3,0.1,0.5,0.2,0.7,0.3c0.1,0.1,0.2,0.2,0.4,0.5c0.2,0.2,0.3,0.4,0.4,0.5l1.3,2.5h-3l-1.4-2.6
		c-0.2-0.3-0.3-0.6-0.5-0.7c-0.2-0.1-0.4-0.2-0.7-0.2H246v3.5H243.3z M246,181.5h1.1c0.1,0,0.4,0,0.7-0.1c0.2,0,0.3-0.1,0.4-0.3
		s0.2-0.3,0.2-0.5c0-0.3-0.1-0.5-0.3-0.6s-0.5-0.2-1-0.2H246V181.5z"/>
	<path d="M252.6,178h2.5l3.2,4.8V178h2.5v8.6h-2.5l-3.2-4.7v4.7h-2.5V178z"/>
	<path d="M276.9,178h2.5l3.2,4.8V178h2.5v8.6h-2.5l-3.2-4.7v4.7h-2.5V178z"/>
	<path d="M286.8,178h7.1v1.8h-4.5v1.4h4.1v1.8h-4.1v1.7h4.6v1.9h-7.2V178z"/>
	<path d="M294.6,178h2.5l0.9,4.8l1.3-4.8h2.5l1.3,4.8l0.9-4.8h2.5l-1.9,8.6h-2.6l-1.5-5.4l-1.5,5.4h-2.6L294.6,178z"/>
	<path d="M321.1,178h8.1v2.1h-2.7v6.5h-2.7v-6.5h-2.7V178z"/>
	<path d="M330.4,178h7.1v1.8H333v1.4h4.1v1.8H333v1.7h4.6v1.9h-7.2V178z"/>
	<path d="M344.8,183.1l2.3,0.7c-0.2,0.7-0.4,1.2-0.7,1.6s-0.8,0.8-1.3,1s-1.1,0.3-1.9,0.3c-0.9,0-1.7-0.1-2.3-0.4
		c-0.6-0.3-1.1-0.7-1.5-1.4c-0.4-0.7-0.6-1.6-0.6-2.6c0-1.4,0.4-2.5,1.1-3.3c0.8-0.8,1.8-1.1,3.2-1.1c1.1,0,1.9,0.2,2.6,0.7
		s1.1,1.1,1.4,2l-2.3,0.5c-0.1-0.3-0.2-0.5-0.3-0.6c-0.1-0.2-0.3-0.4-0.5-0.5s-0.5-0.2-0.7-0.2c-0.6,0-1.1,0.2-1.4,0.7
		c-0.2,0.4-0.4,0.9-0.4,1.7c0,1,0.1,1.6,0.4,2c0.3,0.4,0.7,0.5,1.2,0.5c0.5,0,0.9-0.1,1.2-0.4S344.7,183.7,344.8,183.1z"/>
	<path d="M348.4,178h2.7v3h2.9v-3h2.7v8.6H354v-3.5h-2.9v3.5h-2.7V178z"/>
	<path d="M358.4,178h2.5l3.2,4.8V178h2.5v8.6h-2.5l-3.2-4.7v4.7h-2.5V178z"/>
	<path d="M368.1,182.3c0-1.4,0.4-2.5,1.2-3.3s1.9-1.2,3.3-1.2c1.4,0,2.5,0.4,3.3,1.2s1.2,1.8,1.2,3.2c0,1-0.2,1.8-0.5,2.5
		s-0.8,1.1-1.5,1.5s-1.4,0.5-2.4,0.5c-1,0-1.8-0.2-2.4-0.5s-1.1-0.8-1.5-1.5S368.1,183.3,368.1,182.3z M370.7,182.4
		c0,0.9,0.2,1.5,0.5,1.9s0.8,0.6,1.3,0.6c0.6,0,1-0.2,1.3-0.6s0.5-1,0.5-2c0-0.8-0.2-1.4-0.5-1.8s-0.8-0.6-1.3-0.6
		c-0.5,0-1,0.2-1.3,0.6S370.7,181.5,370.7,182.4z"/>
	<path d="M378.4,178h2.7v6.5h4.1v2.1h-6.8V178z"/>
	<path d="M385.8,182.3c0-1.4,0.4-2.5,1.2-3.3s1.9-1.2,3.3-1.2c1.4,0,2.5,0.4,3.3,1.2s1.2,1.8,1.2,3.2c0,1-0.2,1.8-0.5,2.5
		s-0.8,1.1-1.5,1.5s-1.4,0.5-2.4,0.5c-1,0-1.8-0.2-2.4-0.5s-1.1-0.8-1.5-1.5S385.8,183.3,385.8,182.3z M388.5,182.4
		c0,0.9,0.2,1.5,0.5,1.9s0.8,0.6,1.3,0.6c0.6,0,1-0.2,1.3-0.6s0.5-1,0.5-2c0-0.8-0.2-1.4-0.5-1.8s-0.8-0.6-1.3-0.6
		c-0.5,0-1,0.2-1.3,0.6S388.5,181.5,388.5,182.4z"/>
	<path d="M400.5,183.5v-1.8h4.1v3.7c-0.8,0.5-1.5,0.9-2.1,1.1s-1.3,0.3-2.1,0.3c-1,0-1.9-0.2-2.5-0.5s-1.1-0.9-1.5-1.6
		s-0.5-1.5-0.5-2.4c0-0.9,0.2-1.8,0.6-2.4s1-1.2,1.7-1.6c0.6-0.3,1.4-0.4,2.3-0.4c0.9,0,1.7,0.1,2.1,0.3s0.9,0.4,1.2,0.8
		s0.5,0.8,0.7,1.4l-2.6,0.5c-0.1-0.3-0.3-0.6-0.5-0.7s-0.6-0.3-1-0.3c-0.6,0-1,0.2-1.4,0.6s-0.5,1-0.5,1.9c0,0.9,0.2,1.6,0.5,2
		s0.8,0.6,1.5,0.6c0.3,0,0.6,0,0.8-0.1s0.6-0.2,0.9-0.4v-0.8H400.5z"/>
	<path d="M406.3,178h2.7v8.6h-2.7V178z"/>
	<path d="M410.8,178h7.1v1.8h-4.5v1.4h4.1v1.8h-4.1v1.7h4.6v1.9h-7.2V178z"/>
	<path d="M419,183.8l2.5-0.2c0.1,0.4,0.2,0.7,0.3,0.9c0.3,0.3,0.7,0.5,1.2,0.5c0.4,0,0.7-0.1,0.9-0.3s0.3-0.4,0.3-0.6
		c0-0.2-0.1-0.4-0.3-0.6s-0.6-0.3-1.4-0.5c-1.2-0.3-2-0.6-2.5-1c-0.5-0.4-0.8-1-0.8-1.7c0-0.4,0.1-0.9,0.4-1.3s0.6-0.7,1.2-0.9
		s1.2-0.3,2.1-0.3c1.1,0,1.9,0.2,2.5,0.6s0.9,1.1,1,1.9l-2.5,0.1c-0.1-0.4-0.2-0.7-0.4-0.8s-0.5-0.3-0.9-0.3c-0.3,0-0.5,0.1-0.7,0.2
		s-0.2,0.3-0.2,0.5c0,0.1,0.1,0.3,0.2,0.4c0.1,0.1,0.4,0.2,0.9,0.3c1.2,0.2,2,0.5,2.5,0.8s0.9,0.6,1.1,1s0.3,0.8,0.3,1.3
		c0,0.6-0.2,1.1-0.5,1.5s-0.7,0.8-1.3,1.1s-1.2,0.4-2.1,0.4c-1.5,0-2.5-0.3-3-0.8S419.1,184.7,419,183.8z"/>
	<path d="M447.7,185.2h-3l-0.4,1.4h-2.7l3.2-8.6h2.9l3.2,8.6h-2.8L447.7,185.2z M447.1,183.4l-0.9-3.1l-0.9,3.1H447.1z"/>
	<path d="M451.8,178h2.5l3.2,4.8V178h2.5v8.6h-2.5l-3.2-4.7v4.7h-2.5V178z"/>
	<path d="M461.8,178h3.9c0.8,0,1.4,0.1,1.9,0.3s0.9,0.5,1.2,0.9s0.5,0.9,0.7,1.4s0.2,1.1,0.2,1.7c0,0.9-0.1,1.6-0.3,2.1
		s-0.5,0.9-0.9,1.3s-0.8,0.6-1.2,0.7c-0.6,0.2-1.1,0.2-1.6,0.2h-3.9V178z M464.4,180v4.7h0.7c0.6,0,0.9-0.1,1.2-0.2s0.4-0.3,0.6-0.6
		s0.2-0.8,0.2-1.5c0-0.9-0.1-1.5-0.4-1.9s-0.8-0.5-1.5-0.5H464.4z"/>
	<path d="M9.7,192.4h8.1v2.1h-2.7v6.5h-2.7v-6.5H9.7V192.4z"/>
	<path d="M19,192.4h7.1v1.8h-4.5v1.4h4.1v1.8h-4.1v1.7h4.6v1.9H19V192.4z"/>
	<path d="M33.4,197.5l2.3,0.7c-0.2,0.7-0.4,1.2-0.7,1.6s-0.8,0.8-1.3,1s-1.1,0.3-1.9,0.3c-0.9,0-1.7-0.1-2.3-0.4
		c-0.6-0.3-1.1-0.7-1.5-1.4c-0.4-0.7-0.6-1.6-0.6-2.6c0-1.4,0.4-2.5,1.1-3.3c0.8-0.8,1.8-1.1,3.2-1.1c1.1,0,1.9,0.2,2.6,0.7
		s1.1,1.1,1.4,2l-2.3,0.5c-0.1-0.3-0.2-0.5-0.3-0.6c-0.1-0.2-0.3-0.4-0.5-0.5s-0.5-0.2-0.7-0.2c-0.6,0-1.1,0.2-1.4,0.7
		c-0.2,0.4-0.4,0.9-0.4,1.7c0,1,0.1,1.6,0.4,2c0.3,0.4,0.7,0.5,1.2,0.5c0.5,0,0.9-0.1,1.2-0.4S33.2,198.1,33.4,197.5z"/>
	<path d="M37,192.4h2.7v3h2.9v-3h2.7v8.6h-2.7v-3.5h-2.9v3.5H37V192.4z"/>
	<path d="M47,192.4h2.5l3.2,4.8v-4.8h2.5v8.6h-2.5l-3.2-4.7v4.7H47V192.4z"/>
	<path d="M57.1,192.4h2.7v8.6h-2.7V192.4z"/>
	<path d="M69.3,199.8c0.3,0.2,0.5,0.4,0.7,0.4c0.2,0.1,0.4,0.2,0.6,0.3l-0.7,1.5c-0.4-0.2-0.7-0.4-1.1-0.6s-0.6-0.4-0.8-0.6
		c-0.6,0.3-1.3,0.4-2.2,0.4c-1.3,0-2.3-0.3-3.1-1c-0.9-0.8-1.3-1.9-1.3-3.4c0-1.4,0.4-2.5,1.2-3.3s1.9-1.2,3.3-1.2
		c1.4,0,2.5,0.4,3.3,1.1s1.2,1.9,1.2,3.3C70.2,198,69.9,199,69.3,199.8z M67.2,198.4c0.2-0.4,0.3-0.9,0.3-1.7c0-0.9-0.2-1.5-0.5-1.9
		s-0.8-0.6-1.3-0.6c-0.5,0-1,0.2-1.3,0.6s-0.5,1-0.5,1.8c0,0.9,0.2,1.6,0.5,2s0.8,0.6,1.3,0.6c0.2,0,0.3,0,0.5-0.1
		c-0.2-0.2-0.6-0.4-1.1-0.6l0.4-1c0.2,0,0.4,0.1,0.5,0.2s0.4,0.2,0.8,0.5C67,198.3,67.1,198.3,67.2,198.4z"/>
	<path d="M77.2,192.4h2.6v5.1c0,0.5-0.1,1-0.2,1.4c-0.2,0.5-0.4,0.8-0.7,1.2s-0.7,0.6-1.1,0.7c-0.5,0.2-1.1,0.3-1.9,0.3
		c-0.4,0-0.9,0-1.4-0.1s-0.9-0.2-1.2-0.3s-0.6-0.4-0.9-0.7s-0.5-0.7-0.6-1c-0.2-0.5-0.2-1-0.2-1.5v-5.1h2.6v5.2
		c0,0.5,0.1,0.8,0.4,1.1c0.3,0.3,0.6,0.4,1.1,0.4c0.5,0,0.8-0.1,1.1-0.4c0.3-0.3,0.4-0.6,0.4-1.1V192.4z"/>
	<path d="M81.6,192.4h7.1v1.8h-4.5v1.4h4.1v1.8h-4.1v1.7h4.6v1.9h-7.2V192.4z"/>
	<path d="M89.8,198.2l2.5-0.2c0.1,0.4,0.2,0.7,0.3,0.9c0.3,0.3,0.7,0.5,1.2,0.5c0.4,0,0.7-0.1,0.9-0.3s0.3-0.4,0.3-0.6
		c0-0.2-0.1-0.4-0.3-0.6s-0.6-0.3-1.4-0.5c-1.2-0.3-2-0.6-2.5-1c-0.5-0.4-0.8-1-0.8-1.7c0-0.4,0.1-0.9,0.4-1.3s0.6-0.7,1.2-0.9
		s1.2-0.3,2.1-0.3c1.1,0,1.9,0.2,2.5,0.6s0.9,1.1,1,1.9l-2.5,0.1c-0.1-0.4-0.2-0.7-0.4-0.8s-0.5-0.3-0.9-0.3c-0.3,0-0.5,0.1-0.7,0.2
		s-0.2,0.3-0.2,0.5c0,0.1,0.1,0.3,0.2,0.4c0.1,0.1,0.4,0.2,0.9,0.3c1.2,0.2,2,0.5,2.5,0.8s0.9,0.6,1.1,1s0.3,0.8,0.3,1.3
		c0,0.6-0.2,1.1-0.5,1.5s-0.7,0.8-1.3,1.1s-1.2,0.4-2.1,0.4c-1.5,0-2.5-0.3-3-0.8S89.9,199.1,89.8,198.2z"/>
	<path d="M98.8,198.6h2.5v2.4h-2.5V198.6z"/>
	<path d="M113.7,192.4h2.7v8.6h-2.7V192.4z"/>
	<path d="M128.9,192.4h2.7v3h2.9v-3h2.7v8.6h-2.7v-3.5h-2.9v3.5h-2.7V192.4z"/>
	<path d="M144.2,199.6h-3l-0.4,1.4H138l3.2-8.6h2.9l3.2,8.6h-2.8L144.2,199.6z M143.6,197.8l-0.9-3.1l-0.9,3.1H143.6z"/>
	<path d="M146.7,192.4h2.8l1.9,6.2l1.9-6.2h2.7l-3.2,8.6h-2.9L146.7,192.4z"/>
	<path d="M156.9,192.4h7.1v1.8h-4.5v1.4h4.1v1.8h-4.1v1.7h4.6v1.9h-7.2V192.4z"/>
	<path d="M176.2,201v-8.6h4.4c0.8,0,1.4,0.1,1.9,0.2s0.8,0.4,1,0.8s0.4,0.8,0.4,1.4c0,0.5-0.1,0.9-0.3,1.2c-0.2,0.3-0.5,0.6-0.8,0.8
		c-0.2,0.1-0.5,0.2-0.9,0.3c0.3,0.1,0.5,0.2,0.7,0.3c0.1,0.1,0.2,0.2,0.4,0.5c0.2,0.2,0.3,0.4,0.4,0.5l1.3,2.5h-3l-1.4-2.6
		c-0.2-0.3-0.3-0.6-0.5-0.7c-0.2-0.1-0.4-0.2-0.7-0.2h-0.2v3.5H176.2z M178.9,195.9h1.1c0.1,0,0.4,0,0.7-0.1c0.2,0,0.3-0.1,0.4-0.3
		s0.2-0.3,0.2-0.5c0-0.3-0.1-0.5-0.3-0.6s-0.5-0.2-1-0.2h-1.2V195.9z"/>
	<path d="M185.5,192.4h7.1v1.8h-4.5v1.4h4.1v1.8h-4.1v1.7h4.6v1.9h-7.2V192.4z"/>
	<path d="M199.9,197.5l2.3,0.7c-0.2,0.7-0.4,1.2-0.7,1.6s-0.8,0.8-1.3,1s-1.1,0.3-1.9,0.3c-0.9,0-1.7-0.1-2.3-0.4
		c-0.6-0.3-1.1-0.7-1.5-1.4c-0.4-0.7-0.6-1.6-0.6-2.6c0-1.4,0.4-2.5,1.1-3.3c0.8-0.8,1.8-1.1,3.2-1.1c1.1,0,1.9,0.2,2.6,0.7
		s1.1,1.1,1.4,2l-2.3,0.5c-0.1-0.3-0.2-0.5-0.3-0.6c-0.1-0.2-0.3-0.4-0.5-0.5s-0.5-0.2-0.7-0.2c-0.6,0-1.1,0.2-1.4,0.7
		c-0.2,0.4-0.4,0.9-0.4,1.7c0,1,0.1,1.6,0.4,2c0.3,0.4,0.7,0.5,1.2,0.5c0.5,0,0.9-0.1,1.2-0.4S199.8,198.1,199.9,197.5z"/>
	<path d="M203.5,192.4h7.1v1.8h-4.5v1.4h4.1v1.8h-4.1v1.7h4.6v1.9h-7.2V192.4z"/>
	<path d="M212.2,192.4h2.5l3.2,4.8v-4.8h2.5v8.6h-2.5l-3.2-4.7v4.7h-2.5V192.4z"/>
	<path d="M221.6,192.4h8.1v2.1h-2.7v6.5h-2.7v-6.5h-2.7V192.4z"/>
	<path d="M230.8,192.4h2.7v6.5h4.1v2.1h-6.8V192.4z"/>
	<path d="M237,192.4h2.9l1.7,2.9l1.7-2.9h2.9l-3.3,5v3.6h-2.7v-3.6L237,192.4z"/>
	<path d="M257.9,192.4h5c0.8,0,1.5,0.2,1.9,0.6s0.7,0.9,0.7,1.5c0,0.5-0.2,0.9-0.5,1.3c-0.2,0.2-0.5,0.4-0.9,0.6
		c0.6,0.1,1.1,0.4,1.4,0.8s0.4,0.8,0.4,1.4c0,0.4-0.1,0.8-0.3,1.2s-0.5,0.6-0.8,0.8c-0.2,0.1-0.6,0.2-1,0.3c-0.6,0.1-1,0.1-1.2,0.1
		h-4.6V192.4z M260.6,195.8h1.2c0.4,0,0.7-0.1,0.9-0.2s0.2-0.3,0.2-0.6c0-0.2-0.1-0.4-0.2-0.6s-0.4-0.2-0.8-0.2h-1.2V195.8z
		 M260.6,199.2h1.4c0.5,0,0.8-0.1,1-0.2s0.3-0.4,0.3-0.7c0-0.3-0.1-0.5-0.3-0.6s-0.5-0.2-1-0.2h-1.3V199.2z"/>
	<path d="M267.2,192.4h7.1v1.8h-4.5v1.4h4.1v1.8h-4.1v1.7h4.6v1.9h-7.2V192.4z"/>
	<path d="M275.9,192.4h7.1v1.8h-4.5v1.4h4.1v1.8h-4.1v1.7h4.6v1.9h-7.2V192.4z"/>
	<path d="M284.6,192.4h2.5l3.2,4.8v-4.8h2.5v8.6h-2.5l-3.2-4.7v4.7h-2.5V192.4z"/>
	<path d="M305.2,192.4h2.7v6.5h4.1v2.1h-6.8V192.4z"/>
	<path d="M313.2,192.4h7.1v1.8h-4.5v1.4h4.1v1.8h-4.1v1.7h4.6v1.9h-7.2V192.4z"/>
	<path d="M327.1,199.6h-3l-0.4,1.4H321l3.2-8.6h2.9l3.2,8.6h-2.8L327.1,199.6z M326.6,197.8l-0.9-3.1l-0.9,3.1H326.6z"/>
	<path d="M331.2,201v-8.6h4.4c0.8,0,1.4,0.1,1.9,0.2s0.8,0.4,1,0.8s0.4,0.8,0.4,1.4c0,0.5-0.1,0.9-0.3,1.2s-0.5,0.6-0.8,0.8
		c-0.2,0.1-0.5,0.2-0.9,0.3c0.3,0.1,0.5,0.2,0.7,0.3c0.1,0.1,0.2,0.2,0.4,0.5c0.2,0.2,0.3,0.4,0.4,0.5l1.3,2.5h-3l-1.4-2.6
		c-0.2-0.3-0.3-0.6-0.5-0.7c-0.2-0.1-0.4-0.2-0.7-0.2h-0.2v3.5H331.2z M333.9,195.9h1.1c0.1,0,0.4,0,0.7-0.1c0.2,0,0.3-0.1,0.4-0.3
		s0.2-0.3,0.2-0.5c0-0.3-0.1-0.5-0.3-0.6s-0.5-0.2-1-0.2h-1.2V195.9z"/>
	<path d="M340.5,192.4h2.5l3.2,4.8v-4.8h2.5v8.6h-2.5l-3.2-4.7v4.7h-2.5V192.4z"/>
	<path d="M350.6,192.4h2.7v8.6h-2.7V192.4z"/>
	<path d="M355.2,192.4h2.5l3.2,4.8v-4.8h2.5v8.6h-2.5l-3.2-4.7v4.7h-2.5V192.4z"/>
	<path d="M369.5,197.9v-1.8h4.1v3.7c-0.8,0.5-1.5,0.9-2.1,1.1s-1.3,0.3-2.1,0.3c-1,0-1.8-0.2-2.5-0.5s-1.1-0.9-1.5-1.6
		s-0.5-1.5-0.5-2.4c0-0.9,0.2-1.8,0.6-2.4s1-1.2,1.7-1.6c0.6-0.3,1.4-0.4,2.3-0.4c0.9,0,1.7,0.1,2.1,0.3s0.9,0.4,1.2,0.8
		s0.5,0.8,0.7,1.4l-2.6,0.5c-0.1-0.3-0.3-0.6-0.5-0.7s-0.6-0.3-1-0.3c-0.6,0-1,0.2-1.4,0.6s-0.5,1-0.5,1.9c0,0.9,0.2,1.6,0.5,2
		s0.8,0.6,1.5,0.6c0.3,0,0.6,0,0.8-0.1s0.6-0.2,0.9-0.4v-0.8H369.5z"/>
	<path d="M391.1,199.6h-3l-0.4,1.4h-2.7l3.2-8.6h2.9l3.2,8.6h-2.8L391.1,199.6z M390.5,197.8l-0.9-3.1l-0.9,3.1H390.5z"/>
	<path d="M395.1,192.4h5c0.8,0,1.5,0.2,1.9,0.6s0.7,0.9,0.7,1.5c0,0.5-0.2,0.9-0.5,1.3c-0.2,0.2-0.5,0.4-0.9,0.6
		c0.6,0.1,1.1,0.4,1.4,0.8s0.4,0.8,0.4,1.4c0,0.4-0.1,0.8-0.3,1.2s-0.5,0.6-0.8,0.8c-0.2,0.1-0.6,0.2-1,0.3c-0.6,0.1-1,0.1-1.2,0.1
		h-4.6V192.4z M397.8,195.8h1.2c0.4,0,0.7-0.1,0.9-0.2s0.2-0.3,0.2-0.6c0-0.2-0.1-0.4-0.2-0.6s-0.4-0.2-0.8-0.2h-1.2V195.8z
		 M397.8,199.2h1.4c0.5,0,0.8-0.1,1-0.2s0.3-0.4,0.3-0.7c0-0.3-0.1-0.5-0.3-0.6s-0.5-0.2-1-0.2h-1.3V199.2z"/>
	<path d="M404.1,196.7c0-1.4,0.4-2.5,1.2-3.3s1.9-1.2,3.3-1.2c1.4,0,2.5,0.4,3.3,1.2s1.2,1.8,1.2,3.2c0,1-0.2,1.8-0.5,2.5
		s-0.8,1.1-1.5,1.5s-1.4,0.5-2.4,0.5c-1,0-1.8-0.2-2.4-0.5s-1.1-0.8-1.5-1.5S404.1,197.7,404.1,196.7z M406.8,196.8
		c0,0.9,0.2,1.5,0.5,1.9s0.8,0.6,1.3,0.6c0.6,0,1-0.2,1.3-0.6s0.5-1,0.5-2c0-0.8-0.2-1.4-0.5-1.8s-0.8-0.6-1.3-0.6
		c-0.5,0-1,0.2-1.3,0.6S406.8,195.9,406.8,196.8z"/>
	<path d="M420,192.4h2.6v5.1c0,0.5-0.1,1-0.2,1.4c-0.2,0.5-0.4,0.8-0.7,1.2s-0.7,0.6-1.1,0.7c-0.5,0.2-1.1,0.3-1.9,0.3
		c-0.4,0-0.9,0-1.4-0.1s-0.9-0.2-1.2-0.3s-0.6-0.4-0.9-0.7s-0.5-0.7-0.6-1c-0.2-0.5-0.2-1-0.2-1.5v-5.1h2.6v5.2
		c0,0.5,0.1,0.8,0.4,1.1c0.3,0.3,0.6,0.4,1.1,0.4c0.5,0,0.8-0.1,1.1-0.4c0.3-0.3,0.4-0.6,0.4-1.1V192.4z"/>
	<path d="M423.8,192.4h8.1v2.1h-2.7v6.5h-2.7v-6.5h-2.7V192.4z"/>
	<path d="M443.1,192.4h8.1v2.1h-2.7v6.5h-2.7v-6.5h-2.7V192.4z"/>
	<path d="M452.4,192.4h2.7v3h2.9v-3h2.7v8.6H458v-3.5h-2.9v3.5h-2.7V192.4z"/>
	<path d="M462.4,192.4h7.1v1.8h-4.5v1.4h4.1v1.8h-4.1v1.7h4.6v1.9h-7.2V192.4z"/>
	<path d="M10.3,206.8h6.6v1.8H13v1.5h3.3v1.7H13v3.5h-2.7V206.8z"/>
	<path d="M22.5,214h-3l-0.4,1.4h-2.7l3.2-8.6h2.9l3.2,8.6h-2.8L22.5,214z M21.9,212.2l-0.9-3.1l-0.9,3.1H21.9z"/>
	<path d="M26.5,206.8H29l3.2,4.8v-4.8h2.5v8.6h-2.5l-3.2-4.7v4.7h-2.5V206.8z"/>
	<path d="M35.9,206.8H44v2.1h-2.7v6.5h-2.7V209h-2.7V206.8z"/>
	<path d="M49.6,214h-3l-0.4,1.4h-2.7l3.2-8.6h2.9l3.2,8.6h-2.8L49.6,214z M49.1,212.2l-0.9-3.1l-0.9,3.1H49.1z"/>
	<path d="M53.2,212.6l2.5-0.2c0.1,0.4,0.2,0.7,0.3,0.9c0.3,0.3,0.7,0.5,1.2,0.5c0.4,0,0.7-0.1,0.9-0.3s0.3-0.4,0.3-0.6
		c0-0.2-0.1-0.4-0.3-0.6s-0.6-0.3-1.4-0.5c-1.2-0.3-2-0.6-2.5-1c-0.5-0.4-0.8-1-0.8-1.7c0-0.4,0.1-0.9,0.4-1.3s0.6-0.7,1.2-0.9
		s1.2-0.3,2.1-0.3c1.1,0,1.9,0.2,2.5,0.6s0.9,1.1,1,1.9l-2.5,0.1c-0.1-0.4-0.2-0.7-0.4-0.8s-0.5-0.3-0.9-0.3c-0.3,0-0.5,0.1-0.7,0.2
		S56,208.8,56,209c0,0.1,0.1,0.3,0.2,0.4c0.1,0.1,0.4,0.2,0.9,0.3c1.2,0.2,2,0.5,2.5,0.8s0.9,0.6,1.1,1s0.3,0.8,0.3,1.3
		c0,0.6-0.2,1.1-0.5,1.5s-0.7,0.8-1.3,1.1s-1.2,0.4-2.1,0.4c-1.5,0-2.5-0.3-3-0.8S53.3,213.5,53.2,212.6z"/>
	<path d="M61.8,206.8h8.1v2.1h-2.7v6.5h-2.7V209h-2.7V206.8z"/>
	<path d="M71.1,206.8h2.7v8.6h-2.7V206.8z"/>
	<path d="M81.4,211.9l2.3,0.7c-0.2,0.7-0.4,1.2-0.7,1.6s-0.8,0.8-1.3,1s-1.1,0.3-1.9,0.3c-0.9,0-1.7-0.1-2.3-0.4
		c-0.6-0.3-1.1-0.7-1.5-1.4c-0.4-0.7-0.6-1.6-0.6-2.6c0-1.4,0.4-2.5,1.1-3.3c0.8-0.8,1.8-1.1,3.2-1.1c1.1,0,1.9,0.2,2.6,0.7
		s1.1,1.1,1.4,2l-2.3,0.5c-0.1-0.3-0.2-0.5-0.3-0.6c-0.1-0.2-0.3-0.4-0.5-0.5s-0.5-0.2-0.7-0.2c-0.6,0-1.1,0.2-1.4,0.7
		c-0.2,0.4-0.4,0.9-0.4,1.7c0,1,0.1,1.6,0.4,2c0.3,0.4,0.7,0.5,1.2,0.5c0.5,0,0.9-0.1,1.2-0.4S81.3,212.5,81.4,211.9z"/>
	<path d="M99.2,212.3v-1.8h4.1v3.7c-0.8,0.5-1.5,0.9-2.1,1.1s-1.3,0.3-2.1,0.3c-1,0-1.9-0.2-2.5-0.5s-1.1-0.9-1.5-1.6
		s-0.5-1.5-0.5-2.4c0-0.9,0.2-1.8,0.6-2.4s1-1.2,1.7-1.6c0.6-0.3,1.4-0.4,2.3-0.4c0.9,0,1.7,0.1,2.1,0.3s0.9,0.4,1.2,0.8
		s0.5,0.8,0.7,1.4l-2.6,0.5c-0.1-0.3-0.3-0.6-0.5-0.7s-0.6-0.3-1-0.3c-0.6,0-1,0.2-1.4,0.6s-0.5,1-0.5,1.9c0,0.9,0.2,1.6,0.5,2
		s0.8,0.6,1.5,0.6c0.3,0,0.6,0,0.8-0.1s0.6-0.2,0.9-0.4v-0.8H99.2z"/>
	<path d="M104.4,212.6l2.5-0.2c0.1,0.4,0.2,0.7,0.3,0.9c0.3,0.3,0.7,0.5,1.2,0.5c0.4,0,0.7-0.1,0.9-0.3s0.3-0.4,0.3-0.6
		c0-0.2-0.1-0.4-0.3-0.6s-0.6-0.3-1.4-0.5c-1.2-0.3-2-0.6-2.5-1c-0.5-0.4-0.8-1-0.8-1.7c0-0.4,0.1-0.9,0.4-1.3s0.6-0.7,1.2-0.9
		s1.2-0.3,2.1-0.3c1.1,0,1.9,0.2,2.5,0.6s0.9,1.1,1,1.9l-2.5,0.1c-0.1-0.4-0.2-0.7-0.4-0.8s-0.5-0.3-0.9-0.3c-0.3,0-0.5,0.1-0.7,0.2
		s-0.2,0.3-0.2,0.5c0,0.1,0.1,0.3,0.2,0.4c0.1,0.1,0.4,0.2,0.9,0.3c1.2,0.2,2,0.5,2.5,0.8s0.9,0.6,1.1,1s0.3,0.8,0.3,1.3
		c0,0.6-0.2,1.1-0.5,1.5s-0.7,0.8-1.3,1.1s-1.2,0.4-2.1,0.4c-1.5,0-2.5-0.3-3-0.8S104.5,213.5,104.4,212.6z"/>
	<path d="M118.8,214h-3l-0.4,1.4h-2.7l3.2-8.6h2.9l3.2,8.6h-2.8L118.8,214z M118.3,212.2l-0.9-3.1l-0.9,3.1H118.3z"/>
	<path d="M122.9,206.8h4.4c1,0,1.7,0.2,2.2,0.7s0.7,1.1,0.7,2c0,0.9-0.3,1.5-0.8,2s-1.3,0.7-2.4,0.7h-1.5v3.2h-2.7V206.8z
		 M125.5,210.5h0.7c0.5,0,0.9-0.1,1.1-0.3s0.3-0.4,0.3-0.7c0-0.3-0.1-0.5-0.3-0.7s-0.5-0.3-1-0.3h-0.8V210.5z"/>
	<path d="M146.6,214h-3l-0.4,1.4h-2.7l3.2-8.6h2.9l3.2,8.6h-2.8L146.6,214z M146.1,212.2l-0.9-3.1l-0.9,3.1H146.1z"/>
	<path d="M150.7,206.8h2.5l3.2,4.8v-4.8h2.5v8.6h-2.5l-3.2-4.7v4.7h-2.5V206.8z"/>
	<path d="M160.8,206.8h2.7v8.6h-2.7V206.8z"/>
	<path d="M165.3,206.8h3.5l1.3,5.2l1.3-5.2h3.5v8.6h-2.2v-6.6l-1.7,6.6h-2l-1.7-6.6v6.6h-2.2V206.8z"/>
	<path d="M182,214h-3l-0.4,1.4h-2.7l3.2-8.6h2.9l3.2,8.6h-2.8L182,214z M181.4,212.2l-0.9-3.1l-0.9,3.1H181.4z"/>
	<path d="M184.6,206.8h8.1v2.1H190v6.5h-2.7V209h-2.7V206.8z"/>
	<path d="M194,206.8h2.7v8.6H194V206.8z"/>
	<path d="M198.2,211.1c0-1.4,0.4-2.5,1.2-3.3s1.9-1.2,3.3-1.2c1.4,0,2.5,0.4,3.3,1.2s1.2,1.8,1.2,3.2c0,1-0.2,1.8-0.5,2.5
		s-0.8,1.1-1.5,1.5s-1.4,0.5-2.4,0.5c-1,0-1.8-0.2-2.4-0.5s-1.1-0.8-1.5-1.5S198.2,212.1,198.2,211.1z M200.9,211.2
		c0,0.9,0.2,1.5,0.5,1.9s0.8,0.6,1.3,0.6c0.6,0,1-0.2,1.3-0.6s0.5-1,0.5-2c0-0.8-0.2-1.4-0.5-1.8s-0.8-0.6-1.3-0.6
		c-0.5,0-1,0.2-1.3,0.6S200.9,210.3,200.9,211.2z"/>
	<path d="M208.6,206.8h2.5l3.2,4.8v-4.8h2.5v8.6h-2.5l-3.2-4.7v4.7h-2.5V206.8z"/>
	<path d="M228.4,206.8h2.7v6.5h4.1v2.1h-6.8V206.8z"/>
	<path d="M236.5,206.8h2.7v8.6h-2.7V206.8z"/>
	<path d="M241.1,206.8h5c0.8,0,1.5,0.2,1.9,0.6s0.7,0.9,0.7,1.5c0,0.5-0.2,0.9-0.5,1.3c-0.2,0.2-0.5,0.4-0.9,0.6
		c0.6,0.1,1.1,0.4,1.4,0.8s0.4,0.8,0.4,1.4c0,0.4-0.1,0.8-0.3,1.2s-0.5,0.6-0.8,0.8c-0.2,0.1-0.6,0.2-1,0.3c-0.6,0.1-1,0.1-1.2,0.1
		h-4.6V206.8z M243.7,210.2h1.2c0.4,0,0.7-0.1,0.9-0.2s0.2-0.3,0.2-0.6c0-0.2-0.1-0.4-0.2-0.6s-0.4-0.2-0.8-0.2h-1.2V210.2z
		 M243.7,213.6h1.4c0.5,0,0.8-0.1,1-0.2s0.3-0.4,0.3-0.7c0-0.3-0.1-0.5-0.3-0.6s-0.5-0.2-1-0.2h-1.3V213.6z"/>
	<path d="M250.4,215.4v-8.6h4.4c0.8,0,1.4,0.1,1.9,0.2s0.8,0.4,1,0.8s0.4,0.8,0.4,1.4c0,0.5-0.1,0.9-0.3,1.2
		c-0.2,0.3-0.5,0.6-0.8,0.8c-0.2,0.1-0.5,0.2-0.9,0.3c0.3,0.1,0.5,0.2,0.7,0.3c0.1,0.1,0.2,0.2,0.4,0.5c0.2,0.2,0.3,0.4,0.4,0.5
		l1.3,2.5h-3l-1.4-2.6c-0.2-0.3-0.3-0.6-0.5-0.7c-0.2-0.1-0.4-0.2-0.7-0.2h-0.2v3.5H250.4z M253.1,210.3h1.1c0.1,0,0.4,0,0.7-0.1
		c0.2,0,0.3-0.1,0.4-0.3s0.2-0.3,0.2-0.5c0-0.3-0.1-0.5-0.3-0.6s-0.5-0.2-1-0.2h-1.2V210.3z"/>
	<path d="M265,214h-3l-0.4,1.4h-2.7l3.2-8.6h2.9l3.2,8.6h-2.8L265,214z M264.4,212.2l-0.9-3.1l-0.9,3.1H264.4z"/>
	<path d="M269.1,215.4v-8.6h4.4c0.8,0,1.4,0.1,1.9,0.2c0.4,0.1,0.8,0.4,1,0.8s0.4,0.8,0.4,1.4c0,0.5-0.1,0.9-0.3,1.2
		s-0.5,0.6-0.8,0.8c-0.2,0.1-0.5,0.2-0.9,0.3c0.3,0.1,0.5,0.2,0.7,0.3c0.1,0.1,0.2,0.2,0.4,0.5c0.2,0.2,0.3,0.4,0.4,0.5l1.3,2.5h-3
		l-1.4-2.6c-0.2-0.3-0.3-0.6-0.5-0.7c-0.2-0.1-0.4-0.2-0.7-0.2h-0.2v3.5H269.1z M271.7,210.3h1.1c0.1,0,0.4,0,0.7-0.1
		c0.2,0,0.3-0.1,0.4-0.3s0.2-0.3,0.2-0.5c0-0.3-0.1-0.5-0.3-0.6s-0.5-0.2-1-0.2h-1.2V210.3z"/>
	<path d="M277,206.8h2.9l1.7,2.9l1.7-2.9h2.9l-3.3,5v3.6h-2.7v-3.6L277,206.8z"/>
	<path d="M302.3,214h-3l-0.4,1.4h-2.7l3.2-8.6h2.9l3.2,8.6h-2.8L302.3,214z M301.8,212.2l-0.9-3.1l-0.9,3.1H301.8z"/>
	<path d="M306.4,206.8h2.5l3.2,4.8v-4.8h2.5v8.6h-2.5l-3.2-4.7v4.7h-2.5V206.8z"/>
	<path d="M316.4,206.8h3.9c0.8,0,1.4,0.1,1.9,0.3s0.9,0.5,1.2,0.9s0.5,0.9,0.7,1.4s0.2,1.1,0.2,1.7c0,0.9-0.1,1.6-0.3,2.1
		s-0.5,0.9-0.9,1.3s-0.8,0.6-1.2,0.7c-0.6,0.2-1.1,0.2-1.6,0.2h-3.9V206.8z M319.1,208.8v4.7h0.7c0.6,0,0.9-0.1,1.2-0.2
		s0.4-0.3,0.6-0.6s0.2-0.8,0.2-1.5c0-0.9-0.1-1.5-0.4-1.9s-0.8-0.5-1.5-0.5H319.1z"/>
	<path d="M335.7,206.8h2.7v8.6h-2.7V206.8z"/>
	<path d="M339.6,206.8h8.1v2.1H345v6.5h-2.7V209h-2.7V206.8z"/>
	<path d="M358.8,206.8h2.7v8.6h-2.7V206.8z"/>
	<path d="M362.9,212.6l2.5-0.2c0.1,0.4,0.2,0.7,0.3,0.9c0.3,0.3,0.7,0.5,1.2,0.5c0.4,0,0.7-0.1,0.9-0.3s0.3-0.4,0.3-0.6
		c0-0.2-0.1-0.4-0.3-0.6s-0.6-0.3-1.4-0.5c-1.2-0.3-2-0.6-2.5-1c-0.5-0.4-0.8-1-0.8-1.7c0-0.4,0.1-0.9,0.4-1.3s0.6-0.7,1.2-0.9
		s1.2-0.3,2.1-0.3c1.1,0,1.9,0.2,2.5,0.6s0.9,1.1,1,1.9l-2.5,0.1c-0.1-0.4-0.2-0.7-0.4-0.8s-0.5-0.3-0.9-0.3c-0.3,0-0.5,0.1-0.7,0.2
		s-0.2,0.3-0.2,0.5c0,0.1,0.1,0.3,0.2,0.4c0.1,0.1,0.4,0.2,0.9,0.3c1.2,0.2,2,0.5,2.5,0.8s0.9,0.6,1.1,1s0.3,0.8,0.3,1.3
		c0,0.6-0.2,1.1-0.5,1.5s-0.7,0.8-1.3,1.1s-1.2,0.4-2.1,0.4c-1.5,0-2.5-0.3-3-0.8S363,213.5,362.9,212.6z"/>
	<path d="M381.9,206.8h5c0.8,0,1.5,0.2,1.9,0.6s0.7,0.9,0.7,1.5c0,0.5-0.2,0.9-0.5,1.3c-0.2,0.2-0.5,0.4-0.9,0.6
		c0.6,0.1,1.1,0.4,1.4,0.8s0.4,0.8,0.4,1.4c0,0.4-0.1,0.8-0.3,1.2s-0.5,0.6-0.8,0.8c-0.2,0.1-0.6,0.2-1,0.3c-0.6,0.1-1,0.1-1.2,0.1
		h-4.6V206.8z M384.6,210.2h1.2c0.4,0,0.7-0.1,0.9-0.2s0.2-0.3,0.2-0.6c0-0.2-0.1-0.4-0.2-0.6s-0.4-0.2-0.8-0.2h-1.2V210.2z
		 M384.6,213.6h1.4c0.5,0,0.8-0.1,1-0.2s0.3-0.4,0.3-0.7c0-0.3-0.1-0.5-0.3-0.6s-0.5-0.2-1-0.2h-1.3V213.6z"/>
	<path d="M391.2,206.8h7.1v1.8h-4.5v1.4h4.1v1.8h-4.1v1.7h4.6v1.9h-7.2V206.8z"/>
	<path d="M400,206.8h2.7v8.6H400V206.8z"/>
	<path d="M404.6,206.8h2.5l3.2,4.8v-4.8h2.5v8.6h-2.5l-3.2-4.7v4.7h-2.5V206.8z"/>
	<path d="M418.9,212.3v-1.8h4.1v3.7c-0.8,0.5-1.5,0.9-2.1,1.1s-1.3,0.3-2.1,0.3c-1,0-1.8-0.2-2.5-0.5s-1.1-0.9-1.5-1.6
		s-0.5-1.5-0.5-2.4c0-0.9,0.2-1.8,0.6-2.4s1-1.2,1.7-1.6c0.6-0.3,1.4-0.4,2.3-0.4c0.9,0,1.7,0.1,2.1,0.3s0.9,0.4,1.2,0.8
		s0.5,0.8,0.7,1.4l-2.6,0.5c-0.1-0.3-0.3-0.6-0.5-0.7s-0.6-0.3-1-0.3c-0.6,0-1,0.2-1.4,0.6s-0.5,1-0.5,1.9c0,0.9,0.2,1.6,0.5,2
		s0.8,0.6,1.5,0.6c0.3,0,0.6,0,0.8-0.1s0.6-0.2,0.9-0.4v-0.8H418.9z"/>
	<path d="M440,206.8h2.6v5.1c0,0.5-0.1,1-0.2,1.4c-0.2,0.5-0.4,0.8-0.7,1.2s-0.7,0.6-1.1,0.7c-0.5,0.2-1.1,0.3-1.9,0.3
		c-0.4,0-0.9,0-1.4-0.1s-0.9-0.2-1.2-0.3s-0.6-0.4-0.9-0.7s-0.5-0.7-0.6-1c-0.2-0.5-0.2-1-0.2-1.5v-5.1h2.6v5.2
		c0,0.5,0.1,0.8,0.4,1.1c0.3,0.3,0.6,0.4,1.1,0.4c0.5,0,0.8-0.1,1.1-0.4c0.3-0.3,0.4-0.6,0.4-1.1V206.8z"/>
	<path d="M443.9,212.6l2.5-0.2c0.1,0.4,0.2,0.7,0.3,0.9c0.3,0.3,0.7,0.5,1.2,0.5c0.4,0,0.7-0.1,0.9-0.3s0.3-0.4,0.3-0.6
		c0-0.2-0.1-0.4-0.3-0.6s-0.6-0.3-1.4-0.5c-1.2-0.3-2-0.6-2.5-1c-0.5-0.4-0.8-1-0.8-1.7c0-0.4,0.1-0.9,0.4-1.3s0.6-0.7,1.2-0.9
		s1.2-0.3,2.1-0.3c1.1,0,1.9,0.2,2.5,0.6s0.9,1.1,1,1.9l-2.5,0.1c-0.1-0.4-0.2-0.7-0.4-0.8s-0.5-0.3-0.9-0.3c-0.3,0-0.5,0.1-0.7,0.2
		s-0.2,0.3-0.2,0.5c0,0.1,0.1,0.3,0.2,0.4c0.1,0.1,0.4,0.2,0.9,0.3c1.2,0.2,2,0.5,2.5,0.8s0.9,0.6,1.1,1s0.3,0.8,0.3,1.3
		c0,0.6-0.2,1.1-0.5,1.5s-0.7,0.8-1.3,1.1s-1.2,0.4-2.1,0.4c-1.5,0-2.5-0.3-3-0.8S444,213.5,443.9,212.6z"/>
	<path d="M453.1,206.8h7.1v1.8h-4.5v1.4h4.1v1.8h-4.1v1.7h4.6v1.9h-7.2V206.8z"/>
	<path d="M461.8,206.8h3.9c0.8,0,1.4,0.1,1.9,0.3s0.9,0.5,1.2,0.9s0.5,0.9,0.7,1.4s0.2,1.1,0.2,1.7c0,0.9-0.1,1.6-0.3,2.1
		s-0.5,0.9-0.9,1.3s-0.8,0.6-1.2,0.7c-0.6,0.2-1.1,0.2-1.6,0.2h-3.9V206.8z M464.4,208.8v4.7h0.7c0.6,0,0.9-0.1,1.2-0.2
		s0.4-0.3,0.6-0.6s0.2-0.8,0.2-1.5c0-0.9-0.1-1.5-0.4-1.9s-0.8-0.5-1.5-0.5H464.4z"/>
	<path d="M128.8,221.2h8.1v2.1h-2.7v6.5h-2.7v-6.5h-2.7V221.2z"/>
	<path d="M138.1,221.2h2.7v3h2.9v-3h2.7v8.6h-2.7v-3.5h-2.9v3.5h-2.7V221.2z"/>
	<path d="M148.1,229.8v-8.6h4.4c0.8,0,1.4,0.1,1.9,0.2s0.8,0.4,1,0.8s0.4,0.8,0.4,1.4c0,0.5-0.1,0.9-0.3,1.2
		c-0.2,0.3-0.5,0.6-0.8,0.8c-0.2,0.1-0.5,0.2-0.9,0.3c0.3,0.1,0.5,0.2,0.7,0.3c0.1,0.1,0.2,0.2,0.4,0.5c0.2,0.2,0.3,0.4,0.4,0.5
		l1.3,2.5h-3l-1.4-2.6c-0.2-0.3-0.3-0.6-0.5-0.7c-0.2-0.1-0.4-0.2-0.7-0.2h-0.2v3.5H148.1z M150.8,224.7h1.1c0.1,0,0.4,0,0.7-0.1
		c0.2,0,0.3-0.1,0.4-0.3s0.2-0.3,0.2-0.5c0-0.3-0.1-0.5-0.3-0.6s-0.5-0.2-1-0.2h-1.2V224.7z"/>
	<path d="M156.9,225.5c0-1.4,0.4-2.5,1.2-3.3s1.9-1.2,3.3-1.2c1.4,0,2.5,0.4,3.3,1.2s1.2,1.8,1.2,3.2c0,1-0.2,1.8-0.5,2.5
		s-0.8,1.1-1.5,1.5s-1.4,0.5-2.4,0.5c-1,0-1.8-0.2-2.4-0.5s-1.1-0.8-1.5-1.5S156.9,226.5,156.9,225.5z M159.5,225.6
		c0,0.9,0.2,1.5,0.5,1.9s0.8,0.6,1.3,0.6c0.6,0,1-0.2,1.3-0.6s0.5-1,0.5-2c0-0.8-0.2-1.4-0.5-1.8s-0.8-0.6-1.3-0.6
		c-0.5,0-1,0.2-1.3,0.6S159.5,224.7,159.5,225.6z"/>
	<path d="M172.8,221.2h2.6v5.1c0,0.5-0.1,1-0.2,1.4c-0.2,0.5-0.4,0.8-0.7,1.2s-0.7,0.6-1.1,0.7c-0.5,0.2-1.1,0.3-1.9,0.3
		c-0.4,0-0.9,0-1.4-0.1s-0.9-0.2-1.2-0.3s-0.6-0.4-0.9-0.7s-0.5-0.7-0.6-1c-0.2-0.5-0.2-1-0.2-1.5v-5.1h2.6v5.2
		c0,0.5,0.1,0.8,0.4,1.1c0.3,0.3,0.6,0.4,1.1,0.4c0.5,0,0.8-0.1,1.1-0.4c0.3-0.3,0.4-0.6,0.4-1.1V221.2z"/>
	<path d="M181.5,226.7v-1.8h4.1v3.7c-0.8,0.5-1.5,0.9-2.1,1.1s-1.3,0.3-2.1,0.3c-1,0-1.9-0.2-2.5-0.5s-1.1-0.9-1.5-1.6
		s-0.5-1.5-0.5-2.4c0-0.9,0.2-1.8,0.6-2.4s1-1.2,1.7-1.6c0.6-0.3,1.4-0.4,2.3-0.4c0.9,0,1.7,0.1,2.1,0.3s0.9,0.4,1.2,0.8
		s0.5,0.8,0.7,1.4l-2.6,0.5c-0.1-0.3-0.3-0.6-0.5-0.7s-0.6-0.3-1-0.3c-0.6,0-1,0.2-1.4,0.6s-0.5,1-0.5,1.9c0,0.9,0.2,1.6,0.5,2
		s0.8,0.6,1.5,0.6c0.3,0,0.6,0,0.8-0.1s0.6-0.2,0.9-0.4v-0.8H181.5z"/>
	<path d="M187.2,221.2h2.7v3h2.9v-3h2.7v8.6h-2.7v-3.5h-2.9v3.5h-2.7V221.2z"/>
	<path d="M196.8,225.5c0-1.4,0.4-2.5,1.2-3.3s1.9-1.2,3.3-1.2c1.4,0,2.5,0.4,3.3,1.2s1.2,1.8,1.2,3.2c0,1-0.2,1.8-0.5,2.5
		s-0.8,1.1-1.5,1.5s-1.4,0.5-2.4,0.5c-1,0-1.8-0.2-2.4-0.5s-1.1-0.8-1.5-1.5S196.8,226.5,196.8,225.5z M199.5,225.6
		c0,0.9,0.2,1.5,0.5,1.9s0.8,0.6,1.3,0.6c0.6,0,1-0.2,1.3-0.6s0.5-1,0.5-2c0-0.8-0.2-1.4-0.5-1.8s-0.8-0.6-1.3-0.6
		c-0.5,0-1,0.2-1.3,0.6S199.5,224.7,199.5,225.6z"/>
	<path d="M212.8,221.2h2.6v5.1c0,0.5-0.1,1-0.2,1.4c-0.2,0.5-0.4,0.8-0.7,1.2s-0.7,0.6-1.1,0.7c-0.5,0.2-1.1,0.3-1.9,0.3
		c-0.4,0-0.9,0-1.4-0.1s-0.9-0.2-1.2-0.3s-0.6-0.4-0.9-0.7s-0.5-0.7-0.6-1c-0.2-0.5-0.2-1-0.2-1.5v-5.1h2.6v5.2
		c0,0.5,0.1,0.8,0.4,1.1c0.3,0.3,0.6,0.4,1.1,0.4c0.5,0,0.8-0.1,1.1-0.4c0.3-0.3,0.4-0.6,0.4-1.1V221.2z"/>
	<path d="M216.6,221.2h8.1v2.1h-2.7v6.5h-2.7v-6.5h-2.7V221.2z"/>
	<path d="M229.2,221.2h8.1v2.1h-2.7v6.5h-2.7v-6.5h-2.7V221.2z"/>
	<path d="M238.5,221.2h2.7v3h2.9v-3h2.7v8.6h-2.7v-3.5h-2.9v3.5h-2.7V221.2z"/>
	<path d="M248.6,221.2h2.7v8.6h-2.7V221.2z"/>
	<path d="M252.7,227l2.5-0.2c0.1,0.4,0.2,0.7,0.3,0.9c0.3,0.3,0.7,0.5,1.2,0.5c0.4,0,0.7-0.1,0.9-0.3s0.3-0.4,0.3-0.6
		c0-0.2-0.1-0.4-0.3-0.6s-0.6-0.3-1.4-0.5c-1.2-0.3-2-0.6-2.5-1c-0.5-0.4-0.8-1-0.8-1.7c0-0.4,0.1-0.9,0.4-1.3s0.6-0.7,1.2-0.9
		s1.2-0.3,2.1-0.3c1.1,0,1.9,0.2,2.5,0.6s0.9,1.1,1,1.9l-2.5,0.1c-0.1-0.4-0.2-0.7-0.4-0.8s-0.5-0.3-0.9-0.3c-0.3,0-0.5,0.1-0.7,0.2
		s-0.2,0.3-0.2,0.5c0,0.1,0.1,0.3,0.2,0.4c0.1,0.1,0.4,0.2,0.9,0.3c1.2,0.2,2,0.5,2.5,0.8s0.9,0.6,1.1,1s0.3,0.8,0.3,1.3
		c0,0.6-0.2,1.1-0.5,1.5s-0.7,0.8-1.3,1.1s-1.2,0.4-2.1,0.4c-1.5,0-2.5-0.3-3-0.8S252.8,227.9,252.7,227z"/>
	<path d="M265.4,227l2.5-0.2c0.1,0.4,0.2,0.7,0.3,0.9c0.3,0.3,0.7,0.5,1.2,0.5c0.4,0,0.7-0.1,0.9-0.3s0.3-0.4,0.3-0.6
		c0-0.2-0.1-0.4-0.3-0.6s-0.6-0.3-1.4-0.5c-1.2-0.3-2-0.6-2.5-1c-0.5-0.4-0.8-1-0.8-1.7c0-0.4,0.1-0.9,0.4-1.3s0.6-0.7,1.2-0.9
		s1.2-0.3,2.1-0.3c1.1,0,1.9,0.2,2.5,0.6s0.9,1.1,1,1.9l-2.5,0.1c-0.1-0.4-0.2-0.7-0.4-0.8s-0.5-0.3-0.9-0.3c-0.3,0-0.5,0.1-0.7,0.2
		s-0.2,0.3-0.2,0.5c0,0.1,0.1,0.3,0.2,0.4c0.1,0.1,0.4,0.2,0.9,0.3c1.2,0.2,2,0.5,2.5,0.8s0.9,0.6,1.1,1s0.3,0.8,0.3,1.3
		c0,0.6-0.2,1.1-0.5,1.5s-0.7,0.8-1.3,1.1s-1.2,0.4-2.1,0.4c-1.5,0-2.5-0.3-3-0.8S265.4,227.9,265.4,227z"/>
	<path d="M274.6,221.2h2.7v8.6h-2.7V221.2z"/>
	<path d="M278.6,221.2h8.1v2.1h-2.7v6.5h-2.7v-6.5h-2.7V221.2z"/>
	<path d="M287.8,221.2h7.1v1.8h-4.5v1.4h4.1v1.8h-4.1v1.7h4.6v1.9h-7.2V221.2z"/>
	<path d="M296.3,227.4h2.5v2.4h-2.5V227.4z"/>
	<path d="M300.3,227.4h2.5v2.4h-2.5V227.4z"/>
	<path d="M304.3,227.4h2.5v2.4h-2.5V227.4z"/>
	<path d="M308.3,227.4h2.5v2.4h-2.5V227.4z"/>
	<path d="M317.8,228.4h-3l-0.4,1.4h-2.7l3.2-8.6h2.9l3.2,8.6h-2.8L317.8,228.4z M317.2,226.6l-0.9-3.1l-0.9,3.1H317.2z"/>
	<path d="M325.8,221.2h2.7v6.5h4.1v2.1h-6.8V221.2z"/>
	<path d="M333.3,225.5c0-1.4,0.4-2.5,1.2-3.3s1.9-1.2,3.3-1.2c1.4,0,2.5,0.4,3.3,1.2s1.2,1.8,1.2,3.2c0,1-0.2,1.8-0.5,2.5
		s-0.8,1.1-1.5,1.5s-1.4,0.5-2.4,0.5c-1,0-1.8-0.2-2.4-0.5s-1.2-0.8-1.5-1.5S333.3,226.5,333.3,225.5z M335.9,225.6
		c0,0.9,0.2,1.5,0.5,1.9s0.8,0.6,1.3,0.6c0.6,0,1-0.2,1.3-0.6s0.5-1,0.5-2c0-0.8-0.2-1.4-0.5-1.8s-0.8-0.6-1.3-0.6
		c-0.5,0-1,0.2-1.3,0.6S335.9,224.7,335.9,225.6z"/>
	<path d="M342.7,221.2h8.1v2.1h-2.7v6.5h-2.7v-6.5h-2.7V221.2z"/>
</svg>
